<?xml version="1.0" encoding="utf-8" standalone="no"?>
<!DOCTYPE svg PUBLIC "-//W3C//DTD SVG 1.1//EN"
  "http://www.w3.org/Graphics/SVG/1.1/DTD/svg11.dtd">
<svg xmlns:xlink="http://www.w3.org/1999/xlink" width="1728pt" height="1008pt" viewBox="0 0 1728 1008" xmlns="http://www.w3.org/2000/svg" version="1.1">
 <metadata>
  <rdf:RDF xmlns:dc="http://purl.org/dc/elements/1.1/" xmlns:cc="http://creativecommons.org/ns#" xmlns:rdf="http://www.w3.org/1999/02/22-rdf-syntax-ns#">
   <cc:Work>
    <dc:type rdf:resource="http://purl.org/dc/dcmitype/StillImage"/>
    <dc:date>2022-10-30T23:54:31.770027</dc:date>
    <dc:format>image/svg+xml</dc:format>
    <dc:creator>
     <cc:Agent>
      <dc:title>Matplotlib v3.5.2, https://matplotlib.org/</dc:title>
     </cc:Agent>
    </dc:creator>
   </cc:Work>
  </rdf:RDF>
 </metadata>
 <defs>
  <style type="text/css">*{stroke-linejoin: round; stroke-linecap: butt}</style>
 </defs>
 <g id="figure_1">
  <g id="patch_1">
   <path d="M 0 1008 
L 1728 1008 
L 1728 0 
L 0 0 
z
" style="fill: #ffffff"/>
  </g>
  <g id="axes_1">
   <g id="patch_2">
    <path d="M 216 897.12 
L 1555.2 897.12 
L 1555.2 120.96 
L 216 120.96 
L 216 897.12 
z
" style="fill: none"/>
   </g>
   <g id="matplotlib.axis_1">
    <g id="xtick_1">
     <g id="line2d_1">
      <defs>
       <path id="m23e3c4514f" d="M 0 0 
L 0 9 
" style="stroke: #262626; stroke-width: 1.875"/>
      </defs>
      <g>
       <use xlink:href="#m23e3c4514f" x="435.846538" y="897.12" style="fill: #262626; stroke: #262626; stroke-width: 1.875"/>
      </g>
     </g>
     <g id="text_1">
      <!-- 0.0 -->
      <g style="fill: #262626" transform="translate(397.679038 946.0925)scale(0.48 -0.48)">
       <defs>
        <path id="DejaVuSans-30" d="M 2034 4250 
Q 1547 4250 1301 3770 
Q 1056 3291 1056 2328 
Q 1056 1369 1301 889 
Q 1547 409 2034 409 
Q 2525 409 2770 889 
Q 3016 1369 3016 2328 
Q 3016 3291 2770 3770 
Q 2525 4250 2034 4250 
z
M 2034 4750 
Q 2819 4750 3233 4129 
Q 3647 3509 3647 2328 
Q 3647 1150 3233 529 
Q 2819 -91 2034 -91 
Q 1250 -91 836 529 
Q 422 1150 422 2328 
Q 422 3509 836 4129 
Q 1250 4750 2034 4750 
z
" transform="scale(0.015625)"/>
        <path id="DejaVuSans-2e" d="M 684 794 
L 1344 794 
L 1344 0 
L 684 0 
L 684 794 
z
" transform="scale(0.015625)"/>
       </defs>
       <use xlink:href="#DejaVuSans-30"/>
       <use xlink:href="#DejaVuSans-2e" x="63.623047"/>
       <use xlink:href="#DejaVuSans-30" x="95.410156"/>
      </g>
     </g>
    </g>
    <g id="xtick_2">
     <g id="line2d_2">
      <g>
       <use xlink:href="#m23e3c4514f" x="700.802889" y="897.12" style="fill: #262626; stroke: #262626; stroke-width: 1.875"/>
      </g>
     </g>
     <g id="text_2">
      <!-- 0.5 -->
      <g style="fill: #262626" transform="translate(662.635389 946.0925)scale(0.48 -0.48)">
       <defs>
        <path id="DejaVuSans-35" d="M 691 4666 
L 3169 4666 
L 3169 4134 
L 1269 4134 
L 1269 2991 
Q 1406 3038 1543 3061 
Q 1681 3084 1819 3084 
Q 2600 3084 3056 2656 
Q 3513 2228 3513 1497 
Q 3513 744 3044 326 
Q 2575 -91 1722 -91 
Q 1428 -91 1123 -41 
Q 819 9 494 109 
L 494 744 
Q 775 591 1075 516 
Q 1375 441 1709 441 
Q 2250 441 2565 725 
Q 2881 1009 2881 1497 
Q 2881 1984 2565 2268 
Q 2250 2553 1709 2553 
Q 1456 2553 1204 2497 
Q 953 2441 691 2322 
L 691 4666 
z
" transform="scale(0.015625)"/>
       </defs>
       <use xlink:href="#DejaVuSans-30"/>
       <use xlink:href="#DejaVuSans-2e" x="63.623047"/>
       <use xlink:href="#DejaVuSans-35" x="95.410156"/>
      </g>
     </g>
    </g>
    <g id="xtick_3">
     <g id="line2d_3">
      <g>
       <use xlink:href="#m23e3c4514f" x="965.75924" y="897.12" style="fill: #262626; stroke: #262626; stroke-width: 1.875"/>
      </g>
     </g>
     <g id="text_3">
      <!-- 1.0 -->
      <g style="fill: #262626" transform="translate(927.59174 946.0925)scale(0.48 -0.48)">
       <defs>
        <path id="DejaVuSans-31" d="M 794 531 
L 1825 531 
L 1825 4091 
L 703 3866 
L 703 4441 
L 1819 4666 
L 2450 4666 
L 2450 531 
L 3481 531 
L 3481 0 
L 794 0 
L 794 531 
z
" transform="scale(0.015625)"/>
       </defs>
       <use xlink:href="#DejaVuSans-31"/>
       <use xlink:href="#DejaVuSans-2e" x="63.623047"/>
       <use xlink:href="#DejaVuSans-30" x="95.410156"/>
      </g>
     </g>
    </g>
    <g id="xtick_4">
     <g id="line2d_4">
      <g>
       <use xlink:href="#m23e3c4514f" x="1230.715592" y="897.12" style="fill: #262626; stroke: #262626; stroke-width: 1.875"/>
      </g>
     </g>
     <g id="text_4">
      <!-- 1.5 -->
      <g style="fill: #262626" transform="translate(1192.548092 946.0925)scale(0.48 -0.48)">
       <use xlink:href="#DejaVuSans-31"/>
       <use xlink:href="#DejaVuSans-2e" x="63.623047"/>
       <use xlink:href="#DejaVuSans-35" x="95.410156"/>
      </g>
     </g>
    </g>
    <g id="xtick_5">
     <g id="line2d_5">
      <g>
       <use xlink:href="#m23e3c4514f" x="1495.671943" y="897.12" style="fill: #262626; stroke: #262626; stroke-width: 1.875"/>
      </g>
     </g>
     <g id="text_5">
      <!-- 2.0 -->
      <g style="fill: #262626" transform="translate(1457.504443 946.0925)scale(0.48 -0.48)">
       <defs>
        <path id="DejaVuSans-32" d="M 1228 531 
L 3431 531 
L 3431 0 
L 469 0 
L 469 531 
Q 828 903 1448 1529 
Q 2069 2156 2228 2338 
Q 2531 2678 2651 2914 
Q 2772 3150 2772 3378 
Q 2772 3750 2511 3984 
Q 2250 4219 1831 4219 
Q 1534 4219 1204 4116 
Q 875 4013 500 3803 
L 500 4441 
Q 881 4594 1212 4672 
Q 1544 4750 1819 4750 
Q 2544 4750 2975 4387 
Q 3406 4025 3406 3419 
Q 3406 3131 3298 2873 
Q 3191 2616 2906 2266 
Q 2828 2175 2409 1742 
Q 1991 1309 1228 531 
z
" transform="scale(0.015625)"/>
       </defs>
       <use xlink:href="#DejaVuSans-32"/>
       <use xlink:href="#DejaVuSans-2e" x="63.623047"/>
       <use xlink:href="#DejaVuSans-30" x="95.410156"/>
      </g>
     </g>
    </g>
    <g id="text_6">
     <!-- Z [nm] -->
     <g style="fill: #262626" transform="translate(804.2175 996.5475)scale(0.48 -0.48)">
      <defs>
       <path id="DejaVuSans-5a" d="M 359 4666 
L 4025 4666 
L 4025 4184 
L 1075 531 
L 4097 531 
L 4097 0 
L 288 0 
L 288 481 
L 3238 4134 
L 359 4134 
L 359 4666 
z
" transform="scale(0.015625)"/>
       <path id="DejaVuSans-20" transform="scale(0.015625)"/>
       <path id="DejaVuSans-5b" d="M 550 4863 
L 1875 4863 
L 1875 4416 
L 1125 4416 
L 1125 -397 
L 1875 -397 
L 1875 -844 
L 550 -844 
L 550 4863 
z
" transform="scale(0.015625)"/>
       <path id="DejaVuSans-6e" d="M 3513 2113 
L 3513 0 
L 2938 0 
L 2938 2094 
Q 2938 2591 2744 2837 
Q 2550 3084 2163 3084 
Q 1697 3084 1428 2787 
Q 1159 2491 1159 1978 
L 1159 0 
L 581 0 
L 581 3500 
L 1159 3500 
L 1159 2956 
Q 1366 3272 1645 3428 
Q 1925 3584 2291 3584 
Q 2894 3584 3203 3211 
Q 3513 2838 3513 2113 
z
" transform="scale(0.015625)"/>
       <path id="DejaVuSans-6d" d="M 3328 2828 
Q 3544 3216 3844 3400 
Q 4144 3584 4550 3584 
Q 5097 3584 5394 3201 
Q 5691 2819 5691 2113 
L 5691 0 
L 5113 0 
L 5113 2094 
Q 5113 2597 4934 2840 
Q 4756 3084 4391 3084 
Q 3944 3084 3684 2787 
Q 3425 2491 3425 1978 
L 3425 0 
L 2847 0 
L 2847 2094 
Q 2847 2600 2669 2842 
Q 2491 3084 2119 3084 
Q 1678 3084 1418 2786 
Q 1159 2488 1159 1978 
L 1159 0 
L 581 0 
L 581 3500 
L 1159 3500 
L 1159 2956 
Q 1356 3278 1631 3431 
Q 1906 3584 2284 3584 
Q 2666 3584 2933 3390 
Q 3200 3197 3328 2828 
z
" transform="scale(0.015625)"/>
       <path id="DejaVuSans-5d" d="M 1947 4863 
L 1947 -844 
L 622 -844 
L 622 -397 
L 1369 -397 
L 1369 4416 
L 622 4416 
L 622 4863 
L 1947 4863 
z
" transform="scale(0.015625)"/>
      </defs>
      <use xlink:href="#DejaVuSans-5a"/>
      <use xlink:href="#DejaVuSans-20" x="68.505859"/>
      <use xlink:href="#DejaVuSans-5b" x="100.292969"/>
      <use xlink:href="#DejaVuSans-6e" x="139.306641"/>
      <use xlink:href="#DejaVuSans-6d" x="202.685547"/>
      <use xlink:href="#DejaVuSans-5d" x="300.097656"/>
     </g>
    </g>
   </g>
   <g id="matplotlib.axis_2">
    <g id="ytick_1">
     <g id="line2d_6">
      <defs>
       <path id="maff392dc4f" d="M 0 0 
L -9 0 
" style="stroke: #262626; stroke-width: 1.875"/>
      </defs>
      <g>
       <use xlink:href="#maff392dc4f" x="216" y="840.436329" style="fill: #262626; stroke: #262626; stroke-width: 1.875"/>
      </g>
     </g>
     <g id="text_7">
      <!-- −10 -->
      <g style="fill: #262626" transform="translate(102.1975 858.672579)scale(0.48 -0.48)">
       <defs>
        <path id="DejaVuSans-2212" d="M 678 2272 
L 4684 2272 
L 4684 1741 
L 678 1741 
L 678 2272 
z
" transform="scale(0.015625)"/>
       </defs>
       <use xlink:href="#DejaVuSans-2212"/>
       <use xlink:href="#DejaVuSans-31" x="83.789062"/>
       <use xlink:href="#DejaVuSans-30" x="147.412109"/>
      </g>
     </g>
    </g>
    <g id="ytick_2">
     <g id="line2d_7">
      <g>
       <use xlink:href="#maff392dc4f" x="216" y="703.431338" style="fill: #262626; stroke: #262626; stroke-width: 1.875"/>
      </g>
     </g>
     <g id="text_8">
      <!-- −8 -->
      <g style="fill: #262626" transform="translate(132.7375 721.667588)scale(0.48 -0.48)">
       <defs>
        <path id="DejaVuSans-38" d="M 2034 2216 
Q 1584 2216 1326 1975 
Q 1069 1734 1069 1313 
Q 1069 891 1326 650 
Q 1584 409 2034 409 
Q 2484 409 2743 651 
Q 3003 894 3003 1313 
Q 3003 1734 2745 1975 
Q 2488 2216 2034 2216 
z
M 1403 2484 
Q 997 2584 770 2862 
Q 544 3141 544 3541 
Q 544 4100 942 4425 
Q 1341 4750 2034 4750 
Q 2731 4750 3128 4425 
Q 3525 4100 3525 3541 
Q 3525 3141 3298 2862 
Q 3072 2584 2669 2484 
Q 3125 2378 3379 2068 
Q 3634 1759 3634 1313 
Q 3634 634 3220 271 
Q 2806 -91 2034 -91 
Q 1263 -91 848 271 
Q 434 634 434 1313 
Q 434 1759 690 2068 
Q 947 2378 1403 2484 
z
M 1172 3481 
Q 1172 3119 1398 2916 
Q 1625 2713 2034 2713 
Q 2441 2713 2670 2916 
Q 2900 3119 2900 3481 
Q 2900 3844 2670 4047 
Q 2441 4250 2034 4250 
Q 1625 4250 1398 4047 
Q 1172 3844 1172 3481 
z
" transform="scale(0.015625)"/>
       </defs>
       <use xlink:href="#DejaVuSans-2212"/>
       <use xlink:href="#DejaVuSans-38" x="83.789062"/>
      </g>
     </g>
    </g>
    <g id="ytick_3">
     <g id="line2d_8">
      <g>
       <use xlink:href="#maff392dc4f" x="216" y="566.426347" style="fill: #262626; stroke: #262626; stroke-width: 1.875"/>
      </g>
     </g>
     <g id="text_9">
      <!-- −6 -->
      <g style="fill: #262626" transform="translate(132.7375 584.662597)scale(0.48 -0.48)">
       <defs>
        <path id="DejaVuSans-36" d="M 2113 2584 
Q 1688 2584 1439 2293 
Q 1191 2003 1191 1497 
Q 1191 994 1439 701 
Q 1688 409 2113 409 
Q 2538 409 2786 701 
Q 3034 994 3034 1497 
Q 3034 2003 2786 2293 
Q 2538 2584 2113 2584 
z
M 3366 4563 
L 3366 3988 
Q 3128 4100 2886 4159 
Q 2644 4219 2406 4219 
Q 1781 4219 1451 3797 
Q 1122 3375 1075 2522 
Q 1259 2794 1537 2939 
Q 1816 3084 2150 3084 
Q 2853 3084 3261 2657 
Q 3669 2231 3669 1497 
Q 3669 778 3244 343 
Q 2819 -91 2113 -91 
Q 1303 -91 875 529 
Q 447 1150 447 2328 
Q 447 3434 972 4092 
Q 1497 4750 2381 4750 
Q 2619 4750 2861 4703 
Q 3103 4656 3366 4563 
z
" transform="scale(0.015625)"/>
       </defs>
       <use xlink:href="#DejaVuSans-2212"/>
       <use xlink:href="#DejaVuSans-36" x="83.789062"/>
      </g>
     </g>
    </g>
    <g id="ytick_4">
     <g id="line2d_9">
      <g>
       <use xlink:href="#maff392dc4f" x="216" y="429.421357" style="fill: #262626; stroke: #262626; stroke-width: 1.875"/>
      </g>
     </g>
     <g id="text_10">
      <!-- −4 -->
      <g style="fill: #262626" transform="translate(132.7375 447.657607)scale(0.48 -0.48)">
       <defs>
        <path id="DejaVuSans-34" d="M 2419 4116 
L 825 1625 
L 2419 1625 
L 2419 4116 
z
M 2253 4666 
L 3047 4666 
L 3047 1625 
L 3713 1625 
L 3713 1100 
L 3047 1100 
L 3047 0 
L 2419 0 
L 2419 1100 
L 313 1100 
L 313 1709 
L 2253 4666 
z
" transform="scale(0.015625)"/>
       </defs>
       <use xlink:href="#DejaVuSans-2212"/>
       <use xlink:href="#DejaVuSans-34" x="83.789062"/>
      </g>
     </g>
    </g>
    <g id="ytick_5">
     <g id="line2d_10">
      <g>
       <use xlink:href="#maff392dc4f" x="216" y="292.416366" style="fill: #262626; stroke: #262626; stroke-width: 1.875"/>
      </g>
     </g>
     <g id="text_11">
      <!-- −2 -->
      <g style="fill: #262626" transform="translate(132.7375 310.652616)scale(0.48 -0.48)">
       <use xlink:href="#DejaVuSans-2212"/>
       <use xlink:href="#DejaVuSans-32" x="83.789062"/>
      </g>
     </g>
    </g>
    <g id="ytick_6">
     <g id="line2d_11">
      <g>
       <use xlink:href="#maff392dc4f" x="216" y="155.411375" style="fill: #262626; stroke: #262626; stroke-width: 1.875"/>
      </g>
     </g>
     <g id="text_12">
      <!-- 0 -->
      <g style="fill: #262626" transform="translate(172.96 173.647625)scale(0.48 -0.48)">
       <use xlink:href="#DejaVuSans-30"/>
      </g>
     </g>
    </g>
    <g id="text_13">
     <!-- Df(Z) [Hz] -->
     <g style="fill: #262626" transform="translate(88.215 628.13625)rotate(-90)scale(0.48 -0.48)">
      <defs>
       <path id="DejaVuSans-44" d="M 1259 4147 
L 1259 519 
L 2022 519 
Q 2988 519 3436 956 
Q 3884 1394 3884 2338 
Q 3884 3275 3436 3711 
Q 2988 4147 2022 4147 
L 1259 4147 
z
M 628 4666 
L 1925 4666 
Q 3281 4666 3915 4102 
Q 4550 3538 4550 2338 
Q 4550 1131 3912 565 
Q 3275 0 1925 0 
L 628 0 
L 628 4666 
z
" transform="scale(0.015625)"/>
       <path id="DejaVuSans-66" d="M 2375 4863 
L 2375 4384 
L 1825 4384 
Q 1516 4384 1395 4259 
Q 1275 4134 1275 3809 
L 1275 3500 
L 2222 3500 
L 2222 3053 
L 1275 3053 
L 1275 0 
L 697 0 
L 697 3053 
L 147 3053 
L 147 3500 
L 697 3500 
L 697 3744 
Q 697 4328 969 4595 
Q 1241 4863 1831 4863 
L 2375 4863 
z
" transform="scale(0.015625)"/>
       <path id="DejaVuSans-28" d="M 1984 4856 
Q 1566 4138 1362 3434 
Q 1159 2731 1159 2009 
Q 1159 1288 1364 580 
Q 1569 -128 1984 -844 
L 1484 -844 
Q 1016 -109 783 600 
Q 550 1309 550 2009 
Q 550 2706 781 3412 
Q 1013 4119 1484 4856 
L 1984 4856 
z
" transform="scale(0.015625)"/>
       <path id="DejaVuSans-29" d="M 513 4856 
L 1013 4856 
Q 1481 4119 1714 3412 
Q 1947 2706 1947 2009 
Q 1947 1309 1714 600 
Q 1481 -109 1013 -844 
L 513 -844 
Q 928 -128 1133 580 
Q 1338 1288 1338 2009 
Q 1338 2731 1133 3434 
Q 928 4138 513 4856 
z
" transform="scale(0.015625)"/>
       <path id="DejaVuSans-48" d="M 628 4666 
L 1259 4666 
L 1259 2753 
L 3553 2753 
L 3553 4666 
L 4184 4666 
L 4184 0 
L 3553 0 
L 3553 2222 
L 1259 2222 
L 1259 0 
L 628 0 
L 628 4666 
z
" transform="scale(0.015625)"/>
       <path id="DejaVuSans-7a" d="M 353 3500 
L 3084 3500 
L 3084 2975 
L 922 459 
L 3084 459 
L 3084 0 
L 275 0 
L 275 525 
L 2438 3041 
L 353 3041 
L 353 3500 
z
" transform="scale(0.015625)"/>
      </defs>
      <use xlink:href="#DejaVuSans-44"/>
      <use xlink:href="#DejaVuSans-66" x="77.001953"/>
      <use xlink:href="#DejaVuSans-28" x="112.207031"/>
      <use xlink:href="#DejaVuSans-5a" x="151.220703"/>
      <use xlink:href="#DejaVuSans-29" x="219.726562"/>
      <use xlink:href="#DejaVuSans-20" x="258.740234"/>
      <use xlink:href="#DejaVuSans-5b" x="290.527344"/>
      <use xlink:href="#DejaVuSans-48" x="329.541016"/>
      <use xlink:href="#DejaVuSans-7a" x="404.736328"/>
      <use xlink:href="#DejaVuSans-5d" x="457.226562"/>
     </g>
    </g>
   </g>
   <g id="line2d_12">
    <path d="M 276.872727 848.80902 
L 279.255221 851.139138 
L 284.02021 861.84 
L 286.402704 674.453227 
L 288.785198 597.847888 
L 291.167693 585.615161 
L 293.550187 572.219322 
L 295.932681 553.448325 
L 298.315175 548.489037 
L 300.697669 535.84044 
L 303.080164 528.016401 
L 305.462658 517.590838 
L 307.845152 505.915719 
L 310.227646 498.757539 
L 312.610141 493.410807 
L 314.992635 485.716046 
L 317.375129 477.055983 
L 319.757623 471.484573 
L 322.140117 463.567858 
L 324.522612 457.576294 
L 326.905106 447.440049 
L 329.2876 443.848694 
L 331.670094 435.250934 
L 334.052589 432.352305 
L 336.435083 421.865608 
L 338.817577 421.523333 
L 341.200071 413.094958 
L 343.582565 409.871967 
L 345.96506 405.884989 
L 348.347554 402.794001 
L 350.730048 398.175431 
L 353.112542 391.784352 
L 355.495036 389.536396 
L 357.877531 382.217786 
L 360.260025 380.8849 
L 362.642519 373.775783 
L 365.025013 372.138782 
L 367.407508 366.864477 
L 369.790002 362.131815 
L 372.172496 362.137656 
L 374.55499 359.212549 
L 376.937484 354.640705 
L 379.319979 350.663073 
L 384.084967 344.173089 
L 386.467461 341.791182 
L 391.23245 337.777337 
L 393.614944 333.173953 
L 395.997438 331.652601 
L 398.379932 326.447997 
L 400.762427 323.418143 
L 403.144921 324.743631 
L 405.527415 320.991067 
L 407.909909 318.853309 
L 410.292403 316.019709 
L 412.674898 313.501126 
L 415.057392 312.408104 
L 417.439886 311.175681 
L 419.82238 306.42316 
L 422.204875 305.996777 
L 424.587369 302.755094 
L 426.969863 301.323692 
L 429.352357 300.841625 
L 431.734851 298.607688 
L 434.117346 295.836779 
L 436.49984 296.244861 
L 438.882334 293.991454 
L 441.264828 289.35614 
L 443.647323 289.530587 
L 446.029817 286.78421 
L 448.412311 284.477067 
L 450.794805 284.377772 
L 455.559794 281.900854 
L 457.942288 279.480787 
L 460.324782 276.843829 
L 462.707276 275.958743 
L 465.089771 277.095376 
L 467.472265 275.830633 
L 469.854759 271.924649 
L 472.237253 272.823364 
L 474.619747 266.490694 
L 477.002242 266.396461 
L 479.384736 268.151058 
L 481.76723 265.865331 
L 484.149724 264.702609 
L 486.532218 264.406282 
L 488.914713 259.882334 
L 491.297207 262.382615 
L 493.679701 260.514705 
L 496.062195 258.013645 
L 498.44469 257.678379 
L 500.827184 258.850058 
L 503.209678 257.267961 
L 505.592172 253.713597 
L 507.974666 254.893453 
L 510.357161 259.035408 
L 512.739655 253.108483 
L 515.122149 248.982882 
L 517.504643 250.299804 
L 519.887138 249.30413 
L 522.269632 248.112203 
L 524.652126 246.019225 
L 527.03462 248.629704 
L 529.417114 245.335454 
L 531.799609 247.492682 
L 534.182103 243.109693 
L 536.564597 243.227289 
L 538.947091 247.364572 
L 541.329585 241.567704 
L 543.71208 241.39715 
L 546.094574 243.275185 
L 548.477068 241.641688 
L 550.859562 240.665874 
L 553.242057 235.474119 
L 555.624551 236.82336 
L 558.007045 239.919021 
L 560.389539 236.243557 
L 562.772033 236.147766 
L 565.154528 234.254156 
L 567.537022 232.599633 
L 569.919516 235.592494 
L 572.30201 231.491425 
L 574.684505 232.672449 
L 579.449493 231.05998 
L 581.831987 229.07058 
L 584.214481 230.789353 
L 586.596976 227.558573 
L 588.97947 231.743751 
L 591.361964 227.174633 
L 593.744458 224.79078 
L 596.126952 225.53919 
L 598.509447 225.141621 
L 600.891941 226.366257 
L 603.274435 222.658473 
L 605.656929 226.319919 
L 608.039424 224.467974 
L 610.421918 223.374953 
L 612.804412 222.627322 
L 615.186906 218.756772 
L 617.5694 223.601968 
L 619.951895 220.609496 
L 622.334389 219.266875 
L 624.716883 222.515177 
L 627.099377 220.320957 
L 629.481872 219.829545 
L 631.864366 217.605342 
L 634.24686 220.571336 
L 639.011848 215.684086 
L 641.394343 218.082347 
L 643.776837 216.913005 
L 646.159331 217.555111 
L 648.541825 213.962197 
L 650.92432 214.993695 
L 653.306814 218.282104 
L 655.689308 213.421333 
L 658.071802 214.398316 
L 660.454296 211.831059 
L 662.836791 212.435005 
L 665.219285 213.714934 
L 667.601779 211.362621 
L 669.984273 209.469401 
L 672.366767 211.771482 
L 674.749262 209.684734 
L 677.131756 208.781736 
L 679.51425 208.252942 
L 681.896744 208.945669 
L 684.279239 209.34168 
L 686.661733 207.374865 
L 689.044227 208.735009 
L 691.426721 205.805229 
L 693.809215 210.183155 
L 696.19171 205.327445 
L 698.574204 207.546976 
L 700.956698 206.089095 
L 703.339192 208.824958 
L 705.721687 202.825606 
L 708.104181 203.916291 
L 710.486675 205.245284 
L 712.869169 204.238318 
L 715.251663 204.894832 
L 717.634158 204.676383 
L 720.016652 205.129245 
L 722.399146 203.441623 
L 724.78164 203.347391 
L 727.164134 202.33692 
L 729.546629 198.99166 
L 731.929123 202.747728 
L 734.311617 205.932949 
L 736.694111 201.504402 
L 739.076606 196.572761 
L 741.4591 200.450709 
L 743.841594 200.428124 
L 746.224088 200.118947 
L 748.606582 199.124053 
L 750.989077 198.75491 
L 753.371571 196.996029 
L 755.754065 198.11514 
L 758.136559 200.028998 
L 760.519054 195.283486 
L 762.901548 198.501805 
L 765.284042 194.778446 
L 767.666536 199.497479 
L 770.04903 200.818684 
L 772.431525 193.3303 
L 777.196513 197.469918 
L 779.579007 196.371835 
L 781.961502 191.804665 
L 784.343996 193.686593 
L 786.72649 196.559132 
L 789.108984 194.843474 
L 791.491478 191.482638 
L 793.873973 194.27652 
L 796.256467 194.534687 
L 798.638961 193.993822 
L 801.021455 194.801809 
L 803.403949 192.642635 
L 805.786444 193.417523 
L 808.168938 192.675733 
L 810.551432 195.65886 
L 812.933926 192.375123 
L 815.316421 190.640774 
L 817.698915 190.16961 
L 820.081409 192.860694 
L 822.463903 192.002865 
L 824.846397 192.673786 
L 827.228892 188.693039 
L 829.611386 193.026185 
L 831.99388 189.928577 
L 834.376374 190.838585 
L 836.758869 188.520538 
L 839.141363 192.968166 
L 841.523857 190.458539 
L 843.906351 188.478484 
L 846.288845 188.824264 
L 848.67134 188.500679 
L 851.053834 187.513183 
L 855.818822 189.938312 
L 858.201316 187.660373 
L 860.583811 188.565318 
L 862.966305 189.895868 
L 865.348799 184.73254 
L 867.731293 190.127556 
L 870.113788 185.086107 
L 872.496282 186.020646 
L 874.878776 186.495314 
L 877.26127 185.784675 
L 879.643764 186.00546 
L 882.026259 183.919491 
L 884.408753 185.219279 
L 886.791247 185.674088 
L 889.173741 182.233037 
L 891.556236 182.07767 
L 893.93873 183.658599 
L 896.321224 182.546108 
L 898.703718 184.597032 
L 901.086212 184.899589 
L 903.468707 185.346999 
L 908.233695 181.625197 
L 910.616189 180.833565 
L 912.998684 181.995119 
L 915.381178 184.768364 
L 917.763672 183.98413 
L 920.146166 181.08628 
L 922.52866 182.431237 
L 924.911155 182.278596 
L 927.293649 181.933595 
L 929.676143 180.02402 
L 932.058637 183.411725 
L 934.441131 179.153341 
L 936.823626 182.944844 
L 939.20612 180.119811 
L 941.588614 180.851866 
L 943.971108 182.139194 
L 946.353603 178.640902 
L 948.736097 182.078449 
L 951.118591 179.670453 
L 953.501085 179.370232 
L 955.883579 178.176359 
L 958.266074 181.857664 
L 960.648568 177.473118 
L 963.031062 180.42743 
L 965.413556 179.356604 
L 967.796051 177.982442 
L 970.178545 180.537627 
L 972.561039 177.289325 
L 974.943533 177.739462 
L 977.326027 179.347258 
L 979.708522 177.377328 
L 982.091016 178.542776 
L 984.47351 179.530272 
L 986.856004 177.826685 
L 989.238498 175.41207 
L 991.620993 180.496352 
L 996.385981 176.146072 
L 998.768475 179.330514 
L 1001.15097 178.869475 
L 1003.533464 177.765551 
L 1005.915958 176.122709 
L 1008.298452 177.570076 
L 1010.680946 176.994945 
L 1013.063441 180.074641 
L 1015.445935 176.732496 
L 1017.828429 173.190592 
L 1020.210923 175.384423 
L 1022.593418 176.205649 
L 1024.975912 178.543555 
L 1027.358406 175.880118 
L 1029.7409 175.951377 
L 1032.123394 174.007146 
L 1034.505889 177.642114 
L 1036.888383 173.087404 
L 1039.270877 175.11146 
L 1041.653371 173.53754 
L 1044.035866 173.415271 
L 1046.41836 173.972101 
L 1048.800854 175.474762 
L 1051.183348 169.817685 
L 1053.565842 177.063478 
L 1055.948337 178.133136 
L 1058.330831 174.153557 
L 1060.713325 172.158706 
L 1063.095819 173.692907 
L 1065.478313 174.557356 
L 1067.860808 173.707315 
L 1070.243302 173.372828 
L 1075.00829 172.095235 
L 1077.390785 176.006281 
L 1079.773279 173.732625 
L 1082.155773 169.869085 
L 1084.538267 172.861946 
L 1086.920761 173.083899 
L 1089.303256 174.335403 
L 1091.68575 171.251034 
L 1094.068244 173.064819 
L 1096.450738 170.063002 
L 1098.833233 171.1385 
L 1101.215727 170.517032 
L 1103.598221 170.550519 
L 1105.980715 170.033408 
L 1108.363209 172.383384 
L 1110.745704 171.072304 
L 1113.128198 174.204178 
L 1115.510692 173.983004 
L 1117.893186 169.595732 
L 1120.27568 172.836246 
L 1122.658175 171.189511 
L 1125.040669 171.493236 
L 1127.423163 169.009309 
L 1129.805657 169.179473 
L 1132.188152 171.596035 
L 1134.570646 169.306414 
L 1136.95314 171.066852 
L 1139.335634 170.990532 
L 1141.718128 167.448239 
L 1144.100623 168.201322 
L 1146.483117 169.381567 
L 1148.865611 170.33246 
L 1151.248105 167.861773 
L 1153.6306 168.927147 
L 1156.013094 168.868738 
L 1158.395588 170.569989 
L 1160.778082 168.372265 
L 1163.160576 168.642892 
L 1165.543071 167.45408 
L 1167.925565 169.237881 
L 1170.308059 169.098869 
L 1172.690553 169.135472 
L 1175.073048 163.946833 
L 1177.455542 170.744436 
L 1179.838036 169.670106 
L 1182.22053 165.756334 
L 1184.603024 167.422929 
L 1186.985519 167.498081 
L 1189.368013 165.331508 
L 1191.750507 169.277599 
L 1194.133001 168.547101 
L 1196.515495 164.060924 
L 1198.89799 168.437682 
L 1201.280484 164.427731 
L 1203.662978 168.455594 
L 1206.045472 164.054694 
L 1208.427967 167.998838 
L 1210.810461 166.994988 
L 1213.192955 167.902659 
L 1215.575449 167.028865 
L 1217.957943 167.810762 
L 1220.340438 161.594909 
L 1222.722932 167.405017 
L 1225.105426 167.26834 
L 1227.48792 168.019476 
L 1229.870415 166.73098 
L 1232.252909 162.528669 
L 1234.635403 169.608193 
L 1237.017897 165.178477 
L 1239.400391 166.764857 
L 1241.782886 165.576046 
L 1244.16538 165.998146 
L 1246.547874 164.694074 
L 1248.930368 167.001607 
L 1251.312862 167.508205 
L 1253.695357 165.766847 
L 1256.077851 166.471256 
L 1258.460345 166.581454 
L 1260.842839 166.306933 
L 1263.225334 167.343493 
L 1265.607828 162.973744 
L 1267.990322 166.75006 
L 1270.372816 165.391474 
L 1272.75531 167.572455 
L 1275.137805 162.864714 
L 1277.520299 165.984517 
L 1279.902793 165.551125 
L 1282.285287 165.47714 
L 1284.667782 166.431149 
L 1287.050276 163.915681 
L 1289.43277 165.349809 
L 1291.815264 160.953582 
L 1294.197758 165.072173 
L 1296.580253 164.175795 
L 1298.962747 163.87168 
L 1301.345241 164.432014 
L 1303.727735 163.306673 
L 1306.110229 166.597808 
L 1308.492724 161.930954 
L 1310.875218 163.507599 
L 1313.257712 164.361145 
L 1315.640206 164.29417 
L 1318.022701 166.117689 
L 1320.405195 163.748243 
L 1322.787689 162.006885 
L 1325.170183 163.656736 
L 1327.552677 163.687498 
L 1329.935172 161.65799 
L 1332.317666 163.485404 
L 1334.70016 163.64778 
L 1337.082654 164.105704 
L 1339.465149 164.773121 
L 1341.847643 163.192582 
L 1344.230137 161.791941 
L 1346.612631 164.11505 
L 1348.995125 165.937011 
L 1351.37762 158.754689 
L 1353.760114 163.414924 
L 1356.142608 163.796917 
L 1358.525102 160.875703 
L 1360.907597 162.136942 
L 1363.290091 162.161473 
L 1365.672585 161.891236 
L 1368.055079 161.825818 
L 1370.437573 160.684512 
L 1372.820068 161.38347 
L 1375.202562 161.929007 
L 1377.585056 161.234722 
L 1379.96755 160.037344 
L 1382.350044 162.010779 
L 1384.732539 164.146201 
L 1387.115033 165.407439 
L 1389.497527 161.962105 
L 1391.880021 160.435691 
L 1394.262516 164.339728 
L 1396.64501 160.531871 
L 1399.027504 160.437638 
L 1401.409998 162.343319 
L 1403.792492 159.464939 
L 1406.174987 160.556403 
L 1408.557481 162.506474 
L 1410.939975 156.498556 
L 1413.322469 161.784543 
L 1415.704964 161.500676 
L 1418.087458 165.460786 
L 1422.852446 158.125043 
L 1425.23494 162.391993 
L 1427.617435 157.716961 
L 1429.999929 162.015062 
L 1432.382423 162.288804 
L 1434.764917 159.6499 
L 1437.147411 160.462559 
L 1439.529906 159.093459 
L 1441.9124 159.431451 
L 1444.294894 163.041498 
L 1446.677388 159.078273 
L 1449.059883 158.665129 
L 1451.442377 161.77364 
L 1453.824871 160.534597 
L 1456.207365 157.499291 
L 1458.589859 159.654572 
L 1460.972354 159.617191 
L 1463.354848 158.474717 
L 1465.737342 161.506517 
L 1468.119836 159.671705 
L 1470.502331 159.959466 
L 1472.884825 158.977031 
L 1475.267319 159.306846 
L 1477.649813 161.218368 
L 1480.032307 158.72821 
L 1482.414802 156.977507 
L 1484.797296 160.85857 
L 1487.17979 160.508118 
L 1489.562284 156.944798 
L 1491.944779 159.550215 
L 1494.327273 158.754689 
L 1494.327273 158.754689 
" clip-path="url(#pece086462a)" style="fill: none; stroke: #00c9a7; stroke-width: 2.25; stroke-linecap: round"/>
   </g>
   <g id="line2d_13">
    <path d="M 276.872727 843.434252 
L 279.255221 814.239251 
L 281.637716 790.582561 
L 284.02021 778.14112 
L 286.402704 775.827357 
L 288.785198 771.356366 
L 291.167693 772.297914 
L 293.550187 768.97446 
L 295.932681 772.382802 
L 298.315175 766.778682 
L 300.697669 774.595323 
L 303.080164 775.290776 
L 305.462658 775.423558 
L 307.845152 779.308904 
L 310.227646 775.506498 
L 312.610141 776.872094 
L 314.992635 775.610466 
L 317.375129 771.869194 
L 319.757623 771.365322 
L 322.140117 765.914623 
L 324.522612 759.414124 
L 326.905106 757.017032 
L 329.2876 746.857423 
L 331.670094 737.759685 
L 334.052589 727.947803 
L 336.435083 716.406635 
L 338.817577 704.297734 
L 341.200071 684.367908 
L 348.347554 643.416405 
L 350.730048 631.791906 
L 353.112542 613.934422 
L 355.495036 600.734836 
L 357.877531 582.728603 
L 362.642519 534.603733 
L 365.025013 512.813007 
L 367.407508 488.129103 
L 369.790002 464.69904 
L 372.172496 445.753596 
L 379.319979 409.120831 
L 381.702473 400.630154 
L 384.084967 389.746278 
L 386.467461 384.745715 
L 388.849956 372.481836 
L 391.23245 366.327117 
L 393.614944 361.627943 
L 395.997438 352.479973 
L 398.379932 351.017809 
L 400.762427 345.570225 
L 403.144921 337.80693 
L 405.527415 334.318763 
L 407.909909 329.349741 
L 410.292403 326.318719 
L 412.674898 324.05986 
L 415.057392 316.180138 
L 417.439886 315.25105 
L 419.82238 311.807274 
L 422.204875 310.565505 
L 424.587369 303.143317 
L 426.969863 300.076082 
L 429.352357 301.70257 
L 431.734851 299.395037 
L 434.117346 296.246419 
L 436.49984 295.020615 
L 438.882334 289.459329 
L 441.264828 288.234303 
L 443.647323 286.169361 
L 446.029817 283.33615 
L 448.412311 284.486802 
L 450.794805 280.624819 
L 453.177299 280.740857 
L 455.559794 277.877663 
L 457.942288 275.396462 
L 460.324782 278.677862 
L 462.707276 271.141194 
L 465.089771 271.944508 
L 467.472265 274.811986 
L 469.854759 269.380756 
L 472.237253 267.357089 
L 474.619747 268.678294 
L 477.002242 267.283494 
L 479.384736 264.400441 
L 481.76723 265.466594 
L 484.149724 265.597041 
L 486.532218 263.758724 
L 488.914713 264.223268 
L 491.297207 263.604525 
L 493.679701 262.011915 
L 496.062195 257.21734 
L 498.44469 260.348435 
L 500.827184 259.153004 
L 503.209678 257.27458 
L 505.592172 254.278214 
L 507.974666 256.544472 
L 510.357161 253.315639 
L 512.739655 251.691099 
L 515.122149 252.548149 
L 517.504643 253.539929 
L 519.887138 250.159623 
L 522.269632 250.769409 
L 524.652126 248.589986 
L 527.03462 245.81168 
L 529.417114 250.739037 
L 531.799609 244.135739 
L 534.182103 245.025498 
L 536.564597 246.044536 
L 538.947091 242.613609 
L 541.329585 242.327796 
L 543.71208 242.960556 
L 546.094574 240.653024 
L 548.477068 241.970334 
L 550.859562 239.422547 
L 553.242057 235.772393 
L 555.624551 241.752275 
L 558.007045 237.815529 
L 560.389539 237.332684 
L 562.772033 235.541095 
L 565.154528 235.416879 
L 567.537022 236.526255 
L 569.919516 233.428647 
L 572.30201 234.666522 
L 574.684505 230.977429 
L 577.066999 233.729646 
L 579.449493 228.116182 
L 581.831987 231.698971 
L 584.214481 230.01719 
L 586.596976 228.519202 
L 588.97947 229.96618 
L 591.361964 229.431156 
L 593.744458 230.194752 
L 596.126952 225.425098 
L 598.509447 226.317973 
L 600.891941 224.887738 
L 603.274435 228.834608 
L 605.656929 225.921962 
L 608.039424 222.800601 
L 610.421918 224.603872 
L 612.804412 223.273711 
L 615.186906 222.162389 
L 617.5694 223.133531 
L 619.951895 219.35955 
L 622.334389 221.749634 
L 624.716883 219.364612 
L 627.099377 220.697499 
L 629.481872 217.15871 
L 631.864366 218.059762 
L 634.24686 221.96964 
L 636.629354 219.594742 
L 639.011848 218.71978 
L 641.394343 215.02251 
L 643.776837 216.832011 
L 646.159331 215.212533 
L 648.541825 217.161047 
L 650.92432 213.844991 
L 653.306814 216.573066 
L 655.689308 214.326278 
L 658.071802 211.548361 
L 660.454296 214.360545 
L 662.836791 210.521925 
L 665.219285 216.079318 
L 667.601779 209.830366 
L 669.984273 212.329869 
L 672.366767 212.197476 
L 674.749262 209.727178 
L 677.131756 213.106315 
L 679.51425 209.283272 
L 681.896744 208.163382 
L 684.279239 213.347348 
L 686.661733 207.098397 
L 689.044227 207.99828 
L 691.426721 208.235809 
L 693.809215 208.212056 
L 696.19171 210.048036 
L 698.574204 207.004554 
L 700.956698 207.462867 
L 703.339192 208.750974 
L 705.721687 202.811588 
L 708.104181 207.494408 
L 710.486675 200.980281 
L 712.869169 208.419602 
L 715.251663 203.056515 
L 717.634158 206.834 
L 720.016652 204.703641 
L 722.399146 203.688497 
L 724.78164 203.956009 
L 727.164134 202.17065 
L 729.546629 202.403506 
L 731.929123 201.631343 
L 734.311617 202.920228 
L 736.694111 200.805834 
L 739.076606 202.686204 
L 741.4591 199.763044 
L 746.224088 200.246668 
L 748.606582 197.889293 
L 753.371571 199.648952 
L 755.754065 199.838196 
L 760.519054 196.396756 
L 762.901548 196.181812 
L 765.284042 197.103501 
L 767.666536 200.673051 
L 770.04903 198.188345 
L 772.431525 196.918151 
L 774.814019 196.482422 
L 777.196513 198.83123 
L 779.579007 193.188561 
L 781.961502 197.324675 
L 784.343996 199.288376 
L 786.72649 195.208723 
L 789.108984 195.342674 
L 793.873973 194.508987 
L 796.256467 193.945538 
L 798.638961 195.806828 
L 801.021455 192.030122 
L 803.403949 195.219626 
L 805.786444 193.546412 
L 810.551432 193.295254 
L 812.933926 192.906642 
L 817.698915 190.216727 
L 820.081409 193.186614 
L 822.463903 190.018137 
L 824.846397 190.495142 
L 827.228892 190.117821 
L 829.611386 192.560862 
L 831.99388 190.409475 
L 834.376374 190.037217 
L 836.758869 188.369065 
L 839.141363 189.978809 
L 841.523857 189.261161 
L 843.906351 189.290365 
L 846.288845 188.421633 
L 848.67134 191.168789 
L 851.053834 188.414624 
L 853.436328 189.470264 
L 855.818822 186.578644 
L 858.201316 188.128421 
L 862.966305 189.033756 
L 865.348799 184.166365 
L 867.731293 186.70286 
L 870.113788 186.346956 
L 872.496282 188.885009 
L 874.878776 185.528845 
L 877.26127 184.285519 
L 879.643764 187.125349 
L 882.026259 186.064647 
L 884.408753 186.771003 
L 886.791247 186.979328 
L 889.173741 184.57912 
L 891.556236 184.133267 
L 893.93873 184.249695 
L 896.321224 187.239052 
L 898.703718 183.128637 
L 901.086212 183.959209 
L 903.468707 183.168355 
L 905.851201 183.587729 
L 908.233695 181.948392 
L 910.616189 182.262241 
L 912.998684 181.691783 
L 915.381178 183.359546 
L 917.763672 182.057811 
L 920.146166 185.298715 
L 922.52866 182.619313 
L 924.911155 184.294864 
L 927.293649 186.961026 
L 929.676143 179.747942 
L 932.058637 182.066378 
L 934.441131 180.21638 
L 936.823626 182.430848 
L 939.20612 185.311954 
L 941.588614 177.493756 
L 943.971108 182.791035 
L 946.353603 182.298455 
L 948.736097 182.219798 
L 951.118591 177.316583 
L 953.501085 180.33787 
L 955.883579 179.555583 
L 958.266074 179.974568 
L 960.648568 181.654791 
L 963.031062 178.015929 
L 965.413556 180.679755 
L 967.796051 178.998753 
L 970.178545 181.616241 
L 972.561039 176.96613 
L 974.943533 178.167792 
L 977.326027 179.55753 
L 979.708522 180.255319 
L 982.091016 180.418084 
L 984.47351 179.24991 
L 986.856004 178.640124 
L 989.238498 179.900973 
L 991.620993 176.987547 
L 994.003487 177.298281 
L 996.385981 178.057205 
L 998.768475 179.214865 
L 1001.15097 182.017704 
L 1003.533464 176.247704 
L 1005.915958 174.239613 
L 1008.298452 176.686547 
L 1010.680946 178.48281 
L 1013.063441 175.568216 
L 1015.445935 176.046388 
L 1017.828429 178.103542 
L 1020.210923 177.086842 
L 1022.593418 178.925547 
L 1024.975912 175.486833 
L 1027.358406 175.312775 
L 1029.7409 174.121627 
L 1032.123394 177.157322 
L 1034.505889 176.294041 
L 1036.888383 174.562418 
L 1039.270877 174.767238 
L 1041.653371 177.445471 
L 1044.035866 173.145034 
L 1046.41836 173.877479 
L 1048.800854 175.234507 
L 1051.183348 174.794495 
L 1053.565842 175.594305 
L 1055.948337 174.983739 
L 1058.330831 175.093158 
L 1060.713325 173.82569 
L 1063.095819 173.567913 
L 1065.478313 172.370145 
L 1067.860808 174.225205 
L 1070.243302 175.186223 
L 1072.625796 170.83828 
L 1075.00829 177.256227 
L 1077.390785 170.774809 
L 1079.773279 170.591406 
L 1082.155773 173.432404 
L 1084.538267 172.196866 
L 1086.920761 173.049243 
L 1089.303256 172.893487 
L 1091.68575 171.524776 
L 1094.068244 171.013116 
L 1096.450738 173.479521 
L 1101.215727 171.774376 
L 1103.598221 171.552423 
L 1105.980715 172.649728 
L 1108.363209 170.613601 
L 1110.745704 172.881805 
L 1113.128198 172.468661 
L 1115.510692 169.057983 
L 1117.893186 170.606202 
L 1120.27568 174.360713 
L 1122.658175 170.020558 
L 1125.040669 169.111329 
L 1127.423163 171.161474 
L 1129.805657 170.235502 
L 1132.188152 170.400993 
L 1134.570646 171.876397 
L 1136.95314 168.679105 
L 1139.335634 169.042407 
L 1141.718128 170.787659 
L 1144.100623 169.51396 
L 1146.483117 171.589026 
L 1148.865611 166.956438 
L 1151.248105 171.360843 
L 1153.6306 167.018351 
L 1156.013094 169.235934 
L 1158.395588 172.153254 
L 1160.778082 171.387321 
L 1163.160576 168.009352 
L 1165.543071 170.265874 
L 1167.925565 169.240997 
L 1170.308059 168.56696 
L 1172.690553 171.666515 
L 1175.073048 166.566268 
L 1177.455542 170.027956 
L 1179.838036 167.112584 
L 1182.22053 169.607414 
L 1184.603024 170.358939 
L 1186.985519 166.916331 
L 1189.368013 167.922907 
L 1191.750507 170.001088 
L 1194.133001 169.480862 
L 1196.515495 169.175579 
L 1198.89799 170.872935 
L 1201.280484 169.512792 
L 1203.662978 166.269162 
L 1206.045472 168.88042 
L 1208.427967 168.795922 
L 1210.810461 167.174886 
L 1213.192955 168.691565 
L 1215.575449 172.000223 
L 1217.957943 162.373302 
L 1220.340438 168.39446 
L 1222.722932 167.996502 
L 1225.105426 170.199289 
L 1227.48792 165.473636 
L 1229.870415 164.245106 
L 1232.252909 165.853682 
L 1234.635403 169.276042 
L 1237.017897 166.633243 
L 1239.400391 167.290536 
L 1241.782886 165.391474 
L 1248.930368 167.842692 
L 1251.312862 166.572887 
L 1253.695357 167.88903 
L 1256.077851 165.301135 
L 1258.460345 167.98521 
L 1260.842839 166.117689 
L 1263.225334 163.652842 
L 1265.607828 167.010563 
L 1267.990322 164.233035 
L 1272.75531 164.437855 
L 1275.137805 165.58578 
L 1277.520299 164.032109 
L 1279.902793 165.801893 
L 1282.285287 165.341632 
L 1284.667782 165.141096 
L 1287.050276 165.225983 
L 1289.43277 164.557787 
L 1291.815264 167.467319 
L 1294.197758 161.591405 
L 1296.580253 164.619701 
L 1298.962747 165.791379 
L 1301.345241 165.616932 
L 1303.727735 162.130712 
L 1306.110229 160.67283 
L 1308.492724 164.46628 
L 1310.875218 162.692603 
L 1313.257712 163.818333 
L 1315.640206 161.780259 
L 1318.022701 166.041758 
L 1320.405195 161.380744 
L 1322.787689 165.203788 
L 1325.170183 165.237275 
L 1327.552677 164.301957 
L 1329.935172 164.789086 
L 1332.317666 164.276258 
L 1334.70016 163.36625 
L 1337.082654 164.433182 
L 1339.465149 161.660716 
L 1341.847643 161.699266 
L 1344.230137 159.946226 
L 1346.612631 166.677244 
L 1348.995125 165.086191 
L 1351.37762 161.883059 
L 1353.760114 161.674345 
L 1356.142608 159.714149 
L 1358.525102 165.30464 
L 1360.907597 164.908629 
L 1363.290091 162.146677 
L 1365.672585 163.458146 
L 1368.055079 161.70939 
L 1370.437573 163.544202 
L 1375.202562 160.67283 
L 1377.585056 162.222608 
L 1379.96755 161.274051 
L 1382.350044 160.651025 
L 1384.732539 161.701213 
L 1387.115033 158.173328 
L 1389.497527 161.882669 
L 1391.880021 161.227713 
L 1394.262516 159.576694 
L 1396.64501 162.587467 
L 1399.027504 159.499595 
L 1401.409998 161.158791 
L 1403.792492 163.608062 
L 1406.174987 160.593395 
L 1408.557481 163.123659 
L 1410.939975 161.308317 
L 1413.322469 158.391387 
L 1415.704964 162.2339 
L 1418.087458 159.648342 
L 1420.469952 161.601139 
L 1422.852446 158.170991 
L 1425.23494 162.057895 
L 1427.617435 158.767928 
L 1429.999929 161.823482 
L 1432.382423 162.443782 
L 1434.764917 159.928704 
L 1437.147411 160.439975 
L 1439.529906 160.502277 
L 1441.9124 159.571632 
L 1444.294894 159.007793 
L 1446.677388 157.699049 
L 1449.059883 156.929223 
L 1451.442377 159.793196 
L 1453.824871 159.011298 
L 1456.207365 159.270243 
L 1458.589859 160.045911 
L 1463.354848 156.24 
L 1465.737342 159.666254 
L 1468.119836 158.319739 
L 1470.502331 159.014413 
L 1472.884825 159.397574 
L 1475.267319 161.669672 
L 1477.649813 159.935323 
L 1480.032307 158.633199 
L 1482.414802 160.336786 
L 1484.797296 157.735652 
L 1487.17979 162.646655 
L 1489.562284 157.352491 
L 1491.944779 159.496869 
L 1494.327273 157.161689 
L 1494.327273 157.161689 
" clip-path="url(#pece086462a)" style="fill: none; stroke: #ffc75f; stroke-width: 2.25; stroke-linecap: round"/>
   </g>
   <g id="patch_3">
    <path d="M 216 897.12 
L 216 120.96 
" style="fill: none; stroke: #262626; stroke-width: 1.875; stroke-linejoin: miter; stroke-linecap: square"/>
   </g>
   <g id="patch_4">
    <path d="M 1555.2 897.12 
L 1555.2 120.96 
" style="fill: none; stroke: #262626; stroke-width: 1.875; stroke-linejoin: miter; stroke-linecap: square"/>
   </g>
   <g id="patch_5">
    <path d="M 216 897.12 
L 1555.2 897.12 
" style="fill: none; stroke: #262626; stroke-width: 1.875; stroke-linejoin: miter; stroke-linecap: square"/>
   </g>
   <g id="patch_6">
    <path d="M 216 120.96 
L 1555.2 120.96 
" style="fill: none; stroke: #262626; stroke-width: 1.875; stroke-linejoin: miter; stroke-linecap: square"/>
   </g>
   <g id="text_14">
    <!-- Df(Z) -->
    <g style="fill: #262626" transform="translate(820.916406 110.561563)scale(0.5 -0.5)">
     <use xlink:href="#DejaVuSans-44"/>
     <use xlink:href="#DejaVuSans-66" x="77.001953"/>
     <use xlink:href="#DejaVuSans-28" x="112.207031"/>
     <use xlink:href="#DejaVuSans-5a" x="151.220703"/>
     <use xlink:href="#DejaVuSans-29" x="219.726562"/>
    </g>
   </g>
   <g id="legend_1">
    <g id="patch_7">
     <path d="M 227.55 182.597813 
L 361.029844 182.597813 
Q 364.329844 182.597813 364.329844 179.297813 
L 364.329844 132.51 
Q 364.329844 129.21 361.029844 129.21 
L 227.55 129.21 
Q 224.25 129.21 224.25 132.51 
L 224.25 179.297813 
Q 224.25 182.597813 227.55 182.597813 
z
" style="fill: #ffffff; opacity: 0.8; stroke: #cccccc; stroke-width: 1.5; stroke-linejoin: miter"/>
    </g>
    <g id="line2d_14">
     <path d="M 230.85 142.572422 
L 247.35 142.572422 
L 263.85 142.572422 
" style="fill: none; stroke: #00c9a7; stroke-width: 2.25; stroke-linecap: round"/>
    </g>
    <g id="text_15">
     <!-- df trace -->
     <g style="fill: #262626" transform="translate(277.05 148.347422)scale(0.165 -0.165)">
      <defs>
       <path id="DejaVuSans-64" d="M 2906 2969 
L 2906 4863 
L 3481 4863 
L 3481 0 
L 2906 0 
L 2906 525 
Q 2725 213 2448 61 
Q 2172 -91 1784 -91 
Q 1150 -91 751 415 
Q 353 922 353 1747 
Q 353 2572 751 3078 
Q 1150 3584 1784 3584 
Q 2172 3584 2448 3432 
Q 2725 3281 2906 2969 
z
M 947 1747 
Q 947 1113 1208 752 
Q 1469 391 1925 391 
Q 2381 391 2643 752 
Q 2906 1113 2906 1747 
Q 2906 2381 2643 2742 
Q 2381 3103 1925 3103 
Q 1469 3103 1208 2742 
Q 947 2381 947 1747 
z
" transform="scale(0.015625)"/>
       <path id="DejaVuSans-74" d="M 1172 4494 
L 1172 3500 
L 2356 3500 
L 2356 3053 
L 1172 3053 
L 1172 1153 
Q 1172 725 1289 603 
Q 1406 481 1766 481 
L 2356 481 
L 2356 0 
L 1766 0 
Q 1100 0 847 248 
Q 594 497 594 1153 
L 594 3053 
L 172 3053 
L 172 3500 
L 594 3500 
L 594 4494 
L 1172 4494 
z
" transform="scale(0.015625)"/>
       <path id="DejaVuSans-72" d="M 2631 2963 
Q 2534 3019 2420 3045 
Q 2306 3072 2169 3072 
Q 1681 3072 1420 2755 
Q 1159 2438 1159 1844 
L 1159 0 
L 581 0 
L 581 3500 
L 1159 3500 
L 1159 2956 
Q 1341 3275 1631 3429 
Q 1922 3584 2338 3584 
Q 2397 3584 2469 3576 
Q 2541 3569 2628 3553 
L 2631 2963 
z
" transform="scale(0.015625)"/>
       <path id="DejaVuSans-61" d="M 2194 1759 
Q 1497 1759 1228 1600 
Q 959 1441 959 1056 
Q 959 750 1161 570 
Q 1363 391 1709 391 
Q 2188 391 2477 730 
Q 2766 1069 2766 1631 
L 2766 1759 
L 2194 1759 
z
M 3341 1997 
L 3341 0 
L 2766 0 
L 2766 531 
Q 2569 213 2275 61 
Q 1981 -91 1556 -91 
Q 1019 -91 701 211 
Q 384 513 384 1019 
Q 384 1609 779 1909 
Q 1175 2209 1959 2209 
L 2766 2209 
L 2766 2266 
Q 2766 2663 2505 2880 
Q 2244 3097 1772 3097 
Q 1472 3097 1187 3025 
Q 903 2953 641 2809 
L 641 3341 
Q 956 3463 1253 3523 
Q 1550 3584 1831 3584 
Q 2591 3584 2966 3190 
Q 3341 2797 3341 1997 
z
" transform="scale(0.015625)"/>
       <path id="DejaVuSans-63" d="M 3122 3366 
L 3122 2828 
Q 2878 2963 2633 3030 
Q 2388 3097 2138 3097 
Q 1578 3097 1268 2742 
Q 959 2388 959 1747 
Q 959 1106 1268 751 
Q 1578 397 2138 397 
Q 2388 397 2633 464 
Q 2878 531 3122 666 
L 3122 134 
Q 2881 22 2623 -34 
Q 2366 -91 2075 -91 
Q 1284 -91 818 406 
Q 353 903 353 1747 
Q 353 2603 823 3093 
Q 1294 3584 2113 3584 
Q 2378 3584 2631 3529 
Q 2884 3475 3122 3366 
z
" transform="scale(0.015625)"/>
       <path id="DejaVuSans-65" d="M 3597 1894 
L 3597 1613 
L 953 1613 
Q 991 1019 1311 708 
Q 1631 397 2203 397 
Q 2534 397 2845 478 
Q 3156 559 3463 722 
L 3463 178 
Q 3153 47 2828 -22 
Q 2503 -91 2169 -91 
Q 1331 -91 842 396 
Q 353 884 353 1716 
Q 353 2575 817 3079 
Q 1281 3584 2069 3584 
Q 2775 3584 3186 3129 
Q 3597 2675 3597 1894 
z
M 3022 2063 
Q 3016 2534 2758 2815 
Q 2500 3097 2075 3097 
Q 1594 3097 1305 2825 
Q 1016 2553 972 2059 
L 3022 2063 
z
" transform="scale(0.015625)"/>
      </defs>
      <use xlink:href="#DejaVuSans-64"/>
      <use xlink:href="#DejaVuSans-66" x="63.476562"/>
      <use xlink:href="#DejaVuSans-20" x="98.681641"/>
      <use xlink:href="#DejaVuSans-74" x="130.46875"/>
      <use xlink:href="#DejaVuSans-72" x="169.677734"/>
      <use xlink:href="#DejaVuSans-61" x="210.791016"/>
      <use xlink:href="#DejaVuSans-63" x="272.070312"/>
      <use xlink:href="#DejaVuSans-65" x="327.050781"/>
     </g>
    </g>
    <g id="line2d_15">
     <path d="M 230.85 166.791328 
L 247.35 166.791328 
L 263.85 166.791328 
" style="fill: none; stroke: #ffc75f; stroke-width: 2.25; stroke-linecap: round"/>
    </g>
    <g id="text_16">
     <!-- df retrace -->
     <g style="fill: #262626" transform="translate(277.05 172.566328)scale(0.165 -0.165)">
      <use xlink:href="#DejaVuSans-64"/>
      <use xlink:href="#DejaVuSans-66" x="63.476562"/>
      <use xlink:href="#DejaVuSans-20" x="98.681641"/>
      <use xlink:href="#DejaVuSans-72" x="130.46875"/>
      <use xlink:href="#DejaVuSans-65" x="169.332031"/>
      <use xlink:href="#DejaVuSans-74" x="230.855469"/>
      <use xlink:href="#DejaVuSans-72" x="270.064453"/>
      <use xlink:href="#DejaVuSans-61" x="311.177734"/>
      <use xlink:href="#DejaVuSans-63" x="372.457031"/>
      <use xlink:href="#DejaVuSans-65" x="427.4375"/>
     </g>
    </g>
   </g>
  </g>
 </g>
 <defs>
  <clipPath id="pece086462a">
   <rect x="216" y="120.96" width="1339.2" height="776.16"/>
  </clipPath>
 </defs>
</svg>
