<?xml version="1.0" encoding="utf-8" standalone="no"?>
<!DOCTYPE svg PUBLIC "-//W3C//DTD SVG 1.1//EN"
  "http://www.w3.org/Graphics/SVG/1.1/DTD/svg11.dtd">
<svg xmlns:xlink="http://www.w3.org/1999/xlink" width="1728pt" height="1008pt" viewBox="0 0 1728 1008" xmlns="http://www.w3.org/2000/svg" version="1.1">
 <metadata>
  <rdf:RDF xmlns:dc="http://purl.org/dc/elements/1.1/" xmlns:cc="http://creativecommons.org/ns#" xmlns:rdf="http://www.w3.org/1999/02/22-rdf-syntax-ns#">
   <cc:Work>
    <dc:type rdf:resource="http://purl.org/dc/dcmitype/StillImage"/>
    <dc:date>2022-10-30T23:55:24.518821</dc:date>
    <dc:format>image/svg+xml</dc:format>
    <dc:creator>
     <cc:Agent>
      <dc:title>Matplotlib v3.5.2, https://matplotlib.org/</dc:title>
     </cc:Agent>
    </dc:creator>
   </cc:Work>
  </rdf:RDF>
 </metadata>
 <defs>
  <style type="text/css">*{stroke-linejoin: round; stroke-linecap: butt}</style>
 </defs>
 <g id="figure_1">
  <g id="patch_1">
   <path d="M 0 1008 
L 1728 1008 
L 1728 0 
L 0 0 
z
" style="fill: #ffffff"/>
  </g>
  <g id="axes_1">
   <g id="patch_2">
    <path d="M 216 897.12 
L 1555.2 897.12 
L 1555.2 120.96 
L 216 120.96 
L 216 897.12 
z
" style="fill: none"/>
   </g>
   <g id="matplotlib.axis_1">
    <g id="xtick_1">
     <g id="line2d_1">
      <defs>
       <path id="me75ae0cd72" d="M 0 0 
L 0 9 
" style="stroke: #262626; stroke-width: 1.875"/>
      </defs>
      <g>
       <use xlink:href="#me75ae0cd72" x="453.961805" y="897.12" style="fill: #262626; stroke: #262626; stroke-width: 1.875"/>
      </g>
     </g>
     <g id="text_1">
      <!-- 0.0 -->
      <g style="fill: #262626" transform="translate(415.794305 946.0925)scale(0.48 -0.48)">
       <defs>
        <path id="DejaVuSans-30" d="M 2034 4250 
Q 1547 4250 1301 3770 
Q 1056 3291 1056 2328 
Q 1056 1369 1301 889 
Q 1547 409 2034 409 
Q 2525 409 2770 889 
Q 3016 1369 3016 2328 
Q 3016 3291 2770 3770 
Q 2525 4250 2034 4250 
z
M 2034 4750 
Q 2819 4750 3233 4129 
Q 3647 3509 3647 2328 
Q 3647 1150 3233 529 
Q 2819 -91 2034 -91 
Q 1250 -91 836 529 
Q 422 1150 422 2328 
Q 422 3509 836 4129 
Q 1250 4750 2034 4750 
z
" transform="scale(0.015625)"/>
        <path id="DejaVuSans-2e" d="M 684 794 
L 1344 794 
L 1344 0 
L 684 0 
L 684 794 
z
" transform="scale(0.015625)"/>
       </defs>
       <use xlink:href="#DejaVuSans-30"/>
       <use xlink:href="#DejaVuSans-2e" x="63.623047"/>
       <use xlink:href="#DejaVuSans-30" x="95.410156"/>
      </g>
     </g>
    </g>
    <g id="xtick_2">
     <g id="line2d_2">
      <g>
       <use xlink:href="#me75ae0cd72" x="714.38692" y="897.12" style="fill: #262626; stroke: #262626; stroke-width: 1.875"/>
      </g>
     </g>
     <g id="text_2">
      <!-- 0.5 -->
      <g style="fill: #262626" transform="translate(676.21942 946.0925)scale(0.48 -0.48)">
       <defs>
        <path id="DejaVuSans-35" d="M 691 4666 
L 3169 4666 
L 3169 4134 
L 1269 4134 
L 1269 2991 
Q 1406 3038 1543 3061 
Q 1681 3084 1819 3084 
Q 2600 3084 3056 2656 
Q 3513 2228 3513 1497 
Q 3513 744 3044 326 
Q 2575 -91 1722 -91 
Q 1428 -91 1123 -41 
Q 819 9 494 109 
L 494 744 
Q 775 591 1075 516 
Q 1375 441 1709 441 
Q 2250 441 2565 725 
Q 2881 1009 2881 1497 
Q 2881 1984 2565 2268 
Q 2250 2553 1709 2553 
Q 1456 2553 1204 2497 
Q 953 2441 691 2322 
L 691 4666 
z
" transform="scale(0.015625)"/>
       </defs>
       <use xlink:href="#DejaVuSans-30"/>
       <use xlink:href="#DejaVuSans-2e" x="63.623047"/>
       <use xlink:href="#DejaVuSans-35" x="95.410156"/>
      </g>
     </g>
    </g>
    <g id="xtick_3">
     <g id="line2d_3">
      <g>
       <use xlink:href="#me75ae0cd72" x="974.812035" y="897.12" style="fill: #262626; stroke: #262626; stroke-width: 1.875"/>
      </g>
     </g>
     <g id="text_3">
      <!-- 1.0 -->
      <g style="fill: #262626" transform="translate(936.644535 946.0925)scale(0.48 -0.48)">
       <defs>
        <path id="DejaVuSans-31" d="M 794 531 
L 1825 531 
L 1825 4091 
L 703 3866 
L 703 4441 
L 1819 4666 
L 2450 4666 
L 2450 531 
L 3481 531 
L 3481 0 
L 794 0 
L 794 531 
z
" transform="scale(0.015625)"/>
       </defs>
       <use xlink:href="#DejaVuSans-31"/>
       <use xlink:href="#DejaVuSans-2e" x="63.623047"/>
       <use xlink:href="#DejaVuSans-30" x="95.410156"/>
      </g>
     </g>
    </g>
    <g id="xtick_4">
     <g id="line2d_4">
      <g>
       <use xlink:href="#me75ae0cd72" x="1235.23715" y="897.12" style="fill: #262626; stroke: #262626; stroke-width: 1.875"/>
      </g>
     </g>
     <g id="text_4">
      <!-- 1.5 -->
      <g style="fill: #262626" transform="translate(1197.06965 946.0925)scale(0.48 -0.48)">
       <use xlink:href="#DejaVuSans-31"/>
       <use xlink:href="#DejaVuSans-2e" x="63.623047"/>
       <use xlink:href="#DejaVuSans-35" x="95.410156"/>
      </g>
     </g>
    </g>
    <g id="xtick_5">
     <g id="line2d_5">
      <g>
       <use xlink:href="#me75ae0cd72" x="1495.662265" y="897.12" style="fill: #262626; stroke: #262626; stroke-width: 1.875"/>
      </g>
     </g>
     <g id="text_5">
      <!-- 2.0 -->
      <g style="fill: #262626" transform="translate(1457.494765 946.0925)scale(0.48 -0.48)">
       <defs>
        <path id="DejaVuSans-32" d="M 1228 531 
L 3431 531 
L 3431 0 
L 469 0 
L 469 531 
Q 828 903 1448 1529 
Q 2069 2156 2228 2338 
Q 2531 2678 2651 2914 
Q 2772 3150 2772 3378 
Q 2772 3750 2511 3984 
Q 2250 4219 1831 4219 
Q 1534 4219 1204 4116 
Q 875 4013 500 3803 
L 500 4441 
Q 881 4594 1212 4672 
Q 1544 4750 1819 4750 
Q 2544 4750 2975 4387 
Q 3406 4025 3406 3419 
Q 3406 3131 3298 2873 
Q 3191 2616 2906 2266 
Q 2828 2175 2409 1742 
Q 1991 1309 1228 531 
z
" transform="scale(0.015625)"/>
       </defs>
       <use xlink:href="#DejaVuSans-32"/>
       <use xlink:href="#DejaVuSans-2e" x="63.623047"/>
       <use xlink:href="#DejaVuSans-30" x="95.410156"/>
      </g>
     </g>
    </g>
    <g id="text_6">
     <!-- Z [nm] -->
     <g style="fill: #262626" transform="translate(804.2175 996.5475)scale(0.48 -0.48)">
      <defs>
       <path id="DejaVuSans-5a" d="M 359 4666 
L 4025 4666 
L 4025 4184 
L 1075 531 
L 4097 531 
L 4097 0 
L 288 0 
L 288 481 
L 3238 4134 
L 359 4134 
L 359 4666 
z
" transform="scale(0.015625)"/>
       <path id="DejaVuSans-20" transform="scale(0.015625)"/>
       <path id="DejaVuSans-5b" d="M 550 4863 
L 1875 4863 
L 1875 4416 
L 1125 4416 
L 1125 -397 
L 1875 -397 
L 1875 -844 
L 550 -844 
L 550 4863 
z
" transform="scale(0.015625)"/>
       <path id="DejaVuSans-6e" d="M 3513 2113 
L 3513 0 
L 2938 0 
L 2938 2094 
Q 2938 2591 2744 2837 
Q 2550 3084 2163 3084 
Q 1697 3084 1428 2787 
Q 1159 2491 1159 1978 
L 1159 0 
L 581 0 
L 581 3500 
L 1159 3500 
L 1159 2956 
Q 1366 3272 1645 3428 
Q 1925 3584 2291 3584 
Q 2894 3584 3203 3211 
Q 3513 2838 3513 2113 
z
" transform="scale(0.015625)"/>
       <path id="DejaVuSans-6d" d="M 3328 2828 
Q 3544 3216 3844 3400 
Q 4144 3584 4550 3584 
Q 5097 3584 5394 3201 
Q 5691 2819 5691 2113 
L 5691 0 
L 5113 0 
L 5113 2094 
Q 5113 2597 4934 2840 
Q 4756 3084 4391 3084 
Q 3944 3084 3684 2787 
Q 3425 2491 3425 1978 
L 3425 0 
L 2847 0 
L 2847 2094 
Q 2847 2600 2669 2842 
Q 2491 3084 2119 3084 
Q 1678 3084 1418 2786 
Q 1159 2488 1159 1978 
L 1159 0 
L 581 0 
L 581 3500 
L 1159 3500 
L 1159 2956 
Q 1356 3278 1631 3431 
Q 1906 3584 2284 3584 
Q 2666 3584 2933 3390 
Q 3200 3197 3328 2828 
z
" transform="scale(0.015625)"/>
       <path id="DejaVuSans-5d" d="M 1947 4863 
L 1947 -844 
L 622 -844 
L 622 -397 
L 1369 -397 
L 1369 4416 
L 622 4416 
L 622 4863 
L 1947 4863 
z
" transform="scale(0.015625)"/>
      </defs>
      <use xlink:href="#DejaVuSans-5a"/>
      <use xlink:href="#DejaVuSans-20" x="68.505859"/>
      <use xlink:href="#DejaVuSans-5b" x="100.292969"/>
      <use xlink:href="#DejaVuSans-6e" x="139.306641"/>
      <use xlink:href="#DejaVuSans-6d" x="202.685547"/>
      <use xlink:href="#DejaVuSans-5d" x="300.097656"/>
     </g>
    </g>
   </g>
   <g id="matplotlib.axis_2">
    <g id="ytick_1">
     <g id="line2d_6">
      <defs>
       <path id="m5e413ac4de" d="M 0 0 
L -9 0 
" style="stroke: #262626; stroke-width: 1.875"/>
      </defs>
      <g>
       <use xlink:href="#m5e413ac4de" x="216" y="829.62024" style="fill: #262626; stroke: #262626; stroke-width: 1.875"/>
      </g>
     </g>
     <g id="text_7">
      <!-- −8 -->
      <g style="fill: #262626" transform="translate(132.7375 847.85649)scale(0.48 -0.48)">
       <defs>
        <path id="DejaVuSans-2212" d="M 678 2272 
L 4684 2272 
L 4684 1741 
L 678 1741 
L 678 2272 
z
" transform="scale(0.015625)"/>
        <path id="DejaVuSans-38" d="M 2034 2216 
Q 1584 2216 1326 1975 
Q 1069 1734 1069 1313 
Q 1069 891 1326 650 
Q 1584 409 2034 409 
Q 2484 409 2743 651 
Q 3003 894 3003 1313 
Q 3003 1734 2745 1975 
Q 2488 2216 2034 2216 
z
M 1403 2484 
Q 997 2584 770 2862 
Q 544 3141 544 3541 
Q 544 4100 942 4425 
Q 1341 4750 2034 4750 
Q 2731 4750 3128 4425 
Q 3525 4100 3525 3541 
Q 3525 3141 3298 2862 
Q 3072 2584 2669 2484 
Q 3125 2378 3379 2068 
Q 3634 1759 3634 1313 
Q 3634 634 3220 271 
Q 2806 -91 2034 -91 
Q 1263 -91 848 271 
Q 434 634 434 1313 
Q 434 1759 690 2068 
Q 947 2378 1403 2484 
z
M 1172 3481 
Q 1172 3119 1398 2916 
Q 1625 2713 2034 2713 
Q 2441 2713 2670 2916 
Q 2900 3119 2900 3481 
Q 2900 3844 2670 4047 
Q 2441 4250 2034 4250 
Q 1625 4250 1398 4047 
Q 1172 3844 1172 3481 
z
" transform="scale(0.015625)"/>
       </defs>
       <use xlink:href="#DejaVuSans-2212"/>
       <use xlink:href="#DejaVuSans-38" x="83.789062"/>
      </g>
     </g>
    </g>
    <g id="ytick_2">
     <g id="line2d_7">
      <g>
       <use xlink:href="#m5e413ac4de" x="216" y="660.934903" style="fill: #262626; stroke: #262626; stroke-width: 1.875"/>
      </g>
     </g>
     <g id="text_8">
      <!-- −6 -->
      <g style="fill: #262626" transform="translate(132.7375 679.171153)scale(0.48 -0.48)">
       <defs>
        <path id="DejaVuSans-36" d="M 2113 2584 
Q 1688 2584 1439 2293 
Q 1191 2003 1191 1497 
Q 1191 994 1439 701 
Q 1688 409 2113 409 
Q 2538 409 2786 701 
Q 3034 994 3034 1497 
Q 3034 2003 2786 2293 
Q 2538 2584 2113 2584 
z
M 3366 4563 
L 3366 3988 
Q 3128 4100 2886 4159 
Q 2644 4219 2406 4219 
Q 1781 4219 1451 3797 
Q 1122 3375 1075 2522 
Q 1259 2794 1537 2939 
Q 1816 3084 2150 3084 
Q 2853 3084 3261 2657 
Q 3669 2231 3669 1497 
Q 3669 778 3244 343 
Q 2819 -91 2113 -91 
Q 1303 -91 875 529 
Q 447 1150 447 2328 
Q 447 3434 972 4092 
Q 1497 4750 2381 4750 
Q 2619 4750 2861 4703 
Q 3103 4656 3366 4563 
z
" transform="scale(0.015625)"/>
       </defs>
       <use xlink:href="#DejaVuSans-2212"/>
       <use xlink:href="#DejaVuSans-36" x="83.789062"/>
      </g>
     </g>
    </g>
    <g id="ytick_3">
     <g id="line2d_8">
      <g>
       <use xlink:href="#m5e413ac4de" x="216" y="492.249566" style="fill: #262626; stroke: #262626; stroke-width: 1.875"/>
      </g>
     </g>
     <g id="text_9">
      <!-- −4 -->
      <g style="fill: #262626" transform="translate(132.7375 510.485816)scale(0.48 -0.48)">
       <defs>
        <path id="DejaVuSans-34" d="M 2419 4116 
L 825 1625 
L 2419 1625 
L 2419 4116 
z
M 2253 4666 
L 3047 4666 
L 3047 1625 
L 3713 1625 
L 3713 1100 
L 3047 1100 
L 3047 0 
L 2419 0 
L 2419 1100 
L 313 1100 
L 313 1709 
L 2253 4666 
z
" transform="scale(0.015625)"/>
       </defs>
       <use xlink:href="#DejaVuSans-2212"/>
       <use xlink:href="#DejaVuSans-34" x="83.789062"/>
      </g>
     </g>
    </g>
    <g id="ytick_4">
     <g id="line2d_9">
      <g>
       <use xlink:href="#m5e413ac4de" x="216" y="323.564229" style="fill: #262626; stroke: #262626; stroke-width: 1.875"/>
      </g>
     </g>
     <g id="text_10">
      <!-- −2 -->
      <g style="fill: #262626" transform="translate(132.7375 341.800479)scale(0.48 -0.48)">
       <use xlink:href="#DejaVuSans-2212"/>
       <use xlink:href="#DejaVuSans-32" x="83.789062"/>
      </g>
     </g>
    </g>
    <g id="ytick_5">
     <g id="line2d_10">
      <g>
       <use xlink:href="#m5e413ac4de" x="216" y="154.878892" style="fill: #262626; stroke: #262626; stroke-width: 1.875"/>
      </g>
     </g>
     <g id="text_11">
      <!-- 0 -->
      <g style="fill: #262626" transform="translate(172.96 173.115142)scale(0.48 -0.48)">
       <use xlink:href="#DejaVuSans-30"/>
      </g>
     </g>
    </g>
    <g id="text_12">
     <!-- Df(Z) [Hz] -->
     <g style="fill: #262626" transform="translate(118.755 628.13625)rotate(-90)scale(0.48 -0.48)">
      <defs>
       <path id="DejaVuSans-44" d="M 1259 4147 
L 1259 519 
L 2022 519 
Q 2988 519 3436 956 
Q 3884 1394 3884 2338 
Q 3884 3275 3436 3711 
Q 2988 4147 2022 4147 
L 1259 4147 
z
M 628 4666 
L 1925 4666 
Q 3281 4666 3915 4102 
Q 4550 3538 4550 2338 
Q 4550 1131 3912 565 
Q 3275 0 1925 0 
L 628 0 
L 628 4666 
z
" transform="scale(0.015625)"/>
       <path id="DejaVuSans-66" d="M 2375 4863 
L 2375 4384 
L 1825 4384 
Q 1516 4384 1395 4259 
Q 1275 4134 1275 3809 
L 1275 3500 
L 2222 3500 
L 2222 3053 
L 1275 3053 
L 1275 0 
L 697 0 
L 697 3053 
L 147 3053 
L 147 3500 
L 697 3500 
L 697 3744 
Q 697 4328 969 4595 
Q 1241 4863 1831 4863 
L 2375 4863 
z
" transform="scale(0.015625)"/>
       <path id="DejaVuSans-28" d="M 1984 4856 
Q 1566 4138 1362 3434 
Q 1159 2731 1159 2009 
Q 1159 1288 1364 580 
Q 1569 -128 1984 -844 
L 1484 -844 
Q 1016 -109 783 600 
Q 550 1309 550 2009 
Q 550 2706 781 3412 
Q 1013 4119 1484 4856 
L 1984 4856 
z
" transform="scale(0.015625)"/>
       <path id="DejaVuSans-29" d="M 513 4856 
L 1013 4856 
Q 1481 4119 1714 3412 
Q 1947 2706 1947 2009 
Q 1947 1309 1714 600 
Q 1481 -109 1013 -844 
L 513 -844 
Q 928 -128 1133 580 
Q 1338 1288 1338 2009 
Q 1338 2731 1133 3434 
Q 928 4138 513 4856 
z
" transform="scale(0.015625)"/>
       <path id="DejaVuSans-48" d="M 628 4666 
L 1259 4666 
L 1259 2753 
L 3553 2753 
L 3553 4666 
L 4184 4666 
L 4184 0 
L 3553 0 
L 3553 2222 
L 1259 2222 
L 1259 0 
L 628 0 
L 628 4666 
z
" transform="scale(0.015625)"/>
       <path id="DejaVuSans-7a" d="M 353 3500 
L 3084 3500 
L 3084 2975 
L 922 459 
L 3084 459 
L 3084 0 
L 275 0 
L 275 525 
L 2438 3041 
L 353 3041 
L 353 3500 
z
" transform="scale(0.015625)"/>
      </defs>
      <use xlink:href="#DejaVuSans-44"/>
      <use xlink:href="#DejaVuSans-66" x="77.001953"/>
      <use xlink:href="#DejaVuSans-28" x="112.207031"/>
      <use xlink:href="#DejaVuSans-5a" x="151.220703"/>
      <use xlink:href="#DejaVuSans-29" x="219.726562"/>
      <use xlink:href="#DejaVuSans-20" x="258.740234"/>
      <use xlink:href="#DejaVuSans-5b" x="290.527344"/>
      <use xlink:href="#DejaVuSans-48" x="329.541016"/>
      <use xlink:href="#DejaVuSans-7a" x="404.736328"/>
      <use xlink:href="#DejaVuSans-5d" x="457.226562"/>
     </g>
    </g>
   </g>
   <g id="line2d_11">
    <path d="M 276.872727 856.396048 
L 279.255221 815.615067 
L 281.637716 790.849518 
L 286.402704 737.397144 
L 288.785198 710.036909 
L 291.167693 694.335505 
L 293.550187 676.258035 
L 295.932681 659.69605 
L 298.315175 641.184694 
L 300.697669 626.659817 
L 303.080164 610.613701 
L 305.462658 596.91057 
L 307.845152 587.167549 
L 310.227646 571.181842 
L 312.610141 561.671346 
L 314.992635 546.814222 
L 317.375129 542.161333 
L 319.757623 532.09086 
L 322.140117 527.513721 
L 324.522612 521.712112 
L 326.905106 511.782112 
L 329.2876 505.427239 
L 331.670094 496.372683 
L 334.052589 489.366261 
L 336.435083 479.792479 
L 338.817577 475.33424 
L 341.200071 471.882328 
L 343.582565 462.77024 
L 345.96506 456.959522 
L 348.347554 455.106037 
L 350.730048 448.448642 
L 353.112542 444.953581 
L 355.495036 442.209791 
L 357.877531 432.911683 
L 360.260025 431.05628 
L 362.642519 423.921371 
L 365.025013 419.228688 
L 367.407508 414.155337 
L 369.790002 410.791641 
L 372.172496 405.130506 
L 374.55499 400.371182 
L 376.937484 398.181616 
L 379.319979 393.625572 
L 381.702473 391.70161 
L 384.084967 388.612149 
L 386.467461 380.523169 
L 388.849956 380.327082 
L 393.614944 370.701522 
L 395.997438 370.413862 
L 398.379932 365.544749 
L 400.762427 364.292472 
L 403.144921 358.095811 
L 405.527415 355.280106 
L 407.909909 354.304941 
L 410.292403 350.825222 
L 412.674898 347.677271 
L 415.057392 346.707379 
L 417.439886 341.982096 
L 419.82238 342.512827 
L 422.204875 334.652057 
L 426.969863 334.360562 
L 429.352357 328.238213 
L 431.734851 328.081439 
L 434.117346 324.403715 
L 436.49984 322.499889 
L 438.882334 321.820534 
L 441.264828 324.347621 
L 443.647323 316.284051 
L 446.029817 316.948065 
L 448.412311 311.409185 
L 450.794805 311.036666 
L 453.177299 306.424528 
L 455.559794 311.39624 
L 457.942288 305.692915 
L 460.324782 302.436611 
L 462.707276 302.015191 
L 465.089771 299.394614 
L 467.472265 299.832336 
L 472.237253 296.051534 
L 474.619747 296.530486 
L 477.002242 293.342742 
L 479.384736 289.701454 
L 481.76723 290.187599 
L 484.149724 288.04214 
L 486.532218 287.244844 
L 488.914713 286.043387 
L 491.297207 283.832246 
L 493.679701 282.602023 
L 496.062195 279.273325 
L 498.44469 281.113386 
L 500.827184 278.415141 
L 503.209678 277.91797 
L 505.592172 273.988065 
L 507.974666 271.761102 
L 510.357161 275.235547 
L 512.739655 270.731761 
L 515.122149 272.030543 
L 517.504643 271.556864 
L 519.887138 271.271602 
L 522.269632 265.451295 
L 524.652126 266.81528 
L 527.03462 266.873291 
L 529.417114 264.727832 
L 531.799609 267.307177 
L 534.182103 262.938112 
L 536.564597 260.232676 
L 538.947091 263.075229 
L 541.329585 259.442092 
L 543.71208 256.347357 
L 546.094574 258.898896 
L 548.477068 258.306317 
L 550.859562 254.607498 
L 553.242057 254.489078 
L 555.624551 256.520432 
L 558.007045 256.187707 
L 560.389539 255.61095 
L 565.154528 250.405754 
L 567.537022 253.109752 
L 569.919516 249.481409 
L 572.30201 246.935624 
L 574.684505 249.904748 
L 577.066999 246.448042 
L 579.449493 243.728223 
L 581.831987 249.457438 
L 584.214481 245.654582 
L 586.596976 242.139385 
L 588.97947 244.530313 
L 591.361964 244.944542 
L 593.744458 238.677405 
L 596.126952 240.021733 
L 598.509447 243.365772 
L 600.891941 240.017897 
L 603.274435 239.69476 
L 605.656929 240.484864 
L 608.039424 235.327133 
L 610.421918 235.69246 
L 612.804412 240.448427 
L 615.186906 235.914437 
L 617.5694 235.0505 
L 619.951895 235.180427 
L 622.334389 233.321668 
L 624.716883 235.159811 
L 627.099377 228.730146 
L 629.481872 231.519962 
L 631.864366 234.75517 
L 634.24686 227.463486 
L 636.629354 231.022311 
L 639.011848 226.206415 
L 641.394343 229.431076 
L 643.776837 224.719696 
L 646.159331 226.88577 
L 648.541825 228.066612 
L 650.92432 225.394736 
L 653.306814 225.390421 
L 655.689308 226.0506 
L 658.071802 225.974849 
L 660.454296 226.54873 
L 662.836791 221.189637 
L 665.219285 225.168924 
L 667.601779 220.058656 
L 669.984273 222.604441 
L 672.366767 221.137379 
L 674.749262 220.847322 
L 677.131756 219.919141 
L 679.51425 218.330303 
L 681.896744 223.31448 
L 684.279239 224.457926 
L 686.661733 218.554198 
L 689.044227 211.767356 
L 691.426721 218.502899 
L 693.809215 220.406244 
L 696.19171 219.024521 
L 698.574204 216.529076 
L 700.956698 216.920293 
L 703.339192 218.395026 
L 705.721687 214.231158 
L 708.104181 218.444408 
L 710.486675 213.30921 
L 712.869169 214.421013 
L 715.251663 214.842434 
L 717.634158 213.886926 
L 720.016652 209.270953 
L 722.399146 213.559953 
L 724.78164 212.978402 
L 727.164134 205.587475 
L 729.546629 213.926719 
L 731.929123 209.608473 
L 734.311617 210.817601 
L 736.694111 212.281787 
L 739.076606 207.670129 
L 741.4591 213.911377 
L 743.841594 205.339609 
L 746.224088 208.42907 
L 748.606582 209.126644 
L 750.989077 207.208915 
L 753.371571 210.849243 
L 755.754065 204.893737 
L 758.136559 207.209394 
L 760.519054 206.06451 
L 762.901548 204.061442 
L 765.284042 209.491491 
L 767.666536 203.474138 
L 770.04903 205.138247 
L 772.431525 203.044567 
L 774.814019 203.993843 
L 777.196513 200.645009 
L 779.579007 202.32446 
L 781.961502 199.190891 
L 784.343996 203.16826 
L 786.72649 204.872162 
L 789.108984 197.204603 
L 791.491478 204.051854 
L 793.873973 201.628804 
L 796.256467 204.091647 
L 798.638961 202.211314 
L 801.021455 199.648749 
L 803.403949 200.21304 
L 805.786444 198.444894 
L 808.168938 200.400498 
L 810.551432 198.234424 
L 812.933926 202.444318 
L 815.316421 198.224835 
L 817.698915 201.803796 
L 820.081409 198.054637 
L 822.463903 197.071801 
L 824.846397 196.818181 
L 827.228892 200.980132 
L 829.611386 195.302217 
L 831.99388 200.046198 
L 834.376374 193.486607 
L 836.758869 195.345365 
L 839.141363 193.38257 
L 841.523857 193.176894 
L 843.906351 195.925478 
L 846.288845 192.754514 
L 848.67134 192.641368 
L 851.053834 194.103157 
L 853.436328 195.190509 
L 855.818822 188.711462 
L 858.201316 194.476155 
L 860.583811 194.105554 
L 862.966305 191.251973 
L 865.348799 196.821537 
L 867.731293 195.153113 
L 870.113788 186.984068 
L 872.496282 198.298668 
L 874.878776 188.270864 
L 877.26127 191.252932 
L 879.643764 189.469445 
L 882.026259 191.260603 
L 884.408753 190.116678 
L 886.791247 191.554016 
L 889.173741 189.72642 
L 891.556236 189.604644 
L 893.93873 189.033641 
L 896.321224 188.330793 
L 898.703718 188.228674 
L 901.086212 189.833334 
L 903.468707 189.628616 
L 905.851201 188.766597 
L 908.233695 185.540498 
L 910.616189 186.237592 
L 912.998684 187.757872 
L 915.381178 186.0113 
L 917.763672 188.979465 
L 920.146166 187.145157 
L 922.52866 188.589207 
L 924.911155 183.112653 
L 927.293649 189.394653 
L 929.676143 186.434159 
L 932.058637 187.540209 
L 934.441131 184.522663 
L 936.823626 183.567634 
L 939.20612 185.295508 
L 941.588614 186.690656 
L 943.971108 185.711655 
L 946.353603 184.389861 
L 948.736097 185.694396 
L 951.118591 186.659972 
L 953.501085 186.796131 
L 955.883579 181.86613 
L 958.266074 185.919249 
L 960.648568 185.689122 
L 963.031062 183.36867 
L 965.413556 181.647029 
L 967.796051 183.712423 
L 970.178545 180.342974 
L 972.561039 180.667549 
L 974.943533 184.191855 
L 977.326027 181.525733 
L 979.708522 182.872937 
L 982.091016 183.829404 
L 984.47351 183.186486 
L 986.856004 182.664864 
L 989.238498 179.764299 
L 991.620993 181.332042 
L 994.003487 182.648083 
L 996.385981 181.765928 
L 998.768475 176.897294 
L 1001.15097 180.895759 
L 1003.533464 178.894609 
L 1005.915958 182.850883 
L 1008.298452 180.327632 
L 1010.680946 178.545103 
L 1013.063441 182.944373 
L 1015.445935 183.626605 
L 1017.828429 182.860951 
L 1020.210923 174.158778 
L 1022.593418 179.245074 
L 1024.975912 176.969689 
L 1027.358406 180.786448 
L 1029.7409 179.502529 
L 1032.123394 179.447394 
L 1034.505889 177.253033 
L 1036.888383 180.468585 
L 1039.270877 176.846475 
L 1041.653371 176.931334 
L 1044.035866 178.195597 
L 1046.41836 176.45382 
L 1048.800854 180.856445 
L 1051.183348 176.193009 
L 1053.565842 177.671098 
L 1055.948337 176.23424 
L 1058.330831 175.252363 
L 1060.713325 174.896624 
L 1063.095819 177.237212 
L 1065.478313 172.671579 
L 1067.860808 180.172775 
L 1070.243302 174.053303 
L 1072.625796 175.349687 
L 1075.00829 174.208639 
L 1077.390785 173.834682 
L 1079.773279 176.959141 
L 1082.155773 175.120998 
L 1084.538267 171.237118 
L 1086.920761 176.530049 
L 1089.303256 174.754233 
L 1091.68575 176.794217 
L 1094.068244 175.129149 
L 1096.450738 174.70581 
L 1098.833233 173.179298 
L 1101.215727 174.97621 
L 1103.598221 175.369344 
L 1105.980715 174.936896 
L 1108.363209 174.270006 
L 1110.745704 174.328017 
L 1113.128198 176.896815 
L 1115.510692 170.908707 
L 1117.893186 173.098274 
L 1120.27568 173.987141 
L 1122.658175 171.926062 
L 1125.040669 173.970361 
L 1127.423163 170.252364 
L 1129.805657 171.509436 
L 1132.188152 176.130203 
L 1134.570646 169.837656 
L 1136.95314 173.858174 
L 1139.335634 173.365318 
L 1141.718128 171.71703 
L 1144.100623 172.105849 
L 1146.483117 170.182847 
L 1148.865611 172.323511 
L 1151.248105 171.584706 
L 1153.6306 167.541655 
L 1156.013094 173.529763 
L 1158.395588 168.583461 
L 1160.778082 169.051866 
L 1163.160576 168.960774 
L 1165.543071 174.159257 
L 1167.925565 168.870161 
L 1170.308059 171.622102 
L 1172.690553 169.256584 
L 1175.073048 168.200395 
L 1177.455542 170.836313 
L 1179.838036 171.575597 
L 1182.22053 169.38603 
L 1184.603024 168.462644 
L 1186.985519 168.556613 
L 1189.368013 167.301939 
L 1191.750507 171.081782 
L 1194.133001 167.370018 
L 1196.515495 165.289282 
L 1198.89799 170.083604 
L 1201.280484 168.900845 
L 1203.662978 168.473192 
L 1206.045472 168.294843 
L 1208.427967 165.735154 
L 1210.810461 167.87486 
L 1213.192955 167.219956 
L 1215.575449 167.225709 
L 1217.957943 166.077469 
L 1220.340438 166.806206 
L 1222.722932 170.980622 
L 1225.105426 164.165493 
L 1227.48792 169.171724 
L 1229.870415 165.288803 
L 1232.252909 167.471178 
L 1234.635403 168.479904 
L 1237.017897 165.102783 
L 1239.400391 167.102974 
L 1241.782886 165.588928 
L 1244.16538 169.109878 
L 1246.547874 168.25457 
L 1248.930368 165.252846 
L 1251.312862 166.548751 
L 1253.695357 163.949749 
L 1256.077851 165.634474 
L 1258.460345 166.737168 
L 1260.842839 161.717513 
L 1263.225334 166.76018 
L 1265.607828 166.593338 
L 1267.990322 166.158972 
L 1270.372816 168.640993 
L 1272.75531 163.114578 
L 1275.137805 164.914846 
L 1277.520299 165.674746 
L 1279.902793 166.305199 
L 1282.285287 165.800837 
L 1284.667782 169.018306 
L 1287.050276 164.246517 
L 1289.43277 167.081879 
L 1291.815264 166.516629 
L 1294.197758 165.107578 
L 1296.580253 164.216313 
L 1298.962747 166.948118 
L 1301.345241 166.829698 
L 1303.727735 165.084085 
L 1306.110229 162.791441 
L 1308.492724 166.216984 
L 1310.875218 161.920792 
L 1313.257712 165.535231 
L 1315.640206 162.32783 
L 1318.022701 165.507904 
L 1320.405195 165.854533 
L 1322.787689 163.460249 
L 1325.170183 165.971994 
L 1327.552677 165.40099 
L 1329.935172 160.340583 
L 1332.317666 161.446634 
L 1334.70016 166.496493 
L 1337.082654 162.447208 
L 1339.465149 165.19819 
L 1341.847643 158.78147 
L 1344.230137 160.424484 
L 1346.612631 162.443373 
L 1348.995125 160.879945 
L 1351.37762 162.736306 
L 1353.760114 161.979762 
L 1356.142608 162.156193 
L 1358.525102 162.922805 
L 1360.907597 163.014856 
L 1363.290091 160.679542 
L 1365.672585 163.255531 
L 1368.055079 161.296092 
L 1370.437573 161.547794 
L 1372.820068 160.77447 
L 1375.202562 161.33109 
L 1377.585056 163.269435 
L 1379.96755 160.14929 
L 1382.350044 161.55067 
L 1384.732539 162.704664 
L 1387.115033 164.445961 
L 1389.497527 159.933066 
L 1391.880021 161.813879 
L 1394.262516 158.871124 
L 1396.64501 163.704759 
L 1399.027504 162.331665 
L 1401.409998 161.629777 
L 1403.792492 162.371458 
L 1406.174987 158.476551 
L 1408.557481 159.251793 
L 1410.939975 159.48192 
L 1413.322469 164.619036 
L 1415.704964 160.337227 
L 1418.087458 161.332529 
L 1420.469952 161.323899 
L 1422.852446 160.709267 
L 1425.23494 156.24 
L 1427.617435 163.617502 
L 1429.999929 161.151783 
L 1432.382423 159.214877 
L 1434.764917 161.820591 
L 1437.147411 159.519796 
L 1439.529906 156.736212 
L 1441.9124 162.072772 
L 1444.294894 159.139126 
L 1446.677388 161.63505 
L 1453.824871 160.229355 
L 1456.207365 158.233479 
L 1458.589859 160.570711 
L 1460.972354 159.67657 
L 1463.354848 157.67542 
L 1465.737342 156.321024 
L 1468.119836 163.428127 
L 1470.502331 160.331954 
L 1472.884825 160.32668 
L 1475.267319 160.198672 
L 1477.649813 158.389774 
L 1480.032307 159.783004 
L 1482.414802 157.223315 
L 1484.797296 161.603408 
L 1487.17979 159.527946 
L 1489.562284 159.506371 
L 1491.944779 157.941025 
L 1494.327273 157.80199 
L 1494.327273 157.80199 
" clip-path="url(#pa0e1e2f2a7)" style="fill: none; stroke: #00c9a7; stroke-width: 2.25; stroke-linecap: round"/>
   </g>
   <g id="line2d_12">
    <path d="M 276.872727 861.84 
L 279.255221 850.605466 
L 281.637716 830.614582 
L 284.02021 828.953829 
L 286.402704 811.150594 
L 288.785198 806.802144 
L 291.167693 797.028919 
L 293.550187 784.625529 
L 295.932681 774.029119 
L 298.315175 756.757575 
L 300.697669 744.23145 
L 303.080164 735.662559 
L 305.462658 722.322838 
L 307.845152 705.175466 
L 310.227646 694.100583 
L 312.610141 677.693934 
L 317.375129 642.914965 
L 319.757623 632.375607 
L 322.140117 615.169265 
L 324.522612 605.350494 
L 326.905106 587.070225 
L 329.2876 576.610453 
L 331.670094 558.030538 
L 334.052589 556.649773 
L 336.435083 541.810868 
L 338.817577 529.125572 
L 341.200071 521.916829 
L 343.582565 511.274873 
L 345.96506 501.828621 
L 348.347554 493.561772 
L 350.730048 484.849051 
L 353.112542 474.127988 
L 355.495036 471.26434 
L 357.877531 462.149375 
L 360.260025 453.816844 
L 362.642519 447.296566 
L 365.025013 437.087537 
L 367.407508 434.033075 
L 369.790002 427.200207 
L 372.172496 419.371559 
L 374.55499 415.137694 
L 376.937484 409.640045 
L 379.319979 407.807175 
L 381.702473 402.228023 
L 384.084967 392.79903 
L 386.467461 392.74054 
L 388.849956 380.794528 
L 391.23245 383.316341 
L 393.614944 374.225828 
L 395.997438 374.690397 
L 398.379932 369.881693 
L 400.762427 362.3268 
L 403.144921 360.118056 
L 405.527415 355.280106 
L 407.909909 353.043555 
L 410.292403 348.306765 
L 412.674898 346.523757 
L 415.057392 347.029558 
L 417.439886 340.463254 
L 419.82238 336.344932 
L 422.204875 339.029273 
L 424.587369 331.985935 
L 426.969863 327.976923 
L 429.352357 326.863202 
L 431.734851 323.371018 
L 434.117346 318.546971 
L 438.882334 319.553779 
L 441.264828 318.9449 
L 443.647323 311.616299 
L 446.029817 313.074253 
L 448.412311 309.740761 
L 453.177299 302.740572 
L 455.559794 302.824952 
L 457.942288 301.941358 
L 460.324782 296.397684 
L 462.707276 301.417818 
L 465.089771 295.020275 
L 467.472265 296.964373 
L 469.854759 293.940114 
L 472.237253 293.319729 
L 474.619747 293.688892 
L 477.002242 290.11041 
L 479.384736 289.302087 
L 481.76723 291.458573 
L 484.149724 287.205051 
L 486.532218 284.220586 
L 488.914713 286.912597 
L 491.297207 283.937721 
L 493.679701 283.568558 
L 496.062195 278.663008 
L 498.44469 280.964762 
L 500.827184 282.180122 
L 503.209678 280.749976 
L 505.592172 278.27275 
L 507.974666 275.578341 
L 510.357161 278.067074 
L 512.739655 272.959203 
L 515.122149 274.347159 
L 517.504643 276.857946 
L 519.887138 269.747008 
L 522.269632 267.496073 
L 524.652126 269.117034 
L 527.03462 268.424254 
L 529.417114 268.821224 
L 531.799609 265.066311 
L 536.564597 261.714601 
L 538.947091 265.263358 
L 541.329585 258.685069 
L 543.71208 258.216664 
L 546.094574 259.924401 
L 548.477068 256.69111 
L 550.859562 256.867062 
L 553.242057 259.745093 
L 555.624551 255.231719 
L 558.007045 257.146091 
L 560.389539 249.400865 
L 562.772033 256.970619 
L 565.154528 249.182723 
L 567.537022 251.358866 
L 569.919516 250.218776 
L 572.30201 252.011373 
L 574.684505 248.919994 
L 577.066999 248.021059 
L 579.449493 246.588036 
L 581.831987 246.08655 
L 584.214481 244.981938 
L 586.596976 245.051456 
L 588.97947 243.042635 
L 591.361964 243.124138 
L 593.744458 243.769934 
L 596.126952 242.245339 
L 598.509447 236.800907 
L 600.891941 236.802346 
L 603.274435 245.213983 
L 605.656929 240.668966 
L 608.039424 237.742992 
L 610.421918 236.135456 
L 612.804412 236.886726 
L 615.186906 237.960174 
L 617.5694 234.446895 
L 619.951895 236.22415 
L 622.334389 233.966984 
L 624.716883 236.505098 
L 629.481872 229.649697 
L 631.864366 234.102663 
L 634.24686 233.614122 
L 636.629354 229.513059 
L 639.011848 229.494361 
L 641.394343 230.105637 
L 643.776837 226.860361 
L 646.159331 231.686804 
L 648.541825 232.218974 
L 650.92432 226.011766 
L 653.306814 231.139772 
L 655.689308 220.650275 
L 658.071802 226.585166 
L 660.454296 226.403462 
L 662.836791 226.041011 
L 665.219285 224.734558 
L 667.601779 223.015794 
L 669.984273 224.998725 
L 672.366767 221.804748 
L 674.749262 223.791995 
L 677.131756 219.201911 
L 679.51425 223.580086 
L 681.896744 216.023755 
L 684.279239 220.466653 
L 686.661733 220.911087 
L 689.044227 216.947621 
L 691.426721 221.157515 
L 693.809215 220.128174 
L 696.19171 215.652674 
L 698.574204 217.089533 
L 700.956698 221.73571 
L 703.339192 214.859694 
L 705.721687 216.356001 
L 708.104181 212.784711 
L 710.486675 215.266731 
L 712.869169 216.419766 
L 715.251663 214.712028 
L 717.634158 212.187818 
L 720.016652 213.332223 
L 722.399146 211.193476 
L 724.78164 214.494846 
L 727.164134 209.937843 
L 729.546629 213.113602 
L 731.929123 211.627841 
L 734.311617 212.318703 
L 736.694111 209.000073 
L 739.076606 208.497628 
L 741.4591 213.894117 
L 743.841594 210.42111 
L 746.224088 209.731207 
L 748.606582 203.500027 
L 750.989077 207.882996 
L 753.371571 208.001416 
L 755.754065 210.148313 
L 758.136559 204.775796 
L 760.519054 206.618254 
L 762.901548 204.73025 
L 765.284042 205.951844 
L 767.666536 208.443932 
L 770.04903 203.824124 
L 772.431525 203.598311 
L 774.814019 205.080715 
L 777.196513 204.429167 
L 779.579007 203.521602 
L 781.961502 206.625925 
L 784.343996 203.21956 
L 786.72649 205.039484 
L 789.108984 202.023376 
L 791.491478 199.564369 
L 793.873973 205.560147 
L 796.256467 203.266065 
L 798.638961 203.634748 
L 801.021455 200.337213 
L 803.403949 200.01072 
L 805.786444 202.188301 
L 808.168938 199.944079 
L 810.551432 200.014076 
L 812.933926 199.20863 
L 815.316421 200.40769 
L 817.698915 196.90352 
L 820.081409 200.481043 
L 822.463903 195.102773 
L 824.846397 198.507221 
L 827.228892 198.721527 
L 829.611386 197.204124 
L 831.99388 196.872357 
L 834.376374 197.128374 
L 836.758869 194.211029 
L 839.141363 197.61308 
L 841.523857 195.10469 
L 843.906351 195.623916 
L 846.288845 195.227905 
L 848.67134 192.23433 
L 851.053834 194.49677 
L 853.436328 195.91541 
L 855.818822 194.354859 
L 858.201316 190.761035 
L 860.583811 197.00516 
L 862.966305 192.991353 
L 865.348799 194.857303 
L 867.731293 191.367037 
L 870.113788 190.517483 
L 872.496282 192.51336 
L 874.878776 194.762376 
L 877.26127 192.302889 
L 879.643764 192.668696 
L 882.026259 193.609821 
L 884.408753 189.51547 
L 886.791247 190.387078 
L 889.173741 186.542991 
L 891.556236 191.072186 
L 893.93873 192.183031 
L 896.321224 186.852224 
L 898.703718 190.265781 
L 901.086212 191.068351 
L 903.468707 188.411338 
L 905.851201 187.837937 
L 908.233695 190.330505 
L 910.616189 190.685764 
L 912.998684 192.549317 
L 915.381178 187.255906 
L 917.763672 187.824992 
L 920.146166 187.015231 
L 922.52866 188.399352 
L 924.911155 187.989437 
L 927.293649 184.264249 
L 929.676143 184.200005 
L 932.058637 191.185332 
L 934.441131 182.26262 
L 936.823626 184.322261 
L 939.20612 187.570893 
L 941.588614 184.846759 
L 943.971108 190.541934 
L 946.353603 183.761804 
L 948.736097 186.621138 
L 951.118591 186.235675 
L 953.501085 179.803612 
L 955.883579 187.469733 
L 958.266074 183.725368 
L 960.648568 181.901128 
L 963.031062 185.120515 
L 965.413556 183.695643 
L 967.796051 185.595633 
L 970.178545 185.679533 
L 972.561039 185.306535 
L 974.943533 184.076312 
L 977.326027 184.536087 
L 979.708522 183.011014 
L 982.091016 177.9228 
L 984.47351 183.062792 
L 986.856004 184.335685 
L 989.238498 179.701493 
L 991.620993 184.377395 
L 994.003487 181.705999 
L 996.385981 180.686726 
L 998.768475 182.608291 
L 1001.15097 180.716451 
L 1003.533464 179.2398 
L 1005.915958 180.527555 
L 1008.298452 181.208828 
L 1010.680946 181.219855 
L 1013.063441 179.75471 
L 1015.445935 177.021467 
L 1017.828429 179.164529 
L 1020.210923 181.047739 
L 1022.593418 177.849926 
L 1024.975912 179.368288 
L 1027.358406 181.49409 
L 1029.7409 177.679248 
L 1032.123394 176.713672 
L 1034.505889 179.286305 
L 1036.888383 178.469832 
L 1039.270877 179.546637 
L 1041.653371 177.354193 
L 1044.035866 178.073821 
L 1046.41836 178.529282 
L 1048.800854 178.489009 
L 1051.183348 179.176036 
L 1053.565842 176.593814 
L 1055.948337 175.416808 
L 1058.330831 175.886172 
L 1060.713325 173.431 
L 1063.095819 178.254567 
L 1065.478313 175.315168 
L 1067.860808 179.127134 
L 1070.243302 177.051672 
L 1072.625796 177.294744 
L 1075.00829 174.158298 
L 1077.390785 175.826722 
L 1079.773279 174.911007 
L 1082.155773 177.358988 
L 1084.538267 174.138162 
L 1086.920761 175.090315 
L 1089.303256 173.137108 
L 1091.68575 174.892309 
L 1094.068244 174.985798 
L 1096.450738 171.920788 
L 1098.833233 176.195406 
L 1101.215727 169.182751 
L 1103.598221 174.706769 
L 1105.980715 177.565143 
L 1108.363209 167.627473 
L 1110.745704 173.900843 
L 1113.128198 176.427451 
L 1115.510692 173.487573 
L 1117.893186 174.400891 
L 1120.27568 170.268186 
L 1122.658175 170.833916 
L 1125.040669 173.159162 
L 1127.423163 173.951663 
L 1129.805657 173.538393 
L 1132.188152 172.028661 
L 1134.570646 171.964896 
L 1136.95314 174.752315 
L 1139.335634 172.02962 
L 1141.718128 170.901516 
L 1144.100623 171.617308 
L 1146.483117 168.248817 
L 1148.865611 175.934595 
L 1151.248105 170.238461 
L 1153.6306 171.766891 
L 1156.013094 165.733716 
L 1158.395588 172.559871 
L 1160.778082 171.088494 
L 1163.160576 174.24987 
L 1165.543071 167.102495 
L 1167.925565 172.253035 
L 1170.308059 170.419207 
L 1172.690553 169.700538 
L 1175.073048 170.494478 
L 1177.455542 169.500615 
L 1179.838036 169.176998 
L 1182.22053 172.606376 
L 1184.603024 171.053016 
L 1186.985519 162.146604 
L 1189.368013 172.842736 
L 1191.750507 168.96413 
L 1194.133001 168.884065 
L 1196.515495 167.426591 
L 1198.89799 168.129918 
L 1201.280484 169.958952 
L 1203.662978 170.665156 
L 1206.045472 170.179011 
L 1208.427967 169.168368 
L 1210.810461 170.482971 
L 1213.192955 166.914078 
L 1215.575449 166.826342 
L 1217.957943 169.047551 
L 1220.340438 167.680211 
L 1222.722932 166.817712 
L 1225.105426 169.753276 
L 1227.48792 168.184094 
L 1229.870415 169.793548 
L 1232.252909 164.448838 
L 1234.635403 166.382867 
L 1237.017897 167.696511 
L 1239.400391 164.523629 
L 1241.782886 164.709649 
L 1244.16538 162.254477 
L 1246.547874 168.086769 
L 1248.930368 167.324951 
L 1251.312862 166.242873 
L 1253.695357 164.499178 
L 1256.077851 168.634281 
L 1258.460345 166.222257 
L 1260.842839 169.875531 
L 1263.225334 163.590654 
L 1265.607828 166.624981 
L 1267.990322 165.585572 
L 1270.372816 164.68328 
L 1272.75531 164.398497 
L 1275.137805 162.097702 
L 1277.520299 165.503589 
L 1279.902793 164.75951 
L 1282.285287 166.610118 
L 1284.667782 166.713196 
L 1287.050276 165.345376 
L 1289.43277 166.967295 
L 1291.815264 164.510685 
L 1294.197758 166.057333 
L 1296.580253 161.675323 
L 1298.962747 164.78492 
L 1301.345241 162.449606 
L 1303.727735 165.182369 
L 1306.110229 167.337417 
L 1308.492724 163.88119 
L 1310.875218 163.278544 
L 1313.257712 163.031157 
L 1315.640206 166.047744 
L 1318.022701 163.481823 
L 1320.405195 163.556135 
L 1322.787689 160.528521 
L 1325.170183 164.525068 
L 1327.552677 165.290721 
L 1329.935172 163.168754 
L 1332.317666 167.440015 
L 1334.70016 164.954159 
L 1337.082654 160.272025 
L 1339.465149 165.890011 
L 1341.847643 162.576655 
L 1344.230137 163.341829 
L 1346.612631 159.988201 
L 1348.995125 164.437331 
L 1351.37762 163.80544 
L 1353.760114 164.402333 
L 1356.142608 161.704568 
L 1358.525102 164.819439 
L 1360.907597 160.314694 
L 1363.290091 162.196945 
L 1365.672585 166.737168 
L 1368.055079 160.447976 
L 1370.437573 158.820783 
L 1372.820068 166.16137 
L 1375.202562 163.556135 
L 1377.585056 162.771784 
L 1379.96755 160.520371 
L 1382.350044 163.507712 
L 1384.732539 165.947543 
L 1387.115033 159.292545 
L 1389.497527 159.700541 
L 1391.880021 161.053979 
L 1394.262516 160.896725 
L 1396.64501 160.459962 
L 1399.027504 163.679349 
L 1401.409998 157.047364 
L 1403.792492 157.54837 
L 1406.174987 163.258887 
L 1408.557481 158.850988 
L 1410.939975 158.629969 
L 1413.322469 164.028855 
L 1415.704964 161.362733 
L 1418.087458 160.954257 
L 1420.469952 162.480289 
L 1422.852446 161.607243 
L 1425.23494 160.116209 
L 1427.617435 157.15188 
L 1429.999929 159.888958 
L 1434.764917 158.2493 
L 1437.147411 158.567164 
L 1439.529906 160.388527 
L 1441.9124 159.770539 
L 1444.294894 159.671776 
L 1446.677388 162.427072 
L 1449.059883 161.473002 
L 1451.442377 161.051102 
L 1453.824871 158.476551 
L 1456.207365 159.314599 
L 1458.589859 158.217658 
L 1460.972354 157.637545 
L 1463.354848 157.262149 
L 1465.737342 162.89356 
L 1468.119836 157.255437 
L 1470.502331 160.082649 
L 1472.884825 161.284106 
L 1475.267319 159.573492 
L 1477.649813 158.010543 
L 1480.032307 157.063664 
L 1482.414802 161.604846 
L 1484.797296 160.134907 
L 1487.17979 158.439155 
L 1489.562284 159.592669 
L 1491.944779 158.432923 
L 1494.327273 156.960107 
L 1494.327273 156.960107 
" clip-path="url(#pa0e1e2f2a7)" style="fill: none; stroke: #ffc75f; stroke-width: 2.25; stroke-linecap: round"/>
   </g>
   <g id="patch_3">
    <path d="M 216 897.12 
L 216 120.96 
" style="fill: none; stroke: #262626; stroke-width: 1.875; stroke-linejoin: miter; stroke-linecap: square"/>
   </g>
   <g id="patch_4">
    <path d="M 1555.2 897.12 
L 1555.2 120.96 
" style="fill: none; stroke: #262626; stroke-width: 1.875; stroke-linejoin: miter; stroke-linecap: square"/>
   </g>
   <g id="patch_5">
    <path d="M 216 897.12 
L 1555.2 897.12 
" style="fill: none; stroke: #262626; stroke-width: 1.875; stroke-linejoin: miter; stroke-linecap: square"/>
   </g>
   <g id="patch_6">
    <path d="M 216 120.96 
L 1555.2 120.96 
" style="fill: none; stroke: #262626; stroke-width: 1.875; stroke-linejoin: miter; stroke-linecap: square"/>
   </g>
   <g id="text_13">
    <!-- Df(Z) -->
    <g style="fill: #262626" transform="translate(820.916406 110.561563)scale(0.5 -0.5)">
     <use xlink:href="#DejaVuSans-44"/>
     <use xlink:href="#DejaVuSans-66" x="77.001953"/>
     <use xlink:href="#DejaVuSans-28" x="112.207031"/>
     <use xlink:href="#DejaVuSans-5a" x="151.220703"/>
     <use xlink:href="#DejaVuSans-29" x="219.726562"/>
    </g>
   </g>
   <g id="legend_1">
    <g id="patch_7">
     <path d="M 227.55 182.597813 
L 361.029844 182.597813 
Q 364.329844 182.597813 364.329844 179.297813 
L 364.329844 132.51 
Q 364.329844 129.21 361.029844 129.21 
L 227.55 129.21 
Q 224.25 129.21 224.25 132.51 
L 224.25 179.297813 
Q 224.25 182.597813 227.55 182.597813 
z
" style="fill: #ffffff; opacity: 0.8; stroke: #cccccc; stroke-width: 1.5; stroke-linejoin: miter"/>
    </g>
    <g id="line2d_13">
     <path d="M 230.85 142.572422 
L 247.35 142.572422 
L 263.85 142.572422 
" style="fill: none; stroke: #00c9a7; stroke-width: 2.25; stroke-linecap: round"/>
    </g>
    <g id="text_14">
     <!-- df trace -->
     <g style="fill: #262626" transform="translate(277.05 148.347422)scale(0.165 -0.165)">
      <defs>
       <path id="DejaVuSans-64" d="M 2906 2969 
L 2906 4863 
L 3481 4863 
L 3481 0 
L 2906 0 
L 2906 525 
Q 2725 213 2448 61 
Q 2172 -91 1784 -91 
Q 1150 -91 751 415 
Q 353 922 353 1747 
Q 353 2572 751 3078 
Q 1150 3584 1784 3584 
Q 2172 3584 2448 3432 
Q 2725 3281 2906 2969 
z
M 947 1747 
Q 947 1113 1208 752 
Q 1469 391 1925 391 
Q 2381 391 2643 752 
Q 2906 1113 2906 1747 
Q 2906 2381 2643 2742 
Q 2381 3103 1925 3103 
Q 1469 3103 1208 2742 
Q 947 2381 947 1747 
z
" transform="scale(0.015625)"/>
       <path id="DejaVuSans-74" d="M 1172 4494 
L 1172 3500 
L 2356 3500 
L 2356 3053 
L 1172 3053 
L 1172 1153 
Q 1172 725 1289 603 
Q 1406 481 1766 481 
L 2356 481 
L 2356 0 
L 1766 0 
Q 1100 0 847 248 
Q 594 497 594 1153 
L 594 3053 
L 172 3053 
L 172 3500 
L 594 3500 
L 594 4494 
L 1172 4494 
z
" transform="scale(0.015625)"/>
       <path id="DejaVuSans-72" d="M 2631 2963 
Q 2534 3019 2420 3045 
Q 2306 3072 2169 3072 
Q 1681 3072 1420 2755 
Q 1159 2438 1159 1844 
L 1159 0 
L 581 0 
L 581 3500 
L 1159 3500 
L 1159 2956 
Q 1341 3275 1631 3429 
Q 1922 3584 2338 3584 
Q 2397 3584 2469 3576 
Q 2541 3569 2628 3553 
L 2631 2963 
z
" transform="scale(0.015625)"/>
       <path id="DejaVuSans-61" d="M 2194 1759 
Q 1497 1759 1228 1600 
Q 959 1441 959 1056 
Q 959 750 1161 570 
Q 1363 391 1709 391 
Q 2188 391 2477 730 
Q 2766 1069 2766 1631 
L 2766 1759 
L 2194 1759 
z
M 3341 1997 
L 3341 0 
L 2766 0 
L 2766 531 
Q 2569 213 2275 61 
Q 1981 -91 1556 -91 
Q 1019 -91 701 211 
Q 384 513 384 1019 
Q 384 1609 779 1909 
Q 1175 2209 1959 2209 
L 2766 2209 
L 2766 2266 
Q 2766 2663 2505 2880 
Q 2244 3097 1772 3097 
Q 1472 3097 1187 3025 
Q 903 2953 641 2809 
L 641 3341 
Q 956 3463 1253 3523 
Q 1550 3584 1831 3584 
Q 2591 3584 2966 3190 
Q 3341 2797 3341 1997 
z
" transform="scale(0.015625)"/>
       <path id="DejaVuSans-63" d="M 3122 3366 
L 3122 2828 
Q 2878 2963 2633 3030 
Q 2388 3097 2138 3097 
Q 1578 3097 1268 2742 
Q 959 2388 959 1747 
Q 959 1106 1268 751 
Q 1578 397 2138 397 
Q 2388 397 2633 464 
Q 2878 531 3122 666 
L 3122 134 
Q 2881 22 2623 -34 
Q 2366 -91 2075 -91 
Q 1284 -91 818 406 
Q 353 903 353 1747 
Q 353 2603 823 3093 
Q 1294 3584 2113 3584 
Q 2378 3584 2631 3529 
Q 2884 3475 3122 3366 
z
" transform="scale(0.015625)"/>
       <path id="DejaVuSans-65" d="M 3597 1894 
L 3597 1613 
L 953 1613 
Q 991 1019 1311 708 
Q 1631 397 2203 397 
Q 2534 397 2845 478 
Q 3156 559 3463 722 
L 3463 178 
Q 3153 47 2828 -22 
Q 2503 -91 2169 -91 
Q 1331 -91 842 396 
Q 353 884 353 1716 
Q 353 2575 817 3079 
Q 1281 3584 2069 3584 
Q 2775 3584 3186 3129 
Q 3597 2675 3597 1894 
z
M 3022 2063 
Q 3016 2534 2758 2815 
Q 2500 3097 2075 3097 
Q 1594 3097 1305 2825 
Q 1016 2553 972 2059 
L 3022 2063 
z
" transform="scale(0.015625)"/>
      </defs>
      <use xlink:href="#DejaVuSans-64"/>
      <use xlink:href="#DejaVuSans-66" x="63.476562"/>
      <use xlink:href="#DejaVuSans-20" x="98.681641"/>
      <use xlink:href="#DejaVuSans-74" x="130.46875"/>
      <use xlink:href="#DejaVuSans-72" x="169.677734"/>
      <use xlink:href="#DejaVuSans-61" x="210.791016"/>
      <use xlink:href="#DejaVuSans-63" x="272.070312"/>
      <use xlink:href="#DejaVuSans-65" x="327.050781"/>
     </g>
    </g>
    <g id="line2d_14">
     <path d="M 230.85 166.791328 
L 247.35 166.791328 
L 263.85 166.791328 
" style="fill: none; stroke: #ffc75f; stroke-width: 2.25; stroke-linecap: round"/>
    </g>
    <g id="text_15">
     <!-- df retrace -->
     <g style="fill: #262626" transform="translate(277.05 172.566328)scale(0.165 -0.165)">
      <use xlink:href="#DejaVuSans-64"/>
      <use xlink:href="#DejaVuSans-66" x="63.476562"/>
      <use xlink:href="#DejaVuSans-20" x="98.681641"/>
      <use xlink:href="#DejaVuSans-72" x="130.46875"/>
      <use xlink:href="#DejaVuSans-65" x="169.332031"/>
      <use xlink:href="#DejaVuSans-74" x="230.855469"/>
      <use xlink:href="#DejaVuSans-72" x="270.064453"/>
      <use xlink:href="#DejaVuSans-61" x="311.177734"/>
      <use xlink:href="#DejaVuSans-63" x="372.457031"/>
      <use xlink:href="#DejaVuSans-65" x="427.4375"/>
     </g>
    </g>
   </g>
  </g>
 </g>
 <defs>
  <clipPath id="pa0e1e2f2a7">
   <rect x="216" y="120.96" width="1339.2" height="776.16"/>
  </clipPath>
 </defs>
</svg>
