<?xml version="1.0" encoding="utf-8" standalone="no"?>
<!DOCTYPE svg PUBLIC "-//W3C//DTD SVG 1.1//EN"
  "http://www.w3.org/Graphics/SVG/1.1/DTD/svg11.dtd">
<svg xmlns:xlink="http://www.w3.org/1999/xlink" width="1728pt" height="1008pt" viewBox="0 0 1728 1008" xmlns="http://www.w3.org/2000/svg" version="1.1">
 <metadata>
  <rdf:RDF xmlns:dc="http://purl.org/dc/elements/1.1/" xmlns:cc="http://creativecommons.org/ns#" xmlns:rdf="http://www.w3.org/1999/02/22-rdf-syntax-ns#">
   <cc:Work>
    <dc:type rdf:resource="http://purl.org/dc/dcmitype/StillImage"/>
    <dc:date>2022-10-28T16:55:49.694602</dc:date>
    <dc:format>image/svg+xml</dc:format>
    <dc:creator>
     <cc:Agent>
      <dc:title>Matplotlib v3.5.2, https://matplotlib.org/</dc:title>
     </cc:Agent>
    </dc:creator>
   </cc:Work>
  </rdf:RDF>
 </metadata>
 <defs>
  <style type="text/css">*{stroke-linejoin: round; stroke-linecap: butt}</style>
 </defs>
 <g id="figure_1">
  <g id="patch_1">
   <path d="M 0 1008 
L 1728 1008 
L 1728 0 
L 0 0 
z
" style="fill: #ffffff"/>
  </g>
  <g id="axes_1">
   <g id="patch_2">
    <path d="M 216 897.12 
L 1555.2 897.12 
L 1555.2 120.96 
L 216 120.96 
L 216 897.12 
z
" style="fill: none"/>
   </g>
   <g id="matplotlib.axis_1">
    <g id="xtick_1">
     <g id="line2d_1">
      <defs>
       <path id="mcc14344558" d="M 0 0 
L 0 9 
" style="stroke: #262626; stroke-width: 1.875"/>
      </defs>
      <g>
       <use xlink:href="#mcc14344558" x="435.835349" y="897.12" style="fill: #262626; stroke: #262626; stroke-width: 1.875"/>
      </g>
     </g>
     <g id="text_1">
      <!-- 0.0 -->
      <g style="fill: #262626" transform="translate(397.667849 946.0925)scale(0.48 -0.48)">
       <defs>
        <path id="DejaVuSans-30" d="M 2034 4250 
Q 1547 4250 1301 3770 
Q 1056 3291 1056 2328 
Q 1056 1369 1301 889 
Q 1547 409 2034 409 
Q 2525 409 2770 889 
Q 3016 1369 3016 2328 
Q 3016 3291 2770 3770 
Q 2525 4250 2034 4250 
z
M 2034 4750 
Q 2819 4750 3233 4129 
Q 3647 3509 3647 2328 
Q 3647 1150 3233 529 
Q 2819 -91 2034 -91 
Q 1250 -91 836 529 
Q 422 1150 422 2328 
Q 422 3509 836 4129 
Q 1250 4750 2034 4750 
z
" transform="scale(0.015625)"/>
        <path id="DejaVuSans-2e" d="M 684 794 
L 1344 794 
L 1344 0 
L 684 0 
L 684 794 
z
" transform="scale(0.015625)"/>
       </defs>
       <use xlink:href="#DejaVuSans-30"/>
       <use xlink:href="#DejaVuSans-2e" x="63.623047"/>
       <use xlink:href="#DejaVuSans-30" x="95.410156"/>
      </g>
     </g>
    </g>
    <g id="xtick_2">
     <g id="line2d_2">
      <g>
       <use xlink:href="#mcc14344558" x="700.773053" y="897.12" style="fill: #262626; stroke: #262626; stroke-width: 1.875"/>
      </g>
     </g>
     <g id="text_2">
      <!-- 0.5 -->
      <g style="fill: #262626" transform="translate(662.605553 946.0925)scale(0.48 -0.48)">
       <defs>
        <path id="DejaVuSans-35" d="M 691 4666 
L 3169 4666 
L 3169 4134 
L 1269 4134 
L 1269 2991 
Q 1406 3038 1543 3061 
Q 1681 3084 1819 3084 
Q 2600 3084 3056 2656 
Q 3513 2228 3513 1497 
Q 3513 744 3044 326 
Q 2575 -91 1722 -91 
Q 1428 -91 1123 -41 
Q 819 9 494 109 
L 494 744 
Q 775 591 1075 516 
Q 1375 441 1709 441 
Q 2250 441 2565 725 
Q 2881 1009 2881 1497 
Q 2881 1984 2565 2268 
Q 2250 2553 1709 2553 
Q 1456 2553 1204 2497 
Q 953 2441 691 2322 
L 691 4666 
z
" transform="scale(0.015625)"/>
       </defs>
       <use xlink:href="#DejaVuSans-30"/>
       <use xlink:href="#DejaVuSans-2e" x="63.623047"/>
       <use xlink:href="#DejaVuSans-35" x="95.410156"/>
      </g>
     </g>
    </g>
    <g id="xtick_3">
     <g id="line2d_3">
      <g>
       <use xlink:href="#mcc14344558" x="965.710756" y="897.12" style="fill: #262626; stroke: #262626; stroke-width: 1.875"/>
      </g>
     </g>
     <g id="text_3">
      <!-- 1.0 -->
      <g style="fill: #262626" transform="translate(927.543256 946.0925)scale(0.48 -0.48)">
       <defs>
        <path id="DejaVuSans-31" d="M 794 531 
L 1825 531 
L 1825 4091 
L 703 3866 
L 703 4441 
L 1819 4666 
L 2450 4666 
L 2450 531 
L 3481 531 
L 3481 0 
L 794 0 
L 794 531 
z
" transform="scale(0.015625)"/>
       </defs>
       <use xlink:href="#DejaVuSans-31"/>
       <use xlink:href="#DejaVuSans-2e" x="63.623047"/>
       <use xlink:href="#DejaVuSans-30" x="95.410156"/>
      </g>
     </g>
    </g>
    <g id="xtick_4">
     <g id="line2d_4">
      <g>
       <use xlink:href="#mcc14344558" x="1230.648459" y="897.12" style="fill: #262626; stroke: #262626; stroke-width: 1.875"/>
      </g>
     </g>
     <g id="text_4">
      <!-- 1.5 -->
      <g style="fill: #262626" transform="translate(1192.480959 946.0925)scale(0.48 -0.48)">
       <use xlink:href="#DejaVuSans-31"/>
       <use xlink:href="#DejaVuSans-2e" x="63.623047"/>
       <use xlink:href="#DejaVuSans-35" x="95.410156"/>
      </g>
     </g>
    </g>
    <g id="xtick_5">
     <g id="line2d_5">
      <g>
       <use xlink:href="#mcc14344558" x="1495.586163" y="897.12" style="fill: #262626; stroke: #262626; stroke-width: 1.875"/>
      </g>
     </g>
     <g id="text_5">
      <!-- 2.0 -->
      <g style="fill: #262626" transform="translate(1457.418663 946.0925)scale(0.48 -0.48)">
       <defs>
        <path id="DejaVuSans-32" d="M 1228 531 
L 3431 531 
L 3431 0 
L 469 0 
L 469 531 
Q 828 903 1448 1529 
Q 2069 2156 2228 2338 
Q 2531 2678 2651 2914 
Q 2772 3150 2772 3378 
Q 2772 3750 2511 3984 
Q 2250 4219 1831 4219 
Q 1534 4219 1204 4116 
Q 875 4013 500 3803 
L 500 4441 
Q 881 4594 1212 4672 
Q 1544 4750 1819 4750 
Q 2544 4750 2975 4387 
Q 3406 4025 3406 3419 
Q 3406 3131 3298 2873 
Q 3191 2616 2906 2266 
Q 2828 2175 2409 1742 
Q 1991 1309 1228 531 
z
" transform="scale(0.015625)"/>
       </defs>
       <use xlink:href="#DejaVuSans-32"/>
       <use xlink:href="#DejaVuSans-2e" x="63.623047"/>
       <use xlink:href="#DejaVuSans-30" x="95.410156"/>
      </g>
     </g>
    </g>
    <g id="text_6">
     <!-- Z [nm] -->
     <g style="fill: #262626" transform="translate(804.2175 996.5475)scale(0.48 -0.48)">
      <defs>
       <path id="DejaVuSans-5a" d="M 359 4666 
L 4025 4666 
L 4025 4184 
L 1075 531 
L 4097 531 
L 4097 0 
L 288 0 
L 288 481 
L 3238 4134 
L 359 4134 
L 359 4666 
z
" transform="scale(0.015625)"/>
       <path id="DejaVuSans-20" transform="scale(0.015625)"/>
       <path id="DejaVuSans-5b" d="M 550 4863 
L 1875 4863 
L 1875 4416 
L 1125 4416 
L 1125 -397 
L 1875 -397 
L 1875 -844 
L 550 -844 
L 550 4863 
z
" transform="scale(0.015625)"/>
       <path id="DejaVuSans-6e" d="M 3513 2113 
L 3513 0 
L 2938 0 
L 2938 2094 
Q 2938 2591 2744 2837 
Q 2550 3084 2163 3084 
Q 1697 3084 1428 2787 
Q 1159 2491 1159 1978 
L 1159 0 
L 581 0 
L 581 3500 
L 1159 3500 
L 1159 2956 
Q 1366 3272 1645 3428 
Q 1925 3584 2291 3584 
Q 2894 3584 3203 3211 
Q 3513 2838 3513 2113 
z
" transform="scale(0.015625)"/>
       <path id="DejaVuSans-6d" d="M 3328 2828 
Q 3544 3216 3844 3400 
Q 4144 3584 4550 3584 
Q 5097 3584 5394 3201 
Q 5691 2819 5691 2113 
L 5691 0 
L 5113 0 
L 5113 2094 
Q 5113 2597 4934 2840 
Q 4756 3084 4391 3084 
Q 3944 3084 3684 2787 
Q 3425 2491 3425 1978 
L 3425 0 
L 2847 0 
L 2847 2094 
Q 2847 2600 2669 2842 
Q 2491 3084 2119 3084 
Q 1678 3084 1418 2786 
Q 1159 2488 1159 1978 
L 1159 0 
L 581 0 
L 581 3500 
L 1159 3500 
L 1159 2956 
Q 1356 3278 1631 3431 
Q 1906 3584 2284 3584 
Q 2666 3584 2933 3390 
Q 3200 3197 3328 2828 
z
" transform="scale(0.015625)"/>
       <path id="DejaVuSans-5d" d="M 1947 4863 
L 1947 -844 
L 622 -844 
L 622 -397 
L 1369 -397 
L 1369 4416 
L 622 4416 
L 622 4863 
L 1947 4863 
z
" transform="scale(0.015625)"/>
      </defs>
      <use xlink:href="#DejaVuSans-5a"/>
      <use xlink:href="#DejaVuSans-20" x="68.505859"/>
      <use xlink:href="#DejaVuSans-5b" x="100.292969"/>
      <use xlink:href="#DejaVuSans-6e" x="139.306641"/>
      <use xlink:href="#DejaVuSans-6d" x="202.685547"/>
      <use xlink:href="#DejaVuSans-5d" x="300.097656"/>
     </g>
    </g>
   </g>
   <g id="matplotlib.axis_2">
    <g id="ytick_1">
     <g id="line2d_6">
      <defs>
       <path id="m6d13caa40f" d="M 0 0 
L -9 0 
" style="stroke: #262626; stroke-width: 1.875"/>
      </defs>
      <g>
       <use xlink:href="#m6d13caa40f" x="216" y="826.653229" style="fill: #262626; stroke: #262626; stroke-width: 1.875"/>
      </g>
     </g>
     <g id="text_7">
      <!-- −12 -->
      <g style="fill: #262626" transform="translate(102.1975 844.889479)scale(0.48 -0.48)">
       <defs>
        <path id="DejaVuSans-2212" d="M 678 2272 
L 4684 2272 
L 4684 1741 
L 678 1741 
L 678 2272 
z
" transform="scale(0.015625)"/>
       </defs>
       <use xlink:href="#DejaVuSans-2212"/>
       <use xlink:href="#DejaVuSans-31" x="83.789062"/>
       <use xlink:href="#DejaVuSans-32" x="147.412109"/>
      </g>
     </g>
    </g>
    <g id="ytick_2">
     <g id="line2d_7">
      <g>
       <use xlink:href="#m6d13caa40f" x="216" y="715.213781" style="fill: #262626; stroke: #262626; stroke-width: 1.875"/>
      </g>
     </g>
     <g id="text_8">
      <!-- −10 -->
      <g style="fill: #262626" transform="translate(102.1975 733.450031)scale(0.48 -0.48)">
       <use xlink:href="#DejaVuSans-2212"/>
       <use xlink:href="#DejaVuSans-31" x="83.789062"/>
       <use xlink:href="#DejaVuSans-30" x="147.412109"/>
      </g>
     </g>
    </g>
    <g id="ytick_3">
     <g id="line2d_8">
      <g>
       <use xlink:href="#m6d13caa40f" x="216" y="603.774332" style="fill: #262626; stroke: #262626; stroke-width: 1.875"/>
      </g>
     </g>
     <g id="text_9">
      <!-- −8 -->
      <g style="fill: #262626" transform="translate(132.7375 622.010582)scale(0.48 -0.48)">
       <defs>
        <path id="DejaVuSans-38" d="M 2034 2216 
Q 1584 2216 1326 1975 
Q 1069 1734 1069 1313 
Q 1069 891 1326 650 
Q 1584 409 2034 409 
Q 2484 409 2743 651 
Q 3003 894 3003 1313 
Q 3003 1734 2745 1975 
Q 2488 2216 2034 2216 
z
M 1403 2484 
Q 997 2584 770 2862 
Q 544 3141 544 3541 
Q 544 4100 942 4425 
Q 1341 4750 2034 4750 
Q 2731 4750 3128 4425 
Q 3525 4100 3525 3541 
Q 3525 3141 3298 2862 
Q 3072 2584 2669 2484 
Q 3125 2378 3379 2068 
Q 3634 1759 3634 1313 
Q 3634 634 3220 271 
Q 2806 -91 2034 -91 
Q 1263 -91 848 271 
Q 434 634 434 1313 
Q 434 1759 690 2068 
Q 947 2378 1403 2484 
z
M 1172 3481 
Q 1172 3119 1398 2916 
Q 1625 2713 2034 2713 
Q 2441 2713 2670 2916 
Q 2900 3119 2900 3481 
Q 2900 3844 2670 4047 
Q 2441 4250 2034 4250 
Q 1625 4250 1398 4047 
Q 1172 3844 1172 3481 
z
" transform="scale(0.015625)"/>
       </defs>
       <use xlink:href="#DejaVuSans-2212"/>
       <use xlink:href="#DejaVuSans-38" x="83.789062"/>
      </g>
     </g>
    </g>
    <g id="ytick_4">
     <g id="line2d_9">
      <g>
       <use xlink:href="#m6d13caa40f" x="216" y="492.334883" style="fill: #262626; stroke: #262626; stroke-width: 1.875"/>
      </g>
     </g>
     <g id="text_10">
      <!-- −6 -->
      <g style="fill: #262626" transform="translate(132.7375 510.571133)scale(0.48 -0.48)">
       <defs>
        <path id="DejaVuSans-36" d="M 2113 2584 
Q 1688 2584 1439 2293 
Q 1191 2003 1191 1497 
Q 1191 994 1439 701 
Q 1688 409 2113 409 
Q 2538 409 2786 701 
Q 3034 994 3034 1497 
Q 3034 2003 2786 2293 
Q 2538 2584 2113 2584 
z
M 3366 4563 
L 3366 3988 
Q 3128 4100 2886 4159 
Q 2644 4219 2406 4219 
Q 1781 4219 1451 3797 
Q 1122 3375 1075 2522 
Q 1259 2794 1537 2939 
Q 1816 3084 2150 3084 
Q 2853 3084 3261 2657 
Q 3669 2231 3669 1497 
Q 3669 778 3244 343 
Q 2819 -91 2113 -91 
Q 1303 -91 875 529 
Q 447 1150 447 2328 
Q 447 3434 972 4092 
Q 1497 4750 2381 4750 
Q 2619 4750 2861 4703 
Q 3103 4656 3366 4563 
z
" transform="scale(0.015625)"/>
       </defs>
       <use xlink:href="#DejaVuSans-2212"/>
       <use xlink:href="#DejaVuSans-36" x="83.789062"/>
      </g>
     </g>
    </g>
    <g id="ytick_5">
     <g id="line2d_10">
      <g>
       <use xlink:href="#m6d13caa40f" x="216" y="380.895434" style="fill: #262626; stroke: #262626; stroke-width: 1.875"/>
      </g>
     </g>
     <g id="text_11">
      <!-- −4 -->
      <g style="fill: #262626" transform="translate(132.7375 399.131684)scale(0.48 -0.48)">
       <defs>
        <path id="DejaVuSans-34" d="M 2419 4116 
L 825 1625 
L 2419 1625 
L 2419 4116 
z
M 2253 4666 
L 3047 4666 
L 3047 1625 
L 3713 1625 
L 3713 1100 
L 3047 1100 
L 3047 0 
L 2419 0 
L 2419 1100 
L 313 1100 
L 313 1709 
L 2253 4666 
z
" transform="scale(0.015625)"/>
       </defs>
       <use xlink:href="#DejaVuSans-2212"/>
       <use xlink:href="#DejaVuSans-34" x="83.789062"/>
      </g>
     </g>
    </g>
    <g id="ytick_6">
     <g id="line2d_11">
      <g>
       <use xlink:href="#m6d13caa40f" x="216" y="269.455986" style="fill: #262626; stroke: #262626; stroke-width: 1.875"/>
      </g>
     </g>
     <g id="text_12">
      <!-- −2 -->
      <g style="fill: #262626" transform="translate(132.7375 287.692236)scale(0.48 -0.48)">
       <use xlink:href="#DejaVuSans-2212"/>
       <use xlink:href="#DejaVuSans-32" x="83.789062"/>
      </g>
     </g>
    </g>
    <g id="ytick_7">
     <g id="line2d_12">
      <g>
       <use xlink:href="#m6d13caa40f" x="216" y="158.016537" style="fill: #262626; stroke: #262626; stroke-width: 1.875"/>
      </g>
     </g>
     <g id="text_13">
      <!-- 0 -->
      <g style="fill: #262626" transform="translate(172.96 176.252787)scale(0.48 -0.48)">
       <use xlink:href="#DejaVuSans-30"/>
      </g>
     </g>
    </g>
    <g id="text_14">
     <!-- Df(Z) [Hz] -->
     <g style="fill: #262626" transform="translate(88.215 628.13625)rotate(-90)scale(0.48 -0.48)">
      <defs>
       <path id="DejaVuSans-44" d="M 1259 4147 
L 1259 519 
L 2022 519 
Q 2988 519 3436 956 
Q 3884 1394 3884 2338 
Q 3884 3275 3436 3711 
Q 2988 4147 2022 4147 
L 1259 4147 
z
M 628 4666 
L 1925 4666 
Q 3281 4666 3915 4102 
Q 4550 3538 4550 2338 
Q 4550 1131 3912 565 
Q 3275 0 1925 0 
L 628 0 
L 628 4666 
z
" transform="scale(0.015625)"/>
       <path id="DejaVuSans-66" d="M 2375 4863 
L 2375 4384 
L 1825 4384 
Q 1516 4384 1395 4259 
Q 1275 4134 1275 3809 
L 1275 3500 
L 2222 3500 
L 2222 3053 
L 1275 3053 
L 1275 0 
L 697 0 
L 697 3053 
L 147 3053 
L 147 3500 
L 697 3500 
L 697 3744 
Q 697 4328 969 4595 
Q 1241 4863 1831 4863 
L 2375 4863 
z
" transform="scale(0.015625)"/>
       <path id="DejaVuSans-28" d="M 1984 4856 
Q 1566 4138 1362 3434 
Q 1159 2731 1159 2009 
Q 1159 1288 1364 580 
Q 1569 -128 1984 -844 
L 1484 -844 
Q 1016 -109 783 600 
Q 550 1309 550 2009 
Q 550 2706 781 3412 
Q 1013 4119 1484 4856 
L 1984 4856 
z
" transform="scale(0.015625)"/>
       <path id="DejaVuSans-29" d="M 513 4856 
L 1013 4856 
Q 1481 4119 1714 3412 
Q 1947 2706 1947 2009 
Q 1947 1309 1714 600 
Q 1481 -109 1013 -844 
L 513 -844 
Q 928 -128 1133 580 
Q 1338 1288 1338 2009 
Q 1338 2731 1133 3434 
Q 928 4138 513 4856 
z
" transform="scale(0.015625)"/>
       <path id="DejaVuSans-48" d="M 628 4666 
L 1259 4666 
L 1259 2753 
L 3553 2753 
L 3553 4666 
L 4184 4666 
L 4184 0 
L 3553 0 
L 3553 2222 
L 1259 2222 
L 1259 0 
L 628 0 
L 628 4666 
z
" transform="scale(0.015625)"/>
       <path id="DejaVuSans-7a" d="M 353 3500 
L 3084 3500 
L 3084 2975 
L 922 459 
L 3084 459 
L 3084 0 
L 275 0 
L 275 525 
L 2438 3041 
L 353 3041 
L 353 3500 
z
" transform="scale(0.015625)"/>
      </defs>
      <use xlink:href="#DejaVuSans-44"/>
      <use xlink:href="#DejaVuSans-66" x="77.001953"/>
      <use xlink:href="#DejaVuSans-28" x="112.207031"/>
      <use xlink:href="#DejaVuSans-5a" x="151.220703"/>
      <use xlink:href="#DejaVuSans-29" x="219.726562"/>
      <use xlink:href="#DejaVuSans-20" x="258.740234"/>
      <use xlink:href="#DejaVuSans-5b" x="290.527344"/>
      <use xlink:href="#DejaVuSans-48" x="329.541016"/>
      <use xlink:href="#DejaVuSans-7a" x="404.736328"/>
      <use xlink:href="#DejaVuSans-5d" x="457.226562"/>
     </g>
    </g>
   </g>
   <g id="line2d_13">
    <path d="M 276.872727 558.515556 
L 279.255221 501.264127 
L 281.637716 468.201663 
L 286.402704 425.39976 
L 288.785198 416.00809 
L 291.167693 404.317913 
L 295.932681 384.60814 
L 298.315175 380.589474 
L 300.697669 369.508051 
L 303.080164 363.805016 
L 305.462658 362.973284 
L 307.845152 350.303145 
L 310.227646 346.627497 
L 312.610141 344.939644 
L 314.992635 340.636871 
L 317.375129 336.754398 
L 319.757623 335.99108 
L 322.140117 329.021442 
L 326.905106 325.99414 
L 329.2876 321.208037 
L 331.670094 315.625993 
L 334.052589 313.782309 
L 338.817577 311.41127 
L 341.200071 309.334474 
L 343.582565 303.966538 
L 345.96506 304.158477 
L 348.347554 298.003785 
L 350.730048 296.27349 
L 353.112542 292.406854 
L 355.495036 295.485784 
L 357.877531 293.537262 
L 360.260025 289.542034 
L 362.642519 287.409176 
L 365.025013 284.861085 
L 367.407508 284.674215 
L 369.790002 282.779854 
L 372.172496 282.808994 
L 374.55499 278.531559 
L 376.937484 275.904919 
L 379.319979 274.244622 
L 381.702473 273.427776 
L 384.084967 269.72869 
L 386.467461 270.620601 
L 388.849956 268.839313 
L 391.23245 269.889905 
L 393.614944 267.230959 
L 395.997438 262.72738 
L 398.379932 265.303976 
L 400.762427 261.098756 
L 403.144921 263.416267 
L 405.527415 256.357628 
L 407.909909 258.501889 
L 410.292403 253.346162 
L 412.674898 257.111128 
L 415.057392 254.989673 
L 417.439886 251.516098 
L 419.82238 254.45535 
L 422.204875 252.771931 
L 424.587369 251.548405 
L 426.969863 249.301841 
L 429.352357 248.053609 
L 431.734851 248.35862 
L 434.117346 247.147445 
L 436.49984 245.094086 
L 438.882334 244.061864 
L 441.264828 244.081818 
L 443.647323 241.197678 
L 446.029817 242.137415 
L 448.412311 241.201478 
L 450.794805 238.993555 
L 453.177299 238.282814 
L 455.559794 239.279879 
L 457.942288 237.6275 
L 460.324782 237.387419 
L 462.707276 235.387271 
L 465.089771 231.88044 
L 467.472265 235.545953 
L 469.854759 235.217187 
L 472.237253 233.135956 
L 474.619747 232.893024 
L 477.002242 231.287838 
L 479.384736 231.331864 
L 481.76723 230.19132 
L 484.149724 228.821147 
L 486.532218 228.611789 
L 488.914713 225.331736 
L 491.297207 228.364423 
L 493.679701 224.782843 
L 496.062195 227.294827 
L 498.44469 224.728049 
L 500.827184 225.155634 
L 503.209678 222.336106 
L 505.592172 220.317271 
L 507.974666 222.549899 
L 510.357161 223.660987 
L 512.739655 220.690062 
L 515.122149 220.642236 
L 517.504643 217.583577 
L 519.887138 220.298901 
L 522.269632 216.972289 
L 524.652126 220.483554 
L 527.03462 218.447933 
L 529.417114 214.799523 
L 534.182103 218.427662 
L 536.564597 215.094715 
L 538.947091 214.878705 
L 541.329585 214.925581 
L 543.71208 215.777268 
L 546.094574 214.561025 
L 550.859562 212.831365 
L 553.242057 210.927186 
L 555.624551 214.636724 
L 558.007045 208.977081 
L 560.389539 211.653447 
L 562.772033 211.623674 
L 565.154528 210.459376 
L 567.537022 211.923934 
L 569.919516 210.050794 
L 572.30201 207.384564 
L 574.684505 208.587503 
L 577.066999 207.923004 
L 579.449493 208.505153 
L 581.831987 206.068868 
L 584.214481 205.180442 
L 586.596976 208.510855 
L 588.97947 204.61793 
L 591.361964 206.618078 
L 593.744458 206.324786 
L 596.126952 204.117813 
L 598.509447 204.541281 
L 600.891941 203.226853 
L 603.274435 207.338004 
L 605.656929 202.434712 
L 608.039424 205.832588 
L 610.421918 201.782882 
L 612.804412 203.158756 
L 615.186906 201.528548 
L 617.5694 201.93808 
L 619.951895 203.340875 
L 622.334389 201.496242 
L 624.716883 201.206434 
L 627.099377 202.886052 
L 629.481872 200.898889 
L 631.864366 201.307787 
L 634.24686 197.484543 
L 636.629354 201.23684 
L 639.011848 198.96177 
L 641.394343 196.871988 
L 643.776837 198.955753 
L 646.159331 197.387307 
L 648.541825 197.895658 
L 650.92432 197.979908 
L 653.306814 196.673398 
L 655.689308 197.05189 
L 658.071802 197.921947 
L 660.454296 194.80786 
L 662.836791 198.016016 
L 665.219285 197.328712 
L 667.601779 196.491279 
L 669.984273 194.985229 
L 672.366767 197.663495 
L 674.749262 194.42145 
L 677.131756 193.631209 
L 679.51425 196.077313 
L 681.896744 194.368239 
L 684.279239 191.899648 
L 686.661733 194.900029 
L 689.044227 193.018021 
L 691.426721 190.257721 
L 693.809215 192.751968 
L 696.19171 194.191188 
L 698.574204 193.633427 
L 700.956698 191.193658 
L 703.339192 192.118192 
L 705.721687 192.068465 
L 708.104181 191.08692 
L 710.486675 192.083351 
L 712.869169 190.811998 
L 715.251663 190.773674 
L 717.634158 189.611909 
L 720.016652 191.676037 
L 722.399146 189.827919 
L 724.78164 185.281897 
L 727.164134 190.279576 
L 729.546629 187.850259 
L 731.929123 188.062151 
L 734.311617 189.775025 
L 736.694111 187.952562 
L 739.076606 188.878047 
L 741.4591 189.37848 
L 743.841594 187.498689 
L 746.224088 185.86373 
L 748.606582 187.979484 
L 750.989077 189.379113 
L 753.371571 187.893334 
L 755.754065 186.915589 
L 758.136559 187.495838 
L 760.519054 187.43946 
L 762.901548 186.932376 
L 765.284042 185.449764 
L 767.666536 184.905623 
L 770.04903 184.552469 
L 772.431525 186.809802 
L 774.814019 186.927942 
L 777.196513 182.276133 
L 779.579007 186.032864 
L 781.961502 187.176258 
L 784.343996 185.419992 
L 786.72649 185.649304 
L 789.108984 181.646474 
L 791.491478 186.983686 
L 793.873973 183.607981 
L 796.256467 184.211034 
L 798.638961 182.694532 
L 801.021455 180.164812 
L 803.403949 186.260276 
L 805.786444 186.049334 
L 808.168938 180.318426 
L 810.551432 183.162976 
L 812.933926 181.833978 
L 815.316421 184.023847 
L 817.698915 181.837145 
L 820.081409 180.249062 
L 822.463903 182.437348 
L 824.846397 181.775066 
L 827.228892 180.892657 
L 829.611386 181.915061 
L 831.99388 179.744829 
L 834.376374 183.244375 
L 839.141363 181.403542 
L 843.906351 180.924013 
L 846.288845 180.851166 
L 848.67134 179.982376 
L 851.053834 179.981742 
L 853.436328 180.196168 
L 855.818822 180.166079 
L 858.201316 180.406794 
L 860.583811 179.705554 
L 862.966305 178.329364 
L 865.348799 182.278666 
L 867.731293 177.819112 
L 870.113788 179.109786 
L 872.496282 177.69432 
L 874.878776 178.708172 
L 877.26127 178.088332 
L 879.643764 179.754647 
L 882.026259 178.84975 
L 884.408753 178.661613 
L 886.791247 177.980327 
L 889.173741 178.468725 
L 891.556236 178.356919 
L 893.93873 175.863623 
L 896.321224 179.043589 
L 898.703718 179.945635 
L 901.086212 178.604918 
L 903.468707 178.44497 
L 905.851201 173.671536 
L 908.233695 176.620923 
L 910.616189 176.97281 
L 912.998684 178.273619 
L 915.381178 175.805661 
L 917.763672 174.797511 
L 920.146166 175.889278 
L 922.52866 177.110588 
L 924.911155 177.675317 
L 927.293649 174.348071 
L 929.676143 175.809779 
L 932.058637 174.766154 
L 934.441131 176.083116 
L 936.823626 175.338485 
L 939.20612 174.021206 
L 943.971108 175.754034 
L 946.353603 176.290258 
L 948.736097 173.941073 
L 951.118591 177.089367 
L 953.501085 173.706377 
L 955.883579 176.262069 
L 958.266074 173.815965 
L 960.648568 174.804795 
L 963.031062 173.979398 
L 965.413556 175.44744 
L 967.796051 174.490599 
L 970.178545 175.460743 
L 972.561039 173.107124 
L 974.943533 174.102922 
L 977.326027 173.397248 
L 979.708522 173.531859 
L 982.091016 174.5758 
L 984.47351 171.751204 
L 986.856004 176.545225 
L 989.238498 173.67407 
L 991.620993 173.044412 
L 994.003487 173.217663 
L 996.385981 172.141415 
L 998.768475 174.272056 
L 1001.15097 173.451409 
L 1003.533464 174.671769 
L 1005.915958 172.674788 
L 1008.298452 172.501854 
L 1010.680946 175.237448 
L 1013.063441 173.401683 
L 1015.445935 171.348957 
L 1017.828429 170.57392 
L 1020.210923 171.834821 
L 1022.593418 170.759523 
L 1024.975912 171.885814 
L 1027.358406 171.053449 
L 1029.7409 170.951778 
L 1032.123394 171.873145 
L 1034.505889 169.06787 
L 1036.888383 170.425374 
L 1039.270877 171.980516 
L 1041.653371 170.262258 
L 1044.035866 170.311984 
L 1046.41836 170.231852 
L 1048.800854 172.608908 
L 1051.183348 168.999456 
L 1053.565842 172.105625 
L 1055.948337 171.976082 
L 1058.330831 170.832688 
L 1060.713325 170.786445 
L 1063.095819 170.267009 
L 1065.478313 169.141035 
L 1067.860808 169.161939 
L 1070.243302 169.900236 
L 1072.625796 171.238102 
L 1075.00829 170.6398 
L 1077.390785 169.363696 
L 1079.773279 170.805449 
L 1082.155773 167.235272 
L 1084.538267 169.11633 
L 1086.920761 169.962631 
L 1089.303256 169.243338 
L 1091.68575 168.717567 
L 1094.068244 169.249039 
L 1096.450738 164.723922 
L 1098.833233 171.393616 
L 1101.215727 167.077541 
L 1103.598221 170.938159 
L 1105.980715 166.766195 
L 1108.363209 169.603143 
L 1110.745704 169.460615 
L 1113.128198 168.001124 
L 1115.510692 170.058917 
L 1117.893186 168.904121 
L 1120.27568 166.715202 
L 1122.658175 170.913137 
L 1125.040669 168.079673 
L 1127.423163 167.514944 
L 1129.805657 169.399486 
L 1132.188152 165.594295 
L 1134.570646 167.616298 
L 1136.95314 168.608295 
L 1139.335634 166.910941 
L 1141.718128 168.911406 
L 1144.100623 165.580993 
L 1146.483117 167.349295 
L 1148.865611 167.635618 
L 1151.248105 167.028131 
L 1153.6306 166.233456 
L 1156.013094 168.241206 
L 1158.395588 168.110713 
L 1160.778082 166.809904 
L 1163.160576 165.220238 
L 1165.543071 167.282148 
L 1167.925565 166.475437 
L 1170.308059 165.412176 
L 1172.690553 166.048169 
L 1175.073048 164.282718 
L 1177.455542 167.71005 
L 1179.838036 167.329974 
L 1182.22053 166.167576 
L 1184.603024 165.387154 
L 1186.985519 168.327989 
L 1189.368013 166.306937 
L 1191.750507 166.065589 
L 1194.133001 164.862333 
L 1196.515495 166.563805 
L 1201.280484 164.526599 
L 1203.662978 164.893689 
L 1206.045472 166.048169 
L 1208.427967 163.568809 
L 1210.810461 165.01468 
L 1213.192955 167.17446 
L 1215.575449 166.363949 
L 1217.957943 167.078174 
L 1220.340438 167.178577 
L 1222.722932 164.533568 
L 1225.105426 165.384304 
L 1227.48792 164.118335 
L 1229.870415 167.299251 
L 1232.252909 163.765815 
L 1234.635403 164.449001 
L 1237.017897 167.412641 
L 1239.400391 163.963771 
L 1241.782886 165.405841 
L 1244.16538 162.104884 
L 1246.547874 166.029165 
L 1251.312862 163.339496 
L 1253.695357 165.892655 
L 1256.077851 164.068925 
L 1258.460345 165.410275 
L 1260.842839 164.315974 
L 1263.225334 165.092912 
L 1265.607828 164.147791 
L 1267.990322 163.827894 
L 1270.372816 163.1048 
L 1272.75531 165.49896 
L 1275.137805 163.002813 
L 1277.520299 164.777449 
L 1279.902793 164.465471 
L 1282.285287 162.981275 
L 1284.667782 165.914192 
L 1287.050276 164.972555 
L 1289.43277 165.35168 
L 1291.815264 162.288904 
L 1294.197758 167.624216 
L 1296.580253 160.738195 
L 1298.962747 165.452084 
L 1301.345241 163.987525 
L 1303.727735 162.676581 
L 1306.110229 162.159678 
L 1308.492724 160.736928 
L 1310.875218 163.631838 
L 1313.257712 163.739843 
L 1315.640206 163.360717 
L 1318.022701 160.673899 
L 1320.405195 164.680213 
L 1322.787689 162.860284 
L 1325.170183 163.073127 
L 1327.552677 163.604283 
L 1332.317666 162.695268 
L 1334.70016 166.061155 
L 1337.082654 160.748647 
L 1339.465149 164.254529 
L 1344.230137 161.858785 
L 1346.612631 162.040905 
L 1348.995125 164.428097 
L 1351.37762 163.870652 
L 1353.760114 159.593534 
L 1356.142608 162.549256 
L 1358.525102 163.829161 
L 1363.290091 162.73581 
L 1365.672585 161.327946 
L 1368.055079 161.381157 
L 1370.437573 162.868836 
L 1372.820068 160.296991 
L 1375.202562 163.819975 
L 1377.585056 161.084064 
L 1379.96755 160.810726 
L 1382.350044 162.204337 
L 1384.732539 162.441568 
L 1387.115033 159.270153 
L 1389.497527 159.846601 
L 1391.880021 162.575544 
L 1394.262516 163.075977 
L 1396.64501 161.73431 
L 1399.027504 162.560975 
L 1401.409998 161.165147 
L 1403.792492 159.498832 
L 1406.174987 160.938369 
L 1408.557481 162.925847 
L 1410.939975 160.471509 
L 1413.322469 163.033852 
L 1415.704964 161.743495 
L 1418.087458 163.469989 
L 1420.469952 160.427167 
L 1422.852446 161.110353 
L 1425.23494 159.01962 
L 1427.617435 159.576114 
L 1429.999929 159.651812 
L 1432.382423 161.371972 
L 1434.764917 161.593366 
L 1437.147411 160.208307 
L 1439.529906 160.163964 
L 1441.9124 157.44389 
L 1444.294894 161.403328 
L 1446.677388 161.287405 
L 1449.059883 161.54839 
L 1451.442377 160.164281 
L 1453.824871 160.309343 
L 1456.207365 160.033788 
L 1458.589859 161.159129 
L 1465.737342 158.53629 
L 1468.119836 159.75475 
L 1470.502331 159.416482 
L 1472.884825 158.433353 
L 1475.267319 158.415933 
L 1477.649813 160.152245 
L 1480.032307 159.233096 
L 1482.414802 159.045592 
L 1484.797296 161.324145 
L 1487.17979 158.944238 
L 1489.562284 159.768686 
L 1491.944779 158.866956 
L 1494.327273 159.541907 
L 1494.327273 159.541907 
" clip-path="url(#p67e397a820)" style="fill: none; stroke: #00c9a7; stroke-width: 2.25; stroke-linecap: round"/>
   </g>
   <g id="line2d_14">
    <path d="M 276.872727 681.798479 
L 279.255221 796.271249 
L 281.637716 861.84 
L 284.02021 852.435345 
L 286.402704 853.845425 
L 288.785198 835.749707 
L 291.167693 844.436019 
L 293.550187 819.40487 
L 295.932681 811.859418 
L 298.315175 816.84411 
L 300.697669 808.70574 
L 303.080164 796.780233 
L 305.462658 802.005323 
L 307.845152 799.372983 
L 310.227646 745.531465 
L 312.610141 773.157898 
L 314.992635 781.168309 
L 317.375129 774.346268 
L 319.757623 770.256337 
L 322.140117 773.989947 
L 324.522612 768.536811 
L 326.905106 764.231821 
L 329.2876 760.39179 
L 331.670094 755.174935 
L 334.052589 753.233699 
L 336.435083 750.422089 
L 338.817577 745.909641 
L 341.200071 746.519029 
L 343.582565 740.128057 
L 345.96506 737.852987 
L 348.347554 739.642827 
L 350.730048 728.006177 
L 353.112542 727.184263 
L 355.495036 723.492462 
L 357.877531 713.429009 
L 360.260025 714.537246 
L 362.642519 711.596094 
L 365.025013 705.687501 
L 367.407508 696.238187 
L 369.790002 691.29562 
L 372.172496 685.480462 
L 374.55499 677.495389 
L 376.937484 673.347497 
L 379.319979 664.512955 
L 381.702473 652.805041 
L 384.084967 657.801769 
L 386.467461 653.311809 
L 388.849956 650.305094 
L 391.23245 644.552966 
L 393.614944 632.555561 
L 395.997438 624.114714 
L 398.379932 620.145774 
L 400.762427 624.710799 
L 403.144921 626.97605 
L 405.527415 630.196875 
L 407.909909 628.71458 
L 410.292403 611.4829 
L 412.674898 592.883264 
L 415.057392 575.223682 
L 417.439886 547.267851 
L 419.82238 526.244283 
L 422.204875 501.740172 
L 424.587369 493.308827 
L 426.969863 481.016547 
L 429.352357 472.00812 
L 431.734851 456.385744 
L 434.117346 435.012506 
L 438.882334 375.323209 
L 441.264828 349.00582 
L 443.647323 334.029256 
L 446.029817 315.739065 
L 448.412311 303.902559 
L 450.794805 294.36456 
L 453.177299 286.12357 
L 455.559794 278.507171 
L 457.942288 270.340612 
L 460.324782 264.439937 
L 462.707276 259.994952 
L 465.089771 256.478619 
L 467.472265 252.434614 
L 469.854759 246.710358 
L 472.237253 246.679635 
L 474.619747 241.474816 
L 477.002242 238.559319 
L 479.384736 238.104178 
L 481.76723 236.706767 
L 484.149724 235.770514 
L 486.532218 231.302725 
L 488.914713 229.376374 
L 491.297207 228.830649 
L 493.679701 227.401881 
L 496.062195 227.482331 
L 498.44469 223.150102 
L 500.827184 223.711664 
L 503.209678 222.910021 
L 505.592172 220.626716 
L 507.974666 218.82199 
L 510.357161 217.98139 
L 512.739655 220.239356 
L 515.122149 215.267016 
L 519.887138 217.596563 
L 522.269632 216.611534 
L 524.652126 214.71844 
L 527.03462 213.601334 
L 529.417114 218.469153 
L 531.799609 215.443751 
L 534.182103 213.944353 
L 536.564597 213.3451 
L 538.947091 213.387859 
L 541.329585 213.89811 
L 543.71208 214.817893 
L 546.094574 212.248582 
L 548.477068 214.807758 
L 550.859562 213.126557 
L 553.242057 216.600448 
L 555.624551 208.97518 
L 560.389539 213.245014 
L 562.772033 211.313596 
L 565.154528 213.218408 
L 567.537022 211.014603 
L 569.919516 211.36649 
L 572.30201 207.654734 
L 574.684505 211.005734 
L 577.066999 210.298477 
L 579.449493 212.446538 
L 581.831987 208.558364 
L 584.214481 210.574349 
L 586.596976 208.616959 
L 588.97947 207.508405 
L 591.361964 209.914284 
L 593.744458 205.985569 
L 596.126952 208.729715 
L 598.509447 206.386232 
L 600.891941 205.876297 
L 603.274435 208.407917 
L 605.656929 203.378883 
L 608.039424 203.982253 
L 610.421918 203.571138 
L 612.804412 205.424323 
L 615.186906 200.607498 
L 617.5694 202.517061 
L 619.951895 205.201979 
L 622.334389 204.381016 
L 624.716883 201.994141 
L 627.099377 200.131137 
L 629.481872 202.370732 
L 631.864366 199.874269 
L 634.24686 201.115849 
L 636.629354 199.395373 
L 639.011848 201.909257 
L 641.394343 199.363384 
L 643.776837 200.81844 
L 646.159331 197.424048 
L 648.541825 199.516047 
L 650.92432 199.421979 
L 653.306814 195.884108 
L 655.689308 197.258081 
L 658.071802 196.939451 
L 660.454296 197.671414 
L 662.836791 196.616704 
L 665.219285 196.580913 
L 667.601779 196.015867 
L 669.984273 194.589317 
L 672.366767 195.817911 
L 674.749262 196.480827 
L 677.131756 194.759084 
L 679.51425 194.694471 
L 681.896744 194.990613 
L 684.279239 193.28059 
L 686.661733 193.354704 
L 689.044227 195.477744 
L 691.426721 193.80351 
L 693.809215 193.664466 
L 696.19171 190.079719 
L 698.574204 191.834718 
L 700.956698 191.662734 
L 703.339192 196.180567 
L 705.721687 190.667569 
L 710.486675 192.725679 
L 712.869169 191.179405 
L 715.251663 190.171254 
L 717.634158 191.598121 
L 720.016652 189.832353 
L 722.399146 192.147331 
L 724.78164 188.027944 
L 727.164134 190.066416 
L 729.546629 189.490602 
L 731.929123 189.606842 
L 734.311617 191.023574 
L 736.694111 189.425672 
L 739.076606 188.803932 
L 741.4591 188.507156 
L 743.841594 187.448962 
L 746.224088 188.398518 
L 748.606582 189.926105 
L 750.989077 186.040465 
L 753.371571 188.008624 
L 755.754065 185.675276 
L 758.136559 189.321785 
L 760.519054 186.765143 
L 762.901548 187.895234 
L 765.284042 188.046948 
L 767.666536 186.069921 
L 770.04903 188.154319 
L 772.431525 186.120281 
L 774.814019 185.899837 
L 777.196513 187.057801 
L 779.579007 184.980371 
L 781.961502 185.650571 
L 784.343996 185.874815 
L 786.72649 184.272163 
L 789.108984 184.857163 
L 791.491478 186.082907 
L 793.873973 182.943799 
L 796.256467 182.396807 
L 798.638961 186.132 
L 801.021455 184.719386 
L 803.403949 184.561971 
L 805.786444 182.170345 
L 808.168938 184.409941 
L 810.551432 183.137321 
L 812.933926 183.51898 
L 815.316421 183.369483 
L 817.698915 184.023214 
L 820.081409 182.825025 
L 824.846397 183.415409 
L 827.228892 182.477573 
L 829.611386 181.022516 
L 831.99388 180.67443 
L 834.376374 182.566574 
L 836.758869 181.078261 
L 839.141363 181.007947 
L 841.523857 180.270283 
L 843.906351 181.063374 
L 846.288845 182.414543 
L 848.67134 180.50403 
L 851.053834 178.86242 
L 853.436328 180.911661 
L 855.818822 180.361185 
L 858.201316 179.616236 
L 860.583811 177.458674 
L 862.966305 180.953786 
L 865.348799 178.547907 
L 867.731293 179.733426 
L 870.113788 180.034953 
L 874.878776 179.273218 
L 877.26127 178.299591 
L 879.643764 177.763684 
L 884.408753 178.602701 
L 886.791247 180.063775 
L 889.173741 177.980327 
L 891.556236 178.98151 
L 893.93873 178.071546 
L 896.321224 177.415915 
L 898.703718 180.222774 
L 901.086212 178.364837 
L 903.468707 177.789339 
L 905.851201 177.041541 
L 910.616189 177.57238 
L 912.998684 175.606122 
L 915.381178 176.432469 
L 917.763672 174.697741 
L 920.146166 176.8382 
L 922.52866 176.465409 
L 924.911155 176.572781 
L 927.293649 174.915334 
L 929.676143 175.96941 
L 932.058637 175.42907 
L 934.441131 174.434538 
L 936.823626 174.477614 
L 939.20612 175.11519 
L 941.588614 175.891495 
L 943.971108 174.640413 
L 946.353603 174.520689 
L 948.736097 173.597105 
L 951.118591 177.656313 
L 953.501085 176.307678 
L 955.883579 176.075515 
L 958.266074 176.337134 
L 960.648568 174.22613 
L 963.031062 177.280671 
L 965.413556 173.789043 
L 967.796051 176.180986 
L 970.178545 172.84994 
L 972.561039 173.158751 
L 974.943533 175.493366 
L 977.326027 175.961176 
L 979.708522 172.093272 
L 982.091016 174.004736 
L 984.47351 173.820399 
L 986.856004 172.804964 
L 989.238498 174.834568 
L 991.620993 172.137931 
L 994.003487 172.60099 
L 996.385981 173.83972 
L 998.768475 172.891114 
L 1001.15097 171.532977 
L 1003.533464 171.496553 
L 1005.915958 174.674619 
L 1008.298452 172.269691 
L 1010.680946 171.633064 
L 1013.063441 172.777725 
L 1015.445935 174.063965 
L 1017.828429 172.51864 
L 1020.210923 173.933472 
L 1022.593418 172.527825 
L 1024.975912 169.997788 
L 1027.358406 171.194077 
L 1029.7409 172.630129 
L 1032.123394 171.25964 
L 1034.505889 172.872427 
L 1036.888383 170.469716 
L 1039.270877 172.381496 
L 1041.653371 172.88573 
L 1044.035866 169.571787 
L 1046.41836 170.363928 
L 1048.800854 171.627996 
L 1051.183348 171.5637 
L 1053.565842 169.80585 
L 1055.948337 171.983367 
L 1058.330831 172.111959 
L 1060.713325 169.443195 
L 1063.095819 170.185292 
L 1067.860808 171.096524 
L 1070.243302 170.293297 
L 1072.625796 170.591657 
L 1075.00829 170.372163 
L 1077.390785 172.956994 
L 1079.773279 170.132082 
L 1082.155773 171.148468 
L 1084.538267 170.793097 
L 1086.920761 167.890269 
L 1089.303256 169.527128 
L 1091.68575 170.256557 
L 1094.068244 166.965418 
L 1096.450738 171.674872 
L 1098.833233 168.119581 
L 1101.215727 169.061219 
L 1103.598221 168.353328 
L 1105.980715 168.974435 
L 1108.363209 170.452296 
L 1110.745704 166.986956 
L 1113.128198 168.420158 
L 1115.510692 169.238271 
L 1117.893186 169.193612 
L 1120.27568 170.024394 
L 1122.658175 168.514543 
L 1125.040669 166.476704 
L 1127.423163 169.270577 
L 1129.805657 168.133834 
L 1132.188152 169.138184 
L 1134.570646 165.155941 
L 1136.95314 166.390237 
L 1139.335634 166.841577 
L 1141.718128 167.96375 
L 1144.100623 167.314454 
L 1146.483117 167.529514 
L 1148.865611 167.563087 
L 1151.248105 168.01316 
L 1153.6306 165.586377 
L 1156.013094 169.493872 
L 1158.395588 166.072557 
L 1160.778082 165.63642 
L 1163.160576 169.329806 
L 1165.543071 167.429744 
L 1167.925565 166.682895 
L 1170.308059 168.086325 
L 1172.690553 167.920992 
L 1175.073048 164.46262 
L 1177.455542 167.749008 
L 1179.838036 166.865332 
L 1182.22053 165.71782 
L 1184.603024 167.228937 
L 1186.985519 165.305755 
L 1189.368013 168.002708 
L 1191.750507 167.330608 
L 1196.515495 166.450099 
L 1198.89799 164.900024 
L 1201.280484 166.853929 
L 1203.662978 166.208117 
L 1206.045472 167.236539 
L 1208.427967 165.433713 
L 1210.810461 166.335443 
L 1213.192955 165.335527 
L 1215.575449 166.815922 
L 1217.957943 164.307422 
L 1220.340438 166.830175 
L 1222.722932 165.833426 
L 1225.105426 166.234089 
L 1227.48792 164.456919 
L 1229.870415 164.801204 
L 1232.252909 164.655508 
L 1234.635403 166.67466 
L 1237.017897 164.603882 
L 1239.400391 166.146355 
L 1241.782886 163.654326 
L 1244.16538 166.135586 
L 1246.547874 163.264432 
L 1248.930368 163.300222 
L 1251.312862 166.241057 
L 1253.695357 166.35318 
L 1256.077851 164.127203 
L 1258.460345 164.32896 
L 1263.225334 161.768834 
L 1265.607828 165.696599 
L 1267.990322 163.389223 
L 1270.372816 164.403392 
L 1272.75531 165.694699 
L 1275.137805 162.785536 
L 1277.520299 166.089027 
L 1279.902793 163.213438 
L 1282.285287 163.404743 
L 1284.667782 165.644972 
L 1287.050276 163.343931 
L 1289.43277 167.986555 
L 1291.815264 163.573876 
L 1294.197758 164.222856 
L 1296.580253 160.823712 
L 1298.962747 163.99196 
L 1301.345241 162.669613 
L 1303.727735 164.328327 
L 1306.110229 163.830744 
L 1308.492724 163.150726 
L 1310.875218 162.298406 
L 1313.257712 164.165528 
L 1315.640206 163.466505 
L 1318.022701 162.235693 
L 1320.405195 161.318444 
L 1322.787689 162.576811 
L 1325.170183 163.19 
L 1327.552677 159.7576 
L 1329.935172 165.727005 
L 1332.317666 162.163162 
L 1334.70016 162.329762 
L 1337.082654 161.963623 
L 1339.465149 163.369269 
L 1341.847643 163.48931 
L 1344.230137 160.851268 
L 1346.612631 163.754412 
L 1348.995125 162.059275 
L 1351.37762 163.245428 
L 1353.760114 161.33048 
L 1356.142608 163.060141 
L 1360.907597 161.609202 
L 1363.290091 162.190718 
L 1365.672585 160.009717 
L 1368.055079 161.616804 
L 1370.437573 160.056593 
L 1372.820068 160.678967 
L 1375.202562 163.804139 
L 1377.585056 159.874157 
L 1379.96755 161.948736 
L 1384.732539 161.29754 
L 1387.115033 162.678482 
L 1389.497527 160.532004 
L 1391.880021 162.712372 
L 1394.262516 163.520032 
L 1396.64501 160.606436 
L 1399.027504 160.885158 
L 1401.409998 161.803357 
L 1403.792492 162.301573 
L 1406.174987 161.457805 
L 1408.557481 161.017234 
L 1410.939975 161.549657 
L 1413.322469 159.688553 
L 1415.704964 161.144243 
L 1418.087458 161.331747 
L 1420.469952 161.266817 
L 1422.852446 160.869638 
L 1425.23494 158.650947 
L 1427.617435 158.935053 
L 1429.999929 161.374822 
L 1434.764917 159.289474 
L 1437.147411 161.434051 
L 1439.529906 160.782221 
L 1441.9124 161.573412 
L 1444.294894 157.272539 
L 1446.677388 162.042172 
L 1449.059883 162.130222 
L 1451.442377 159.824113 
L 1453.824871 158.643979 
L 1456.207365 158.412449 
L 1458.589859 161.183517 
L 1460.972354 161.167998 
L 1463.354848 158.495116 
L 1465.737342 158.899263 
L 1468.119836 161.638024 
L 1470.502331 159.439287 
L 1472.884825 158.677235 
L 1475.267319 159.60462 
L 1477.649813 158.831166 
L 1480.032307 158.968626 
L 1482.414802 158.933153 
L 1484.797296 158.150197 
L 1487.17979 160.225727 
L 1489.562284 159.337933 
L 1491.944779 156.24 
L 1494.327273 160.216225 
L 1494.327273 160.216225 
" clip-path="url(#p67e397a820)" style="fill: none; stroke: #ffc75f; stroke-width: 2.25; stroke-linecap: round"/>
   </g>
   <g id="patch_3">
    <path d="M 216 897.12 
L 216 120.96 
" style="fill: none; stroke: #262626; stroke-width: 1.875; stroke-linejoin: miter; stroke-linecap: square"/>
   </g>
   <g id="patch_4">
    <path d="M 1555.2 897.12 
L 1555.2 120.96 
" style="fill: none; stroke: #262626; stroke-width: 1.875; stroke-linejoin: miter; stroke-linecap: square"/>
   </g>
   <g id="patch_5">
    <path d="M 216 897.12 
L 1555.2 897.12 
" style="fill: none; stroke: #262626; stroke-width: 1.875; stroke-linejoin: miter; stroke-linecap: square"/>
   </g>
   <g id="patch_6">
    <path d="M 216 120.96 
L 1555.2 120.96 
" style="fill: none; stroke: #262626; stroke-width: 1.875; stroke-linejoin: miter; stroke-linecap: square"/>
   </g>
   <g id="text_15">
    <!-- Df(Z) -->
    <g style="fill: #262626" transform="translate(820.916406 110.561563)scale(0.5 -0.5)">
     <use xlink:href="#DejaVuSans-44"/>
     <use xlink:href="#DejaVuSans-66" x="77.001953"/>
     <use xlink:href="#DejaVuSans-28" x="112.207031"/>
     <use xlink:href="#DejaVuSans-5a" x="151.220703"/>
     <use xlink:href="#DejaVuSans-29" x="219.726562"/>
    </g>
   </g>
   <g id="legend_1">
    <g id="patch_7">
     <path d="M 227.55 182.597813 
L 361.029844 182.597813 
Q 364.329844 182.597813 364.329844 179.297813 
L 364.329844 132.51 
Q 364.329844 129.21 361.029844 129.21 
L 227.55 129.21 
Q 224.25 129.21 224.25 132.51 
L 224.25 179.297813 
Q 224.25 182.597813 227.55 182.597813 
z
" style="fill: #ffffff; opacity: 0.8; stroke: #cccccc; stroke-width: 1.5; stroke-linejoin: miter"/>
    </g>
    <g id="line2d_15">
     <path d="M 230.85 142.572422 
L 247.35 142.572422 
L 263.85 142.572422 
" style="fill: none; stroke: #00c9a7; stroke-width: 2.25; stroke-linecap: round"/>
    </g>
    <g id="text_16">
     <!-- df trace -->
     <g style="fill: #262626" transform="translate(277.05 148.347422)scale(0.165 -0.165)">
      <defs>
       <path id="DejaVuSans-64" d="M 2906 2969 
L 2906 4863 
L 3481 4863 
L 3481 0 
L 2906 0 
L 2906 525 
Q 2725 213 2448 61 
Q 2172 -91 1784 -91 
Q 1150 -91 751 415 
Q 353 922 353 1747 
Q 353 2572 751 3078 
Q 1150 3584 1784 3584 
Q 2172 3584 2448 3432 
Q 2725 3281 2906 2969 
z
M 947 1747 
Q 947 1113 1208 752 
Q 1469 391 1925 391 
Q 2381 391 2643 752 
Q 2906 1113 2906 1747 
Q 2906 2381 2643 2742 
Q 2381 3103 1925 3103 
Q 1469 3103 1208 2742 
Q 947 2381 947 1747 
z
" transform="scale(0.015625)"/>
       <path id="DejaVuSans-74" d="M 1172 4494 
L 1172 3500 
L 2356 3500 
L 2356 3053 
L 1172 3053 
L 1172 1153 
Q 1172 725 1289 603 
Q 1406 481 1766 481 
L 2356 481 
L 2356 0 
L 1766 0 
Q 1100 0 847 248 
Q 594 497 594 1153 
L 594 3053 
L 172 3053 
L 172 3500 
L 594 3500 
L 594 4494 
L 1172 4494 
z
" transform="scale(0.015625)"/>
       <path id="DejaVuSans-72" d="M 2631 2963 
Q 2534 3019 2420 3045 
Q 2306 3072 2169 3072 
Q 1681 3072 1420 2755 
Q 1159 2438 1159 1844 
L 1159 0 
L 581 0 
L 581 3500 
L 1159 3500 
L 1159 2956 
Q 1341 3275 1631 3429 
Q 1922 3584 2338 3584 
Q 2397 3584 2469 3576 
Q 2541 3569 2628 3553 
L 2631 2963 
z
" transform="scale(0.015625)"/>
       <path id="DejaVuSans-61" d="M 2194 1759 
Q 1497 1759 1228 1600 
Q 959 1441 959 1056 
Q 959 750 1161 570 
Q 1363 391 1709 391 
Q 2188 391 2477 730 
Q 2766 1069 2766 1631 
L 2766 1759 
L 2194 1759 
z
M 3341 1997 
L 3341 0 
L 2766 0 
L 2766 531 
Q 2569 213 2275 61 
Q 1981 -91 1556 -91 
Q 1019 -91 701 211 
Q 384 513 384 1019 
Q 384 1609 779 1909 
Q 1175 2209 1959 2209 
L 2766 2209 
L 2766 2266 
Q 2766 2663 2505 2880 
Q 2244 3097 1772 3097 
Q 1472 3097 1187 3025 
Q 903 2953 641 2809 
L 641 3341 
Q 956 3463 1253 3523 
Q 1550 3584 1831 3584 
Q 2591 3584 2966 3190 
Q 3341 2797 3341 1997 
z
" transform="scale(0.015625)"/>
       <path id="DejaVuSans-63" d="M 3122 3366 
L 3122 2828 
Q 2878 2963 2633 3030 
Q 2388 3097 2138 3097 
Q 1578 3097 1268 2742 
Q 959 2388 959 1747 
Q 959 1106 1268 751 
Q 1578 397 2138 397 
Q 2388 397 2633 464 
Q 2878 531 3122 666 
L 3122 134 
Q 2881 22 2623 -34 
Q 2366 -91 2075 -91 
Q 1284 -91 818 406 
Q 353 903 353 1747 
Q 353 2603 823 3093 
Q 1294 3584 2113 3584 
Q 2378 3584 2631 3529 
Q 2884 3475 3122 3366 
z
" transform="scale(0.015625)"/>
       <path id="DejaVuSans-65" d="M 3597 1894 
L 3597 1613 
L 953 1613 
Q 991 1019 1311 708 
Q 1631 397 2203 397 
Q 2534 397 2845 478 
Q 3156 559 3463 722 
L 3463 178 
Q 3153 47 2828 -22 
Q 2503 -91 2169 -91 
Q 1331 -91 842 396 
Q 353 884 353 1716 
Q 353 2575 817 3079 
Q 1281 3584 2069 3584 
Q 2775 3584 3186 3129 
Q 3597 2675 3597 1894 
z
M 3022 2063 
Q 3016 2534 2758 2815 
Q 2500 3097 2075 3097 
Q 1594 3097 1305 2825 
Q 1016 2553 972 2059 
L 3022 2063 
z
" transform="scale(0.015625)"/>
      </defs>
      <use xlink:href="#DejaVuSans-64"/>
      <use xlink:href="#DejaVuSans-66" x="63.476562"/>
      <use xlink:href="#DejaVuSans-20" x="98.681641"/>
      <use xlink:href="#DejaVuSans-74" x="130.46875"/>
      <use xlink:href="#DejaVuSans-72" x="169.677734"/>
      <use xlink:href="#DejaVuSans-61" x="210.791016"/>
      <use xlink:href="#DejaVuSans-63" x="272.070312"/>
      <use xlink:href="#DejaVuSans-65" x="327.050781"/>
     </g>
    </g>
    <g id="line2d_16">
     <path d="M 230.85 166.791328 
L 247.35 166.791328 
L 263.85 166.791328 
" style="fill: none; stroke: #ffc75f; stroke-width: 2.25; stroke-linecap: round"/>
    </g>
    <g id="text_17">
     <!-- df retrace -->
     <g style="fill: #262626" transform="translate(277.05 172.566328)scale(0.165 -0.165)">
      <use xlink:href="#DejaVuSans-64"/>
      <use xlink:href="#DejaVuSans-66" x="63.476562"/>
      <use xlink:href="#DejaVuSans-20" x="98.681641"/>
      <use xlink:href="#DejaVuSans-72" x="130.46875"/>
      <use xlink:href="#DejaVuSans-65" x="169.332031"/>
      <use xlink:href="#DejaVuSans-74" x="230.855469"/>
      <use xlink:href="#DejaVuSans-72" x="270.064453"/>
      <use xlink:href="#DejaVuSans-61" x="311.177734"/>
      <use xlink:href="#DejaVuSans-63" x="372.457031"/>
      <use xlink:href="#DejaVuSans-65" x="427.4375"/>
     </g>
    </g>
   </g>
  </g>
 </g>
 <defs>
  <clipPath id="p67e397a820">
   <rect x="216" y="120.96" width="1339.2" height="776.16"/>
  </clipPath>
 </defs>
</svg>
