<?xml version="1.0" encoding="utf-8" standalone="no"?>
<!DOCTYPE svg PUBLIC "-//W3C//DTD SVG 1.1//EN"
  "http://www.w3.org/Graphics/SVG/1.1/DTD/svg11.dtd">
<svg xmlns:xlink="http://www.w3.org/1999/xlink" width="1728pt" height="1008pt" viewBox="0 0 1728 1008" xmlns="http://www.w3.org/2000/svg" version="1.1">
 <metadata>
  <rdf:RDF xmlns:dc="http://purl.org/dc/elements/1.1/" xmlns:cc="http://creativecommons.org/ns#" xmlns:rdf="http://www.w3.org/1999/02/22-rdf-syntax-ns#">
   <cc:Work>
    <dc:type rdf:resource="http://purl.org/dc/dcmitype/StillImage"/>
    <dc:date>2022-10-30T23:55:51.730263</dc:date>
    <dc:format>image/svg+xml</dc:format>
    <dc:creator>
     <cc:Agent>
      <dc:title>Matplotlib v3.5.2, https://matplotlib.org/</dc:title>
     </cc:Agent>
    </dc:creator>
   </cc:Work>
  </rdf:RDF>
 </metadata>
 <defs>
  <style type="text/css">*{stroke-linejoin: round; stroke-linecap: butt}</style>
 </defs>
 <g id="figure_1">
  <g id="patch_1">
   <path d="M 0 1008 
L 1728 1008 
L 1728 0 
L 0 0 
z
" style="fill: #ffffff"/>
  </g>
  <g id="axes_1">
   <g id="patch_2">
    <path d="M 216 897.12 
L 1555.2 897.12 
L 1555.2 120.96 
L 216 120.96 
L 216 897.12 
z
" style="fill: none"/>
   </g>
   <g id="matplotlib.axis_1">
    <g id="xtick_1">
     <g id="line2d_1">
      <defs>
       <path id="mddfb3820d8" d="M 0 0 
L 0 9 
" style="stroke: #262626; stroke-width: 1.875"/>
      </defs>
      <g>
       <use xlink:href="#mddfb3820d8" x="453.961805" y="897.12" style="fill: #262626; stroke: #262626; stroke-width: 1.875"/>
      </g>
     </g>
     <g id="text_1">
      <!-- 0.0 -->
      <g style="fill: #262626" transform="translate(415.794305 946.0925)scale(0.48 -0.48)">
       <defs>
        <path id="DejaVuSans-30" d="M 2034 4250 
Q 1547 4250 1301 3770 
Q 1056 3291 1056 2328 
Q 1056 1369 1301 889 
Q 1547 409 2034 409 
Q 2525 409 2770 889 
Q 3016 1369 3016 2328 
Q 3016 3291 2770 3770 
Q 2525 4250 2034 4250 
z
M 2034 4750 
Q 2819 4750 3233 4129 
Q 3647 3509 3647 2328 
Q 3647 1150 3233 529 
Q 2819 -91 2034 -91 
Q 1250 -91 836 529 
Q 422 1150 422 2328 
Q 422 3509 836 4129 
Q 1250 4750 2034 4750 
z
" transform="scale(0.015625)"/>
        <path id="DejaVuSans-2e" d="M 684 794 
L 1344 794 
L 1344 0 
L 684 0 
L 684 794 
z
" transform="scale(0.015625)"/>
       </defs>
       <use xlink:href="#DejaVuSans-30"/>
       <use xlink:href="#DejaVuSans-2e" x="63.623047"/>
       <use xlink:href="#DejaVuSans-30" x="95.410156"/>
      </g>
     </g>
    </g>
    <g id="xtick_2">
     <g id="line2d_2">
      <g>
       <use xlink:href="#mddfb3820d8" x="714.38692" y="897.12" style="fill: #262626; stroke: #262626; stroke-width: 1.875"/>
      </g>
     </g>
     <g id="text_2">
      <!-- 0.5 -->
      <g style="fill: #262626" transform="translate(676.21942 946.0925)scale(0.48 -0.48)">
       <defs>
        <path id="DejaVuSans-35" d="M 691 4666 
L 3169 4666 
L 3169 4134 
L 1269 4134 
L 1269 2991 
Q 1406 3038 1543 3061 
Q 1681 3084 1819 3084 
Q 2600 3084 3056 2656 
Q 3513 2228 3513 1497 
Q 3513 744 3044 326 
Q 2575 -91 1722 -91 
Q 1428 -91 1123 -41 
Q 819 9 494 109 
L 494 744 
Q 775 591 1075 516 
Q 1375 441 1709 441 
Q 2250 441 2565 725 
Q 2881 1009 2881 1497 
Q 2881 1984 2565 2268 
Q 2250 2553 1709 2553 
Q 1456 2553 1204 2497 
Q 953 2441 691 2322 
L 691 4666 
z
" transform="scale(0.015625)"/>
       </defs>
       <use xlink:href="#DejaVuSans-30"/>
       <use xlink:href="#DejaVuSans-2e" x="63.623047"/>
       <use xlink:href="#DejaVuSans-35" x="95.410156"/>
      </g>
     </g>
    </g>
    <g id="xtick_3">
     <g id="line2d_3">
      <g>
       <use xlink:href="#mddfb3820d8" x="974.812035" y="897.12" style="fill: #262626; stroke: #262626; stroke-width: 1.875"/>
      </g>
     </g>
     <g id="text_3">
      <!-- 1.0 -->
      <g style="fill: #262626" transform="translate(936.644535 946.0925)scale(0.48 -0.48)">
       <defs>
        <path id="DejaVuSans-31" d="M 794 531 
L 1825 531 
L 1825 4091 
L 703 3866 
L 703 4441 
L 1819 4666 
L 2450 4666 
L 2450 531 
L 3481 531 
L 3481 0 
L 794 0 
L 794 531 
z
" transform="scale(0.015625)"/>
       </defs>
       <use xlink:href="#DejaVuSans-31"/>
       <use xlink:href="#DejaVuSans-2e" x="63.623047"/>
       <use xlink:href="#DejaVuSans-30" x="95.410156"/>
      </g>
     </g>
    </g>
    <g id="xtick_4">
     <g id="line2d_4">
      <g>
       <use xlink:href="#mddfb3820d8" x="1235.23715" y="897.12" style="fill: #262626; stroke: #262626; stroke-width: 1.875"/>
      </g>
     </g>
     <g id="text_4">
      <!-- 1.5 -->
      <g style="fill: #262626" transform="translate(1197.06965 946.0925)scale(0.48 -0.48)">
       <use xlink:href="#DejaVuSans-31"/>
       <use xlink:href="#DejaVuSans-2e" x="63.623047"/>
       <use xlink:href="#DejaVuSans-35" x="95.410156"/>
      </g>
     </g>
    </g>
    <g id="xtick_5">
     <g id="line2d_5">
      <g>
       <use xlink:href="#mddfb3820d8" x="1495.662265" y="897.12" style="fill: #262626; stroke: #262626; stroke-width: 1.875"/>
      </g>
     </g>
     <g id="text_5">
      <!-- 2.0 -->
      <g style="fill: #262626" transform="translate(1457.494765 946.0925)scale(0.48 -0.48)">
       <defs>
        <path id="DejaVuSans-32" d="M 1228 531 
L 3431 531 
L 3431 0 
L 469 0 
L 469 531 
Q 828 903 1448 1529 
Q 2069 2156 2228 2338 
Q 2531 2678 2651 2914 
Q 2772 3150 2772 3378 
Q 2772 3750 2511 3984 
Q 2250 4219 1831 4219 
Q 1534 4219 1204 4116 
Q 875 4013 500 3803 
L 500 4441 
Q 881 4594 1212 4672 
Q 1544 4750 1819 4750 
Q 2544 4750 2975 4387 
Q 3406 4025 3406 3419 
Q 3406 3131 3298 2873 
Q 3191 2616 2906 2266 
Q 2828 2175 2409 1742 
Q 1991 1309 1228 531 
z
" transform="scale(0.015625)"/>
       </defs>
       <use xlink:href="#DejaVuSans-32"/>
       <use xlink:href="#DejaVuSans-2e" x="63.623047"/>
       <use xlink:href="#DejaVuSans-30" x="95.410156"/>
      </g>
     </g>
    </g>
    <g id="text_6">
     <!-- Z [nm] -->
     <g style="fill: #262626" transform="translate(804.2175 996.5475)scale(0.48 -0.48)">
      <defs>
       <path id="DejaVuSans-5a" d="M 359 4666 
L 4025 4666 
L 4025 4184 
L 1075 531 
L 4097 531 
L 4097 0 
L 288 0 
L 288 481 
L 3238 4134 
L 359 4134 
L 359 4666 
z
" transform="scale(0.015625)"/>
       <path id="DejaVuSans-20" transform="scale(0.015625)"/>
       <path id="DejaVuSans-5b" d="M 550 4863 
L 1875 4863 
L 1875 4416 
L 1125 4416 
L 1125 -397 
L 1875 -397 
L 1875 -844 
L 550 -844 
L 550 4863 
z
" transform="scale(0.015625)"/>
       <path id="DejaVuSans-6e" d="M 3513 2113 
L 3513 0 
L 2938 0 
L 2938 2094 
Q 2938 2591 2744 2837 
Q 2550 3084 2163 3084 
Q 1697 3084 1428 2787 
Q 1159 2491 1159 1978 
L 1159 0 
L 581 0 
L 581 3500 
L 1159 3500 
L 1159 2956 
Q 1366 3272 1645 3428 
Q 1925 3584 2291 3584 
Q 2894 3584 3203 3211 
Q 3513 2838 3513 2113 
z
" transform="scale(0.015625)"/>
       <path id="DejaVuSans-6d" d="M 3328 2828 
Q 3544 3216 3844 3400 
Q 4144 3584 4550 3584 
Q 5097 3584 5394 3201 
Q 5691 2819 5691 2113 
L 5691 0 
L 5113 0 
L 5113 2094 
Q 5113 2597 4934 2840 
Q 4756 3084 4391 3084 
Q 3944 3084 3684 2787 
Q 3425 2491 3425 1978 
L 3425 0 
L 2847 0 
L 2847 2094 
Q 2847 2600 2669 2842 
Q 2491 3084 2119 3084 
Q 1678 3084 1418 2786 
Q 1159 2488 1159 1978 
L 1159 0 
L 581 0 
L 581 3500 
L 1159 3500 
L 1159 2956 
Q 1356 3278 1631 3431 
Q 1906 3584 2284 3584 
Q 2666 3584 2933 3390 
Q 3200 3197 3328 2828 
z
" transform="scale(0.015625)"/>
       <path id="DejaVuSans-5d" d="M 1947 4863 
L 1947 -844 
L 622 -844 
L 622 -397 
L 1369 -397 
L 1369 4416 
L 622 4416 
L 622 4863 
L 1947 4863 
z
" transform="scale(0.015625)"/>
      </defs>
      <use xlink:href="#DejaVuSans-5a"/>
      <use xlink:href="#DejaVuSans-20" x="68.505859"/>
      <use xlink:href="#DejaVuSans-5b" x="100.292969"/>
      <use xlink:href="#DejaVuSans-6e" x="139.306641"/>
      <use xlink:href="#DejaVuSans-6d" x="202.685547"/>
      <use xlink:href="#DejaVuSans-5d" x="300.097656"/>
     </g>
    </g>
   </g>
   <g id="matplotlib.axis_2">
    <g id="ytick_1">
     <g id="line2d_6">
      <defs>
       <path id="mf2f01751a8" d="M 0 0 
L -9 0 
" style="stroke: #262626; stroke-width: 1.875"/>
      </defs>
      <g>
       <use xlink:href="#mf2f01751a8" x="216" y="890.692847" style="fill: #262626; stroke: #262626; stroke-width: 1.875"/>
      </g>
     </g>
     <g id="text_7">
      <!-- −12 -->
      <g style="fill: #262626" transform="translate(102.1975 908.929097)scale(0.48 -0.48)">
       <defs>
        <path id="DejaVuSans-2212" d="M 678 2272 
L 4684 2272 
L 4684 1741 
L 678 1741 
L 678 2272 
z
" transform="scale(0.015625)"/>
       </defs>
       <use xlink:href="#DejaVuSans-2212"/>
       <use xlink:href="#DejaVuSans-31" x="83.789062"/>
       <use xlink:href="#DejaVuSans-32" x="147.412109"/>
      </g>
     </g>
    </g>
    <g id="ytick_2">
     <g id="line2d_7">
      <g>
       <use xlink:href="#mf2f01751a8" x="216" y="768.28143" style="fill: #262626; stroke: #262626; stroke-width: 1.875"/>
      </g>
     </g>
     <g id="text_8">
      <!-- −10 -->
      <g style="fill: #262626" transform="translate(102.1975 786.51768)scale(0.48 -0.48)">
       <use xlink:href="#DejaVuSans-2212"/>
       <use xlink:href="#DejaVuSans-31" x="83.789062"/>
       <use xlink:href="#DejaVuSans-30" x="147.412109"/>
      </g>
     </g>
    </g>
    <g id="ytick_3">
     <g id="line2d_8">
      <g>
       <use xlink:href="#mf2f01751a8" x="216" y="645.870013" style="fill: #262626; stroke: #262626; stroke-width: 1.875"/>
      </g>
     </g>
     <g id="text_9">
      <!-- −8 -->
      <g style="fill: #262626" transform="translate(132.7375 664.106263)scale(0.48 -0.48)">
       <defs>
        <path id="DejaVuSans-38" d="M 2034 2216 
Q 1584 2216 1326 1975 
Q 1069 1734 1069 1313 
Q 1069 891 1326 650 
Q 1584 409 2034 409 
Q 2484 409 2743 651 
Q 3003 894 3003 1313 
Q 3003 1734 2745 1975 
Q 2488 2216 2034 2216 
z
M 1403 2484 
Q 997 2584 770 2862 
Q 544 3141 544 3541 
Q 544 4100 942 4425 
Q 1341 4750 2034 4750 
Q 2731 4750 3128 4425 
Q 3525 4100 3525 3541 
Q 3525 3141 3298 2862 
Q 3072 2584 2669 2484 
Q 3125 2378 3379 2068 
Q 3634 1759 3634 1313 
Q 3634 634 3220 271 
Q 2806 -91 2034 -91 
Q 1263 -91 848 271 
Q 434 634 434 1313 
Q 434 1759 690 2068 
Q 947 2378 1403 2484 
z
M 1172 3481 
Q 1172 3119 1398 2916 
Q 1625 2713 2034 2713 
Q 2441 2713 2670 2916 
Q 2900 3119 2900 3481 
Q 2900 3844 2670 4047 
Q 2441 4250 2034 4250 
Q 1625 4250 1398 4047 
Q 1172 3844 1172 3481 
z
" transform="scale(0.015625)"/>
       </defs>
       <use xlink:href="#DejaVuSans-2212"/>
       <use xlink:href="#DejaVuSans-38" x="83.789062"/>
      </g>
     </g>
    </g>
    <g id="ytick_4">
     <g id="line2d_9">
      <g>
       <use xlink:href="#mf2f01751a8" x="216" y="523.458596" style="fill: #262626; stroke: #262626; stroke-width: 1.875"/>
      </g>
     </g>
     <g id="text_10">
      <!-- −6 -->
      <g style="fill: #262626" transform="translate(132.7375 541.694846)scale(0.48 -0.48)">
       <defs>
        <path id="DejaVuSans-36" d="M 2113 2584 
Q 1688 2584 1439 2293 
Q 1191 2003 1191 1497 
Q 1191 994 1439 701 
Q 1688 409 2113 409 
Q 2538 409 2786 701 
Q 3034 994 3034 1497 
Q 3034 2003 2786 2293 
Q 2538 2584 2113 2584 
z
M 3366 4563 
L 3366 3988 
Q 3128 4100 2886 4159 
Q 2644 4219 2406 4219 
Q 1781 4219 1451 3797 
Q 1122 3375 1075 2522 
Q 1259 2794 1537 2939 
Q 1816 3084 2150 3084 
Q 2853 3084 3261 2657 
Q 3669 2231 3669 1497 
Q 3669 778 3244 343 
Q 2819 -91 2113 -91 
Q 1303 -91 875 529 
Q 447 1150 447 2328 
Q 447 3434 972 4092 
Q 1497 4750 2381 4750 
Q 2619 4750 2861 4703 
Q 3103 4656 3366 4563 
z
" transform="scale(0.015625)"/>
       </defs>
       <use xlink:href="#DejaVuSans-2212"/>
       <use xlink:href="#DejaVuSans-36" x="83.789062"/>
      </g>
     </g>
    </g>
    <g id="ytick_5">
     <g id="line2d_10">
      <g>
       <use xlink:href="#mf2f01751a8" x="216" y="401.047178" style="fill: #262626; stroke: #262626; stroke-width: 1.875"/>
      </g>
     </g>
     <g id="text_11">
      <!-- −4 -->
      <g style="fill: #262626" transform="translate(132.7375 419.283428)scale(0.48 -0.48)">
       <defs>
        <path id="DejaVuSans-34" d="M 2419 4116 
L 825 1625 
L 2419 1625 
L 2419 4116 
z
M 2253 4666 
L 3047 4666 
L 3047 1625 
L 3713 1625 
L 3713 1100 
L 3047 1100 
L 3047 0 
L 2419 0 
L 2419 1100 
L 313 1100 
L 313 1709 
L 2253 4666 
z
" transform="scale(0.015625)"/>
       </defs>
       <use xlink:href="#DejaVuSans-2212"/>
       <use xlink:href="#DejaVuSans-34" x="83.789062"/>
      </g>
     </g>
    </g>
    <g id="ytick_6">
     <g id="line2d_11">
      <g>
       <use xlink:href="#mf2f01751a8" x="216" y="278.635761" style="fill: #262626; stroke: #262626; stroke-width: 1.875"/>
      </g>
     </g>
     <g id="text_12">
      <!-- −2 -->
      <g style="fill: #262626" transform="translate(132.7375 296.872011)scale(0.48 -0.48)">
       <use xlink:href="#DejaVuSans-2212"/>
       <use xlink:href="#DejaVuSans-32" x="83.789062"/>
      </g>
     </g>
    </g>
    <g id="ytick_7">
     <g id="line2d_12">
      <g>
       <use xlink:href="#mf2f01751a8" x="216" y="156.224344" style="fill: #262626; stroke: #262626; stroke-width: 1.875"/>
      </g>
     </g>
     <g id="text_13">
      <!-- 0 -->
      <g style="fill: #262626" transform="translate(172.96 174.460594)scale(0.48 -0.48)">
       <use xlink:href="#DejaVuSans-30"/>
      </g>
     </g>
    </g>
    <g id="text_14">
     <!-- Df(Z) [Hz] -->
     <g style="fill: #262626" transform="translate(88.215 628.13625)rotate(-90)scale(0.48 -0.48)">
      <defs>
       <path id="DejaVuSans-44" d="M 1259 4147 
L 1259 519 
L 2022 519 
Q 2988 519 3436 956 
Q 3884 1394 3884 2338 
Q 3884 3275 3436 3711 
Q 2988 4147 2022 4147 
L 1259 4147 
z
M 628 4666 
L 1925 4666 
Q 3281 4666 3915 4102 
Q 4550 3538 4550 2338 
Q 4550 1131 3912 565 
Q 3275 0 1925 0 
L 628 0 
L 628 4666 
z
" transform="scale(0.015625)"/>
       <path id="DejaVuSans-66" d="M 2375 4863 
L 2375 4384 
L 1825 4384 
Q 1516 4384 1395 4259 
Q 1275 4134 1275 3809 
L 1275 3500 
L 2222 3500 
L 2222 3053 
L 1275 3053 
L 1275 0 
L 697 0 
L 697 3053 
L 147 3053 
L 147 3500 
L 697 3500 
L 697 3744 
Q 697 4328 969 4595 
Q 1241 4863 1831 4863 
L 2375 4863 
z
" transform="scale(0.015625)"/>
       <path id="DejaVuSans-28" d="M 1984 4856 
Q 1566 4138 1362 3434 
Q 1159 2731 1159 2009 
Q 1159 1288 1364 580 
Q 1569 -128 1984 -844 
L 1484 -844 
Q 1016 -109 783 600 
Q 550 1309 550 2009 
Q 550 2706 781 3412 
Q 1013 4119 1484 4856 
L 1984 4856 
z
" transform="scale(0.015625)"/>
       <path id="DejaVuSans-29" d="M 513 4856 
L 1013 4856 
Q 1481 4119 1714 3412 
Q 1947 2706 1947 2009 
Q 1947 1309 1714 600 
Q 1481 -109 1013 -844 
L 513 -844 
Q 928 -128 1133 580 
Q 1338 1288 1338 2009 
Q 1338 2731 1133 3434 
Q 928 4138 513 4856 
z
" transform="scale(0.015625)"/>
       <path id="DejaVuSans-48" d="M 628 4666 
L 1259 4666 
L 1259 2753 
L 3553 2753 
L 3553 4666 
L 4184 4666 
L 4184 0 
L 3553 0 
L 3553 2222 
L 1259 2222 
L 1259 0 
L 628 0 
L 628 4666 
z
" transform="scale(0.015625)"/>
       <path id="DejaVuSans-7a" d="M 353 3500 
L 3084 3500 
L 3084 2975 
L 922 459 
L 3084 459 
L 3084 0 
L 275 0 
L 275 525 
L 2438 3041 
L 353 3041 
L 353 3500 
z
" transform="scale(0.015625)"/>
      </defs>
      <use xlink:href="#DejaVuSans-44"/>
      <use xlink:href="#DejaVuSans-66" x="77.001953"/>
      <use xlink:href="#DejaVuSans-28" x="112.207031"/>
      <use xlink:href="#DejaVuSans-5a" x="151.220703"/>
      <use xlink:href="#DejaVuSans-29" x="219.726562"/>
      <use xlink:href="#DejaVuSans-20" x="258.740234"/>
      <use xlink:href="#DejaVuSans-5b" x="290.527344"/>
      <use xlink:href="#DejaVuSans-48" x="329.541016"/>
      <use xlink:href="#DejaVuSans-7a" x="404.736328"/>
      <use xlink:href="#DejaVuSans-5d" x="457.226562"/>
     </g>
    </g>
   </g>
   <g id="line2d_13">
    <path d="M 276.872727 852.277587 
L 279.255221 829.516711 
L 281.637716 814.421075 
L 284.02021 795.174131 
L 288.785198 764.055668 
L 291.167693 756.084961 
L 293.550187 750.980368 
L 295.932681 746.537855 
L 298.315175 747.975783 
L 300.697669 554.388489 
L 303.080164 503.530436 
L 305.462658 497.400193 
L 307.845152 486.631562 
L 310.227646 479.494804 
L 312.610141 470.827921 
L 314.992635 462.635592 
L 317.375129 455.344361 
L 319.757623 448.476888 
L 322.140117 437.587531 
L 324.522612 433.565647 
L 329.2876 419.523146 
L 331.670094 413.326104 
L 334.052589 410.122512 
L 336.435083 404.636954 
L 338.817577 400.954633 
L 341.200071 396.028868 
L 343.582565 392.260613 
L 345.96506 388.858363 
L 348.347554 378.84227 
L 350.730048 376.119496 
L 353.112542 374.226844 
L 355.495036 369.068325 
L 357.877531 364.861002 
L 360.260025 362.75821 
L 362.642519 359.159737 
L 365.025013 358.460082 
L 367.407508 350.773968 
L 369.790002 348.192447 
L 372.172496 345.896911 
L 374.55499 343.030101 
L 376.937484 339.643855 
L 379.319979 334.443586 
L 381.702473 333.297557 
L 384.084967 331.894073 
L 388.849956 324.975457 
L 391.23245 323.411932 
L 393.614944 320.129712 
L 395.997438 314.646937 
L 398.379932 316.854103 
L 400.762427 312.787337 
L 403.144921 310.821276 
L 405.527415 309.345773 
L 407.909909 307.176878 
L 410.292403 302.581631 
L 412.674898 298.901746 
L 415.057392 298.885742 
L 417.439886 297.572019 
L 419.82238 295.662319 
L 422.204875 298.282459 
L 424.587369 289.265922 
L 426.969863 289.174769 
L 429.352357 289.603051 
L 431.734851 284.839414 
L 434.117346 283.32077 
L 436.49984 281.203366 
L 438.882334 280.082735 
L 441.264828 276.602204 
L 443.647323 280.178063 
L 446.029817 274.819842 
L 448.412311 275.953345 
L 450.794805 270.319575 
L 453.177299 271.659392 
L 455.559794 270.702628 
L 457.942288 270.505361 
L 460.324782 264.577256 
L 462.707276 262.851603 
L 465.089771 264.460357 
L 467.472265 261.307214 
L 469.854759 261.942157 
L 472.237253 263.247877 
L 474.619747 258.381606 
L 477.002242 256.177571 
L 479.384736 256.061368 
L 481.76723 257.410926 
L 484.149724 257.135726 
L 486.532218 254.105048 
L 488.914713 250.124217 
L 491.297207 251.541966 
L 493.679701 249.3849 
L 496.062195 250.648871 
L 498.44469 251.270246 
L 500.827184 250.047676 
L 503.209678 245.972213 
L 505.592172 247.055965 
L 507.974666 245.676138 
L 510.357161 243.523943 
L 512.739655 243.598048 
L 515.122149 241.426718 
L 517.504643 241.93328 
L 519.887138 243.1475 
L 522.269632 239.559812 
L 524.652126 238.023772 
L 527.03462 240.836656 
L 529.417114 236.808161 
L 531.799609 237.724914 
L 534.182103 234.325447 
L 536.564597 236.492951 
L 538.947091 232.180558 
L 541.329585 233.678675 
L 543.71208 232.871167 
L 546.094574 231.881352 
L 548.477068 232.544824 
L 550.859562 229.840489 
L 553.242057 232.037565 
L 555.624551 228.361507 
L 558.007045 228.558079 
L 560.389539 228.376467 
L 562.772033 227.576613 
L 565.154528 228.012897 
L 567.537022 226.284461 
L 569.919516 226.662992 
L 572.30201 224.17819 
L 574.684505 224.520538 
L 577.066999 226.284113 
L 581.831987 220.961379 
L 584.214481 220.90606 
L 586.596976 224.470786 
L 588.97947 221.087323 
L 591.361964 219.374195 
L 593.744458 219.0148 
L 596.126952 223.491061 
L 598.509447 218.153713 
L 600.891941 220.653475 
L 603.274435 217.884428 
L 605.656929 216.043268 
L 608.039424 216.853559 
L 610.421918 217.823891 
L 612.804412 217.800929 
L 615.186906 213.613089 
L 617.5694 212.054435 
L 619.951895 213.758865 
L 622.334389 215.971597 
L 624.716883 212.643105 
L 627.099377 213.351458 
L 629.481872 212.66398 
L 631.864366 212.374864 
L 634.24686 209.618342 
L 636.629354 211.501948 
L 639.011848 209.94225 
L 641.394343 213.638139 
L 643.776837 210.192052 
L 646.159331 210.263722 
L 648.541825 207.690899 
L 650.92432 210.053582 
L 653.306814 206.639851 
L 655.689308 208.285136 
L 660.454296 208.038465 
L 662.836791 204.88219 
L 665.219285 206.715348 
L 667.601779 204.28169 
L 669.984273 204.755201 
L 672.366767 206.194173 
L 674.749262 203.483228 
L 677.131756 204.803213 
L 679.51425 204.011361 
L 684.279239 200.382272 
L 686.661733 201.718261 
L 689.044227 204.671702 
L 691.426721 203.498188 
L 693.809215 202.071741 
L 696.19171 199.173619 
L 698.574204 202.292667 
L 700.956698 200.208663 
L 703.339192 199.469345 
L 705.721687 201.781581 
L 708.104181 198.06273 
L 710.486675 201.056529 
L 712.869169 200.564231 
L 715.251663 200.300164 
L 717.634158 200.551358 
L 720.016652 197.68246 
L 722.399146 197.374208 
L 724.78164 202.003202 
L 727.164134 196.143984 
L 729.546629 198.538328 
L 731.929123 197.54573 
L 734.311617 195.427282 
L 736.694111 196.7584 
L 739.076606 194.524445 
L 741.4591 198.304182 
L 743.841594 194.18001 
L 746.224088 194.130955 
L 748.606582 196.244532 
L 750.989077 193.752424 
L 753.371571 192.133581 
L 755.754065 195.244279 
L 758.136559 191.431143 
L 760.519054 191.934574 
L 762.901548 195.395622 
L 765.284042 192.171504 
L 767.666536 192.585869 
L 770.04903 189.496046 
L 772.431525 194.214106 
L 774.814019 193.421558 
L 777.196513 189.804645 
L 779.579007 193.165841 
L 781.961502 191.192474 
L 784.343996 191.292673 
L 786.72649 192.734428 
L 789.108984 188.890676 
L 791.491478 190.450721 
L 793.873973 190.89118 
L 796.256467 189.920501 
L 798.638961 190.519956 
L 801.021455 189.96399 
L 803.403949 188.55807 
L 805.786444 189.409763 
L 808.168938 187.776655 
L 810.551432 187.376206 
L 812.933926 189.349574 
L 815.316421 188.510058 
L 817.698915 187.407866 
L 820.081409 188.75986 
L 822.463903 188.111 
L 824.846397 190.37766 
L 827.228892 187.302796 
L 829.611386 189.31026 
L 831.99388 187.073521 
L 834.376374 185.68117 
L 836.758869 186.278538 
L 839.141363 184.333699 
L 841.523857 182.779916 
L 843.906351 184.457557 
L 846.288845 185.224011 
L 848.67134 185.270283 
L 851.053834 185.911489 
L 853.436328 185.148514 
L 855.818822 183.256906 
L 858.201316 186.257663 
L 860.583811 184.346572 
L 862.966305 182.848455 
L 865.348799 185.147122 
L 867.731293 183.713369 
L 870.113788 184.44364 
L 872.496282 183.980567 
L 874.878776 181.496809 
L 877.26127 183.099649 
L 879.643764 180.839252 
L 882.026259 182.755562 
L 884.408753 183.309093 
L 886.791247 184.803731 
L 889.173741 180.446457 
L 891.556236 181.174293 
L 893.93873 181.189253 
L 896.321224 179.458382 
L 898.703718 178.418119 
L 901.086212 181.977974 
L 903.468707 180.684778 
L 905.851201 179.54049 
L 908.233695 181.069223 
L 910.616189 179.238848 
L 912.998684 181.941443 
L 915.381178 180.025829 
L 917.763672 178.780993 
L 920.146166 181.662764 
L 922.52866 178.740288 
L 924.911155 178.613647 
L 929.676143 180.137858 
L 932.058637 180.04914 
L 934.441131 177.104049 
L 936.823626 180.580404 
L 939.20612 177.077259 
L 943.971108 178.198934 
L 946.353603 177.256783 
L 948.736097 179.83065 
L 951.118591 173.133655 
L 953.501085 178.012104 
L 955.883579 178.49466 
L 958.266074 176.417614 
L 960.648568 179.618074 
L 963.031062 173.498965 
L 965.413556 178.032631 
L 967.796051 174.526007 
L 970.178545 178.681142 
L 972.561039 177.004545 
L 974.943533 174.611245 
L 977.326027 176.383171 
L 979.708522 175.642462 
L 982.091016 175.97646 
L 984.47351 174.275161 
L 986.856004 176.62845 
L 989.238498 174.06676 
L 991.620993 177.332976 
L 994.003487 176.767616 
L 996.385981 175.980635 
L 998.768475 175.349171 
L 1001.15097 174.993951 
L 1003.533464 173.354928 
L 1005.915958 173.988132 
L 1008.298452 175.139727 
L 1010.680946 172.79757 
L 1013.063441 174.290469 
L 1015.445935 172.928386 
L 1017.828429 175.721439 
L 1020.210923 173.457563 
L 1022.593418 172.156713 
L 1024.975912 174.285946 
L 1027.358406 174.473819 
L 1029.7409 170.558744 
L 1032.123394 171.501243 
L 1034.505889 174.254982 
L 1036.888383 171.836284 
L 1039.270877 171.988323 
L 1041.653371 173.138178 
L 1044.035866 175.162689 
L 1046.41836 169.124991 
L 1048.800854 173.481221 
L 1051.183348 171.873163 
L 1053.565842 173.387284 
L 1055.948337 173.482265 
L 1058.330831 172.764518 
L 1060.713325 169.651733 
L 1063.095819 172.296922 
L 1065.478313 174.000657 
L 1067.860808 170.378525 
L 1070.243302 168.590595 
L 1072.625796 173.59151 
L 1075.00829 171.024601 
L 1077.390785 170.900048 
L 1079.773279 171.612923 
L 1082.155773 170.527432 
L 1084.538267 170.765405 
L 1086.920761 173.222721 
L 1089.303256 171.618142 
L 1091.68575 170.338515 
L 1094.068244 173.021627 
L 1096.450738 169.981555 
L 1098.833233 171.333201 
L 1101.215727 169.25024 
L 1103.598221 169.784984 
L 1105.980715 171.458102 
L 1108.363209 167.816139 
L 1110.745704 170.454718 
L 1113.128198 169.100289 
L 1115.510692 167.918078 
L 1117.893186 171.324155 
L 1120.27568 167.898595 
L 1122.658175 169.959985 
L 1125.040669 168.615297 
L 1127.423163 169.862569 
L 1129.805657 168.280604 
L 1132.188152 167.322797 
L 1134.570646 168.675139 
L 1136.95314 168.039848 
L 1139.335634 168.661222 
L 1141.718128 167.802918 
L 1144.100623 168.276777 
L 1146.483117 168.574591 
L 1148.865611 167.424388 
L 1151.248105 168.710626 
L 1156.013094 167.792829 
L 1158.395588 168.802127 
L 1160.778082 167.446307 
L 1163.160576 168.201628 
L 1165.543071 168.109431 
L 1167.925565 167.419169 
L 1170.308059 169.208143 
L 1172.690553 167.513802 
L 1175.073048 166.846503 
L 1177.455542 168.193278 
L 1179.838036 167.938257 
L 1182.22053 165.890436 
L 1184.603024 166.744564 
L 1186.985519 167.2807 
L 1189.368013 169.091244 
L 1191.750507 165.629848 
L 1194.133001 168.65496 
L 1196.515495 166.205646 
L 1198.89799 165.67125 
L 1201.280484 167.604607 
L 1203.662978 167.620611 
L 1206.045472 167.283483 
L 1208.427967 165.564788 
L 1210.810461 164.56384 
L 1213.192955 164.91071 
L 1215.575449 166.237654 
L 1217.957943 165.424231 
L 1220.340438 164.890879 
L 1222.722932 166.315239 
L 1225.105426 164.691872 
L 1229.870415 165.13755 
L 1232.252909 166.073438 
L 1234.635403 165.897046 
L 1237.017897 164.948285 
L 1239.400391 164.676216 
L 1241.782886 165.226268 
L 1244.16538 166.165636 
L 1246.547874 163.358318 
L 1248.930368 166.340636 
L 1251.312862 166.976275 
L 1253.695357 161.837935 
L 1256.077851 164.047536 
L 1258.460345 163.924026 
L 1260.842839 165.623586 
L 1263.225334 163.841571 
L 1265.607828 163.714234 
L 1267.990322 166.486064 
L 1270.372816 162.708415 
L 1272.75531 164.64386 
L 1275.137805 163.391022 
L 1277.520299 165.809372 
L 1279.902793 164.349177 
L 1282.285287 164.954547 
L 1284.667782 160.199608 
L 1287.050276 163.924026 
L 1289.43277 163.253596 
L 1291.815264 163.449124 
L 1294.197758 163.2696 
L 1296.580253 163.866968 
L 1298.962747 162.179238 
L 1301.345241 162.917164 
L 1303.727735 163.935507 
L 1306.110229 165.565136 
L 1308.492724 161.191511 
L 1310.875218 163.931333 
L 1313.257712 165.955148 
L 1315.640206 162.223075 
L 1318.022701 162.192807 
L 1320.405195 164.552359 
L 1322.787689 164.337348 
L 1325.170183 164.279594 
L 1327.552677 162.352151 
L 1329.935172 163.300913 
L 1332.317666 161.487585 
L 1334.70016 160.846728 
L 1337.082654 163.542017 
L 1339.465149 164.579844 
L 1341.847643 160.230572 
L 1344.230137 163.338139 
L 1346.612631 161.781573 
L 1348.995125 162.331972 
L 1351.37762 162.012239 
L 1353.760114 158.412722 
L 1356.142608 165.361607 
L 1358.525102 160.567353 
L 1360.907597 161.794793 
L 1363.290091 160.9431 
L 1365.672585 159.056363 
L 1368.055079 163.48148 
L 1370.437573 161.26666 
L 1372.820068 161.860201 
L 1375.202562 159.676346 
L 1377.585056 160.662334 
L 1379.96755 162.811746 
L 1382.350044 160.578138 
L 1384.732539 160.083057 
L 1387.115033 160.671727 
L 1389.497527 160.30607 
L 1394.262516 163.529144 
L 1396.64501 159.557011 
L 1399.027504 160.85299 
L 1401.409998 160.9431 
L 1403.792492 159.153083 
L 1406.174987 160.406617 
L 1408.557481 158.742197 
L 1410.939975 161.861941 
L 1413.322469 161.377992 
L 1415.704964 163.089381 
L 1418.087458 160.348167 
L 1420.469952 160.098017 
L 1422.852446 158.762376 
L 1425.23494 159.748364 
L 1427.617435 163.130435 
L 1429.999929 161.179334 
L 1432.382423 161.683461 
L 1434.764917 158.131956 
L 1437.147411 161.213081 
L 1439.529906 158.821173 
L 1441.9124 158.152831 
L 1444.294894 160.909005 
L 1446.677388 161.362684 
L 1449.059883 157.913814 
L 1451.442377 161.9938 
L 1453.824871 160.807414 
L 1456.207365 160.730873 
L 1458.589859 159.181264 
L 1460.972354 161.83376 
L 1463.354848 160.848467 
L 1465.737342 159.465858 
L 1468.119836 157.561029 
L 1470.502331 160.600753 
L 1472.884825 159.200399 
L 1475.267319 160.013126 
L 1477.649813 159.319038 
L 1480.032307 157.745771 
L 1482.414802 158.270426 
L 1487.17979 161.606224 
L 1489.562284 156.24 
L 1491.944779 160.650504 
L 1494.327273 157.937124 
L 1494.327273 157.937124 
" clip-path="url(#p6509ec93e2)" style="fill: none; stroke: #00c9a7; stroke-width: 2.25; stroke-linecap: round"/>
   </g>
   <g id="line2d_14">
    <path d="M 276.872727 861.84 
L 279.255221 857.959716 
L 281.637716 852.759795 
L 284.02021 852.547916 
L 286.402704 851.915756 
L 288.785198 847.658334 
L 291.167693 845.739589 
L 293.550187 840.473564 
L 295.932681 835.783684 
L 298.315175 835.500483 
L 300.697669 829.783214 
L 303.080164 824.895719 
L 305.462658 816.096629 
L 307.845152 809.540887 
L 310.227646 802.648713 
L 312.610141 793.136399 
L 314.992635 785.343476 
L 319.757623 767.528892 
L 322.140117 756.893165 
L 324.522612 745.370256 
L 326.905106 732.660962 
L 329.2876 723.898402 
L 331.670094 708.685519 
L 334.052589 692.55971 
L 336.435083 679.04082 
L 343.582565 627.846333 
L 345.96506 615.69057 
L 348.347554 591.731479 
L 350.730048 580.105936 
L 353.112542 556.594263 
L 355.495036 541.499323 
L 357.877531 537.070379 
L 360.260025 523.041795 
L 362.642519 513.870089 
L 365.025013 491.363887 
L 367.407508 472.958198 
L 369.790002 455.954254 
L 372.172496 445.081945 
L 374.55499 427.475414 
L 376.937484 416.665381 
L 379.319979 402.64793 
L 384.084967 386.374258 
L 386.467461 376.38565 
L 388.849956 369.36927 
L 391.23245 360.700995 
L 393.614944 358.339704 
L 398.379932 344.897702 
L 400.762427 339.834859 
L 403.144921 333.197358 
L 405.527415 329.663597 
L 407.909909 325.49698 
L 410.292403 318.29377 
L 412.674898 316.146794 
L 415.057392 313.038183 
L 417.439886 310.875202 
L 419.82238 306.705106 
L 422.204875 305.601524 
L 424.587369 300.187635 
L 426.969863 296.865406 
L 429.352357 291.971997 
L 431.734851 293.95441 
L 434.117346 288.33073 
L 436.49984 285.872718 
L 438.882334 282.091242 
L 441.264828 280.44874 
L 443.647323 274.955876 
L 446.029817 276.896887 
L 448.412311 275.983961 
L 450.794805 273.069835 
L 453.177299 269.453618 
L 455.559794 266.594461 
L 457.942288 268.576875 
L 460.324782 265.03024 
L 462.707276 264.376162 
L 465.089771 263.858466 
L 467.472265 261.285991 
L 469.854759 259.817794 
L 472.237253 259.283399 
L 474.619747 255.522449 
L 477.002242 257.781454 
L 479.384736 256.449988 
L 481.76723 252.964934 
L 484.149724 253.131933 
L 486.532218 249.163975 
L 488.914713 252.821246 
L 491.297207 251.610853 
L 496.062195 246.052929 
L 498.44469 249.622177 
L 500.827184 247.070229 
L 503.209678 245.480958 
L 505.592172 247.291502 
L 507.974666 245.706407 
L 510.357161 242.679904 
L 512.739655 245.223502 
L 515.122149 242.57379 
L 517.504643 242.361562 
L 519.887138 241.661212 
L 522.269632 241.349133 
L 524.652126 239.525368 
L 527.03462 239.344453 
L 529.417114 241.826123 
L 531.799609 237.854338 
L 534.182103 235.508702 
L 536.564597 234.716154 
L 538.947091 237.023172 
L 541.329585 235.301346 
L 543.71208 235.785294 
L 546.094574 234.181759 
L 548.477068 230.388106 
L 553.242057 233.276835 
L 555.624551 229.324881 
L 558.007045 231.222055 
L 560.389539 229.93547 
L 562.772033 227.845551 
L 565.154528 228.861112 
L 567.537022 228.507979 
L 569.919516 224.734853 
L 572.30201 226.442066 
L 577.066999 224.757467 
L 579.449493 222.074355 
L 581.831987 222.746177 
L 584.214481 225.626904 
L 586.596976 222.825153 
L 588.97947 221.930667 
L 591.361964 220.621119 
L 593.744458 222.674507 
L 596.126952 219.893283 
L 598.509447 219.117087 
L 600.891941 218.016983 
L 603.274435 222.304674 
L 605.656929 218.089001 
L 608.039424 215.873138 
L 610.421918 219.45352 
L 612.804412 219.222157 
L 615.186906 215.45077 
L 617.5694 214.654395 
L 619.951895 215.188443 
L 622.334389 214.497138 
L 624.716883 217.374038 
L 627.099377 210.69096 
L 629.481872 215.777114 
L 631.864366 213.240473 
L 634.24686 212.133411 
L 636.629354 214.201759 
L 639.011848 209.908502 
L 641.394343 210.978337 
L 643.776837 210.740016 
L 648.541825 207.671068 
L 650.92432 211.181519 
L 653.306814 211.433061 
L 655.689308 210.712531 
L 658.071802 206.258537 
L 660.454296 207.511723 
L 662.836791 207.669676 
L 665.219285 209.975997 
L 667.601779 205.618376 
L 669.984273 206.284283 
L 672.366767 203.580296 
L 674.749262 206.161817 
L 677.131756 205.160173 
L 679.51425 207.419526 
L 681.896744 204.182535 
L 684.279239 203.053207 
L 686.661733 203.173933 
L 689.044227 202.467667 
L 691.426721 202.890731 
L 693.809215 200.749669 
L 696.19171 203.618219 
L 698.574204 198.064817 
L 700.956698 202.272836 
L 703.339192 201.407574 
L 705.721687 201.077056 
L 708.104181 199.9272 
L 710.486675 197.336981 
L 712.869169 202.688593 
L 715.251663 200.337739 
L 717.634158 196.367693 
L 720.016652 199.746285 
L 722.399146 202.454795 
L 724.78164 196.222265 
L 727.164134 198.845536 
L 729.546629 196.965061 
L 731.929123 199.963383 
L 734.311617 196.365258 
L 736.694111 197.692549 
L 739.076606 194.874795 
L 741.4591 195.932453 
L 743.841594 195.600891 
L 746.224088 198.304878 
L 748.606582 193.845317 
L 750.989077 197.49737 
L 753.371571 194.366492 
L 755.754065 193.529759 
L 758.136559 193.64979 
L 760.519054 194.776683 
L 762.901548 192.785572 
L 765.284042 191.976324 
L 767.666536 195.282202 
L 770.04903 195.143732 
L 772.431525 191.626322 
L 774.814019 193.798349 
L 777.196513 192.365987 
L 779.579007 192.602569 
L 781.961502 193.127223 
L 784.343996 190.573535 
L 786.72649 190.35261 
L 791.491478 192.373642 
L 793.873973 191.210565 
L 796.256467 188.728896 
L 798.638961 192.272747 
L 801.021455 190.413495 
L 803.403949 190.260413 
L 805.786444 190.372441 
L 808.168938 191.103408 
L 810.551432 188.746639 
L 812.933926 188.593209 
L 815.316421 187.505282 
L 817.698915 191.247096 
L 820.081409 185.662035 
L 822.463903 186.339075 
L 824.846397 190.304598 
L 827.228892 186.48172 
L 829.611386 186.972278 
L 831.99388 186.306719 
L 834.376374 186.526948 
L 836.758869 188.32949 
L 839.141363 185.387183 
L 841.523857 187.836496 
L 843.906351 184.276641 
L 846.288845 185.144339 
L 848.67134 185.399012 
L 851.053834 187.027945 
L 853.436328 187.617659 
L 855.818822 184.824258 
L 858.201316 186.251053 
L 860.583811 185.46929 
L 862.966305 184.969338 
L 865.348799 186.06631 
L 870.113788 184.647518 
L 872.496282 182.517937 
L 874.878776 182.435481 
L 877.26127 184.188619 
L 879.643764 181.082444 
L 882.026259 185.532611 
L 884.408753 180.87126 
L 886.791247 178.131438 
L 889.173741 182.104963 
L 891.556236 182.435829 
L 893.93873 184.645778 
L 896.321224 181.505855 
L 898.703718 181.766791 
L 901.086212 181.34825 
L 903.468707 183.408248 
L 905.851201 179.224236 
L 908.233695 181.917437 
L 910.616189 179.327218 
L 912.998684 181.409831 
L 915.381178 180.400185 
L 917.763672 178.977913 
L 920.146166 180.374787 
L 922.52866 179.459774 
L 924.911155 181.140893 
L 927.293649 179.712011 
L 929.676143 180.105502 
L 932.058637 178.398984 
L 934.441131 180.522303 
L 936.823626 177.241822 
L 939.20612 178.393765 
L 941.588614 180.292331 
L 943.971108 176.700816 
L 946.353603 180.092281 
L 948.736097 177.289835 
L 951.118591 180.983636 
L 953.501085 177.973485 
L 955.883579 177.862501 
L 958.266074 178.476917 
L 960.648568 177.916427 
L 963.031062 177.03377 
L 965.413556 178.124828 
L 967.796051 176.492764 
L 970.178545 178.182234 
L 972.561039 175.302202 
L 974.943533 173.982217 
L 977.326027 175.079538 
L 979.708522 177.566426 
L 982.091016 174.308212 
L 984.47351 174.101552 
L 989.238498 176.846244 
L 991.620993 175.429539 
L 994.003487 174.799119 
L 996.385981 174.925412 
L 998.768475 177.651317 
L 1001.15097 175.602104 
L 1003.533464 176.109711 
L 1005.915958 174.347179 
L 1008.298452 173.437384 
L 1010.680946 175.038484 
L 1013.063441 174.540271 
L 1015.445935 175.783715 
L 1017.828429 174.666912 
L 1020.210923 176.194254 
L 1022.593418 171.236829 
L 1024.975912 175.982722 
L 1027.358406 173.280127 
L 1029.7409 175.73118 
L 1032.123394 175.582969 
L 1034.505889 172.226991 
L 1036.888383 175.633416 
L 1039.270877 172.731119 
L 1041.653371 172.514716 
L 1044.035866 173.022323 
L 1046.41836 174.240369 
L 1048.800854 170.590752 
L 1051.183348 169.061671 
L 1053.565842 173.984305 
L 1055.948337 171.393042 
L 1058.330831 169.371662 
L 1060.713325 173.113128 
L 1063.095819 170.76297 
L 1065.478313 172.850105 
L 1067.860808 172.536983 
L 1070.243302 172.648315 
L 1072.625796 168.927724 
L 1075.00829 172.359199 
L 1077.390785 171.076788 
L 1079.773279 173.293 
L 1082.155773 169.186224 
L 1084.538267 171.777487 
L 1086.920761 172.128532 
L 1089.303256 172.042249 
L 1091.68575 170.892046 
L 1094.068244 169.511524 
L 1096.450738 171.343986 
L 1098.833233 170.988418 
L 1101.215727 171.44836 
L 1103.598221 169.137168 
L 1105.980715 170.166645 
L 1108.363209 169.424545 
L 1110.745704 169.181701 
L 1113.128198 167.093522 
L 1115.510692 170.01913 
L 1120.27568 169.924845 
L 1122.658175 169.567538 
L 1125.040669 171.723908 
L 1127.423163 168.795517 
L 1129.805657 170.233445 
L 1132.188152 171.839763 
L 1134.570646 169.557448 
L 1136.95314 168.150484 
L 1139.335634 168.577027 
L 1141.718128 168.520317 
L 1144.100623 166.719514 
L 1146.483117 170.222312 
L 1148.865611 167.02046 
L 1151.248105 165.236358 
L 1153.6306 167.979311 
L 1156.013094 167.649488 
L 1158.395588 170.094279 
L 1160.778082 166.263051 
L 1163.160576 166.296451 
L 1165.543071 171.028776 
L 1167.925565 167.593822 
L 1170.308059 168.325137 
L 1172.690553 168.238507 
L 1175.073048 166.210169 
L 1177.455542 167.0055 
L 1179.838036 168.168924 
L 1182.22053 166.377863 
L 1184.603024 165.815286 
L 1186.985519 167.197896 
L 1189.368013 166.085615 
L 1191.750507 165.983329 
L 1194.133001 164.56558 
L 1196.515495 167.720115 
L 1198.89799 167.642182 
L 1201.280484 168.669224 
L 1203.662978 165.773189 
L 1206.045472 165.685862 
L 1208.427967 164.781982 
L 1210.810461 167.748296 
L 1213.192955 163.824175 
L 1215.575449 165.820505 
L 1217.957943 165.451716 
L 1220.340438 163.340227 
L 1222.722932 166.394215 
L 1225.105426 165.369261 
L 1227.48792 164.123381 
L 1229.870415 167.704459 
L 1232.252909 164.841127 
L 1234.635403 164.712399 
L 1237.017897 165.942971 
L 1239.400391 167.485621 
L 1241.782886 163.397285 
L 1244.16538 165.692473 
L 1246.547874 166.629753 
L 1248.930368 167.382638 
L 1251.312862 164.516524 
L 1253.695357 161.097226 
L 1256.077851 164.651514 
L 1258.460345 166.625926 
L 1260.842839 166.432486 
L 1263.225334 164.254892 
L 1265.607828 162.267608 
L 1267.990322 164.240976 
L 1270.372816 165.451716 
L 1272.75531 164.335261 
L 1275.137805 165.895306 
L 1277.520299 164.139385 
L 1279.902793 164.529397 
L 1282.285287 162.537589 
L 1284.667782 162.902551 
L 1287.050276 164.258372 
L 1289.43277 162.203592 
L 1291.815264 164.164087 
L 1294.197758 164.013092 
L 1296.580253 163.108864 
L 1298.962747 164.972987 
L 1301.345241 164.736753 
L 1303.727735 162.172628 
L 1306.110229 165.297242 
L 1308.492724 160.28102 
L 1310.875218 165.839988 
L 1313.257712 161.164721 
L 1315.640206 162.27735 
L 1318.022701 164.559317 
L 1320.405195 162.084953 
L 1322.787689 163.268904 
L 1325.170183 161.025208 
L 1327.552677 161.706423 
L 1329.935172 163.086945 
L 1332.317666 162.635005 
L 1334.70016 161.084701 
L 1337.082654 162.532023 
L 1339.465149 161.277793 
L 1341.847643 163.821044 
L 1344.230137 162.625264 
L 1346.612631 162.808962 
L 1348.995125 163.258467 
L 1351.37762 161.387386 
L 1353.760114 162.51915 
L 1356.142608 159.062625 
L 1358.525102 162.840275 
L 1360.907597 160.254926 
L 1363.290091 162.33232 
L 1365.672585 162.158015 
L 1368.055079 159.410887 
L 1370.437573 160.623019 
L 1372.820068 160.81472 
L 1375.202562 163.929245 
L 1377.585056 159.284595 
L 1379.96755 161.050953 
L 1382.350044 160.122719 
L 1384.732539 164.214187 
L 1387.115033 161.027295 
L 1389.497527 159.698264 
L 1391.880021 160.965714 
L 1394.262516 160.296328 
L 1399.027504 159.989816 
L 1401.409998 161.552645 
L 1403.792492 158.603379 
L 1406.174987 161.760002 
L 1408.557481 157.812223 
L 1410.939975 160.835595 
L 1413.322469 161.835847 
L 1415.704964 157.953824 
L 1418.087458 159.38549 
L 1420.469952 161.801752 
L 1422.852446 159.607111 
L 1425.23494 163.761898 
L 1427.617435 159.116204 
L 1429.999929 161.319543 
L 1432.382423 160.020432 
L 1434.764917 160.669292 
L 1437.147411 158.337573 
L 1439.529906 160.387134 
L 1441.9124 160.636936 
L 1444.294894 160.656419 
L 1446.677388 158.495178 
L 1449.059883 157.374895 
L 1451.442377 157.670622 
L 1453.824871 161.582218 
L 1456.207365 159.687131 
L 1458.589859 160.559003 
L 1460.972354 158.029669 
L 1463.354848 159.717747 
L 1465.737342 159.486732 
L 1468.119836 163.332921 
L 1470.502331 158.874404 
L 1472.884825 158.537275 
L 1475.267319 156.805012 
L 1477.649813 161.430527 
L 1480.032307 159.18196 
L 1482.414802 158.406808 
L 1484.797296 156.557297 
L 1487.17979 160.577095 
L 1489.562284 157.614608 
L 1491.944779 160.187431 
L 1494.327273 160.196477 
L 1494.327273 160.196477 
" clip-path="url(#p6509ec93e2)" style="fill: none; stroke: #ffc75f; stroke-width: 2.25; stroke-linecap: round"/>
   </g>
   <g id="patch_3">
    <path d="M 216 897.12 
L 216 120.96 
" style="fill: none; stroke: #262626; stroke-width: 1.875; stroke-linejoin: miter; stroke-linecap: square"/>
   </g>
   <g id="patch_4">
    <path d="M 1555.2 897.12 
L 1555.2 120.96 
" style="fill: none; stroke: #262626; stroke-width: 1.875; stroke-linejoin: miter; stroke-linecap: square"/>
   </g>
   <g id="patch_5">
    <path d="M 216 897.12 
L 1555.2 897.12 
" style="fill: none; stroke: #262626; stroke-width: 1.875; stroke-linejoin: miter; stroke-linecap: square"/>
   </g>
   <g id="patch_6">
    <path d="M 216 120.96 
L 1555.2 120.96 
" style="fill: none; stroke: #262626; stroke-width: 1.875; stroke-linejoin: miter; stroke-linecap: square"/>
   </g>
   <g id="text_15">
    <!-- Df(Z) -->
    <g style="fill: #262626" transform="translate(820.916406 110.561563)scale(0.5 -0.5)">
     <use xlink:href="#DejaVuSans-44"/>
     <use xlink:href="#DejaVuSans-66" x="77.001953"/>
     <use xlink:href="#DejaVuSans-28" x="112.207031"/>
     <use xlink:href="#DejaVuSans-5a" x="151.220703"/>
     <use xlink:href="#DejaVuSans-29" x="219.726562"/>
    </g>
   </g>
   <g id="legend_1">
    <g id="patch_7">
     <path d="M 227.55 182.597813 
L 361.029844 182.597813 
Q 364.329844 182.597813 364.329844 179.297813 
L 364.329844 132.51 
Q 364.329844 129.21 361.029844 129.21 
L 227.55 129.21 
Q 224.25 129.21 224.25 132.51 
L 224.25 179.297813 
Q 224.25 182.597813 227.55 182.597813 
z
" style="fill: #ffffff; opacity: 0.8; stroke: #cccccc; stroke-width: 1.5; stroke-linejoin: miter"/>
    </g>
    <g id="line2d_15">
     <path d="M 230.85 142.572422 
L 247.35 142.572422 
L 263.85 142.572422 
" style="fill: none; stroke: #00c9a7; stroke-width: 2.25; stroke-linecap: round"/>
    </g>
    <g id="text_16">
     <!-- df trace -->
     <g style="fill: #262626" transform="translate(277.05 148.347422)scale(0.165 -0.165)">
      <defs>
       <path id="DejaVuSans-64" d="M 2906 2969 
L 2906 4863 
L 3481 4863 
L 3481 0 
L 2906 0 
L 2906 525 
Q 2725 213 2448 61 
Q 2172 -91 1784 -91 
Q 1150 -91 751 415 
Q 353 922 353 1747 
Q 353 2572 751 3078 
Q 1150 3584 1784 3584 
Q 2172 3584 2448 3432 
Q 2725 3281 2906 2969 
z
M 947 1747 
Q 947 1113 1208 752 
Q 1469 391 1925 391 
Q 2381 391 2643 752 
Q 2906 1113 2906 1747 
Q 2906 2381 2643 2742 
Q 2381 3103 1925 3103 
Q 1469 3103 1208 2742 
Q 947 2381 947 1747 
z
" transform="scale(0.015625)"/>
       <path id="DejaVuSans-74" d="M 1172 4494 
L 1172 3500 
L 2356 3500 
L 2356 3053 
L 1172 3053 
L 1172 1153 
Q 1172 725 1289 603 
Q 1406 481 1766 481 
L 2356 481 
L 2356 0 
L 1766 0 
Q 1100 0 847 248 
Q 594 497 594 1153 
L 594 3053 
L 172 3053 
L 172 3500 
L 594 3500 
L 594 4494 
L 1172 4494 
z
" transform="scale(0.015625)"/>
       <path id="DejaVuSans-72" d="M 2631 2963 
Q 2534 3019 2420 3045 
Q 2306 3072 2169 3072 
Q 1681 3072 1420 2755 
Q 1159 2438 1159 1844 
L 1159 0 
L 581 0 
L 581 3500 
L 1159 3500 
L 1159 2956 
Q 1341 3275 1631 3429 
Q 1922 3584 2338 3584 
Q 2397 3584 2469 3576 
Q 2541 3569 2628 3553 
L 2631 2963 
z
" transform="scale(0.015625)"/>
       <path id="DejaVuSans-61" d="M 2194 1759 
Q 1497 1759 1228 1600 
Q 959 1441 959 1056 
Q 959 750 1161 570 
Q 1363 391 1709 391 
Q 2188 391 2477 730 
Q 2766 1069 2766 1631 
L 2766 1759 
L 2194 1759 
z
M 3341 1997 
L 3341 0 
L 2766 0 
L 2766 531 
Q 2569 213 2275 61 
Q 1981 -91 1556 -91 
Q 1019 -91 701 211 
Q 384 513 384 1019 
Q 384 1609 779 1909 
Q 1175 2209 1959 2209 
L 2766 2209 
L 2766 2266 
Q 2766 2663 2505 2880 
Q 2244 3097 1772 3097 
Q 1472 3097 1187 3025 
Q 903 2953 641 2809 
L 641 3341 
Q 956 3463 1253 3523 
Q 1550 3584 1831 3584 
Q 2591 3584 2966 3190 
Q 3341 2797 3341 1997 
z
" transform="scale(0.015625)"/>
       <path id="DejaVuSans-63" d="M 3122 3366 
L 3122 2828 
Q 2878 2963 2633 3030 
Q 2388 3097 2138 3097 
Q 1578 3097 1268 2742 
Q 959 2388 959 1747 
Q 959 1106 1268 751 
Q 1578 397 2138 397 
Q 2388 397 2633 464 
Q 2878 531 3122 666 
L 3122 134 
Q 2881 22 2623 -34 
Q 2366 -91 2075 -91 
Q 1284 -91 818 406 
Q 353 903 353 1747 
Q 353 2603 823 3093 
Q 1294 3584 2113 3584 
Q 2378 3584 2631 3529 
Q 2884 3475 3122 3366 
z
" transform="scale(0.015625)"/>
       <path id="DejaVuSans-65" d="M 3597 1894 
L 3597 1613 
L 953 1613 
Q 991 1019 1311 708 
Q 1631 397 2203 397 
Q 2534 397 2845 478 
Q 3156 559 3463 722 
L 3463 178 
Q 3153 47 2828 -22 
Q 2503 -91 2169 -91 
Q 1331 -91 842 396 
Q 353 884 353 1716 
Q 353 2575 817 3079 
Q 1281 3584 2069 3584 
Q 2775 3584 3186 3129 
Q 3597 2675 3597 1894 
z
M 3022 2063 
Q 3016 2534 2758 2815 
Q 2500 3097 2075 3097 
Q 1594 3097 1305 2825 
Q 1016 2553 972 2059 
L 3022 2063 
z
" transform="scale(0.015625)"/>
      </defs>
      <use xlink:href="#DejaVuSans-64"/>
      <use xlink:href="#DejaVuSans-66" x="63.476562"/>
      <use xlink:href="#DejaVuSans-20" x="98.681641"/>
      <use xlink:href="#DejaVuSans-74" x="130.46875"/>
      <use xlink:href="#DejaVuSans-72" x="169.677734"/>
      <use xlink:href="#DejaVuSans-61" x="210.791016"/>
      <use xlink:href="#DejaVuSans-63" x="272.070312"/>
      <use xlink:href="#DejaVuSans-65" x="327.050781"/>
     </g>
    </g>
    <g id="line2d_16">
     <path d="M 230.85 166.791328 
L 247.35 166.791328 
L 263.85 166.791328 
" style="fill: none; stroke: #ffc75f; stroke-width: 2.25; stroke-linecap: round"/>
    </g>
    <g id="text_17">
     <!-- df retrace -->
     <g style="fill: #262626" transform="translate(277.05 172.566328)scale(0.165 -0.165)">
      <use xlink:href="#DejaVuSans-64"/>
      <use xlink:href="#DejaVuSans-66" x="63.476562"/>
      <use xlink:href="#DejaVuSans-20" x="98.681641"/>
      <use xlink:href="#DejaVuSans-72" x="130.46875"/>
      <use xlink:href="#DejaVuSans-65" x="169.332031"/>
      <use xlink:href="#DejaVuSans-74" x="230.855469"/>
      <use xlink:href="#DejaVuSans-72" x="270.064453"/>
      <use xlink:href="#DejaVuSans-61" x="311.177734"/>
      <use xlink:href="#DejaVuSans-63" x="372.457031"/>
      <use xlink:href="#DejaVuSans-65" x="427.4375"/>
     </g>
    </g>
   </g>
  </g>
 </g>
 <defs>
  <clipPath id="p6509ec93e2">
   <rect x="216" y="120.96" width="1339.2" height="776.16"/>
  </clipPath>
 </defs>
</svg>
