<?xml version="1.0" encoding="utf-8" standalone="no"?>
<!DOCTYPE svg PUBLIC "-//W3C//DTD SVG 1.1//EN"
  "http://www.w3.org/Graphics/SVG/1.1/DTD/svg11.dtd">
<svg xmlns:xlink="http://www.w3.org/1999/xlink" width="1728pt" height="1008pt" viewBox="0 0 1728 1008" xmlns="http://www.w3.org/2000/svg" version="1.1">
 <metadata>
  <rdf:RDF xmlns:dc="http://purl.org/dc/elements/1.1/" xmlns:cc="http://creativecommons.org/ns#" xmlns:rdf="http://www.w3.org/1999/02/22-rdf-syntax-ns#">
   <cc:Work>
    <dc:type rdf:resource="http://purl.org/dc/dcmitype/StillImage"/>
    <dc:date>2022-10-28T13:00:52.690774</dc:date>
    <dc:format>image/svg+xml</dc:format>
    <dc:creator>
     <cc:Agent>
      <dc:title>Matplotlib v3.5.2, https://matplotlib.org/</dc:title>
     </cc:Agent>
    </dc:creator>
   </cc:Work>
  </rdf:RDF>
 </metadata>
 <defs>
  <style type="text/css">*{stroke-linejoin: round; stroke-linecap: butt}</style>
 </defs>
 <g id="figure_1">
  <g id="patch_1">
   <path d="M 0 1008 
L 1728 1008 
L 1728 0 
L 0 0 
z
" style="fill: #ffffff"/>
  </g>
  <g id="axes_1">
   <g id="patch_2">
    <path d="M 216 897.12 
L 1555.2 897.12 
L 1555.2 120.96 
L 216 120.96 
L 216 897.12 
z
" style="fill: none"/>
   </g>
   <g id="matplotlib.axis_1">
    <g id="xtick_1">
     <g id="line2d_1">
      <defs>
       <path id="mb36feb7d4b" d="M 0 0 
L 0 9 
" style="stroke: #262626; stroke-width: 1.875"/>
      </defs>
      <g>
       <use xlink:href="#mb36feb7d4b" x="435.828637" y="897.12" style="fill: #262626; stroke: #262626; stroke-width: 1.875"/>
      </g>
     </g>
     <g id="text_1">
      <!-- 0.0 -->
      <g style="fill: #262626" transform="translate(397.661137 946.0925)scale(0.48 -0.48)">
       <defs>
        <path id="DejaVuSans-30" d="M 2034 4250 
Q 1547 4250 1301 3770 
Q 1056 3291 1056 2328 
Q 1056 1369 1301 889 
Q 1547 409 2034 409 
Q 2525 409 2770 889 
Q 3016 1369 3016 2328 
Q 3016 3291 2770 3770 
Q 2525 4250 2034 4250 
z
M 2034 4750 
Q 2819 4750 3233 4129 
Q 3647 3509 3647 2328 
Q 3647 1150 3233 529 
Q 2819 -91 2034 -91 
Q 1250 -91 836 529 
Q 422 1150 422 2328 
Q 422 3509 836 4129 
Q 1250 4750 2034 4750 
z
" transform="scale(0.015625)"/>
        <path id="DejaVuSans-2e" d="M 684 794 
L 1344 794 
L 1344 0 
L 684 0 
L 684 794 
z
" transform="scale(0.015625)"/>
       </defs>
       <use xlink:href="#DejaVuSans-30"/>
       <use xlink:href="#DejaVuSans-2e" x="63.623047"/>
       <use xlink:href="#DejaVuSans-30" x="95.410156"/>
      </g>
     </g>
    </g>
    <g id="xtick_2">
     <g id="line2d_2">
      <g>
       <use xlink:href="#mb36feb7d4b" x="700.755153" y="897.12" style="fill: #262626; stroke: #262626; stroke-width: 1.875"/>
      </g>
     </g>
     <g id="text_2">
      <!-- 0.5 -->
      <g style="fill: #262626" transform="translate(662.587653 946.0925)scale(0.48 -0.48)">
       <defs>
        <path id="DejaVuSans-35" d="M 691 4666 
L 3169 4666 
L 3169 4134 
L 1269 4134 
L 1269 2991 
Q 1406 3038 1543 3061 
Q 1681 3084 1819 3084 
Q 2600 3084 3056 2656 
Q 3513 2228 3513 1497 
Q 3513 744 3044 326 
Q 2575 -91 1722 -91 
Q 1428 -91 1123 -41 
Q 819 9 494 109 
L 494 744 
Q 775 591 1075 516 
Q 1375 441 1709 441 
Q 2250 441 2565 725 
Q 2881 1009 2881 1497 
Q 2881 1984 2565 2268 
Q 2250 2553 1709 2553 
Q 1456 2553 1204 2497 
Q 953 2441 691 2322 
L 691 4666 
z
" transform="scale(0.015625)"/>
       </defs>
       <use xlink:href="#DejaVuSans-30"/>
       <use xlink:href="#DejaVuSans-2e" x="63.623047"/>
       <use xlink:href="#DejaVuSans-35" x="95.410156"/>
      </g>
     </g>
    </g>
    <g id="xtick_3">
     <g id="line2d_3">
      <g>
       <use xlink:href="#mb36feb7d4b" x="965.681669" y="897.12" style="fill: #262626; stroke: #262626; stroke-width: 1.875"/>
      </g>
     </g>
     <g id="text_3">
      <!-- 1.0 -->
      <g style="fill: #262626" transform="translate(927.514169 946.0925)scale(0.48 -0.48)">
       <defs>
        <path id="DejaVuSans-31" d="M 794 531 
L 1825 531 
L 1825 4091 
L 703 3866 
L 703 4441 
L 1819 4666 
L 2450 4666 
L 2450 531 
L 3481 531 
L 3481 0 
L 794 0 
L 794 531 
z
" transform="scale(0.015625)"/>
       </defs>
       <use xlink:href="#DejaVuSans-31"/>
       <use xlink:href="#DejaVuSans-2e" x="63.623047"/>
       <use xlink:href="#DejaVuSans-30" x="95.410156"/>
      </g>
     </g>
    </g>
    <g id="xtick_4">
     <g id="line2d_4">
      <g>
       <use xlink:href="#mb36feb7d4b" x="1230.608185" y="897.12" style="fill: #262626; stroke: #262626; stroke-width: 1.875"/>
      </g>
     </g>
     <g id="text_4">
      <!-- 1.5 -->
      <g style="fill: #262626" transform="translate(1192.440685 946.0925)scale(0.48 -0.48)">
       <use xlink:href="#DejaVuSans-31"/>
       <use xlink:href="#DejaVuSans-2e" x="63.623047"/>
       <use xlink:href="#DejaVuSans-35" x="95.410156"/>
      </g>
     </g>
    </g>
    <g id="xtick_5">
     <g id="line2d_5">
      <g>
       <use xlink:href="#mb36feb7d4b" x="1495.5347" y="897.12" style="fill: #262626; stroke: #262626; stroke-width: 1.875"/>
      </g>
     </g>
     <g id="text_5">
      <!-- 2.0 -->
      <g style="fill: #262626" transform="translate(1457.3672 946.0925)scale(0.48 -0.48)">
       <defs>
        <path id="DejaVuSans-32" d="M 1228 531 
L 3431 531 
L 3431 0 
L 469 0 
L 469 531 
Q 828 903 1448 1529 
Q 2069 2156 2228 2338 
Q 2531 2678 2651 2914 
Q 2772 3150 2772 3378 
Q 2772 3750 2511 3984 
Q 2250 4219 1831 4219 
Q 1534 4219 1204 4116 
Q 875 4013 500 3803 
L 500 4441 
Q 881 4594 1212 4672 
Q 1544 4750 1819 4750 
Q 2544 4750 2975 4387 
Q 3406 4025 3406 3419 
Q 3406 3131 3298 2873 
Q 3191 2616 2906 2266 
Q 2828 2175 2409 1742 
Q 1991 1309 1228 531 
z
" transform="scale(0.015625)"/>
       </defs>
       <use xlink:href="#DejaVuSans-32"/>
       <use xlink:href="#DejaVuSans-2e" x="63.623047"/>
       <use xlink:href="#DejaVuSans-30" x="95.410156"/>
      </g>
     </g>
    </g>
    <g id="text_6">
     <!-- Z [nm] -->
     <g style="fill: #262626" transform="translate(804.2175 996.5475)scale(0.48 -0.48)">
      <defs>
       <path id="DejaVuSans-5a" d="M 359 4666 
L 4025 4666 
L 4025 4184 
L 1075 531 
L 4097 531 
L 4097 0 
L 288 0 
L 288 481 
L 3238 4134 
L 359 4134 
L 359 4666 
z
" transform="scale(0.015625)"/>
       <path id="DejaVuSans-20" transform="scale(0.015625)"/>
       <path id="DejaVuSans-5b" d="M 550 4863 
L 1875 4863 
L 1875 4416 
L 1125 4416 
L 1125 -397 
L 1875 -397 
L 1875 -844 
L 550 -844 
L 550 4863 
z
" transform="scale(0.015625)"/>
       <path id="DejaVuSans-6e" d="M 3513 2113 
L 3513 0 
L 2938 0 
L 2938 2094 
Q 2938 2591 2744 2837 
Q 2550 3084 2163 3084 
Q 1697 3084 1428 2787 
Q 1159 2491 1159 1978 
L 1159 0 
L 581 0 
L 581 3500 
L 1159 3500 
L 1159 2956 
Q 1366 3272 1645 3428 
Q 1925 3584 2291 3584 
Q 2894 3584 3203 3211 
Q 3513 2838 3513 2113 
z
" transform="scale(0.015625)"/>
       <path id="DejaVuSans-6d" d="M 3328 2828 
Q 3544 3216 3844 3400 
Q 4144 3584 4550 3584 
Q 5097 3584 5394 3201 
Q 5691 2819 5691 2113 
L 5691 0 
L 5113 0 
L 5113 2094 
Q 5113 2597 4934 2840 
Q 4756 3084 4391 3084 
Q 3944 3084 3684 2787 
Q 3425 2491 3425 1978 
L 3425 0 
L 2847 0 
L 2847 2094 
Q 2847 2600 2669 2842 
Q 2491 3084 2119 3084 
Q 1678 3084 1418 2786 
Q 1159 2488 1159 1978 
L 1159 0 
L 581 0 
L 581 3500 
L 1159 3500 
L 1159 2956 
Q 1356 3278 1631 3431 
Q 1906 3584 2284 3584 
Q 2666 3584 2933 3390 
Q 3200 3197 3328 2828 
z
" transform="scale(0.015625)"/>
       <path id="DejaVuSans-5d" d="M 1947 4863 
L 1947 -844 
L 622 -844 
L 622 -397 
L 1369 -397 
L 1369 4416 
L 622 4416 
L 622 4863 
L 1947 4863 
z
" transform="scale(0.015625)"/>
      </defs>
      <use xlink:href="#DejaVuSans-5a"/>
      <use xlink:href="#DejaVuSans-20" x="68.505859"/>
      <use xlink:href="#DejaVuSans-5b" x="100.292969"/>
      <use xlink:href="#DejaVuSans-6e" x="139.306641"/>
      <use xlink:href="#DejaVuSans-6d" x="202.685547"/>
      <use xlink:href="#DejaVuSans-5d" x="300.097656"/>
     </g>
    </g>
   </g>
   <g id="matplotlib.axis_2">
    <g id="ytick_1">
     <g id="line2d_6">
      <defs>
       <path id="m6c18b031b2" d="M 0 0 
L -9 0 
" style="stroke: #262626; stroke-width: 1.875"/>
      </defs>
      <g>
       <use xlink:href="#m6c18b031b2" x="216" y="818.554873" style="fill: #262626; stroke: #262626; stroke-width: 1.875"/>
      </g>
     </g>
     <g id="text_7">
      <!-- −3.5 -->
      <g style="fill: #262626" transform="translate(86.9425 836.791123)scale(0.48 -0.48)">
       <defs>
        <path id="DejaVuSans-2212" d="M 678 2272 
L 4684 2272 
L 4684 1741 
L 678 1741 
L 678 2272 
z
" transform="scale(0.015625)"/>
        <path id="DejaVuSans-33" d="M 2597 2516 
Q 3050 2419 3304 2112 
Q 3559 1806 3559 1356 
Q 3559 666 3084 287 
Q 2609 -91 1734 -91 
Q 1441 -91 1130 -33 
Q 819 25 488 141 
L 488 750 
Q 750 597 1062 519 
Q 1375 441 1716 441 
Q 2309 441 2620 675 
Q 2931 909 2931 1356 
Q 2931 1769 2642 2001 
Q 2353 2234 1838 2234 
L 1294 2234 
L 1294 2753 
L 1863 2753 
Q 2328 2753 2575 2939 
Q 2822 3125 2822 3475 
Q 2822 3834 2567 4026 
Q 2313 4219 1838 4219 
Q 1578 4219 1281 4162 
Q 984 4106 628 3988 
L 628 4550 
Q 988 4650 1302 4700 
Q 1616 4750 1894 4750 
Q 2613 4750 3031 4423 
Q 3450 4097 3450 3541 
Q 3450 3153 3228 2886 
Q 3006 2619 2597 2516 
z
" transform="scale(0.015625)"/>
       </defs>
       <use xlink:href="#DejaVuSans-2212"/>
       <use xlink:href="#DejaVuSans-33" x="83.789062"/>
       <use xlink:href="#DejaVuSans-2e" x="147.412109"/>
       <use xlink:href="#DejaVuSans-35" x="179.199219"/>
      </g>
     </g>
    </g>
    <g id="ytick_2">
     <g id="line2d_7">
      <g>
       <use xlink:href="#m6c18b031b2" x="216" y="724.197714" style="fill: #262626; stroke: #262626; stroke-width: 1.875"/>
      </g>
     </g>
     <g id="text_8">
      <!-- −3.0 -->
      <g style="fill: #262626" transform="translate(86.9425 742.433964)scale(0.48 -0.48)">
       <use xlink:href="#DejaVuSans-2212"/>
       <use xlink:href="#DejaVuSans-33" x="83.789062"/>
       <use xlink:href="#DejaVuSans-2e" x="147.412109"/>
       <use xlink:href="#DejaVuSans-30" x="179.199219"/>
      </g>
     </g>
    </g>
    <g id="ytick_3">
     <g id="line2d_8">
      <g>
       <use xlink:href="#m6c18b031b2" x="216" y="629.840555" style="fill: #262626; stroke: #262626; stroke-width: 1.875"/>
      </g>
     </g>
     <g id="text_9">
      <!-- −2.5 -->
      <g style="fill: #262626" transform="translate(86.9425 648.076805)scale(0.48 -0.48)">
       <use xlink:href="#DejaVuSans-2212"/>
       <use xlink:href="#DejaVuSans-32" x="83.789062"/>
       <use xlink:href="#DejaVuSans-2e" x="147.412109"/>
       <use xlink:href="#DejaVuSans-35" x="179.199219"/>
      </g>
     </g>
    </g>
    <g id="ytick_4">
     <g id="line2d_9">
      <g>
       <use xlink:href="#m6c18b031b2" x="216" y="535.483396" style="fill: #262626; stroke: #262626; stroke-width: 1.875"/>
      </g>
     </g>
     <g id="text_10">
      <!-- −2.0 -->
      <g style="fill: #262626" transform="translate(86.9425 553.719646)scale(0.48 -0.48)">
       <use xlink:href="#DejaVuSans-2212"/>
       <use xlink:href="#DejaVuSans-32" x="83.789062"/>
       <use xlink:href="#DejaVuSans-2e" x="147.412109"/>
       <use xlink:href="#DejaVuSans-30" x="179.199219"/>
      </g>
     </g>
    </g>
    <g id="ytick_5">
     <g id="line2d_10">
      <g>
       <use xlink:href="#m6c18b031b2" x="216" y="441.126237" style="fill: #262626; stroke: #262626; stroke-width: 1.875"/>
      </g>
     </g>
     <g id="text_11">
      <!-- −1.5 -->
      <g style="fill: #262626" transform="translate(86.9425 459.362487)scale(0.48 -0.48)">
       <use xlink:href="#DejaVuSans-2212"/>
       <use xlink:href="#DejaVuSans-31" x="83.789062"/>
       <use xlink:href="#DejaVuSans-2e" x="147.412109"/>
       <use xlink:href="#DejaVuSans-35" x="179.199219"/>
      </g>
     </g>
    </g>
    <g id="ytick_6">
     <g id="line2d_11">
      <g>
       <use xlink:href="#m6c18b031b2" x="216" y="346.769078" style="fill: #262626; stroke: #262626; stroke-width: 1.875"/>
      </g>
     </g>
     <g id="text_12">
      <!-- −1.0 -->
      <g style="fill: #262626" transform="translate(86.9425 365.005328)scale(0.48 -0.48)">
       <use xlink:href="#DejaVuSans-2212"/>
       <use xlink:href="#DejaVuSans-31" x="83.789062"/>
       <use xlink:href="#DejaVuSans-2e" x="147.412109"/>
       <use xlink:href="#DejaVuSans-30" x="179.199219"/>
      </g>
     </g>
    </g>
    <g id="ytick_7">
     <g id="line2d_12">
      <g>
       <use xlink:href="#m6c18b031b2" x="216" y="252.411919" style="fill: #262626; stroke: #262626; stroke-width: 1.875"/>
      </g>
     </g>
     <g id="text_13">
      <!-- −0.5 -->
      <g style="fill: #262626" transform="translate(86.9425 270.648169)scale(0.48 -0.48)">
       <use xlink:href="#DejaVuSans-2212"/>
       <use xlink:href="#DejaVuSans-30" x="83.789062"/>
       <use xlink:href="#DejaVuSans-2e" x="147.412109"/>
       <use xlink:href="#DejaVuSans-35" x="179.199219"/>
      </g>
     </g>
    </g>
    <g id="ytick_8">
     <g id="line2d_13">
      <g>
       <use xlink:href="#m6c18b031b2" x="216" y="158.054759" style="fill: #262626; stroke: #262626; stroke-width: 1.875"/>
      </g>
     </g>
     <g id="text_14">
      <!-- 0.0 -->
      <g style="fill: #262626" transform="translate(127.165 176.291009)scale(0.48 -0.48)">
       <use xlink:href="#DejaVuSans-30"/>
       <use xlink:href="#DejaVuSans-2e" x="63.623047"/>
       <use xlink:href="#DejaVuSans-30" x="95.410156"/>
      </g>
     </g>
    </g>
    <g id="text_15">
     <!-- Df(Z) [Hz] -->
     <g style="fill: #262626" transform="translate(72.96 628.13625)rotate(-90)scale(0.48 -0.48)">
      <defs>
       <path id="DejaVuSans-44" d="M 1259 4147 
L 1259 519 
L 2022 519 
Q 2988 519 3436 956 
Q 3884 1394 3884 2338 
Q 3884 3275 3436 3711 
Q 2988 4147 2022 4147 
L 1259 4147 
z
M 628 4666 
L 1925 4666 
Q 3281 4666 3915 4102 
Q 4550 3538 4550 2338 
Q 4550 1131 3912 565 
Q 3275 0 1925 0 
L 628 0 
L 628 4666 
z
" transform="scale(0.015625)"/>
       <path id="DejaVuSans-66" d="M 2375 4863 
L 2375 4384 
L 1825 4384 
Q 1516 4384 1395 4259 
Q 1275 4134 1275 3809 
L 1275 3500 
L 2222 3500 
L 2222 3053 
L 1275 3053 
L 1275 0 
L 697 0 
L 697 3053 
L 147 3053 
L 147 3500 
L 697 3500 
L 697 3744 
Q 697 4328 969 4595 
Q 1241 4863 1831 4863 
L 2375 4863 
z
" transform="scale(0.015625)"/>
       <path id="DejaVuSans-28" d="M 1984 4856 
Q 1566 4138 1362 3434 
Q 1159 2731 1159 2009 
Q 1159 1288 1364 580 
Q 1569 -128 1984 -844 
L 1484 -844 
Q 1016 -109 783 600 
Q 550 1309 550 2009 
Q 550 2706 781 3412 
Q 1013 4119 1484 4856 
L 1984 4856 
z
" transform="scale(0.015625)"/>
       <path id="DejaVuSans-29" d="M 513 4856 
L 1013 4856 
Q 1481 4119 1714 3412 
Q 1947 2706 1947 2009 
Q 1947 1309 1714 600 
Q 1481 -109 1013 -844 
L 513 -844 
Q 928 -128 1133 580 
Q 1338 1288 1338 2009 
Q 1338 2731 1133 3434 
Q 928 4138 513 4856 
z
" transform="scale(0.015625)"/>
       <path id="DejaVuSans-48" d="M 628 4666 
L 1259 4666 
L 1259 2753 
L 3553 2753 
L 3553 4666 
L 4184 4666 
L 4184 0 
L 3553 0 
L 3553 2222 
L 1259 2222 
L 1259 0 
L 628 0 
L 628 4666 
z
" transform="scale(0.015625)"/>
       <path id="DejaVuSans-7a" d="M 353 3500 
L 3084 3500 
L 3084 2975 
L 922 459 
L 3084 459 
L 3084 0 
L 275 0 
L 275 525 
L 2438 3041 
L 353 3041 
L 353 3500 
z
" transform="scale(0.015625)"/>
      </defs>
      <use xlink:href="#DejaVuSans-44"/>
      <use xlink:href="#DejaVuSans-66" x="77.001953"/>
      <use xlink:href="#DejaVuSans-28" x="112.207031"/>
      <use xlink:href="#DejaVuSans-5a" x="151.220703"/>
      <use xlink:href="#DejaVuSans-29" x="219.726562"/>
      <use xlink:href="#DejaVuSans-20" x="258.740234"/>
      <use xlink:href="#DejaVuSans-5b" x="290.527344"/>
      <use xlink:href="#DejaVuSans-48" x="329.541016"/>
      <use xlink:href="#DejaVuSans-7a" x="404.736328"/>
      <use xlink:href="#DejaVuSans-5d" x="457.226562"/>
     </g>
    </g>
   </g>
   <g id="line2d_14">
    <path d="M 276.872727 852.574264 
L 279.255221 837.3335 
L 281.637716 827.931452 
L 286.402704 799.046218 
L 288.785198 781.436392 
L 291.167693 771.692209 
L 293.550187 759.020584 
L 295.932681 748.449429 
L 298.315175 738.79943 
L 300.697669 733.721194 
L 303.080164 719.08279 
L 305.462658 708.023458 
L 307.845152 699.739456 
L 310.227646 694.371371 
L 312.610141 680.404733 
L 314.992635 674.096888 
L 317.375129 670.310324 
L 319.757623 661.685995 
L 322.140117 649.334499 
L 324.522612 641.824875 
L 326.905106 635.769394 
L 329.2876 629.375456 
L 331.670094 624.235982 
L 334.052589 619.926944 
L 336.435083 609.843446 
L 338.817577 603.392071 
L 341.200071 594.132664 
L 343.582565 587.182354 
L 345.96506 581.652167 
L 348.347554 581.35386 
L 350.730048 570.659005 
L 353.112542 565.109662 
L 355.495036 558.727064 
L 357.877531 555.948975 
L 360.260025 546.912754 
L 362.642519 541.572131 
L 365.025013 539.752958 
L 367.407508 535.859429 
L 369.790002 530.117426 
L 372.172496 523.534751 
L 374.55499 520.479074 
L 376.937484 516.018109 
L 379.319979 510.460214 
L 381.702473 507.642098 
L 384.084967 501.333946 
L 386.467461 498.191441 
L 388.849956 496.755319 
L 391.23245 497.09868 
L 393.614944 488.063746 
L 395.997438 482.057059 
L 398.379932 476.811693 
L 400.762427 478.24953 
L 403.144921 473.532799 
L 405.527415 468.302359 
L 407.909909 458.542484 
L 410.292403 458.442231 
L 412.674898 456.367414 
L 415.057392 456.997957 
L 417.439886 452.074405 
L 419.82238 446.402037 
L 422.204875 440.108076 
L 424.587369 441.185205 
L 426.969863 440.740917 
L 429.352357 435.859815 
L 431.734851 431.50704 
L 434.117346 429.676773 
L 436.49984 428.801866 
L 438.882334 424.024051 
L 441.264828 418.571344 
L 443.647323 414.686733 
L 446.029817 411.67421 
L 448.412311 410.568914 
L 450.794805 410.342633 
L 453.177299 408.018302 
L 455.559794 402.734196 
L 457.942288 400.118179 
L 460.324782 397.168211 
L 462.707276 398.981867 
L 465.089771 399.044728 
L 467.472265 394.122249 
L 469.854759 385.279638 
L 472.237253 384.751862 
L 474.619747 388.661206 
L 477.002242 382.415671 
L 479.384736 378.73221 
L 481.76723 377.349816 
L 484.149724 376.883215 
L 486.532218 371.309476 
L 488.914713 374.950733 
L 491.297207 377.74056 
L 493.679701 368.986923 
L 496.062195 361.255768 
L 498.44469 364.848998 
L 500.827184 370.004042 
L 503.209678 363.122631 
L 505.592172 354.632575 
L 507.974666 355.329932 
L 510.357161 359.615923 
L 512.739655 355.686227 
L 515.122149 351.424481 
L 517.504643 351.414091 
L 519.887138 355.664405 
L 522.269632 352.824926 
L 524.652126 347.618148 
L 527.03462 346.481866 
L 529.417114 345.809579 
L 531.799609 343.484452 
L 534.182103 340.249724 
L 536.564597 339.239716 
L 538.947091 338.610369 
L 541.329585 335.767457 
L 543.71208 335.888367 
L 546.094574 332.383713 
L 548.477068 334.040385 
L 550.859562 333.14764 
L 553.242057 333.21516 
L 555.624551 328.505569 
L 558.007045 325.95885 
L 560.389539 325.632775 
L 562.772033 323.959859 
L 567.537022 319.388956 
L 569.919516 319.426715 
L 572.30201 318.54102 
L 574.684505 316.210897 
L 577.066999 314.224411 
L 579.449493 313.878905 
L 581.831987 316.125999 
L 584.214481 312.340599 
L 586.596976 309.051867 
L 588.97947 307.47191 
L 591.361964 310.591061 
L 593.744458 307.931737 
L 596.126952 306.56096 
L 598.509447 304.993048 
L 600.891941 303.886587 
L 603.274435 303.450206 
L 605.656929 300.685971 
L 608.039424 302.416476 
L 610.421918 301.021424 
L 612.804412 298.370314 
L 615.186906 295.199673 
L 617.5694 297.352215 
L 619.951895 296.851747 
L 622.334389 292.99328 
L 624.716883 291.107997 
L 627.099377 291.11097 
L 629.481872 292.357344 
L 631.864366 292.247344 
L 634.24686 290.156529 
L 636.629354 289.246805 
L 639.011848 292.185249 
L 641.394343 287.040995 
L 643.776837 286.244549 
L 646.159331 283.591477 
L 648.541825 286.390653 
L 650.92432 283.220471 
L 653.306814 283.846018 
L 655.689308 280.118728 
L 658.071802 280.544198 
L 660.454296 282.579416 
L 662.836791 281.848805 
L 665.219285 277.089072 
L 667.601779 274.206348 
L 669.984273 275.925911 
L 672.366767 275.742998 
L 674.749262 275.875065 
L 677.131756 274.788526 
L 679.51425 277.033874 
L 681.896744 276.723276 
L 684.279239 274.990779 
L 686.661733 266.796762 
L 689.044227 264.149913 
L 691.426721 267.564766 
L 693.809215 271.875091 
L 696.19171 267.154559 
L 698.574204 264.260831 
L 700.956698 265.224498 
L 703.339192 267.556827 
L 708.104181 261.087309 
L 710.486675 261.377831 
L 712.869169 264.011685 
L 715.251663 265.759323 
L 717.634158 262.663496 
L 720.016652 260.681883 
L 722.399146 253.439764 
L 724.78164 255.446478 
L 727.164134 256.731316 
L 729.546629 258.599282 
L 731.929123 258.759577 
L 734.311617 262.603914 
L 736.694111 258.821641 
L 739.076606 253.297185 
L 741.4591 252.470121 
L 743.841594 253.717536 
L 746.224088 254.710411 
L 748.606582 255.958041 
L 750.989077 253.980321 
L 753.371571 246.683524 
L 755.754065 249.725623 
L 758.136559 253.820272 
L 760.519054 255.788859 
L 762.901548 248.342586 
L 765.284042 248.37112 
L 767.666536 251.233709 
L 770.04903 248.787487 
L 772.431525 245.154567 
L 774.814019 239.474935 
L 777.196513 245.02768 
L 779.579007 245.522845 
L 781.961502 244.06907 
L 784.343996 238.761548 
L 786.72649 238.619643 
L 789.108984 236.662795 
L 791.491478 238.452545 
L 793.873973 242.671107 
L 796.256467 240.598712 
L 798.638961 234.712413 
L 803.403949 238.471424 
L 805.786444 236.931832 
L 808.168938 234.738833 
L 810.551432 238.654951 
L 812.933926 238.948722 
L 815.316421 238.158007 
L 817.698915 236.750267 
L 820.081409 239.218586 
L 822.463903 233.975764 
L 824.846397 232.551167 
L 827.228892 229.227985 
L 829.611386 232.243726 
L 831.99388 228.738704 
L 834.376374 233.865795 
L 836.758869 229.28395 
L 839.141363 230.232721 
L 841.523857 227.6316 
L 843.906351 228.814009 
L 846.288845 223.570604 
L 848.67134 225.682199 
L 851.053834 231.145449 
L 853.436328 230.515091 
L 855.818822 230.430591 
L 858.201316 226.773795 
L 860.583811 226.697479 
L 862.966305 226.215584 
L 865.348799 226.061083 
L 867.731293 221.935785 
L 870.113788 220.987259 
L 872.496282 224.068069 
L 874.878776 224.124279 
L 877.26127 223.616639 
L 879.643764 221.343615 
L 882.026259 221.36176 
L 884.408753 219.074975 
L 886.791247 224.416579 
L 889.173741 222.104999 
L 891.556236 222.435242 
L 893.93873 221.067744 
L 896.321224 224.632195 
L 898.703718 222.466872 
L 901.086212 217.817415 
L 903.468707 216.707767 
L 905.851201 215.272963 
L 908.233695 220.795335 
L 910.616189 220.110176 
L 912.998684 218.476461 
L 915.381178 214.209166 
L 917.763672 218.038241 
L 920.146166 219.718849 
L 922.52866 217.162169 
L 924.911155 212.024197 
L 927.293649 212.227216 
L 929.676143 213.887535 
L 934.441131 212.227124 
L 936.823626 210.404335 
L 939.20612 207.623948 
L 941.588614 210.191539 
L 943.971108 209.968261 
L 946.353603 209.613222 
L 948.736097 210.501584 
L 951.118591 215.253041 
L 953.501085 213.968939 
L 955.883579 211.91665 
L 958.266074 209.622264 
L 960.648568 207.773239 
L 963.031062 209.284205 
L 965.413556 209.154437 
L 967.796051 206.711986 
L 970.178545 206.545316 
L 972.561039 209.861909 
L 974.943533 209.398465 
L 977.326027 204.476446 
L 979.708522 202.097714 
L 984.47351 204.866516 
L 986.856004 203.616649 
L 989.238498 205.402598 
L 991.620993 205.298851 
L 994.003487 201.854545 
L 996.385981 200.394486 
L 998.768475 202.775548 
L 1001.15097 203.531445 
L 1003.533464 201.084151 
L 1005.915958 201.572849 
L 1008.298452 205.495771 
L 1010.680946 204.808896 
L 1013.063441 201.896442 
L 1015.445935 199.416874 
L 1017.828429 200.936422 
L 1020.210923 201.728546 
L 1022.593418 202.146231 
L 1024.975912 201.224309 
L 1027.358406 200.798961 
L 1029.7409 202.517912 
L 1032.123394 202.109667 
L 1034.505889 197.380431 
L 1036.888383 198.281083 
L 1039.270877 201.532944 
L 1041.653371 199.054021 
L 1044.035866 196.139789 
L 1046.41836 199.852274 
L 1048.800854 200.600478 
L 1051.183348 196.657206 
L 1053.565842 194.205437 
L 1055.948337 200.475277 
L 1058.330831 202.452109 
L 1060.713325 201.536561 
L 1063.095819 194.143894 
L 1065.478313 191.234228 
L 1067.860808 193.730162 
L 1070.243302 196.727085 
L 1072.625796 196.182268 
L 1075.00829 194.869509 
L 1077.390785 193.17802 
L 1079.773279 196.54454 
L 1084.538267 197.735929 
L 1086.920761 193.763754 
L 1089.303256 194.027795 
L 1091.68575 192.244727 
L 1094.068244 192.327265 
L 1096.450738 194.586067 
L 1098.833233 195.04237 
L 1101.215727 195.9977 
L 1103.598221 192.134911 
L 1105.980715 190.799319 
L 1108.363209 190.230657 
L 1110.745704 191.459652 
L 1113.128198 188.089853 
L 1115.510692 185.048029 
L 1117.893186 185.398348 
L 1120.27568 189.19898 
L 1122.658175 189.71229 
L 1127.423163 189.799211 
L 1129.805657 192.560013 
L 1132.188152 189.93802 
L 1134.570646 188.223115 
L 1136.95314 185.794824 
L 1139.335634 187.425352 
L 1141.718128 186.46619 
L 1144.100623 183.188982 
L 1146.483117 183.20826 
L 1148.865611 186.405812 
L 1151.248105 188.307706 
L 1153.6306 184.566074 
L 1156.013094 187.692489 
L 1158.395588 186.333909 
L 1163.160576 178.591843 
L 1165.543071 182.07676 
L 1167.925565 184.498584 
L 1170.308059 184.09368 
L 1172.690553 186.933864 
L 1175.073048 183.950519 
L 1177.455542 183.859399 
L 1179.838036 183.260854 
L 1182.22053 180.982007 
L 1184.603024 176.069796 
L 1186.985519 182.980232 
L 1189.368013 187.816617 
L 1191.750507 183.063597 
L 1194.133001 180.165762 
L 1196.515495 182.315546 
L 1198.89799 186.351563 
L 1201.280484 183.66677 
L 1203.662978 185.036444 
L 1206.045472 181.901141 
L 1208.427967 182.51737 
L 1210.810461 181.135498 
L 1213.192955 182.282476 
L 1215.575449 178.082579 
L 1217.957943 180.149856 
L 1220.340438 182.8824 
L 1222.722932 184.190316 
L 1225.105426 180.03483 
L 1227.48792 182.479672 
L 1229.870415 179.49556 
L 1232.252909 180.273218 
L 1234.635403 181.706029 
L 1237.017897 184.514644 
L 1239.400391 179.110118 
L 1241.782886 181.070399 
L 1244.16538 177.981621 
L 1246.547874 182.828826 
L 1248.930368 176.188469 
L 1251.312862 176.782631 
L 1253.695357 173.065088 
L 1256.077851 183.570471 
L 1258.460345 180.572996 
L 1260.842839 179.065125 
L 1263.225334 173.653979 
L 1265.607828 174.028357 
L 1267.990322 174.047696 
L 1270.372816 177.62125 
L 1272.75531 179.211474 
L 1275.137805 175.029384 
L 1277.520299 174.28256 
L 1279.902793 176.395626 
L 1282.285287 179.924187 
L 1284.667782 178.958436 
L 1287.050276 176.300583 
L 1289.43277 174.378736 
L 1291.815264 175.150417 
L 1294.197758 177.00168 
L 1296.580253 174.639069 
L 1298.962747 173.734371 
L 1301.345241 176.355905 
L 1303.727735 177.453661 
L 1306.110229 176.823057 
L 1308.492724 176.732827 
L 1310.875218 175.778109 
L 1313.257712 175.099571 
L 1315.640206 175.348625 
L 1318.022701 174.549942 
L 1320.405195 174.129376 
L 1322.787689 174.72222 
L 1325.170183 174.372331 
L 1327.552677 171.277607 
L 1329.935172 170.696471 
L 1332.317666 168.237407 
L 1334.70016 170.935472 
L 1337.082654 173.270621 
L 1339.465149 173.301975 
L 1341.847643 173.952163 
L 1344.230137 172.275753 
L 1346.612631 173.112778 
L 1348.995125 170.506937 
L 1351.37762 172.760744 
L 1353.760114 169.029164 
L 1358.525102 169.184585 
L 1360.907597 169.451323 
L 1363.290091 166.68531 
L 1365.672585 165.026677 
L 1368.055079 168.126182 
L 1372.820068 173.000848 
L 1375.202562 167.860731 
L 1377.585056 166.132218 
L 1379.96755 167.50934 
L 1382.350044 173.111123 
L 1384.732539 173.190136 
L 1387.115033 169.744144 
L 1389.497527 168.919961 
L 1391.880021 166.256101 
L 1394.262516 167.398145 
L 1396.64501 169.623663 
L 1399.027504 167.944096 
L 1401.409998 166.569733 
L 1403.792492 166.839996 
L 1406.174987 167.577043 
L 1408.557481 166.0837 
L 1410.939975 165.262368 
L 1413.322469 167.997425 
L 1415.704964 164.25708 
L 1418.087458 166.043152 
L 1422.852446 163.907742 
L 1425.23494 162.28647 
L 1427.617435 167.677695 
L 1429.999929 166.991249 
L 1434.764917 159.543382 
L 1437.147411 161.531891 
L 1439.529906 161.863177 
L 1441.9124 168.300575 
L 1444.294894 166.592474 
L 1446.677388 161.349928 
L 1449.059883 158.504595 
L 1451.442377 164.517872 
L 1453.824871 164.68635 
L 1456.207365 162.932644 
L 1458.589859 159.0701 
L 1460.972354 162.070916 
L 1463.354848 162.287053 
L 1465.737342 165.499101 
L 1468.119836 165.19684 
L 1470.502331 168.856242 
L 1472.884825 162.470242 
L 1475.267319 162.196362 
L 1477.649813 159.988713 
L 1480.032307 164.449494 
L 1482.414802 160.740993 
L 1484.797296 161.837462 
L 1487.17979 160.422458 
L 1489.562284 165.59727 
L 1491.944779 166.458967 
L 1494.327273 156.659018 
L 1494.327273 156.659018 
" clip-path="url(#p0c06fc02dc)" style="fill: none; stroke: #00c9a7; stroke-width: 2.25; stroke-linecap: round"/>
   </g>
   <g id="line2d_15">
    <path d="M 276.872727 860.389995 
L 279.255221 861.84 
L 281.637716 855.970712 
L 284.02021 846.950704 
L 286.402704 843.069924 
L 288.785198 847.612845 
L 291.167693 849.199791 
L 295.932681 843.548478 
L 298.315175 841.753886 
L 303.080164 833.861149 
L 305.462658 829.661099 
L 307.845152 826.228378 
L 310.227646 817.143118 
L 312.610141 812.781578 
L 314.992635 807.12668 
L 317.375129 800.876363 
L 319.757623 788.841594 
L 322.140117 778.806092 
L 324.522612 764.93652 
L 326.905106 750.168931 
L 329.2876 743.522476 
L 331.670094 733.632771 
L 334.052589 725.335559 
L 336.435083 710.840471 
L 338.817577 697.811387 
L 341.200071 682.703257 
L 343.582565 675.264738 
L 345.96506 663.809053 
L 348.347554 651.134179 
L 350.730048 637.853467 
L 353.112542 631.454287 
L 355.495036 617.40502 
L 357.877531 607.17223 
L 360.260025 596.226697 
L 362.642519 591.971172 
L 365.025013 581.809151 
L 367.407508 572.879864 
L 369.790002 562.082887 
L 372.172496 556.016526 
L 374.55499 551.995956 
L 376.937484 541.460691 
L 379.319979 529.306392 
L 381.702473 522.814806 
L 384.084967 518.269126 
L 386.467461 511.593033 
L 388.849956 505.250493 
L 391.23245 501.523603 
L 393.614944 497.34988 
L 395.997438 492.314705 
L 398.379932 483.803409 
L 400.762427 480.963318 
L 403.144921 476.158991 
L 405.527415 466.459617 
L 407.909909 457.246306 
L 410.292403 459.587186 
L 412.674898 456.449584 
L 415.057392 451.911812 
L 417.439886 449.81122 
L 419.82238 446.086659 
L 422.204875 442.571032 
L 424.587369 435.505359 
L 426.969863 434.298983 
L 429.352357 429.620562 
L 431.734851 424.312121 
L 434.117346 420.347853 
L 436.49984 422.983332 
L 438.882334 422.042652 
L 441.264828 414.962023 
L 443.647323 412.925456 
L 446.029817 411.825678 
L 448.412311 404.855139 
L 450.794805 401.238064 
L 453.177299 401.431827 
L 455.559794 408.079325 
L 457.942288 406.730492 
L 460.324782 402.160538 
L 462.707276 395.299846 
L 465.089771 394.39619 
L 467.472265 392.759318 
L 469.854759 392.808356 
L 472.237253 390.264058 
L 474.619747 392.860306 
L 477.002242 388.734764 
L 479.384736 388.771359 
L 481.76723 382.198461 
L 484.149724 382.88034 
L 486.532218 377.743625 
L 488.914713 376.912669 
L 491.297207 374.953277 
L 493.679701 375.669023 
L 496.062195 375.215418 
L 498.44469 374.049345 
L 500.827184 371.284895 
L 503.209678 367.79958 
L 505.592172 365.019468 
L 507.974666 364.35086 
L 510.357161 360.203097 
L 512.739655 359.940281 
L 515.122149 364.792114 
L 517.504643 361.531364 
L 519.887138 352.187488 
L 522.269632 351.185755 
L 524.652126 354.493827 
L 527.03462 352.704323 
L 529.417114 348.037641 
L 531.799609 344.213838 
L 534.182103 344.457222 
L 536.564597 345.208368 
L 538.947091 343.758669 
L 541.329585 338.673107 
L 543.71208 336.824818 
L 546.094574 338.37713 
L 548.477068 335.467434 
L 550.859562 335.846746 
L 553.242057 332.239233 
L 555.624551 332.802072 
L 558.007045 327.798987 
L 560.389539 327.8662 
L 562.772033 326.217711 
L 565.154528 327.006801 
L 567.537022 324.076234 
L 569.919516 321.720917 
L 572.30201 323.083634 
L 574.684505 322.886806 
L 577.066999 318.401536 
L 579.449493 312.798496 
L 581.831987 315.494997 
L 584.214481 316.30122 
L 586.596976 314.110519 
L 588.97947 313.478506 
L 591.361964 311.031304 
L 593.744458 309.181819 
L 596.126952 307.916535 
L 598.509447 308.852618 
L 600.891941 303.129005 
L 603.274435 302.628291 
L 605.656929 306.746785 
L 608.039424 306.610948 
L 610.421918 300.759007 
L 612.804412 297.603077 
L 615.186906 299.066936 
L 617.5694 297.426355 
L 619.951895 295.310469 
L 622.334389 294.310637 
L 624.716883 298.35263 
L 627.099377 292.278576 
L 629.481872 285.378959 
L 631.864366 289.190257 
L 634.24686 295.039869 
L 636.629354 291.308166 
L 639.011848 286.13786 
L 641.394343 290.628463 
L 643.776837 295.874932 
L 646.159331 292.685012 
L 648.541825 288.582181 
L 650.92432 285.023369 
L 653.306814 285.820397 
L 655.689308 279.164808 
L 658.071802 282.237986 
L 662.836791 285.025086 
L 665.219285 276.691524 
L 667.601779 275.326723 
L 669.984273 275.485209 
L 672.366767 281.794862 
L 674.749262 284.381211 
L 679.51425 269.855045 
L 681.896744 268.567847 
L 684.279239 274.288242 
L 686.661733 276.027513 
L 689.044227 273.012844 
L 691.426721 268.021926 
L 693.809215 268.179646 
L 696.19171 268.916909 
L 698.574204 270.829867 
L 700.956698 266.390663 
L 703.339192 265.870212 
L 705.721687 264.38401 
L 708.104181 266.598065 
L 710.486675 265.412254 
L 712.869169 263.292108 
L 715.251663 260.876076 
L 717.634158 259.776143 
L 720.016652 261.077195 
L 722.399146 259.636139 
L 724.78164 259.691368 
L 727.164134 262.120579 
L 729.546629 262.25001 
L 731.929123 258.150489 
L 734.311617 258.166242 
L 736.694111 256.006896 
L 739.076606 255.44844 
L 741.4591 252.781699 
L 743.841594 258.705726 
L 746.224088 254.613131 
L 748.606582 256.262601 
L 750.989077 253.460606 
L 753.371571 252.357057 
L 755.754065 247.643697 
L 758.136559 247.837245 
L 760.519054 247.395317 
L 762.901548 248.520902 
L 765.284042 251.224085 
L 767.666536 250.876954 
L 770.04903 246.512257 
L 772.431525 247.960791 
L 774.814019 250.422 
L 777.196513 250.083665 
L 779.579007 244.633135 
L 781.961502 243.218713 
L 784.343996 243.594868 
L 786.72649 246.789048 
L 789.108984 241.895687 
L 791.491478 241.991587 
L 793.873973 241.114259 
L 796.256467 245.21752 
L 798.638961 243.992172 
L 801.021455 242.572325 
L 803.403949 240.826128 
L 805.786444 239.78354 
L 808.168938 242.668042 
L 810.551432 240.632272 
L 812.933926 241.389641 
L 815.316421 237.442996 
L 817.698915 235.930252 
L 820.081409 235.072631 
L 822.463903 236.728997 
L 824.846397 232.562109 
L 827.228892 233.345222 
L 829.611386 234.721577 
L 831.99388 233.092091 
L 834.376374 232.780544 
L 836.758869 233.596544 
L 839.141363 231.02788 
L 841.523857 229.465821 
L 843.906351 234.167198 
L 846.288845 237.860926 
L 848.67134 233.120718 
L 851.053834 231.551273 
L 853.436328 228.287428 
L 855.818822 227.580294 
L 858.201316 226.523852 
L 860.583811 227.647752 
L 862.966305 227.401273 
L 865.348799 224.127528 
L 867.731293 222.951433 
L 870.113788 223.042705 
L 872.496282 225.538425 
L 874.878776 228.422253 
L 877.26127 226.637928 
L 879.643764 225.696819 
L 882.026259 223.745365 
L 884.408753 222.687085 
L 886.791247 220.104138 
L 889.173741 217.041443 
L 891.556236 216.960468 
L 893.93873 219.958647 
L 896.321224 225.626817 
L 898.703718 222.751816 
L 901.086212 220.064049 
L 903.468707 215.605842 
L 905.851201 216.012003 
L 908.233695 217.9957 
L 910.616189 220.637155 
L 912.998684 218.966692 
L 915.381178 219.198766 
L 917.763672 219.016895 
L 920.146166 220.430918 
L 924.911155 218.778874 
L 927.293649 218.223484 
L 929.676143 219.977742 
L 932.058637 216.107076 
L 934.441131 213.072241 
L 936.823626 213.310935 
L 939.20612 208.984917 
L 941.588614 207.738851 
L 943.971108 208.829374 
L 946.353603 213.363958 
L 948.736097 214.923258 
L 951.118591 215.486066 
L 953.501085 212.110566 
L 955.883579 209.940891 
L 958.266074 209.568597 
L 960.648568 208.47032 
L 963.031062 209.832486 
L 965.413556 213.001135 
L 967.796051 211.353627 
L 970.178545 212.276745 
L 972.561039 213.694324 
L 974.943533 208.827749 
L 977.326027 205.642243 
L 979.708522 206.898945 
L 982.091016 210.441145 
L 984.47351 204.816834 
L 986.856004 207.762328 
L 989.238498 209.935926 
L 991.620993 208.042705 
L 994.003487 201.130002 
L 996.385981 203.464967 
L 998.768475 206.156993 
L 1001.15097 209.044223 
L 1003.533464 207.207121 
L 1005.915958 204.133238 
L 1008.298452 202.755044 
L 1010.680946 199.404921 
L 1013.063441 201.510233 
L 1015.445935 204.68066 
L 1017.828429 211.91809 
L 1020.210923 208.511084 
L 1022.593418 204.368163 
L 1024.975912 201.146491 
L 1027.358406 198.232841 
L 1029.7409 200.306922 
L 1032.123394 199.920499 
L 1034.505889 200.653746 
L 1036.888383 201.778995 
L 1039.270877 203.061871 
L 1041.653371 204.109148 
L 1044.035866 199.77274 
L 1046.41836 199.162794 
L 1048.800854 196.021024 
L 1051.183348 197.691825 
L 1053.565842 196.44585 
L 1055.948337 197.760172 
L 1058.330831 199.988448 
L 1060.713325 198.541262 
L 1063.095819 191.240695 
L 1065.478313 190.221248 
L 1067.860808 196.490781 
L 1070.243302 199.342275 
L 1072.625796 197.120833 
L 1075.00829 196.082138 
L 1077.390785 193.415397 
L 1079.773279 191.296569 
L 1082.155773 191.320015 
L 1084.538267 193.136123 
L 1086.920761 190.819762 
L 1089.303256 195.601837 
L 1091.68575 193.600027 
L 1096.450738 193.60585 
L 1098.833233 196.08367 
L 1101.215727 196.656347 
L 1103.598221 194.281906 
L 1105.980715 190.70351 
L 1108.363209 186.842959 
L 1110.745704 192.849432 
L 1113.128198 196.153489 
L 1115.510692 194.176259 
L 1117.893186 190.043667 
L 1120.27568 189.770738 
L 1122.658175 188.938831 
L 1125.040669 188.59403 
L 1127.423163 191.25035 
L 1129.805657 192.281291 
L 1132.188152 188.092703 
L 1134.570646 188.035022 
L 1136.95314 189.00678 
L 1139.335634 192.026628 
L 1141.718128 190.063896 
L 1144.100623 193.184487 
L 1146.483117 190.326221 
L 1148.865611 188.523322 
L 1151.248105 187.954384 
L 1153.6306 188.640463 
L 1156.013094 189.964501 
L 1158.395588 182.679381 
L 1160.778082 187.224141 
L 1163.160576 183.542611 
L 1165.543071 186.877286 
L 1167.925565 182.618267 
L 1170.308059 183.61105 
L 1172.690553 179.093261 
L 1175.073048 181.440118 
L 1177.455542 183.435278 
L 1179.838036 183.763498 
L 1182.22053 184.744206 
L 1184.603024 184.92905 
L 1186.985519 181.351604 
L 1189.368013 177.292876 
L 1191.750507 180.699117 
L 1194.133001 182.636288 
L 1196.515495 182.713646 
L 1198.89799 183.27388 
L 1201.280484 187.216233 
L 1203.662978 187.384926 
L 1206.045472 184.876947 
L 1208.427967 184.303289 
L 1210.810461 180.790512 
L 1213.192955 178.341655 
L 1215.575449 180.034615 
L 1217.957943 184.425885 
L 1220.340438 184.182746 
L 1222.722932 179.454307 
L 1225.105426 177.525042 
L 1227.48792 180.42395 
L 1229.870415 184.597642 
L 1232.252909 183.284607 
L 1234.635403 179.077385 
L 1237.017897 176.03504 
L 1239.400391 178.294823 
L 1241.782886 177.512844 
L 1244.16538 178.836729 
L 1246.547874 177.555845 
L 1248.930368 179.672895 
L 1251.312862 180.918104 
L 1253.695357 181.047903 
L 1256.077851 177.142819 
L 1258.460345 176.987121 
L 1260.842839 181.997501 
L 1263.225334 182.711195 
L 1265.607828 177.436712 
L 1267.990322 173.774215 
L 1270.372816 174.219821 
L 1272.75531 180.741688 
L 1275.137805 181.03313 
L 1277.520299 175.619501 
L 1279.902793 173.233321 
L 1282.285287 174.673273 
L 1284.667782 178.569623 
L 1289.43277 175.259375 
L 1291.815264 171.30136 
L 1294.197758 176.21636 
L 1296.580253 179.994128 
L 1298.962747 177.965193 
L 1301.345241 173.098005 
L 1303.727735 173.161694 
L 1306.110229 176.203273 
L 1308.492724 177.358802 
L 1310.875218 176.589879 
L 1313.257712 174.009109 
L 1315.640206 171.055585 
L 1318.022701 170.554872 
L 1320.405195 173.228632 
L 1322.787689 173.243496 
L 1325.170183 170.839601 
L 1327.552677 170.744957 
L 1329.935172 175.201908 
L 1332.317666 177.968442 
L 1334.70016 173.324961 
L 1337.082654 165.989639 
L 1339.465149 168.060041 
L 1341.847643 173.359717 
L 1344.230137 173.921483 
L 1346.612631 168.821915 
L 1348.995125 169.976586 
L 1351.37762 170.740544 
L 1353.760114 170.947333 
L 1356.142608 170.248045 
L 1358.525102 171.837043 
L 1360.907597 170.231096 
L 1363.290091 171.475875 
L 1365.672585 172.012478 
L 1368.055079 171.418991 
L 1370.437573 168.392246 
L 1372.820068 174.426702 
L 1375.202562 173.211805 
L 1377.585056 170.500562 
L 1379.96755 167.191111 
L 1382.350044 172.263708 
L 1384.732539 174.206765 
L 1387.115033 175.265321 
L 1389.497527 175.009738 
L 1391.880021 172.598978 
L 1394.262516 169.712269 
L 1396.64501 162.739861 
L 1399.027504 165.779386 
L 1401.409998 169.127547 
L 1403.792492 168.322949 
L 1406.174987 162.619196 
L 1408.557481 165.064222 
L 1410.939975 165.728693 
L 1413.322469 165.705614 
L 1415.704964 165.258353 
L 1418.087458 165.600702 
L 1420.469952 165.484512 
L 1422.852446 166.923913 
L 1425.23494 167.4333 
L 1427.617435 167.025576 
L 1429.999929 166.82792 
L 1432.382423 166.182727 
L 1434.764917 168.066999 
L 1437.147411 168.323347 
L 1439.529906 165.779877 
L 1441.9124 165.271746 
L 1444.294894 167.541889 
L 1446.677388 168.243506 
L 1449.059883 165.326271 
L 1451.442377 163.682564 
L 1453.824871 165.517858 
L 1456.207365 166.424211 
L 1458.589859 162.074379 
L 1460.972354 159.272506 
L 1463.354848 161.671988 
L 1465.737342 160.257995 
L 1468.119836 167.075166 
L 1470.502331 163.862658 
L 1472.884825 165.390726 
L 1475.267319 156.24 
L 1477.649813 161.99745 
L 1480.032307 161.548748 
L 1482.414802 166.899394 
L 1484.797296 161.208483 
L 1487.17979 161.267635 
L 1489.562284 164.156735 
L 1491.944779 168.457713 
L 1494.327273 163.955831 
L 1494.327273 163.955831 
" clip-path="url(#p0c06fc02dc)" style="fill: none; stroke: #ffc75f; stroke-width: 2.25; stroke-linecap: round"/>
   </g>
   <g id="patch_3">
    <path d="M 216 897.12 
L 216 120.96 
" style="fill: none; stroke: #262626; stroke-width: 1.875; stroke-linejoin: miter; stroke-linecap: square"/>
   </g>
   <g id="patch_4">
    <path d="M 1555.2 897.12 
L 1555.2 120.96 
" style="fill: none; stroke: #262626; stroke-width: 1.875; stroke-linejoin: miter; stroke-linecap: square"/>
   </g>
   <g id="patch_5">
    <path d="M 216 897.12 
L 1555.2 897.12 
" style="fill: none; stroke: #262626; stroke-width: 1.875; stroke-linejoin: miter; stroke-linecap: square"/>
   </g>
   <g id="patch_6">
    <path d="M 216 120.96 
L 1555.2 120.96 
" style="fill: none; stroke: #262626; stroke-width: 1.875; stroke-linejoin: miter; stroke-linecap: square"/>
   </g>
   <g id="text_16">
    <!-- Df(Z) -->
    <g style="fill: #262626" transform="translate(820.916406 110.561563)scale(0.5 -0.5)">
     <use xlink:href="#DejaVuSans-44"/>
     <use xlink:href="#DejaVuSans-66" x="77.001953"/>
     <use xlink:href="#DejaVuSans-28" x="112.207031"/>
     <use xlink:href="#DejaVuSans-5a" x="151.220703"/>
     <use xlink:href="#DejaVuSans-29" x="219.726562"/>
    </g>
   </g>
   <g id="legend_1">
    <g id="patch_7">
     <path d="M 227.55 182.597813 
L 361.029844 182.597813 
Q 364.329844 182.597813 364.329844 179.297813 
L 364.329844 132.51 
Q 364.329844 129.21 361.029844 129.21 
L 227.55 129.21 
Q 224.25 129.21 224.25 132.51 
L 224.25 179.297813 
Q 224.25 182.597813 227.55 182.597813 
z
" style="fill: #ffffff; opacity: 0.8; stroke: #cccccc; stroke-width: 1.5; stroke-linejoin: miter"/>
    </g>
    <g id="line2d_16">
     <path d="M 230.85 142.572422 
L 247.35 142.572422 
L 263.85 142.572422 
" style="fill: none; stroke: #00c9a7; stroke-width: 2.25; stroke-linecap: round"/>
    </g>
    <g id="text_17">
     <!-- df trace -->
     <g style="fill: #262626" transform="translate(277.05 148.347422)scale(0.165 -0.165)">
      <defs>
       <path id="DejaVuSans-64" d="M 2906 2969 
L 2906 4863 
L 3481 4863 
L 3481 0 
L 2906 0 
L 2906 525 
Q 2725 213 2448 61 
Q 2172 -91 1784 -91 
Q 1150 -91 751 415 
Q 353 922 353 1747 
Q 353 2572 751 3078 
Q 1150 3584 1784 3584 
Q 2172 3584 2448 3432 
Q 2725 3281 2906 2969 
z
M 947 1747 
Q 947 1113 1208 752 
Q 1469 391 1925 391 
Q 2381 391 2643 752 
Q 2906 1113 2906 1747 
Q 2906 2381 2643 2742 
Q 2381 3103 1925 3103 
Q 1469 3103 1208 2742 
Q 947 2381 947 1747 
z
" transform="scale(0.015625)"/>
       <path id="DejaVuSans-74" d="M 1172 4494 
L 1172 3500 
L 2356 3500 
L 2356 3053 
L 1172 3053 
L 1172 1153 
Q 1172 725 1289 603 
Q 1406 481 1766 481 
L 2356 481 
L 2356 0 
L 1766 0 
Q 1100 0 847 248 
Q 594 497 594 1153 
L 594 3053 
L 172 3053 
L 172 3500 
L 594 3500 
L 594 4494 
L 1172 4494 
z
" transform="scale(0.015625)"/>
       <path id="DejaVuSans-72" d="M 2631 2963 
Q 2534 3019 2420 3045 
Q 2306 3072 2169 3072 
Q 1681 3072 1420 2755 
Q 1159 2438 1159 1844 
L 1159 0 
L 581 0 
L 581 3500 
L 1159 3500 
L 1159 2956 
Q 1341 3275 1631 3429 
Q 1922 3584 2338 3584 
Q 2397 3584 2469 3576 
Q 2541 3569 2628 3553 
L 2631 2963 
z
" transform="scale(0.015625)"/>
       <path id="DejaVuSans-61" d="M 2194 1759 
Q 1497 1759 1228 1600 
Q 959 1441 959 1056 
Q 959 750 1161 570 
Q 1363 391 1709 391 
Q 2188 391 2477 730 
Q 2766 1069 2766 1631 
L 2766 1759 
L 2194 1759 
z
M 3341 1997 
L 3341 0 
L 2766 0 
L 2766 531 
Q 2569 213 2275 61 
Q 1981 -91 1556 -91 
Q 1019 -91 701 211 
Q 384 513 384 1019 
Q 384 1609 779 1909 
Q 1175 2209 1959 2209 
L 2766 2209 
L 2766 2266 
Q 2766 2663 2505 2880 
Q 2244 3097 1772 3097 
Q 1472 3097 1187 3025 
Q 903 2953 641 2809 
L 641 3341 
Q 956 3463 1253 3523 
Q 1550 3584 1831 3584 
Q 2591 3584 2966 3190 
Q 3341 2797 3341 1997 
z
" transform="scale(0.015625)"/>
       <path id="DejaVuSans-63" d="M 3122 3366 
L 3122 2828 
Q 2878 2963 2633 3030 
Q 2388 3097 2138 3097 
Q 1578 3097 1268 2742 
Q 959 2388 959 1747 
Q 959 1106 1268 751 
Q 1578 397 2138 397 
Q 2388 397 2633 464 
Q 2878 531 3122 666 
L 3122 134 
Q 2881 22 2623 -34 
Q 2366 -91 2075 -91 
Q 1284 -91 818 406 
Q 353 903 353 1747 
Q 353 2603 823 3093 
Q 1294 3584 2113 3584 
Q 2378 3584 2631 3529 
Q 2884 3475 3122 3366 
z
" transform="scale(0.015625)"/>
       <path id="DejaVuSans-65" d="M 3597 1894 
L 3597 1613 
L 953 1613 
Q 991 1019 1311 708 
Q 1631 397 2203 397 
Q 2534 397 2845 478 
Q 3156 559 3463 722 
L 3463 178 
Q 3153 47 2828 -22 
Q 2503 -91 2169 -91 
Q 1331 -91 842 396 
Q 353 884 353 1716 
Q 353 2575 817 3079 
Q 1281 3584 2069 3584 
Q 2775 3584 3186 3129 
Q 3597 2675 3597 1894 
z
M 3022 2063 
Q 3016 2534 2758 2815 
Q 2500 3097 2075 3097 
Q 1594 3097 1305 2825 
Q 1016 2553 972 2059 
L 3022 2063 
z
" transform="scale(0.015625)"/>
      </defs>
      <use xlink:href="#DejaVuSans-64"/>
      <use xlink:href="#DejaVuSans-66" x="63.476562"/>
      <use xlink:href="#DejaVuSans-20" x="98.681641"/>
      <use xlink:href="#DejaVuSans-74" x="130.46875"/>
      <use xlink:href="#DejaVuSans-72" x="169.677734"/>
      <use xlink:href="#DejaVuSans-61" x="210.791016"/>
      <use xlink:href="#DejaVuSans-63" x="272.070312"/>
      <use xlink:href="#DejaVuSans-65" x="327.050781"/>
     </g>
    </g>
    <g id="line2d_17">
     <path d="M 230.85 166.791328 
L 247.35 166.791328 
L 263.85 166.791328 
" style="fill: none; stroke: #ffc75f; stroke-width: 2.25; stroke-linecap: round"/>
    </g>
    <g id="text_18">
     <!-- df retrace -->
     <g style="fill: #262626" transform="translate(277.05 172.566328)scale(0.165 -0.165)">
      <use xlink:href="#DejaVuSans-64"/>
      <use xlink:href="#DejaVuSans-66" x="63.476562"/>
      <use xlink:href="#DejaVuSans-20" x="98.681641"/>
      <use xlink:href="#DejaVuSans-72" x="130.46875"/>
      <use xlink:href="#DejaVuSans-65" x="169.332031"/>
      <use xlink:href="#DejaVuSans-74" x="230.855469"/>
      <use xlink:href="#DejaVuSans-72" x="270.064453"/>
      <use xlink:href="#DejaVuSans-61" x="311.177734"/>
      <use xlink:href="#DejaVuSans-63" x="372.457031"/>
      <use xlink:href="#DejaVuSans-65" x="427.4375"/>
     </g>
    </g>
   </g>
  </g>
 </g>
 <defs>
  <clipPath id="p0c06fc02dc">
   <rect x="216" y="120.96" width="1339.2" height="776.16"/>
  </clipPath>
 </defs>
</svg>
