<?xml version="1.0" encoding="utf-8" standalone="no"?>
<!DOCTYPE svg PUBLIC "-//W3C//DTD SVG 1.1//EN"
  "http://www.w3.org/Graphics/SVG/1.1/DTD/svg11.dtd">
<svg xmlns:xlink="http://www.w3.org/1999/xlink" width="1728pt" height="1008pt" viewBox="0 0 1728 1008" xmlns="http://www.w3.org/2000/svg" version="1.1">
 <metadata>
  <rdf:RDF xmlns:dc="http://purl.org/dc/elements/1.1/" xmlns:cc="http://creativecommons.org/ns#" xmlns:rdf="http://www.w3.org/1999/02/22-rdf-syntax-ns#">
   <cc:Work>
    <dc:type rdf:resource="http://purl.org/dc/dcmitype/StillImage"/>
    <dc:date>2022-10-30T23:56:07.611524</dc:date>
    <dc:format>image/svg+xml</dc:format>
    <dc:creator>
     <cc:Agent>
      <dc:title>Matplotlib v3.5.2, https://matplotlib.org/</dc:title>
     </cc:Agent>
    </dc:creator>
   </cc:Work>
  </rdf:RDF>
 </metadata>
 <defs>
  <style type="text/css">*{stroke-linejoin: round; stroke-linecap: butt}</style>
 </defs>
 <g id="figure_1">
  <g id="patch_1">
   <path d="M 0 1008 
L 1728 1008 
L 1728 0 
L 0 0 
z
" style="fill: #ffffff"/>
  </g>
  <g id="axes_1">
   <g id="patch_2">
    <path d="M 216 897.12 
L 1555.2 897.12 
L 1555.2 120.96 
L 216 120.96 
L 216 897.12 
z
" style="fill: none"/>
   </g>
   <g id="matplotlib.axis_1">
    <g id="xtick_1">
     <g id="line2d_1">
      <defs>
       <path id="m6f4bb073df" d="M 0 0 
L 0 9 
" style="stroke: #262626; stroke-width: 1.875"/>
      </defs>
      <g>
       <use xlink:href="#m6f4bb073df" x="458.394221" y="897.12" style="fill: #262626; stroke: #262626; stroke-width: 1.875"/>
      </g>
     </g>
     <g id="text_1">
      <!-- 0.0 -->
      <g style="fill: #262626" transform="translate(420.226721 946.0925)scale(0.48 -0.48)">
       <defs>
        <path id="DejaVuSans-30" d="M 2034 4250 
Q 1547 4250 1301 3770 
Q 1056 3291 1056 2328 
Q 1056 1369 1301 889 
Q 1547 409 2034 409 
Q 2525 409 2770 889 
Q 3016 1369 3016 2328 
Q 3016 3291 2770 3770 
Q 2525 4250 2034 4250 
z
M 2034 4750 
Q 2819 4750 3233 4129 
Q 3647 3509 3647 2328 
Q 3647 1150 3233 529 
Q 2819 -91 2034 -91 
Q 1250 -91 836 529 
Q 422 1150 422 2328 
Q 422 3509 836 4129 
Q 1250 4750 2034 4750 
z
" transform="scale(0.015625)"/>
        <path id="DejaVuSans-2e" d="M 684 794 
L 1344 794 
L 1344 0 
L 684 0 
L 684 794 
z
" transform="scale(0.015625)"/>
       </defs>
       <use xlink:href="#DejaVuSans-30"/>
       <use xlink:href="#DejaVuSans-2e" x="63.623047"/>
       <use xlink:href="#DejaVuSans-30" x="95.410156"/>
      </g>
     </g>
    </g>
    <g id="xtick_2">
     <g id="line2d_2">
      <g>
       <use xlink:href="#m6f4bb073df" x="717.71064" y="897.12" style="fill: #262626; stroke: #262626; stroke-width: 1.875"/>
      </g>
     </g>
     <g id="text_2">
      <!-- 0.5 -->
      <g style="fill: #262626" transform="translate(679.54314 946.0925)scale(0.48 -0.48)">
       <defs>
        <path id="DejaVuSans-35" d="M 691 4666 
L 3169 4666 
L 3169 4134 
L 1269 4134 
L 1269 2991 
Q 1406 3038 1543 3061 
Q 1681 3084 1819 3084 
Q 2600 3084 3056 2656 
Q 3513 2228 3513 1497 
Q 3513 744 3044 326 
Q 2575 -91 1722 -91 
Q 1428 -91 1123 -41 
Q 819 9 494 109 
L 494 744 
Q 775 591 1075 516 
Q 1375 441 1709 441 
Q 2250 441 2565 725 
Q 2881 1009 2881 1497 
Q 2881 1984 2565 2268 
Q 2250 2553 1709 2553 
Q 1456 2553 1204 2497 
Q 953 2441 691 2322 
L 691 4666 
z
" transform="scale(0.015625)"/>
       </defs>
       <use xlink:href="#DejaVuSans-30"/>
       <use xlink:href="#DejaVuSans-2e" x="63.623047"/>
       <use xlink:href="#DejaVuSans-35" x="95.410156"/>
      </g>
     </g>
    </g>
    <g id="xtick_3">
     <g id="line2d_3">
      <g>
       <use xlink:href="#m6f4bb073df" x="977.027059" y="897.12" style="fill: #262626; stroke: #262626; stroke-width: 1.875"/>
      </g>
     </g>
     <g id="text_3">
      <!-- 1.0 -->
      <g style="fill: #262626" transform="translate(938.859559 946.0925)scale(0.48 -0.48)">
       <defs>
        <path id="DejaVuSans-31" d="M 794 531 
L 1825 531 
L 1825 4091 
L 703 3866 
L 703 4441 
L 1819 4666 
L 2450 4666 
L 2450 531 
L 3481 531 
L 3481 0 
L 794 0 
L 794 531 
z
" transform="scale(0.015625)"/>
       </defs>
       <use xlink:href="#DejaVuSans-31"/>
       <use xlink:href="#DejaVuSans-2e" x="63.623047"/>
       <use xlink:href="#DejaVuSans-30" x="95.410156"/>
      </g>
     </g>
    </g>
    <g id="xtick_4">
     <g id="line2d_4">
      <g>
       <use xlink:href="#m6f4bb073df" x="1236.343478" y="897.12" style="fill: #262626; stroke: #262626; stroke-width: 1.875"/>
      </g>
     </g>
     <g id="text_4">
      <!-- 1.5 -->
      <g style="fill: #262626" transform="translate(1198.175978 946.0925)scale(0.48 -0.48)">
       <use xlink:href="#DejaVuSans-31"/>
       <use xlink:href="#DejaVuSans-2e" x="63.623047"/>
       <use xlink:href="#DejaVuSans-35" x="95.410156"/>
      </g>
     </g>
    </g>
    <g id="xtick_5">
     <g id="line2d_5">
      <g>
       <use xlink:href="#m6f4bb073df" x="1495.659897" y="897.12" style="fill: #262626; stroke: #262626; stroke-width: 1.875"/>
      </g>
     </g>
     <g id="text_5">
      <!-- 2.0 -->
      <g style="fill: #262626" transform="translate(1457.492397 946.0925)scale(0.48 -0.48)">
       <defs>
        <path id="DejaVuSans-32" d="M 1228 531 
L 3431 531 
L 3431 0 
L 469 0 
L 469 531 
Q 828 903 1448 1529 
Q 2069 2156 2228 2338 
Q 2531 2678 2651 2914 
Q 2772 3150 2772 3378 
Q 2772 3750 2511 3984 
Q 2250 4219 1831 4219 
Q 1534 4219 1204 4116 
Q 875 4013 500 3803 
L 500 4441 
Q 881 4594 1212 4672 
Q 1544 4750 1819 4750 
Q 2544 4750 2975 4387 
Q 3406 4025 3406 3419 
Q 3406 3131 3298 2873 
Q 3191 2616 2906 2266 
Q 2828 2175 2409 1742 
Q 1991 1309 1228 531 
z
" transform="scale(0.015625)"/>
       </defs>
       <use xlink:href="#DejaVuSans-32"/>
       <use xlink:href="#DejaVuSans-2e" x="63.623047"/>
       <use xlink:href="#DejaVuSans-30" x="95.410156"/>
      </g>
     </g>
    </g>
    <g id="text_6">
     <!-- Z [nm] -->
     <g style="fill: #262626" transform="translate(804.2175 996.5475)scale(0.48 -0.48)">
      <defs>
       <path id="DejaVuSans-5a" d="M 359 4666 
L 4025 4666 
L 4025 4184 
L 1075 531 
L 4097 531 
L 4097 0 
L 288 0 
L 288 481 
L 3238 4134 
L 359 4134 
L 359 4666 
z
" transform="scale(0.015625)"/>
       <path id="DejaVuSans-20" transform="scale(0.015625)"/>
       <path id="DejaVuSans-5b" d="M 550 4863 
L 1875 4863 
L 1875 4416 
L 1125 4416 
L 1125 -397 
L 1875 -397 
L 1875 -844 
L 550 -844 
L 550 4863 
z
" transform="scale(0.015625)"/>
       <path id="DejaVuSans-6e" d="M 3513 2113 
L 3513 0 
L 2938 0 
L 2938 2094 
Q 2938 2591 2744 2837 
Q 2550 3084 2163 3084 
Q 1697 3084 1428 2787 
Q 1159 2491 1159 1978 
L 1159 0 
L 581 0 
L 581 3500 
L 1159 3500 
L 1159 2956 
Q 1366 3272 1645 3428 
Q 1925 3584 2291 3584 
Q 2894 3584 3203 3211 
Q 3513 2838 3513 2113 
z
" transform="scale(0.015625)"/>
       <path id="DejaVuSans-6d" d="M 3328 2828 
Q 3544 3216 3844 3400 
Q 4144 3584 4550 3584 
Q 5097 3584 5394 3201 
Q 5691 2819 5691 2113 
L 5691 0 
L 5113 0 
L 5113 2094 
Q 5113 2597 4934 2840 
Q 4756 3084 4391 3084 
Q 3944 3084 3684 2787 
Q 3425 2491 3425 1978 
L 3425 0 
L 2847 0 
L 2847 2094 
Q 2847 2600 2669 2842 
Q 2491 3084 2119 3084 
Q 1678 3084 1418 2786 
Q 1159 2488 1159 1978 
L 1159 0 
L 581 0 
L 581 3500 
L 1159 3500 
L 1159 2956 
Q 1356 3278 1631 3431 
Q 1906 3584 2284 3584 
Q 2666 3584 2933 3390 
Q 3200 3197 3328 2828 
z
" transform="scale(0.015625)"/>
       <path id="DejaVuSans-5d" d="M 1947 4863 
L 1947 -844 
L 622 -844 
L 622 -397 
L 1369 -397 
L 1369 4416 
L 622 4416 
L 622 4863 
L 1947 4863 
z
" transform="scale(0.015625)"/>
      </defs>
      <use xlink:href="#DejaVuSans-5a"/>
      <use xlink:href="#DejaVuSans-20" x="68.505859"/>
      <use xlink:href="#DejaVuSans-5b" x="100.292969"/>
      <use xlink:href="#DejaVuSans-6e" x="139.306641"/>
      <use xlink:href="#DejaVuSans-6d" x="202.685547"/>
      <use xlink:href="#DejaVuSans-5d" x="300.097656"/>
     </g>
    </g>
   </g>
   <g id="matplotlib.axis_2">
    <g id="ytick_1">
     <g id="line2d_6">
      <defs>
       <path id="m1a09c29c83" d="M 0 0 
L -9 0 
" style="stroke: #262626; stroke-width: 1.875"/>
      </defs>
      <g>
       <use xlink:href="#m1a09c29c83" x="216" y="819.356495" style="fill: #262626; stroke: #262626; stroke-width: 1.875"/>
      </g>
     </g>
     <g id="text_7">
      <!-- −10 -->
      <g style="fill: #262626" transform="translate(102.1975 837.592745)scale(0.48 -0.48)">
       <defs>
        <path id="DejaVuSans-2212" d="M 678 2272 
L 4684 2272 
L 4684 1741 
L 678 1741 
L 678 2272 
z
" transform="scale(0.015625)"/>
       </defs>
       <use xlink:href="#DejaVuSans-2212"/>
       <use xlink:href="#DejaVuSans-31" x="83.789062"/>
       <use xlink:href="#DejaVuSans-30" x="147.412109"/>
      </g>
     </g>
    </g>
    <g id="ytick_2">
     <g id="line2d_7">
      <g>
       <use xlink:href="#m1a09c29c83" x="216" y="686.582476" style="fill: #262626; stroke: #262626; stroke-width: 1.875"/>
      </g>
     </g>
     <g id="text_8">
      <!-- −8 -->
      <g style="fill: #262626" transform="translate(132.7375 704.818726)scale(0.48 -0.48)">
       <defs>
        <path id="DejaVuSans-38" d="M 2034 2216 
Q 1584 2216 1326 1975 
Q 1069 1734 1069 1313 
Q 1069 891 1326 650 
Q 1584 409 2034 409 
Q 2484 409 2743 651 
Q 3003 894 3003 1313 
Q 3003 1734 2745 1975 
Q 2488 2216 2034 2216 
z
M 1403 2484 
Q 997 2584 770 2862 
Q 544 3141 544 3541 
Q 544 4100 942 4425 
Q 1341 4750 2034 4750 
Q 2731 4750 3128 4425 
Q 3525 4100 3525 3541 
Q 3525 3141 3298 2862 
Q 3072 2584 2669 2484 
Q 3125 2378 3379 2068 
Q 3634 1759 3634 1313 
Q 3634 634 3220 271 
Q 2806 -91 2034 -91 
Q 1263 -91 848 271 
Q 434 634 434 1313 
Q 434 1759 690 2068 
Q 947 2378 1403 2484 
z
M 1172 3481 
Q 1172 3119 1398 2916 
Q 1625 2713 2034 2713 
Q 2441 2713 2670 2916 
Q 2900 3119 2900 3481 
Q 2900 3844 2670 4047 
Q 2441 4250 2034 4250 
Q 1625 4250 1398 4047 
Q 1172 3844 1172 3481 
z
" transform="scale(0.015625)"/>
       </defs>
       <use xlink:href="#DejaVuSans-2212"/>
       <use xlink:href="#DejaVuSans-38" x="83.789062"/>
      </g>
     </g>
    </g>
    <g id="ytick_3">
     <g id="line2d_8">
      <g>
       <use xlink:href="#m1a09c29c83" x="216" y="553.808457" style="fill: #262626; stroke: #262626; stroke-width: 1.875"/>
      </g>
     </g>
     <g id="text_9">
      <!-- −6 -->
      <g style="fill: #262626" transform="translate(132.7375 572.044707)scale(0.48 -0.48)">
       <defs>
        <path id="DejaVuSans-36" d="M 2113 2584 
Q 1688 2584 1439 2293 
Q 1191 2003 1191 1497 
Q 1191 994 1439 701 
Q 1688 409 2113 409 
Q 2538 409 2786 701 
Q 3034 994 3034 1497 
Q 3034 2003 2786 2293 
Q 2538 2584 2113 2584 
z
M 3366 4563 
L 3366 3988 
Q 3128 4100 2886 4159 
Q 2644 4219 2406 4219 
Q 1781 4219 1451 3797 
Q 1122 3375 1075 2522 
Q 1259 2794 1537 2939 
Q 1816 3084 2150 3084 
Q 2853 3084 3261 2657 
Q 3669 2231 3669 1497 
Q 3669 778 3244 343 
Q 2819 -91 2113 -91 
Q 1303 -91 875 529 
Q 447 1150 447 2328 
Q 447 3434 972 4092 
Q 1497 4750 2381 4750 
Q 2619 4750 2861 4703 
Q 3103 4656 3366 4563 
z
" transform="scale(0.015625)"/>
       </defs>
       <use xlink:href="#DejaVuSans-2212"/>
       <use xlink:href="#DejaVuSans-36" x="83.789062"/>
      </g>
     </g>
    </g>
    <g id="ytick_4">
     <g id="line2d_9">
      <g>
       <use xlink:href="#m1a09c29c83" x="216" y="421.034438" style="fill: #262626; stroke: #262626; stroke-width: 1.875"/>
      </g>
     </g>
     <g id="text_10">
      <!-- −4 -->
      <g style="fill: #262626" transform="translate(132.7375 439.270688)scale(0.48 -0.48)">
       <defs>
        <path id="DejaVuSans-34" d="M 2419 4116 
L 825 1625 
L 2419 1625 
L 2419 4116 
z
M 2253 4666 
L 3047 4666 
L 3047 1625 
L 3713 1625 
L 3713 1100 
L 3047 1100 
L 3047 0 
L 2419 0 
L 2419 1100 
L 313 1100 
L 313 1709 
L 2253 4666 
z
" transform="scale(0.015625)"/>
       </defs>
       <use xlink:href="#DejaVuSans-2212"/>
       <use xlink:href="#DejaVuSans-34" x="83.789062"/>
      </g>
     </g>
    </g>
    <g id="ytick_5">
     <g id="line2d_10">
      <g>
       <use xlink:href="#m1a09c29c83" x="216" y="288.260419" style="fill: #262626; stroke: #262626; stroke-width: 1.875"/>
      </g>
     </g>
     <g id="text_11">
      <!-- −2 -->
      <g style="fill: #262626" transform="translate(132.7375 306.496669)scale(0.48 -0.48)">
       <use xlink:href="#DejaVuSans-2212"/>
       <use xlink:href="#DejaVuSans-32" x="83.789062"/>
      </g>
     </g>
    </g>
    <g id="ytick_6">
     <g id="line2d_11">
      <g>
       <use xlink:href="#m1a09c29c83" x="216" y="155.4864" style="fill: #262626; stroke: #262626; stroke-width: 1.875"/>
      </g>
     </g>
     <g id="text_12">
      <!-- 0 -->
      <g style="fill: #262626" transform="translate(172.96 173.72265)scale(0.48 -0.48)">
       <use xlink:href="#DejaVuSans-30"/>
      </g>
     </g>
    </g>
    <g id="text_13">
     <!-- Df(Z) [Hz] -->
     <g style="fill: #262626" transform="translate(88.215 628.13625)rotate(-90)scale(0.48 -0.48)">
      <defs>
       <path id="DejaVuSans-44" d="M 1259 4147 
L 1259 519 
L 2022 519 
Q 2988 519 3436 956 
Q 3884 1394 3884 2338 
Q 3884 3275 3436 3711 
Q 2988 4147 2022 4147 
L 1259 4147 
z
M 628 4666 
L 1925 4666 
Q 3281 4666 3915 4102 
Q 4550 3538 4550 2338 
Q 4550 1131 3912 565 
Q 3275 0 1925 0 
L 628 0 
L 628 4666 
z
" transform="scale(0.015625)"/>
       <path id="DejaVuSans-66" d="M 2375 4863 
L 2375 4384 
L 1825 4384 
Q 1516 4384 1395 4259 
Q 1275 4134 1275 3809 
L 1275 3500 
L 2222 3500 
L 2222 3053 
L 1275 3053 
L 1275 0 
L 697 0 
L 697 3053 
L 147 3053 
L 147 3500 
L 697 3500 
L 697 3744 
Q 697 4328 969 4595 
Q 1241 4863 1831 4863 
L 2375 4863 
z
" transform="scale(0.015625)"/>
       <path id="DejaVuSans-28" d="M 1984 4856 
Q 1566 4138 1362 3434 
Q 1159 2731 1159 2009 
Q 1159 1288 1364 580 
Q 1569 -128 1984 -844 
L 1484 -844 
Q 1016 -109 783 600 
Q 550 1309 550 2009 
Q 550 2706 781 3412 
Q 1013 4119 1484 4856 
L 1984 4856 
z
" transform="scale(0.015625)"/>
       <path id="DejaVuSans-29" d="M 513 4856 
L 1013 4856 
Q 1481 4119 1714 3412 
Q 1947 2706 1947 2009 
Q 1947 1309 1714 600 
Q 1481 -109 1013 -844 
L 513 -844 
Q 928 -128 1133 580 
Q 1338 1288 1338 2009 
Q 1338 2731 1133 3434 
Q 928 4138 513 4856 
z
" transform="scale(0.015625)"/>
       <path id="DejaVuSans-48" d="M 628 4666 
L 1259 4666 
L 1259 2753 
L 3553 2753 
L 3553 4666 
L 4184 4666 
L 4184 0 
L 3553 0 
L 3553 2222 
L 1259 2222 
L 1259 0 
L 628 0 
L 628 4666 
z
" transform="scale(0.015625)"/>
       <path id="DejaVuSans-7a" d="M 353 3500 
L 3084 3500 
L 3084 2975 
L 922 459 
L 3084 459 
L 3084 0 
L 275 0 
L 275 525 
L 2438 3041 
L 353 3041 
L 353 3500 
z
" transform="scale(0.015625)"/>
      </defs>
      <use xlink:href="#DejaVuSans-44"/>
      <use xlink:href="#DejaVuSans-66" x="77.001953"/>
      <use xlink:href="#DejaVuSans-28" x="112.207031"/>
      <use xlink:href="#DejaVuSans-5a" x="151.220703"/>
      <use xlink:href="#DejaVuSans-29" x="219.726562"/>
      <use xlink:href="#DejaVuSans-20" x="258.740234"/>
      <use xlink:href="#DejaVuSans-5b" x="290.527344"/>
      <use xlink:href="#DejaVuSans-48" x="329.541016"/>
      <use xlink:href="#DejaVuSans-7a" x="404.736328"/>
      <use xlink:href="#DejaVuSans-5d" x="457.226562"/>
     </g>
    </g>
   </g>
   <g id="line2d_12">
    <path d="M 276.872727 861.84 
L 279.255221 851.69602 
L 281.637716 834.602088 
L 284.02021 766.113149 
L 286.402704 734.074762 
L 288.785198 706.445144 
L 291.167693 674.962995 
L 293.550187 653.698789 
L 295.932681 634.662176 
L 300.697669 592.306975 
L 305.462658 561.981453 
L 310.227646 533.20351 
L 312.610141 520.336833 
L 314.992635 511.689865 
L 319.757623 489.968669 
L 322.140117 481.358683 
L 324.522612 476.510282 
L 326.905106 466.831595 
L 329.2876 464.364752 
L 331.670094 456.009111 
L 334.052589 450.043707 
L 336.435083 446.372311 
L 338.817577 437.307221 
L 341.200071 430.467837 
L 343.582565 426.525116 
L 345.96506 421.401615 
L 348.347554 415.075449 
L 350.730048 409.378729 
L 353.112542 405.984321 
L 355.495036 399.671362 
L 357.877531 397.605283 
L 360.260025 392.053094 
L 362.642519 385.443526 
L 365.025013 382.443465 
L 367.407508 377.473175 
L 369.790002 371.666265 
L 372.172496 371.434562 
L 374.55499 365.925393 
L 376.937484 363.414022 
L 379.319979 358.838457 
L 381.702473 357.293143 
L 384.084967 352.881732 
L 386.467461 346.157067 
L 388.849956 347.435961 
L 391.23245 342.648317 
L 393.614944 339.571273 
L 395.997438 337.505948 
L 398.379932 337.858408 
L 400.762427 331.658659 
L 405.527415 327.689145 
L 407.909909 323.105655 
L 410.292403 323.069806 
L 415.057392 314.256419 
L 417.439886 313.839429 
L 419.82238 310.686535 
L 422.204875 311.056354 
L 424.587369 306.838532 
L 426.969863 306.743813 
L 429.352357 304.360369 
L 431.734851 300.865203 
L 436.49984 296.486624 
L 438.882334 297.763253 
L 441.264828 293.858268 
L 443.647323 290.414425 
L 446.029817 291.758226 
L 448.412311 291.143496 
L 450.794805 285.078467 
L 453.177299 285.195451 
L 455.559794 283.936935 
L 457.942288 285.653196 
L 460.324782 278.215309 
L 462.707276 283.96486 
L 465.089771 276.05602 
L 467.472265 277.130381 
L 469.854759 272.488778 
L 472.237253 273.713331 
L 474.619747 273.554082 
L 477.002242 267.958497 
L 479.384736 270.264204 
L 481.76723 268.016611 
L 484.149724 265.0724 
L 486.532218 264.425972 
L 488.914713 263.438782 
L 491.297207 263.71275 
L 493.679701 262.542538 
L 496.062195 255.480885 
L 498.44469 260.038336 
L 503.209678 255.763909 
L 505.592172 256.954122 
L 507.974666 252.997815 
L 510.357161 253.770284 
L 512.739655 251.892887 
L 515.122149 252.423841 
L 517.504643 251.32231 
L 519.887138 253.563865 
L 522.269632 247.870164 
L 524.652126 247.257699 
L 527.03462 248.248662 
L 529.417114 246.646366 
L 531.799609 246.835803 
L 534.182103 244.832366 
L 536.564597 244.980671 
L 538.947091 240.298689 
L 541.329585 242.669681 
L 543.71208 242.82893 
L 546.094574 239.770754 
L 548.477068 240.184347 
L 550.859562 237.467311 
L 553.242057 241.225501 
L 555.624551 236.247286 
L 558.007045 233.812143 
L 560.389539 238.162797 
L 562.772033 233.689876 
L 565.154528 234.73669 
L 567.537022 231.500775 
L 569.919516 230.756609 
L 572.30201 232.197015 
L 574.684505 233.066844 
L 577.066999 230.99284 
L 579.449493 232.761555 
L 581.831987 228.11731 
L 584.214481 230.777741 
L 586.596976 226.199535 
L 588.97947 230.123011 
L 591.361964 224.905546 
L 593.744458 228.215802 
L 596.126952 225.334234 
L 598.509447 226.767094 
L 600.891941 224.703278 
L 603.274435 226.643695 
L 605.656929 224.533841 
L 608.039424 222.993055 
L 610.421918 222.79456 
L 612.804412 221.439438 
L 615.186906 222.829655 
L 617.5694 220.916409 
L 619.951895 222.6972 
L 622.334389 216.364241 
L 624.716883 221.927373 
L 627.099377 217.048783 
L 629.481872 220.487343 
L 631.864366 218.909198 
L 636.629354 216.345372 
L 639.011848 217.067274 
L 641.394343 216.634058 
L 643.776837 215.080064 
L 646.159331 214.683075 
L 648.541825 215.289125 
L 650.92432 215.086102 
L 653.306814 212.140759 
L 655.689308 216.159708 
L 658.071802 211.91283 
L 660.454296 213.961173 
L 665.219285 210.64186 
L 667.601779 209.529762 
L 669.984273 209.906374 
L 672.366767 210.116567 
L 674.749262 212.297366 
L 677.131756 206.975371 
L 679.51425 209.003336 
L 681.896744 208.013128 
L 684.279239 207.567836 
L 686.661733 205.72176 
L 689.044227 210.035056 
L 691.426721 204.263995 
L 693.809215 207.470475 
L 696.19171 206.093089 
L 698.574204 206.394604 
L 700.956698 205.914972 
L 703.339192 204.081727 
L 705.721687 204.839856 
L 708.104181 205.221373 
L 710.486675 202.74736 
L 712.869169 203.066235 
L 715.251663 205.937236 
L 717.634158 204.147766 
L 720.016652 203.340202 
L 722.399146 199.630693 
L 724.78164 200.609204 
L 727.164134 202.790757 
L 729.546629 200.274857 
L 731.929123 202.766229 
L 734.311617 199.160495 
L 739.076606 199.899 
L 741.4591 197.233663 
L 743.841594 199.171061 
L 746.224088 199.75296 
L 748.606582 198.603502 
L 750.989077 196.398929 
L 753.371571 197.325363 
L 755.754065 196.073262 
L 758.136559 196.661576 
L 760.519054 196.918185 
L 762.901548 196.106471 
L 765.284042 198.667277 
L 767.666536 195.247208 
L 770.04903 198.582747 
L 772.431525 197.808015 
L 774.814019 195.352493 
L 777.196513 192.377338 
L 779.579007 197.782731 
L 781.961502 192.174693 
L 784.343996 194.957391 
L 786.72649 190.470884 
L 789.108984 197.121586 
L 791.491478 194.487192 
L 793.873973 191.416941 
L 796.256467 192.798101 
L 798.638961 195.954015 
L 801.021455 193.606042 
L 803.403949 191.959594 
L 805.786444 192.004123 
L 808.168938 191.611662 
L 810.551432 195.243812 
L 812.933926 191.470527 
L 815.316421 189.06746 
L 817.698915 187.735734 
L 822.463903 193.687931 
L 824.846397 191.698456 
L 827.228892 187.744791 
L 829.611386 186.13457 
L 831.99388 190.633152 
L 834.376374 189.732756 
L 836.758869 190.105971 
L 839.141363 188.850097 
L 841.523857 188.799152 
L 843.906351 185.79494 
L 846.288845 186.047398 
L 848.67134 187.798377 
L 851.053834 185.675693 
L 853.436328 187.653846 
L 855.818822 184.11151 
L 858.201316 189.244067 
L 860.583811 185.034925 
L 862.966305 186.905906 
L 865.348799 189.007458 
L 867.731293 183.627726 
L 870.113788 183.699803 
L 872.496282 185.074548 
L 874.878776 184.540575 
L 877.26127 185.707391 
L 879.643764 183.284323 
L 882.026259 184.173775 
L 884.408753 183.721691 
L 886.791247 183.877165 
L 889.173741 184.373025 
L 891.556236 182.356002 
L 893.93873 183.499422 
L 896.321224 181.912975 
L 898.703718 184.761712 
L 901.086212 180.622382 
L 903.468707 185.804374 
L 905.851201 185.494934 
L 908.233695 181.638629 
L 910.616189 184.760202 
L 912.998684 181.133336 
L 915.381178 185.032283 
L 917.763672 182.521666 
L 920.146166 181.302019 
L 922.52866 182.169961 
L 924.911155 180.955219 
L 927.293649 181.82618 
L 929.676143 178.059311 
L 932.058637 179.77029 
L 934.441131 180.03671 
L 936.823626 177.838552 
L 939.20612 183.7432 
L 941.588614 182.157508 
L 943.971108 178.694419 
L 946.353603 178.801213 
L 948.736097 180.845028 
L 951.118591 179.474812 
L 953.501085 177.887987 
L 955.883579 180.341622 
L 958.266074 181.698253 
L 960.648568 178.61404 
L 963.031062 180.312942 
L 965.413556 180.055578 
L 967.796051 180.570683 
L 970.178545 177.072499 
L 972.561039 178.890649 
L 974.943533 176.880419 
L 977.326027 177.111368 
L 979.708522 176.984195 
L 982.091016 178.144219 
L 984.47351 177.410996 
L 986.856004 177.353637 
L 989.238498 176.042667 
L 991.620993 175.304538 
L 994.003487 176.581168 
L 996.385981 175.705679 
L 998.768475 176.052478 
L 1001.15097 175.513599 
L 1003.533464 178.349129 
L 1005.915958 176.752115 
L 1008.298452 171.516537 
L 1010.680946 178.026103 
L 1013.063441 175.115478 
L 1015.445935 174.42603 
L 1017.828429 177.35892 
L 1020.210923 174.533202 
L 1022.593418 172.966 
L 1024.975912 176.497015 
L 1027.358406 174.613581 
L 1029.7409 174.673205 
L 1032.123394 173.496577 
L 1034.505889 172.967887 
L 1036.888383 173.834697 
L 1039.270877 173.594692 
L 1041.653371 172.613163 
L 1044.035866 177.122311 
L 1046.41836 172.051642 
L 1048.800854 172.635805 
L 1051.183348 175.170196 
L 1053.565842 172.670145 
L 1055.948337 175.086421 
L 1058.330831 174.23697 
L 1060.713325 173.914699 
L 1063.095819 169.685556 
L 1065.478313 172.444103 
L 1067.860808 174.128665 
L 1070.243302 174.783396 
L 1072.625796 170.900298 
L 1075.00829 171.567104 
L 1077.390785 176.168707 
L 1079.773279 171.14219 
L 1082.155773 172.082586 
L 1084.538267 170.59199 
L 1086.920761 170.923695 
L 1089.303256 172.398064 
L 1091.68575 172.224098 
L 1094.068244 171.745221 
L 1096.450738 168.019107 
L 1098.833233 171.170869 
L 1101.215727 172.646371 
L 1103.598221 168.756858 
L 1108.363209 171.793524 
L 1110.745704 169.599517 
L 1113.128198 169.465552 
L 1115.510692 171.031244 
L 1117.893186 170.27387 
L 1120.27568 170.882184 
L 1122.658175 169.064034 
L 1125.040669 169.398003 
L 1127.423163 169.096488 
L 1129.805657 171.142567 
L 1132.188152 169.817634 
L 1134.570646 169.391211 
L 1136.95314 170.136509 
L 1139.335634 171.777674 
L 1141.718128 169.602158 
L 1144.100623 169.479137 
L 1146.483117 170.659916 
L 1148.865611 165.464338 
L 1151.248105 167.339848 
L 1153.6306 169.714991 
L 1156.013094 167.822877 
L 1158.395588 166.925878 
L 1160.778082 168.648177 
L 1163.160576 168.097977 
L 1165.543071 168.189677 
L 1167.925565 165.896423 
L 1170.308059 169.036486 
L 1172.690553 167.674195 
L 1175.073048 166.98286 
L 1177.455542 170.521422 
L 1179.838036 167.436454 
L 1182.22053 168.077976 
L 1184.603024 167.105881 
L 1186.985519 169.644801 
L 1189.368013 164.852628 
L 1194.133001 168.001371 
L 1196.515495 163.757889 
L 1198.89799 168.217979 
L 1201.280484 165.152634 
L 1203.662978 167.76363 
L 1206.045472 168.770443 
L 1208.427967 165.680192 
L 1210.810461 165.928121 
L 1213.192955 164.599038 
L 1215.575449 168.575722 
L 1217.957943 167.259469 
L 1220.340438 166.221712 
L 1222.722932 166.778705 
L 1225.105426 168.63761 
L 1227.48792 165.729627 
L 1229.870415 166.350772 
L 1232.252909 163.544677 
L 1234.635403 165.856044 
L 1237.017897 167.725516 
L 1239.400391 165.918687 
L 1241.782886 166.14473 
L 1244.16538 163.354107 
L 1246.547874 165.544717 
L 1248.930368 162.65447 
L 1251.312862 167.062861 
L 1253.695357 163.614489 
L 1256.077851 165.827742 
L 1258.460345 164.061668 
L 1260.842839 164.120915 
L 1263.225334 164.863194 
L 1265.607828 163.882042 
L 1267.990322 163.33788 
L 1270.372816 167.430039 
L 1272.75531 164.744324 
L 1275.137805 163.754115 
L 1277.520299 165.059047 
L 1279.902793 162.54994 
L 1282.285287 163.350333 
L 1284.667782 165.693777 
L 1287.050276 166.32662 
L 1289.43277 164.876025 
L 1291.815264 160.687638 
L 1294.197758 162.752208 
L 1296.580253 163.804305 
L 1298.962747 163.737888 
L 1301.345241 163.165801 
L 1303.727735 162.155969 
L 1306.110229 164.586207 
L 1308.492724 161.245007 
L 1310.875218 163.457505 
L 1313.257712 160.571409 
L 1315.640206 165.38245 
L 1318.022701 163.477883 
L 1320.405195 164.794513 
L 1322.787689 160.383858 
L 1325.170183 162.843908 
L 1327.552677 160.852169 
L 1329.935172 166.289638 
L 1332.317666 160.360461 
L 1334.70016 161.725017 
L 1337.082654 164.109594 
L 1339.465149 162.150309 
L 1344.230137 162.584657 
L 1346.612631 163.465807 
L 1348.995125 161.166138 
L 1351.37762 159.297798 
L 1353.760114 159.941207 
L 1356.142608 162.376351 
L 1358.525102 161.417464 
L 1360.907597 162.213329 
L 1363.290091 161.869926 
L 1365.672585 162.572204 
L 1368.055079 159.20723 
L 1370.437573 164.060159 
L 1372.820068 161.207271 
L 1375.202562 162.511826 
L 1377.585056 161.954833 
L 1379.96755 158.556273 
L 1382.350044 163.643169 
L 1384.732539 156.596234 
L 1387.115033 162.531826 
L 1389.497527 161.686148 
L 1391.880021 161.725772 
L 1394.262516 159.920452 
L 1396.64501 161.04123 
L 1399.027504 161.112552 
L 1401.409998 161.889549 
L 1403.792492 160.488766 
L 1406.174987 158.746466 
L 1408.557481 160.676694 
L 1410.939975 160.011775 
L 1413.322469 160.910284 
L 1415.704964 159.784978 
L 1418.087458 158.942319 
L 1420.469952 161.51973 
L 1422.852446 162.874097 
L 1425.23494 160.215552 
L 1429.999929 161.179346 
L 1432.382423 160.524238 
L 1434.764917 159.694032 
L 1437.147411 161.62577 
L 1439.529906 160.854811 
L 1441.9124 157.337381 
L 1444.294894 162.046533 
L 1446.677388 158.531367 
L 1449.059883 159.012132 
L 1451.442377 158.146831 
L 1453.824871 160.396311 
L 1456.207365 158.116265 
L 1458.589859 162.439371 
L 1460.972354 159.019679 
L 1463.354848 157.817768 
L 1465.737342 159.403083 
L 1468.119836 157.978526 
L 1470.502331 160.345366 
L 1472.884825 158.996282 
L 1475.267319 156.24 
L 1477.649813 160.352914 
L 1480.032307 160.452916 
L 1482.414802 156.580762 
L 1484.797296 160.398198 
L 1487.17979 157.844938 
L 1489.562284 156.91775 
L 1491.944779 160.921605 
L 1494.327273 158.797033 
L 1494.327273 158.797033 
" clip-path="url(#p9796dcac10)" style="fill: none; stroke: #00c9a7; stroke-width: 2.25; stroke-linecap: round"/>
   </g>
   <g id="line2d_13">
    <path d="M 276.872727 856.806313 
L 279.255221 835.572674 
L 281.637716 818.376098 
L 284.02021 814.215259 
L 286.402704 808.986473 
L 288.785198 803.178053 
L 291.167693 802.252374 
L 293.550187 804.007127 
L 295.932681 795.556766 
L 298.315175 788.686438 
L 300.697669 777.72697 
L 303.080164 769.533218 
L 305.462658 757.469577 
L 307.845152 749.896593 
L 310.227646 740.928109 
L 312.610141 731.307913 
L 314.992635 717.488387 
L 317.375129 709.728607 
L 319.757623 689.657633 
L 322.140117 680.633299 
L 324.522612 667.137175 
L 326.905106 660.139297 
L 329.2876 655.363351 
L 331.670094 640.286818 
L 334.052589 631.733814 
L 336.435083 616.987099 
L 338.817577 594.560606 
L 343.582565 554.428847 
L 345.96506 537.655299 
L 348.347554 522.570841 
L 350.730048 506.278057 
L 353.112542 486.950872 
L 355.495036 478.034464 
L 357.877531 464.32362 
L 360.260025 448.727076 
L 362.642519 438.17705 
L 365.025013 424.178653 
L 367.407508 418.293627 
L 369.790002 407.84134 
L 376.937484 385.794099 
L 379.319979 378.518857 
L 381.702473 375.436907 
L 384.084967 365.369156 
L 386.467461 365.449912 
L 388.849956 356.390105 
L 391.23245 350.975656 
L 393.614944 348.624664 
L 395.997438 347.963519 
L 398.379932 341.317346 
L 400.762427 336.030446 
L 403.144921 335.940633 
L 405.527415 330.485805 
L 407.909909 328.430292 
L 410.292403 319.083687 
L 412.674898 320.92712 
L 415.057392 315.016434 
L 417.439886 311.298623 
L 419.82238 311.530326 
L 424.587369 304.245649 
L 426.969863 302.343347 
L 429.352357 299.763671 
L 431.734851 296.650401 
L 434.117346 295.173767 
L 436.49984 295.193767 
L 438.882334 289.108738 
L 441.264828 288.302306 
L 443.647323 287.075866 
L 446.029817 285.173186 
L 448.412311 282.086331 
L 450.794805 282.334261 
L 453.177299 279.245896 
L 455.559794 277.360197 
L 457.942288 275.729976 
L 460.324782 275.990358 
L 462.707276 275.87262 
L 465.089771 272.972938 
L 467.472265 271.004596 
L 469.854759 268.717003 
L 472.237253 267.42075 
L 474.619747 268.757381 
L 477.002242 265.189384 
L 479.384736 265.467125 
L 481.76723 263.931623 
L 484.149724 262.655748 
L 486.532218 260.404004 
L 488.914713 262.681786 
L 491.297207 256.819025 
L 493.679701 260.213056 
L 496.062195 261.893091 
L 498.44469 253.874437 
L 500.827184 258.175657 
L 503.209678 257.817159 
L 505.592172 254.840494 
L 507.974666 255.606548 
L 510.357161 252.183837 
L 512.739655 251.163439 
L 515.122149 254.068026 
L 517.504643 250.048322 
L 519.887138 251.696657 
L 522.269632 249.456611 
L 524.652126 250.861923 
L 527.03462 244.311979 
L 529.417114 246.537307 
L 531.799609 247.64299 
L 534.182103 244.521039 
L 536.564597 244.643683 
L 538.947091 242.592321 
L 541.329585 245.848991 
L 543.71208 239.334519 
L 546.094574 237.16655 
L 548.477068 239.040928 
L 550.859562 239.118288 
L 553.242057 239.585467 
L 555.624551 236.832581 
L 558.007045 238.254874 
L 560.389539 236.357855 
L 562.772033 235.397458 
L 565.154528 232.534758 
L 567.537022 236.528047 
L 569.919516 234.580837 
L 572.30201 231.600399 
L 574.684505 230.299618 
L 577.066999 233.921956 
L 579.449493 229.530546 
L 581.831987 229.446771 
L 584.214481 231.378131 
L 586.596976 226.702187 
L 588.97947 229.34941 
L 591.361964 227.915419 
L 593.744458 226.684828 
L 596.126952 225.800659 
L 598.509447 226.59992 
L 600.891941 222.533423 
L 603.274435 228.608641 
L 605.656929 222.330022 
L 608.039424 221.594536 
L 610.421918 223.667408 
L 612.804412 222.714181 
L 615.186906 220.368473 
L 617.5694 221.918693 
L 619.951895 218.608815 
L 622.334389 218.748818 
L 624.716883 221.957939 
L 627.099377 218.865046 
L 629.481872 220.314887 
L 631.864366 218.708062 
L 634.24686 217.637852 
L 636.629354 215.562338 
L 639.011848 218.985803 
L 641.394343 217.317845 
L 643.776837 214.309482 
L 646.159331 215.859325 
L 648.541825 214.243443 
L 650.92432 213.443049 
L 653.306814 215.723473 
L 655.689308 210.936961 
L 658.071802 214.615149 
L 660.454296 211.090926 
L 662.836791 212.560012 
L 665.219285 211.477349 
L 667.601779 211.95434 
L 669.984273 211.284515 
L 672.366767 212.124155 
L 674.749262 208.125205 
L 677.131756 209.487497 
L 679.51425 211.174701 
L 681.896744 205.025142 
L 684.279239 207.934635 
L 686.661733 211.827922 
L 689.044227 207.188583 
L 691.426721 206.379887 
L 693.809215 207.397266 
L 696.19171 207.718027 
L 698.574204 204.127766 
L 700.956698 207.460664 
L 703.339192 204.336449 
L 705.721687 205.688552 
L 708.104181 204.189276 
L 710.486675 206.294225 
L 712.869169 201.816398 
L 715.251663 206.010068 
L 717.634158 200.496748 
L 720.016652 204.956084 
L 722.399146 201.11978 
L 724.78164 200.352972 
L 727.164134 200.30165 
L 729.546629 203.319447 
L 731.929123 200.741659 
L 734.311617 203.50813 
L 736.694111 200.552599 
L 739.076606 202.667736 
L 741.4591 200.454106 
L 743.841594 198.871055 
L 746.224088 198.713693 
L 748.606582 200.259008 
L 750.989077 198.02651 
L 753.371571 198.398215 
L 755.754065 195.361172 
L 760.519054 199.802395 
L 762.901548 198.737845 
L 765.284042 196.975922 
L 767.666536 196.058545 
L 770.04903 196.691765 
L 772.431525 194.152846 
L 774.814019 195.49476 
L 777.196513 193.585665 
L 779.579007 194.861162 
L 781.961502 195.508723 
L 784.343996 195.208716 
L 786.72649 191.9845 
L 789.108984 194.648705 
L 791.491478 193.9302 
L 793.873973 197.68839 
L 796.256467 193.499625 
L 798.638961 191.425243 
L 801.021455 193.121127 
L 803.403949 192.261864 
L 805.786444 189.159914 
L 808.168938 189.976535 
L 810.551432 192.592814 
L 812.933926 190.168991 
L 815.316421 192.663759 
L 817.698915 190.887119 
L 820.081409 191.382224 
L 822.463903 189.813135 
L 827.228892 190.816929 
L 829.611386 188.953872 
L 831.99388 189.036516 
L 834.376374 189.974648 
L 836.758869 188.946702 
L 839.141363 191.200333 
L 841.523857 189.810116 
L 843.906351 185.705504 
L 846.288845 190.20786 
L 848.67134 190.519565 
L 851.053834 187.111571 
L 853.436328 187.812717 
L 855.818822 185.083605 
L 858.201316 187.228932 
L 860.583811 187.968192 
L 862.966305 185.172663 
L 865.348799 187.227045 
L 867.731293 186.73911 
L 870.113788 184.770014 
L 872.496282 187.568939 
L 874.878776 184.980207 
L 877.26127 185.397196 
L 879.643764 182.671858 
L 882.026259 183.056017 
L 884.408753 184.429252 
L 886.791247 181.712593 
L 889.173741 185.77494 
L 891.556236 183.105074 
L 893.93873 184.896431 
L 896.321224 183.763956 
L 898.703718 182.970355 
L 901.086212 183.153755 
L 903.468707 183.057903 
L 905.851201 183.145075 
L 908.233695 184.734164 
L 910.616189 183.660935 
L 912.998684 180.479361 
L 915.381178 182.46959 
L 917.763672 182.397513 
L 920.146166 183.926978 
L 922.52866 180.554834 
L 924.911155 180.786914 
L 927.293649 183.693011 
L 929.676143 178.094784 
L 932.058637 180.683893 
L 934.441131 181.610704 
L 936.823626 178.530642 
L 939.20612 180.531437 
L 941.588614 178.085727 
L 943.971108 180.783895 
L 946.353603 180.955974 
L 948.736097 180.643137 
L 951.118591 180.780499 
L 953.501085 180.502003 
L 955.883579 177.109103 
L 958.266074 178.938952 
L 960.648568 177.73289 
L 963.031062 178.764609 
L 965.413556 179.555946 
L 967.796051 179.04386 
L 970.178545 177.535904 
L 972.561039 181.414097 
L 974.943533 177.791004 
L 977.326027 177.920441 
L 979.708522 178.644606 
L 982.091016 176.297389 
L 984.47351 179.918972 
L 986.856004 178.142332 
L 989.238498 175.758887 
L 991.620993 176.924571 
L 994.003487 175.241518 
L 996.385981 177.813269 
L 998.768475 178.20988 
L 1001.15097 177.828363 
L 1003.533464 175.753604 
L 1005.915958 175.190574 
L 1008.298452 174.886417 
L 1010.680946 174.921889 
L 1013.063441 178.261957 
L 1015.445935 173.615825 
L 1017.828429 174.009795 
L 1020.210923 173.560729 
L 1022.593418 173.700355 
L 1024.975912 175.042269 
L 1027.358406 174.080363 
L 1029.7409 173.755828 
L 1032.123394 177.102688 
L 1034.505889 172.073152 
L 1036.888383 173.619221 
L 1039.270877 173.526012 
L 1041.653371 176.163801 
L 1044.035866 171.926734 
L 1046.41836 175.737377 
L 1048.800854 173.153551 
L 1051.183348 173.524502 
L 1053.565842 175.4819 
L 1055.948337 173.160721 
L 1058.330831 173.490162 
L 1060.713325 173.937341 
L 1063.095819 172.798072 
L 1065.478313 172.476556 
L 1067.860808 173.904887 
L 1070.243302 171.287476 
L 1075.00829 175.100006 
L 1077.390785 170.75388 
L 1079.773279 172.533916 
L 1082.155773 175.071326 
L 1084.538267 170.258775 
L 1086.920761 170.659161 
L 1089.303256 169.092714 
L 1091.68575 172.144097 
L 1094.068244 170.447459 
L 1096.450738 172.03051 
L 1098.833233 169.617253 
L 1101.215727 170.823693 
L 1103.598221 173.843377 
L 1105.980715 171.719183 
L 1108.363209 172.835809 
L 1110.745704 170.60633 
L 1113.128198 169.249698 
L 1115.510692 171.577293 
L 1120.27568 169.435363 
L 1122.658175 169.728576 
L 1125.040669 170.565197 
L 1127.423163 174.022626 
L 1129.805657 169.936127 
L 1132.188152 169.697255 
L 1134.570646 169.908957 
L 1136.95314 167.925143 
L 1139.335634 171.85428 
L 1141.718128 171.877299 
L 1144.100623 167.923256 
L 1146.483117 167.855708 
L 1148.865611 169.948958 
L 1151.248105 170.247077 
L 1153.6306 170.170094 
L 1156.013094 168.310057 
L 1158.395588 166.95418 
L 1160.778082 169.595366 
L 1165.543071 167.527399 
L 1167.925565 170.233115 
L 1170.308059 168.010051 
L 1172.690553 169.841786 
L 1175.073048 165.613021 
L 1177.455542 169.37989 
L 1179.838036 168.506287 
L 1182.22053 166.457944 
L 1184.603024 167.699856 
L 1186.985519 166.700967 
L 1189.368013 168.359492 
L 1191.750507 163.406561 
L 1194.133001 171.517669 
L 1196.515495 167.667025 
L 1198.89799 168.002881 
L 1201.280484 165.491886 
L 1203.662978 167.070786 
L 1206.045472 165.901706 
L 1208.427967 168.379115 
L 1210.810461 167.361358 
L 1213.192955 167.611174 
L 1215.575449 169.993864 
L 1217.957943 165.174899 
L 1220.340438 167.916841 
L 1222.722932 166.076049 
L 1225.105426 165.353015 
L 1227.48792 164.365071 
L 1229.870415 165.00848 
L 1232.252909 167.375698 
L 1234.635403 163.037874 
L 1237.017897 165.434904 
L 1239.400391 165.805855 
L 1241.782886 167.088522 
L 1244.16538 164.89678 
L 1246.547874 166.519077 
L 1248.930368 165.55717 
L 1251.312862 166.265109 
L 1253.695357 165.00131 
L 1256.077851 166.218316 
L 1258.460345 163.283539 
L 1260.842839 163.786946 
L 1263.225334 166.982482 
L 1265.607828 166.288506 
L 1267.990322 163.317502 
L 1270.372816 165.44698 
L 1272.75531 165.266976 
L 1275.137805 165.506981 
L 1277.520299 164.306956 
L 1279.902793 162.94957 
L 1282.285287 164.856402 
L 1284.667782 168.037221 
L 1287.050276 162.770321 
L 1289.43277 163.606187 
L 1291.815264 164.087707 
L 1294.197758 164.997159 
L 1296.580253 164.282805 
L 1298.962747 165.516038 
L 1301.345241 163.916005 
L 1303.727735 163.928081 
L 1306.110229 161.378972 
L 1308.492724 167.58174 
L 1310.875218 160.947643 
L 1313.257712 163.969214 
L 1315.640206 161.825397 
L 1318.022701 161.7103 
L 1320.405195 162.705792 
L 1322.787689 162.943155 
L 1325.170183 161.983513 
L 1327.552677 162.459372 
L 1329.935172 160.481973 
L 1332.317666 160.792545 
L 1334.70016 163.954119 
L 1337.082654 162.720886 
L 1339.465149 160.085361 
L 1341.847643 162.970325 
L 1344.230137 160.07404 
L 1346.612631 165.692645 
L 1348.995125 158.606463 
L 1351.37762 159.91366 
L 1356.142608 164.872251 
L 1358.525102 159.36195 
L 1360.907597 160.654429 
L 1363.290091 164.040913 
L 1365.672585 160.609145 
L 1368.055079 162.625035 
L 1370.437573 158.518537 
L 1372.820068 161.275951 
L 1375.202562 160.628391 
L 1377.585056 161.274442 
L 1379.96755 162.367294 
L 1382.350044 157.94645 
L 1384.732539 163.63449 
L 1387.115033 160.55971 
L 1389.497527 160.964624 
L 1391.880021 160.642354 
L 1394.262516 159.424216 
L 1396.64501 160.722355 
L 1399.027504 160.945756 
L 1401.409998 161.048777 
L 1403.792492 160.254044 
L 1408.557481 162.070307 
L 1410.939975 159.8763 
L 1413.322469 161.656714 
L 1415.704964 160.876321 
L 1418.087458 158.525329 
L 1420.469952 160.729903 
L 1422.852446 157.898147 
L 1425.23494 161.477465 
L 1427.617435 159.761204 
L 1429.999929 159.911395 
L 1432.382423 159.945736 
L 1434.764917 159.209117 
L 1437.147411 157.950978 
L 1439.529906 161.329915 
L 1441.9124 159.011377 
L 1444.294894 158.931753 
L 1446.677388 161.065004 
L 1449.059883 159.565728 
L 1451.442377 161.284253 
L 1453.824871 159.011754 
L 1456.207365 160.600843 
L 1458.589859 158.057395 
L 1460.972354 158.68722 
L 1463.354848 158.200417 
L 1465.737342 158.400799 
L 1468.119836 158.812882 
L 1470.502331 157.262285 
L 1472.884825 160.380462 
L 1475.267319 157.835881 
L 1477.649813 159.074775 
L 1480.032307 161.469163 
L 1484.797296 157.699652 
L 1487.17979 159.31893 
L 1489.562284 159.2861 
L 1491.944779 160.326498 
L 1494.327273 159.692523 
L 1494.327273 159.692523 
" clip-path="url(#p9796dcac10)" style="fill: none; stroke: #ffc75f; stroke-width: 2.25; stroke-linecap: round"/>
   </g>
   <g id="patch_3">
    <path d="M 216 897.12 
L 216 120.96 
" style="fill: none; stroke: #262626; stroke-width: 1.875; stroke-linejoin: miter; stroke-linecap: square"/>
   </g>
   <g id="patch_4">
    <path d="M 1555.2 897.12 
L 1555.2 120.96 
" style="fill: none; stroke: #262626; stroke-width: 1.875; stroke-linejoin: miter; stroke-linecap: square"/>
   </g>
   <g id="patch_5">
    <path d="M 216 897.12 
L 1555.2 897.12 
" style="fill: none; stroke: #262626; stroke-width: 1.875; stroke-linejoin: miter; stroke-linecap: square"/>
   </g>
   <g id="patch_6">
    <path d="M 216 120.96 
L 1555.2 120.96 
" style="fill: none; stroke: #262626; stroke-width: 1.875; stroke-linejoin: miter; stroke-linecap: square"/>
   </g>
   <g id="text_14">
    <!-- Df(Z) -->
    <g style="fill: #262626" transform="translate(820.916406 110.561563)scale(0.5 -0.5)">
     <use xlink:href="#DejaVuSans-44"/>
     <use xlink:href="#DejaVuSans-66" x="77.001953"/>
     <use xlink:href="#DejaVuSans-28" x="112.207031"/>
     <use xlink:href="#DejaVuSans-5a" x="151.220703"/>
     <use xlink:href="#DejaVuSans-29" x="219.726562"/>
    </g>
   </g>
   <g id="legend_1">
    <g id="patch_7">
     <path d="M 227.55 182.597813 
L 361.029844 182.597813 
Q 364.329844 182.597813 364.329844 179.297813 
L 364.329844 132.51 
Q 364.329844 129.21 361.029844 129.21 
L 227.55 129.21 
Q 224.25 129.21 224.25 132.51 
L 224.25 179.297813 
Q 224.25 182.597813 227.55 182.597813 
z
" style="fill: #ffffff; opacity: 0.8; stroke: #cccccc; stroke-width: 1.5; stroke-linejoin: miter"/>
    </g>
    <g id="line2d_14">
     <path d="M 230.85 142.572422 
L 247.35 142.572422 
L 263.85 142.572422 
" style="fill: none; stroke: #00c9a7; stroke-width: 2.25; stroke-linecap: round"/>
    </g>
    <g id="text_15">
     <!-- df trace -->
     <g style="fill: #262626" transform="translate(277.05 148.347422)scale(0.165 -0.165)">
      <defs>
       <path id="DejaVuSans-64" d="M 2906 2969 
L 2906 4863 
L 3481 4863 
L 3481 0 
L 2906 0 
L 2906 525 
Q 2725 213 2448 61 
Q 2172 -91 1784 -91 
Q 1150 -91 751 415 
Q 353 922 353 1747 
Q 353 2572 751 3078 
Q 1150 3584 1784 3584 
Q 2172 3584 2448 3432 
Q 2725 3281 2906 2969 
z
M 947 1747 
Q 947 1113 1208 752 
Q 1469 391 1925 391 
Q 2381 391 2643 752 
Q 2906 1113 2906 1747 
Q 2906 2381 2643 2742 
Q 2381 3103 1925 3103 
Q 1469 3103 1208 2742 
Q 947 2381 947 1747 
z
" transform="scale(0.015625)"/>
       <path id="DejaVuSans-74" d="M 1172 4494 
L 1172 3500 
L 2356 3500 
L 2356 3053 
L 1172 3053 
L 1172 1153 
Q 1172 725 1289 603 
Q 1406 481 1766 481 
L 2356 481 
L 2356 0 
L 1766 0 
Q 1100 0 847 248 
Q 594 497 594 1153 
L 594 3053 
L 172 3053 
L 172 3500 
L 594 3500 
L 594 4494 
L 1172 4494 
z
" transform="scale(0.015625)"/>
       <path id="DejaVuSans-72" d="M 2631 2963 
Q 2534 3019 2420 3045 
Q 2306 3072 2169 3072 
Q 1681 3072 1420 2755 
Q 1159 2438 1159 1844 
L 1159 0 
L 581 0 
L 581 3500 
L 1159 3500 
L 1159 2956 
Q 1341 3275 1631 3429 
Q 1922 3584 2338 3584 
Q 2397 3584 2469 3576 
Q 2541 3569 2628 3553 
L 2631 2963 
z
" transform="scale(0.015625)"/>
       <path id="DejaVuSans-61" d="M 2194 1759 
Q 1497 1759 1228 1600 
Q 959 1441 959 1056 
Q 959 750 1161 570 
Q 1363 391 1709 391 
Q 2188 391 2477 730 
Q 2766 1069 2766 1631 
L 2766 1759 
L 2194 1759 
z
M 3341 1997 
L 3341 0 
L 2766 0 
L 2766 531 
Q 2569 213 2275 61 
Q 1981 -91 1556 -91 
Q 1019 -91 701 211 
Q 384 513 384 1019 
Q 384 1609 779 1909 
Q 1175 2209 1959 2209 
L 2766 2209 
L 2766 2266 
Q 2766 2663 2505 2880 
Q 2244 3097 1772 3097 
Q 1472 3097 1187 3025 
Q 903 2953 641 2809 
L 641 3341 
Q 956 3463 1253 3523 
Q 1550 3584 1831 3584 
Q 2591 3584 2966 3190 
Q 3341 2797 3341 1997 
z
" transform="scale(0.015625)"/>
       <path id="DejaVuSans-63" d="M 3122 3366 
L 3122 2828 
Q 2878 2963 2633 3030 
Q 2388 3097 2138 3097 
Q 1578 3097 1268 2742 
Q 959 2388 959 1747 
Q 959 1106 1268 751 
Q 1578 397 2138 397 
Q 2388 397 2633 464 
Q 2878 531 3122 666 
L 3122 134 
Q 2881 22 2623 -34 
Q 2366 -91 2075 -91 
Q 1284 -91 818 406 
Q 353 903 353 1747 
Q 353 2603 823 3093 
Q 1294 3584 2113 3584 
Q 2378 3584 2631 3529 
Q 2884 3475 3122 3366 
z
" transform="scale(0.015625)"/>
       <path id="DejaVuSans-65" d="M 3597 1894 
L 3597 1613 
L 953 1613 
Q 991 1019 1311 708 
Q 1631 397 2203 397 
Q 2534 397 2845 478 
Q 3156 559 3463 722 
L 3463 178 
Q 3153 47 2828 -22 
Q 2503 -91 2169 -91 
Q 1331 -91 842 396 
Q 353 884 353 1716 
Q 353 2575 817 3079 
Q 1281 3584 2069 3584 
Q 2775 3584 3186 3129 
Q 3597 2675 3597 1894 
z
M 3022 2063 
Q 3016 2534 2758 2815 
Q 2500 3097 2075 3097 
Q 1594 3097 1305 2825 
Q 1016 2553 972 2059 
L 3022 2063 
z
" transform="scale(0.015625)"/>
      </defs>
      <use xlink:href="#DejaVuSans-64"/>
      <use xlink:href="#DejaVuSans-66" x="63.476562"/>
      <use xlink:href="#DejaVuSans-20" x="98.681641"/>
      <use xlink:href="#DejaVuSans-74" x="130.46875"/>
      <use xlink:href="#DejaVuSans-72" x="169.677734"/>
      <use xlink:href="#DejaVuSans-61" x="210.791016"/>
      <use xlink:href="#DejaVuSans-63" x="272.070312"/>
      <use xlink:href="#DejaVuSans-65" x="327.050781"/>
     </g>
    </g>
    <g id="line2d_15">
     <path d="M 230.85 166.791328 
L 247.35 166.791328 
L 263.85 166.791328 
" style="fill: none; stroke: #ffc75f; stroke-width: 2.25; stroke-linecap: round"/>
    </g>
    <g id="text_16">
     <!-- df retrace -->
     <g style="fill: #262626" transform="translate(277.05 172.566328)scale(0.165 -0.165)">
      <use xlink:href="#DejaVuSans-64"/>
      <use xlink:href="#DejaVuSans-66" x="63.476562"/>
      <use xlink:href="#DejaVuSans-20" x="98.681641"/>
      <use xlink:href="#DejaVuSans-72" x="130.46875"/>
      <use xlink:href="#DejaVuSans-65" x="169.332031"/>
      <use xlink:href="#DejaVuSans-74" x="230.855469"/>
      <use xlink:href="#DejaVuSans-72" x="270.064453"/>
      <use xlink:href="#DejaVuSans-61" x="311.177734"/>
      <use xlink:href="#DejaVuSans-63" x="372.457031"/>
      <use xlink:href="#DejaVuSans-65" x="427.4375"/>
     </g>
    </g>
   </g>
  </g>
 </g>
 <defs>
  <clipPath id="p9796dcac10">
   <rect x="216" y="120.96" width="1339.2" height="776.16"/>
  </clipPath>
 </defs>
</svg>
