<?xml version="1.0" encoding="utf-8" standalone="no"?>
<!DOCTYPE svg PUBLIC "-//W3C//DTD SVG 1.1//EN"
  "http://www.w3.org/Graphics/SVG/1.1/DTD/svg11.dtd">
<svg xmlns:xlink="http://www.w3.org/1999/xlink" width="1728pt" height="1008pt" viewBox="0 0 1728 1008" xmlns="http://www.w3.org/2000/svg" version="1.1">
 <metadata>
  <rdf:RDF xmlns:dc="http://purl.org/dc/elements/1.1/" xmlns:cc="http://creativecommons.org/ns#" xmlns:rdf="http://www.w3.org/1999/02/22-rdf-syntax-ns#">
   <cc:Work>
    <dc:type rdf:resource="http://purl.org/dc/dcmitype/StillImage"/>
    <dc:date>2022-10-28T13:01:17.801976</dc:date>
    <dc:format>image/svg+xml</dc:format>
    <dc:creator>
     <cc:Agent>
      <dc:title>Matplotlib v3.5.2, https://matplotlib.org/</dc:title>
     </cc:Agent>
    </dc:creator>
   </cc:Work>
  </rdf:RDF>
 </metadata>
 <defs>
  <style type="text/css">*{stroke-linejoin: round; stroke-linecap: butt}</style>
 </defs>
 <g id="figure_1">
  <g id="patch_1">
   <path d="M 0 1008 
L 1728 1008 
L 1728 0 
L 0 0 
z
" style="fill: #ffffff"/>
  </g>
  <g id="axes_1">
   <g id="patch_2">
    <path d="M 216 897.12 
L 1555.2 897.12 
L 1555.2 120.96 
L 216 120.96 
L 216 897.12 
z
" style="fill: none"/>
   </g>
   <g id="matplotlib.axis_1">
    <g id="xtick_1">
     <g id="line2d_1">
      <defs>
       <path id="m25d0f7aeca" d="M 0 0 
L 0 9 
" style="stroke: #262626; stroke-width: 1.875"/>
      </defs>
      <g>
       <use xlink:href="#m25d0f7aeca" x="435.828637" y="897.12" style="fill: #262626; stroke: #262626; stroke-width: 1.875"/>
      </g>
     </g>
     <g id="text_1">
      <!-- 0.0 -->
      <g style="fill: #262626" transform="translate(397.661137 946.0925)scale(0.48 -0.48)">
       <defs>
        <path id="DejaVuSans-30" d="M 2034 4250 
Q 1547 4250 1301 3770 
Q 1056 3291 1056 2328 
Q 1056 1369 1301 889 
Q 1547 409 2034 409 
Q 2525 409 2770 889 
Q 3016 1369 3016 2328 
Q 3016 3291 2770 3770 
Q 2525 4250 2034 4250 
z
M 2034 4750 
Q 2819 4750 3233 4129 
Q 3647 3509 3647 2328 
Q 3647 1150 3233 529 
Q 2819 -91 2034 -91 
Q 1250 -91 836 529 
Q 422 1150 422 2328 
Q 422 3509 836 4129 
Q 1250 4750 2034 4750 
z
" transform="scale(0.015625)"/>
        <path id="DejaVuSans-2e" d="M 684 794 
L 1344 794 
L 1344 0 
L 684 0 
L 684 794 
z
" transform="scale(0.015625)"/>
       </defs>
       <use xlink:href="#DejaVuSans-30"/>
       <use xlink:href="#DejaVuSans-2e" x="63.623047"/>
       <use xlink:href="#DejaVuSans-30" x="95.410156"/>
      </g>
     </g>
    </g>
    <g id="xtick_2">
     <g id="line2d_2">
      <g>
       <use xlink:href="#m25d0f7aeca" x="700.755153" y="897.12" style="fill: #262626; stroke: #262626; stroke-width: 1.875"/>
      </g>
     </g>
     <g id="text_2">
      <!-- 0.5 -->
      <g style="fill: #262626" transform="translate(662.587653 946.0925)scale(0.48 -0.48)">
       <defs>
        <path id="DejaVuSans-35" d="M 691 4666 
L 3169 4666 
L 3169 4134 
L 1269 4134 
L 1269 2991 
Q 1406 3038 1543 3061 
Q 1681 3084 1819 3084 
Q 2600 3084 3056 2656 
Q 3513 2228 3513 1497 
Q 3513 744 3044 326 
Q 2575 -91 1722 -91 
Q 1428 -91 1123 -41 
Q 819 9 494 109 
L 494 744 
Q 775 591 1075 516 
Q 1375 441 1709 441 
Q 2250 441 2565 725 
Q 2881 1009 2881 1497 
Q 2881 1984 2565 2268 
Q 2250 2553 1709 2553 
Q 1456 2553 1204 2497 
Q 953 2441 691 2322 
L 691 4666 
z
" transform="scale(0.015625)"/>
       </defs>
       <use xlink:href="#DejaVuSans-30"/>
       <use xlink:href="#DejaVuSans-2e" x="63.623047"/>
       <use xlink:href="#DejaVuSans-35" x="95.410156"/>
      </g>
     </g>
    </g>
    <g id="xtick_3">
     <g id="line2d_3">
      <g>
       <use xlink:href="#m25d0f7aeca" x="965.681669" y="897.12" style="fill: #262626; stroke: #262626; stroke-width: 1.875"/>
      </g>
     </g>
     <g id="text_3">
      <!-- 1.0 -->
      <g style="fill: #262626" transform="translate(927.514169 946.0925)scale(0.48 -0.48)">
       <defs>
        <path id="DejaVuSans-31" d="M 794 531 
L 1825 531 
L 1825 4091 
L 703 3866 
L 703 4441 
L 1819 4666 
L 2450 4666 
L 2450 531 
L 3481 531 
L 3481 0 
L 794 0 
L 794 531 
z
" transform="scale(0.015625)"/>
       </defs>
       <use xlink:href="#DejaVuSans-31"/>
       <use xlink:href="#DejaVuSans-2e" x="63.623047"/>
       <use xlink:href="#DejaVuSans-30" x="95.410156"/>
      </g>
     </g>
    </g>
    <g id="xtick_4">
     <g id="line2d_4">
      <g>
       <use xlink:href="#m25d0f7aeca" x="1230.608185" y="897.12" style="fill: #262626; stroke: #262626; stroke-width: 1.875"/>
      </g>
     </g>
     <g id="text_4">
      <!-- 1.5 -->
      <g style="fill: #262626" transform="translate(1192.440685 946.0925)scale(0.48 -0.48)">
       <use xlink:href="#DejaVuSans-31"/>
       <use xlink:href="#DejaVuSans-2e" x="63.623047"/>
       <use xlink:href="#DejaVuSans-35" x="95.410156"/>
      </g>
     </g>
    </g>
    <g id="xtick_5">
     <g id="line2d_5">
      <g>
       <use xlink:href="#m25d0f7aeca" x="1495.5347" y="897.12" style="fill: #262626; stroke: #262626; stroke-width: 1.875"/>
      </g>
     </g>
     <g id="text_5">
      <!-- 2.0 -->
      <g style="fill: #262626" transform="translate(1457.3672 946.0925)scale(0.48 -0.48)">
       <defs>
        <path id="DejaVuSans-32" d="M 1228 531 
L 3431 531 
L 3431 0 
L 469 0 
L 469 531 
Q 828 903 1448 1529 
Q 2069 2156 2228 2338 
Q 2531 2678 2651 2914 
Q 2772 3150 2772 3378 
Q 2772 3750 2511 3984 
Q 2250 4219 1831 4219 
Q 1534 4219 1204 4116 
Q 875 4013 500 3803 
L 500 4441 
Q 881 4594 1212 4672 
Q 1544 4750 1819 4750 
Q 2544 4750 2975 4387 
Q 3406 4025 3406 3419 
Q 3406 3131 3298 2873 
Q 3191 2616 2906 2266 
Q 2828 2175 2409 1742 
Q 1991 1309 1228 531 
z
" transform="scale(0.015625)"/>
       </defs>
       <use xlink:href="#DejaVuSans-32"/>
       <use xlink:href="#DejaVuSans-2e" x="63.623047"/>
       <use xlink:href="#DejaVuSans-30" x="95.410156"/>
      </g>
     </g>
    </g>
    <g id="text_6">
     <!-- Z [nm] -->
     <g style="fill: #262626" transform="translate(804.2175 996.5475)scale(0.48 -0.48)">
      <defs>
       <path id="DejaVuSans-5a" d="M 359 4666 
L 4025 4666 
L 4025 4184 
L 1075 531 
L 4097 531 
L 4097 0 
L 288 0 
L 288 481 
L 3238 4134 
L 359 4134 
L 359 4666 
z
" transform="scale(0.015625)"/>
       <path id="DejaVuSans-20" transform="scale(0.015625)"/>
       <path id="DejaVuSans-5b" d="M 550 4863 
L 1875 4863 
L 1875 4416 
L 1125 4416 
L 1125 -397 
L 1875 -397 
L 1875 -844 
L 550 -844 
L 550 4863 
z
" transform="scale(0.015625)"/>
       <path id="DejaVuSans-6e" d="M 3513 2113 
L 3513 0 
L 2938 0 
L 2938 2094 
Q 2938 2591 2744 2837 
Q 2550 3084 2163 3084 
Q 1697 3084 1428 2787 
Q 1159 2491 1159 1978 
L 1159 0 
L 581 0 
L 581 3500 
L 1159 3500 
L 1159 2956 
Q 1366 3272 1645 3428 
Q 1925 3584 2291 3584 
Q 2894 3584 3203 3211 
Q 3513 2838 3513 2113 
z
" transform="scale(0.015625)"/>
       <path id="DejaVuSans-6d" d="M 3328 2828 
Q 3544 3216 3844 3400 
Q 4144 3584 4550 3584 
Q 5097 3584 5394 3201 
Q 5691 2819 5691 2113 
L 5691 0 
L 5113 0 
L 5113 2094 
Q 5113 2597 4934 2840 
Q 4756 3084 4391 3084 
Q 3944 3084 3684 2787 
Q 3425 2491 3425 1978 
L 3425 0 
L 2847 0 
L 2847 2094 
Q 2847 2600 2669 2842 
Q 2491 3084 2119 3084 
Q 1678 3084 1418 2786 
Q 1159 2488 1159 1978 
L 1159 0 
L 581 0 
L 581 3500 
L 1159 3500 
L 1159 2956 
Q 1356 3278 1631 3431 
Q 1906 3584 2284 3584 
Q 2666 3584 2933 3390 
Q 3200 3197 3328 2828 
z
" transform="scale(0.015625)"/>
       <path id="DejaVuSans-5d" d="M 1947 4863 
L 1947 -844 
L 622 -844 
L 622 -397 
L 1369 -397 
L 1369 4416 
L 622 4416 
L 622 4863 
L 1947 4863 
z
" transform="scale(0.015625)"/>
      </defs>
      <use xlink:href="#DejaVuSans-5a"/>
      <use xlink:href="#DejaVuSans-20" x="68.505859"/>
      <use xlink:href="#DejaVuSans-5b" x="100.292969"/>
      <use xlink:href="#DejaVuSans-6e" x="139.306641"/>
      <use xlink:href="#DejaVuSans-6d" x="202.685547"/>
      <use xlink:href="#DejaVuSans-5d" x="300.097656"/>
     </g>
    </g>
   </g>
   <g id="matplotlib.axis_2">
    <g id="ytick_1">
     <g id="line2d_6">
      <defs>
       <path id="mb45d87abf5" d="M 0 0 
L -9 0 
" style="stroke: #262626; stroke-width: 1.875"/>
      </defs>
      <g>
       <use xlink:href="#mb45d87abf5" x="216" y="819.721973" style="fill: #262626; stroke: #262626; stroke-width: 1.875"/>
      </g>
     </g>
     <g id="text_7">
      <!-- −3.5 -->
      <g style="fill: #262626" transform="translate(86.9425 837.958223)scale(0.48 -0.48)">
       <defs>
        <path id="DejaVuSans-2212" d="M 678 2272 
L 4684 2272 
L 4684 1741 
L 678 1741 
L 678 2272 
z
" transform="scale(0.015625)"/>
        <path id="DejaVuSans-33" d="M 2597 2516 
Q 3050 2419 3304 2112 
Q 3559 1806 3559 1356 
Q 3559 666 3084 287 
Q 2609 -91 1734 -91 
Q 1441 -91 1130 -33 
Q 819 25 488 141 
L 488 750 
Q 750 597 1062 519 
Q 1375 441 1716 441 
Q 2309 441 2620 675 
Q 2931 909 2931 1356 
Q 2931 1769 2642 2001 
Q 2353 2234 1838 2234 
L 1294 2234 
L 1294 2753 
L 1863 2753 
Q 2328 2753 2575 2939 
Q 2822 3125 2822 3475 
Q 2822 3834 2567 4026 
Q 2313 4219 1838 4219 
Q 1578 4219 1281 4162 
Q 984 4106 628 3988 
L 628 4550 
Q 988 4650 1302 4700 
Q 1616 4750 1894 4750 
Q 2613 4750 3031 4423 
Q 3450 4097 3450 3541 
Q 3450 3153 3228 2886 
Q 3006 2619 2597 2516 
z
" transform="scale(0.015625)"/>
       </defs>
       <use xlink:href="#DejaVuSans-2212"/>
       <use xlink:href="#DejaVuSans-33" x="83.789062"/>
       <use xlink:href="#DejaVuSans-2e" x="147.412109"/>
       <use xlink:href="#DejaVuSans-35" x="179.199219"/>
      </g>
     </g>
    </g>
    <g id="ytick_2">
     <g id="line2d_7">
      <g>
       <use xlink:href="#mb45d87abf5" x="216" y="726.011654" style="fill: #262626; stroke: #262626; stroke-width: 1.875"/>
      </g>
     </g>
     <g id="text_8">
      <!-- −3.0 -->
      <g style="fill: #262626" transform="translate(86.9425 744.247904)scale(0.48 -0.48)">
       <use xlink:href="#DejaVuSans-2212"/>
       <use xlink:href="#DejaVuSans-33" x="83.789062"/>
       <use xlink:href="#DejaVuSans-2e" x="147.412109"/>
       <use xlink:href="#DejaVuSans-30" x="179.199219"/>
      </g>
     </g>
    </g>
    <g id="ytick_3">
     <g id="line2d_8">
      <g>
       <use xlink:href="#mb45d87abf5" x="216" y="632.301334" style="fill: #262626; stroke: #262626; stroke-width: 1.875"/>
      </g>
     </g>
     <g id="text_9">
      <!-- −2.5 -->
      <g style="fill: #262626" transform="translate(86.9425 650.537584)scale(0.48 -0.48)">
       <use xlink:href="#DejaVuSans-2212"/>
       <use xlink:href="#DejaVuSans-32" x="83.789062"/>
       <use xlink:href="#DejaVuSans-2e" x="147.412109"/>
       <use xlink:href="#DejaVuSans-35" x="179.199219"/>
      </g>
     </g>
    </g>
    <g id="ytick_4">
     <g id="line2d_9">
      <g>
       <use xlink:href="#mb45d87abf5" x="216" y="538.591015" style="fill: #262626; stroke: #262626; stroke-width: 1.875"/>
      </g>
     </g>
     <g id="text_10">
      <!-- −2.0 -->
      <g style="fill: #262626" transform="translate(86.9425 556.827265)scale(0.48 -0.48)">
       <use xlink:href="#DejaVuSans-2212"/>
       <use xlink:href="#DejaVuSans-32" x="83.789062"/>
       <use xlink:href="#DejaVuSans-2e" x="147.412109"/>
       <use xlink:href="#DejaVuSans-30" x="179.199219"/>
      </g>
     </g>
    </g>
    <g id="ytick_5">
     <g id="line2d_10">
      <g>
       <use xlink:href="#mb45d87abf5" x="216" y="444.880696" style="fill: #262626; stroke: #262626; stroke-width: 1.875"/>
      </g>
     </g>
     <g id="text_11">
      <!-- −1.5 -->
      <g style="fill: #262626" transform="translate(86.9425 463.116946)scale(0.48 -0.48)">
       <use xlink:href="#DejaVuSans-2212"/>
       <use xlink:href="#DejaVuSans-31" x="83.789062"/>
       <use xlink:href="#DejaVuSans-2e" x="147.412109"/>
       <use xlink:href="#DejaVuSans-35" x="179.199219"/>
      </g>
     </g>
    </g>
    <g id="ytick_6">
     <g id="line2d_11">
      <g>
       <use xlink:href="#mb45d87abf5" x="216" y="351.170376" style="fill: #262626; stroke: #262626; stroke-width: 1.875"/>
      </g>
     </g>
     <g id="text_12">
      <!-- −1.0 -->
      <g style="fill: #262626" transform="translate(86.9425 369.406626)scale(0.48 -0.48)">
       <use xlink:href="#DejaVuSans-2212"/>
       <use xlink:href="#DejaVuSans-31" x="83.789062"/>
       <use xlink:href="#DejaVuSans-2e" x="147.412109"/>
       <use xlink:href="#DejaVuSans-30" x="179.199219"/>
      </g>
     </g>
    </g>
    <g id="ytick_7">
     <g id="line2d_12">
      <g>
       <use xlink:href="#mb45d87abf5" x="216" y="257.460057" style="fill: #262626; stroke: #262626; stroke-width: 1.875"/>
      </g>
     </g>
     <g id="text_13">
      <!-- −0.5 -->
      <g style="fill: #262626" transform="translate(86.9425 275.696307)scale(0.48 -0.48)">
       <use xlink:href="#DejaVuSans-2212"/>
       <use xlink:href="#DejaVuSans-30" x="83.789062"/>
       <use xlink:href="#DejaVuSans-2e" x="147.412109"/>
       <use xlink:href="#DejaVuSans-35" x="179.199219"/>
      </g>
     </g>
    </g>
    <g id="ytick_8">
     <g id="line2d_13">
      <g>
       <use xlink:href="#mb45d87abf5" x="216" y="163.749738" style="fill: #262626; stroke: #262626; stroke-width: 1.875"/>
      </g>
     </g>
     <g id="text_14">
      <!-- 0.0 -->
      <g style="fill: #262626" transform="translate(127.165 181.985988)scale(0.48 -0.48)">
       <use xlink:href="#DejaVuSans-30"/>
       <use xlink:href="#DejaVuSans-2e" x="63.623047"/>
       <use xlink:href="#DejaVuSans-30" x="95.410156"/>
      </g>
     </g>
    </g>
    <g id="text_15">
     <!-- Df(Z) [Hz] -->
     <g style="fill: #262626" transform="translate(72.96 628.13625)rotate(-90)scale(0.48 -0.48)">
      <defs>
       <path id="DejaVuSans-44" d="M 1259 4147 
L 1259 519 
L 2022 519 
Q 2988 519 3436 956 
Q 3884 1394 3884 2338 
Q 3884 3275 3436 3711 
Q 2988 4147 2022 4147 
L 1259 4147 
z
M 628 4666 
L 1925 4666 
Q 3281 4666 3915 4102 
Q 4550 3538 4550 2338 
Q 4550 1131 3912 565 
Q 3275 0 1925 0 
L 628 0 
L 628 4666 
z
" transform="scale(0.015625)"/>
       <path id="DejaVuSans-66" d="M 2375 4863 
L 2375 4384 
L 1825 4384 
Q 1516 4384 1395 4259 
Q 1275 4134 1275 3809 
L 1275 3500 
L 2222 3500 
L 2222 3053 
L 1275 3053 
L 1275 0 
L 697 0 
L 697 3053 
L 147 3053 
L 147 3500 
L 697 3500 
L 697 3744 
Q 697 4328 969 4595 
Q 1241 4863 1831 4863 
L 2375 4863 
z
" transform="scale(0.015625)"/>
       <path id="DejaVuSans-28" d="M 1984 4856 
Q 1566 4138 1362 3434 
Q 1159 2731 1159 2009 
Q 1159 1288 1364 580 
Q 1569 -128 1984 -844 
L 1484 -844 
Q 1016 -109 783 600 
Q 550 1309 550 2009 
Q 550 2706 781 3412 
Q 1013 4119 1484 4856 
L 1984 4856 
z
" transform="scale(0.015625)"/>
       <path id="DejaVuSans-29" d="M 513 4856 
L 1013 4856 
Q 1481 4119 1714 3412 
Q 1947 2706 1947 2009 
Q 1947 1309 1714 600 
Q 1481 -109 1013 -844 
L 513 -844 
Q 928 -128 1133 580 
Q 1338 1288 1338 2009 
Q 1338 2731 1133 3434 
Q 928 4138 513 4856 
z
" transform="scale(0.015625)"/>
       <path id="DejaVuSans-48" d="M 628 4666 
L 1259 4666 
L 1259 2753 
L 3553 2753 
L 3553 4666 
L 4184 4666 
L 4184 0 
L 3553 0 
L 3553 2222 
L 1259 2222 
L 1259 0 
L 628 0 
L 628 4666 
z
" transform="scale(0.015625)"/>
       <path id="DejaVuSans-7a" d="M 353 3500 
L 3084 3500 
L 3084 2975 
L 922 459 
L 3084 459 
L 3084 0 
L 275 0 
L 275 525 
L 2438 3041 
L 353 3041 
L 353 3500 
z
" transform="scale(0.015625)"/>
      </defs>
      <use xlink:href="#DejaVuSans-44"/>
      <use xlink:href="#DejaVuSans-66" x="77.001953"/>
      <use xlink:href="#DejaVuSans-28" x="112.207031"/>
      <use xlink:href="#DejaVuSans-5a" x="151.220703"/>
      <use xlink:href="#DejaVuSans-29" x="219.726562"/>
      <use xlink:href="#DejaVuSans-20" x="258.740234"/>
      <use xlink:href="#DejaVuSans-5b" x="290.527344"/>
      <use xlink:href="#DejaVuSans-48" x="329.541016"/>
      <use xlink:href="#DejaVuSans-7a" x="404.736328"/>
      <use xlink:href="#DejaVuSans-5d" x="457.226562"/>
     </g>
    </g>
   </g>
   <g id="line2d_14">
    <path d="M 276.872727 853.229743 
L 279.255221 839.485506 
L 281.637716 827.363816 
L 284.02021 818.68218 
L 286.402704 795.769436 
L 288.785198 787.240147 
L 291.167693 768.303335 
L 293.550187 765.293687 
L 295.932681 747.644897 
L 298.315175 739.599283 
L 300.697669 736.789923 
L 303.080164 724.186688 
L 305.462658 702.160326 
L 307.845152 709.05535 
L 310.227646 692.356864 
L 312.610141 685.116663 
L 314.992635 673.335888 
L 317.375129 673.323104 
L 319.757623 667.338965 
L 322.140117 647.32081 
L 324.522612 644.995124 
L 326.905106 641.445338 
L 329.2876 626.990504 
L 331.670094 629.9341 
L 334.052589 622.008871 
L 336.435083 612.268265 
L 338.817577 604.552912 
L 341.200071 600.684582 
L 343.582565 585.203805 
L 345.96506 587.525229 
L 348.347554 581.859633 
L 350.730048 578.373768 
L 353.112542 560.548129 
L 355.495036 568.426482 
L 357.877531 554.948585 
L 360.260025 551.817486 
L 362.642519 544.446245 
L 365.025013 540.128333 
L 367.407508 543.919957 
L 369.790002 529.342606 
L 372.172496 527.731779 
L 374.55499 524.698693 
L 376.937484 517.608708 
L 379.319979 515.6005 
L 381.702473 508.557391 
L 384.084967 508.075847 
L 386.467461 497.948515 
L 388.849956 501.636798 
L 391.23245 500.529887 
L 393.614944 493.614622 
L 395.997438 480.583112 
L 398.379932 485.839609 
L 400.762427 476.063846 
L 403.144921 482.31326 
L 405.527415 469.312646 
L 407.909909 463.01529 
L 410.292403 459.532621 
L 412.674898 464.7497 
L 415.057392 454.855681 
L 417.439886 461.249985 
L 419.82238 447.80618 
L 422.204875 442.519853 
L 424.587369 446.388183 
L 426.969863 444.662297 
L 429.352357 439.497421 
L 431.734851 434.96537 
L 434.117346 433.353477 
L 436.49984 432.724914 
L 438.882334 429.320016 
L 441.264828 420.360321 
L 443.647323 419.683816 
L 446.029817 416.393977 
L 448.412311 411.976986 
L 450.794805 416.825449 
L 455.559794 405.984324 
L 457.942288 404.508797 
L 460.324782 402.403642 
L 462.707276 399.127653 
L 465.089771 407.901976 
L 467.472265 396.475967 
L 469.854759 388.765941 
L 472.237253 388.58696 
L 474.619747 392.159119 
L 477.002242 392.134616 
L 479.384736 373.976584 
L 481.76723 388.038299 
L 486.532218 372.932529 
L 488.914713 379.587846 
L 491.297207 383.862079 
L 493.679701 374.257839 
L 496.062195 361.823998 
L 498.44469 369.531893 
L 500.827184 376.792336 
L 503.209678 367.747411 
L 505.592172 356.245762 
L 507.974666 360.051235 
L 510.357161 365.028607 
L 512.739655 361.460709 
L 515.122149 352.457334 
L 517.504643 357.861916 
L 519.887138 358.591689 
L 522.269632 359.811529 
L 524.652126 350.200897 
L 527.03462 349.085463 
L 529.417114 354.642392 
L 531.799609 344.052692 
L 534.182103 346.121625 
L 536.564597 344.672733 
L 538.947091 340.165185 
L 541.329585 344.492687 
L 543.71208 335.687468 
L 546.094574 341.347737 
L 548.477068 334.509178 
L 550.859562 340.288767 
L 555.624551 333.4566 
L 558.007045 329.664976 
L 560.389539 330.209376 
L 562.772033 329.993108 
L 565.154528 324.274244 
L 567.537022 325.526044 
L 569.919516 322.896731 
L 572.30201 323.595608 
L 574.684505 321.780231 
L 577.066999 316.972252 
L 579.449493 319.876429 
L 581.831987 319.304329 
L 584.214481 320.059671 
L 586.596976 310.227444 
L 588.97947 313.846479 
L 593.744458 314.872423 
L 596.126952 307.909216 
L 598.509447 312.298508 
L 600.891941 308.088197 
L 603.274435 305.866917 
L 605.656929 310.463954 
L 608.039424 300.090523 
L 610.421918 312.000207 
L 612.804412 301.414768 
L 615.186906 296.634488 
L 617.5694 306.25897 
L 619.951895 300.154445 
L 622.334389 296.798554 
L 624.716883 297.859655 
L 627.099377 293.751618 
L 629.481872 297.857524 
L 631.864366 298.568121 
L 634.24686 292.74272 
L 636.629354 295.274021 
L 639.011848 295.350727 
L 641.394343 296.530083 
L 643.776837 283.585933 
L 646.159331 295.872754 
L 648.541825 285.538742 
L 650.92432 291.612371 
L 653.306814 287.005745 
L 655.689308 286.105514 
L 658.071802 283.780894 
L 660.454296 288.067911 
L 662.836791 288.119049 
L 665.219285 280.63701 
L 667.601779 278.936692 
L 669.984273 280.804272 
L 672.366767 282.0614 
L 674.749262 278.42958 
L 677.131756 282.316021 
L 679.51425 278.912189 
L 681.896744 284.125006 
L 686.661733 273.38296 
L 689.044227 265.950993 
L 691.426721 273.873026 
L 693.809215 277.525088 
L 696.19171 273.196521 
L 698.574204 265.754967 
L 700.956698 272.841756 
L 703.339192 271.582498 
L 705.721687 270.100579 
L 708.104181 265.801843 
L 710.486675 264.968729 
L 712.869169 270.685463 
L 717.634158 268.862628 
L 720.016652 263.466569 
L 722.399146 263.262019 
L 724.78164 252.20143 
L 727.164134 270.017481 
L 729.546629 259.931697 
L 731.929123 261.621362 
L 734.311617 271.908498 
L 736.694111 262.615344 
L 739.076606 256.037799 
L 741.4591 260.349319 
L 743.841594 256.873043 
L 746.224088 259.965789 
L 748.606582 262.008088 
L 750.989077 257.982085 
L 753.371571 254.842462 
L 755.754065 247.461633 
L 758.136559 266.546531 
L 760.519054 257.281076 
L 762.901548 254.539899 
L 765.284042 251.981965 
L 767.666536 256.347819 
L 770.04903 257.286403 
L 772.431525 245.122098 
L 774.814019 250.148477 
L 777.196513 242.804935 
L 779.579007 258.125908 
L 781.961502 245.728289 
L 784.343996 242.818785 
L 786.72649 246.399467 
L 789.108984 240.820166 
L 791.491478 241.197304 
L 793.873973 250.99544 
L 796.256467 245.689936 
L 798.638961 238.199375 
L 801.021455 241.000212 
L 803.403949 246.939606 
L 805.786444 239.461829 
L 808.168938 240.796728 
L 810.551432 242.557771 
L 812.933926 246.725468 
L 815.316421 240.818035 
L 817.698915 243.110694 
L 820.081409 242.87738 
L 822.463903 243.44948 
L 824.846397 230.894187 
L 827.228892 241.435945 
L 829.611386 231.484397 
L 831.99388 239.12624 
L 834.376374 233.081375 
L 836.758869 242.469346 
L 839.141363 226.879902 
L 841.523857 238.987743 
L 843.906351 231.682555 
L 846.288845 229.465536 
L 848.67134 229.522 
L 851.053834 236.609855 
L 853.436328 239.251953 
L 855.818822 229.126751 
L 858.201316 239.196554 
L 860.583811 226.559228 
L 862.966305 232.299399 
L 865.348799 234.937236 
L 867.731293 222.980677 
L 870.113788 227.490355 
L 872.496282 230.384944 
L 874.878776 228.044343 
L 877.26127 229.383503 
L 879.643764 227.894127 
L 882.026259 223.150069 
L 884.408753 229.768099 
L 886.791247 221.850327 
L 889.173741 236.690822 
L 891.556236 220.510102 
L 893.93873 228.377801 
L 896.321224 231.611175 
L 898.703718 225.409702 
L 901.086212 225.277597 
L 903.468707 219.762218 
L 905.851201 222.78465 
L 908.233695 222.15076 
L 910.616189 231.437521 
L 912.998684 218.611627 
L 915.381178 222.31376 
L 917.763672 221.152515 
L 920.146166 226.339764 
L 922.52866 223.776502 
L 924.911155 215.098062 
L 927.293649 217.392852 
L 929.676143 221.485974 
L 932.058637 216.359451 
L 934.441131 217.667716 
L 936.823626 217.84137 
L 939.20612 210.675744 
L 941.588614 214.476956 
L 943.971108 220.678429 
L 946.353603 208.438483 
L 948.736097 219.57791 
L 951.118591 219.894323 
L 953.501085 218.82896 
L 955.883579 218.104514 
L 958.266074 214.174393 
L 960.648568 213.550091 
L 963.031062 213.534111 
L 965.413556 216.360516 
L 967.796051 211.5014 
L 970.178545 210.145194 
L 972.561039 216.806903 
L 974.943533 215.436847 
L 977.326027 208.712282 
L 979.708522 207.423193 
L 982.091016 209.048936 
L 984.47351 210.280495 
L 986.856004 210.029069 
L 989.238498 207.671423 
L 991.620993 214.598407 
L 994.003487 206.01585 
L 996.385981 202.961457 
L 998.768475 212.083087 
L 1001.15097 206.921408 
L 1003.533464 206.740296 
L 1008.298452 208.344732 
L 1010.680946 214.88499 
L 1013.063441 203.517576 
L 1015.445935 205.442685 
L 1017.828429 207.838685 
L 1020.210923 205.051697 
L 1022.593418 208.9424 
L 1024.975912 207.193075 
L 1027.358406 203.859557 
L 1029.7409 209.644473 
L 1032.123394 207.934567 
L 1034.505889 202.374442 
L 1036.888383 201.647865 
L 1039.270877 209.405832 
L 1041.653371 205.35426 
L 1044.035866 198.085294 
L 1046.41836 206.531485 
L 1048.800854 208.927485 
L 1051.183348 198.333524 
L 1053.565842 201.919533 
L 1055.948337 203.058405 
L 1058.330831 211.570648 
L 1060.713325 204.364539 
L 1063.095819 201.840696 
L 1065.478313 194.428971 
L 1067.860808 198.800152 
L 1070.243302 205.109227 
L 1072.625796 199.072885 
L 1075.00829 200.850974 
L 1077.390785 200.935138 
L 1079.773279 196.103721 
L 1082.155773 210.002435 
L 1084.538267 197.771012 
L 1086.920761 201.323995 
L 1089.303256 199.717429 
L 1091.68575 196.624683 
L 1094.068244 198.533812 
L 1096.450738 199.325376 
L 1098.833233 201.58927 
L 1101.215727 199.687599 
L 1103.598221 200.879739 
L 1105.980715 192.067063 
L 1108.363209 198.458171 
L 1110.745704 196.229433 
L 1115.510692 190.974002 
L 1117.893186 189.436684 
L 1120.27568 195.234385 
L 1122.658175 197.396005 
L 1125.040669 191.412931 
L 1127.423163 198.510374 
L 1129.805657 195.685033 
L 1132.188152 197.66128 
L 1134.570646 191.940285 
L 1136.95314 192.236456 
L 1139.335634 191.602566 
L 1141.718128 194.020938 
L 1144.100623 188.115635 
L 1146.483117 186.480304 
L 1148.865611 194.754972 
L 1151.248105 192.323816 
L 1153.6306 191.803919 
L 1156.013094 188.64512 
L 1158.395588 198.417687 
L 1160.778082 183.734866 
L 1163.160576 184.007599 
L 1165.543071 189.420704 
L 1167.925565 188.543911 
L 1170.308059 191.106107 
L 1172.690553 189.705156 
L 1175.073048 194.391684 
L 1177.455542 183.416323 
L 1179.838036 192.472966 
L 1182.22053 187.708667 
L 1184.603024 178.31963 
L 1186.985519 187.372013 
L 1189.368013 199.179421 
L 1191.750507 184.844974 
L 1194.133001 183.976703 
L 1196.515495 192.524104 
L 1198.89799 186.224617 
L 1201.280484 195.414431 
L 1203.662978 184.770398 
L 1206.045472 191.632396 
L 1208.427967 185.95295 
L 1210.810461 186.681658 
L 1213.192955 188.36493 
L 1215.575449 185.65891 
L 1217.957943 179.677967 
L 1220.340438 195.087365 
L 1222.722932 186.372703 
L 1225.105426 185.955081 
L 1227.48792 187.36562 
L 1229.870415 188.521538 
L 1232.252909 179.854817 
L 1234.635403 192.373888 
L 1237.017897 187.541405 
L 1239.400391 186.728534 
L 1241.782886 182.293431 
L 1244.16538 190.718315 
L 1246.547874 178.153434 
L 1248.930368 194.496089 
L 1251.312862 170.637304 
L 1253.695357 186.065879 
L 1256.077851 183.631526 
L 1258.460345 192.618921 
L 1260.842839 178.624324 
L 1263.225334 183.139329 
L 1265.607828 177.751792 
L 1267.990322 179.518163 
L 1270.372816 183.771088 
L 1272.75531 184.502992 
L 1275.137805 182.577883 
L 1277.520299 175.844794 
L 1279.902793 185.134752 
L 1282.285287 184.361299 
L 1284.667782 184.419894 
L 1287.050276 183.279957 
L 1289.43277 177.858329 
L 1291.815264 181.515717 
L 1294.197758 183.072211 
L 1296.580253 180.535584 
L 1298.962747 177.810387 
L 1301.345241 182.478804 
L 1303.727735 184.489143 
L 1306.110229 180.245805 
L 1308.492724 183.343878 
L 1310.875218 182.370137 
L 1313.257712 178.092708 
L 1315.640206 183.162767 
L 1318.022701 180.073216 
L 1320.405195 177.423661 
L 1322.787689 183.12974 
L 1325.170183 178.384617 
L 1327.552677 177.360804 
L 1329.935172 175.904454 
L 1332.317666 175.448479 
L 1334.70016 172.755244 
L 1337.082654 183.089257 
L 1339.465149 177.534458 
L 1341.847643 176.501057 
L 1344.230137 184.55626 
L 1346.612631 170.834396 
L 1348.995125 182.43832 
L 1351.37762 174.652654 
L 1353.760114 176.515972 
L 1356.142608 173.873874 
L 1358.525102 174.354352 
L 1360.907597 176.20169 
L 1363.290091 172.422851 
L 1365.672585 169.249137 
L 1368.055079 174.098666 
L 1370.437573 177.767773 
L 1372.820068 175.095845 
L 1375.202562 179.790896 
L 1377.585056 164.756505 
L 1379.96755 176.424351 
L 1382.350044 179.380731 
L 1384.732539 176.535149 
L 1387.115033 178.705291 
L 1389.497527 170.503068 
L 1391.880021 175.580584 
L 1394.262516 170.487088 
L 1396.64501 174.771974 
L 1399.027504 178.328153 
L 1401.409998 165.59601 
L 1403.792492 176.512776 
L 1406.174987 173.895181 
L 1408.557481 167.67027 
L 1410.939975 175.796853 
L 1413.322469 168.944444 
L 1415.704964 174.819916 
L 1418.087458 166.532464 
L 1420.469952 174.479 
L 1422.852446 168.962555 
L 1425.23494 165.794168 
L 1427.617435 173.784384 
L 1429.999929 176.563914 
L 1432.382423 163.336377 
L 1434.764917 169.259791 
L 1437.147411 165.032434 
L 1441.9124 171.737823 
L 1444.294894 177.48119 
L 1446.677388 162.497937 
L 1449.059883 164.944009 
L 1451.442377 170.190917 
L 1453.824871 172.33123 
L 1456.207365 165.718527 
L 1458.589859 167.985618 
L 1460.972354 163.215991 
L 1463.354848 173.147297 
L 1465.737342 166.75619 
L 1468.119836 173.619253 
L 1470.502331 172.133072 
L 1472.884825 173.085506 
L 1475.267319 159.916565 
L 1477.649813 173.822737 
L 1480.032307 163.292697 
L 1482.414802 171.925327 
L 1484.797296 163.893562 
L 1487.17979 167.627656 
L 1489.562284 169.406811 
L 1491.944779 173.31882 
L 1494.327273 162.057943 
L 1494.327273 162.057943 
" clip-path="url(#pcd2c2855fc)" style="fill: none; stroke: #00c9a7; stroke-width: 2.25; stroke-linecap: round"/>
   </g>
   <g id="line2d_15">
    <path d="M 276.872727 861.84 
L 279.255221 860.431591 
L 281.637716 860.299486 
L 284.02021 846.022568 
L 286.402704 842.058356 
L 288.785198 850.690985 
L 291.167693 850.747449 
L 293.550187 845.674195 
L 295.932681 845.80843 
L 298.315175 841.933708 
L 300.697669 839.582454 
L 303.080164 834.624259 
L 305.462658 830.488523 
L 307.845152 827.115586 
L 310.227646 821.371154 
L 312.610141 807.469243 
L 314.992635 815.221883 
L 317.375129 798.385965 
L 319.757623 790.63226 
L 322.140117 781.546851 
L 324.522612 765.614361 
L 326.905106 752.499753 
L 329.2876 741.8717 
L 331.670094 741.506281 
L 334.052589 720.303443 
L 336.435083 718.612714 
L 338.817577 697.003973 
L 341.200071 684.49236 
L 343.582565 677.400245 
L 345.96506 668.441614 
L 348.347554 650.168523 
L 350.730048 643.187205 
L 353.112542 629.831825 
L 355.495036 626.595255 
L 357.877531 602.461606 
L 360.260025 603.930741 
L 362.642519 592.023188 
L 365.025013 586.242533 
L 367.407508 574.961413 
L 369.790002 565.724723 
L 372.172496 557.097421 
L 374.55499 556.004359 
L 376.937484 547.367468 
L 379.319979 527.938459 
L 381.702473 527.603935 
L 384.084967 523.541709 
L 386.467461 511.534013 
L 388.849956 511.244234 
L 391.23245 503.48094 
L 393.614944 500.306161 
L 395.997438 497.645952 
L 398.379932 486.610931 
L 400.762427 480.801511 
L 403.144921 486.183721 
L 405.527415 466.219899 
L 407.909909 460.327381 
L 410.292403 463.350879 
L 412.674898 463.568213 
L 415.057392 450.841397 
L 417.439886 455.506618 
L 419.82238 452.472466 
L 422.204875 439.986422 
L 424.587369 447.391754 
L 426.969863 430.191483 
L 429.352357 438.311673 
L 431.734851 429.409507 
L 434.117346 417.816236 
L 436.49984 432.18584 
L 438.882334 426.172937 
L 441.264828 415.541688 
L 443.647323 418.914624 
L 446.029817 415.78246 
L 450.794805 403.247409 
L 453.177299 407.420432 
L 455.559794 408.673298 
L 457.942288 416.598527 
L 460.324782 401.273293 
L 462.707276 401.348933 
L 465.089771 398.20718 
L 467.472265 396.335339 
L 469.854759 397.142884 
L 472.237253 396.08924 
L 474.619747 391.536948 
L 477.002242 401.939144 
L 479.384736 382.647566 
L 481.76723 395.072885 
L 484.149724 381.192282 
L 486.532218 384.669624 
L 488.914713 381.014366 
L 491.297207 377.668064 
L 493.679701 380.987732 
L 496.062195 379.90852 
L 498.44469 376.380041 
L 500.827184 378.031352 
L 503.209678 370.516288 
L 505.592172 368.809577 
L 507.974666 369.914358 
L 510.357161 365.162843 
L 512.739655 360.852388 
L 515.122149 370.869988 
L 517.504643 369.448795 
L 519.887138 351.823443 
L 522.269632 355.43076 
L 524.652126 362.545248 
L 527.03462 353.971213 
L 529.417114 353.715527 
L 531.799609 349.691654 
L 534.182103 344.808034 
L 536.564597 354.32811 
L 538.947091 346.074749 
L 541.329585 342.794499 
L 543.71208 342.66559 
L 546.094574 339.953178 
L 548.477068 344.920962 
L 550.859562 334.200223 
L 553.242057 342.461041 
L 555.624551 332.94203 
L 558.007045 335.625677 
L 560.389539 329.66178 
L 562.772033 332.645859 
L 565.154528 330.261579 
L 567.537022 330.195527 
L 569.919516 325.177671 
L 572.30201 326.166327 
L 574.684505 331.096823 
L 577.066999 320.626444 
L 579.449493 317.93747 
L 581.831987 318.552184 
L 584.214481 323.882191 
L 586.596976 317.156559 
L 588.97947 316.263786 
L 591.361964 320.669058 
L 593.744458 308.321511 
L 596.126952 315.404039 
L 598.509447 313.707982 
L 600.891941 307.923066 
L 603.274435 305.003973 
L 605.656929 312.997386 
L 608.039424 312.787509 
L 610.421918 303.632852 
L 612.804412 302.291561 
L 615.186906 304.021709 
L 617.5694 303.499682 
L 619.951895 298.043962 
L 622.334389 300.533714 
L 624.716883 300.274831 
L 627.099377 303.631787 
L 629.481872 284.174013 
L 631.864366 292.218562 
L 634.24686 307.766457 
L 636.629354 290.19544 
L 639.011848 291.87445 
L 641.394343 296.406501 
L 643.776837 298.123865 
L 646.159331 302.930779 
L 648.541825 287.550145 
L 650.92432 292.564805 
L 653.306814 290.515048 
L 658.071802 280.717978 
L 660.454296 297.303536 
L 662.836791 282.699552 
L 665.219285 286.935431 
L 667.601779 276.622726 
L 669.984273 280.932116 
L 672.366767 287.09204 
L 674.749262 288.82858 
L 677.131756 285.12325 
L 679.51425 270.505416 
L 681.896744 275.08967 
L 684.279239 279.078386 
L 686.661733 281.159038 
L 689.044227 278.758777 
L 691.426721 272.166316 
L 693.809215 271.458916 
L 696.19171 277.418551 
L 698.574204 271.451458 
L 700.956698 276.574785 
L 703.339192 265.635646 
L 705.721687 272.518951 
L 708.104181 270.554423 
L 710.486675 270.041984 
L 712.869169 269.678695 
L 715.251663 264.319924 
L 717.634158 265.306449 
L 720.016652 265.939274 
L 722.399146 265.733659 
L 724.78164 262.727208 
L 727.164134 267.778089 
L 729.546629 268.849844 
L 731.929123 261.79182 
L 734.311617 261.343302 
L 736.694111 266.289779 
L 739.076606 254.047702 
L 741.4591 263.393059 
L 743.841594 258.107797 
L 746.224088 266.907689 
L 748.606582 253.141079 
L 750.989077 264.873912 
L 753.371571 255.167398 
L 755.754065 251.426911 
L 758.136559 254.945802 
L 760.519054 251.878625 
L 762.901548 252.052279 
L 765.284042 258.302759 
L 767.666536 255.459307 
L 770.04903 251.945743 
L 772.431525 250.628955 
L 774.814019 258.399706 
L 777.196513 254.026395 
L 779.579007 250.296562 
L 781.961502 246.915103 
L 784.343996 250.14315 
L 786.72649 249.736182 
L 789.108984 252.246175 
L 791.491478 239.263672 
L 793.873973 253.398897 
L 796.256467 245.708047 
L 798.638961 250.769583 
L 801.021455 249.414442 
L 803.403949 241.975018 
L 805.786444 248.926506 
L 808.168938 244.326273 
L 810.551432 248.994689 
L 812.933926 243.423911 
L 815.316421 245.830564 
L 817.698915 238.387944 
L 820.081409 241.032173 
L 822.463903 242.159326 
L 824.846397 239.411757 
L 827.228892 233.636429 
L 829.611386 245.110379 
L 831.99388 237.088202 
L 834.376374 233.717396 
L 836.758869 245.326648 
L 839.141363 232.709564 
L 841.523857 233.111205 
L 843.906351 242.791086 
L 846.288845 239.808072 
L 848.67134 242.478935 
L 851.053834 231.778437 
L 853.436328 237.422726 
L 855.818822 231.214861 
L 858.201316 230.71201 
L 860.583811 234.9937 
L 862.966305 231.03588 
L 865.348799 230.641696 
L 867.731293 227.122805 
L 870.113788 228.632423 
L 874.878776 232.9791 
L 877.26127 234.516418 
L 879.643764 226.862856 
L 882.026259 232.490099 
L 884.408753 226.442038 
L 886.791247 224.596831 
L 889.173741 225.368153 
L 891.556236 218.10558 
L 893.93873 227.579845 
L 896.321224 230.191048 
L 898.703718 229.762772 
L 901.086212 222.330806 
L 903.468707 224.458334 
L 905.851201 217.671977 
L 908.233695 224.938812 
L 910.616189 226.78615 
L 912.998684 223.096801 
L 915.381178 224.055627 
L 917.763672 226.46228 
L 920.146166 222.228531 
L 922.52866 228.563174 
L 924.911155 222.194439 
L 927.293649 222.502329 
L 929.676143 227.130262 
L 932.058637 222.012263 
L 934.441131 215.039467 
L 936.823626 221.198326 
L 939.20612 216.38502 
L 941.588614 206.493132 
L 943.971108 221.382634 
L 946.353603 213.912314 
L 948.736097 221.015084 
L 951.118591 224.003424 
L 953.501085 213.367914 
L 955.883579 217.12012 
L 958.266074 215.822508 
L 960.648568 211.50353 
L 963.031062 216.832472 
L 965.413556 217.456774 
L 967.796051 218.390031 
L 970.178545 214.581362 
L 972.561039 220.892567 
L 974.943533 216.967773 
L 977.326027 204.439114 
L 979.708522 217.524957 
L 982.091016 213.771686 
L 984.47351 212.160859 
L 986.856004 208.278679 
L 989.238498 220.690148 
L 991.620993 211.518445 
L 994.003487 206.060595 
L 996.385981 207.720429 
L 998.768475 214.429015 
L 1001.15097 210.954869 
L 1003.533464 215.979117 
L 1005.915958 208.110352 
L 1008.298452 205.786797 
L 1010.680946 211.09017 
L 1013.063441 198.606256 
L 1015.445935 216.114418 
L 1017.828429 214.548335 
L 1020.210923 215.523142 
L 1022.593418 209.20661 
L 1024.975912 205.167822 
L 1027.358406 206.687028 
L 1029.7409 200.964968 
L 1032.123394 210.606495 
L 1034.505889 202.831483 
L 1036.888383 206.436668 
L 1039.270877 212.591265 
L 1041.653371 203.859557 
L 1044.035866 211.140242 
L 1046.41836 199.66203 
L 1048.800854 204.169577 
L 1051.183348 202.078272 
L 1053.565842 202.464998 
L 1055.948337 202.31052 
L 1058.330831 205.448012 
L 1060.713325 205.532176 
L 1063.095819 196.824971 
L 1065.478313 191.945612 
L 1067.860808 204.875912 
L 1070.243302 205.846457 
L 1072.625796 199.546971 
L 1075.00829 203.409974 
L 1077.390785 199.855926 
L 1079.773279 193.396635 
L 1082.155773 200.070064 
L 1084.538267 196.63214 
L 1086.920761 198.141758 
L 1089.303256 196.80899 
L 1091.68575 206.446256 
L 1094.068244 191.510944 
L 1096.450738 202.734535 
L 1098.833233 202.768626 
L 1101.215727 197.168017 
L 1103.598221 206.078706 
L 1105.980715 192.262025 
L 1108.363209 192.564588 
L 1110.745704 198.185438 
L 1113.128198 202.936953 
L 1115.510692 199.226297 
L 1117.893186 195.206686 
L 1120.27568 194.395945 
L 1122.658175 196.664101 
L 1125.040669 191.937089 
L 1129.805657 200.831798 
L 1132.188152 191.724017 
L 1134.570646 191.210512 
L 1136.95314 199.853795 
L 1139.335634 191.220101 
L 1141.718128 201.458231 
L 1144.100623 193.583074 
L 1146.483117 199.66203 
L 1148.865611 192.780856 
L 1151.248105 191.082669 
L 1153.6306 198.377203 
L 1156.013094 190.920734 
L 1158.395588 194.569599 
L 1160.778082 182.446843 
L 1163.160576 201.922729 
L 1165.543071 180.523865 
L 1167.925565 195.808615 
L 1170.308059 187.075842 
L 1172.690553 183.034923 
L 1175.073048 188.420329 
L 1177.455542 189.193782 
L 1179.838036 188.181688 
L 1182.22053 190.981459 
L 1184.603024 190.350765 
L 1186.985519 187.508379 
L 1189.368013 182.634347 
L 1191.750507 183.159571 
L 1194.133001 193.929316 
L 1196.515495 183.863775 
L 1198.89799 189.15969 
L 1201.280484 194.962718 
L 1203.662978 190.661851 
L 1206.045472 191.912586 
L 1208.427967 188.505558 
L 1210.810461 188.017622 
L 1213.192955 182.709988 
L 1215.575449 184.537084 
L 1217.957943 191.598304 
L 1220.340438 189.838326 
L 1222.722932 184.547737 
L 1225.105426 182.647131 
L 1227.48792 185.750531 
L 1229.870415 190.345438 
L 1232.252909 190.410425 
L 1234.635403 182.663112 
L 1237.017897 182.532072 
L 1239.400391 182.519288 
L 1241.782886 185.922055 
L 1244.16538 180.500427 
L 1246.547874 187.236712 
L 1248.930368 181.743704 
L 1251.312862 187.695883 
L 1253.695357 188.214714 
L 1256.077851 180.882892 
L 1258.460345 182.293431 
L 1260.842839 187.758739 
L 1263.225334 189.57092 
L 1265.607828 182.709988 
L 1267.990322 177.716635 
L 1270.372816 181.761815 
L 1272.75531 182.827178 
L 1275.137805 191.735736 
L 1277.520299 179.014247 
L 1279.902793 175.449545 
L 1282.285287 186.397206 
L 1284.667782 177.841283 
L 1287.050276 187.432738 
L 1289.43277 179.524555 
L 1291.815264 175.53797 
L 1296.580253 187.839706 
L 1298.962747 182.145346 
L 1301.345241 179.207077 
L 1303.727735 177.645256 
L 1306.110229 182.11445 
L 1308.492724 184.344253 
L 1310.875218 180.03806 
L 1313.257712 181.498671 
L 1315.640206 176.298638 
L 1318.022701 174.223313 
L 1320.405195 180.825362 
L 1322.787689 179.014247 
L 1325.170183 175.100106 
L 1327.552677 177.491844 
L 1329.935172 178.885338 
L 1332.317666 185.263661 
L 1334.70016 180.513211 
L 1337.082654 168.782508 
L 1339.465149 172.862845 
L 1341.847643 182.322196 
L 1344.230137 177.120033 
L 1346.612631 176.560717 
L 1348.995125 172.092589 
L 1351.37762 179.869732 
L 1353.760114 175.244995 
L 1356.142608 174.651589 
L 1358.525102 179.251822 
L 1360.907597 176.116461 
L 1363.290091 173.482886 
L 1365.672585 182.783498 
L 1368.055079 173.497801 
L 1372.820068 177.312863 
L 1375.202562 184.440136 
L 1377.585056 170.693768 
L 1379.96755 175.711624 
L 1382.350044 175.939611 
L 1384.732539 181.518913 
L 1387.115033 180.17123 
L 1389.497527 179.777046 
L 1391.880021 180.387498 
L 1394.262516 172.586917 
L 1396.64501 172.547498 
L 1399.027504 164.469923 
L 1401.409998 180.910591 
L 1403.792492 173.325213 
L 1406.174987 165.082506 
L 1408.557481 172.290746 
L 1410.939975 173.720462 
L 1413.322469 166.570817 
L 1415.704964 175.45061 
L 1418.087458 169.233157 
L 1420.469952 169.836152 
L 1422.852446 175.718016 
L 1425.23494 170.2591 
L 1427.617435 173.705547 
L 1429.999929 173.579834 
L 1432.382423 169.613491 
L 1434.764917 174.570621 
L 1437.147411 175.449545 
L 1439.529906 169.483517 
L 1444.294894 173.410442 
L 1446.677388 173.497801 
L 1449.059883 172.527256 
L 1451.442377 167.012942 
L 1453.824871 171.620633 
L 1456.207365 173.879201 
L 1458.589859 166.672026 
L 1460.972354 164.085327 
L 1463.354848 167.724604 
L 1465.737342 169.000908 
L 1468.119836 163.787025 
L 1470.502331 183.691186 
L 1472.884825 156.24 
L 1475.267319 174.315999 
L 1477.649813 158.188547 
L 1480.032307 172.427112 
L 1482.414802 171.03788 
L 1484.797296 168.779312 
L 1487.17979 162.958174 
L 1489.562284 173.018388 
L 1491.944779 171.942373 
L 1494.327273 170.145107 
L 1494.327273 170.145107 
" clip-path="url(#pcd2c2855fc)" style="fill: none; stroke: #ffc75f; stroke-width: 2.25; stroke-linecap: round"/>
   </g>
   <g id="patch_3">
    <path d="M 216 897.12 
L 216 120.96 
" style="fill: none; stroke: #262626; stroke-width: 1.875; stroke-linejoin: miter; stroke-linecap: square"/>
   </g>
   <g id="patch_4">
    <path d="M 1555.2 897.12 
L 1555.2 120.96 
" style="fill: none; stroke: #262626; stroke-width: 1.875; stroke-linejoin: miter; stroke-linecap: square"/>
   </g>
   <g id="patch_5">
    <path d="M 216 897.12 
L 1555.2 897.12 
" style="fill: none; stroke: #262626; stroke-width: 1.875; stroke-linejoin: miter; stroke-linecap: square"/>
   </g>
   <g id="patch_6">
    <path d="M 216 120.96 
L 1555.2 120.96 
" style="fill: none; stroke: #262626; stroke-width: 1.875; stroke-linejoin: miter; stroke-linecap: square"/>
   </g>
   <g id="text_16">
    <!-- Df(Z) -->
    <g style="fill: #262626" transform="translate(820.916406 110.561563)scale(0.5 -0.5)">
     <use xlink:href="#DejaVuSans-44"/>
     <use xlink:href="#DejaVuSans-66" x="77.001953"/>
     <use xlink:href="#DejaVuSans-28" x="112.207031"/>
     <use xlink:href="#DejaVuSans-5a" x="151.220703"/>
     <use xlink:href="#DejaVuSans-29" x="219.726562"/>
    </g>
   </g>
   <g id="legend_1">
    <g id="patch_7">
     <path d="M 227.55 182.597813 
L 361.029844 182.597813 
Q 364.329844 182.597813 364.329844 179.297813 
L 364.329844 132.51 
Q 364.329844 129.21 361.029844 129.21 
L 227.55 129.21 
Q 224.25 129.21 224.25 132.51 
L 224.25 179.297813 
Q 224.25 182.597813 227.55 182.597813 
z
" style="fill: #ffffff; opacity: 0.8; stroke: #cccccc; stroke-width: 1.5; stroke-linejoin: miter"/>
    </g>
    <g id="line2d_16">
     <path d="M 230.85 142.572422 
L 247.35 142.572422 
L 263.85 142.572422 
" style="fill: none; stroke: #00c9a7; stroke-width: 2.25; stroke-linecap: round"/>
    </g>
    <g id="text_17">
     <!-- df trace -->
     <g style="fill: #262626" transform="translate(277.05 148.347422)scale(0.165 -0.165)">
      <defs>
       <path id="DejaVuSans-64" d="M 2906 2969 
L 2906 4863 
L 3481 4863 
L 3481 0 
L 2906 0 
L 2906 525 
Q 2725 213 2448 61 
Q 2172 -91 1784 -91 
Q 1150 -91 751 415 
Q 353 922 353 1747 
Q 353 2572 751 3078 
Q 1150 3584 1784 3584 
Q 2172 3584 2448 3432 
Q 2725 3281 2906 2969 
z
M 947 1747 
Q 947 1113 1208 752 
Q 1469 391 1925 391 
Q 2381 391 2643 752 
Q 2906 1113 2906 1747 
Q 2906 2381 2643 2742 
Q 2381 3103 1925 3103 
Q 1469 3103 1208 2742 
Q 947 2381 947 1747 
z
" transform="scale(0.015625)"/>
       <path id="DejaVuSans-74" d="M 1172 4494 
L 1172 3500 
L 2356 3500 
L 2356 3053 
L 1172 3053 
L 1172 1153 
Q 1172 725 1289 603 
Q 1406 481 1766 481 
L 2356 481 
L 2356 0 
L 1766 0 
Q 1100 0 847 248 
Q 594 497 594 1153 
L 594 3053 
L 172 3053 
L 172 3500 
L 594 3500 
L 594 4494 
L 1172 4494 
z
" transform="scale(0.015625)"/>
       <path id="DejaVuSans-72" d="M 2631 2963 
Q 2534 3019 2420 3045 
Q 2306 3072 2169 3072 
Q 1681 3072 1420 2755 
Q 1159 2438 1159 1844 
L 1159 0 
L 581 0 
L 581 3500 
L 1159 3500 
L 1159 2956 
Q 1341 3275 1631 3429 
Q 1922 3584 2338 3584 
Q 2397 3584 2469 3576 
Q 2541 3569 2628 3553 
L 2631 2963 
z
" transform="scale(0.015625)"/>
       <path id="DejaVuSans-61" d="M 2194 1759 
Q 1497 1759 1228 1600 
Q 959 1441 959 1056 
Q 959 750 1161 570 
Q 1363 391 1709 391 
Q 2188 391 2477 730 
Q 2766 1069 2766 1631 
L 2766 1759 
L 2194 1759 
z
M 3341 1997 
L 3341 0 
L 2766 0 
L 2766 531 
Q 2569 213 2275 61 
Q 1981 -91 1556 -91 
Q 1019 -91 701 211 
Q 384 513 384 1019 
Q 384 1609 779 1909 
Q 1175 2209 1959 2209 
L 2766 2209 
L 2766 2266 
Q 2766 2663 2505 2880 
Q 2244 3097 1772 3097 
Q 1472 3097 1187 3025 
Q 903 2953 641 2809 
L 641 3341 
Q 956 3463 1253 3523 
Q 1550 3584 1831 3584 
Q 2591 3584 2966 3190 
Q 3341 2797 3341 1997 
z
" transform="scale(0.015625)"/>
       <path id="DejaVuSans-63" d="M 3122 3366 
L 3122 2828 
Q 2878 2963 2633 3030 
Q 2388 3097 2138 3097 
Q 1578 3097 1268 2742 
Q 959 2388 959 1747 
Q 959 1106 1268 751 
Q 1578 397 2138 397 
Q 2388 397 2633 464 
Q 2878 531 3122 666 
L 3122 134 
Q 2881 22 2623 -34 
Q 2366 -91 2075 -91 
Q 1284 -91 818 406 
Q 353 903 353 1747 
Q 353 2603 823 3093 
Q 1294 3584 2113 3584 
Q 2378 3584 2631 3529 
Q 2884 3475 3122 3366 
z
" transform="scale(0.015625)"/>
       <path id="DejaVuSans-65" d="M 3597 1894 
L 3597 1613 
L 953 1613 
Q 991 1019 1311 708 
Q 1631 397 2203 397 
Q 2534 397 2845 478 
Q 3156 559 3463 722 
L 3463 178 
Q 3153 47 2828 -22 
Q 2503 -91 2169 -91 
Q 1331 -91 842 396 
Q 353 884 353 1716 
Q 353 2575 817 3079 
Q 1281 3584 2069 3584 
Q 2775 3584 3186 3129 
Q 3597 2675 3597 1894 
z
M 3022 2063 
Q 3016 2534 2758 2815 
Q 2500 3097 2075 3097 
Q 1594 3097 1305 2825 
Q 1016 2553 972 2059 
L 3022 2063 
z
" transform="scale(0.015625)"/>
      </defs>
      <use xlink:href="#DejaVuSans-64"/>
      <use xlink:href="#DejaVuSans-66" x="63.476562"/>
      <use xlink:href="#DejaVuSans-20" x="98.681641"/>
      <use xlink:href="#DejaVuSans-74" x="130.46875"/>
      <use xlink:href="#DejaVuSans-72" x="169.677734"/>
      <use xlink:href="#DejaVuSans-61" x="210.791016"/>
      <use xlink:href="#DejaVuSans-63" x="272.070312"/>
      <use xlink:href="#DejaVuSans-65" x="327.050781"/>
     </g>
    </g>
    <g id="line2d_17">
     <path d="M 230.85 166.791328 
L 247.35 166.791328 
L 263.85 166.791328 
" style="fill: none; stroke: #ffc75f; stroke-width: 2.25; stroke-linecap: round"/>
    </g>
    <g id="text_18">
     <!-- df retrace -->
     <g style="fill: #262626" transform="translate(277.05 172.566328)scale(0.165 -0.165)">
      <use xlink:href="#DejaVuSans-64"/>
      <use xlink:href="#DejaVuSans-66" x="63.476562"/>
      <use xlink:href="#DejaVuSans-20" x="98.681641"/>
      <use xlink:href="#DejaVuSans-72" x="130.46875"/>
      <use xlink:href="#DejaVuSans-65" x="169.332031"/>
      <use xlink:href="#DejaVuSans-74" x="230.855469"/>
      <use xlink:href="#DejaVuSans-72" x="270.064453"/>
      <use xlink:href="#DejaVuSans-61" x="311.177734"/>
      <use xlink:href="#DejaVuSans-63" x="372.457031"/>
      <use xlink:href="#DejaVuSans-65" x="427.4375"/>
     </g>
    </g>
   </g>
  </g>
 </g>
 <defs>
  <clipPath id="pcd2c2855fc">
   <rect x="216" y="120.96" width="1339.2" height="776.16"/>
  </clipPath>
 </defs>
</svg>
