<?xml version="1.0" encoding="utf-8" standalone="no"?>
<!DOCTYPE svg PUBLIC "-//W3C//DTD SVG 1.1//EN"
  "http://www.w3.org/Graphics/SVG/1.1/DTD/svg11.dtd">
<svg xmlns:xlink="http://www.w3.org/1999/xlink" width="1728pt" height="1008pt" viewBox="0 0 1728 1008" xmlns="http://www.w3.org/2000/svg" version="1.1">
 <metadata>
  <rdf:RDF xmlns:dc="http://purl.org/dc/elements/1.1/" xmlns:cc="http://creativecommons.org/ns#" xmlns:rdf="http://www.w3.org/1999/02/22-rdf-syntax-ns#">
   <cc:Work>
    <dc:type rdf:resource="http://purl.org/dc/dcmitype/StillImage"/>
    <dc:date>2022-10-28T12:54:58.094901</dc:date>
    <dc:format>image/svg+xml</dc:format>
    <dc:creator>
     <cc:Agent>
      <dc:title>Matplotlib v3.5.2, https://matplotlib.org/</dc:title>
     </cc:Agent>
    </dc:creator>
   </cc:Work>
  </rdf:RDF>
 </metadata>
 <defs>
  <style type="text/css">*{stroke-linejoin: round; stroke-linecap: butt}</style>
 </defs>
 <g id="figure_1">
  <g id="patch_1">
   <path d="M 0 1008 
L 1728 1008 
L 1728 0 
L 0 0 
z
" style="fill: #ffffff"/>
  </g>
  <g id="axes_1">
   <g id="patch_2">
    <path d="M 216 897.12 
L 1555.2 897.12 
L 1555.2 120.96 
L 216 120.96 
L 216 897.12 
z
" style="fill: none"/>
   </g>
   <g id="matplotlib.axis_1">
    <g id="xtick_1">
     <g id="line2d_1">
      <defs>
       <path id="m4f3ba4cb9b" d="M 0 0 
L 0 9 
" style="stroke: #262626; stroke-width: 1.875"/>
      </defs>
      <g>
       <use xlink:href="#m4f3ba4cb9b" x="440.408984" y="897.12" style="fill: #262626; stroke: #262626; stroke-width: 1.875"/>
      </g>
     </g>
     <g id="text_1">
      <!-- 0.0 -->
      <g style="fill: #262626" transform="translate(402.241484 946.0925)scale(0.48 -0.48)">
       <defs>
        <path id="DejaVuSans-30" d="M 2034 4250 
Q 1547 4250 1301 3770 
Q 1056 3291 1056 2328 
Q 1056 1369 1301 889 
Q 1547 409 2034 409 
Q 2525 409 2770 889 
Q 3016 1369 3016 2328 
Q 3016 3291 2770 3770 
Q 2525 4250 2034 4250 
z
M 2034 4750 
Q 2819 4750 3233 4129 
Q 3647 3509 3647 2328 
Q 3647 1150 3233 529 
Q 2819 -91 2034 -91 
Q 1250 -91 836 529 
Q 422 1150 422 2328 
Q 422 3509 836 4129 
Q 1250 4750 2034 4750 
z
" transform="scale(0.015625)"/>
        <path id="DejaVuSans-2e" d="M 684 794 
L 1344 794 
L 1344 0 
L 684 0 
L 684 794 
z
" transform="scale(0.015625)"/>
       </defs>
       <use xlink:href="#DejaVuSans-30"/>
       <use xlink:href="#DejaVuSans-2e" x="63.623047"/>
       <use xlink:href="#DejaVuSans-30" x="95.410156"/>
      </g>
     </g>
    </g>
    <g id="xtick_2">
     <g id="line2d_2">
      <g>
       <use xlink:href="#m4f3ba4cb9b" x="704.17714" y="897.12" style="fill: #262626; stroke: #262626; stroke-width: 1.875"/>
      </g>
     </g>
     <g id="text_2">
      <!-- 0.5 -->
      <g style="fill: #262626" transform="translate(666.00964 946.0925)scale(0.48 -0.48)">
       <defs>
        <path id="DejaVuSans-35" d="M 691 4666 
L 3169 4666 
L 3169 4134 
L 1269 4134 
L 1269 2991 
Q 1406 3038 1543 3061 
Q 1681 3084 1819 3084 
Q 2600 3084 3056 2656 
Q 3513 2228 3513 1497 
Q 3513 744 3044 326 
Q 2575 -91 1722 -91 
Q 1428 -91 1123 -41 
Q 819 9 494 109 
L 494 744 
Q 775 591 1075 516 
Q 1375 441 1709 441 
Q 2250 441 2565 725 
Q 2881 1009 2881 1497 
Q 2881 1984 2565 2268 
Q 2250 2553 1709 2553 
Q 1456 2553 1204 2497 
Q 953 2441 691 2322 
L 691 4666 
z
" transform="scale(0.015625)"/>
       </defs>
       <use xlink:href="#DejaVuSans-30"/>
       <use xlink:href="#DejaVuSans-2e" x="63.623047"/>
       <use xlink:href="#DejaVuSans-35" x="95.410156"/>
      </g>
     </g>
    </g>
    <g id="xtick_3">
     <g id="line2d_3">
      <g>
       <use xlink:href="#m4f3ba4cb9b" x="967.945297" y="897.12" style="fill: #262626; stroke: #262626; stroke-width: 1.875"/>
      </g>
     </g>
     <g id="text_3">
      <!-- 1.0 -->
      <g style="fill: #262626" transform="translate(929.777797 946.0925)scale(0.48 -0.48)">
       <defs>
        <path id="DejaVuSans-31" d="M 794 531 
L 1825 531 
L 1825 4091 
L 703 3866 
L 703 4441 
L 1819 4666 
L 2450 4666 
L 2450 531 
L 3481 531 
L 3481 0 
L 794 0 
L 794 531 
z
" transform="scale(0.015625)"/>
       </defs>
       <use xlink:href="#DejaVuSans-31"/>
       <use xlink:href="#DejaVuSans-2e" x="63.623047"/>
       <use xlink:href="#DejaVuSans-30" x="95.410156"/>
      </g>
     </g>
    </g>
    <g id="xtick_4">
     <g id="line2d_4">
      <g>
       <use xlink:href="#m4f3ba4cb9b" x="1231.713453" y="897.12" style="fill: #262626; stroke: #262626; stroke-width: 1.875"/>
      </g>
     </g>
     <g id="text_4">
      <!-- 1.5 -->
      <g style="fill: #262626" transform="translate(1193.545953 946.0925)scale(0.48 -0.48)">
       <use xlink:href="#DejaVuSans-31"/>
       <use xlink:href="#DejaVuSans-2e" x="63.623047"/>
       <use xlink:href="#DejaVuSans-35" x="95.410156"/>
      </g>
     </g>
    </g>
    <g id="xtick_5">
     <g id="line2d_5">
      <g>
       <use xlink:href="#m4f3ba4cb9b" x="1495.481609" y="897.12" style="fill: #262626; stroke: #262626; stroke-width: 1.875"/>
      </g>
     </g>
     <g id="text_5">
      <!-- 2.0 -->
      <g style="fill: #262626" transform="translate(1457.314109 946.0925)scale(0.48 -0.48)">
       <defs>
        <path id="DejaVuSans-32" d="M 1228 531 
L 3431 531 
L 3431 0 
L 469 0 
L 469 531 
Q 828 903 1448 1529 
Q 2069 2156 2228 2338 
Q 2531 2678 2651 2914 
Q 2772 3150 2772 3378 
Q 2772 3750 2511 3984 
Q 2250 4219 1831 4219 
Q 1534 4219 1204 4116 
Q 875 4013 500 3803 
L 500 4441 
Q 881 4594 1212 4672 
Q 1544 4750 1819 4750 
Q 2544 4750 2975 4387 
Q 3406 4025 3406 3419 
Q 3406 3131 3298 2873 
Q 3191 2616 2906 2266 
Q 2828 2175 2409 1742 
Q 1991 1309 1228 531 
z
" transform="scale(0.015625)"/>
       </defs>
       <use xlink:href="#DejaVuSans-32"/>
       <use xlink:href="#DejaVuSans-2e" x="63.623047"/>
       <use xlink:href="#DejaVuSans-30" x="95.410156"/>
      </g>
     </g>
    </g>
    <g id="text_6">
     <!-- Z [nm] -->
     <g style="fill: #262626" transform="translate(804.2175 996.5475)scale(0.48 -0.48)">
      <defs>
       <path id="DejaVuSans-5a" d="M 359 4666 
L 4025 4666 
L 4025 4184 
L 1075 531 
L 4097 531 
L 4097 0 
L 288 0 
L 288 481 
L 3238 4134 
L 359 4134 
L 359 4666 
z
" transform="scale(0.015625)"/>
       <path id="DejaVuSans-20" transform="scale(0.015625)"/>
       <path id="DejaVuSans-5b" d="M 550 4863 
L 1875 4863 
L 1875 4416 
L 1125 4416 
L 1125 -397 
L 1875 -397 
L 1875 -844 
L 550 -844 
L 550 4863 
z
" transform="scale(0.015625)"/>
       <path id="DejaVuSans-6e" d="M 3513 2113 
L 3513 0 
L 2938 0 
L 2938 2094 
Q 2938 2591 2744 2837 
Q 2550 3084 2163 3084 
Q 1697 3084 1428 2787 
Q 1159 2491 1159 1978 
L 1159 0 
L 581 0 
L 581 3500 
L 1159 3500 
L 1159 2956 
Q 1366 3272 1645 3428 
Q 1925 3584 2291 3584 
Q 2894 3584 3203 3211 
Q 3513 2838 3513 2113 
z
" transform="scale(0.015625)"/>
       <path id="DejaVuSans-6d" d="M 3328 2828 
Q 3544 3216 3844 3400 
Q 4144 3584 4550 3584 
Q 5097 3584 5394 3201 
Q 5691 2819 5691 2113 
L 5691 0 
L 5113 0 
L 5113 2094 
Q 5113 2597 4934 2840 
Q 4756 3084 4391 3084 
Q 3944 3084 3684 2787 
Q 3425 2491 3425 1978 
L 3425 0 
L 2847 0 
L 2847 2094 
Q 2847 2600 2669 2842 
Q 2491 3084 2119 3084 
Q 1678 3084 1418 2786 
Q 1159 2488 1159 1978 
L 1159 0 
L 581 0 
L 581 3500 
L 1159 3500 
L 1159 2956 
Q 1356 3278 1631 3431 
Q 1906 3584 2284 3584 
Q 2666 3584 2933 3390 
Q 3200 3197 3328 2828 
z
" transform="scale(0.015625)"/>
       <path id="DejaVuSans-5d" d="M 1947 4863 
L 1947 -844 
L 622 -844 
L 622 -397 
L 1369 -397 
L 1369 4416 
L 622 4416 
L 622 4863 
L 1947 4863 
z
" transform="scale(0.015625)"/>
      </defs>
      <use xlink:href="#DejaVuSans-5a"/>
      <use xlink:href="#DejaVuSans-20" x="68.505859"/>
      <use xlink:href="#DejaVuSans-5b" x="100.292969"/>
      <use xlink:href="#DejaVuSans-6e" x="139.306641"/>
      <use xlink:href="#DejaVuSans-6d" x="202.685547"/>
      <use xlink:href="#DejaVuSans-5d" x="300.097656"/>
     </g>
    </g>
   </g>
   <g id="matplotlib.axis_2">
    <g id="ytick_1">
     <g id="line2d_6">
      <defs>
       <path id="m1f5557d3d0" d="M 0 0 
L -9 0 
" style="stroke: #262626; stroke-width: 1.875"/>
      </defs>
      <g>
       <use xlink:href="#m1f5557d3d0" x="216" y="883.421969" style="fill: #262626; stroke: #262626; stroke-width: 1.875"/>
      </g>
     </g>
     <g id="text_7">
      <!-- −12 -->
      <g style="fill: #262626" transform="translate(102.1975 901.658219)scale(0.48 -0.48)">
       <defs>
        <path id="DejaVuSans-2212" d="M 678 2272 
L 4684 2272 
L 4684 1741 
L 678 1741 
L 678 2272 
z
" transform="scale(0.015625)"/>
       </defs>
       <use xlink:href="#DejaVuSans-2212"/>
       <use xlink:href="#DejaVuSans-31" x="83.789062"/>
       <use xlink:href="#DejaVuSans-32" x="147.412109"/>
      </g>
     </g>
    </g>
    <g id="ytick_2">
     <g id="line2d_7">
      <g>
       <use xlink:href="#m1f5557d3d0" x="216" y="762.371652" style="fill: #262626; stroke: #262626; stroke-width: 1.875"/>
      </g>
     </g>
     <g id="text_8">
      <!-- −10 -->
      <g style="fill: #262626" transform="translate(102.1975 780.607902)scale(0.48 -0.48)">
       <use xlink:href="#DejaVuSans-2212"/>
       <use xlink:href="#DejaVuSans-31" x="83.789062"/>
       <use xlink:href="#DejaVuSans-30" x="147.412109"/>
      </g>
     </g>
    </g>
    <g id="ytick_3">
     <g id="line2d_8">
      <g>
       <use xlink:href="#m1f5557d3d0" x="216" y="641.321336" style="fill: #262626; stroke: #262626; stroke-width: 1.875"/>
      </g>
     </g>
     <g id="text_9">
      <!-- −8 -->
      <g style="fill: #262626" transform="translate(132.7375 659.557586)scale(0.48 -0.48)">
       <defs>
        <path id="DejaVuSans-38" d="M 2034 2216 
Q 1584 2216 1326 1975 
Q 1069 1734 1069 1313 
Q 1069 891 1326 650 
Q 1584 409 2034 409 
Q 2484 409 2743 651 
Q 3003 894 3003 1313 
Q 3003 1734 2745 1975 
Q 2488 2216 2034 2216 
z
M 1403 2484 
Q 997 2584 770 2862 
Q 544 3141 544 3541 
Q 544 4100 942 4425 
Q 1341 4750 2034 4750 
Q 2731 4750 3128 4425 
Q 3525 4100 3525 3541 
Q 3525 3141 3298 2862 
Q 3072 2584 2669 2484 
Q 3125 2378 3379 2068 
Q 3634 1759 3634 1313 
Q 3634 634 3220 271 
Q 2806 -91 2034 -91 
Q 1263 -91 848 271 
Q 434 634 434 1313 
Q 434 1759 690 2068 
Q 947 2378 1403 2484 
z
M 1172 3481 
Q 1172 3119 1398 2916 
Q 1625 2713 2034 2713 
Q 2441 2713 2670 2916 
Q 2900 3119 2900 3481 
Q 2900 3844 2670 4047 
Q 2441 4250 2034 4250 
Q 1625 4250 1398 4047 
Q 1172 3844 1172 3481 
z
" transform="scale(0.015625)"/>
       </defs>
       <use xlink:href="#DejaVuSans-2212"/>
       <use xlink:href="#DejaVuSans-38" x="83.789062"/>
      </g>
     </g>
    </g>
    <g id="ytick_4">
     <g id="line2d_9">
      <g>
       <use xlink:href="#m1f5557d3d0" x="216" y="520.271019" style="fill: #262626; stroke: #262626; stroke-width: 1.875"/>
      </g>
     </g>
     <g id="text_10">
      <!-- −6 -->
      <g style="fill: #262626" transform="translate(132.7375 538.507269)scale(0.48 -0.48)">
       <defs>
        <path id="DejaVuSans-36" d="M 2113 2584 
Q 1688 2584 1439 2293 
Q 1191 2003 1191 1497 
Q 1191 994 1439 701 
Q 1688 409 2113 409 
Q 2538 409 2786 701 
Q 3034 994 3034 1497 
Q 3034 2003 2786 2293 
Q 2538 2584 2113 2584 
z
M 3366 4563 
L 3366 3988 
Q 3128 4100 2886 4159 
Q 2644 4219 2406 4219 
Q 1781 4219 1451 3797 
Q 1122 3375 1075 2522 
Q 1259 2794 1537 2939 
Q 1816 3084 2150 3084 
Q 2853 3084 3261 2657 
Q 3669 2231 3669 1497 
Q 3669 778 3244 343 
Q 2819 -91 2113 -91 
Q 1303 -91 875 529 
Q 447 1150 447 2328 
Q 447 3434 972 4092 
Q 1497 4750 2381 4750 
Q 2619 4750 2861 4703 
Q 3103 4656 3366 4563 
z
" transform="scale(0.015625)"/>
       </defs>
       <use xlink:href="#DejaVuSans-2212"/>
       <use xlink:href="#DejaVuSans-36" x="83.789062"/>
      </g>
     </g>
    </g>
    <g id="ytick_5">
     <g id="line2d_10">
      <g>
       <use xlink:href="#m1f5557d3d0" x="216" y="399.220702" style="fill: #262626; stroke: #262626; stroke-width: 1.875"/>
      </g>
     </g>
     <g id="text_11">
      <!-- −4 -->
      <g style="fill: #262626" transform="translate(132.7375 417.456952)scale(0.48 -0.48)">
       <defs>
        <path id="DejaVuSans-34" d="M 2419 4116 
L 825 1625 
L 2419 1625 
L 2419 4116 
z
M 2253 4666 
L 3047 4666 
L 3047 1625 
L 3713 1625 
L 3713 1100 
L 3047 1100 
L 3047 0 
L 2419 0 
L 2419 1100 
L 313 1100 
L 313 1709 
L 2253 4666 
z
" transform="scale(0.015625)"/>
       </defs>
       <use xlink:href="#DejaVuSans-2212"/>
       <use xlink:href="#DejaVuSans-34" x="83.789062"/>
      </g>
     </g>
    </g>
    <g id="ytick_6">
     <g id="line2d_11">
      <g>
       <use xlink:href="#m1f5557d3d0" x="216" y="278.170385" style="fill: #262626; stroke: #262626; stroke-width: 1.875"/>
      </g>
     </g>
     <g id="text_12">
      <!-- −2 -->
      <g style="fill: #262626" transform="translate(132.7375 296.406635)scale(0.48 -0.48)">
       <use xlink:href="#DejaVuSans-2212"/>
       <use xlink:href="#DejaVuSans-32" x="83.789062"/>
      </g>
     </g>
    </g>
    <g id="ytick_7">
     <g id="line2d_12">
      <g>
       <use xlink:href="#m1f5557d3d0" x="216" y="157.120068" style="fill: #262626; stroke: #262626; stroke-width: 1.875"/>
      </g>
     </g>
     <g id="text_13">
      <!-- 0 -->
      <g style="fill: #262626" transform="translate(172.96 175.356318)scale(0.48 -0.48)">
       <use xlink:href="#DejaVuSans-30"/>
      </g>
     </g>
    </g>
    <g id="text_14">
     <!-- Df(Z) [Hz] -->
     <g style="fill: #262626" transform="translate(88.215 628.13625)rotate(-90)scale(0.48 -0.48)">
      <defs>
       <path id="DejaVuSans-44" d="M 1259 4147 
L 1259 519 
L 2022 519 
Q 2988 519 3436 956 
Q 3884 1394 3884 2338 
Q 3884 3275 3436 3711 
Q 2988 4147 2022 4147 
L 1259 4147 
z
M 628 4666 
L 1925 4666 
Q 3281 4666 3915 4102 
Q 4550 3538 4550 2338 
Q 4550 1131 3912 565 
Q 3275 0 1925 0 
L 628 0 
L 628 4666 
z
" transform="scale(0.015625)"/>
       <path id="DejaVuSans-66" d="M 2375 4863 
L 2375 4384 
L 1825 4384 
Q 1516 4384 1395 4259 
Q 1275 4134 1275 3809 
L 1275 3500 
L 2222 3500 
L 2222 3053 
L 1275 3053 
L 1275 0 
L 697 0 
L 697 3053 
L 147 3053 
L 147 3500 
L 697 3500 
L 697 3744 
Q 697 4328 969 4595 
Q 1241 4863 1831 4863 
L 2375 4863 
z
" transform="scale(0.015625)"/>
       <path id="DejaVuSans-28" d="M 1984 4856 
Q 1566 4138 1362 3434 
Q 1159 2731 1159 2009 
Q 1159 1288 1364 580 
Q 1569 -128 1984 -844 
L 1484 -844 
Q 1016 -109 783 600 
Q 550 1309 550 2009 
Q 550 2706 781 3412 
Q 1013 4119 1484 4856 
L 1984 4856 
z
" transform="scale(0.015625)"/>
       <path id="DejaVuSans-29" d="M 513 4856 
L 1013 4856 
Q 1481 4119 1714 3412 
Q 1947 2706 1947 2009 
Q 1947 1309 1714 600 
Q 1481 -109 1013 -844 
L 513 -844 
Q 928 -128 1133 580 
Q 1338 1288 1338 2009 
Q 1338 2731 1133 3434 
Q 928 4138 513 4856 
z
" transform="scale(0.015625)"/>
       <path id="DejaVuSans-48" d="M 628 4666 
L 1259 4666 
L 1259 2753 
L 3553 2753 
L 3553 4666 
L 4184 4666 
L 4184 0 
L 3553 0 
L 3553 2222 
L 1259 2222 
L 1259 0 
L 628 0 
L 628 4666 
z
" transform="scale(0.015625)"/>
       <path id="DejaVuSans-7a" d="M 353 3500 
L 3084 3500 
L 3084 2975 
L 922 459 
L 3084 459 
L 3084 0 
L 275 0 
L 275 525 
L 2438 3041 
L 353 3041 
L 353 3500 
z
" transform="scale(0.015625)"/>
      </defs>
      <use xlink:href="#DejaVuSans-44"/>
      <use xlink:href="#DejaVuSans-66" x="77.001953"/>
      <use xlink:href="#DejaVuSans-28" x="112.207031"/>
      <use xlink:href="#DejaVuSans-5a" x="151.220703"/>
      <use xlink:href="#DejaVuSans-29" x="219.726562"/>
      <use xlink:href="#DejaVuSans-20" x="258.740234"/>
      <use xlink:href="#DejaVuSans-5b" x="290.527344"/>
      <use xlink:href="#DejaVuSans-48" x="329.541016"/>
      <use xlink:href="#DejaVuSans-7a" x="404.736328"/>
      <use xlink:href="#DejaVuSans-5d" x="457.226562"/>
     </g>
    </g>
   </g>
   <g id="line2d_13">
    <path d="M 276.872727 428.882578 
L 279.255221 419.112376 
L 281.637716 403.905912 
L 284.02021 399.70787 
L 288.785198 384.67515 
L 291.167693 378.69564 
L 293.550187 371.953038 
L 295.932681 366.082247 
L 298.315175 363.343645 
L 300.697669 359.780711 
L 303.080164 352.453576 
L 305.462658 346.844259 
L 307.845152 344.254973 
L 310.227646 342.449767 
L 312.610141 338.893026 
L 314.992635 333.603671 
L 317.375129 330.967251 
L 319.757623 325.995107 
L 322.140117 323.030467 
L 324.522612 323.119919 
L 326.905106 317.756595 
L 329.2876 314.904803 
L 331.670094 312.743165 
L 334.052589 315.513419 
L 336.435083 308.157728 
L 338.817577 306.714801 
L 341.200071 304.341232 
L 343.582565 304.784707 
L 345.96506 299.178486 
L 348.347554 300.258101 
L 350.730048 297.829828 
L 353.112542 294.976316 
L 355.495036 293.009752 
L 357.877531 290.866693 
L 360.260025 289.5576 
L 362.642519 288.039328 
L 365.025013 285.833997 
L 367.407508 280.157591 
L 369.790002 283.095395 
L 372.172496 281.135712 
L 374.55499 280.564253 
L 376.937484 278.88772 
L 379.319979 276.868517 
L 381.702473 273.613847 
L 384.084967 271.082361 
L 386.467461 272.062547 
L 388.849956 269.66455 
L 391.23245 266.265037 
L 393.614944 267.659109 
L 395.997438 266.06033 
L 398.379932 261.983736 
L 400.762427 262.913003 
L 405.527415 258.217127 
L 407.909909 259.036987 
L 410.292403 257.800144 
L 412.674898 257.022945 
L 415.057392 253.654741 
L 417.439886 252.86378 
L 419.82238 251.461795 
L 422.204875 255.470268 
L 424.587369 248.576974 
L 426.969863 250.254884 
L 429.352357 247.370407 
L 431.734851 248.634774 
L 434.117346 245.327121 
L 436.49984 245.258656 
L 438.882334 243.329249 
L 441.264828 243.208145 
L 443.647323 241.162107 
L 446.029817 240.353945 
L 448.412311 243.773068 
L 450.794805 240.526311 
L 453.177299 236.424258 
L 455.559794 236.429418 
L 457.942288 235.165396 
L 460.324782 236.72805 
L 462.707276 235.205649 
L 465.089771 235.427902 
L 467.472265 230.807372 
L 469.854759 231.467251 
L 472.237253 234.053441 
L 474.619747 232.000522 
L 477.002242 230.758518 
L 479.384736 229.244374 
L 481.76723 228.88175 
L 484.149724 228.206733 
L 486.532218 227.660045 
L 488.914713 226.332718 
L 491.297207 228.355361 
L 496.062195 224.252619 
L 498.44469 225.987984 
L 500.827184 222.836184 
L 503.209678 224.564668 
L 505.592172 222.830679 
L 507.974666 223.654668 
L 510.357161 223.989768 
L 512.739655 222.573333 
L 515.122149 224.334158 
L 517.504643 219.86948 
L 519.887138 218.318179 
L 522.269632 221.436607 
L 524.652126 219.550206 
L 527.03462 216.242897 
L 529.417114 218.006474 
L 531.799609 215.358013 
L 534.182103 215.659396 
L 536.564597 215.627056 
L 538.947091 216.017548 
L 541.329585 213.869328 
L 543.71208 213.891347 
L 546.094574 215.144016 
L 548.477068 212.760126 
L 550.859562 210.969369 
L 553.242057 213.784349 
L 555.624551 211.095978 
L 558.007045 210.478416 
L 560.389539 211.015815 
L 562.772033 210.334605 
L 565.154528 211.340594 
L 567.537022 209.116685 
L 569.919516 212.006322 
L 572.30201 207.093698 
L 574.684505 209.753857 
L 577.066999 208.915762 
L 579.449493 208.560707 
L 581.831987 208.717592 
L 584.214481 204.836072 
L 586.596976 209.312791 
L 588.97947 204.781024 
L 591.361964 207.983399 
L 593.744458 207.982023 
L 596.126952 202.329357 
L 598.509447 207.07856 
L 600.891941 201.667757 
L 603.274435 205.074151 
L 605.656929 203.944306 
L 608.039424 203.5951 
L 610.421918 203.040499 
L 612.804412 203.089009 
L 615.186906 203.826298 
L 617.5694 202.553674 
L 619.951895 202.711247 
L 622.334389 200.916706 
L 624.716883 201.384264 
L 627.099377 200.031821 
L 629.481872 199.819889 
L 631.864366 199.372974 
L 634.24686 199.153473 
L 639.011848 199.304165 
L 641.394343 198.435451 
L 643.776837 199.207144 
L 646.159331 200.172536 
L 648.541825 198.113424 
L 650.92432 197.444944 
L 653.306814 198.643254 
L 655.689308 197.090921 
L 658.071802 198.555866 
L 660.454296 195.81348 
L 665.219285 198.869636 
L 667.601779 196.264524 
L 669.984273 197.073031 
L 672.366767 193.43475 
L 674.749262 194.795106 
L 677.131756 193.627072 
L 679.51425 195.144656 
L 681.896744 195.436751 
L 684.279239 193.985567 
L 686.661733 193.816985 
L 689.044227 191.589979 
L 691.426721 194.004834 
L 693.809215 194.30897 
L 696.19171 191.25075 
L 698.574204 192.811684 
L 703.339192 192.29252 
L 705.721687 193.137839 
L 708.104181 190.797298 
L 710.486675 191.365317 
L 712.869169 191.601332 
L 715.251663 191.310958 
L 717.634158 191.309926 
L 720.016652 190.170103 
L 722.399146 191.670485 
L 724.78164 187.618663 
L 727.164134 190.745347 
L 729.546629 187.9025 
L 731.929123 188.998973 
L 734.311617 190.719888 
L 736.694111 188.795642 
L 741.4591 189.170995 
L 743.841594 188.471895 
L 746.224088 187.372326 
L 748.606582 187.742175 
L 750.989077 187.944474 
L 753.371571 187.740799 
L 755.754065 189.513665 
L 758.136559 187.391593 
L 760.519054 183.90538 
L 762.901548 186.210829 
L 765.284042 184.793362 
L 767.666536 183.563743 
L 770.04903 186.428609 
L 772.431525 187.08436 
L 774.814019 184.571108 
L 777.196513 187.14216 
L 779.579007 182.774847 
L 781.961502 188.647014 
L 784.343996 183.733702 
L 786.72649 184.114904 
L 789.108984 182.881845 
L 791.491478 185.298076 
L 793.873973 185.934904 
L 796.256467 185.315278 
L 798.638961 183.932904 
L 801.021455 183.216257 
L 803.403949 183.34149 
L 805.786444 184.371562 
L 808.168938 183.752968 
L 810.551432 184.922723 
L 812.933926 184.292775 
L 815.316421 182.390548 
L 817.698915 181.321943 
L 820.081409 183.909165 
L 822.463903 182.753172 
L 824.846397 182.681611 
L 827.228892 180.84028 
L 829.611386 181.689384 
L 831.99388 183.759161 
L 834.376374 182.578053 
L 836.758869 177.900756 
L 839.141363 179.143792 
L 841.523857 181.728949 
L 843.906351 179.975694 
L 846.288845 180.319395 
L 848.67134 179.316847 
L 851.053834 182.131826 
L 853.436328 179.329232 
L 855.818822 181.811176 
L 858.201316 178.945278 
L 860.583811 178.834839 
L 862.966305 180.46355 
L 865.348799 180.712639 
L 867.731293 178.968673 
L 870.113788 177.600404 
L 872.496282 182.155909 
L 874.878776 180.004593 
L 877.26127 178.135051 
L 879.643764 177.70809 
L 882.026259 179.607909 
L 884.408753 178.253058 
L 886.791247 178.478064 
L 889.173741 179.284162 
L 891.556236 174.743451 
L 893.93873 179.78406 
L 896.321224 178.302945 
L 898.703718 177.905572 
L 901.086212 176.419984 
L 903.468707 179.001357 
L 905.851201 177.846052 
L 908.233695 177.616918 
L 910.616189 177.942729 
L 912.998684 177.076079 
L 915.381178 176.491202 
L 917.763672 178.850665 
L 920.146166 181.485709 
L 922.52866 175.130158 
L 924.911155 174.294816 
L 927.293649 177.159682 
L 929.676143 176.384547 
L 932.058637 177.25567 
L 934.441131 174.709734 
L 936.823626 173.908109 
L 939.20612 175.439799 
L 941.588614 176.679738 
L 943.971108 173.433326 
L 946.353603 174.718335 
L 948.736097 177.95133 
L 951.118591 175.878457 
L 953.501085 174.390804 
L 955.883579 173.818313 
L 958.266074 175.798294 
L 960.648568 173.204192 
L 963.031062 175.664116 
L 965.413556 173.334241 
L 967.796051 174.097678 
L 970.178545 174.563171 
L 972.561039 174.184033 
L 974.943533 174.373258 
L 977.326027 175.154241 
L 979.708522 172.135931 
L 982.091016 173.106827 
L 984.47351 173.656955 
L 986.856004 173.549269 
L 989.238498 171.639473 
L 991.620993 173.114052 
L 994.003487 170.793465 
L 996.385981 173.78322 
L 998.768475 172.600736 
L 1001.15097 172.590415 
L 1003.533464 176.137523 
L 1005.915958 170.969273 
L 1008.298452 173.628744 
L 1010.680946 173.768082 
L 1013.063441 169.115212 
L 1015.445935 171.837643 
L 1017.828429 175.505511 
L 1020.210923 169.314758 
L 1022.593418 171.632248 
L 1027.358406 172.245337 
L 1029.7409 169.819473 
L 1032.123394 169.142391 
L 1034.505889 170.72156 
L 1036.888383 173.261647 
L 1039.270877 166.880293 
L 1041.653371 171.951178 
L 1044.035866 171.657707 
L 1046.41836 169.167507 
L 1048.800854 169.254894 
L 1051.183348 170.423616 
L 1053.565842 167.576641 
L 1055.948337 169.128974 
L 1058.330831 171.909893 
L 1060.713325 165.986807 
L 1063.095819 172.309329 
L 1065.478313 169.942985 
L 1067.860808 169.926815 
L 1070.243302 169.485749 
L 1072.625796 166.691412 
L 1075.00829 169.585522 
L 1077.390785 168.771166 
L 1079.773279 170.224414 
L 1082.155773 170.187945 
L 1084.538267 168.378955 
L 1086.920761 169.535291 
L 1089.303256 168.439163 
L 1091.68575 169.488845 
L 1094.068244 168.100966 
L 1096.450738 169.622335 
L 1098.833233 166.840727 
L 1101.215727 167.323079 
L 1103.598221 165.951026 
L 1105.980715 167.720796 
L 1108.363209 170.389212 
L 1110.745704 169.424853 
L 1113.128198 171.784316 
L 1115.510692 165.367181 
L 1117.893186 165.997128 
L 1120.27568 167.655427 
L 1122.658175 167.766898 
L 1125.040669 168.237208 
L 1127.423163 170.115008 
L 1129.805657 163.496606 
L 1132.188152 168.961768 
L 1134.570646 166.844168 
L 1136.95314 166.074538 
L 1139.335634 166.154013 
L 1141.718128 168.384803 
L 1144.100623 168.601208 
L 1146.483117 165.478996 
L 1148.865611 168.143972 
L 1153.6306 166.267892 
L 1156.013094 167.461729 
L 1158.395588 166.412391 
L 1160.778082 166.688659 
L 1163.160576 169.140327 
L 1165.543071 167.283858 
L 1167.925565 165.5712 
L 1170.308059 166.236928 
L 1172.690553 166.038414 
L 1175.073048 165.08644 
L 1177.455542 166.388652 
L 1179.838036 166.323971 
L 1182.22053 166.079011 
L 1184.603024 165.301812 
L 1186.985519 165.082999 
L 1189.368013 167.069862 
L 1191.750507 162.035445 
L 1194.133001 164.580349 
L 1198.89799 166.341518 
L 1201.280484 166.627075 
L 1203.662978 167.332712 
L 1206.045472 166.845544 
L 1208.427967 163.093041 
L 1210.810461 166.915385 
L 1213.192955 163.937328 
L 1215.575449 165.255022 
L 1217.957943 165.376126 
L 1220.340438 162.906224 
L 1222.722932 166.49565 
L 1225.105426 163.715075 
L 1227.48792 164.678058 
L 1229.870415 164.051551 
L 1234.635403 163.78354 
L 1239.400391 164.627139 
L 1241.782886 162.687755 
L 1246.547874 164.474039 
L 1248.930368 163.605324 
L 1251.312862 164.413831 
L 1253.695357 163.066549 
L 1256.077851 162.353343 
L 1258.460345 164.356376 
L 1260.842839 163.211736 
L 1263.225334 163.641449 
L 1265.607828 164.441355 
L 1267.990322 162.816084 
L 1270.372816 165.90458 
L 1272.75531 162.705302 
L 1275.137805 163.616678 
L 1277.520299 162.216757 
L 1279.902793 164.43757 
L 1282.285287 164.999052 
L 1284.667782 164.264171 
L 1287.050276 161.456761 
L 1289.43277 164.271396 
L 1291.815264 161.48222 
L 1294.197758 164.745491 
L 1296.580253 160.202027 
L 1298.962747 162.39222 
L 1301.345241 163.127789 
L 1303.727735 163.129165 
L 1306.110229 161.636008 
L 1308.492724 159.882065 
L 1313.257712 163.941113 
L 1315.640206 163.976205 
L 1318.022701 160.065097 
L 1320.405195 162.419056 
L 1322.787689 161.549653 
L 1325.170183 162.936156 
L 1327.552677 161.208016 
L 1332.317666 162.246689 
L 1334.70016 162.111135 
L 1337.082654 160.791721 
L 1339.465149 163.355203 
L 1341.847643 159.972205 
L 1344.230137 162.415615 
L 1346.612631 161.983838 
L 1348.995125 159.779883 
L 1351.37762 162.947165 
L 1353.760114 159.099361 
L 1358.525102 163.283986 
L 1360.907597 160.714999 
L 1363.290091 162.678466 
L 1365.672585 161.322239 
L 1368.055079 160.671305 
L 1370.437573 162.211596 
L 1372.820068 160.956519 
L 1375.202562 161.530042 
L 1377.585056 161.948402 
L 1379.96755 162.095997 
L 1382.350044 159.350171 
L 1384.732539 163.603948 
L 1387.115033 160.63346 
L 1389.497527 161.524194 
L 1391.880021 160.51442 
L 1394.262516 161.918126 
L 1396.64501 160.96512 
L 1399.027504 161.106178 
L 1401.409998 160.154549 
L 1403.792492 160.418432 
L 1406.174987 157.999104 
L 1408.557481 159.15028 
L 1410.939975 159.188813 
L 1413.322469 161.808719 
L 1415.704964 161.789109 
L 1418.087458 159.614053 
L 1420.469952 161.076591 
L 1422.852446 161.717203 
L 1425.23494 159.560726 
L 1427.617435 159.399713 
L 1429.999929 159.680798 
L 1432.382423 157.799558 
L 1434.764917 160.823373 
L 1437.147411 160.964776 
L 1439.529906 160.021403 
L 1441.9124 161.586122 
L 1444.294894 157.683959 
L 1446.677388 160.581509 
L 1449.059883 158.7216 
L 1451.442377 158.902568 
L 1453.824871 161.032897 
L 1456.207365 160.250537 
L 1458.589859 157.66538 
L 1460.972354 159.488133 
L 1463.354848 159.294435 
L 1465.737342 159.694216 
L 1468.119836 157.981902 
L 1470.502331 158.888118 
L 1472.884825 158.942133 
L 1477.649813 160.999524 
L 1480.032307 157.864238 
L 1482.414802 158.280877 
L 1484.797296 159.260031 
L 1487.17979 159.389736 
L 1489.562284 159.209112 
L 1491.944779 156.58783 
L 1494.327273 159.245581 
L 1494.327273 159.245581 
" clip-path="url(#p3032a25fb5)" style="fill: none; stroke: #00c9a7; stroke-width: 2.25; stroke-linecap: round"/>
   </g>
   <g id="line2d_14">
    <path d="M 276.872727 433.96 
L 279.255221 439.816685 
L 281.637716 446.456074 
L 284.02021 452.443152 
L 286.402704 464.876266 
L 288.785198 482.717429 
L 291.167693 505.8882 
L 293.550187 540.204322 
L 295.932681 616.484353 
L 298.315175 710.807157 
L 300.697669 817.211804 
L 303.080164 861.84 
L 305.462658 769.35543 
L 307.845152 776.47373 
L 310.227646 769.241551 
L 312.610141 767.615249 
L 314.992635 770.978293 
L 317.375129 764.620677 
L 319.757623 761.494337 
L 322.140117 767.075785 
L 324.522612 762.928318 
L 326.905106 764.319982 
L 329.2876 740.062715 
L 331.670094 741.170541 
L 334.052589 756.644672 
L 336.435083 770.07827 
L 338.817577 764.418379 
L 341.200071 759.483735 
L 345.96506 752.164169 
L 348.347554 753.757443 
L 350.730048 757.395723 
L 353.112542 767.775574 
L 357.877531 749.459284 
L 360.260025 734.634367 
L 362.642519 729.390082 
L 365.025013 723.421238 
L 367.407508 714.986965 
L 369.790002 711.786654 
L 372.172496 700.323061 
L 374.55499 698.472096 
L 376.937484 687.170204 
L 379.319979 680.359825 
L 381.702473 669.728478 
L 384.084967 664.010443 
L 386.467461 652.439507 
L 388.849956 642.48937 
L 391.23245 626.182993 
L 393.614944 619.153113 
L 395.997438 603.070022 
L 398.379932 591.88889 
L 403.144921 567.065324 
L 405.527415 550.56697 
L 410.292403 520.684561 
L 412.674898 501.508502 
L 415.057392 483.976979 
L 417.439886 452.521939 
L 419.82238 423.291152 
L 422.204875 388.191294 
L 424.587369 367.98069 
L 426.969863 344.937904 
L 429.352357 331.924041 
L 431.734851 316.47193 
L 436.49984 296.409953 
L 438.882334 287.500897 
L 441.264828 281.847542 
L 443.647323 272.320925 
L 446.029817 269.146074 
L 448.412311 263.3754 
L 450.794805 260.337135 
L 453.177299 256.972371 
L 455.559794 250.452366 
L 457.942288 250.448925 
L 460.324782 245.965669 
L 462.707276 243.961261 
L 465.089771 242.595056 
L 467.472265 239.529612 
L 469.854759 237.388273 
L 472.237253 233.954012 
L 474.619747 236.388821 
L 477.002242 231.520578 
L 479.384736 231.585259 
L 481.76723 227.831035 
L 484.149724 227.873353 
L 486.532218 228.702502 
L 488.914713 225.823186 
L 491.297207 223.375991 
L 493.679701 223.265553 
L 496.062195 224.997133 
L 498.44469 220.941526 
L 500.827184 219.773148 
L 503.209678 220.144028 
L 505.592172 220.914346 
L 507.974666 219.152146 
L 510.357161 215.797703 
L 515.122149 219.542293 
L 519.887138 215.613638 
L 522.269632 219.011775 
L 524.652126 216.140716 
L 527.03462 218.556947 
L 529.417114 216.804724 
L 531.799609 217.302557 
L 534.182103 215.688296 
L 536.564597 215.983143 
L 538.947091 213.875865 
L 541.329585 215.263056 
L 543.71208 215.526595 
L 546.094574 214.20374 
L 548.477068 211.640258 
L 550.859562 214.086421 
L 553.242057 214.375075 
L 555.624551 212.199332 
L 558.007045 214.203396 
L 560.389539 211.921687 
L 562.772033 211.259744 
L 565.154528 213.469891 
L 567.537022 209.962348 
L 569.919516 213.090753 
L 572.30201 210.117169 
L 574.684505 212.111944 
L 577.066999 210.469815 
L 579.449493 211.685672 
L 581.831987 207.50896 
L 584.214481 209.622431 
L 586.596976 206.258011 
L 588.97947 207.741191 
L 591.361964 207.512057 
L 593.744458 208.250034 
L 596.126952 203.895107 
L 598.509447 206.511573 
L 600.891941 206.074291 
L 603.274435 206.766854 
L 605.656929 205.720612 
L 608.039424 203.787077 
L 610.421918 203.736846 
L 612.804412 203.421701 
L 615.186906 203.397274 
L 617.5694 203.511153 
L 622.334389 202.134971 
L 624.716883 202.685788 
L 627.099377 202.346559 
L 629.481872 199.798214 
L 631.864366 201.137239 
L 634.24686 199.034434 
L 636.629354 201.359149 
L 639.011848 200.85237 
L 641.394343 200.116801 
L 643.776837 197.568456 
L 646.159331 200.239625 
L 648.541825 199.066774 
L 650.92432 196.897912 
L 653.306814 198.922275 
L 655.689308 198.245193 
L 658.071802 196.316819 
L 660.454296 198.832135 
L 662.836791 198.065258 
L 665.219285 197.105027 
L 667.601779 195.502807 
L 669.984273 194.453469 
L 672.366767 198.860003 
L 674.749262 195.380327 
L 677.131756 194.850153 
L 679.51425 196.93266 
L 681.896744 192.647919 
L 684.279239 198.535568 
L 686.661733 192.212013 
L 689.044227 193.336009 
L 691.426721 194.265276 
L 693.809215 193.052172 
L 696.19171 195.279866 
L 698.574204 194.046463 
L 700.956698 191.458898 
L 703.339192 195.97759 
L 705.721687 192.14114 
L 708.104181 193.283714 
L 710.486675 192.227151 
L 712.869169 192.639661 
L 715.251663 191.694225 
L 717.634158 192.247106 
L 720.016652 189.109755 
L 722.399146 191.208777 
L 724.78164 190.127786 
L 727.164134 190.326988 
L 729.546629 188.71892 
L 731.929123 191.161986 
L 734.311617 186.318859 
L 736.694111 190.993404 
L 739.076606 191.481949 
L 741.4591 190.534792 
L 743.841594 187.126334 
L 746.224088 190.382723 
L 748.606582 190.89019 
L 753.371571 187.301797 
L 755.754065 189.667797 
L 758.136559 186.910617 
L 760.519054 186.958095 
L 762.901548 190.241321 
L 765.284042 187.724629 
L 767.666536 186.417256 
L 770.04903 184.619275 
L 772.431525 187.850893 
L 774.814019 185.744303 
L 777.196513 187.328288 
L 779.579007 186.988027 
L 784.343996 184.395645 
L 789.108984 184.721112 
L 791.491478 184.34163 
L 793.873973 182.293872 
L 796.256467 188.295056 
L 798.638961 182.319675 
L 801.021455 184.499547 
L 803.403949 185.227891 
L 805.786444 182.905928 
L 808.168938 186.019195 
L 810.551432 181.699705 
L 812.933926 185.158394 
L 815.316421 183.072446 
L 817.698915 184.993596 
L 820.081409 183.814208 
L 822.463903 180.953471 
L 824.846397 184.567324 
L 827.228892 182.870148 
L 829.611386 183.744367 
L 831.99388 180.885006 
L 834.376374 180.4491 
L 836.758869 181.03673 
L 839.141363 182.81166 
L 841.523857 182.257747 
L 846.288845 180.636261 
L 848.67134 178.659376 
L 851.053834 181.156113 
L 853.436328 179.26524 
L 855.818822 181.685943 
L 858.201316 180.481096 
L 860.583811 181.216665 
L 862.966305 182.671978 
L 865.348799 179.619607 
L 867.731293 180.03831 
L 870.113788 182.716703 
L 872.496282 179.58417 
L 874.878776 177.569096 
L 877.26127 180.338317 
L 879.643764 177.714283 
L 882.026259 179.458937 
L 884.408753 178.877157 
L 886.791247 180.187281 
L 889.173741 178.516253 
L 891.556236 179.113172 
L 893.93873 178.373474 
L 896.321224 180.014571 
L 898.703718 177.774147 
L 901.086212 179.097002 
L 903.468707 176.05908 
L 905.851201 176.974929 
L 908.233695 178.921882 
L 910.616189 175.823409 
L 912.998684 177.757633 
L 915.381178 176.289591 
L 917.763672 177.054404 
L 920.146166 177.2973 
L 922.52866 177.765546 
L 924.911155 177.970941 
L 927.293649 175.454249 
L 929.676143 175.106419 
L 932.058637 179.791973 
L 934.441131 175.331768 
L 936.823626 175.138759 
L 939.20612 173.452936 
L 941.588614 175.258831 
L 943.971108 178.015323 
L 946.353603 175.589458 
L 948.736097 174.78164 
L 951.118591 174.457549 
L 953.501085 173.679662 
L 955.883579 174.429681 
L 958.266074 174.788521 
L 960.648568 175.400578 
L 963.031062 172.023772 
L 965.413556 174.134146 
L 967.796051 173.436078 
L 970.178545 173.24995 
L 972.561039 172.933772 
L 974.943533 176.129266 
L 977.326027 175.571224 
L 979.708522 171.955995 
L 982.091016 171.597499 
L 984.47351 173.741246 
L 986.856004 175.195182 
L 989.238498 173.774963 
L 991.620993 171.109987 
L 994.003487 173.859942 
L 996.385981 173.30018 
L 998.768475 172.895239 
L 1001.15097 173.788037 
L 1003.533464 169.854565 
L 1005.915958 174.899647 
L 1008.298452 170.080259 
L 1010.680946 173.788725 
L 1013.063441 169.935416 
L 1015.445935 170.990603 
L 1017.828429 173.509704 
L 1020.210923 174.117976 
L 1022.593418 170.899775 
L 1024.975912 172.22607 
L 1027.358406 168.895367 
L 1029.7409 170.284966 
L 1032.123394 171.125813 
L 1034.505889 171.624335 
L 1036.888383 168.925299 
L 1039.270877 173.996528 
L 1041.653371 167.804399 
L 1044.035866 171.425133 
L 1046.41836 169.088032 
L 1048.800854 170.529582 
L 1053.565842 174.212933 
L 1058.330831 168.150164 
L 1060.713325 170.673049 
L 1063.095819 168.763597 
L 1065.478313 169.936448 
L 1067.860808 168.823117 
L 1070.243302 169.904108 
L 1075.00829 172.667481 
L 1077.390785 167.686391 
L 1079.773279 171.553462 
L 1082.155773 170.99714 
L 1084.538267 170.864339 
L 1086.920761 168.651439 
L 1089.303256 169.368773 
L 1094.068244 168.594671 
L 1096.450738 170.558482 
L 1098.833233 167.986743 
L 1101.215727 169.409027 
L 1103.598221 169.848373 
L 1105.980715 168.44742 
L 1108.363209 168.944909 
L 1110.745704 167.140735 
L 1113.128198 167.995 
L 1115.510692 167.748319 
L 1117.893186 169.941265 
L 1120.27568 167.956467 
L 1122.658175 168.230671 
L 1125.040669 168.678962 
L 1127.423163 166.668705 
L 1129.805657 166.675586 
L 1132.188152 170.172807 
L 1134.570646 167.876992 
L 1136.95314 166.077291 
L 1139.335634 168.927363 
L 1141.718128 171.501511 
L 1144.100623 166.483952 
L 1146.483117 165.600444 
L 1148.865611 169.762361 
L 1151.248105 165.52957 
L 1153.6306 166.154357 
L 1156.013094 164.486425 
L 1158.395588 167.6599 
L 1160.778082 165.035521 
L 1163.160576 169.079431 
L 1165.543071 166.535903 
L 1167.925565 162.478576 
L 1170.308059 166.926739 
L 1172.690553 166.109287 
L 1175.073048 164.87554 
L 1177.455542 166.689692 
L 1179.838036 167.314134 
L 1182.22053 165.990935 
L 1184.603024 164.94779 
L 1186.985519 167.384663 
L 1189.368013 164.067033 
L 1191.750507 167.974701 
L 1194.133001 164.318531 
L 1196.515495 164.867283 
L 1198.89799 168.45258 
L 1201.280484 165.321767 
L 1203.662978 163.101986 
L 1206.045472 165.110179 
L 1208.427967 164.479544 
L 1210.810461 164.699733 
L 1213.192955 165.80171 
L 1215.575449 162.003105 
L 1217.957943 168.443979 
L 1220.340438 164.320595 
L 1222.722932 164.524958 
L 1225.105426 164.267956 
L 1227.48792 162.937188 
L 1229.870415 167.315166 
L 1232.252909 163.970357 
L 1234.635403 162.168591 
L 1237.017897 166.40207 
L 1239.400391 165.339313 
L 1241.782886 161.108243 
L 1244.16538 162.118704 
L 1246.547874 166.610561 
L 1248.930368 163.26816 
L 1251.312862 162.898311 
L 1253.695357 161.444719 
L 1256.077851 163.661404 
L 1260.842839 166.393124 
L 1263.225334 162.679842 
L 1265.607828 163.161506 
L 1267.990322 163.878152 
L 1272.75531 164.514292 
L 1275.137805 160.49997 
L 1277.520299 160.715687 
L 1279.902793 163.649706 
L 1282.285287 162.503691 
L 1284.667782 162.497154 
L 1287.050276 166.388308 
L 1289.43277 163.279513 
L 1291.815264 164.108319 
L 1294.197758 163.353139 
L 1296.580253 162.973657 
L 1298.962747 164.159926 
L 1301.345241 162.35988 
L 1303.727735 164.983914 
L 1306.110229 161.003309 
L 1308.492724 165.178988 
L 1310.875218 159.362556 
L 1313.257712 165.399177 
L 1315.640206 161.883377 
L 1318.022701 162.695668 
L 1320.405195 161.643577 
L 1322.787689 163.341442 
L 1327.552677 163.079279 
L 1329.935172 160.607657 
L 1332.317666 162.87698 
L 1334.70016 162.645094 
L 1337.082654 162.679842 
L 1339.465149 162.306897 
L 1341.847643 160.139067 
L 1344.230137 159.973237 
L 1346.612631 162.377426 
L 1348.995125 160.934844 
L 1351.37762 160.133218 
L 1353.760114 161.681078 
L 1356.142608 160.363728 
L 1358.525102 161.452976 
L 1360.907597 159.725524 
L 1363.290091 160.688507 
L 1365.672585 162.067785 
L 1368.055079 162.805075 
L 1370.437573 160.648942 
L 1372.820068 162.207468 
L 1375.202562 159.82977 
L 1377.585056 160.81546 
L 1379.96755 159.528042 
L 1382.350044 162.533279 
L 1384.732539 162.747619 
L 1387.115033 161.013286 
L 1389.497527 162.549793 
L 1391.880021 160.428753 
L 1394.262516 161.886817 
L 1396.64501 162.168935 
L 1399.027504 160.775207 
L 1401.409998 161.700345 
L 1403.792492 161.280953 
L 1406.174987 159.443063 
L 1408.557481 159.269664 
L 1410.939975 162.191642 
L 1413.322469 158.080987 
L 1415.704964 159.41898 
L 1418.087458 161.810439 
L 1420.469952 157.212616 
L 1422.852446 162.715623 
L 1425.23494 159.392488 
L 1427.617435 160.646534 
L 1429.999929 159.416571 
L 1432.382423 159.870367 
L 1434.764917 160.941725 
L 1437.147411 157.809879 
L 1439.529906 160.595271 
L 1441.9124 159.880345 
L 1444.294894 161.672477 
L 1446.677388 157.819168 
L 1449.059883 159.681142 
L 1451.442377 161.209048 
L 1453.824871 158.167686 
L 1456.207365 159.127229 
L 1458.589859 157.779603 
L 1460.972354 159.290651 
L 1463.354848 160.011082 
L 1465.737342 160.26946 
L 1468.119836 156.551017 
L 1470.502331 156.24 
L 1472.884825 160.760757 
L 1475.267319 158.307369 
L 1477.649813 161.305037 
L 1480.032307 156.372802 
L 1482.414802 160.503411 
L 1484.797296 160.374394 
L 1487.17979 157.250117 
L 1489.562284 158.417808 
L 1491.944779 159.380791 
L 1494.327273 159.092137 
L 1494.327273 159.092137 
" clip-path="url(#p3032a25fb5)" style="fill: none; stroke: #ffc75f; stroke-width: 2.25; stroke-linecap: round"/>
   </g>
   <g id="patch_3">
    <path d="M 216 897.12 
L 216 120.96 
" style="fill: none; stroke: #262626; stroke-width: 1.875; stroke-linejoin: miter; stroke-linecap: square"/>
   </g>
   <g id="patch_4">
    <path d="M 1555.2 897.12 
L 1555.2 120.96 
" style="fill: none; stroke: #262626; stroke-width: 1.875; stroke-linejoin: miter; stroke-linecap: square"/>
   </g>
   <g id="patch_5">
    <path d="M 216 897.12 
L 1555.2 897.12 
" style="fill: none; stroke: #262626; stroke-width: 1.875; stroke-linejoin: miter; stroke-linecap: square"/>
   </g>
   <g id="patch_6">
    <path d="M 216 120.96 
L 1555.2 120.96 
" style="fill: none; stroke: #262626; stroke-width: 1.875; stroke-linejoin: miter; stroke-linecap: square"/>
   </g>
   <g id="text_15">
    <!-- Df(Z) -->
    <g style="fill: #262626" transform="translate(820.916406 110.561563)scale(0.5 -0.5)">
     <use xlink:href="#DejaVuSans-44"/>
     <use xlink:href="#DejaVuSans-66" x="77.001953"/>
     <use xlink:href="#DejaVuSans-28" x="112.207031"/>
     <use xlink:href="#DejaVuSans-5a" x="151.220703"/>
     <use xlink:href="#DejaVuSans-29" x="219.726562"/>
    </g>
   </g>
   <g id="legend_1">
    <g id="patch_7">
     <path d="M 227.55 182.597813 
L 361.029844 182.597813 
Q 364.329844 182.597813 364.329844 179.297813 
L 364.329844 132.51 
Q 364.329844 129.21 361.029844 129.21 
L 227.55 129.21 
Q 224.25 129.21 224.25 132.51 
L 224.25 179.297813 
Q 224.25 182.597813 227.55 182.597813 
z
" style="fill: #ffffff; opacity: 0.8; stroke: #cccccc; stroke-width: 1.5; stroke-linejoin: miter"/>
    </g>
    <g id="line2d_15">
     <path d="M 230.85 142.572422 
L 247.35 142.572422 
L 263.85 142.572422 
" style="fill: none; stroke: #00c9a7; stroke-width: 2.25; stroke-linecap: round"/>
    </g>
    <g id="text_16">
     <!-- df trace -->
     <g style="fill: #262626" transform="translate(277.05 148.347422)scale(0.165 -0.165)">
      <defs>
       <path id="DejaVuSans-64" d="M 2906 2969 
L 2906 4863 
L 3481 4863 
L 3481 0 
L 2906 0 
L 2906 525 
Q 2725 213 2448 61 
Q 2172 -91 1784 -91 
Q 1150 -91 751 415 
Q 353 922 353 1747 
Q 353 2572 751 3078 
Q 1150 3584 1784 3584 
Q 2172 3584 2448 3432 
Q 2725 3281 2906 2969 
z
M 947 1747 
Q 947 1113 1208 752 
Q 1469 391 1925 391 
Q 2381 391 2643 752 
Q 2906 1113 2906 1747 
Q 2906 2381 2643 2742 
Q 2381 3103 1925 3103 
Q 1469 3103 1208 2742 
Q 947 2381 947 1747 
z
" transform="scale(0.015625)"/>
       <path id="DejaVuSans-74" d="M 1172 4494 
L 1172 3500 
L 2356 3500 
L 2356 3053 
L 1172 3053 
L 1172 1153 
Q 1172 725 1289 603 
Q 1406 481 1766 481 
L 2356 481 
L 2356 0 
L 1766 0 
Q 1100 0 847 248 
Q 594 497 594 1153 
L 594 3053 
L 172 3053 
L 172 3500 
L 594 3500 
L 594 4494 
L 1172 4494 
z
" transform="scale(0.015625)"/>
       <path id="DejaVuSans-72" d="M 2631 2963 
Q 2534 3019 2420 3045 
Q 2306 3072 2169 3072 
Q 1681 3072 1420 2755 
Q 1159 2438 1159 1844 
L 1159 0 
L 581 0 
L 581 3500 
L 1159 3500 
L 1159 2956 
Q 1341 3275 1631 3429 
Q 1922 3584 2338 3584 
Q 2397 3584 2469 3576 
Q 2541 3569 2628 3553 
L 2631 2963 
z
" transform="scale(0.015625)"/>
       <path id="DejaVuSans-61" d="M 2194 1759 
Q 1497 1759 1228 1600 
Q 959 1441 959 1056 
Q 959 750 1161 570 
Q 1363 391 1709 391 
Q 2188 391 2477 730 
Q 2766 1069 2766 1631 
L 2766 1759 
L 2194 1759 
z
M 3341 1997 
L 3341 0 
L 2766 0 
L 2766 531 
Q 2569 213 2275 61 
Q 1981 -91 1556 -91 
Q 1019 -91 701 211 
Q 384 513 384 1019 
Q 384 1609 779 1909 
Q 1175 2209 1959 2209 
L 2766 2209 
L 2766 2266 
Q 2766 2663 2505 2880 
Q 2244 3097 1772 3097 
Q 1472 3097 1187 3025 
Q 903 2953 641 2809 
L 641 3341 
Q 956 3463 1253 3523 
Q 1550 3584 1831 3584 
Q 2591 3584 2966 3190 
Q 3341 2797 3341 1997 
z
" transform="scale(0.015625)"/>
       <path id="DejaVuSans-63" d="M 3122 3366 
L 3122 2828 
Q 2878 2963 2633 3030 
Q 2388 3097 2138 3097 
Q 1578 3097 1268 2742 
Q 959 2388 959 1747 
Q 959 1106 1268 751 
Q 1578 397 2138 397 
Q 2388 397 2633 464 
Q 2878 531 3122 666 
L 3122 134 
Q 2881 22 2623 -34 
Q 2366 -91 2075 -91 
Q 1284 -91 818 406 
Q 353 903 353 1747 
Q 353 2603 823 3093 
Q 1294 3584 2113 3584 
Q 2378 3584 2631 3529 
Q 2884 3475 3122 3366 
z
" transform="scale(0.015625)"/>
       <path id="DejaVuSans-65" d="M 3597 1894 
L 3597 1613 
L 953 1613 
Q 991 1019 1311 708 
Q 1631 397 2203 397 
Q 2534 397 2845 478 
Q 3156 559 3463 722 
L 3463 178 
Q 3153 47 2828 -22 
Q 2503 -91 2169 -91 
Q 1331 -91 842 396 
Q 353 884 353 1716 
Q 353 2575 817 3079 
Q 1281 3584 2069 3584 
Q 2775 3584 3186 3129 
Q 3597 2675 3597 1894 
z
M 3022 2063 
Q 3016 2534 2758 2815 
Q 2500 3097 2075 3097 
Q 1594 3097 1305 2825 
Q 1016 2553 972 2059 
L 3022 2063 
z
" transform="scale(0.015625)"/>
      </defs>
      <use xlink:href="#DejaVuSans-64"/>
      <use xlink:href="#DejaVuSans-66" x="63.476562"/>
      <use xlink:href="#DejaVuSans-20" x="98.681641"/>
      <use xlink:href="#DejaVuSans-74" x="130.46875"/>
      <use xlink:href="#DejaVuSans-72" x="169.677734"/>
      <use xlink:href="#DejaVuSans-61" x="210.791016"/>
      <use xlink:href="#DejaVuSans-63" x="272.070312"/>
      <use xlink:href="#DejaVuSans-65" x="327.050781"/>
     </g>
    </g>
    <g id="line2d_16">
     <path d="M 230.85 166.791328 
L 247.35 166.791328 
L 263.85 166.791328 
" style="fill: none; stroke: #ffc75f; stroke-width: 2.25; stroke-linecap: round"/>
    </g>
    <g id="text_17">
     <!-- df retrace -->
     <g style="fill: #262626" transform="translate(277.05 172.566328)scale(0.165 -0.165)">
      <use xlink:href="#DejaVuSans-64"/>
      <use xlink:href="#DejaVuSans-66" x="63.476562"/>
      <use xlink:href="#DejaVuSans-20" x="98.681641"/>
      <use xlink:href="#DejaVuSans-72" x="130.46875"/>
      <use xlink:href="#DejaVuSans-65" x="169.332031"/>
      <use xlink:href="#DejaVuSans-74" x="230.855469"/>
      <use xlink:href="#DejaVuSans-72" x="270.064453"/>
      <use xlink:href="#DejaVuSans-61" x="311.177734"/>
      <use xlink:href="#DejaVuSans-63" x="372.457031"/>
      <use xlink:href="#DejaVuSans-65" x="427.4375"/>
     </g>
    </g>
   </g>
  </g>
 </g>
 <defs>
  <clipPath id="p3032a25fb5">
   <rect x="216" y="120.96" width="1339.2" height="776.16"/>
  </clipPath>
 </defs>
</svg>
