<?xml version="1.0" encoding="utf-8" standalone="no"?>
<!DOCTYPE svg PUBLIC "-//W3C//DTD SVG 1.1//EN"
  "http://www.w3.org/Graphics/SVG/1.1/DTD/svg11.dtd">
<svg xmlns:xlink="http://www.w3.org/1999/xlink" width="1728pt" height="1008pt" viewBox="0 0 1728 1008" xmlns="http://www.w3.org/2000/svg" version="1.1">
 <metadata>
  <rdf:RDF xmlns:dc="http://purl.org/dc/elements/1.1/" xmlns:cc="http://creativecommons.org/ns#" xmlns:rdf="http://www.w3.org/1999/02/22-rdf-syntax-ns#">
   <cc:Work>
    <dc:type rdf:resource="http://purl.org/dc/dcmitype/StillImage"/>
    <dc:date>2022-11-02T11:17:25.664257</dc:date>
    <dc:format>image/svg+xml</dc:format>
    <dc:creator>
     <cc:Agent>
      <dc:title>Matplotlib v3.6.0, https://matplotlib.org/</dc:title>
     </cc:Agent>
    </dc:creator>
   </cc:Work>
  </rdf:RDF>
 </metadata>
 <defs>
  <style type="text/css">*{stroke-linejoin: round; stroke-linecap: butt}</style>
 </defs>
 <g id="figure_1">
  <g id="patch_1">
   <path d="M 0 1008 
L 1728 1008 
L 1728 0 
L 0 0 
z
" style="fill: #ffffff"/>
  </g>
  <g id="axes_1">
   <g id="patch_2">
    <path d="M 216 897.12 
L 1555.2 897.12 
L 1555.2 120.96 
L 216 120.96 
L 216 897.12 
z
" style="fill: none"/>
   </g>
   <g id="matplotlib.axis_1">
    <g id="xtick_1">
     <g id="line2d_1">
      <defs>
       <path id="m671f54a2b0" d="M 0 0 
L 0 9 
" style="stroke: #262626; stroke-width: 1.875"/>
      </defs>
      <g>
       <use xlink:href="#m671f54a2b0" x="467.151986" y="897.12" style="fill: #262626; stroke: #262626; stroke-width: 1.875"/>
      </g>
     </g>
     <g id="text_1">
      <!-- 0.0 -->
      <g style="fill: #262626" transform="translate(428.984486 946.0925) scale(0.48 -0.48)">
       <defs>
        <path id="DejaVuSans-30" d="M 2034 4250 
Q 1547 4250 1301 3770 
Q 1056 3291 1056 2328 
Q 1056 1369 1301 889 
Q 1547 409 2034 409 
Q 2525 409 2770 889 
Q 3016 1369 3016 2328 
Q 3016 3291 2770 3770 
Q 2525 4250 2034 4250 
z
M 2034 4750 
Q 2819 4750 3233 4129 
Q 3647 3509 3647 2328 
Q 3647 1150 3233 529 
Q 2819 -91 2034 -91 
Q 1250 -91 836 529 
Q 422 1150 422 2328 
Q 422 3509 836 4129 
Q 1250 4750 2034 4750 
z
" transform="scale(0.015625)"/>
        <path id="DejaVuSans-2e" d="M 684 794 
L 1344 794 
L 1344 0 
L 684 0 
L 684 794 
z
" transform="scale(0.015625)"/>
       </defs>
       <use xlink:href="#DejaVuSans-30"/>
       <use xlink:href="#DejaVuSans-2e" x="63.623047"/>
       <use xlink:href="#DejaVuSans-30" x="95.410156"/>
      </g>
     </g>
    </g>
    <g id="xtick_2">
     <g id="line2d_2">
      <g>
       <use xlink:href="#m671f54a2b0" x="724.28612" y="897.12" style="fill: #262626; stroke: #262626; stroke-width: 1.875"/>
      </g>
     </g>
     <g id="text_2">
      <!-- 0.5 -->
      <g style="fill: #262626" transform="translate(686.11862 946.0925) scale(0.48 -0.48)">
       <defs>
        <path id="DejaVuSans-35" d="M 691 4666 
L 3169 4666 
L 3169 4134 
L 1269 4134 
L 1269 2991 
Q 1406 3038 1543 3061 
Q 1681 3084 1819 3084 
Q 2600 3084 3056 2656 
Q 3513 2228 3513 1497 
Q 3513 744 3044 326 
Q 2575 -91 1722 -91 
Q 1428 -91 1123 -41 
Q 819 9 494 109 
L 494 744 
Q 775 591 1075 516 
Q 1375 441 1709 441 
Q 2250 441 2565 725 
Q 2881 1009 2881 1497 
Q 2881 1984 2565 2268 
Q 2250 2553 1709 2553 
Q 1456 2553 1204 2497 
Q 953 2441 691 2322 
L 691 4666 
z
" transform="scale(0.015625)"/>
       </defs>
       <use xlink:href="#DejaVuSans-30"/>
       <use xlink:href="#DejaVuSans-2e" x="63.623047"/>
       <use xlink:href="#DejaVuSans-35" x="95.410156"/>
      </g>
     </g>
    </g>
    <g id="xtick_3">
     <g id="line2d_3">
      <g>
       <use xlink:href="#m671f54a2b0" x="981.420254" y="897.12" style="fill: #262626; stroke: #262626; stroke-width: 1.875"/>
      </g>
     </g>
     <g id="text_3">
      <!-- 1.0 -->
      <g style="fill: #262626" transform="translate(943.252754 946.0925) scale(0.48 -0.48)">
       <defs>
        <path id="DejaVuSans-31" d="M 794 531 
L 1825 531 
L 1825 4091 
L 703 3866 
L 703 4441 
L 1819 4666 
L 2450 4666 
L 2450 531 
L 3481 531 
L 3481 0 
L 794 0 
L 794 531 
z
" transform="scale(0.015625)"/>
       </defs>
       <use xlink:href="#DejaVuSans-31"/>
       <use xlink:href="#DejaVuSans-2e" x="63.623047"/>
       <use xlink:href="#DejaVuSans-30" x="95.410156"/>
      </g>
     </g>
    </g>
    <g id="xtick_4">
     <g id="line2d_4">
      <g>
       <use xlink:href="#m671f54a2b0" x="1238.554388" y="897.12" style="fill: #262626; stroke: #262626; stroke-width: 1.875"/>
      </g>
     </g>
     <g id="text_4">
      <!-- 1.5 -->
      <g style="fill: #262626" transform="translate(1200.386888 946.0925) scale(0.48 -0.48)">
       <use xlink:href="#DejaVuSans-31"/>
       <use xlink:href="#DejaVuSans-2e" x="63.623047"/>
       <use xlink:href="#DejaVuSans-35" x="95.410156"/>
      </g>
     </g>
    </g>
    <g id="xtick_5">
     <g id="line2d_5">
      <g>
       <use xlink:href="#m671f54a2b0" x="1495.688521" y="897.12" style="fill: #262626; stroke: #262626; stroke-width: 1.875"/>
      </g>
     </g>
     <g id="text_5">
      <!-- 2.0 -->
      <g style="fill: #262626" transform="translate(1457.521021 946.0925) scale(0.48 -0.48)">
       <defs>
        <path id="DejaVuSans-32" d="M 1228 531 
L 3431 531 
L 3431 0 
L 469 0 
L 469 531 
Q 828 903 1448 1529 
Q 2069 2156 2228 2338 
Q 2531 2678 2651 2914 
Q 2772 3150 2772 3378 
Q 2772 3750 2511 3984 
Q 2250 4219 1831 4219 
Q 1534 4219 1204 4116 
Q 875 4013 500 3803 
L 500 4441 
Q 881 4594 1212 4672 
Q 1544 4750 1819 4750 
Q 2544 4750 2975 4387 
Q 3406 4025 3406 3419 
Q 3406 3131 3298 2873 
Q 3191 2616 2906 2266 
Q 2828 2175 2409 1742 
Q 1991 1309 1228 531 
z
" transform="scale(0.015625)"/>
       </defs>
       <use xlink:href="#DejaVuSans-32"/>
       <use xlink:href="#DejaVuSans-2e" x="63.623047"/>
       <use xlink:href="#DejaVuSans-30" x="95.410156"/>
      </g>
     </g>
    </g>
    <g id="text_6">
     <!-- Z [nm] -->
     <g style="fill: #262626" transform="translate(804.2175 996.5475) scale(0.48 -0.48)">
      <defs>
       <path id="DejaVuSans-5a" d="M 359 4666 
L 4025 4666 
L 4025 4184 
L 1075 531 
L 4097 531 
L 4097 0 
L 288 0 
L 288 481 
L 3238 4134 
L 359 4134 
L 359 4666 
z
" transform="scale(0.015625)"/>
       <path id="DejaVuSans-20" transform="scale(0.015625)"/>
       <path id="DejaVuSans-5b" d="M 550 4863 
L 1875 4863 
L 1875 4416 
L 1125 4416 
L 1125 -397 
L 1875 -397 
L 1875 -844 
L 550 -844 
L 550 4863 
z
" transform="scale(0.015625)"/>
       <path id="DejaVuSans-6e" d="M 3513 2113 
L 3513 0 
L 2938 0 
L 2938 2094 
Q 2938 2591 2744 2837 
Q 2550 3084 2163 3084 
Q 1697 3084 1428 2787 
Q 1159 2491 1159 1978 
L 1159 0 
L 581 0 
L 581 3500 
L 1159 3500 
L 1159 2956 
Q 1366 3272 1645 3428 
Q 1925 3584 2291 3584 
Q 2894 3584 3203 3211 
Q 3513 2838 3513 2113 
z
" transform="scale(0.015625)"/>
       <path id="DejaVuSans-6d" d="M 3328 2828 
Q 3544 3216 3844 3400 
Q 4144 3584 4550 3584 
Q 5097 3584 5394 3201 
Q 5691 2819 5691 2113 
L 5691 0 
L 5113 0 
L 5113 2094 
Q 5113 2597 4934 2840 
Q 4756 3084 4391 3084 
Q 3944 3084 3684 2787 
Q 3425 2491 3425 1978 
L 3425 0 
L 2847 0 
L 2847 2094 
Q 2847 2600 2669 2842 
Q 2491 3084 2119 3084 
Q 1678 3084 1418 2786 
Q 1159 2488 1159 1978 
L 1159 0 
L 581 0 
L 581 3500 
L 1159 3500 
L 1159 2956 
Q 1356 3278 1631 3431 
Q 1906 3584 2284 3584 
Q 2666 3584 2933 3390 
Q 3200 3197 3328 2828 
z
" transform="scale(0.015625)"/>
       <path id="DejaVuSans-5d" d="M 1947 4863 
L 1947 -844 
L 622 -844 
L 622 -397 
L 1369 -397 
L 1369 4416 
L 622 4416 
L 622 4863 
L 1947 4863 
z
" transform="scale(0.015625)"/>
      </defs>
      <use xlink:href="#DejaVuSans-5a"/>
      <use xlink:href="#DejaVuSans-20" x="68.505859"/>
      <use xlink:href="#DejaVuSans-5b" x="100.292969"/>
      <use xlink:href="#DejaVuSans-6e" x="139.306641"/>
      <use xlink:href="#DejaVuSans-6d" x="202.685547"/>
      <use xlink:href="#DejaVuSans-5d" x="300.097656"/>
     </g>
    </g>
   </g>
   <g id="matplotlib.axis_2">
    <g id="ytick_1">
     <g id="line2d_6">
      <defs>
       <path id="mef869da2e2" d="M 0 0 
L -9 0 
" style="stroke: #262626; stroke-width: 1.875"/>
      </defs>
      <g>
       <use xlink:href="#mef869da2e2" x="216" y="884.148928" style="fill: #262626; stroke: #262626; stroke-width: 1.875"/>
      </g>
     </g>
     <g id="text_7">
      <!-- −16 -->
      <g style="fill: #262626" transform="translate(102.1975 902.385178) scale(0.48 -0.48)">
       <defs>
        <path id="DejaVuSans-2212" d="M 678 2272 
L 4684 2272 
L 4684 1741 
L 678 1741 
L 678 2272 
z
" transform="scale(0.015625)"/>
        <path id="DejaVuSans-36" d="M 2113 2584 
Q 1688 2584 1439 2293 
Q 1191 2003 1191 1497 
Q 1191 994 1439 701 
Q 1688 409 2113 409 
Q 2538 409 2786 701 
Q 3034 994 3034 1497 
Q 3034 2003 2786 2293 
Q 2538 2584 2113 2584 
z
M 3366 4563 
L 3366 3988 
Q 3128 4100 2886 4159 
Q 2644 4219 2406 4219 
Q 1781 4219 1451 3797 
Q 1122 3375 1075 2522 
Q 1259 2794 1537 2939 
Q 1816 3084 2150 3084 
Q 2853 3084 3261 2657 
Q 3669 2231 3669 1497 
Q 3669 778 3244 343 
Q 2819 -91 2113 -91 
Q 1303 -91 875 529 
Q 447 1150 447 2328 
Q 447 3434 972 4092 
Q 1497 4750 2381 4750 
Q 2619 4750 2861 4703 
Q 3103 4656 3366 4563 
z
" transform="scale(0.015625)"/>
       </defs>
       <use xlink:href="#DejaVuSans-2212"/>
       <use xlink:href="#DejaVuSans-31" x="83.789062"/>
       <use xlink:href="#DejaVuSans-36" x="147.412109"/>
      </g>
     </g>
    </g>
    <g id="ytick_2">
     <g id="line2d_7">
      <g>
       <use xlink:href="#mef869da2e2" x="216" y="793.109209" style="fill: #262626; stroke: #262626; stroke-width: 1.875"/>
      </g>
     </g>
     <g id="text_8">
      <!-- −14 -->
      <g style="fill: #262626" transform="translate(102.1975 811.345459) scale(0.48 -0.48)">
       <defs>
        <path id="DejaVuSans-34" d="M 2419 4116 
L 825 1625 
L 2419 1625 
L 2419 4116 
z
M 2253 4666 
L 3047 4666 
L 3047 1625 
L 3713 1625 
L 3713 1100 
L 3047 1100 
L 3047 0 
L 2419 0 
L 2419 1100 
L 313 1100 
L 313 1709 
L 2253 4666 
z
" transform="scale(0.015625)"/>
       </defs>
       <use xlink:href="#DejaVuSans-2212"/>
       <use xlink:href="#DejaVuSans-31" x="83.789062"/>
       <use xlink:href="#DejaVuSans-34" x="147.412109"/>
      </g>
     </g>
    </g>
    <g id="ytick_3">
     <g id="line2d_8">
      <g>
       <use xlink:href="#mef869da2e2" x="216" y="702.06949" style="fill: #262626; stroke: #262626; stroke-width: 1.875"/>
      </g>
     </g>
     <g id="text_9">
      <!-- −12 -->
      <g style="fill: #262626" transform="translate(102.1975 720.30574) scale(0.48 -0.48)">
       <use xlink:href="#DejaVuSans-2212"/>
       <use xlink:href="#DejaVuSans-31" x="83.789062"/>
       <use xlink:href="#DejaVuSans-32" x="147.412109"/>
      </g>
     </g>
    </g>
    <g id="ytick_4">
     <g id="line2d_9">
      <g>
       <use xlink:href="#mef869da2e2" x="216" y="611.029771" style="fill: #262626; stroke: #262626; stroke-width: 1.875"/>
      </g>
     </g>
     <g id="text_10">
      <!-- −10 -->
      <g style="fill: #262626" transform="translate(102.1975 629.266021) scale(0.48 -0.48)">
       <use xlink:href="#DejaVuSans-2212"/>
       <use xlink:href="#DejaVuSans-31" x="83.789062"/>
       <use xlink:href="#DejaVuSans-30" x="147.412109"/>
      </g>
     </g>
    </g>
    <g id="ytick_5">
     <g id="line2d_10">
      <g>
       <use xlink:href="#mef869da2e2" x="216" y="519.990051" style="fill: #262626; stroke: #262626; stroke-width: 1.875"/>
      </g>
     </g>
     <g id="text_11">
      <!-- −8 -->
      <g style="fill: #262626" transform="translate(132.7375 538.226301) scale(0.48 -0.48)">
       <defs>
        <path id="DejaVuSans-38" d="M 2034 2216 
Q 1584 2216 1326 1975 
Q 1069 1734 1069 1313 
Q 1069 891 1326 650 
Q 1584 409 2034 409 
Q 2484 409 2743 651 
Q 3003 894 3003 1313 
Q 3003 1734 2745 1975 
Q 2488 2216 2034 2216 
z
M 1403 2484 
Q 997 2584 770 2862 
Q 544 3141 544 3541 
Q 544 4100 942 4425 
Q 1341 4750 2034 4750 
Q 2731 4750 3128 4425 
Q 3525 4100 3525 3541 
Q 3525 3141 3298 2862 
Q 3072 2584 2669 2484 
Q 3125 2378 3379 2068 
Q 3634 1759 3634 1313 
Q 3634 634 3220 271 
Q 2806 -91 2034 -91 
Q 1263 -91 848 271 
Q 434 634 434 1313 
Q 434 1759 690 2068 
Q 947 2378 1403 2484 
z
M 1172 3481 
Q 1172 3119 1398 2916 
Q 1625 2713 2034 2713 
Q 2441 2713 2670 2916 
Q 2900 3119 2900 3481 
Q 2900 3844 2670 4047 
Q 2441 4250 2034 4250 
Q 1625 4250 1398 4047 
Q 1172 3844 1172 3481 
z
" transform="scale(0.015625)"/>
       </defs>
       <use xlink:href="#DejaVuSans-2212"/>
       <use xlink:href="#DejaVuSans-38" x="83.789062"/>
      </g>
     </g>
    </g>
    <g id="ytick_6">
     <g id="line2d_11">
      <g>
       <use xlink:href="#mef869da2e2" x="216" y="428.950332" style="fill: #262626; stroke: #262626; stroke-width: 1.875"/>
      </g>
     </g>
     <g id="text_12">
      <!-- −6 -->
      <g style="fill: #262626" transform="translate(132.7375 447.186582) scale(0.48 -0.48)">
       <use xlink:href="#DejaVuSans-2212"/>
       <use xlink:href="#DejaVuSans-36" x="83.789062"/>
      </g>
     </g>
    </g>
    <g id="ytick_7">
     <g id="line2d_12">
      <g>
       <use xlink:href="#mef869da2e2" x="216" y="337.910613" style="fill: #262626; stroke: #262626; stroke-width: 1.875"/>
      </g>
     </g>
     <g id="text_13">
      <!-- −4 -->
      <g style="fill: #262626" transform="translate(132.7375 356.146863) scale(0.48 -0.48)">
       <use xlink:href="#DejaVuSans-2212"/>
       <use xlink:href="#DejaVuSans-34" x="83.789062"/>
      </g>
     </g>
    </g>
    <g id="ytick_8">
     <g id="line2d_13">
      <g>
       <use xlink:href="#mef869da2e2" x="216" y="246.870894" style="fill: #262626; stroke: #262626; stroke-width: 1.875"/>
      </g>
     </g>
     <g id="text_14">
      <!-- −2 -->
      <g style="fill: #262626" transform="translate(132.7375 265.107144) scale(0.48 -0.48)">
       <use xlink:href="#DejaVuSans-2212"/>
       <use xlink:href="#DejaVuSans-32" x="83.789062"/>
      </g>
     </g>
    </g>
    <g id="ytick_9">
     <g id="line2d_14">
      <g>
       <use xlink:href="#mef869da2e2" x="216" y="155.831175" style="fill: #262626; stroke: #262626; stroke-width: 1.875"/>
      </g>
     </g>
     <g id="text_15">
      <!-- 0 -->
      <g style="fill: #262626" transform="translate(172.96 174.067425) scale(0.48 -0.48)">
       <use xlink:href="#DejaVuSans-30"/>
      </g>
     </g>
    </g>
    <g id="text_16">
     <!-- Df(Z) [Hz] -->
     <g style="fill: #262626" transform="translate(88.215 628.13625) rotate(-90) scale(0.48 -0.48)">
      <defs>
       <path id="DejaVuSans-44" d="M 1259 4147 
L 1259 519 
L 2022 519 
Q 2988 519 3436 956 
Q 3884 1394 3884 2338 
Q 3884 3275 3436 3711 
Q 2988 4147 2022 4147 
L 1259 4147 
z
M 628 4666 
L 1925 4666 
Q 3281 4666 3915 4102 
Q 4550 3538 4550 2338 
Q 4550 1131 3912 565 
Q 3275 0 1925 0 
L 628 0 
L 628 4666 
z
" transform="scale(0.015625)"/>
       <path id="DejaVuSans-66" d="M 2375 4863 
L 2375 4384 
L 1825 4384 
Q 1516 4384 1395 4259 
Q 1275 4134 1275 3809 
L 1275 3500 
L 2222 3500 
L 2222 3053 
L 1275 3053 
L 1275 0 
L 697 0 
L 697 3053 
L 147 3053 
L 147 3500 
L 697 3500 
L 697 3744 
Q 697 4328 969 4595 
Q 1241 4863 1831 4863 
L 2375 4863 
z
" transform="scale(0.015625)"/>
       <path id="DejaVuSans-28" d="M 1984 4856 
Q 1566 4138 1362 3434 
Q 1159 2731 1159 2009 
Q 1159 1288 1364 580 
Q 1569 -128 1984 -844 
L 1484 -844 
Q 1016 -109 783 600 
Q 550 1309 550 2009 
Q 550 2706 781 3412 
Q 1013 4119 1484 4856 
L 1984 4856 
z
" transform="scale(0.015625)"/>
       <path id="DejaVuSans-29" d="M 513 4856 
L 1013 4856 
Q 1481 4119 1714 3412 
Q 1947 2706 1947 2009 
Q 1947 1309 1714 600 
Q 1481 -109 1013 -844 
L 513 -844 
Q 928 -128 1133 580 
Q 1338 1288 1338 2009 
Q 1338 2731 1133 3434 
Q 928 4138 513 4856 
z
" transform="scale(0.015625)"/>
       <path id="DejaVuSans-48" d="M 628 4666 
L 1259 4666 
L 1259 2753 
L 3553 2753 
L 3553 4666 
L 4184 4666 
L 4184 0 
L 3553 0 
L 3553 2222 
L 1259 2222 
L 1259 0 
L 628 0 
L 628 4666 
z
" transform="scale(0.015625)"/>
       <path id="DejaVuSans-7a" d="M 353 3500 
L 3084 3500 
L 3084 2975 
L 922 459 
L 3084 459 
L 3084 0 
L 275 0 
L 275 525 
L 2438 3041 
L 353 3041 
L 353 3500 
z
" transform="scale(0.015625)"/>
      </defs>
      <use xlink:href="#DejaVuSans-44"/>
      <use xlink:href="#DejaVuSans-66" x="77.001953"/>
      <use xlink:href="#DejaVuSans-28" x="112.207031"/>
      <use xlink:href="#DejaVuSans-5a" x="151.220703"/>
      <use xlink:href="#DejaVuSans-29" x="219.726562"/>
      <use xlink:href="#DejaVuSans-20" x="258.740234"/>
      <use xlink:href="#DejaVuSans-5b" x="290.527344"/>
      <use xlink:href="#DejaVuSans-48" x="329.541016"/>
      <use xlink:href="#DejaVuSans-7a" x="404.736328"/>
      <use xlink:href="#DejaVuSans-5d" x="457.226562"/>
     </g>
    </g>
   </g>
   <g id="PolyCollection_1"/>
   <g id="PolyCollection_2"/>
   <g id="line2d_15">
    <path d="M 276.872727 861.84 
L 279.255221 700.570032 
L 281.637716 688.649926 
L 284.02021 658.54356 
L 288.785198 608.701795 
L 291.167693 587.231217 
L 293.550187 564.608166 
L 295.932681 546.207143 
L 298.315175 532.689513 
L 300.697669 517.733749 
L 303.080164 505.864358 
L 307.845152 477.728116 
L 310.227646 468.365497 
L 312.610141 457.888183 
L 314.992635 448.715487 
L 317.375129 440.53251 
L 319.757623 431.612872 
L 322.140117 425.031301 
L 324.522612 415.485228 
L 326.905106 410.530938 
L 331.670094 395.655645 
L 334.052589 392.457492 
L 338.817577 381.127595 
L 341.200071 377.846125 
L 343.582565 373.267281 
L 345.96506 368.338089 
L 348.347554 364.553866 
L 350.730048 359.892481 
L 353.112542 354.626396 
L 355.495036 351.744436 
L 357.877531 347.438314 
L 360.260025 343.640896 
L 362.642519 338.488661 
L 365.025013 335.481207 
L 367.407508 334.3854 
L 372.172496 327.602521 
L 374.55499 323.090693 
L 376.937484 322.847209 
L 379.319979 318.607845 
L 384.084967 310.80963 
L 386.467461 310.064171 
L 388.849956 306.140224 
L 391.23245 302.921888 
L 393.614944 300.394933 
L 395.997438 300.445648 
L 398.379932 296.049223 
L 400.762427 294.422719 
L 403.144921 293.303107 
L 405.527415 290.216475 
L 407.909909 286.561628 
L 410.292403 285.375776 
L 412.674898 283.704249 
L 415.057392 284.365097 
L 417.439886 279.019059 
L 419.82238 278.297922 
L 422.204875 276.68332 
L 424.587369 274.756925 
L 426.969863 272.097748 
L 429.352357 271.47209 
L 431.734851 267.500533 
L 434.117346 267.830698 
L 436.49984 266.442244 
L 438.882334 264.854812 
L 441.264828 260.834092 
L 443.647323 262.931521 
L 446.029817 259.012749 
L 448.412311 257.814218 
L 450.794805 257.476549 
L 453.177299 256.330026 
L 455.559794 252.639472 
L 457.942288 251.839416 
L 460.324782 250.395848 
L 462.707276 250.088453 
L 465.089771 248.194919 
L 467.472265 247.099888 
L 472.237253 246.959128 
L 474.619747 244.688853 
L 477.002242 243.247355 
L 479.384736 242.664391 
L 481.76723 239.302708 
L 484.149724 238.271588 
L 486.532218 239.032832 
L 488.914713 238.63358 
L 491.297207 236.548053 
L 493.679701 237.364928 
L 496.062195 235.72471 
L 498.44469 233.795468 
L 500.827184 234.798125 
L 503.209678 232.911318 
L 505.592172 231.595573 
L 507.974666 232.600818 
L 510.357161 228.862136 
L 512.739655 230.601973 
L 515.122149 230.488381 
L 517.504643 227.402526 
L 519.887138 226.985162 
L 522.269632 227.42245 
L 524.652126 226.294816 
L 527.03462 224.402834 
L 529.417114 224.11174 
L 531.799609 222.635053 
L 534.182103 222.81566 
L 536.564597 221.439627 
L 538.947091 222.488341 
L 541.329585 219.858404 
L 543.71208 221.119552 
L 546.094574 218.291671 
L 548.477068 219.063782 
L 550.859562 218.130211 
L 553.242057 217.580367 
L 555.624551 218.434243 
L 560.389539 213.805201 
L 562.772033 215.103609 
L 565.154528 215.188997 
L 567.537022 215.870804 
L 569.919516 214.218166 
L 572.30201 213.439069 
L 574.684505 212.342486 
L 577.066999 212.734233 
L 579.449493 212.072868 
L 581.831987 209.135018 
L 584.214481 211.793676 
L 586.596976 210.388404 
L 588.97947 208.511947 
L 591.361964 209.90273 
L 593.744458 208.680652 
L 596.126952 207.987978 
L 598.509447 207.563369 
L 600.891941 206.406755 
L 603.274435 207.567767 
L 605.656929 207.444085 
L 608.039424 205.562712 
L 610.421918 206.744165 
L 612.804412 203.910074 
L 615.186906 204.992426 
L 617.5694 203.178328 
L 619.951895 204.591622 
L 622.334389 202.973657 
L 624.716883 204.284486 
L 627.099377 202.957356 
L 629.481872 201.294885 
L 631.864366 203.914732 
L 634.24686 202.594588 
L 636.629354 200.087039 
L 639.011848 200.008897 
L 641.394343 200.800414 
L 643.776837 201.720271 
L 646.159331 197.632017 
L 648.541825 197.433556 
L 650.92432 200.69562 
L 653.306814 198.819422 
L 655.689308 198.331936 
L 658.071802 198.480977 
L 660.454296 197.560602 
L 662.836791 197.549993 
L 665.219285 197.820387 
L 667.601779 196.58175 
L 669.984273 196.028283 
L 672.366767 196.690425 
L 674.749262 196.494292 
L 677.131756 195.506901 
L 681.896744 195.69346 
L 684.279239 195.67483 
L 686.661733 194.247823 
L 689.044227 192.584576 
L 691.426721 193.453718 
L 693.809215 194.197108 
L 696.19171 192.834529 
L 700.956698 192.539036 
L 703.339192 192.617437 
L 705.721687 192.266313 
L 708.104181 192.454942 
L 710.486675 191.224585 
L 712.869169 190.220634 
L 715.251663 190.547177 
L 717.634158 191.592786 
L 720.016652 189.465601 
L 722.399146 192.041718 
L 724.78164 189.361842 
L 727.164134 191.773653 
L 729.546629 188.172885 
L 731.929123 187.51954 
L 734.311617 187.886189 
L 736.694111 189.007354 
L 739.076606 187.444761 
L 741.4591 188.118547 
L 743.841594 186.874993 
L 748.606582 187.790452 
L 750.989077 187.62511 
L 753.371571 187.914393 
L 758.136559 186.965297 
L 760.519054 186.240796 
L 762.901548 186.287372 
L 765.284042 185.712429 
L 767.666536 186.82402 
L 770.04903 185.273071 
L 772.431525 183.856154 
L 774.814019 181.860155 
L 777.196513 184.566941 
L 779.579007 184.035727 
L 781.961502 184.872784 
L 784.343996 184.483365 
L 786.72649 183.81139 
L 789.108984 183.393509 
L 791.491478 183.357801 
L 793.873973 182.1158 
L 796.256467 183.790173 
L 798.638961 181.0557 
L 801.021455 182.343759 
L 803.403949 183.305793 
L 805.786444 184.686743 
L 808.168938 184.372879 
L 810.551432 183.752913 
L 812.933926 179.446015 
L 815.316421 183.341759 
L 817.698915 183.032035 
L 820.081409 182.212314 
L 822.463903 179.658708 
L 824.846397 181.967019 
L 827.228892 182.004538 
L 829.611386 180.707164 
L 831.99388 178.876506 
L 834.376374 179.960152 
L 836.758869 180.573649 
L 839.141363 180.51336 
L 841.523857 179.58367 
L 843.906351 179.082212 
L 846.288845 180.251763 
L 848.67134 176.259506 
L 851.053834 179.639819 
L 853.436328 177.622861 
L 855.818822 179.398405 
L 858.201316 177.851596 
L 860.583811 181.535165 
L 862.966305 176.200511 
L 865.348799 179.613427 
L 867.731293 176.301424 
L 870.113788 178.356935 
L 872.496282 177.811231 
L 874.878776 179.861568 
L 877.26127 175.134201 
L 879.643764 177.240169 
L 882.026259 178.783097 
L 884.408753 175.761412 
L 886.791247 175.450135 
L 889.173741 177.434232 
L 891.556236 178.754635 
L 893.93873 175.574335 
L 896.321224 175.293333 
L 898.703718 176.95218 
L 901.086212 175.938914 
L 903.468707 176.044743 
L 905.851201 174.398574 
L 908.233695 174.872346 
L 910.616189 176.777006 
L 912.998684 175.219848 
L 917.763672 175.999203 
L 922.52866 174.039688 
L 924.911155 177.69143 
L 927.293649 173.748852 
L 929.676143 175.715096 
L 932.058637 175.669038 
L 934.441131 172.579043 
L 936.823626 174.418498 
L 939.20612 171.672641 
L 941.588614 173.654409 
L 943.971108 175.251674 
L 946.353603 174.069444 
L 948.736097 173.413771 
L 951.118591 171.025247 
L 953.501085 174.311117 
L 955.883579 172.848919 
L 958.266074 174.453688 
L 960.648568 172.864703 
L 963.031062 171.845227 
L 965.413556 172.520306 
L 967.796051 172.43466 
L 970.178545 171.583372 
L 972.561039 171.712229 
L 974.943533 173.622841 
L 977.326027 172.128558 
L 979.708522 171.873431 
L 982.091016 173.114397 
L 984.47351 172.18212 
L 986.856004 173.657514 
L 989.238498 173.274563 
L 991.620993 171.730601 
L 996.385981 170.289879 
L 998.768475 171.700844 
L 1001.15097 172.827702 
L 1003.533464 168.716937 
L 1005.915958 170.808415 
L 1008.298452 169.556064 
L 1013.063441 170.093488 
L 1015.445935 171.713006 
L 1017.828429 170.230367 
L 1020.210923 170.698187 
L 1022.593418 168.872187 
L 1024.975912 169.867081 
L 1027.358406 169.996974 
L 1029.7409 169.424618 
L 1032.123394 169.945741 
L 1034.505889 167.777414 
L 1039.270877 169.282047 
L 1044.035866 169.511041 
L 1046.41836 168.114825 
L 1048.800854 169.280495 
L 1051.183348 168.567379 
L 1053.565842 168.81759 
L 1055.948337 170.389239 
L 1058.330831 169.801876 
L 1060.713325 167.289929 
L 1063.095819 168.45741 
L 1065.478313 168.975169 
L 1067.860808 168.816555 
L 1070.243302 166.495566 
L 1072.625796 167.363932 
L 1075.00829 167.903685 
L 1077.390785 169.290586 
L 1079.773279 167.717902 
L 1082.155773 165.935371 
L 1084.538267 167.410765 
L 1086.920761 168.384184 
L 1089.303256 168.392205 
L 1091.68575 167.425773 
L 1094.068244 167.344784 
L 1096.450738 166.854711 
L 1098.833233 165.942099 
L 1101.215727 168.128538 
L 1103.598221 165.787108 
L 1105.980715 165.950379 
L 1108.363209 169.608849 
L 1110.745704 167.175044 
L 1113.128198 166.994695 
L 1115.510692 165.40778 
L 1117.893186 167.872376 
L 1120.27568 166.689628 
L 1122.658175 167.397569 
L 1125.040669 165.010857 
L 1127.423163 164.256082 
L 1129.805657 168.160106 
L 1132.188152 164.524665 
L 1134.570646 166.510314 
L 1136.95314 167.149428 
L 1139.335634 167.181771 
L 1141.718128 165.076838 
L 1144.100623 165.7307 
L 1146.483117 166.85704 
L 1148.865611 165.600807 
L 1151.248105 162.14468 
L 1153.6306 166.453907 
L 1156.013094 165.690335 
L 1158.395588 165.394842 
L 1160.778082 164.234865 
L 1163.160576 164.609276 
L 1165.543071 166.005234 
L 1167.925565 166.570862 
L 1170.308059 165.601066 
L 1172.690553 165.289272 
L 1175.073048 163.926693 
L 1177.455542 166.558701 
L 1179.838036 163.185115 
L 1182.22053 165.494979 
L 1184.603024 163.130001 
L 1186.985519 166.637102 
L 1189.368013 166.73698 
L 1194.133001 163.893315 
L 1196.515495 163.555904 
L 1198.89799 165.913378 
L 1201.280484 164.050635 
L 1203.662978 162.864265 
L 1206.045472 164.336812 
L 1208.427967 166.093727 
L 1210.810461 164.080132 
L 1213.192955 166.091139 
L 1215.575449 161.591214 
L 1217.957943 162.617158 
L 1220.340438 164.494909 
L 1222.722932 164.927022 
L 1225.105426 163.620074 
L 1227.48792 164.157757 
L 1229.870415 161.709463 
L 1232.252909 163.619039 
L 1237.017897 164.791178 
L 1239.400391 162.896609 
L 1241.782886 161.714638 
L 1244.16538 162.562562 
L 1246.547874 164.375884 
L 1248.930368 162.544967 
L 1251.312862 163.593423 
L 1253.695357 162.47407 
L 1256.077851 163.286545 
L 1258.460345 161.761471 
L 1260.842839 162.97915 
L 1263.225334 160.885343 
L 1265.607828 162.05567 
L 1270.372816 163.045908 
L 1272.75531 162.793885 
L 1275.137805 164.516644 
L 1277.520299 162.595941 
L 1279.902793 162.267587 
L 1282.285287 163.042544 
L 1284.667782 161.17178 
L 1287.050276 162.026173 
L 1289.43277 162.116218 
L 1291.815264 162.699958 
L 1294.197758 163.038921 
L 1296.580253 161.001004 
L 1298.962747 161.511001 
L 1301.345241 160.695679 
L 1303.727735 162.506931 
L 1306.110229 161.082511 
L 1308.492724 161.474776 
L 1310.875218 164.462824 
L 1313.257712 159.481623 
L 1315.640206 161.607515 
L 1318.022701 160.349471 
L 1320.405195 160.27107 
L 1322.787689 161.261566 
L 1325.170183 161.071902 
L 1327.552677 161.274762 
L 1329.935172 160.166794 
L 1332.317666 160.927778 
L 1334.70016 159.724848 
L 1337.082654 162.483385 
L 1339.465149 160.357493 
L 1341.847643 159.881392 
L 1344.230137 160.757262 
L 1346.612631 161.059741 
L 1348.995125 162.162534 
L 1351.37762 159.772458 
L 1353.760114 162.079475 
L 1356.142608 161.806494 
L 1360.907597 159.849048 
L 1363.290091 160.242349 
L 1365.672585 158.945493 
L 1368.055079 160.377158 
L 1370.437573 159.85707 
L 1372.820068 159.831453 
L 1375.202562 159.46972 
L 1377.585056 161.348247 
L 1379.96755 159.563129 
L 1382.350044 158.691141 
L 1384.732539 160.047769 
L 1387.115033 160.634097 
L 1389.497527 160.435118 
L 1391.880021 159.751241 
L 1394.262516 158.273518 
L 1396.64501 159.370619 
L 1399.027504 159.44902 
L 1401.409998 158.535632 
L 1403.792492 160.852482 
L 1406.174987 159.803767 
L 1408.557481 158.526317 
L 1410.939975 159.608411 
L 1413.322469 158.9191 
L 1415.704964 160.477294 
L 1418.087458 159.200103 
L 1420.469952 160.653762 
L 1422.852446 159.618761 
L 1425.23494 160.279609 
L 1427.617435 158.966451 
L 1429.999929 160.869818 
L 1432.382423 157.752654 
L 1434.764917 158.681826 
L 1437.147411 161.057929 
L 1441.9124 156.53601 
L 1444.294894 159.408138 
L 1446.677388 156.648825 
L 1449.059883 159.555367 
L 1451.442377 157.645531 
L 1453.824871 157.963018 
L 1456.207365 159.001383 
L 1458.589859 156.658917 
L 1460.972354 160.931918 
L 1463.354848 158.214264 
L 1465.737342 158.114645 
L 1468.119836 160.666182 
L 1470.502331 156.714289 
L 1472.884825 159.506204 
L 1475.267319 158.415313 
L 1477.649813 157.66649 
L 1480.032307 158.930744 
L 1482.414802 158.225908 
L 1484.797296 160.148681 
L 1487.17979 159.090651 
L 1489.562284 158.320611 
L 1491.944779 156.373774 
L 1494.327273 158.074798 
L 1494.327273 158.074798 
" clip-path="url(#p65a7c2c019)" style="fill: none; stroke: #00c9a7; stroke-width: 2.25; stroke-linecap: round"/>
   </g>
   <g id="line2d_16">
    <path d="M 276.872727 799.680171 
L 279.255221 754.800719 
L 281.637716 734.708762 
L 284.02021 712.780715 
L 286.402704 707.105804 
L 288.785198 704.856747 
L 291.167693 708.096818 
L 293.550187 722.614776 
L 295.932681 725.580313 
L 298.315175 737.908468 
L 300.697669 743.019044 
L 303.080164 758.59762 
L 305.462658 763.554498 
L 307.845152 764.986163 
L 310.227646 776.043078 
L 312.610141 773.925466 
L 314.992635 765.875229 
L 317.375129 756.156829 
L 319.757623 748.690849 
L 322.140117 733.803395 
L 324.522612 720.638442 
L 326.905106 710.67811 
L 329.2876 694.967831 
L 331.670094 676.201193 
L 334.052589 663.823876 
L 338.817577 615.846665 
L 343.582565 595.075231 
L 345.96506 578.151413 
L 348.347554 558.760152 
L 350.730048 550.257361 
L 353.112542 546.508846 
L 355.495036 533.26161 
L 357.877531 531.117088 
L 360.260025 521.927573 
L 365.025013 507.766949 
L 369.790002 490.400668 
L 374.55499 465.532441 
L 376.937484 449.914018 
L 379.319979 428.571781 
L 381.702473 410.49109 
L 386.467461 377.215551 
L 388.849956 363.853171 
L 391.23245 353.625291 
L 393.614944 346.88226 
L 395.997438 337.466339 
L 398.379932 331.755462 
L 400.762427 322.835565 
L 403.144921 316.9816 
L 405.527415 311.599336 
L 407.909909 309.111711 
L 410.292403 301.015934 
L 412.674898 297.636397 
L 415.057392 296.51575 
L 417.439886 292.002111 
L 419.82238 288.31285 
L 422.204875 286.070779 
L 424.587369 281.961566 
L 426.969863 278.835863 
L 429.352357 275.076999 
L 431.734851 273.665257 
L 434.117346 271.54661 
L 436.49984 270.156863 
L 438.882334 266.145458 
L 441.264828 263.508534 
L 443.647323 265.365585 
L 446.029817 258.542858 
L 448.412311 259.628833 
L 450.794805 256.277759 
L 453.177299 256.710907 
L 455.559794 252.129216 
L 460.324782 249.968134 
L 462.707276 248.26504 
L 465.089771 247.387618 
L 467.472265 245.047222 
L 469.854759 246.28172 
L 472.237253 245.241026 
L 474.619747 243.20078 
L 477.002242 242.156982 
L 479.384736 239.301932 
L 481.76723 240.956381 
L 484.149724 237.036573 
L 486.532218 238.267966 
L 488.914713 235.623538 
L 491.297207 235.036952 
L 493.679701 232.414518 
L 496.062195 234.155907 
L 498.44469 230.646736 
L 500.827184 230.781028 
L 503.209678 231.456883 
L 505.592172 230.526417 
L 507.974666 232.132998 
L 510.357161 227.768657 
L 512.739655 227.880696 
L 515.122149 229.397749 
L 517.504643 228.19456 
L 519.887138 227.137566 
L 522.269632 225.245066 
L 524.652126 226.317327 
L 527.03462 225.109999 
L 529.417114 226.574008 
L 531.799609 225.617925 
L 534.182103 223.247773 
L 538.947091 223.298747 
L 541.329585 221.668103 
L 543.71208 221.200024 
L 546.094574 219.494601 
L 548.477068 222.891474 
L 550.859562 218.588975 
L 553.242057 217.222515 
L 555.624551 217.982465 
L 558.007045 219.738344 
L 560.389539 216.22555 
L 562.772033 216.510434 
L 565.154528 215.243593 
L 567.537022 214.887294 
L 569.919516 215.290686 
L 572.30201 213.848671 
L 574.684505 211.783844 
L 577.066999 215.415662 
L 579.449493 210.618692 
L 581.831987 212.014908 
L 584.214481 213.069574 
L 586.596976 210.610153 
L 588.97947 209.775683 
L 591.361964 210.682862 
L 593.744458 211.253923 
L 596.126952 208.403013 
L 598.509447 206.723724 
L 600.891941 207.016888 
L 603.274435 208.279072 
L 605.656929 206.883632 
L 608.039424 206.756844 
L 610.421918 204.74946 
L 612.804412 205.812406 
L 615.186906 204.450345 
L 617.5694 201.565279 
L 619.951895 204.744285 
L 622.334389 205.239015 
L 624.716883 203.12632 
L 627.099377 201.800225 
L 629.481872 201.836191 
L 631.864366 202.879731 
L 634.24686 202.814267 
L 636.629354 199.457759 
L 639.011848 201.477563 
L 641.394343 200.192609 
L 643.776837 201.694396 
L 646.159331 197.960371 
L 648.541825 200.891235 
L 650.92432 198.32081 
L 653.306814 198.855647 
L 655.689308 198.075774 
L 658.071802 198.381875 
L 660.454296 195.648179 
L 662.836791 199.034961 
L 665.219285 195.384512 
L 667.601779 197.295642 
L 669.984273 193.762148 
L 672.366767 197.283998 
L 674.749262 197.725943 
L 677.131756 195.718559 
L 681.896744 194.415752 
L 684.279239 195.216842 
L 686.661733 194.339938 
L 689.044227 194.087139 
L 691.426721 194.566862 
L 693.809215 192.284685 
L 696.19171 194.814486 
L 698.574204 191.639103 
L 700.956698 191.789695 
L 703.339192 194.674243 
L 705.721687 194.014171 
L 708.104181 191.89837 
L 710.486675 191.581919 
L 712.869169 192.688335 
L 715.251663 192.178856 
L 717.634158 188.655454 
L 720.016652 191.702755 
L 722.399146 191.74519 
L 724.78164 188.78457 
L 727.164134 192.283391 
L 729.546629 189.520197 
L 731.929123 189.001662 
L 734.311617 188.698665 
L 736.694111 187.65202 
L 739.076606 190.035628 
L 741.4591 187.584228 
L 743.841594 187.678672 
L 746.224088 187.64581 
L 748.606582 188.873839 
L 750.989077 187.47607 
L 753.371571 186.625817 
L 755.754065 188.307952 
L 758.136559 188.648209 
L 760.519054 187.536359 
L 762.901548 185.503358 
L 765.284042 186.50498 
L 767.666536 185.237622 
L 770.04903 187.720848 
L 772.431525 183.945941 
L 774.814019 185.199068 
L 777.196513 185.928485 
L 779.579007 184.498372 
L 781.961502 185.383557 
L 784.343996 184.301205 
L 786.72649 185.273847 
L 789.108984 185.637391 
L 791.491478 182.045938 
L 793.873973 182.963207 
L 796.256467 184.523989 
L 798.638961 183.118716 
L 801.021455 183.094911 
L 803.403949 184.096533 
L 805.786444 182.241812 
L 808.168938 184.371067 
L 810.551432 180.42021 
L 812.933926 183.18832 
L 815.316421 180.554242 
L 820.081409 183.109142 
L 822.463903 181.396992 
L 824.846397 180.28773 
L 827.228892 180.451001 
L 829.611386 182.261477 
L 831.99388 181.852392 
L 834.376374 180.915458 
L 836.758869 180.15525 
L 839.141363 180.39951 
L 841.523857 181.406307 
L 843.906351 180.367425 
L 846.288845 178.08059 
L 848.67134 180.981439 
L 851.053834 179.316381 
L 853.436328 180.005951 
L 855.818822 178.464317 
L 858.201316 180.493954 
L 860.583811 178.353572 
L 862.966305 179.052197 
L 865.348799 177.802692 
L 867.731293 177.022043 
L 870.113788 177.66038 
L 872.496282 180.353452 
L 874.878776 177.775782 
L 877.26127 177.187126 
L 879.643764 177.785615 
L 882.026259 178.263268 
L 884.408753 177.193336 
L 886.791247 175.416756 
L 889.173741 177.382482 
L 891.556236 175.895444 
L 896.321224 176.282017 
L 898.703718 175.890269 
L 901.086212 175.812386 
L 905.851201 174.371923 
L 908.233695 174.655513 
L 910.616189 176.707144 
L 912.998684 175.881213 
L 915.381178 177.078192 
L 917.763672 175.66645 
L 920.146166 175.410546 
L 922.52866 173.377805 
L 924.911155 177.387398 
L 927.293649 173.413512 
L 929.676143 174.781525 
L 932.058637 174.620323 
L 934.441131 174.333887 
L 936.823626 173.559447 
L 939.20612 174.64801 
L 941.588614 174.163629 
L 943.971108 172.437765 
L 946.353603 174.746593 
L 948.736097 173.652339 
L 951.118591 173.428261 
L 953.501085 174.231163 
L 955.883579 174.263248 
L 958.266074 173.536936 
L 960.648568 173.354776 
L 963.031062 173.903844 
L 965.413556 172.233352 
L 967.796051 173.178567 
L 970.178545 173.613009 
L 972.561039 172.532726 
L 974.943533 173.398505 
L 977.326027 173.712627 
L 979.708522 170.961854 
L 982.091016 173.813281 
L 984.47351 170.551734 
L 986.856004 173.068598 
L 989.238498 171.756993 
L 991.620993 171.107789 
L 994.003487 172.532468 
L 996.385981 172.024282 
L 998.768475 173.184518 
L 1001.15097 171.629429 
L 1003.533464 169.609884 
L 1005.915958 173.585064 
L 1008.298452 171.57535 
L 1010.680946 171.454773 
L 1013.063441 169.777813 
L 1015.445935 170.214065 
L 1017.828429 167.793716 
L 1020.210923 171.159539 
L 1022.593418 170.959784 
L 1024.975912 169.417115 
L 1027.358406 170.154035 
L 1029.7409 170.136699 
L 1032.123394 169.870963 
L 1034.505889 169.813261 
L 1036.888383 167.429395 
L 1039.270877 169.838101 
L 1041.653371 171.276235 
L 1044.035866 168.828975 
L 1046.41836 169.581162 
L 1048.800854 169.433157 
L 1051.183348 169.042444 
L 1053.565842 168.470089 
L 1055.948337 167.315804 
L 1058.330831 169.004408 
L 1060.713325 167.558512 
L 1063.095819 167.780002 
L 1065.478313 169.150343 
L 1067.860808 169.047619 
L 1070.243302 167.687628 
L 1072.625796 167.91507 
L 1075.00829 168.68097 
L 1077.390785 167.729546 
L 1079.773279 167.300538 
L 1082.155773 168.920573 
L 1084.538267 166.02257 
L 1086.920761 168.185205 
L 1089.303256 167.408695 
L 1091.68575 168.281719 
L 1094.068244 168.375386 
L 1096.450738 166.459082 
L 1098.833233 167.3497 
L 1101.215727 166.472537 
L 1103.598221 168.262054 
L 1105.980715 167.47183 
L 1108.363209 166.012738 
L 1110.745704 167.616989 
L 1113.128198 166.690405 
L 1115.510692 167.582058 
L 1117.893186 167.261984 
L 1120.27568 166.332553 
L 1122.658175 167.539364 
L 1125.040669 166.286237 
L 1127.423163 164.569688 
L 1129.805657 166.216892 
L 1132.188152 168.265676 
L 1134.570646 163.623438 
L 1136.95314 165.474279 
L 1139.335634 166.22543 
L 1141.718128 166.665823 
L 1144.100623 165.561736 
L 1146.483117 166.963386 
L 1148.865611 165.286685 
L 1151.248105 166.096055 
L 1153.6306 164.344834 
L 1156.013094 166.094762 
L 1158.395588 167.371177 
L 1160.778082 166.165659 
L 1163.160576 164.548729 
L 1165.543071 164.591423 
L 1167.925565 165.348526 
L 1170.308059 167.00401 
L 1172.690553 165.011374 
L 1175.073048 165.084342 
L 1177.455542 162.531771 
L 1179.838036 166.6666 
L 1182.22053 164.332155 
L 1184.603024 164.944099 
L 1186.985519 165.260033 
L 1189.368013 163.870286 
L 1196.515495 165.038802 
L 1198.89799 163.285252 
L 1201.280484 165.003094 
L 1203.662978 165.078908 
L 1206.045472 163.547883 
L 1208.427967 164.067712 
L 1210.810461 162.800612 
L 1213.192955 165.846103 
L 1215.575449 163.487335 
L 1217.957943 164.31249 
L 1220.340438 161.171003 
L 1222.722932 164.568653 
L 1225.105426 164.478608 
L 1227.48792 163.468964 
L 1229.870415 165.47402 
L 1232.252909 162.580675 
L 1234.635403 164.969457 
L 1237.017897 161.184717 
L 1239.400391 162.300189 
L 1241.782886 163.969646 
L 1244.16538 162.625697 
L 1246.547874 163.303623 
L 1248.930368 162.602151 
L 1251.312862 163.566772 
L 1253.695357 164.359841 
L 1256.077851 162.102245 
L 1258.460345 163.519679 
L 1260.842839 165.694475 
L 1263.225334 161.041111 
L 1265.607828 161.907665 
L 1267.990322 163.054446 
L 1270.372816 162.430599 
L 1275.137805 162.385577 
L 1277.520299 161.390682 
L 1279.902793 162.232397 
L 1282.285287 163.258859 
L 1284.667782 161.289252 
L 1287.050276 163.122239 
L 1289.43277 161.688245 
L 1291.815264 162.376003 
L 1294.197758 162.384024 
L 1296.580253 162.533323 
L 1298.962747 160.44288 
L 1301.345241 162.331239 
L 1303.727735 162.904889 
L 1306.110229 159.414607 
L 1308.492724 162.487266 
L 1310.875218 160.584934 
L 1313.257712 162.893504 
L 1315.640206 163.419543 
L 1318.022701 162.489077 
L 1320.405195 160.729575 
L 1322.787689 161.82797 
L 1325.170183 161.501427 
L 1327.552677 161.568961 
L 1329.935172 161.14073 
L 1332.317666 159.863021 
L 1334.70016 162.508483 
L 1337.082654 159.087288 
L 1339.465149 161.991242 
L 1341.847643 161.423285 
L 1344.230137 161.642964 
L 1346.612631 162.150114 
L 1348.995125 160.75959 
L 1351.37762 161.304518 
L 1353.760114 161.280455 
L 1356.142608 159.725883 
L 1358.525102 161.741806 
L 1360.907597 159.87777 
L 1363.290091 160.167311 
L 1365.672585 161.086651 
L 1368.055079 161.101141 
L 1370.437573 161.396634 
L 1372.820068 161.23595 
L 1375.202562 158.924534 
L 1377.585056 160.997123 
L 1379.96755 159.014579 
L 1382.350044 160.302638 
L 1384.732539 160.437446 
L 1387.115033 160.825054 
L 1389.497527 160.412089 
L 1391.880021 158.565388 
L 1394.262516 159.766766 
L 1396.64501 159.704407 
L 1399.027504 161.259755 
L 1401.409998 159.87156 
L 1403.792492 159.348367 
L 1406.174987 160.113491 
L 1408.557481 159.061671 
L 1410.939975 159.052098 
L 1413.322469 160.164982 
L 1415.704964 158.839922 
L 1418.087458 157.92938 
L 1420.469952 159.1675 
L 1422.852446 159.215887 
L 1425.23494 160.249076 
L 1427.617435 157.767144 
L 1429.999929 158.145954 
L 1432.382423 160.838251 
L 1434.764917 157.210055 
L 1437.147411 160.5174 
L 1439.529906 158.510275 
L 1441.9124 159.26893 
L 1444.294894 160.340156 
L 1446.677388 157.156235 
L 1449.059883 158.829831 
L 1451.442377 161.919568 
L 1453.824871 156.24 
L 1456.207365 158.247126 
L 1458.589859 159.876735 
L 1460.972354 156.900072 
L 1463.354848 157.621726 
L 1465.737342 157.810873 
L 1468.119836 159.203208 
L 1470.502331 157.228167 
L 1472.884825 158.624901 
L 1475.267319 159.166206 
L 1477.649813 158.239881 
L 1480.032307 157.694435 
L 1482.414802 158.527352 
L 1484.797296 157.36013 
L 1487.17979 158.259546 
L 1489.562284 158.618173 
L 1491.944779 157.214195 
L 1494.327273 158.182179 
L 1494.327273 158.182179 
" clip-path="url(#p65a7c2c019)" style="fill: none; stroke: #ffc75f; stroke-width: 2.25; stroke-linecap: round"/>
   </g>
   <g id="patch_3">
    <path d="M 216 897.12 
L 216 120.96 
" style="fill: none; stroke: #262626; stroke-width: 1.875; stroke-linejoin: miter; stroke-linecap: square"/>
   </g>
   <g id="patch_4">
    <path d="M 1555.2 897.12 
L 1555.2 120.96 
" style="fill: none; stroke: #262626; stroke-width: 1.875; stroke-linejoin: miter; stroke-linecap: square"/>
   </g>
   <g id="patch_5">
    <path d="M 216 897.12 
L 1555.2 897.12 
" style="fill: none; stroke: #262626; stroke-width: 1.875; stroke-linejoin: miter; stroke-linecap: square"/>
   </g>
   <g id="patch_6">
    <path d="M 216 120.96 
L 1555.2 120.96 
" style="fill: none; stroke: #262626; stroke-width: 1.875; stroke-linejoin: miter; stroke-linecap: square"/>
   </g>
   <g id="text_17">
    <!-- Df(Z) -->
    <g style="fill: #262626" transform="translate(820.916406 110.561563) scale(0.5 -0.5)">
     <use xlink:href="#DejaVuSans-44"/>
     <use xlink:href="#DejaVuSans-66" x="77.001953"/>
     <use xlink:href="#DejaVuSans-28" x="112.207031"/>
     <use xlink:href="#DejaVuSans-5a" x="151.220703"/>
     <use xlink:href="#DejaVuSans-29" x="219.726562"/>
    </g>
   </g>
   <g id="legend_1">
    <g id="patch_7">
     <path d="M 227.55 182.597813 
L 361.029844 182.597813 
Q 364.329844 182.597813 364.329844 179.297813 
L 364.329844 132.51 
Q 364.329844 129.21 361.029844 129.21 
L 227.55 129.21 
Q 224.25 129.21 224.25 132.51 
L 224.25 179.297813 
Q 224.25 182.597813 227.55 182.597813 
z
" style="fill: #ffffff; opacity: 0.8; stroke: #cccccc; stroke-width: 1.5; stroke-linejoin: miter"/>
    </g>
    <g id="line2d_17">
     <path d="M 230.85 142.572422 
L 247.35 142.572422 
L 263.85 142.572422 
" style="fill: none; stroke: #00c9a7; stroke-width: 2.25; stroke-linecap: round"/>
    </g>
    <g id="text_18">
     <!-- df trace -->
     <g style="fill: #262626" transform="translate(277.05 148.347422) scale(0.165 -0.165)">
      <defs>
       <path id="DejaVuSans-64" d="M 2906 2969 
L 2906 4863 
L 3481 4863 
L 3481 0 
L 2906 0 
L 2906 525 
Q 2725 213 2448 61 
Q 2172 -91 1784 -91 
Q 1150 -91 751 415 
Q 353 922 353 1747 
Q 353 2572 751 3078 
Q 1150 3584 1784 3584 
Q 2172 3584 2448 3432 
Q 2725 3281 2906 2969 
z
M 947 1747 
Q 947 1113 1208 752 
Q 1469 391 1925 391 
Q 2381 391 2643 752 
Q 2906 1113 2906 1747 
Q 2906 2381 2643 2742 
Q 2381 3103 1925 3103 
Q 1469 3103 1208 2742 
Q 947 2381 947 1747 
z
" transform="scale(0.015625)"/>
       <path id="DejaVuSans-74" d="M 1172 4494 
L 1172 3500 
L 2356 3500 
L 2356 3053 
L 1172 3053 
L 1172 1153 
Q 1172 725 1289 603 
Q 1406 481 1766 481 
L 2356 481 
L 2356 0 
L 1766 0 
Q 1100 0 847 248 
Q 594 497 594 1153 
L 594 3053 
L 172 3053 
L 172 3500 
L 594 3500 
L 594 4494 
L 1172 4494 
z
" transform="scale(0.015625)"/>
       <path id="DejaVuSans-72" d="M 2631 2963 
Q 2534 3019 2420 3045 
Q 2306 3072 2169 3072 
Q 1681 3072 1420 2755 
Q 1159 2438 1159 1844 
L 1159 0 
L 581 0 
L 581 3500 
L 1159 3500 
L 1159 2956 
Q 1341 3275 1631 3429 
Q 1922 3584 2338 3584 
Q 2397 3584 2469 3576 
Q 2541 3569 2628 3553 
L 2631 2963 
z
" transform="scale(0.015625)"/>
       <path id="DejaVuSans-61" d="M 2194 1759 
Q 1497 1759 1228 1600 
Q 959 1441 959 1056 
Q 959 750 1161 570 
Q 1363 391 1709 391 
Q 2188 391 2477 730 
Q 2766 1069 2766 1631 
L 2766 1759 
L 2194 1759 
z
M 3341 1997 
L 3341 0 
L 2766 0 
L 2766 531 
Q 2569 213 2275 61 
Q 1981 -91 1556 -91 
Q 1019 -91 701 211 
Q 384 513 384 1019 
Q 384 1609 779 1909 
Q 1175 2209 1959 2209 
L 2766 2209 
L 2766 2266 
Q 2766 2663 2505 2880 
Q 2244 3097 1772 3097 
Q 1472 3097 1187 3025 
Q 903 2953 641 2809 
L 641 3341 
Q 956 3463 1253 3523 
Q 1550 3584 1831 3584 
Q 2591 3584 2966 3190 
Q 3341 2797 3341 1997 
z
" transform="scale(0.015625)"/>
       <path id="DejaVuSans-63" d="M 3122 3366 
L 3122 2828 
Q 2878 2963 2633 3030 
Q 2388 3097 2138 3097 
Q 1578 3097 1268 2742 
Q 959 2388 959 1747 
Q 959 1106 1268 751 
Q 1578 397 2138 397 
Q 2388 397 2633 464 
Q 2878 531 3122 666 
L 3122 134 
Q 2881 22 2623 -34 
Q 2366 -91 2075 -91 
Q 1284 -91 818 406 
Q 353 903 353 1747 
Q 353 2603 823 3093 
Q 1294 3584 2113 3584 
Q 2378 3584 2631 3529 
Q 2884 3475 3122 3366 
z
" transform="scale(0.015625)"/>
       <path id="DejaVuSans-65" d="M 3597 1894 
L 3597 1613 
L 953 1613 
Q 991 1019 1311 708 
Q 1631 397 2203 397 
Q 2534 397 2845 478 
Q 3156 559 3463 722 
L 3463 178 
Q 3153 47 2828 -22 
Q 2503 -91 2169 -91 
Q 1331 -91 842 396 
Q 353 884 353 1716 
Q 353 2575 817 3079 
Q 1281 3584 2069 3584 
Q 2775 3584 3186 3129 
Q 3597 2675 3597 1894 
z
M 3022 2063 
Q 3016 2534 2758 2815 
Q 2500 3097 2075 3097 
Q 1594 3097 1305 2825 
Q 1016 2553 972 2059 
L 3022 2063 
z
" transform="scale(0.015625)"/>
      </defs>
      <use xlink:href="#DejaVuSans-64"/>
      <use xlink:href="#DejaVuSans-66" x="63.476562"/>
      <use xlink:href="#DejaVuSans-20" x="98.681641"/>
      <use xlink:href="#DejaVuSans-74" x="130.46875"/>
      <use xlink:href="#DejaVuSans-72" x="169.677734"/>
      <use xlink:href="#DejaVuSans-61" x="210.791016"/>
      <use xlink:href="#DejaVuSans-63" x="272.070312"/>
      <use xlink:href="#DejaVuSans-65" x="327.050781"/>
     </g>
    </g>
    <g id="line2d_18">
     <path d="M 230.85 166.791328 
L 247.35 166.791328 
L 263.85 166.791328 
" style="fill: none; stroke: #ffc75f; stroke-width: 2.25; stroke-linecap: round"/>
    </g>
    <g id="text_19">
     <!-- df retrace -->
     <g style="fill: #262626" transform="translate(277.05 172.566328) scale(0.165 -0.165)">
      <use xlink:href="#DejaVuSans-64"/>
      <use xlink:href="#DejaVuSans-66" x="63.476562"/>
      <use xlink:href="#DejaVuSans-20" x="98.681641"/>
      <use xlink:href="#DejaVuSans-72" x="130.46875"/>
      <use xlink:href="#DejaVuSans-65" x="169.332031"/>
      <use xlink:href="#DejaVuSans-74" x="230.855469"/>
      <use xlink:href="#DejaVuSans-72" x="270.064453"/>
      <use xlink:href="#DejaVuSans-61" x="311.177734"/>
      <use xlink:href="#DejaVuSans-63" x="372.457031"/>
      <use xlink:href="#DejaVuSans-65" x="427.4375"/>
     </g>
    </g>
   </g>
  </g>
 </g>
 <defs>
  <clipPath id="p65a7c2c019">
   <rect x="216" y="120.96" width="1339.2" height="776.16"/>
  </clipPath>
 </defs>
</svg>
