<?xml version="1.0" encoding="utf-8" standalone="no"?>
<!DOCTYPE svg PUBLIC "-//W3C//DTD SVG 1.1//EN"
  "http://www.w3.org/Graphics/SVG/1.1/DTD/svg11.dtd">
<svg xmlns:xlink="http://www.w3.org/1999/xlink" width="1008pt" height="1008pt" viewBox="0 0 1008 1008" xmlns="http://www.w3.org/2000/svg" version="1.1">
 <metadata>
  <rdf:RDF xmlns:dc="http://purl.org/dc/elements/1.1/" xmlns:cc="http://creativecommons.org/ns#" xmlns:rdf="http://www.w3.org/1999/02/22-rdf-syntax-ns#">
   <cc:Work>
    <dc:type rdf:resource="http://purl.org/dc/dcmitype/StillImage"/>
    <dc:date>2022-08-31T23:43:02.977668</dc:date>
    <dc:format>image/svg+xml</dc:format>
    <dc:creator>
     <cc:Agent>
      <dc:title>Matplotlib v3.5.1, https://matplotlib.org/</dc:title>
     </cc:Agent>
    </dc:creator>
   </cc:Work>
  </rdf:RDF>
 </metadata>
 <defs>
  <style type="text/css">*{stroke-linejoin: round; stroke-linecap: butt}</style>
 </defs>
 <g id="figure_1">
  <g id="patch_1">
   <path d="M 0 1008 
L 1008 1008 
L 1008 0 
L 0 0 
z
" style="fill: #ffffff"/>
  </g>
  <g id="axes_1">
   <g id="patch_2">
    <path d="M 126 897.12 
L 907.2 897.12 
L 907.2 120.96 
L 126 120.96 
L 126 897.12 
z
" style="fill: none"/>
   </g>
   <g id="matplotlib.axis_1">
    <g id="xtick_1">
     <g id="line2d_1">
      <defs>
       <path id="me9809d3db9" d="M 0 0 
L 0 9 
" style="stroke: #262626; stroke-width: 1.875"/>
      </defs>
      <g>
       <use xlink:href="#me9809d3db9" x="140.618303" y="897.12" style="fill: #262626; stroke: #262626; stroke-width: 1.875"/>
      </g>
     </g>
     <g id="text_1">
      <!-- −0.50 -->
      <g style="fill: #262626" transform="translate(97.714866 930.895625)scale(0.28 -0.28)">
       <defs>
        <path id="DejaVuSans-2212" d="M 678 2272 
L 4684 2272 
L 4684 1741 
L 678 1741 
L 678 2272 
z
" transform="scale(0.015625)"/>
        <path id="DejaVuSans-30" d="M 2034 4250 
Q 1547 4250 1301 3770 
Q 1056 3291 1056 2328 
Q 1056 1369 1301 889 
Q 1547 409 2034 409 
Q 2525 409 2770 889 
Q 3016 1369 3016 2328 
Q 3016 3291 2770 3770 
Q 2525 4250 2034 4250 
z
M 2034 4750 
Q 2819 4750 3233 4129 
Q 3647 3509 3647 2328 
Q 3647 1150 3233 529 
Q 2819 -91 2034 -91 
Q 1250 -91 836 529 
Q 422 1150 422 2328 
Q 422 3509 836 4129 
Q 1250 4750 2034 4750 
z
" transform="scale(0.015625)"/>
        <path id="DejaVuSans-2e" d="M 684 794 
L 1344 794 
L 1344 0 
L 684 0 
L 684 794 
z
" transform="scale(0.015625)"/>
        <path id="DejaVuSans-35" d="M 691 4666 
L 3169 4666 
L 3169 4134 
L 1269 4134 
L 1269 2991 
Q 1406 3038 1543 3061 
Q 1681 3084 1819 3084 
Q 2600 3084 3056 2656 
Q 3513 2228 3513 1497 
Q 3513 744 3044 326 
Q 2575 -91 1722 -91 
Q 1428 -91 1123 -41 
Q 819 9 494 109 
L 494 744 
Q 775 591 1075 516 
Q 1375 441 1709 441 
Q 2250 441 2565 725 
Q 2881 1009 2881 1497 
Q 2881 1984 2565 2268 
Q 2250 2553 1709 2553 
Q 1456 2553 1204 2497 
Q 953 2441 691 2322 
L 691 4666 
z
" transform="scale(0.015625)"/>
       </defs>
       <use xlink:href="#DejaVuSans-2212"/>
       <use xlink:href="#DejaVuSans-30" x="83.789062"/>
       <use xlink:href="#DejaVuSans-2e" x="147.412109"/>
       <use xlink:href="#DejaVuSans-35" x="179.199219"/>
       <use xlink:href="#DejaVuSans-30" x="242.822266"/>
      </g>
     </g>
    </g>
    <g id="xtick_2">
     <g id="line2d_2">
      <g>
       <use xlink:href="#me9809d3db9" x="227.663252" y="897.12" style="fill: #262626; stroke: #262626; stroke-width: 1.875"/>
      </g>
     </g>
     <g id="text_2">
      <!-- −0.25 -->
      <g style="fill: #262626" transform="translate(184.759814 930.895625)scale(0.28 -0.28)">
       <defs>
        <path id="DejaVuSans-32" d="M 1228 531 
L 3431 531 
L 3431 0 
L 469 0 
L 469 531 
Q 828 903 1448 1529 
Q 2069 2156 2228 2338 
Q 2531 2678 2651 2914 
Q 2772 3150 2772 3378 
Q 2772 3750 2511 3984 
Q 2250 4219 1831 4219 
Q 1534 4219 1204 4116 
Q 875 4013 500 3803 
L 500 4441 
Q 881 4594 1212 4672 
Q 1544 4750 1819 4750 
Q 2544 4750 2975 4387 
Q 3406 4025 3406 3419 
Q 3406 3131 3298 2873 
Q 3191 2616 2906 2266 
Q 2828 2175 2409 1742 
Q 1991 1309 1228 531 
z
" transform="scale(0.015625)"/>
       </defs>
       <use xlink:href="#DejaVuSans-2212"/>
       <use xlink:href="#DejaVuSans-30" x="83.789062"/>
       <use xlink:href="#DejaVuSans-2e" x="147.412109"/>
       <use xlink:href="#DejaVuSans-32" x="179.199219"/>
       <use xlink:href="#DejaVuSans-35" x="242.822266"/>
      </g>
     </g>
    </g>
    <g id="xtick_3">
     <g id="line2d_3">
      <g>
       <use xlink:href="#me9809d3db9" x="314.7082" y="897.12" style="fill: #262626; stroke: #262626; stroke-width: 1.875"/>
      </g>
     </g>
     <g id="text_3">
      <!-- 0.00 -->
      <g style="fill: #262626" transform="translate(283.536325 930.895625)scale(0.28 -0.28)">
       <use xlink:href="#DejaVuSans-30"/>
       <use xlink:href="#DejaVuSans-2e" x="63.623047"/>
       <use xlink:href="#DejaVuSans-30" x="95.410156"/>
       <use xlink:href="#DejaVuSans-30" x="159.033203"/>
      </g>
     </g>
    </g>
    <g id="xtick_4">
     <g id="line2d_4">
      <g>
       <use xlink:href="#me9809d3db9" x="401.753148" y="897.12" style="fill: #262626; stroke: #262626; stroke-width: 1.875"/>
      </g>
     </g>
     <g id="text_4">
      <!-- 0.25 -->
      <g style="fill: #262626" transform="translate(370.581273 930.895625)scale(0.28 -0.28)">
       <use xlink:href="#DejaVuSans-30"/>
       <use xlink:href="#DejaVuSans-2e" x="63.623047"/>
       <use xlink:href="#DejaVuSans-32" x="95.410156"/>
       <use xlink:href="#DejaVuSans-35" x="159.033203"/>
      </g>
     </g>
    </g>
    <g id="xtick_5">
     <g id="line2d_5">
      <g>
       <use xlink:href="#me9809d3db9" x="488.798097" y="897.12" style="fill: #262626; stroke: #262626; stroke-width: 1.875"/>
      </g>
     </g>
     <g id="text_5">
      <!-- 0.50 -->
      <g style="fill: #262626" transform="translate(457.626222 930.895625)scale(0.28 -0.28)">
       <use xlink:href="#DejaVuSans-30"/>
       <use xlink:href="#DejaVuSans-2e" x="63.623047"/>
       <use xlink:href="#DejaVuSans-35" x="95.410156"/>
       <use xlink:href="#DejaVuSans-30" x="159.033203"/>
      </g>
     </g>
    </g>
    <g id="xtick_6">
     <g id="line2d_6">
      <g>
       <use xlink:href="#me9809d3db9" x="575.843045" y="897.12" style="fill: #262626; stroke: #262626; stroke-width: 1.875"/>
      </g>
     </g>
     <g id="text_6">
      <!-- 0.75 -->
      <g style="fill: #262626" transform="translate(544.67117 930.895625)scale(0.28 -0.28)">
       <defs>
        <path id="DejaVuSans-37" d="M 525 4666 
L 3525 4666 
L 3525 4397 
L 1831 0 
L 1172 0 
L 2766 4134 
L 525 4134 
L 525 4666 
z
" transform="scale(0.015625)"/>
       </defs>
       <use xlink:href="#DejaVuSans-30"/>
       <use xlink:href="#DejaVuSans-2e" x="63.623047"/>
       <use xlink:href="#DejaVuSans-37" x="95.410156"/>
       <use xlink:href="#DejaVuSans-35" x="159.033203"/>
      </g>
     </g>
    </g>
    <g id="xtick_7">
     <g id="line2d_7">
      <g>
       <use xlink:href="#me9809d3db9" x="662.887994" y="897.12" style="fill: #262626; stroke: #262626; stroke-width: 1.875"/>
      </g>
     </g>
     <g id="text_7">
      <!-- 1.00 -->
      <g style="fill: #262626" transform="translate(631.716119 930.895625)scale(0.28 -0.28)">
       <defs>
        <path id="DejaVuSans-31" d="M 794 531 
L 1825 531 
L 1825 4091 
L 703 3866 
L 703 4441 
L 1819 4666 
L 2450 4666 
L 2450 531 
L 3481 531 
L 3481 0 
L 794 0 
L 794 531 
z
" transform="scale(0.015625)"/>
       </defs>
       <use xlink:href="#DejaVuSans-31"/>
       <use xlink:href="#DejaVuSans-2e" x="63.623047"/>
       <use xlink:href="#DejaVuSans-30" x="95.410156"/>
       <use xlink:href="#DejaVuSans-30" x="159.033203"/>
      </g>
     </g>
    </g>
    <g id="xtick_8">
     <g id="line2d_8">
      <g>
       <use xlink:href="#me9809d3db9" x="749.932942" y="897.12" style="fill: #262626; stroke: #262626; stroke-width: 1.875"/>
      </g>
     </g>
     <g id="text_8">
      <!-- 1.25 -->
      <g style="fill: #262626" transform="translate(718.761067 930.895625)scale(0.28 -0.28)">
       <use xlink:href="#DejaVuSans-31"/>
       <use xlink:href="#DejaVuSans-2e" x="63.623047"/>
       <use xlink:href="#DejaVuSans-32" x="95.410156"/>
       <use xlink:href="#DejaVuSans-35" x="159.033203"/>
      </g>
     </g>
    </g>
    <g id="xtick_9">
     <g id="line2d_9">
      <g>
       <use xlink:href="#me9809d3db9" x="836.977891" y="897.12" style="fill: #262626; stroke: #262626; stroke-width: 1.875"/>
      </g>
     </g>
     <g id="text_9">
      <!-- 1.50 -->
      <g style="fill: #262626" transform="translate(805.806016 930.895625)scale(0.28 -0.28)">
       <use xlink:href="#DejaVuSans-31"/>
       <use xlink:href="#DejaVuSans-2e" x="63.623047"/>
       <use xlink:href="#DejaVuSans-35" x="95.410156"/>
       <use xlink:href="#DejaVuSans-30" x="159.033203"/>
      </g>
     </g>
    </g>
    <g id="text_10">
     <!-- Z [nm] -->
     <g style="fill: #262626" transform="translate(469.126875 961.994375)scale(0.28 -0.28)">
      <defs>
       <path id="DejaVuSans-5a" d="M 359 4666 
L 4025 4666 
L 4025 4184 
L 1075 531 
L 4097 531 
L 4097 0 
L 288 0 
L 288 481 
L 3238 4134 
L 359 4134 
L 359 4666 
z
" transform="scale(0.015625)"/>
       <path id="DejaVuSans-20" transform="scale(0.015625)"/>
       <path id="DejaVuSans-5b" d="M 550 4863 
L 1875 4863 
L 1875 4416 
L 1125 4416 
L 1125 -397 
L 1875 -397 
L 1875 -844 
L 550 -844 
L 550 4863 
z
" transform="scale(0.015625)"/>
       <path id="DejaVuSans-6e" d="M 3513 2113 
L 3513 0 
L 2938 0 
L 2938 2094 
Q 2938 2591 2744 2837 
Q 2550 3084 2163 3084 
Q 1697 3084 1428 2787 
Q 1159 2491 1159 1978 
L 1159 0 
L 581 0 
L 581 3500 
L 1159 3500 
L 1159 2956 
Q 1366 3272 1645 3428 
Q 1925 3584 2291 3584 
Q 2894 3584 3203 3211 
Q 3513 2838 3513 2113 
z
" transform="scale(0.015625)"/>
       <path id="DejaVuSans-6d" d="M 3328 2828 
Q 3544 3216 3844 3400 
Q 4144 3584 4550 3584 
Q 5097 3584 5394 3201 
Q 5691 2819 5691 2113 
L 5691 0 
L 5113 0 
L 5113 2094 
Q 5113 2597 4934 2840 
Q 4756 3084 4391 3084 
Q 3944 3084 3684 2787 
Q 3425 2491 3425 1978 
L 3425 0 
L 2847 0 
L 2847 2094 
Q 2847 2600 2669 2842 
Q 2491 3084 2119 3084 
Q 1678 3084 1418 2786 
Q 1159 2488 1159 1978 
L 1159 0 
L 581 0 
L 581 3500 
L 1159 3500 
L 1159 2956 
Q 1356 3278 1631 3431 
Q 1906 3584 2284 3584 
Q 2666 3584 2933 3390 
Q 3200 3197 3328 2828 
z
" transform="scale(0.015625)"/>
       <path id="DejaVuSans-5d" d="M 1947 4863 
L 1947 -844 
L 622 -844 
L 622 -397 
L 1369 -397 
L 1369 4416 
L 622 4416 
L 622 4863 
L 1947 4863 
z
" transform="scale(0.015625)"/>
      </defs>
      <use xlink:href="#DejaVuSans-5a"/>
      <use xlink:href="#DejaVuSans-20" x="68.505859"/>
      <use xlink:href="#DejaVuSans-5b" x="100.292969"/>
      <use xlink:href="#DejaVuSans-6e" x="139.306641"/>
      <use xlink:href="#DejaVuSans-6d" x="202.685547"/>
      <use xlink:href="#DejaVuSans-5d" x="300.097656"/>
     </g>
    </g>
   </g>
   <g id="matplotlib.axis_2">
    <g id="ytick_1">
     <g id="line2d_10">
      <defs>
       <path id="m80a4c3328f" d="M 0 0 
L -9 0 
" style="stroke: #262626; stroke-width: 1.875"/>
      </defs>
      <g>
       <use xlink:href="#m80a4c3328f" x="126" y="860.894404" style="fill: #262626; stroke: #262626; stroke-width: 1.875"/>
      </g>
     </g>
     <g id="text_11">
      <!-- −10 -->
      <g style="fill: #262626" transform="translate(54.406875 871.532216)scale(0.28 -0.28)">
       <use xlink:href="#DejaVuSans-2212"/>
       <use xlink:href="#DejaVuSans-31" x="83.789062"/>
       <use xlink:href="#DejaVuSans-30" x="147.412109"/>
      </g>
     </g>
    </g>
    <g id="ytick_2">
     <g id="line2d_11">
      <g>
       <use xlink:href="#m80a4c3328f" x="126" y="716.052287" style="fill: #262626; stroke: #262626; stroke-width: 1.875"/>
      </g>
     </g>
     <g id="text_12">
      <!-- −8 -->
      <g style="fill: #262626" transform="translate(72.221875 726.690099)scale(0.28 -0.28)">
       <defs>
        <path id="DejaVuSans-38" d="M 2034 2216 
Q 1584 2216 1326 1975 
Q 1069 1734 1069 1313 
Q 1069 891 1326 650 
Q 1584 409 2034 409 
Q 2484 409 2743 651 
Q 3003 894 3003 1313 
Q 3003 1734 2745 1975 
Q 2488 2216 2034 2216 
z
M 1403 2484 
Q 997 2584 770 2862 
Q 544 3141 544 3541 
Q 544 4100 942 4425 
Q 1341 4750 2034 4750 
Q 2731 4750 3128 4425 
Q 3525 4100 3525 3541 
Q 3525 3141 3298 2862 
Q 3072 2584 2669 2484 
Q 3125 2378 3379 2068 
Q 3634 1759 3634 1313 
Q 3634 634 3220 271 
Q 2806 -91 2034 -91 
Q 1263 -91 848 271 
Q 434 634 434 1313 
Q 434 1759 690 2068 
Q 947 2378 1403 2484 
z
M 1172 3481 
Q 1172 3119 1398 2916 
Q 1625 2713 2034 2713 
Q 2441 2713 2670 2916 
Q 2900 3119 2900 3481 
Q 2900 3844 2670 4047 
Q 2441 4250 2034 4250 
Q 1625 4250 1398 4047 
Q 1172 3844 1172 3481 
z
" transform="scale(0.015625)"/>
       </defs>
       <use xlink:href="#DejaVuSans-2212"/>
       <use xlink:href="#DejaVuSans-38" x="83.789062"/>
      </g>
     </g>
    </g>
    <g id="ytick_3">
     <g id="line2d_12">
      <g>
       <use xlink:href="#m80a4c3328f" x="126" y="571.21017" style="fill: #262626; stroke: #262626; stroke-width: 1.875"/>
      </g>
     </g>
     <g id="text_13">
      <!-- −6 -->
      <g style="fill: #262626" transform="translate(72.221875 581.847983)scale(0.28 -0.28)">
       <defs>
        <path id="DejaVuSans-36" d="M 2113 2584 
Q 1688 2584 1439 2293 
Q 1191 2003 1191 1497 
Q 1191 994 1439 701 
Q 1688 409 2113 409 
Q 2538 409 2786 701 
Q 3034 994 3034 1497 
Q 3034 2003 2786 2293 
Q 2538 2584 2113 2584 
z
M 3366 4563 
L 3366 3988 
Q 3128 4100 2886 4159 
Q 2644 4219 2406 4219 
Q 1781 4219 1451 3797 
Q 1122 3375 1075 2522 
Q 1259 2794 1537 2939 
Q 1816 3084 2150 3084 
Q 2853 3084 3261 2657 
Q 3669 2231 3669 1497 
Q 3669 778 3244 343 
Q 2819 -91 2113 -91 
Q 1303 -91 875 529 
Q 447 1150 447 2328 
Q 447 3434 972 4092 
Q 1497 4750 2381 4750 
Q 2619 4750 2861 4703 
Q 3103 4656 3366 4563 
z
" transform="scale(0.015625)"/>
       </defs>
       <use xlink:href="#DejaVuSans-2212"/>
       <use xlink:href="#DejaVuSans-36" x="83.789062"/>
      </g>
     </g>
    </g>
    <g id="ytick_4">
     <g id="line2d_13">
      <g>
       <use xlink:href="#m80a4c3328f" x="126" y="426.368053" style="fill: #262626; stroke: #262626; stroke-width: 1.875"/>
      </g>
     </g>
     <g id="text_14">
      <!-- −4 -->
      <g style="fill: #262626" transform="translate(72.221875 437.005866)scale(0.28 -0.28)">
       <defs>
        <path id="DejaVuSans-34" d="M 2419 4116 
L 825 1625 
L 2419 1625 
L 2419 4116 
z
M 2253 4666 
L 3047 4666 
L 3047 1625 
L 3713 1625 
L 3713 1100 
L 3047 1100 
L 3047 0 
L 2419 0 
L 2419 1100 
L 313 1100 
L 313 1709 
L 2253 4666 
z
" transform="scale(0.015625)"/>
       </defs>
       <use xlink:href="#DejaVuSans-2212"/>
       <use xlink:href="#DejaVuSans-34" x="83.789062"/>
      </g>
     </g>
    </g>
    <g id="ytick_5">
     <g id="line2d_14">
      <g>
       <use xlink:href="#m80a4c3328f" x="126" y="281.525936" style="fill: #262626; stroke: #262626; stroke-width: 1.875"/>
      </g>
     </g>
     <g id="text_15">
      <!-- −2 -->
      <g style="fill: #262626" transform="translate(72.221875 292.163749)scale(0.28 -0.28)">
       <use xlink:href="#DejaVuSans-2212"/>
       <use xlink:href="#DejaVuSans-32" x="83.789062"/>
      </g>
     </g>
    </g>
    <g id="ytick_6">
     <g id="line2d_15">
      <g>
       <use xlink:href="#m80a4c3328f" x="126" y="136.68382" style="fill: #262626; stroke: #262626; stroke-width: 1.875"/>
      </g>
     </g>
     <g id="text_16">
      <!-- 0 -->
      <g style="fill: #262626" transform="translate(95.685 147.321632)scale(0.28 -0.28)">
       <use xlink:href="#DejaVuSans-30"/>
      </g>
     </g>
    </g>
    <g id="text_17">
     <!-- Df(Z) [Hz] -->
     <g style="fill: #262626" transform="translate(44.58375 578.512812)rotate(-90)scale(0.28 -0.28)">
      <defs>
       <path id="DejaVuSans-44" d="M 1259 4147 
L 1259 519 
L 2022 519 
Q 2988 519 3436 956 
Q 3884 1394 3884 2338 
Q 3884 3275 3436 3711 
Q 2988 4147 2022 4147 
L 1259 4147 
z
M 628 4666 
L 1925 4666 
Q 3281 4666 3915 4102 
Q 4550 3538 4550 2338 
Q 4550 1131 3912 565 
Q 3275 0 1925 0 
L 628 0 
L 628 4666 
z
" transform="scale(0.015625)"/>
       <path id="DejaVuSans-66" d="M 2375 4863 
L 2375 4384 
L 1825 4384 
Q 1516 4384 1395 4259 
Q 1275 4134 1275 3809 
L 1275 3500 
L 2222 3500 
L 2222 3053 
L 1275 3053 
L 1275 0 
L 697 0 
L 697 3053 
L 147 3053 
L 147 3500 
L 697 3500 
L 697 3744 
Q 697 4328 969 4595 
Q 1241 4863 1831 4863 
L 2375 4863 
z
" transform="scale(0.015625)"/>
       <path id="DejaVuSans-28" d="M 1984 4856 
Q 1566 4138 1362 3434 
Q 1159 2731 1159 2009 
Q 1159 1288 1364 580 
Q 1569 -128 1984 -844 
L 1484 -844 
Q 1016 -109 783 600 
Q 550 1309 550 2009 
Q 550 2706 781 3412 
Q 1013 4119 1484 4856 
L 1984 4856 
z
" transform="scale(0.015625)"/>
       <path id="DejaVuSans-29" d="M 513 4856 
L 1013 4856 
Q 1481 4119 1714 3412 
Q 1947 2706 1947 2009 
Q 1947 1309 1714 600 
Q 1481 -109 1013 -844 
L 513 -844 
Q 928 -128 1133 580 
Q 1338 1288 1338 2009 
Q 1338 2731 1133 3434 
Q 928 4138 513 4856 
z
" transform="scale(0.015625)"/>
       <path id="DejaVuSans-48" d="M 628 4666 
L 1259 4666 
L 1259 2753 
L 3553 2753 
L 3553 4666 
L 4184 4666 
L 4184 0 
L 3553 0 
L 3553 2222 
L 1259 2222 
L 1259 0 
L 628 0 
L 628 4666 
z
" transform="scale(0.015625)"/>
       <path id="DejaVuSans-7a" d="M 353 3500 
L 3084 3500 
L 3084 2975 
L 922 459 
L 3084 459 
L 3084 0 
L 275 0 
L 275 525 
L 2438 3041 
L 353 3041 
L 353 3500 
z
" transform="scale(0.015625)"/>
      </defs>
      <use xlink:href="#DejaVuSans-44"/>
      <use xlink:href="#DejaVuSans-66" x="77.001953"/>
      <use xlink:href="#DejaVuSans-28" x="112.207031"/>
      <use xlink:href="#DejaVuSans-5a" x="151.220703"/>
      <use xlink:href="#DejaVuSans-29" x="219.726562"/>
      <use xlink:href="#DejaVuSans-20" x="258.740234"/>
      <use xlink:href="#DejaVuSans-5b" x="290.527344"/>
      <use xlink:href="#DejaVuSans-48" x="329.541016"/>
      <use xlink:href="#DejaVuSans-7a" x="404.736328"/>
      <use xlink:href="#DejaVuSans-5d" x="457.226562"/>
     </g>
    </g>
   </g>
   <g id="line2d_16">
    <path d="M 161.509091 861.84 
L 162.898879 853.24442 
L 164.288667 839.482023 
L 165.678456 829.898444 
L 167.068244 817.010837 
L 168.458032 808.976357 
L 171.237609 789.327963 
L 172.627397 781.944739 
L 174.017186 773.110392 
L 175.406974 761.934491 
L 176.796762 755.111131 
L 179.576339 737.712079 
L 180.966127 731.096611 
L 182.355915 726.355045 
L 183.745704 717.907664 
L 185.135492 710.915522 
L 186.52528 702.353286 
L 187.915068 697.845547 
L 192.084433 674.857309 
L 194.86401 661.438653 
L 197.643587 643.722207 
L 199.033375 632.976908 
L 200.423163 626.248643 
L 201.812951 615.810447 
L 203.20274 494.315952 
L 204.592528 495.890985 
L 205.982316 499.972651 
L 207.372105 500.308158 
L 210.151681 503.078257 
L 211.541469 503.11613 
L 212.931258 501.201473 
L 214.321046 497.991303 
L 215.710834 497.628214 
L 217.100623 494.319245 
L 218.490411 493.5025 
L 221.269988 486.421027 
L 222.659776 485.026715 
L 224.049564 482.884818 
L 225.439352 479.999453 
L 226.829141 476.444308 
L 228.218929 474.744951 
L 229.608717 470.428636 
L 230.998506 467.13531 
L 232.388294 464.17955 
L 233.778082 461.66592 
L 235.16787 457.426998 
L 236.557659 454.80551 
L 237.947447 450.224494 
L 239.337235 446.473807 
L 240.727024 444.207999 
L 242.116812 440.428908 
L 243.5066 436.199043 
L 246.286177 429.653146 
L 247.675965 426.598998 
L 249.065753 422.873423 
L 250.455542 420.798216 
L 251.84533 415.316475 
L 253.235118 413.037494 
L 254.624907 411.73416 
L 256.014695 406.641855 
L 257.404483 402.355591 
L 258.794271 400.930405 
L 261.573848 391.655987 
L 262.963636 391.145933 
L 264.353425 386.516341 
L 267.133001 381.00002 
L 268.52279 379.003441 
L 271.302366 372.81981 
L 272.692154 370.644568 
L 274.081943 367.19234 
L 275.471731 364.183475 
L 276.861519 363.120554 
L 278.251308 359.535357 
L 279.641096 357.493907 
L 281.030884 354.686346 
L 282.420672 349.802344 
L 285.200249 345.878758 
L 286.590037 343.468044 
L 287.979826 340.805801 
L 289.369614 336.538886 
L 290.759402 335.900804 
L 293.538979 329.250756 
L 294.928767 329.371374 
L 296.318555 324.531832 
L 297.708344 325.590224 
L 299.098132 319.972634 
L 300.48792 319.414827 
L 301.877709 317.242878 
L 303.267497 315.672374 
L 304.657285 313.482312 
L 306.047073 313.06406 
L 307.436862 309.878178 
L 308.82665 308.256216 
L 310.216438 305.470885 
L 311.606227 305.828211 
L 312.996015 302.77571 
L 314.385803 302.43238 
L 315.775592 300.870932 
L 317.16538 298.705982 
L 318.555168 298.536788 
L 319.944956 296.398184 
L 322.724533 294.397077 
L 324.114321 290.743132 
L 325.50411 291.630272 
L 326.893898 290.131808 
L 328.283686 289.27966 
L 329.673474 287.22339 
L 331.063263 286.810489 
L 332.453051 284.483755 
L 333.842839 284.797032 
L 335.232628 283.516752 
L 336.622416 281.565868 
L 338.012204 281.733828 
L 339.401993 278.580056 
L 340.791781 279.209905 
L 342.181569 276.46533 
L 343.571357 276.269788 
L 344.961146 276.522963 
L 346.350934 275.099011 
L 347.740722 273.150185 
L 349.130511 273.221404 
L 350.520299 270.882731 
L 351.910087 272.542567 
L 353.299875 269.383444 
L 354.689664 269.490889 
L 356.079452 268.669204 
L 357.46924 266.429742 
L 360.248817 266.573414 
L 361.638605 263.009624 
L 363.028394 264.599065 
L 365.80797 262.423412 
L 367.197758 262.722693 
L 368.587547 259.905252 
L 369.977335 259.770226 
L 371.367123 260.922478 
L 374.1467 257.848159 
L 375.536488 255.991958 
L 376.926276 255.654392 
L 378.316065 254.703856 
L 379.705853 253.422752 
L 381.095641 251.833722 
L 382.48543 251.723808 
L 383.875218 250.638657 
L 385.265006 250.391246 
L 388.044583 248.078919 
L 389.434371 247.895316 
L 390.824159 247.534285 
L 392.213948 244.242606 
L 393.603736 246.967422 
L 394.993524 244.275128 
L 396.383313 244.466141 
L 397.773101 243.121641 
L 400.552677 242.306131 
L 401.942466 241.03573 
L 403.332254 239.312909 
L 404.722042 240.649176 
L 406.111831 239.180764 
L 408.891407 238.093555 
L 410.281196 237.412249 
L 411.670984 239.017333 
L 413.060772 235.09951 
L 414.45056 236.479826 
L 415.840349 234.374567 
L 417.230137 234.508358 
L 420.009714 233.522007 
L 421.399502 233.933673 
L 422.78929 232.599464 
L 424.179078 231.811125 
L 425.568867 232.303888 
L 426.958655 230.548957 
L 428.348443 230.381821 
L 429.738232 229.889469 
L 431.12802 228.469222 
L 432.517808 227.730282 
L 433.907597 227.234637 
L 435.297385 226.611375 
L 436.687173 228.146476 
L 438.076961 225.269344 
L 439.46675 225.274284 
L 440.856538 226.40513 
L 442.246326 224.979532 
L 443.636115 224.506116 
L 445.025903 224.688896 
L 446.415691 222.094578 
L 447.805479 222.93273 
L 449.195268 222.217255 
L 450.585056 220.44421 
L 451.974844 221.284832 
L 453.364633 221.014368 
L 454.754421 221.459378 
L 456.144209 219.024375 
L 457.533998 218.564545 
L 458.923786 219.000499 
L 460.313574 218.497032 
L 461.703362 217.451812 
L 463.093151 217.704575 
L 464.482939 216.716989 
L 465.872727 217.557199 
L 467.262516 214.60926 
L 468.652304 216.17359 
L 470.042092 215.50875 
L 471.43188 214.184421 
L 472.821669 214.565624 
L 474.211457 214.795745 
L 475.601245 213.503115 
L 476.991034 212.947778 
L 478.380822 212.667433 
L 479.77061 212.504002 
L 481.160399 211.364099 
L 482.550187 212.405614 
L 483.939975 212.365271 
L 485.329763 209.903921 
L 486.719552 210.207319 
L 488.10934 209.939324 
L 489.499128 209.838055 
L 490.888917 208.949268 
L 492.278705 210.288829 
L 493.668493 209.113111 
L 495.058281 209.792771 
L 496.44807 207.907342 
L 497.837858 207.834889 
L 499.227646 207.964564 
L 500.617435 207.044491 
L 502.007223 207.509673 
L 503.397011 206.546787 
L 504.7868 206.361949 
L 506.176588 206.83907 
L 507.566376 206.712688 
L 508.956164 204.515628 
L 510.345953 204.541152 
L 511.735741 205.729631 
L 513.125529 203.499637 
L 514.515318 202.132907 
L 515.905106 205.576079 
L 517.294894 201.121444 
L 518.684682 203.507459 
L 520.074471 201.605152 
L 521.464259 203.150545 
L 522.854047 200.468131 
L 524.243836 201.339216 
L 525.633624 200.517531 
L 527.023412 200.939488 
L 528.4132 200.005007 
L 529.802989 198.699615 
L 531.192777 199.704079 
L 535.362142 198.479785 
L 536.75193 199.514713 
L 538.141719 198.217143 
L 539.531507 197.80877 
L 540.921295 198.464554 
L 542.311083 197.288837 
L 543.700872 197.570416 
L 546.480448 197.712029 
L 547.870237 197.329591 
L 549.260025 196.013908 
L 550.649813 196.688628 
L 552.039601 196.141524 
L 553.42939 196.034491 
L 554.819178 196.191336 
L 556.208966 195.519497 
L 557.598755 195.619532 
L 558.988543 195.998676 
L 560.378331 195.270028 
L 561.76812 194.355718 
L 563.157908 194.738979 
L 565.937484 193.302266 
L 567.327273 193.471872 
L 568.717061 195.649584 
L 570.106849 191.754814 
L 571.496638 192.819793 
L 572.886426 192.217115 
L 574.276214 190.981294 
L 575.666002 191.534161 
L 577.055791 191.348912 
L 579.835367 192.049155 
L 581.225156 191.841264 
L 582.614944 189.441253 
L 584.004732 191.178482 
L 585.394521 188.885916 
L 586.784309 191.063216 
L 588.174097 189.960775 
L 589.563885 189.857858 
L 590.953674 189.885028 
L 592.343462 188.271299 
L 593.73325 188.618333 
L 595.123039 189.395558 
L 596.512827 188.179086 
L 597.902615 187.393627 
L 599.292403 188.126804 
L 600.682192 189.87062 
L 602.07198 187.226491 
L 603.461768 187.211671 
L 604.851557 187.605635 
L 606.241345 186.998428 
L 607.631133 186.655511 
L 609.020922 186.472319 
L 610.41071 186.795889 
L 611.800498 185.014611 
L 613.190286 185.106001 
L 614.580075 185.914101 
L 615.969863 185.846999 
L 617.359651 184.941746 
L 618.74944 185.114646 
L 620.139228 183.745857 
L 622.918804 184.313956 
L 624.308593 184.389291 
L 625.698381 185.879109 
L 627.088169 184.073132 
L 628.477958 183.090897 
L 629.867746 184.197043 
L 631.257534 184.883701 
L 632.647323 184.566307 
L 634.037111 183.768087 
L 635.426899 184.62888 
L 636.816687 184.241915 
L 638.206476 182.957929 
L 639.596264 184.97715 
L 640.986052 184.101948 
L 642.375841 185.059894 
L 643.765629 182.192643 
L 646.545205 183.859065 
L 647.934994 184.076013 
L 650.71457 182.337961 
L 652.104359 184.411933 
L 653.494147 182.526915 
L 654.883935 183.777556 
L 656.273724 183.325958 
L 657.663512 182.41453 
L 659.0533 182.760741 
L 660.443088 181.681354 
L 661.832877 183.686166 
L 663.222665 183.585719 
L 664.612453 180.848966 
L 666.002242 182.096724 
L 667.39203 183.045202 
L 668.781818 180.148311 
L 670.171606 181.175828 
L 671.561395 181.760805 
L 672.951183 181.502279 
L 674.340971 180.409718 
L 675.73076 181.206291 
L 677.120548 179.347621 
L 679.900125 180.794214 
L 681.289913 180.683888 
L 682.679701 179.895959 
L 684.069489 180.013696 
L 685.459278 181.140837 
L 686.849066 180.940355 
L 688.238854 179.679835 
L 689.628643 180.429478 
L 692.408219 179.222886 
L 693.798007 178.834274 
L 695.187796 179.068511 
L 696.577584 181.083615 
L 697.967372 179.203949 
L 699.357161 179.385082 
L 700.746949 179.70577 
L 702.136737 178.725594 
L 703.526526 178.917842 
L 704.916314 177.499653 
L 706.306102 179.351737 
L 707.69589 179.184189 
L 709.085679 177.742536 
L 711.865255 179.49088 
L 713.255044 177.63962 
L 714.644832 177.512003 
L 716.03462 178.033172 
L 717.424408 177.174437 
L 718.814197 177.107747 
L 720.203985 177.355159 
L 721.593773 176.147331 
L 722.983562 178.614856 
L 724.37335 174.277134 
L 725.763138 176.582874 
L 727.152927 176.422324 
L 728.542715 175.065474 
L 729.932503 175.426093 
L 731.322291 176.215668 
L 732.71208 173.896755 
L 734.101868 175.319883 
L 735.491656 173.637405 
L 736.881445 175.035011 
L 738.271233 172.898877 
L 739.661021 174.448387 
L 741.050809 172.831776 
L 742.440598 172.852359 
L 743.830386 173.210096 
L 745.220174 172.824777 
L 746.609963 171.72069 
L 747.999751 171.588545 
L 749.389539 172.365358 
L 750.779328 170.718695 
L 752.169116 171.726865 
L 753.558904 172.012972 
L 754.948692 170.577906 
L 756.338481 171.593073 
L 757.728269 169.563973 
L 759.118057 171.227103 
L 760.507846 169.96123 
L 761.897634 169.54092 
L 763.287422 169.747576 
L 764.67721 168.240468 
L 766.066999 170.203702 
L 767.456787 167.851444 
L 768.846575 168.468942 
L 770.236364 167.953125 
L 771.626152 167.851855 
L 773.01594 166.543993 
L 774.405729 167.510173 
L 775.795517 166.168554 
L 777.185305 166.428727 
L 778.575093 167.292402 
L 779.964882 165.791057 
L 781.35467 165.739187 
L 782.744458 165.911263 
L 784.134247 165.280591 
L 785.524035 165.662617 
L 786.913823 164.1411 
L 789.6934 165.089167 
L 791.083188 163.938561 
L 792.472976 164.947142 
L 793.862765 163.831116 
L 795.252553 163.101644 
L 796.642341 162.876463 
L 798.03213 163.415334 
L 799.421918 163.365522 
L 800.811706 163.754546 
L 802.201494 161.046609 
L 803.591283 163.234612 
L 804.981071 160.952749 
L 806.370859 162.601471 
L 807.760648 160.339779 
L 809.150436 161.517143 
L 810.540224 162.99173 
L 811.930012 159.650651 
L 813.319801 164.015954 
L 814.709589 160.976214 
L 816.099377 161.892994 
L 817.489166 159.476104 
L 818.878954 161.865412 
L 820.268742 162.617114 
L 821.658531 161.246267 
L 824.438107 160.654292 
L 825.827895 161.510145 
L 827.217684 160.793435 
L 828.607472 161.669459 
L 829.99726 158.514041 
L 831.387049 160.442284 
L 832.776837 160.123243 
L 834.166625 160.08537 
L 835.556413 158.502103 
L 836.946202 161.144997 
L 838.33599 159.986981 
L 839.725778 159.279328 
L 841.115567 161.51385 
L 842.505355 160.039675 
L 843.895143 159.811612 
L 845.284932 160.408527 
L 846.67472 158.143542 
L 848.064508 160.336074 
L 849.454296 159.931407 
L 850.844085 160.158234 
L 852.233873 158.735929 
L 853.623661 161.249149 
L 855.01345 160.070961 
L 856.403238 159.87542 
L 857.793026 159.951167 
L 859.182814 160.506092 
L 860.572603 159.231163 
L 861.962391 159.171883 
L 863.352179 161.828774 
L 864.741968 158.886187 
L 866.131756 158.393423 
L 867.521544 159.346841 
L 868.911333 157.684123 
L 870.301121 159.466636 
L 871.690909 158.288449 
L 871.690909 158.288449 
" clip-path="url(#p0ca7af7b29)" style="fill: none; stroke: #90ee90; stroke-width: 2.25; stroke-linecap: round"/>
   </g>
   <g id="line2d_17">
    <path d="M 161.509091 857.518745 
L 165.678456 817.922677 
L 168.458032 804.793422 
L 171.237609 794.601813 
L 172.627397 792.261905 
L 174.017186 788.787858 
L 175.406974 783.706668 
L 176.796762 781.966557 
L 178.18655 772.349222 
L 179.576339 768.30543 
L 180.966127 761.904851 
L 182.355915 756.973095 
L 185.135492 741.292748 
L 186.52528 732.535794 
L 187.915068 724.605877 
L 189.304857 699.579894 
L 190.694645 690.957556 
L 192.084433 680.875862 
L 193.474222 672.961177 
L 194.86401 663.27427 
L 196.253798 649.884431 
L 197.643587 642.384293 
L 199.033375 632.812242 
L 200.423163 621.346939 
L 203.20274 602.271584 
L 204.592528 592.553392 
L 205.982316 583.745392 
L 208.761893 564.968083 
L 211.541469 547.945705 
L 212.931258 540.076303 
L 214.321046 534.135143 
L 218.490411 510.938602 
L 219.880199 504.589893 
L 221.269988 496.154451 
L 222.659776 492.274913 
L 224.049564 485.576288 
L 225.439352 481.498328 
L 226.829141 473.188443 
L 228.218929 467.334968 
L 229.608717 463.284178 
L 230.998506 457.340548 
L 232.388294 453.747941 
L 233.778082 450.471082 
L 235.16787 444.763748 
L 236.557659 440.492304 
L 237.947447 437.738672 
L 239.337235 430.532464 
L 240.727024 427.987546 
L 242.116812 422.109371 
L 243.5066 418.91855 
L 244.896389 414.534722 
L 246.286177 411.349664 
L 247.675965 407.477948 
L 249.065753 404.089527 
L 250.455542 399.471461 
L 251.84533 398.014988 
L 254.624907 390.272379 
L 256.014695 387.380427 
L 257.404483 384.834274 
L 258.794271 381.235493 
L 260.18406 377.98992 
L 262.963636 372.423376 
L 264.353425 368.899929 
L 265.743213 367.69169 
L 267.133001 363.890781 
L 268.52279 360.834162 
L 269.912578 359.939613 
L 271.302366 356.697745 
L 272.692154 354.506449 
L 274.081943 352.602083 
L 275.471731 347.718492 
L 276.861519 347.404391 
L 278.251308 344.650759 
L 279.641096 342.235105 
L 281.030884 341.029336 
L 282.420672 337.298821 
L 283.810461 336.482488 
L 285.200249 335.828763 
L 286.590037 331.73804 
L 287.979826 329.287394 
L 289.369614 328.146257 
L 292.149191 323.577179 
L 294.928767 319.728104 
L 296.318555 316.684248 
L 297.708344 315.424139 
L 299.098132 314.49748 
L 300.48792 310.780961 
L 301.877709 310.816365 
L 303.267497 309.672757 
L 304.657285 308.345547 
L 306.047073 308.341842 
L 307.436862 305.905193 
L 308.82665 303.806932 
L 310.216438 301.96514 
L 311.606227 301.01625 
L 312.996015 298.576719 
L 314.385803 299.788251 
L 315.775592 298.239565 
L 317.16538 296.408887 
L 318.555168 293.426781 
L 319.944956 292.23789 
L 321.334745 291.647973 
L 322.724533 292.023001 
L 324.114321 290.386218 
L 325.50411 290.852223 
L 326.893898 286.911347 
L 329.673474 284.374252 
L 331.063263 282.979528 
L 332.453051 282.89102 
L 333.842839 278.195972 
L 335.232628 280.462192 
L 336.622416 276.977853 
L 338.012204 278.695323 
L 339.401993 275.349304 
L 340.791781 274.467104 
L 343.571357 271.045339 
L 344.961146 269.019532 
L 346.350934 271.116145 
L 347.740722 267.819526 
L 349.130511 267.057944 
L 350.520299 268.194142 
L 351.910087 267.693145 
L 353.299875 266.890808 
L 354.689664 267.915032 
L 356.079452 266.656982 
L 357.46924 266.753312 
L 360.248817 267.423503 
L 361.638605 266.287306 
L 363.028394 266.73067 
L 364.418182 266.685387 
L 365.80797 264.455805 
L 367.197758 263.93546 
L 368.587547 263.644824 
L 369.977335 262.782796 
L 372.756912 259.093859 
L 374.1467 260.803919 
L 375.536488 257.264005 
L 376.926276 259.365559 
L 378.316065 255.754427 
L 379.705853 254.416101 
L 381.095641 254.9348 
L 383.875218 250.999276 
L 385.265006 252.453691 
L 386.654795 250.753511 
L 388.044583 248.206124 
L 389.434371 248.907191 
L 390.824159 247.492296 
L 392.213948 246.46025 
L 393.603736 245.801173 
L 394.993524 245.300999 
L 396.383313 242.954916 
L 397.773101 243.329532 
L 399.162889 241.860297 
L 400.552677 242.398755 
L 401.942466 239.927938 
L 403.332254 238.785977 
L 404.722042 239.285739 
L 406.111831 237.552627 
L 407.501619 238.676886 
L 408.891407 235.368328 
L 410.281196 236.961886 
L 411.670984 236.681953 
L 413.060772 235.712069 
L 414.45056 235.388088 
L 415.840349 235.334983 
L 417.230137 233.614632 
L 418.619925 233.888802 
L 420.009714 232.323237 
L 421.399502 232.727081 
L 422.78929 232.000079 
L 424.179078 230.679867 
L 425.568867 230.187515 
L 426.958655 231.51102 
L 428.348443 230.109298 
L 429.738232 230.611531 
L 431.12802 228.08308 
L 432.517808 228.356837 
L 433.907597 227.467639 
L 435.297385 227.955463 
L 436.687173 227.143247 
L 438.076961 224.181724 
L 439.46675 226.912714 
L 440.856538 223.511943 
L 442.246326 224.388791 
L 443.636115 224.194485 
L 445.025903 224.484298 
L 446.415691 222.471253 
L 447.805479 222.148095 
L 449.195268 222.301235 
L 450.585056 222.73266 
L 453.364633 220.838586 
L 454.754421 220.548362 
L 456.144209 219.229797 
L 457.533998 220.181979 
L 458.923786 219.866643 
L 460.313574 218.939984 
L 461.703362 216.396301 
L 463.093151 219.306366 
L 464.482939 217.015035 
L 465.872727 216.933113 
L 467.262516 216.172767 
L 468.652304 216.836372 
L 470.042092 215.763159 
L 471.43188 216.242338 
L 472.821669 214.578385 
L 474.211457 216.490573 
L 475.601245 214.034575 
L 476.991034 213.653784 
L 478.380822 215.194237 
L 479.77061 213.231827 
L 481.160399 212.035938 
L 482.550187 213.199305 
L 483.939975 212.855153 
L 485.329763 211.786057 
L 486.719552 211.737892 
L 488.10934 211.524649 
L 489.499128 210.893977 
L 492.278705 211.310171 
L 493.668493 207.445453 
L 495.058281 210.403683 
L 496.44807 209.181036 
L 497.837858 209.571707 
L 500.617435 208.376641 
L 502.007223 207.30631 
L 503.397011 208.09465 
L 504.7868 208.517431 
L 506.176588 208.33177 
L 507.566376 206.13965 
L 508.956164 207.188162 
L 510.345953 205.308085 
L 511.735741 206.029735 
L 513.125529 205.93958 
L 514.515318 205.458343 
L 515.905106 203.708764 
L 517.294894 203.541216 
L 518.684682 204.597138 
L 520.074471 204.324616 
L 521.464259 202.818742 
L 522.854047 203.13696 
L 524.243836 202.273697 
L 525.633624 203.566327 
L 527.023412 200.457016 
L 528.4132 203.130785 
L 529.802989 201.878498 
L 531.192777 201.724946 
L 532.582565 202.450301 
L 533.972354 200.607686 
L 535.362142 201.240004 
L 536.75193 200.015299 
L 538.141719 199.073407 
L 540.921295 200.186552 
L 542.311083 199.357457 
L 543.700872 199.362808 
L 545.09066 199.006306 
L 546.480448 197.781189 
L 547.870237 197.634224 
L 549.260025 198.555944 
L 550.649813 197.045954 
L 552.039601 196.076481 
L 553.42939 198.346817 
L 554.819178 196.532195 
L 556.208966 195.673049 
L 557.598755 197.160397 
L 558.988543 196.438747 
L 560.378331 196.59518 
L 561.76812 194.503095 
L 563.157908 195.998676 
L 564.547696 195.335894 
L 565.937484 194.874829 
L 567.327273 194.118599 
L 568.717061 195.211983 
L 570.106849 194.181584 
L 571.496638 195.20375 
L 572.886426 192.469878 
L 574.276214 192.859725 
L 575.666002 193.093963 
L 577.055791 194.473455 
L 578.445579 190.993644 
L 579.835367 194.088959 
L 581.225156 192.93753 
L 582.614944 192.141368 
L 584.004732 192.412244 
L 586.784309 191.176012 
L 588.174097 190.862323 
L 589.563885 191.654368 
L 590.953674 191.297454 
L 592.343462 189.825749 
L 593.73325 190.384791 
L 595.123039 189.829865 
L 596.512827 190.530932 
L 597.902615 189.794874 
L 599.292403 189.374151 
L 600.682192 189.607154 
L 602.07198 187.650918 
L 603.461768 189.920843 
L 604.851557 187.175445 
L 606.241345 189.99165 
L 607.631133 187.71308 
L 609.020922 188.561111 
L 610.41071 188.266359 
L 611.800498 186.623812 
L 614.580075 187.410094 
L 615.969863 187.643097 
L 617.359651 186.562886 
L 618.74944 186.350055 
L 620.139228 186.725494 
L 621.529016 188.538881 
L 622.918804 185.390462 
L 625.698381 185.596706 
L 627.088169 184.447336 
L 628.477958 184.444866 
L 629.867746 185.384699 
L 631.257534 185.955679 
L 632.647323 183.896939 
L 634.037111 184.036082 
L 635.426899 184.803427 
L 636.816687 183.773027 
L 639.596264 184.392173 
L 640.986052 181.503102 
L 642.375841 185.992729 
L 643.765629 183.332957 
L 645.155417 183.322253 
L 646.545205 183.590248 
L 647.934994 183.062904 
L 649.324782 183.23251 
L 650.71457 181.81638 
L 652.104359 182.873538 
L 653.494147 182.097136 
L 654.883935 183.570899 
L 656.273724 183.647058 
L 657.663512 180.776101 
L 659.0533 182.266742 
L 660.443088 182.607602 
L 661.832877 181.402656 
L 663.222665 181.380838 
L 664.612453 182.638888 
L 666.002242 180.711881 
L 667.39203 180.926359 
L 668.781818 182.56273 
L 670.171606 181.278333 
L 671.561395 180.378432 
L 675.73076 179.956474 
L 677.120548 181.65089 
L 678.510336 178.72477 
L 679.900125 180.955587 
L 681.289913 180.621726 
L 682.679701 179.298221 
L 684.069489 179.687657 
L 685.459278 178.905903 
L 686.849066 179.353796 
L 688.238854 178.586451 
L 691.018431 180.535688 
L 692.408219 178.131148 
L 693.798007 178.698424 
L 695.187796 179.113795 
L 696.577584 177.122979 
L 697.967372 178.71242 
L 699.357161 179.251703 
L 700.746949 177.430905 
L 702.136737 178.096157 
L 703.526526 178.564221 
L 704.916314 176.652445 
L 706.306102 177.952486 
L 709.085679 176.579992 
L 710.475467 178.986178 
L 711.865255 176.981778 
L 713.255044 177.777528 
L 714.644832 177.748299 
L 716.03462 177.304112 
L 717.424408 175.715906 
L 721.593773 177.122567 
L 722.983562 175.804825 
L 724.37335 177.086341 
L 725.763138 176.289356 
L 727.152927 176.250659 
L 728.542715 177.677493 
L 729.932503 175.305887 
L 732.71208 176.918793 
L 734.101868 174.67151 
L 736.881445 177.025003 
L 738.271233 175.052712 
L 739.661021 174.783894 
L 741.050809 176.046473 
L 742.440598 174.165161 
L 743.830386 174.151988 
L 745.220174 175.116932 
L 746.609963 174.517958 
L 747.999751 174.165161 
L 749.389539 174.937857 
L 750.779328 174.904101 
L 752.169116 174.228557 
L 753.558904 173.033903 
L 754.948692 175.601051 
L 756.338481 172.913697 
L 757.728269 173.911986 
L 759.118057 174.409279 
L 760.507846 172.662581 
L 761.897634 172.800489 
L 763.287422 174.58012 
L 764.67721 170.851252 
L 766.066999 173.376409 
L 767.456787 175.324412 
L 768.846575 171.664292 
L 770.236364 173.409754 
L 771.626152 171.642885 
L 774.405729 172.618944 
L 775.795517 168.808155 
L 777.185305 168.954296 
L 778.575093 168.973644 
L 779.964882 169.133782 
L 781.35467 167.447599 
L 782.744458 168.869081 
L 784.134247 167.722181 
L 785.524035 166.344335 
L 786.913823 166.603273 
L 788.303611 168.812271 
L 789.6934 167.05734 
L 791.083188 165.91785 
L 792.472976 166.64444 
L 793.862765 166.67902 
L 795.252553 163.563122 
L 796.642341 166.027353 
L 798.03213 166.45672 
L 799.421918 164.40292 
L 800.811706 166.978712 
L 802.201494 164.914209 
L 803.591283 165.815757 
L 804.981071 163.42933 
L 806.370859 165.322581 
L 807.760648 164.469198 
L 809.150436 163.324356 
L 810.540224 162.650047 
L 811.930012 164.566763 
L 813.319801 164.631394 
L 814.709589 163.125933 
L 816.099377 162.331829 
L 817.489166 163.703088 
L 818.878954 165.55229 
L 820.268742 163.381577 
L 821.658531 162.6978 
L 823.048319 162.883873 
L 824.438107 163.53801 
L 825.827895 162.11694 
L 827.217684 162.557011 
L 828.607472 162.352413 
L 829.99726 162.460269 
L 831.387049 161.45457 
L 834.166625 161.711449 
L 835.556413 159.692229 
L 836.946202 161.1804 
L 838.33599 158.902242 
L 839.725778 160.675698 
L 841.115567 160.786848 
L 842.505355 160.605303 
L 843.895143 160.230276 
L 845.284932 161.052784 
L 846.67472 159.645299 
L 848.064508 159.225812 
L 849.454296 160.287497 
L 850.844085 160.324547 
L 852.233873 159.761389 
L 853.623661 159.88283 
L 855.01345 158.432532 
L 856.403238 158.862311 
L 857.793026 158.572086 
L 859.182814 158.728519 
L 860.572603 157.780041 
L 861.962391 158.711229 
L 863.352179 158.794386 
L 866.131756 158.134897 
L 867.521544 157.028752 
L 868.911333 156.4129 
L 870.301121 159.085434 
L 871.690909 156.24 
L 871.690909 156.24 
" clip-path="url(#p0ca7af7b29)" style="fill: none; stroke: #ffdb58; stroke-width: 2.25; stroke-linecap: round"/>
   </g>
   <g id="patch_3">
    <path d="M 126 897.12 
L 126 120.96 
" style="fill: none; stroke: #262626; stroke-width: 1.875; stroke-linejoin: miter; stroke-linecap: square"/>
   </g>
   <g id="patch_4">
    <path d="M 907.2 897.12 
L 907.2 120.96 
" style="fill: none; stroke: #262626; stroke-width: 1.875; stroke-linejoin: miter; stroke-linecap: square"/>
   </g>
   <g id="patch_5">
    <path d="M 126 897.12 
L 907.2 897.12 
" style="fill: none; stroke: #262626; stroke-width: 1.875; stroke-linejoin: miter; stroke-linecap: square"/>
   </g>
   <g id="patch_6">
    <path d="M 126 120.96 
L 907.2 120.96 
" style="fill: none; stroke: #262626; stroke-width: 1.875; stroke-linejoin: miter; stroke-linecap: square"/>
   </g>
   <g id="text_18">
    <!-- Df(Z) -->
    <g style="fill: #262626" transform="translate(477.789844 114.720938)scale(0.3 -0.3)">
     <use xlink:href="#DejaVuSans-44"/>
     <use xlink:href="#DejaVuSans-66" x="77.001953"/>
     <use xlink:href="#DejaVuSans-28" x="112.207031"/>
     <use xlink:href="#DejaVuSans-5a" x="151.220703"/>
     <use xlink:href="#DejaVuSans-29" x="219.726562"/>
    </g>
   </g>
   <g id="legend_1">
    <g id="patch_7">
     <path d="M 137.55 182.597813 
L 271.029844 182.597813 
Q 274.329844 182.597813 274.329844 179.297813 
L 274.329844 132.51 
Q 274.329844 129.21 271.029844 129.21 
L 137.55 129.21 
Q 134.25 129.21 134.25 132.51 
L 134.25 179.297813 
Q 134.25 182.597813 137.55 182.597813 
z
" style="fill: #ffffff; opacity: 0.8; stroke: #cccccc; stroke-width: 1.5; stroke-linejoin: miter"/>
    </g>
    <g id="line2d_18">
     <path d="M 140.85 142.572422 
L 157.35 142.572422 
L 173.85 142.572422 
" style="fill: none; stroke: #90ee90; stroke-width: 2.25; stroke-linecap: round"/>
    </g>
    <g id="text_19">
     <!-- df trace -->
     <g style="fill: #262626" transform="translate(187.05 148.347422)scale(0.165 -0.165)">
      <defs>
       <path id="DejaVuSans-64" d="M 2906 2969 
L 2906 4863 
L 3481 4863 
L 3481 0 
L 2906 0 
L 2906 525 
Q 2725 213 2448 61 
Q 2172 -91 1784 -91 
Q 1150 -91 751 415 
Q 353 922 353 1747 
Q 353 2572 751 3078 
Q 1150 3584 1784 3584 
Q 2172 3584 2448 3432 
Q 2725 3281 2906 2969 
z
M 947 1747 
Q 947 1113 1208 752 
Q 1469 391 1925 391 
Q 2381 391 2643 752 
Q 2906 1113 2906 1747 
Q 2906 2381 2643 2742 
Q 2381 3103 1925 3103 
Q 1469 3103 1208 2742 
Q 947 2381 947 1747 
z
" transform="scale(0.015625)"/>
       <path id="DejaVuSans-74" d="M 1172 4494 
L 1172 3500 
L 2356 3500 
L 2356 3053 
L 1172 3053 
L 1172 1153 
Q 1172 725 1289 603 
Q 1406 481 1766 481 
L 2356 481 
L 2356 0 
L 1766 0 
Q 1100 0 847 248 
Q 594 497 594 1153 
L 594 3053 
L 172 3053 
L 172 3500 
L 594 3500 
L 594 4494 
L 1172 4494 
z
" transform="scale(0.015625)"/>
       <path id="DejaVuSans-72" d="M 2631 2963 
Q 2534 3019 2420 3045 
Q 2306 3072 2169 3072 
Q 1681 3072 1420 2755 
Q 1159 2438 1159 1844 
L 1159 0 
L 581 0 
L 581 3500 
L 1159 3500 
L 1159 2956 
Q 1341 3275 1631 3429 
Q 1922 3584 2338 3584 
Q 2397 3584 2469 3576 
Q 2541 3569 2628 3553 
L 2631 2963 
z
" transform="scale(0.015625)"/>
       <path id="DejaVuSans-61" d="M 2194 1759 
Q 1497 1759 1228 1600 
Q 959 1441 959 1056 
Q 959 750 1161 570 
Q 1363 391 1709 391 
Q 2188 391 2477 730 
Q 2766 1069 2766 1631 
L 2766 1759 
L 2194 1759 
z
M 3341 1997 
L 3341 0 
L 2766 0 
L 2766 531 
Q 2569 213 2275 61 
Q 1981 -91 1556 -91 
Q 1019 -91 701 211 
Q 384 513 384 1019 
Q 384 1609 779 1909 
Q 1175 2209 1959 2209 
L 2766 2209 
L 2766 2266 
Q 2766 2663 2505 2880 
Q 2244 3097 1772 3097 
Q 1472 3097 1187 3025 
Q 903 2953 641 2809 
L 641 3341 
Q 956 3463 1253 3523 
Q 1550 3584 1831 3584 
Q 2591 3584 2966 3190 
Q 3341 2797 3341 1997 
z
" transform="scale(0.015625)"/>
       <path id="DejaVuSans-63" d="M 3122 3366 
L 3122 2828 
Q 2878 2963 2633 3030 
Q 2388 3097 2138 3097 
Q 1578 3097 1268 2742 
Q 959 2388 959 1747 
Q 959 1106 1268 751 
Q 1578 397 2138 397 
Q 2388 397 2633 464 
Q 2878 531 3122 666 
L 3122 134 
Q 2881 22 2623 -34 
Q 2366 -91 2075 -91 
Q 1284 -91 818 406 
Q 353 903 353 1747 
Q 353 2603 823 3093 
Q 1294 3584 2113 3584 
Q 2378 3584 2631 3529 
Q 2884 3475 3122 3366 
z
" transform="scale(0.015625)"/>
       <path id="DejaVuSans-65" d="M 3597 1894 
L 3597 1613 
L 953 1613 
Q 991 1019 1311 708 
Q 1631 397 2203 397 
Q 2534 397 2845 478 
Q 3156 559 3463 722 
L 3463 178 
Q 3153 47 2828 -22 
Q 2503 -91 2169 -91 
Q 1331 -91 842 396 
Q 353 884 353 1716 
Q 353 2575 817 3079 
Q 1281 3584 2069 3584 
Q 2775 3584 3186 3129 
Q 3597 2675 3597 1894 
z
M 3022 2063 
Q 3016 2534 2758 2815 
Q 2500 3097 2075 3097 
Q 1594 3097 1305 2825 
Q 1016 2553 972 2059 
L 3022 2063 
z
" transform="scale(0.015625)"/>
      </defs>
      <use xlink:href="#DejaVuSans-64"/>
      <use xlink:href="#DejaVuSans-66" x="63.476562"/>
      <use xlink:href="#DejaVuSans-20" x="98.681641"/>
      <use xlink:href="#DejaVuSans-74" x="130.46875"/>
      <use xlink:href="#DejaVuSans-72" x="169.677734"/>
      <use xlink:href="#DejaVuSans-61" x="210.791016"/>
      <use xlink:href="#DejaVuSans-63" x="272.070312"/>
      <use xlink:href="#DejaVuSans-65" x="327.050781"/>
     </g>
    </g>
    <g id="line2d_19">
     <path d="M 140.85 166.791328 
L 157.35 166.791328 
L 173.85 166.791328 
" style="fill: none; stroke: #ffdb58; stroke-width: 2.25; stroke-linecap: round"/>
    </g>
    <g id="text_20">
     <!-- df retrace -->
     <g style="fill: #262626" transform="translate(187.05 172.566328)scale(0.165 -0.165)">
      <use xlink:href="#DejaVuSans-64"/>
      <use xlink:href="#DejaVuSans-66" x="63.476562"/>
      <use xlink:href="#DejaVuSans-20" x="98.681641"/>
      <use xlink:href="#DejaVuSans-72" x="130.46875"/>
      <use xlink:href="#DejaVuSans-65" x="169.332031"/>
      <use xlink:href="#DejaVuSans-74" x="230.855469"/>
      <use xlink:href="#DejaVuSans-72" x="270.064453"/>
      <use xlink:href="#DejaVuSans-61" x="311.177734"/>
      <use xlink:href="#DejaVuSans-63" x="372.457031"/>
      <use xlink:href="#DejaVuSans-65" x="427.4375"/>
     </g>
    </g>
   </g>
  </g>
 </g>
 <defs>
  <clipPath id="p0ca7af7b29">
   <rect x="126" y="120.96" width="781.2" height="776.16"/>
  </clipPath>
 </defs>
</svg>
