<?xml version="1.0" encoding="utf-8" standalone="no"?>
<!DOCTYPE svg PUBLIC "-//W3C//DTD SVG 1.1//EN"
  "http://www.w3.org/Graphics/SVG/1.1/DTD/svg11.dtd">
<svg xmlns:xlink="http://www.w3.org/1999/xlink" width="1728pt" height="1008pt" viewBox="0 0 1728 1008" xmlns="http://www.w3.org/2000/svg" version="1.1">
 <metadata>
  <rdf:RDF xmlns:dc="http://purl.org/dc/elements/1.1/" xmlns:cc="http://creativecommons.org/ns#" xmlns:rdf="http://www.w3.org/1999/02/22-rdf-syntax-ns#">
   <cc:Work>
    <dc:type rdf:resource="http://purl.org/dc/dcmitype/StillImage"/>
    <dc:date>2022-10-31T12:34:44.629488</dc:date>
    <dc:format>image/svg+xml</dc:format>
    <dc:creator>
     <cc:Agent>
      <dc:title>Matplotlib v3.5.2, https://matplotlib.org/</dc:title>
     </cc:Agent>
    </dc:creator>
   </cc:Work>
  </rdf:RDF>
 </metadata>
 <defs>
  <style type="text/css">*{stroke-linejoin: round; stroke-linecap: butt}</style>
 </defs>
 <g id="figure_1">
  <g id="patch_1">
   <path d="M 0 1008 
L 1728 1008 
L 1728 0 
L 0 0 
z
" style="fill: #ffffff"/>
  </g>
  <g id="axes_1">
   <g id="patch_2">
    <path d="M 216 897.12 
L 1555.2 897.12 
L 1555.2 120.96 
L 216 120.96 
L 216 897.12 
z
" style="fill: none"/>
   </g>
   <g id="matplotlib.axis_1">
    <g id="xtick_1">
     <g id="line2d_1">
      <defs>
       <path id="m40decfe3f4" d="M 0 0 
L 0 9 
" style="stroke: #262626; stroke-width: 1.875"/>
      </defs>
      <g>
       <use xlink:href="#m40decfe3f4" x="458.399223" y="897.12" style="fill: #262626; stroke: #262626; stroke-width: 1.875"/>
      </g>
     </g>
     <g id="text_1">
      <!-- 0.0 -->
      <g style="fill: #262626" transform="translate(420.231723 946.0925)scale(0.48 -0.48)">
       <defs>
        <path id="DejaVuSans-30" d="M 2034 4250 
Q 1547 4250 1301 3770 
Q 1056 3291 1056 2328 
Q 1056 1369 1301 889 
Q 1547 409 2034 409 
Q 2525 409 2770 889 
Q 3016 1369 3016 2328 
Q 3016 3291 2770 3770 
Q 2525 4250 2034 4250 
z
M 2034 4750 
Q 2819 4750 3233 4129 
Q 3647 3509 3647 2328 
Q 3647 1150 3233 529 
Q 2819 -91 2034 -91 
Q 1250 -91 836 529 
Q 422 1150 422 2328 
Q 422 3509 836 4129 
Q 1250 4750 2034 4750 
z
" transform="scale(0.015625)"/>
        <path id="DejaVuSans-2e" d="M 684 794 
L 1344 794 
L 1344 0 
L 684 0 
L 684 794 
z
" transform="scale(0.015625)"/>
       </defs>
       <use xlink:href="#DejaVuSans-30"/>
       <use xlink:href="#DejaVuSans-2e" x="63.623047"/>
       <use xlink:href="#DejaVuSans-30" x="95.410156"/>
      </g>
     </g>
    </g>
    <g id="xtick_2">
     <g id="line2d_2">
      <g>
       <use xlink:href="#m40decfe3f4" x="717.722787" y="897.12" style="fill: #262626; stroke: #262626; stroke-width: 1.875"/>
      </g>
     </g>
     <g id="text_2">
      <!-- 0.5 -->
      <g style="fill: #262626" transform="translate(679.555287 946.0925)scale(0.48 -0.48)">
       <defs>
        <path id="DejaVuSans-35" d="M 691 4666 
L 3169 4666 
L 3169 4134 
L 1269 4134 
L 1269 2991 
Q 1406 3038 1543 3061 
Q 1681 3084 1819 3084 
Q 2600 3084 3056 2656 
Q 3513 2228 3513 1497 
Q 3513 744 3044 326 
Q 2575 -91 1722 -91 
Q 1428 -91 1123 -41 
Q 819 9 494 109 
L 494 744 
Q 775 591 1075 516 
Q 1375 441 1709 441 
Q 2250 441 2565 725 
Q 2881 1009 2881 1497 
Q 2881 1984 2565 2268 
Q 2250 2553 1709 2553 
Q 1456 2553 1204 2497 
Q 953 2441 691 2322 
L 691 4666 
z
" transform="scale(0.015625)"/>
       </defs>
       <use xlink:href="#DejaVuSans-30"/>
       <use xlink:href="#DejaVuSans-2e" x="63.623047"/>
       <use xlink:href="#DejaVuSans-35" x="95.410156"/>
      </g>
     </g>
    </g>
    <g id="xtick_3">
     <g id="line2d_3">
      <g>
       <use xlink:href="#m40decfe3f4" x="977.046352" y="897.12" style="fill: #262626; stroke: #262626; stroke-width: 1.875"/>
      </g>
     </g>
     <g id="text_3">
      <!-- 1.0 -->
      <g style="fill: #262626" transform="translate(938.878852 946.0925)scale(0.48 -0.48)">
       <defs>
        <path id="DejaVuSans-31" d="M 794 531 
L 1825 531 
L 1825 4091 
L 703 3866 
L 703 4441 
L 1819 4666 
L 2450 4666 
L 2450 531 
L 3481 531 
L 3481 0 
L 794 0 
L 794 531 
z
" transform="scale(0.015625)"/>
       </defs>
       <use xlink:href="#DejaVuSans-31"/>
       <use xlink:href="#DejaVuSans-2e" x="63.623047"/>
       <use xlink:href="#DejaVuSans-30" x="95.410156"/>
      </g>
     </g>
    </g>
    <g id="xtick_4">
     <g id="line2d_4">
      <g>
       <use xlink:href="#m40decfe3f4" x="1236.369917" y="897.12" style="fill: #262626; stroke: #262626; stroke-width: 1.875"/>
      </g>
     </g>
     <g id="text_4">
      <!-- 1.5 -->
      <g style="fill: #262626" transform="translate(1198.202417 946.0925)scale(0.48 -0.48)">
       <use xlink:href="#DejaVuSans-31"/>
       <use xlink:href="#DejaVuSans-2e" x="63.623047"/>
       <use xlink:href="#DejaVuSans-35" x="95.410156"/>
      </g>
     </g>
    </g>
    <g id="xtick_5">
     <g id="line2d_5">
      <g>
       <use xlink:href="#m40decfe3f4" x="1495.693481" y="897.12" style="fill: #262626; stroke: #262626; stroke-width: 1.875"/>
      </g>
     </g>
     <g id="text_5">
      <!-- 2.0 -->
      <g style="fill: #262626" transform="translate(1457.525981 946.0925)scale(0.48 -0.48)">
       <defs>
        <path id="DejaVuSans-32" d="M 1228 531 
L 3431 531 
L 3431 0 
L 469 0 
L 469 531 
Q 828 903 1448 1529 
Q 2069 2156 2228 2338 
Q 2531 2678 2651 2914 
Q 2772 3150 2772 3378 
Q 2772 3750 2511 3984 
Q 2250 4219 1831 4219 
Q 1534 4219 1204 4116 
Q 875 4013 500 3803 
L 500 4441 
Q 881 4594 1212 4672 
Q 1544 4750 1819 4750 
Q 2544 4750 2975 4387 
Q 3406 4025 3406 3419 
Q 3406 3131 3298 2873 
Q 3191 2616 2906 2266 
Q 2828 2175 2409 1742 
Q 1991 1309 1228 531 
z
" transform="scale(0.015625)"/>
       </defs>
       <use xlink:href="#DejaVuSans-32"/>
       <use xlink:href="#DejaVuSans-2e" x="63.623047"/>
       <use xlink:href="#DejaVuSans-30" x="95.410156"/>
      </g>
     </g>
    </g>
    <g id="text_6">
     <!-- Z [nm] -->
     <g style="fill: #262626" transform="translate(804.2175 996.5475)scale(0.48 -0.48)">
      <defs>
       <path id="DejaVuSans-5a" d="M 359 4666 
L 4025 4666 
L 4025 4184 
L 1075 531 
L 4097 531 
L 4097 0 
L 288 0 
L 288 481 
L 3238 4134 
L 359 4134 
L 359 4666 
z
" transform="scale(0.015625)"/>
       <path id="DejaVuSans-20" transform="scale(0.015625)"/>
       <path id="DejaVuSans-5b" d="M 550 4863 
L 1875 4863 
L 1875 4416 
L 1125 4416 
L 1125 -397 
L 1875 -397 
L 1875 -844 
L 550 -844 
L 550 4863 
z
" transform="scale(0.015625)"/>
       <path id="DejaVuSans-6e" d="M 3513 2113 
L 3513 0 
L 2938 0 
L 2938 2094 
Q 2938 2591 2744 2837 
Q 2550 3084 2163 3084 
Q 1697 3084 1428 2787 
Q 1159 2491 1159 1978 
L 1159 0 
L 581 0 
L 581 3500 
L 1159 3500 
L 1159 2956 
Q 1366 3272 1645 3428 
Q 1925 3584 2291 3584 
Q 2894 3584 3203 3211 
Q 3513 2838 3513 2113 
z
" transform="scale(0.015625)"/>
       <path id="DejaVuSans-6d" d="M 3328 2828 
Q 3544 3216 3844 3400 
Q 4144 3584 4550 3584 
Q 5097 3584 5394 3201 
Q 5691 2819 5691 2113 
L 5691 0 
L 5113 0 
L 5113 2094 
Q 5113 2597 4934 2840 
Q 4756 3084 4391 3084 
Q 3944 3084 3684 2787 
Q 3425 2491 3425 1978 
L 3425 0 
L 2847 0 
L 2847 2094 
Q 2847 2600 2669 2842 
Q 2491 3084 2119 3084 
Q 1678 3084 1418 2786 
Q 1159 2488 1159 1978 
L 1159 0 
L 581 0 
L 581 3500 
L 1159 3500 
L 1159 2956 
Q 1356 3278 1631 3431 
Q 1906 3584 2284 3584 
Q 2666 3584 2933 3390 
Q 3200 3197 3328 2828 
z
" transform="scale(0.015625)"/>
       <path id="DejaVuSans-5d" d="M 1947 4863 
L 1947 -844 
L 622 -844 
L 622 -397 
L 1369 -397 
L 1369 4416 
L 622 4416 
L 622 4863 
L 1947 4863 
z
" transform="scale(0.015625)"/>
      </defs>
      <use xlink:href="#DejaVuSans-5a"/>
      <use xlink:href="#DejaVuSans-20" x="68.505859"/>
      <use xlink:href="#DejaVuSans-5b" x="100.292969"/>
      <use xlink:href="#DejaVuSans-6e" x="139.306641"/>
      <use xlink:href="#DejaVuSans-6d" x="202.685547"/>
      <use xlink:href="#DejaVuSans-5d" x="300.097656"/>
     </g>
    </g>
   </g>
   <g id="matplotlib.axis_2">
    <g id="ytick_1">
     <g id="line2d_6">
      <defs>
       <path id="m37f55f4ee6" d="M 0 0 
L -9 0 
" style="stroke: #262626; stroke-width: 1.875"/>
      </defs>
      <g>
       <use xlink:href="#m37f55f4ee6" x="216" y="879.110692" style="fill: #262626; stroke: #262626; stroke-width: 1.875"/>
      </g>
     </g>
     <g id="text_7">
      <!-- −12 -->
      <g style="fill: #262626" transform="translate(102.1975 897.346942)scale(0.48 -0.48)">
       <defs>
        <path id="DejaVuSans-2212" d="M 678 2272 
L 4684 2272 
L 4684 1741 
L 678 1741 
L 678 2272 
z
" transform="scale(0.015625)"/>
       </defs>
       <use xlink:href="#DejaVuSans-2212"/>
       <use xlink:href="#DejaVuSans-31" x="83.789062"/>
       <use xlink:href="#DejaVuSans-32" x="147.412109"/>
      </g>
     </g>
    </g>
    <g id="ytick_2">
     <g id="line2d_7">
      <g>
       <use xlink:href="#m37f55f4ee6" x="216" y="758.59605" style="fill: #262626; stroke: #262626; stroke-width: 1.875"/>
      </g>
     </g>
     <g id="text_8">
      <!-- −10 -->
      <g style="fill: #262626" transform="translate(102.1975 776.8323)scale(0.48 -0.48)">
       <use xlink:href="#DejaVuSans-2212"/>
       <use xlink:href="#DejaVuSans-31" x="83.789062"/>
       <use xlink:href="#DejaVuSans-30" x="147.412109"/>
      </g>
     </g>
    </g>
    <g id="ytick_3">
     <g id="line2d_8">
      <g>
       <use xlink:href="#m37f55f4ee6" x="216" y="638.081408" style="fill: #262626; stroke: #262626; stroke-width: 1.875"/>
      </g>
     </g>
     <g id="text_9">
      <!-- −8 -->
      <g style="fill: #262626" transform="translate(132.7375 656.317658)scale(0.48 -0.48)">
       <defs>
        <path id="DejaVuSans-38" d="M 2034 2216 
Q 1584 2216 1326 1975 
Q 1069 1734 1069 1313 
Q 1069 891 1326 650 
Q 1584 409 2034 409 
Q 2484 409 2743 651 
Q 3003 894 3003 1313 
Q 3003 1734 2745 1975 
Q 2488 2216 2034 2216 
z
M 1403 2484 
Q 997 2584 770 2862 
Q 544 3141 544 3541 
Q 544 4100 942 4425 
Q 1341 4750 2034 4750 
Q 2731 4750 3128 4425 
Q 3525 4100 3525 3541 
Q 3525 3141 3298 2862 
Q 3072 2584 2669 2484 
Q 3125 2378 3379 2068 
Q 3634 1759 3634 1313 
Q 3634 634 3220 271 
Q 2806 -91 2034 -91 
Q 1263 -91 848 271 
Q 434 634 434 1313 
Q 434 1759 690 2068 
Q 947 2378 1403 2484 
z
M 1172 3481 
Q 1172 3119 1398 2916 
Q 1625 2713 2034 2713 
Q 2441 2713 2670 2916 
Q 2900 3119 2900 3481 
Q 2900 3844 2670 4047 
Q 2441 4250 2034 4250 
Q 1625 4250 1398 4047 
Q 1172 3844 1172 3481 
z
" transform="scale(0.015625)"/>
       </defs>
       <use xlink:href="#DejaVuSans-2212"/>
       <use xlink:href="#DejaVuSans-38" x="83.789062"/>
      </g>
     </g>
    </g>
    <g id="ytick_4">
     <g id="line2d_9">
      <g>
       <use xlink:href="#m37f55f4ee6" x="216" y="517.566766" style="fill: #262626; stroke: #262626; stroke-width: 1.875"/>
      </g>
     </g>
     <g id="text_10">
      <!-- −6 -->
      <g style="fill: #262626" transform="translate(132.7375 535.803016)scale(0.48 -0.48)">
       <defs>
        <path id="DejaVuSans-36" d="M 2113 2584 
Q 1688 2584 1439 2293 
Q 1191 2003 1191 1497 
Q 1191 994 1439 701 
Q 1688 409 2113 409 
Q 2538 409 2786 701 
Q 3034 994 3034 1497 
Q 3034 2003 2786 2293 
Q 2538 2584 2113 2584 
z
M 3366 4563 
L 3366 3988 
Q 3128 4100 2886 4159 
Q 2644 4219 2406 4219 
Q 1781 4219 1451 3797 
Q 1122 3375 1075 2522 
Q 1259 2794 1537 2939 
Q 1816 3084 2150 3084 
Q 2853 3084 3261 2657 
Q 3669 2231 3669 1497 
Q 3669 778 3244 343 
Q 2819 -91 2113 -91 
Q 1303 -91 875 529 
Q 447 1150 447 2328 
Q 447 3434 972 4092 
Q 1497 4750 2381 4750 
Q 2619 4750 2861 4703 
Q 3103 4656 3366 4563 
z
" transform="scale(0.015625)"/>
       </defs>
       <use xlink:href="#DejaVuSans-2212"/>
       <use xlink:href="#DejaVuSans-36" x="83.789062"/>
      </g>
     </g>
    </g>
    <g id="ytick_5">
     <g id="line2d_10">
      <g>
       <use xlink:href="#m37f55f4ee6" x="216" y="397.052124" style="fill: #262626; stroke: #262626; stroke-width: 1.875"/>
      </g>
     </g>
     <g id="text_11">
      <!-- −4 -->
      <g style="fill: #262626" transform="translate(132.7375 415.288374)scale(0.48 -0.48)">
       <defs>
        <path id="DejaVuSans-34" d="M 2419 4116 
L 825 1625 
L 2419 1625 
L 2419 4116 
z
M 2253 4666 
L 3047 4666 
L 3047 1625 
L 3713 1625 
L 3713 1100 
L 3047 1100 
L 3047 0 
L 2419 0 
L 2419 1100 
L 313 1100 
L 313 1709 
L 2253 4666 
z
" transform="scale(0.015625)"/>
       </defs>
       <use xlink:href="#DejaVuSans-2212"/>
       <use xlink:href="#DejaVuSans-34" x="83.789062"/>
      </g>
     </g>
    </g>
    <g id="ytick_6">
     <g id="line2d_11">
      <g>
       <use xlink:href="#m37f55f4ee6" x="216" y="276.537482" style="fill: #262626; stroke: #262626; stroke-width: 1.875"/>
      </g>
     </g>
     <g id="text_12">
      <!-- −2 -->
      <g style="fill: #262626" transform="translate(132.7375 294.773732)scale(0.48 -0.48)">
       <use xlink:href="#DejaVuSans-2212"/>
       <use xlink:href="#DejaVuSans-32" x="83.789062"/>
      </g>
     </g>
    </g>
    <g id="ytick_7">
     <g id="line2d_12">
      <g>
       <use xlink:href="#m37f55f4ee6" x="216" y="156.02284" style="fill: #262626; stroke: #262626; stroke-width: 1.875"/>
      </g>
     </g>
     <g id="text_13">
      <!-- 0 -->
      <g style="fill: #262626" transform="translate(172.96 174.25909)scale(0.48 -0.48)">
       <use xlink:href="#DejaVuSans-30"/>
      </g>
     </g>
    </g>
    <g id="text_14">
     <!-- Df(Z) [Hz] -->
     <g style="fill: #262626" transform="translate(88.215 628.13625)rotate(-90)scale(0.48 -0.48)">
      <defs>
       <path id="DejaVuSans-44" d="M 1259 4147 
L 1259 519 
L 2022 519 
Q 2988 519 3436 956 
Q 3884 1394 3884 2338 
Q 3884 3275 3436 3711 
Q 2988 4147 2022 4147 
L 1259 4147 
z
M 628 4666 
L 1925 4666 
Q 3281 4666 3915 4102 
Q 4550 3538 4550 2338 
Q 4550 1131 3912 565 
Q 3275 0 1925 0 
L 628 0 
L 628 4666 
z
" transform="scale(0.015625)"/>
       <path id="DejaVuSans-66" d="M 2375 4863 
L 2375 4384 
L 1825 4384 
Q 1516 4384 1395 4259 
Q 1275 4134 1275 3809 
L 1275 3500 
L 2222 3500 
L 2222 3053 
L 1275 3053 
L 1275 0 
L 697 0 
L 697 3053 
L 147 3053 
L 147 3500 
L 697 3500 
L 697 3744 
Q 697 4328 969 4595 
Q 1241 4863 1831 4863 
L 2375 4863 
z
" transform="scale(0.015625)"/>
       <path id="DejaVuSans-28" d="M 1984 4856 
Q 1566 4138 1362 3434 
Q 1159 2731 1159 2009 
Q 1159 1288 1364 580 
Q 1569 -128 1984 -844 
L 1484 -844 
Q 1016 -109 783 600 
Q 550 1309 550 2009 
Q 550 2706 781 3412 
Q 1013 4119 1484 4856 
L 1984 4856 
z
" transform="scale(0.015625)"/>
       <path id="DejaVuSans-29" d="M 513 4856 
L 1013 4856 
Q 1481 4119 1714 3412 
Q 1947 2706 1947 2009 
Q 1947 1309 1714 600 
Q 1481 -109 1013 -844 
L 513 -844 
Q 928 -128 1133 580 
Q 1338 1288 1338 2009 
Q 1338 2731 1133 3434 
Q 928 4138 513 4856 
z
" transform="scale(0.015625)"/>
       <path id="DejaVuSans-48" d="M 628 4666 
L 1259 4666 
L 1259 2753 
L 3553 2753 
L 3553 4666 
L 4184 4666 
L 4184 0 
L 3553 0 
L 3553 2222 
L 1259 2222 
L 1259 0 
L 628 0 
L 628 4666 
z
" transform="scale(0.015625)"/>
       <path id="DejaVuSans-7a" d="M 353 3500 
L 3084 3500 
L 3084 2975 
L 922 459 
L 3084 459 
L 3084 0 
L 275 0 
L 275 525 
L 2438 3041 
L 353 3041 
L 353 3500 
z
" transform="scale(0.015625)"/>
      </defs>
      <use xlink:href="#DejaVuSans-44"/>
      <use xlink:href="#DejaVuSans-66" x="77.001953"/>
      <use xlink:href="#DejaVuSans-28" x="112.207031"/>
      <use xlink:href="#DejaVuSans-5a" x="151.220703"/>
      <use xlink:href="#DejaVuSans-29" x="219.726562"/>
      <use xlink:href="#DejaVuSans-20" x="258.740234"/>
      <use xlink:href="#DejaVuSans-5b" x="290.527344"/>
      <use xlink:href="#DejaVuSans-48" x="329.541016"/>
      <use xlink:href="#DejaVuSans-7a" x="404.736328"/>
      <use xlink:href="#DejaVuSans-5d" x="457.226562"/>
     </g>
    </g>
   </g>
   <g id="line2d_13">
    <path d="M 276.872727 857.384804 
L 279.255221 861.84 
L 281.637716 856.987135 
L 284.02021 819.247272 
L 286.402704 768.550109 
L 288.785198 727.216838 
L 291.167693 701.110425 
L 293.550187 678.689215 
L 295.932681 650.203295 
L 300.697669 612.404176 
L 303.080164 594.523793 
L 305.462658 574.204647 
L 307.845152 557.839586 
L 312.610141 530.925161 
L 314.992635 515.789072 
L 317.375129 507.224286 
L 322.140117 485.163753 
L 324.522612 476.56403 
L 326.905106 466.320539 
L 329.2876 460.595953 
L 331.670094 454.026705 
L 334.052589 445.849998 
L 336.435083 437.158478 
L 338.817577 432.004878 
L 341.200071 428.028186 
L 343.582565 418.730744 
L 345.96506 414.920176 
L 348.347554 409.601137 
L 353.112542 397.984129 
L 355.495036 395.159342 
L 357.877531 388.829861 
L 360.260025 385.981098 
L 362.642519 380.909361 
L 365.025013 373.973613 
L 367.407508 370.501801 
L 369.790002 366.037014 
L 372.172496 362.596029 
L 374.55499 358.548093 
L 376.937484 355.315704 
L 379.319979 355.271518 
L 381.702473 344.754351 
L 384.084967 347.123925 
L 386.467461 342.428963 
L 388.849956 336.972915 
L 391.23245 336.655739 
L 393.614944 332.137176 
L 395.997438 330.026207 
L 398.379932 325.843317 
L 400.762427 322.008773 
L 403.144921 324.332791 
L 405.527415 317.519667 
L 407.909909 314.858264 
L 410.292403 315.302859 
L 412.674898 311.817003 
L 415.057392 306.493854 
L 417.439886 305.708791 
L 419.82238 305.518691 
L 422.204875 302.112643 
L 424.587369 302.775767 
L 426.969863 296.270914 
L 429.352357 296.710028 
L 431.734851 294.056161 
L 434.117346 293.954774 
L 436.49984 289.046763 
L 438.882334 288.013714 
L 441.264828 286.344599 
L 443.647323 284.967314 
L 446.029817 284.444282 
L 448.412311 280.368259 
L 450.794805 279.492085 
L 453.177299 276.222704 
L 455.559794 275.083472 
L 457.942288 273.770239 
L 460.324782 276.232294 
L 462.707276 272.88516 
L 465.089771 271.218444 
L 467.472265 269.082813 
L 469.854759 268.727617 
L 474.619747 265.653131 
L 477.002242 266.444701 
L 479.384736 264.088144 
L 481.76723 261.249656 
L 484.149724 260.921176 
L 486.532218 259.479155 
L 488.914713 258.81192 
L 491.297207 256.070366 
L 493.679701 255.878211 
L 496.062195 256.206691 
L 498.44469 253.457259 
L 500.827184 250.192673 
L 503.209678 251.490835 
L 505.592172 249.002406 
L 507.974666 250.066282 
L 510.357161 249.541879 
L 512.739655 246.548914 
L 515.122149 245.263083 
L 517.504643 242.920911 
L 519.887138 243.605957 
L 522.269632 242.399248 
L 524.652126 239.936851 
L 527.03462 241.215147 
L 529.417114 240.627035 
L 531.799609 241.15452 
L 534.182103 239.005188 
L 536.564597 237.669006 
L 538.947091 237.506308 
L 541.329585 236.953819 
L 543.71208 234.563694 
L 546.094574 232.882591 
L 548.477068 234.230076 
L 550.859562 232.174596 
L 553.242057 236.11635 
L 555.624551 231.934487 
L 558.007045 231.575181 
L 560.389539 229.638556 
L 562.772033 230.192416 
L 565.154528 231.653276 
L 567.537022 228.380469 
L 569.919516 226.390754 
L 572.30201 227.654321 
L 574.684505 229.70021 
L 577.066999 225.170344 
L 579.449493 227.479291 
L 581.831987 227.831405 
L 584.214481 223.12651 
L 586.596976 221.629685 
L 588.97947 222.056811 
L 591.361964 220.930938 
L 593.744458 222.053043 
L 596.126952 223.569392 
L 598.509447 221.652634 
L 600.891941 219.468022 
L 603.274435 221.084046 
L 605.656929 219.226201 
L 608.039424 217.633812 
L 610.421918 218.918958 
L 612.804412 216.311331 
L 615.186906 216.581924 
L 617.5694 214.825124 
L 619.951895 216.601105 
L 624.716883 214.191456 
L 627.099377 214.648382 
L 629.481872 210.862476 
L 631.864366 213.75474 
L 636.629354 214.02636 
L 639.011848 212.914188 
L 641.394343 210.504197 
L 643.776837 211.498199 
L 646.159331 209.265292 
L 648.541825 209.817096 
L 650.92432 208.584356 
L 653.306814 209.748249 
L 655.689308 207.841766 
L 658.071802 209.591716 
L 660.454296 206.503872 
L 662.836791 208.095576 
L 665.219285 207.603028 
L 667.601779 204.69535 
L 669.984273 207.072802 
L 672.366767 205.4787 
L 674.749262 207.739694 
L 677.131756 201.947974 
L 679.51425 204.01099 
L 681.896744 204.310012 
L 684.279239 204.303504 
L 686.661733 200.47307 
L 689.044227 203.986328 
L 691.426721 202.882719 
L 693.809215 201.44515 
L 696.19171 201.862001 
L 698.574204 202.689536 
L 700.956698 200.908074 
L 703.339192 201.094064 
L 705.721687 200.759762 
L 708.104181 199.494825 
L 710.486675 199.261567 
L 712.869169 200.550138 
L 715.251663 197.375978 
L 717.634158 199.097156 
L 720.016652 198.231258 
L 722.399146 198.892327 
L 724.78164 197.197523 
L 727.164134 197.576696 
L 729.546629 194.561809 
L 731.929123 195.352695 
L 734.311617 196.401842 
L 736.694111 194.380272 
L 741.4591 196.385401 
L 743.841594 196.840957 
L 746.224088 195.66028 
L 748.606582 193.691801 
L 750.989077 195.394483 
L 753.371571 195.09409 
L 755.754065 190.632044 
L 758.136559 194.432678 
L 760.519054 193.433196 
L 762.901548 195.378384 
L 765.284042 190.641634 
L 767.666536 195.004691 
L 770.04903 193.820932 
L 772.431525 194.1316 
L 774.814019 191.682561 
L 777.196513 192.139487 
L 779.579007 189.695243 
L 781.961502 193.725711 
L 784.343996 191.000256 
L 786.72649 188.581359 
L 791.491478 191.106095 
L 793.873973 189.563029 
L 796.256467 190.863932 
L 798.638961 189.646605 
L 801.021455 189.812386 
L 803.403949 188.881409 
L 805.786444 188.93587 
L 808.168938 187.837741 
L 810.551432 188.78379 
L 812.933926 189.475686 
L 815.316421 187.564066 
L 817.698915 186.519713 
L 820.081409 189.045135 
L 822.463903 188.022361 
L 824.846397 186.373798 
L 827.228892 188.400164 
L 829.611386 185.746639 
L 831.99388 186.800582 
L 834.376374 188.369679 
L 836.758869 187.878159 
L 839.141363 184.690983 
L 841.523857 184.991033 
L 843.906351 187.300323 
L 846.288845 184.952671 
L 848.67134 182.300173 
L 851.053834 186.570749 
L 853.436328 184.072729 
L 855.818822 186.243297 
L 858.201316 184.523147 
L 860.583811 181.456539 
L 862.966305 183.758293 
L 865.348799 183.178744 
L 867.731293 183.796656 
L 870.113788 182.566313 
L 872.496282 181.494559 
L 874.878776 185.23902 
L 877.26127 183.280131 
L 879.643764 182.233381 
L 882.026259 182.753331 
L 884.408753 183.885369 
L 886.791247 181.579847 
L 889.173741 183.482905 
L 891.556236 182.399847 
L 893.93873 183.976138 
L 896.321224 181.47846 
L 898.703718 180.086105 
L 901.086212 182.357717 
L 903.468707 180.607082 
L 905.851201 180.640992 
L 908.233695 180.468018 
L 910.616189 181.920315 
L 912.998684 179.372629 
L 915.381178 180.137826 
L 917.763672 181.294526 
L 920.146166 180.854726 
L 922.52866 175.901159 
L 924.911155 179.08217 
L 927.293649 178.870491 
L 929.676143 178.795821 
L 932.058637 178.062137 
L 934.441131 179.60075 
L 936.823626 177.829221 
L 939.20612 179.9741 
L 941.588614 177.041418 
L 943.971108 181.851125 
L 946.353603 176.76329 
L 948.736097 179.00887 
L 951.118591 177.437717 
L 953.501085 178.381711 
L 955.883579 175.745311 
L 958.266074 176.745136 
L 960.648568 178.031995 
L 963.031062 175.486707 
L 965.413556 178.553315 
L 967.796051 175.581928 
L 970.178545 177.566848 
L 972.561039 178.545779 
L 974.943533 177.643916 
L 977.326027 174.410157 
L 979.708522 177.964518 
L 982.091016 175.540483 
L 984.47351 176.021385 
L 986.856004 175.327433 
L 989.238498 176.747876 
L 991.620993 172.336181 
L 994.003487 174.354326 
L 996.385981 175.005119 
L 998.768475 176.533114 
L 1001.15097 173.453148 
L 1005.915958 173.48877 
L 1008.298452 176.061118 
L 1010.680946 172.911277 
L 1013.063441 175.359973 
L 1015.445935 174.723908 
L 1017.828429 174.223482 
L 1020.210923 172.7705 
L 1022.593418 175.709004 
L 1024.975912 172.929088 
L 1027.358406 174.224852 
L 1029.7409 173.537409 
L 1032.123394 173.395262 
L 1034.505889 171.002396 
L 1036.888383 174.501268 
L 1039.270877 172.245412 
L 1041.653371 173.147275 
L 1044.035866 170.798595 
L 1046.41836 170.583833 
L 1048.800854 173.527475 
L 1051.183348 171.819999 
L 1053.565842 174.677325 
L 1055.948337 172.467024 
L 1058.330831 169.294234 
L 1060.713325 170.866757 
L 1063.095819 171.163725 
L 1065.478313 172.36598 
L 1067.860808 173.980291 
L 1070.243302 170.01045 
L 1072.625796 172.098127 
L 1075.00829 172.281034 
L 1077.390785 170.1639 
L 1079.773279 170.632129 
L 1082.155773 169.590517 
L 1084.538267 171.122622 
L 1086.920761 170.306732 
L 1089.303256 168.459506 
L 1091.68575 171.625445 
L 1094.068244 172.259798 
L 1096.450738 170.648913 
L 1098.833233 168.064577 
L 1101.215727 171.39527 
L 1103.598221 169.961127 
L 1105.980715 171.424042 
L 1108.363209 170.929439 
L 1110.745704 169.032889 
L 1113.128198 172.945529 
L 1115.510692 167.54908 
L 1117.893186 169.277108 
L 1120.27568 169.591544 
L 1122.658175 170.058061 
L 1125.040669 167.951202 
L 1129.805657 169.814869 
L 1132.188152 167.140108 
L 1134.570646 168.542396 
L 1136.95314 167.818988 
L 1139.335634 169.474059 
L 1141.718128 167.605939 
L 1144.100623 168.877726 
L 1146.483117 169.244226 
L 1148.865611 167.628545 
L 1151.248105 169.762463 
L 1153.6306 169.365479 
L 1156.013094 165.837835 
L 1158.395588 171.365128 
L 1160.778082 166.870542 
L 1163.160576 167.823441 
L 1165.543071 168.37182 
L 1167.925565 169.295262 
L 1170.308059 166.228997 
L 1172.690553 167.489138 
L 1175.073048 167.92106 
L 1177.455542 169.408294 
L 1179.838036 165.760768 
L 1182.22053 166.346824 
L 1184.603024 167.079824 
L 1186.985519 168.237894 
L 1189.368013 166.212898 
L 1191.750507 166.521854 
L 1194.133001 168.435529 
L 1196.515495 164.151595 
L 1198.89799 165.19081 
L 1201.280484 167.175045 
L 1203.662978 167.452488 
L 1206.045472 166.567409 
L 1208.427967 165.042497 
L 1210.810461 167.149013 
L 1213.192955 165.324051 
L 1215.575449 165.471336 
L 1217.957943 165.965596 
L 1220.340438 165.754602 
L 1222.722932 164.459181 
L 1225.105426 166.905137 
L 1229.870415 165.214444 
L 1232.252909 166.680784 
L 1234.635403 166.032046 
L 1237.017897 165.711787 
L 1239.400391 165.780291 
L 1241.782886 166.224201 
L 1244.16538 160.847276 
L 1246.547874 164.625989 
L 1248.930368 165.57786 
L 1251.312862 164.352998 
L 1253.695357 165.765563 
L 1256.077851 164.262915 
L 1258.460345 164.243049 
L 1260.842839 162.579072 
L 1263.225334 166.066298 
L 1265.607828 163.295973 
L 1267.990322 162.048162 
L 1270.372816 163.785095 
L 1272.75531 166.318053 
L 1275.137805 162.241344 
L 1277.520299 166.561929 
L 1279.902793 163.949506 
L 1282.285287 162.542765 
L 1284.667782 165.685413 
L 1287.050276 166.113909 
L 1289.43277 164.526315 
L 1291.815264 162.640384 
L 1294.197758 162.091319 
L 1296.580253 163.008596 
L 1298.962747 162.021102 
L 1301.345241 165.228487 
L 1303.727735 161.448061 
L 1306.110229 161.898479 
L 1308.492724 163.06888 
L 1310.875218 161.977944 
L 1313.257712 163.610751 
L 1315.640206 164.371152 
L 1318.022701 163.724811 
L 1320.405195 160.339315 
L 1322.787689 165.236365 
L 1325.170183 161.492247 
L 1327.552677 163.503542 
L 1329.935172 163.462096 
L 1332.317666 160.778086 
L 1334.70016 161.473751 
L 1337.082654 159.633032 
L 1339.465149 159.932055 
L 1341.847643 164.224895 
L 1344.230137 164.704769 
L 1346.612631 160.488312 
L 1348.995125 165.724803 
L 1351.37762 160.814394 
L 1353.760114 159.919724 
L 1356.142608 161.54568 
L 1358.525102 161.846416 
L 1363.290091 162.158796 
L 1365.672585 160.015288 
L 1368.055079 162.691762 
L 1370.437573 162.381436 
L 1372.820068 158.491061 
L 1375.202562 160.475296 
L 1377.585056 160.236215 
L 1379.96755 163.250075 
L 1382.350044 160.282798 
L 1387.115033 159.183985 
L 1389.497527 161.049707 
L 1391.880021 159.141854 
L 1394.262516 163.948821 
L 1396.64501 160.109482 
L 1399.027504 161.24015 
L 1401.409998 161.861144 
L 1403.792492 159.587134 
L 1406.174987 160.23964 
L 1408.557481 161.012372 
L 1410.939975 157.901579 
L 1413.322469 165.341862 
L 1415.704964 157.827251 
L 1420.469952 159.095271 
L 1422.852446 162.045079 
L 1425.23494 158.330418 
L 1427.617435 161.725847 
L 1429.999929 161.369281 
L 1432.382423 161.179523 
L 1434.764917 159.832038 
L 1437.147411 160.747259 
L 1439.529906 157.368613 
L 1441.9124 160.142021 
L 1444.294894 160.08208 
L 1446.677388 159.41005 
L 1449.059883 159.776892 
L 1451.442377 161.587468 
L 1453.824871 159.23228 
L 1456.207365 160.343767 
L 1458.589859 160.099206 
L 1460.972354 156.31878 
L 1463.354848 161.722422 
L 1465.737342 158.411253 
L 1468.119836 157.248045 
L 1470.502331 160.399256 
L 1472.884825 160.243066 
L 1475.267319 158.721579 
L 1477.649813 158.405088 
L 1480.032307 157.807385 
L 1482.414802 158.789056 
L 1484.797296 161.238095 
L 1487.17979 159.650843 
L 1489.562284 157.180911 
L 1491.944779 160.282456 
L 1494.327273 159.037727 
L 1494.327273 159.037727 
" clip-path="url(#p7a4f6d0901)" style="fill: none; stroke: #00c9a7; stroke-width: 2.25; stroke-linecap: round"/>
   </g>
   <g id="line2d_14">
    <path d="M 276.872727 842.341882 
L 279.255221 813.937824 
L 281.637716 791.341243 
L 284.02021 774.119532 
L 286.402704 767.59858 
L 288.785198 769.729073 
L 291.167693 770.231897 
L 293.550187 764.006885 
L 295.932681 768.877561 
L 298.315175 770.32472 
L 300.697669 772.85528 
L 303.080164 780.182188 
L 305.462658 788.945295 
L 307.845152 795.29019 
L 310.227646 795.890633 
L 312.610141 790.530491 
L 314.992635 789.639589 
L 317.375129 787.079915 
L 319.757623 773.107377 
L 322.140117 760.835807 
L 324.522612 744.676945 
L 331.670094 688.315823 
L 334.052589 673.073894 
L 336.435083 655.743603 
L 338.817577 639.832728 
L 341.200071 617.931811 
L 345.96506 581.325357 
L 348.347554 556.130739 
L 350.730048 535.577307 
L 353.112542 510.029206 
L 355.495036 489.366852 
L 357.877531 472.08794 
L 360.260025 451.981501 
L 362.642519 438.947475 
L 365.025013 423.19827 
L 369.790002 401.720369 
L 372.172496 394.618841 
L 374.55499 389.850579 
L 376.937484 385.519719 
L 379.319979 375.682803 
L 381.702473 367.987683 
L 384.084967 362.630624 
L 386.467461 355.697617 
L 388.849956 349.870959 
L 391.23245 346.450868 
L 393.614944 341.441127 
L 395.997438 335.515138 
L 398.379932 332.707134 
L 400.762427 329.300401 
L 403.144921 325.432975 
L 405.527415 322.234838 
L 407.909909 315.847128 
L 410.292403 314.328724 
L 412.674898 314.630829 
L 415.057392 306.819251 
L 417.439886 301.148098 
L 419.82238 300.518884 
L 422.204875 302.40002 
L 424.587369 294.763471 
L 426.969863 294.45383 
L 429.352357 291.420447 
L 431.734851 290.367189 
L 434.117346 284.512787 
L 436.49984 286.989912 
L 438.882334 282.920397 
L 441.264828 281.450974 
L 443.647323 277.3681 
L 446.029817 275.122863 
L 448.412311 274.287449 
L 450.794805 272.438168 
L 453.177299 271.79354 
L 455.559794 270.131618 
L 457.942288 269.055754 
L 460.324782 268.33303 
L 462.707276 268.979714 
L 465.089771 263.833649 
L 467.472265 266.203565 
L 469.854759 261.56649 
L 472.237253 261.565462 
L 474.619747 260.093298 
L 477.002242 259.687751 
L 479.384736 260.194685 
L 481.76723 257.801135 
L 484.149724 259.530533 
L 486.532218 257.277075 
L 488.914713 255.49527 
L 491.297207 254.990049 
L 493.679701 255.955621 
L 496.062195 252.092305 
L 498.44469 252.43106 
L 500.827184 250.035797 
L 503.209678 251.745329 
L 505.592172 249.131194 
L 507.974666 249.077076 
L 510.357161 247.516541 
L 512.739655 248.46807 
L 515.122149 244.158446 
L 517.504643 243.938546 
L 519.887138 244.025547 
L 522.269632 245.296307 
L 524.652126 242.04508 
L 527.03462 241.23604 
L 529.417114 241.232615 
L 531.799609 239.461429 
L 534.182103 243.242882 
L 536.564597 238.383509 
L 538.947091 237.491237 
L 541.329585 236.801738 
L 543.71208 236.288297 
L 546.094574 236.050586 
L 548.477068 233.377537 
L 550.859562 236.235548 
L 553.242057 235.112758 
L 555.624551 231.929692 
L 558.007045 229.795432 
L 560.389539 230.603443 
L 562.772033 230.190703 
L 565.154528 227.927654 
L 567.537022 229.732065 
L 569.919516 230.228381 
L 572.30201 228.006092 
L 574.684505 226.656209 
L 577.066999 225.907796 
L 579.449493 227.243978 
L 581.831987 224.044814 
L 584.214481 223.489584 
L 586.596976 223.530345 
L 588.97947 219.790337 
L 591.361964 222.739802 
L 593.744458 221.716343 
L 596.126952 219.095015 
L 598.509447 217.244363 
L 600.891941 220.741523 
L 603.274435 217.489267 
L 605.656929 222.546619 
L 608.039424 215.81022 
L 610.421918 218.94088 
L 612.804412 216.85697 
L 615.186906 215.990044 
L 617.5694 216.946369 
L 619.951895 216.110613 
L 622.334389 215.486536 
L 624.716883 215.086126 
L 627.099377 213.262877 
L 629.481872 212.474732 
L 631.864366 214.246603 
L 634.24686 213.436193 
L 639.011848 212.205166 
L 641.394343 211.336185 
L 643.776837 211.358449 
L 646.159331 210.813838 
L 648.541825 212.026712 
L 650.92432 208.084615 
L 653.306814 209.030663 
L 655.689308 210.492894 
L 658.071802 208.65149 
L 660.454296 208.105166 
L 662.836791 207.839369 
L 665.219285 207.381415 
L 667.601779 206.502844 
L 669.984273 206.682326 
L 672.366767 204.72926 
L 674.749262 203.668467 
L 677.131756 205.631466 
L 679.51425 205.35368 
L 681.896744 205.429377 
L 684.279239 208.005835 
L 686.661733 203.619828 
L 689.044227 204.783379 
L 691.426721 201.098517 
L 693.809215 203.855827 
L 696.19171 203.182427 
L 698.574204 198.434374 
L 700.956698 202.919369 
L 703.339192 201.47769 
L 705.721687 201.710948 
L 708.104181 200.946437 
L 710.486675 198.794708 
L 712.869169 202.793663 
L 715.251663 198.476504 
L 717.634158 202.727899 
L 720.016652 198.199403 
L 722.399146 200.050397 
L 724.78164 198.243931 
L 727.164134 197.371525 
L 729.546629 196.116178 
L 731.929123 196.514533 
L 734.311617 196.493296 
L 736.694111 198.330247 
L 739.076606 196.354232 
L 741.4591 196.775192 
L 743.841594 195.264666 
L 746.224088 195.3181 
L 748.606582 194.788559 
L 750.989077 198.177481 
L 753.371571 194.175786 
L 755.754065 193.330439 
L 758.136559 194.440556 
L 760.519054 192.689921 
L 762.901548 197.612661 
L 765.284042 191.562678 
L 767.666536 193.177332 
L 770.04903 195.327691 
L 772.431525 193.083823 
L 774.814019 193.386613 
L 777.196513 188.738577 
L 779.579007 191.493489 
L 781.961502 192.07475 
L 784.343996 191.530824 
L 786.72649 190.199095 
L 789.108984 191.485611 
L 791.491478 188.537173 
L 793.873973 190.156964 
L 796.256467 192.300473 
L 798.638961 189.87404 
L 801.021455 188.422771 
L 803.403949 188.11313 
L 805.786444 191.530139 
L 808.168938 187.068435 
L 810.551432 188.599512 
L 812.933926 186.935193 
L 815.316421 190.166212 
L 817.698915 189.754157 
L 820.081409 190.224099 
L 822.463903 184.134726 
L 824.846397 187.285252 
L 827.228892 186.603289 
L 829.611386 186.079229 
L 831.99388 188.882779 
L 834.376374 184.681392 
L 836.758869 183.570248 
L 839.141363 186.976981 
L 841.523857 186.165887 
L 843.906351 185.09242 
L 846.288845 183.760348 
L 848.67134 184.297767 
L 851.053834 185.525026 
L 853.436328 183.316096 
L 855.818822 185.12496 
L 858.201316 186.16897 
L 860.583811 186.829011 
L 862.966305 184.618368 
L 865.348799 183.108185 
L 867.731293 182.586522 
L 870.113788 185.100298 
L 872.496282 183.078385 
L 874.878776 183.667867 
L 877.26127 183.575386 
L 879.643764 182.862253 
L 882.026259 185.316773 
L 884.408753 184.251184 
L 886.791247 179.280833 
L 889.173741 182.715653 
L 891.556236 180.064868 
L 893.93873 182.182345 
L 896.321224 182.762236 
L 898.703718 180.595436 
L 901.086212 180.540975 
L 903.468707 178.748553 
L 905.851201 179.532588 
L 908.233695 179.903882 
L 910.616189 181.663423 
L 912.998684 182.07308 
L 915.381178 179.672337 
L 917.763672 177.983014 
L 920.146166 181.426397 
L 922.52866 177.840524 
L 924.911155 177.111978 
L 927.293649 179.915528 
L 929.676143 178.990031 
L 932.058637 178.641685 
L 936.823626 179.656238 
L 939.20612 178.400549 
L 941.588614 180.24024 
L 943.971108 176.890708 
L 946.353603 176.646147 
L 948.736097 178.014868 
L 951.118591 177.411686 
L 953.501085 174.188545 
L 955.883579 179.444559 
L 958.266074 178.08166 
L 960.648568 176.20806 
L 963.031062 176.054952 
L 965.413556 175.322296 
L 967.796051 176.529004 
L 970.178545 178.306698 
L 972.561039 175.656941 
L 974.943533 174.597175 
L 977.326027 176.793432 
L 979.708522 178.495428 
L 982.091016 175.411352 
L 984.47351 175.528837 
L 986.856004 174.368369 
L 989.238498 177.475395 
L 991.620993 175.106849 
L 994.003487 174.71192 
L 996.385981 175.180149 
L 998.768475 173.661059 
L 1001.15097 174.707467 
L 1003.533464 176.076874 
L 1005.915958 175.57268 
L 1008.298452 174.676982 
L 1010.680946 176.635871 
L 1013.063441 175.591176 
L 1015.445935 173.883699 
L 1017.828429 171.850141 
L 1020.210923 172.935596 
L 1022.593418 176.273824 
L 1024.975912 174.858177 
L 1027.358406 171.334301 
L 1029.7409 173.668937 
L 1032.123394 170.394076 
L 1034.505889 175.352438 
L 1036.888383 176.806105 
L 1039.270877 171.888846 
L 1041.653371 172.466682 
L 1044.035866 172.007701 
L 1046.41836 174.08887 
L 1048.800854 171.342864 
L 1051.183348 173.887467 
L 1053.565842 173.034585 
L 1055.948337 170.415654 
L 1058.330831 173.114735 
L 1060.713325 170.179656 
L 1063.095819 171.979957 
L 1065.478313 172.089564 
L 1067.860808 172.054969 
L 1070.243302 172.39852 
L 1072.625796 172.392697 
L 1077.390785 169.34664 
L 1079.773279 171.349029 
L 1082.155773 172.422839 
L 1084.538267 170.903407 
L 1086.920761 169.874468 
L 1089.303256 170.824284 
L 1091.68575 172.365638 
L 1094.068244 171.278812 
L 1096.450738 169.661419 
L 1098.833233 171.412739 
L 1101.215727 170.212881 
L 1103.598221 170.118345 
L 1105.980715 170.431411 
L 1108.363209 169.142497 
L 1110.745704 171.128445 
L 1113.128198 170.666039 
L 1117.893186 168.779765 
L 1120.27568 169.763833 
L 1122.658175 167.265471 
L 1125.040669 170.243708 
L 1127.423163 171.688812 
L 1129.805657 167.192171 
L 1134.570646 170.26837 
L 1136.95314 168.472864 
L 1139.335634 167.73644 
L 1141.718128 169.070567 
L 1144.100623 171.196949 
L 1146.483117 168.398879 
L 1148.865611 168.161511 
L 1151.248105 166.977409 
L 1153.6306 166.068353 
L 1156.013094 170.832505 
L 1158.395588 166.978437 
L 1160.778082 166.081369 
L 1163.160576 169.125028 
L 1165.543071 166.035471 
L 1167.925565 168.991102 
L 1170.308059 168.594117 
L 1172.690553 165.745012 
L 1175.073048 167.627175 
L 1177.455542 166.331411 
L 1179.838036 167.146616 
L 1182.22053 168.907183 
L 1184.603024 163.999857 
L 1186.985519 167.020567 
L 1189.368013 168.954452 
L 1191.750507 166.846565 
L 1194.133001 164.523917 
L 1196.515495 167.965588 
L 1198.89799 164.736624 
L 1201.280484 166.606457 
L 1203.662978 164.875346 
L 1206.045472 168.945546 
L 1208.427967 163.471687 
L 1210.810461 166.895546 
L 1213.192955 165.369949 
L 1215.575449 164.757518 
L 1217.957943 166.535897 
L 1220.340438 166.762305 
L 1222.722932 167.764184 
L 1225.105426 166.05979 
L 1227.48792 164.59345 
L 1229.870415 166.959598 
L 1232.252909 166.519456 
L 1234.635403 165.848796 
L 1237.017897 165.49086 
L 1239.400391 162.947627 
L 1241.782886 165.643967 
L 1244.16538 164.301277 
L 1246.547874 165.947785 
L 1248.930368 161.902247 
L 1251.312862 164.267368 
L 1253.695357 165.973817 
L 1256.077851 166.724285 
L 1258.460345 164.82157 
L 1260.842839 163.727894 
L 1263.225334 163.718988 
L 1265.607828 163.9269 
L 1267.990322 167.388779 
L 1270.372816 163.130534 
L 1272.75531 162.084126 
L 1275.137805 161.871077 
L 1277.520299 164.567418 
L 1279.902793 165.783032 
L 1282.285287 164.11289 
L 1284.667782 164.883566 
L 1287.050276 165.328161 
L 1289.43277 161.999523 
L 1291.815264 163.132247 
L 1294.197758 163.282957 
L 1296.580253 162.207435 
L 1298.962747 164.198863 
L 1301.345241 163.507309 
L 1303.727735 161.064093 
L 1306.110229 162.262581 
L 1308.492724 162.427677 
L 1310.875218 161.587468 
L 1313.257712 162.105705 
L 1315.640206 165.693291 
L 1318.022701 162.010827 
L 1320.405195 163.943683 
L 1322.787689 161.877928 
L 1325.170183 162.381436 
L 1329.935172 163.975881 
L 1332.317666 161.937869 
L 1334.70016 163.613834 
L 1337.082654 162.620175 
L 1339.465149 164.44959 
L 1341.847643 162.06152 
L 1346.612631 161.516566 
L 1348.995125 163.416198 
L 1351.37762 161.896081 
L 1353.760114 160.044745 
L 1356.142608 162.807877 
L 1358.525102 161.668646 
L 1360.907597 161.859431 
L 1363.290091 163.621369 
L 1365.672585 160.90756 
L 1368.055079 160.667109 
L 1370.437573 160.883241 
L 1372.820068 161.442238 
L 1375.202562 162.17969 
L 1377.585056 159.343258 
L 1379.96755 163.993007 
L 1382.350044 159.945071 
L 1384.732539 162.521186 
L 1389.497527 159.993366 
L 1391.880021 158.461604 
L 1394.262516 163.416883 
L 1396.64501 158.907226 
L 1399.027504 164.210509 
L 1401.409998 159.148362 
L 1403.792492 160.690743 
L 1406.174987 161.194594 
L 1413.322469 158.309181 
L 1415.704964 160.924686 
L 1418.087458 161.356608 
L 1420.469952 157.263459 
L 1422.852446 159.978638 
L 1425.23494 161.486766 
L 1427.617435 159.59193 
L 1429.999929 162.644151 
L 1432.382423 159.930342 
L 1434.764917 157.799164 
L 1437.147411 160.08482 
L 1439.529906 161.686457 
L 1441.9124 160.105371 
L 1444.294894 157.016157 
L 1446.677388 161.367911 
L 1449.059883 160.93736 
L 1451.442377 158.380768 
L 1453.824871 160.233817 
L 1456.207365 156.881203 
L 1458.589859 160.544486 
L 1460.972354 159.641253 
L 1463.354848 157.223726 
L 1465.737342 159.36929 
L 1468.119836 160.2369 
L 1470.502331 160.214636 
L 1472.884825 159.907393 
L 1475.267319 158.204369 
L 1477.649813 159.276808 
L 1480.032307 158.695547 
L 1482.414802 158.410568 
L 1484.797296 159.949866 
L 1487.17979 157.109323 
L 1489.562284 156.24 
L 1491.944779 157.194611 
L 1494.327273 161.595346 
L 1494.327273 161.595346 
" clip-path="url(#p7a4f6d0901)" style="fill: none; stroke: #ffc75f; stroke-width: 2.25; stroke-linecap: round"/>
   </g>
   <g id="patch_3">
    <path d="M 216 897.12 
L 216 120.96 
" style="fill: none; stroke: #262626; stroke-width: 1.875; stroke-linejoin: miter; stroke-linecap: square"/>
   </g>
   <g id="patch_4">
    <path d="M 1555.2 897.12 
L 1555.2 120.96 
" style="fill: none; stroke: #262626; stroke-width: 1.875; stroke-linejoin: miter; stroke-linecap: square"/>
   </g>
   <g id="patch_5">
    <path d="M 216 897.12 
L 1555.2 897.12 
" style="fill: none; stroke: #262626; stroke-width: 1.875; stroke-linejoin: miter; stroke-linecap: square"/>
   </g>
   <g id="patch_6">
    <path d="M 216 120.96 
L 1555.2 120.96 
" style="fill: none; stroke: #262626; stroke-width: 1.875; stroke-linejoin: miter; stroke-linecap: square"/>
   </g>
   <g id="text_15">
    <!-- Df(Z) -->
    <g style="fill: #262626" transform="translate(820.916406 110.561563)scale(0.5 -0.5)">
     <use xlink:href="#DejaVuSans-44"/>
     <use xlink:href="#DejaVuSans-66" x="77.001953"/>
     <use xlink:href="#DejaVuSans-28" x="112.207031"/>
     <use xlink:href="#DejaVuSans-5a" x="151.220703"/>
     <use xlink:href="#DejaVuSans-29" x="219.726562"/>
    </g>
   </g>
   <g id="legend_1">
    <g id="patch_7">
     <path d="M 227.55 182.597813 
L 361.029844 182.597813 
Q 364.329844 182.597813 364.329844 179.297813 
L 364.329844 132.51 
Q 364.329844 129.21 361.029844 129.21 
L 227.55 129.21 
Q 224.25 129.21 224.25 132.51 
L 224.25 179.297813 
Q 224.25 182.597813 227.55 182.597813 
z
" style="fill: #ffffff; opacity: 0.8; stroke: #cccccc; stroke-width: 1.5; stroke-linejoin: miter"/>
    </g>
    <g id="line2d_15">
     <path d="M 230.85 142.572422 
L 247.35 142.572422 
L 263.85 142.572422 
" style="fill: none; stroke: #00c9a7; stroke-width: 2.25; stroke-linecap: round"/>
    </g>
    <g id="text_16">
     <!-- df trace -->
     <g style="fill: #262626" transform="translate(277.05 148.347422)scale(0.165 -0.165)">
      <defs>
       <path id="DejaVuSans-64" d="M 2906 2969 
L 2906 4863 
L 3481 4863 
L 3481 0 
L 2906 0 
L 2906 525 
Q 2725 213 2448 61 
Q 2172 -91 1784 -91 
Q 1150 -91 751 415 
Q 353 922 353 1747 
Q 353 2572 751 3078 
Q 1150 3584 1784 3584 
Q 2172 3584 2448 3432 
Q 2725 3281 2906 2969 
z
M 947 1747 
Q 947 1113 1208 752 
Q 1469 391 1925 391 
Q 2381 391 2643 752 
Q 2906 1113 2906 1747 
Q 2906 2381 2643 2742 
Q 2381 3103 1925 3103 
Q 1469 3103 1208 2742 
Q 947 2381 947 1747 
z
" transform="scale(0.015625)"/>
       <path id="DejaVuSans-74" d="M 1172 4494 
L 1172 3500 
L 2356 3500 
L 2356 3053 
L 1172 3053 
L 1172 1153 
Q 1172 725 1289 603 
Q 1406 481 1766 481 
L 2356 481 
L 2356 0 
L 1766 0 
Q 1100 0 847 248 
Q 594 497 594 1153 
L 594 3053 
L 172 3053 
L 172 3500 
L 594 3500 
L 594 4494 
L 1172 4494 
z
" transform="scale(0.015625)"/>
       <path id="DejaVuSans-72" d="M 2631 2963 
Q 2534 3019 2420 3045 
Q 2306 3072 2169 3072 
Q 1681 3072 1420 2755 
Q 1159 2438 1159 1844 
L 1159 0 
L 581 0 
L 581 3500 
L 1159 3500 
L 1159 2956 
Q 1341 3275 1631 3429 
Q 1922 3584 2338 3584 
Q 2397 3584 2469 3576 
Q 2541 3569 2628 3553 
L 2631 2963 
z
" transform="scale(0.015625)"/>
       <path id="DejaVuSans-61" d="M 2194 1759 
Q 1497 1759 1228 1600 
Q 959 1441 959 1056 
Q 959 750 1161 570 
Q 1363 391 1709 391 
Q 2188 391 2477 730 
Q 2766 1069 2766 1631 
L 2766 1759 
L 2194 1759 
z
M 3341 1997 
L 3341 0 
L 2766 0 
L 2766 531 
Q 2569 213 2275 61 
Q 1981 -91 1556 -91 
Q 1019 -91 701 211 
Q 384 513 384 1019 
Q 384 1609 779 1909 
Q 1175 2209 1959 2209 
L 2766 2209 
L 2766 2266 
Q 2766 2663 2505 2880 
Q 2244 3097 1772 3097 
Q 1472 3097 1187 3025 
Q 903 2953 641 2809 
L 641 3341 
Q 956 3463 1253 3523 
Q 1550 3584 1831 3584 
Q 2591 3584 2966 3190 
Q 3341 2797 3341 1997 
z
" transform="scale(0.015625)"/>
       <path id="DejaVuSans-63" d="M 3122 3366 
L 3122 2828 
Q 2878 2963 2633 3030 
Q 2388 3097 2138 3097 
Q 1578 3097 1268 2742 
Q 959 2388 959 1747 
Q 959 1106 1268 751 
Q 1578 397 2138 397 
Q 2388 397 2633 464 
Q 2878 531 3122 666 
L 3122 134 
Q 2881 22 2623 -34 
Q 2366 -91 2075 -91 
Q 1284 -91 818 406 
Q 353 903 353 1747 
Q 353 2603 823 3093 
Q 1294 3584 2113 3584 
Q 2378 3584 2631 3529 
Q 2884 3475 3122 3366 
z
" transform="scale(0.015625)"/>
       <path id="DejaVuSans-65" d="M 3597 1894 
L 3597 1613 
L 953 1613 
Q 991 1019 1311 708 
Q 1631 397 2203 397 
Q 2534 397 2845 478 
Q 3156 559 3463 722 
L 3463 178 
Q 3153 47 2828 -22 
Q 2503 -91 2169 -91 
Q 1331 -91 842 396 
Q 353 884 353 1716 
Q 353 2575 817 3079 
Q 1281 3584 2069 3584 
Q 2775 3584 3186 3129 
Q 3597 2675 3597 1894 
z
M 3022 2063 
Q 3016 2534 2758 2815 
Q 2500 3097 2075 3097 
Q 1594 3097 1305 2825 
Q 1016 2553 972 2059 
L 3022 2063 
z
" transform="scale(0.015625)"/>
      </defs>
      <use xlink:href="#DejaVuSans-64"/>
      <use xlink:href="#DejaVuSans-66" x="63.476562"/>
      <use xlink:href="#DejaVuSans-20" x="98.681641"/>
      <use xlink:href="#DejaVuSans-74" x="130.46875"/>
      <use xlink:href="#DejaVuSans-72" x="169.677734"/>
      <use xlink:href="#DejaVuSans-61" x="210.791016"/>
      <use xlink:href="#DejaVuSans-63" x="272.070312"/>
      <use xlink:href="#DejaVuSans-65" x="327.050781"/>
     </g>
    </g>
    <g id="line2d_16">
     <path d="M 230.85 166.791328 
L 247.35 166.791328 
L 263.85 166.791328 
" style="fill: none; stroke: #ffc75f; stroke-width: 2.25; stroke-linecap: round"/>
    </g>
    <g id="text_17">
     <!-- df retrace -->
     <g style="fill: #262626" transform="translate(277.05 172.566328)scale(0.165 -0.165)">
      <use xlink:href="#DejaVuSans-64"/>
      <use xlink:href="#DejaVuSans-66" x="63.476562"/>
      <use xlink:href="#DejaVuSans-20" x="98.681641"/>
      <use xlink:href="#DejaVuSans-72" x="130.46875"/>
      <use xlink:href="#DejaVuSans-65" x="169.332031"/>
      <use xlink:href="#DejaVuSans-74" x="230.855469"/>
      <use xlink:href="#DejaVuSans-72" x="270.064453"/>
      <use xlink:href="#DejaVuSans-61" x="311.177734"/>
      <use xlink:href="#DejaVuSans-63" x="372.457031"/>
      <use xlink:href="#DejaVuSans-65" x="427.4375"/>
     </g>
    </g>
   </g>
  </g>
 </g>
 <defs>
  <clipPath id="p7a4f6d0901">
   <rect x="216" y="120.96" width="1339.2" height="776.16"/>
  </clipPath>
 </defs>
</svg>
