<?xml version="1.0" encoding="utf-8" standalone="no"?>
<!DOCTYPE svg PUBLIC "-//W3C//DTD SVG 1.1//EN"
  "http://www.w3.org/Graphics/SVG/1.1/DTD/svg11.dtd">
<svg xmlns:xlink="http://www.w3.org/1999/xlink" width="1728pt" height="1008pt" viewBox="0 0 1728 1008" xmlns="http://www.w3.org/2000/svg" version="1.1">
 <metadata>
  <rdf:RDF xmlns:dc="http://purl.org/dc/elements/1.1/" xmlns:cc="http://creativecommons.org/ns#" xmlns:rdf="http://www.w3.org/1999/02/22-rdf-syntax-ns#">
   <cc:Work>
    <dc:type rdf:resource="http://purl.org/dc/dcmitype/StillImage"/>
    <dc:date>2022-10-30T23:53:58.712908</dc:date>
    <dc:format>image/svg+xml</dc:format>
    <dc:creator>
     <cc:Agent>
      <dc:title>Matplotlib v3.5.2, https://matplotlib.org/</dc:title>
     </cc:Agent>
    </dc:creator>
   </cc:Work>
  </rdf:RDF>
 </metadata>
 <defs>
  <style type="text/css">*{stroke-linejoin: round; stroke-linecap: butt}</style>
 </defs>
 <g id="figure_1">
  <g id="patch_1">
   <path d="M 0 1008 
L 1728 1008 
L 1728 0 
L 0 0 
z
" style="fill: #ffffff"/>
  </g>
  <g id="axes_1">
   <g id="patch_2">
    <path d="M 216 897.12 
L 1555.2 897.12 
L 1555.2 120.96 
L 216 120.96 
L 216 897.12 
z
" style="fill: none"/>
   </g>
   <g id="matplotlib.axis_1">
    <g id="xtick_1">
     <g id="line2d_1">
      <defs>
       <path id="m7a1075e6e7" d="M 0 0 
L 0 9 
" style="stroke: #262626; stroke-width: 1.875"/>
      </defs>
      <g>
       <use xlink:href="#m7a1075e6e7" x="435.846538" y="897.12" style="fill: #262626; stroke: #262626; stroke-width: 1.875"/>
      </g>
     </g>
     <g id="text_1">
      <!-- 0.0 -->
      <g style="fill: #262626" transform="translate(397.679038 946.0925)scale(0.48 -0.48)">
       <defs>
        <path id="DejaVuSans-30" d="M 2034 4250 
Q 1547 4250 1301 3770 
Q 1056 3291 1056 2328 
Q 1056 1369 1301 889 
Q 1547 409 2034 409 
Q 2525 409 2770 889 
Q 3016 1369 3016 2328 
Q 3016 3291 2770 3770 
Q 2525 4250 2034 4250 
z
M 2034 4750 
Q 2819 4750 3233 4129 
Q 3647 3509 3647 2328 
Q 3647 1150 3233 529 
Q 2819 -91 2034 -91 
Q 1250 -91 836 529 
Q 422 1150 422 2328 
Q 422 3509 836 4129 
Q 1250 4750 2034 4750 
z
" transform="scale(0.015625)"/>
        <path id="DejaVuSans-2e" d="M 684 794 
L 1344 794 
L 1344 0 
L 684 0 
L 684 794 
z
" transform="scale(0.015625)"/>
       </defs>
       <use xlink:href="#DejaVuSans-30"/>
       <use xlink:href="#DejaVuSans-2e" x="63.623047"/>
       <use xlink:href="#DejaVuSans-30" x="95.410156"/>
      </g>
     </g>
    </g>
    <g id="xtick_2">
     <g id="line2d_2">
      <g>
       <use xlink:href="#m7a1075e6e7" x="700.802889" y="897.12" style="fill: #262626; stroke: #262626; stroke-width: 1.875"/>
      </g>
     </g>
     <g id="text_2">
      <!-- 0.5 -->
      <g style="fill: #262626" transform="translate(662.635389 946.0925)scale(0.48 -0.48)">
       <defs>
        <path id="DejaVuSans-35" d="M 691 4666 
L 3169 4666 
L 3169 4134 
L 1269 4134 
L 1269 2991 
Q 1406 3038 1543 3061 
Q 1681 3084 1819 3084 
Q 2600 3084 3056 2656 
Q 3513 2228 3513 1497 
Q 3513 744 3044 326 
Q 2575 -91 1722 -91 
Q 1428 -91 1123 -41 
Q 819 9 494 109 
L 494 744 
Q 775 591 1075 516 
Q 1375 441 1709 441 
Q 2250 441 2565 725 
Q 2881 1009 2881 1497 
Q 2881 1984 2565 2268 
Q 2250 2553 1709 2553 
Q 1456 2553 1204 2497 
Q 953 2441 691 2322 
L 691 4666 
z
" transform="scale(0.015625)"/>
       </defs>
       <use xlink:href="#DejaVuSans-30"/>
       <use xlink:href="#DejaVuSans-2e" x="63.623047"/>
       <use xlink:href="#DejaVuSans-35" x="95.410156"/>
      </g>
     </g>
    </g>
    <g id="xtick_3">
     <g id="line2d_3">
      <g>
       <use xlink:href="#m7a1075e6e7" x="965.75924" y="897.12" style="fill: #262626; stroke: #262626; stroke-width: 1.875"/>
      </g>
     </g>
     <g id="text_3">
      <!-- 1.0 -->
      <g style="fill: #262626" transform="translate(927.59174 946.0925)scale(0.48 -0.48)">
       <defs>
        <path id="DejaVuSans-31" d="M 794 531 
L 1825 531 
L 1825 4091 
L 703 3866 
L 703 4441 
L 1819 4666 
L 2450 4666 
L 2450 531 
L 3481 531 
L 3481 0 
L 794 0 
L 794 531 
z
" transform="scale(0.015625)"/>
       </defs>
       <use xlink:href="#DejaVuSans-31"/>
       <use xlink:href="#DejaVuSans-2e" x="63.623047"/>
       <use xlink:href="#DejaVuSans-30" x="95.410156"/>
      </g>
     </g>
    </g>
    <g id="xtick_4">
     <g id="line2d_4">
      <g>
       <use xlink:href="#m7a1075e6e7" x="1230.715592" y="897.12" style="fill: #262626; stroke: #262626; stroke-width: 1.875"/>
      </g>
     </g>
     <g id="text_4">
      <!-- 1.5 -->
      <g style="fill: #262626" transform="translate(1192.548092 946.0925)scale(0.48 -0.48)">
       <use xlink:href="#DejaVuSans-31"/>
       <use xlink:href="#DejaVuSans-2e" x="63.623047"/>
       <use xlink:href="#DejaVuSans-35" x="95.410156"/>
      </g>
     </g>
    </g>
    <g id="xtick_5">
     <g id="line2d_5">
      <g>
       <use xlink:href="#m7a1075e6e7" x="1495.671943" y="897.12" style="fill: #262626; stroke: #262626; stroke-width: 1.875"/>
      </g>
     </g>
     <g id="text_5">
      <!-- 2.0 -->
      <g style="fill: #262626" transform="translate(1457.504443 946.0925)scale(0.48 -0.48)">
       <defs>
        <path id="DejaVuSans-32" d="M 1228 531 
L 3431 531 
L 3431 0 
L 469 0 
L 469 531 
Q 828 903 1448 1529 
Q 2069 2156 2228 2338 
Q 2531 2678 2651 2914 
Q 2772 3150 2772 3378 
Q 2772 3750 2511 3984 
Q 2250 4219 1831 4219 
Q 1534 4219 1204 4116 
Q 875 4013 500 3803 
L 500 4441 
Q 881 4594 1212 4672 
Q 1544 4750 1819 4750 
Q 2544 4750 2975 4387 
Q 3406 4025 3406 3419 
Q 3406 3131 3298 2873 
Q 3191 2616 2906 2266 
Q 2828 2175 2409 1742 
Q 1991 1309 1228 531 
z
" transform="scale(0.015625)"/>
       </defs>
       <use xlink:href="#DejaVuSans-32"/>
       <use xlink:href="#DejaVuSans-2e" x="63.623047"/>
       <use xlink:href="#DejaVuSans-30" x="95.410156"/>
      </g>
     </g>
    </g>
    <g id="text_6">
     <!-- Z [nm] -->
     <g style="fill: #262626" transform="translate(804.2175 996.5475)scale(0.48 -0.48)">
      <defs>
       <path id="DejaVuSans-5a" d="M 359 4666 
L 4025 4666 
L 4025 4184 
L 1075 531 
L 4097 531 
L 4097 0 
L 288 0 
L 288 481 
L 3238 4134 
L 359 4134 
L 359 4666 
z
" transform="scale(0.015625)"/>
       <path id="DejaVuSans-20" transform="scale(0.015625)"/>
       <path id="DejaVuSans-5b" d="M 550 4863 
L 1875 4863 
L 1875 4416 
L 1125 4416 
L 1125 -397 
L 1875 -397 
L 1875 -844 
L 550 -844 
L 550 4863 
z
" transform="scale(0.015625)"/>
       <path id="DejaVuSans-6e" d="M 3513 2113 
L 3513 0 
L 2938 0 
L 2938 2094 
Q 2938 2591 2744 2837 
Q 2550 3084 2163 3084 
Q 1697 3084 1428 2787 
Q 1159 2491 1159 1978 
L 1159 0 
L 581 0 
L 581 3500 
L 1159 3500 
L 1159 2956 
Q 1366 3272 1645 3428 
Q 1925 3584 2291 3584 
Q 2894 3584 3203 3211 
Q 3513 2838 3513 2113 
z
" transform="scale(0.015625)"/>
       <path id="DejaVuSans-6d" d="M 3328 2828 
Q 3544 3216 3844 3400 
Q 4144 3584 4550 3584 
Q 5097 3584 5394 3201 
Q 5691 2819 5691 2113 
L 5691 0 
L 5113 0 
L 5113 2094 
Q 5113 2597 4934 2840 
Q 4756 3084 4391 3084 
Q 3944 3084 3684 2787 
Q 3425 2491 3425 1978 
L 3425 0 
L 2847 0 
L 2847 2094 
Q 2847 2600 2669 2842 
Q 2491 3084 2119 3084 
Q 1678 3084 1418 2786 
Q 1159 2488 1159 1978 
L 1159 0 
L 581 0 
L 581 3500 
L 1159 3500 
L 1159 2956 
Q 1356 3278 1631 3431 
Q 1906 3584 2284 3584 
Q 2666 3584 2933 3390 
Q 3200 3197 3328 2828 
z
" transform="scale(0.015625)"/>
       <path id="DejaVuSans-5d" d="M 1947 4863 
L 1947 -844 
L 622 -844 
L 622 -397 
L 1369 -397 
L 1369 4416 
L 622 4416 
L 622 4863 
L 1947 4863 
z
" transform="scale(0.015625)"/>
      </defs>
      <use xlink:href="#DejaVuSans-5a"/>
      <use xlink:href="#DejaVuSans-20" x="68.505859"/>
      <use xlink:href="#DejaVuSans-5b" x="100.292969"/>
      <use xlink:href="#DejaVuSans-6e" x="139.306641"/>
      <use xlink:href="#DejaVuSans-6d" x="202.685547"/>
      <use xlink:href="#DejaVuSans-5d" x="300.097656"/>
     </g>
    </g>
   </g>
   <g id="matplotlib.axis_2">
    <g id="ytick_1">
     <g id="line2d_6">
      <defs>
       <path id="m4042ae6ae3" d="M 0 0 
L -9 0 
" style="stroke: #262626; stroke-width: 1.875"/>
      </defs>
      <g>
       <use xlink:href="#m4042ae6ae3" x="216" y="873.130984" style="fill: #262626; stroke: #262626; stroke-width: 1.875"/>
      </g>
     </g>
     <g id="text_7">
      <!-- −10 -->
      <g style="fill: #262626" transform="translate(102.1975 891.367234)scale(0.48 -0.48)">
       <defs>
        <path id="DejaVuSans-2212" d="M 678 2272 
L 4684 2272 
L 4684 1741 
L 678 1741 
L 678 2272 
z
" transform="scale(0.015625)"/>
       </defs>
       <use xlink:href="#DejaVuSans-2212"/>
       <use xlink:href="#DejaVuSans-31" x="83.789062"/>
       <use xlink:href="#DejaVuSans-30" x="147.412109"/>
      </g>
     </g>
    </g>
    <g id="ytick_2">
     <g id="line2d_7">
      <g>
       <use xlink:href="#m4042ae6ae3" x="216" y="729.53722" style="fill: #262626; stroke: #262626; stroke-width: 1.875"/>
      </g>
     </g>
     <g id="text_8">
      <!-- −8 -->
      <g style="fill: #262626" transform="translate(132.7375 747.77347)scale(0.48 -0.48)">
       <defs>
        <path id="DejaVuSans-38" d="M 2034 2216 
Q 1584 2216 1326 1975 
Q 1069 1734 1069 1313 
Q 1069 891 1326 650 
Q 1584 409 2034 409 
Q 2484 409 2743 651 
Q 3003 894 3003 1313 
Q 3003 1734 2745 1975 
Q 2488 2216 2034 2216 
z
M 1403 2484 
Q 997 2584 770 2862 
Q 544 3141 544 3541 
Q 544 4100 942 4425 
Q 1341 4750 2034 4750 
Q 2731 4750 3128 4425 
Q 3525 4100 3525 3541 
Q 3525 3141 3298 2862 
Q 3072 2584 2669 2484 
Q 3125 2378 3379 2068 
Q 3634 1759 3634 1313 
Q 3634 634 3220 271 
Q 2806 -91 2034 -91 
Q 1263 -91 848 271 
Q 434 634 434 1313 
Q 434 1759 690 2068 
Q 947 2378 1403 2484 
z
M 1172 3481 
Q 1172 3119 1398 2916 
Q 1625 2713 2034 2713 
Q 2441 2713 2670 2916 
Q 2900 3119 2900 3481 
Q 2900 3844 2670 4047 
Q 2441 4250 2034 4250 
Q 1625 4250 1398 4047 
Q 1172 3844 1172 3481 
z
" transform="scale(0.015625)"/>
       </defs>
       <use xlink:href="#DejaVuSans-2212"/>
       <use xlink:href="#DejaVuSans-38" x="83.789062"/>
      </g>
     </g>
    </g>
    <g id="ytick_3">
     <g id="line2d_8">
      <g>
       <use xlink:href="#m4042ae6ae3" x="216" y="585.943455" style="fill: #262626; stroke: #262626; stroke-width: 1.875"/>
      </g>
     </g>
     <g id="text_9">
      <!-- −6 -->
      <g style="fill: #262626" transform="translate(132.7375 604.179705)scale(0.48 -0.48)">
       <defs>
        <path id="DejaVuSans-36" d="M 2113 2584 
Q 1688 2584 1439 2293 
Q 1191 2003 1191 1497 
Q 1191 994 1439 701 
Q 1688 409 2113 409 
Q 2538 409 2786 701 
Q 3034 994 3034 1497 
Q 3034 2003 2786 2293 
Q 2538 2584 2113 2584 
z
M 3366 4563 
L 3366 3988 
Q 3128 4100 2886 4159 
Q 2644 4219 2406 4219 
Q 1781 4219 1451 3797 
Q 1122 3375 1075 2522 
Q 1259 2794 1537 2939 
Q 1816 3084 2150 3084 
Q 2853 3084 3261 2657 
Q 3669 2231 3669 1497 
Q 3669 778 3244 343 
Q 2819 -91 2113 -91 
Q 1303 -91 875 529 
Q 447 1150 447 2328 
Q 447 3434 972 4092 
Q 1497 4750 2381 4750 
Q 2619 4750 2861 4703 
Q 3103 4656 3366 4563 
z
" transform="scale(0.015625)"/>
       </defs>
       <use xlink:href="#DejaVuSans-2212"/>
       <use xlink:href="#DejaVuSans-36" x="83.789062"/>
      </g>
     </g>
    </g>
    <g id="ytick_4">
     <g id="line2d_9">
      <g>
       <use xlink:href="#m4042ae6ae3" x="216" y="442.34969" style="fill: #262626; stroke: #262626; stroke-width: 1.875"/>
      </g>
     </g>
     <g id="text_10">
      <!-- −4 -->
      <g style="fill: #262626" transform="translate(132.7375 460.58594)scale(0.48 -0.48)">
       <defs>
        <path id="DejaVuSans-34" d="M 2419 4116 
L 825 1625 
L 2419 1625 
L 2419 4116 
z
M 2253 4666 
L 3047 4666 
L 3047 1625 
L 3713 1625 
L 3713 1100 
L 3047 1100 
L 3047 0 
L 2419 0 
L 2419 1100 
L 313 1100 
L 313 1709 
L 2253 4666 
z
" transform="scale(0.015625)"/>
       </defs>
       <use xlink:href="#DejaVuSans-2212"/>
       <use xlink:href="#DejaVuSans-34" x="83.789062"/>
      </g>
     </g>
    </g>
    <g id="ytick_5">
     <g id="line2d_10">
      <g>
       <use xlink:href="#m4042ae6ae3" x="216" y="298.755926" style="fill: #262626; stroke: #262626; stroke-width: 1.875"/>
      </g>
     </g>
     <g id="text_11">
      <!-- −2 -->
      <g style="fill: #262626" transform="translate(132.7375 316.992176)scale(0.48 -0.48)">
       <use xlink:href="#DejaVuSans-2212"/>
       <use xlink:href="#DejaVuSans-32" x="83.789062"/>
      </g>
     </g>
    </g>
    <g id="ytick_6">
     <g id="line2d_11">
      <g>
       <use xlink:href="#m4042ae6ae3" x="216" y="155.162161" style="fill: #262626; stroke: #262626; stroke-width: 1.875"/>
      </g>
     </g>
     <g id="text_12">
      <!-- 0 -->
      <g style="fill: #262626" transform="translate(172.96 173.398411)scale(0.48 -0.48)">
       <use xlink:href="#DejaVuSans-30"/>
      </g>
     </g>
    </g>
    <g id="text_13">
     <!-- Df(Z) [Hz] -->
     <g style="fill: #262626" transform="translate(88.215 628.13625)rotate(-90)scale(0.48 -0.48)">
      <defs>
       <path id="DejaVuSans-44" d="M 1259 4147 
L 1259 519 
L 2022 519 
Q 2988 519 3436 956 
Q 3884 1394 3884 2338 
Q 3884 3275 3436 3711 
Q 2988 4147 2022 4147 
L 1259 4147 
z
M 628 4666 
L 1925 4666 
Q 3281 4666 3915 4102 
Q 4550 3538 4550 2338 
Q 4550 1131 3912 565 
Q 3275 0 1925 0 
L 628 0 
L 628 4666 
z
" transform="scale(0.015625)"/>
       <path id="DejaVuSans-66" d="M 2375 4863 
L 2375 4384 
L 1825 4384 
Q 1516 4384 1395 4259 
Q 1275 4134 1275 3809 
L 1275 3500 
L 2222 3500 
L 2222 3053 
L 1275 3053 
L 1275 0 
L 697 0 
L 697 3053 
L 147 3053 
L 147 3500 
L 697 3500 
L 697 3744 
Q 697 4328 969 4595 
Q 1241 4863 1831 4863 
L 2375 4863 
z
" transform="scale(0.015625)"/>
       <path id="DejaVuSans-28" d="M 1984 4856 
Q 1566 4138 1362 3434 
Q 1159 2731 1159 2009 
Q 1159 1288 1364 580 
Q 1569 -128 1984 -844 
L 1484 -844 
Q 1016 -109 783 600 
Q 550 1309 550 2009 
Q 550 2706 781 3412 
Q 1013 4119 1484 4856 
L 1984 4856 
z
" transform="scale(0.015625)"/>
       <path id="DejaVuSans-29" d="M 513 4856 
L 1013 4856 
Q 1481 4119 1714 3412 
Q 1947 2706 1947 2009 
Q 1947 1309 1714 600 
Q 1481 -109 1013 -844 
L 513 -844 
Q 928 -128 1133 580 
Q 1338 1288 1338 2009 
Q 1338 2731 1133 3434 
Q 928 4138 513 4856 
z
" transform="scale(0.015625)"/>
       <path id="DejaVuSans-48" d="M 628 4666 
L 1259 4666 
L 1259 2753 
L 3553 2753 
L 3553 4666 
L 4184 4666 
L 4184 0 
L 3553 0 
L 3553 2222 
L 1259 2222 
L 1259 0 
L 628 0 
L 628 4666 
z
" transform="scale(0.015625)"/>
       <path id="DejaVuSans-7a" d="M 353 3500 
L 3084 3500 
L 3084 2975 
L 922 459 
L 3084 459 
L 3084 0 
L 275 0 
L 275 525 
L 2438 3041 
L 353 3041 
L 353 3500 
z
" transform="scale(0.015625)"/>
      </defs>
      <use xlink:href="#DejaVuSans-44"/>
      <use xlink:href="#DejaVuSans-66" x="77.001953"/>
      <use xlink:href="#DejaVuSans-28" x="112.207031"/>
      <use xlink:href="#DejaVuSans-5a" x="151.220703"/>
      <use xlink:href="#DejaVuSans-29" x="219.726562"/>
      <use xlink:href="#DejaVuSans-20" x="258.740234"/>
      <use xlink:href="#DejaVuSans-5b" x="290.527344"/>
      <use xlink:href="#DejaVuSans-48" x="329.541016"/>
      <use xlink:href="#DejaVuSans-7a" x="404.736328"/>
      <use xlink:href="#DejaVuSans-5d" x="457.226562"/>
     </g>
    </g>
   </g>
   <g id="line2d_12">
    <path d="M 276.872727 861.84 
L 279.255221 838.021027 
L 281.637716 825.561601 
L 284.02021 815.255813 
L 286.402704 799.835902 
L 288.785198 797.142733 
L 291.167693 779.394511 
L 293.550187 766.171497 
L 295.932681 752.18612 
L 298.315175 628.78806 
L 300.697669 559.715363 
L 303.080164 546.495614 
L 305.462658 539.591895 
L 307.845152 524.462972 
L 310.227646 518.870943 
L 312.610141 508.475777 
L 314.992635 499.391077 
L 317.375129 492.675909 
L 322.140117 476.406705 
L 324.522612 466.179683 
L 326.905106 460.816608 
L 329.2876 456.608915 
L 331.670094 446.721855 
L 334.052589 443.40141 
L 336.435083 436.744194 
L 338.817577 435.244361 
L 341.200071 425.662574 
L 343.582565 421.210418 
L 345.96506 413.831242 
L 348.347554 412.25101 
L 350.730048 405.648074 
L 353.112542 404.183339 
L 355.495036 396.469507 
L 357.877531 392.405062 
L 360.260025 389.397643 
L 362.642519 386.185757 
L 365.025013 383.931314 
L 367.407508 378.335613 
L 369.790002 371.683294 
L 372.172496 366.80139 
L 374.55499 366.40021 
L 376.937484 362.090896 
L 379.319979 360.619631 
L 381.702473 358.799835 
L 384.084967 352.484621 
L 386.467461 348.897267 
L 388.849956 344.981377 
L 391.23245 344.028014 
L 393.614944 339.092647 
L 395.997438 336.422741 
L 403.144921 327.541284 
L 405.527415 324.925657 
L 407.909909 325.144408 
L 410.292403 323.622129 
L 412.674898 318.240689 
L 415.057392 318.981831 
L 417.439886 314.801481 
L 422.204875 311.485117 
L 424.587369 306.743197 
L 426.969863 307.413735 
L 429.352357 304.166342 
L 431.734851 303.149721 
L 434.117346 299.517882 
L 436.49984 296.86879 
L 438.882334 297.714001 
L 441.264828 292.704357 
L 443.647323 293.532019 
L 446.029817 291.781194 
L 448.412311 291.164937 
L 450.794805 284.417935 
L 453.177299 284.974199 
L 455.559794 286.158965 
L 457.942288 283.701688 
L 460.324782 282.507128 
L 462.707276 279.268714 
L 465.089771 280.002917 
L 467.472265 277.309749 
L 469.854759 275.469546 
L 472.237253 275.65728 
L 474.619747 275.460159 
L 477.002242 271.876478 
L 479.384736 269.74243 
L 481.76723 269.971384 
L 484.149724 268.090778 
L 486.532218 267.887535 
L 488.914713 265.483314 
L 491.297207 267.412078 
L 493.679701 262.91054 
L 496.062195 260.692828 
L 498.44469 262.008192 
L 500.827184 261.626194 
L 503.209678 258.019249 
L 505.592172 258.835485 
L 507.974666 255.393012 
L 510.357161 257.760911 
L 512.739655 252.638217 
L 515.122149 256.018248 
L 517.504643 255.493409 
L 519.887138 251.4559 
L 522.269632 250.973505 
L 524.652126 252.755347 
L 527.03462 250.40214 
L 529.417114 247.415127 
L 531.799609 249.433269 
L 534.182103 247.820388 
L 536.564597 247.439206 
L 538.947091 246.434828 
L 541.329585 241.679849 
L 543.71208 244.383629 
L 546.094574 243.970206 
L 548.477068 241.831669 
L 550.859562 244.47219 
L 553.242057 240.793825 
L 555.624551 238.763032 
L 558.007045 240.821169 
L 560.389539 239.062998 
L 562.772033 235.023857 
L 565.154528 239.161763 
L 567.537022 237.147702 
L 569.919516 235.669908 
L 572.30201 233.865619 
L 574.684505 234.161505 
L 577.066999 236.264535 
L 579.449493 231.889105 
L 581.831987 230.107263 
L 584.214481 234.074576 
L 586.596976 227.55612 
L 588.97947 231.573222 
L 591.361964 232.19805 
L 593.744458 228.245839 
L 596.126952 228.923314 
L 598.509447 230.200314 
L 600.891941 225.557975 
L 603.274435 224.932739 
L 605.656929 226.318299 
L 608.039424 227.5451 
L 610.421918 224.661341 
L 612.804412 225.031504 
L 615.186906 224.68093 
L 617.5694 220.556901 
L 619.951895 222.602387 
L 622.334389 224.48381 
L 627.099377 220.903801 
L 629.481872 220.582612 
L 631.864366 222.507296 
L 634.24686 221.985721 
L 636.629354 219.651288 
L 639.011848 221.346609 
L 641.394343 219.49049 
L 643.776837 216.352881 
L 646.159331 220.084709 
L 648.541825 220.632403 
L 650.92432 211.651773 
L 653.306814 215.719482 
L 655.689308 213.780107 
L 658.071802 216.639787 
L 660.454296 215.250147 
L 662.836791 217.118509 
L 665.219285 215.11506 
L 667.601779 213.334034 
L 669.984273 215.289326 
L 672.366767 210.802072 
L 674.749262 209.954411 
L 677.131756 212.889186 
L 679.51425 208.711693 
L 681.896744 212.054177 
L 684.279239 211.84318 
L 686.661733 209.69444 
L 689.044227 207.874235 
L 691.426721 211.033066 
L 693.809215 208.615377 
L 696.19171 209.041044 
L 698.574204 208.09013 
L 700.956698 208.095435 
L 703.339192 202.707873 
L 705.721687 210.425787 
L 708.104181 208.259907 
L 710.486675 204.612559 
L 712.869169 207.641608 
L 715.251663 205.314113 
L 717.634158 204.802333 
L 720.016652 206.280944 
L 722.399146 201.636564 
L 724.78164 203.187004 
L 727.164134 204.184851 
L 729.546629 204.869265 
L 731.929123 203.719597 
L 734.311617 204.403194 
L 736.694111 203.045795 
L 739.076606 206.451945 
L 741.4591 199.569856 
L 743.841594 203.802853 
L 746.224088 203.060079 
L 748.606582 201.046426 
L 750.989077 199.652296 
L 753.371571 199.680864 
L 755.754065 200.47547 
L 758.136559 200.651776 
L 760.519054 197.801891 
L 762.901548 196.922397 
L 765.284042 198.240617 
L 767.666536 198.777292 
L 770.04903 197.879025 
L 772.431525 198.378561 
L 774.814019 196.436329 
L 777.196513 198.02309 
L 779.579007 198.20756 
L 781.961502 197.308884 
L 784.343996 198.516505 
L 786.72649 195.666211 
L 789.108984 195.067094 
L 791.491478 193.787237 
L 793.873973 197.57212 
L 796.256467 196.745274 
L 798.638961 194.974043 
L 801.021455 195.19361 
L 803.403949 192.209862 
L 805.786444 192.518399 
L 808.168938 193.489311 
L 810.551432 193.085274 
L 812.933926 190.943473 
L 815.316421 192.037636 
L 817.698915 192.304953 
L 820.081409 192.710214 
L 822.463903 191.15651 
L 824.846397 194.483894 
L 827.228892 191.416073 
L 829.611386 191.824191 
L 831.99388 188.399675 
L 834.376374 192.312707 
L 836.758869 191.248336 
L 839.141363 191.601358 
L 841.523857 191.097741 
L 843.906351 188.930636 
L 846.288845 190.741046 
L 848.67134 188.755962 
L 851.053834 191.401381 
L 853.436328 187.091658 
L 855.818822 187.406725 
L 858.201316 187.438558 
L 860.583811 189.516285 
L 862.966305 189.540364 
L 865.348799 187.094514 
L 867.731293 187.160221 
L 870.113788 187.614456 
L 872.496282 189.505674 
L 874.878776 187.274494 
L 877.26127 187.010442 
L 879.643764 189.21387 
L 882.026259 184.065465 
L 884.408753 186.803118 
L 886.791247 186.677826 
L 889.173741 185.64488 
L 891.556236 186.348475 
L 893.93873 188.189494 
L 896.321224 184.89476 
L 898.703718 185.848531 
L 901.086212 185.863223 
L 903.468707 183.124754 
L 905.851201 185.330222 
L 908.233695 185.204521 
L 910.616189 183.683875 
L 912.998684 182.589711 
L 915.381178 188.018493 
L 917.763672 182.133844 
L 920.146166 184.475623 
L 922.52866 179.096224 
L 924.911155 183.08435 
L 927.293649 183.52675 
L 929.676143 180.150392 
L 932.058637 182.570938 
L 934.441131 180.933978 
L 936.823626 180.695637 
L 939.20612 182.187307 
L 941.588614 178.828499 
L 943.971108 186.370514 
L 946.353603 181.176808 
L 948.736097 180.636868 
L 951.118591 183.242291 
L 953.501085 180.480967 
L 955.883579 180.723797 
L 958.266074 178.666884 
L 960.648568 180.674415 
L 963.031062 179.325178 
L 965.413556 182.191797 
L 967.796051 178.79789 
L 970.178545 180.17039 
L 972.561039 180.566672 
L 974.943533 177.329482 
L 977.326027 182.157923 
L 979.708522 177.224188 
L 982.091016 178.243258 
L 984.47351 180.613605 
L 986.856004 176.612419 
L 989.238498 177.406208 
L 991.620993 177.08706 
L 996.385981 178.115517 
L 998.768475 177.257245 
L 1001.15097 179.602698 
L 1003.533464 179.77125 
L 1005.915958 177.77882 
L 1008.298452 176.714857 
L 1010.680946 178.131434 
L 1013.063441 175.697011 
L 1015.445935 176.633642 
L 1017.828429 175.55213 
L 1020.210923 179.278244 
L 1022.593418 173.690705 
L 1024.975912 178.069808 
L 1027.358406 174.907712 
L 1029.7409 175.564781 
L 1032.123394 174.409808 
L 1034.505889 176.780564 
L 1036.888383 177.507013 
L 1039.270877 171.273832 
L 1041.653371 174.918323 
L 1044.035866 173.3838 
L 1046.41836 175.863115 
L 1048.800854 174.799561 
L 1051.183348 176.874023 
L 1053.565842 171.793366 
L 1055.948337 175.984326 
L 1058.330831 173.06955 
L 1060.713325 174.440009 
L 1063.095819 176.074928 
L 1065.478313 173.764574 
L 1067.860808 174.759157 
L 1070.243302 172.692041 
L 1072.625796 176.665067 
L 1075.00829 171.133031 
L 1077.390785 173.9368 
L 1079.773279 172.598174 
L 1082.155773 173.667034 
L 1084.538267 172.593276 
L 1086.920761 172.784275 
L 1089.303256 175.949228 
L 1091.68575 172.327592 
L 1094.068244 170.217623 
L 1096.450738 172.996905 
L 1098.833233 171.667257 
L 1103.598221 170.752665 
L 1105.980715 172.145571 
L 1108.363209 170.788988 
L 1110.745704 169.919289 
L 1113.128198 170.842043 
L 1115.510692 172.340243 
L 1117.893186 172.135776 
L 1120.27568 171.429733 
L 1122.658175 172.9263 
L 1125.040669 173.835178 
L 1127.423163 169.819708 
L 1129.805657 167.244894 
L 1132.188152 170.230275 
L 1134.570646 170.418009 
L 1136.95314 168.119082 
L 1139.335634 172.670002 
L 1141.718128 165.205122 
L 1144.100623 173.246265 
L 1146.483117 171.858664 
L 1148.865611 169.918065 
L 1151.248105 171.799895 
L 1153.6306 167.992157 
L 1156.013094 168.018685 
L 1158.395588 171.778265 
L 1160.778082 168.493326 
L 1163.160576 169.731555 
L 1165.543071 167.668112 
L 1167.925565 168.504753 
L 1170.308059 169.961733 
L 1172.690553 165.833623 
L 1175.073048 165.54794 
L 1177.455542 171.475034 
L 1179.838036 166.975536 
L 1182.22053 167.879517 
L 1184.603024 170.775112 
L 1186.985519 165.753632 
L 1189.368013 169.625852 
L 1191.750507 167.613832 
L 1194.133001 167.155108 
L 1196.515495 168.767173 
L 1198.89799 165.461419 
L 1201.280484 168.570052 
L 1203.662978 168.744726 
L 1206.045472 166.881669 
L 1210.810461 169.077342 
L 1213.192955 165.665478 
L 1215.575449 167.652195 
L 1217.957943 167.502824 
L 1220.340438 166.237251 
L 1222.722932 166.569459 
L 1225.105426 165.097378 
L 1227.48792 169.398939 
L 1229.870415 165.029223 
L 1232.252909 165.214508 
L 1237.017897 167.250607 
L 1239.400391 165.003511 
L 1241.782886 166.533545 
L 1244.16538 166.716381 
L 1246.547874 164.871281 
L 1248.930368 167.93951 
L 1251.312862 165.140639 
L 1253.695357 166.780864 
L 1256.077851 164.879036 
L 1258.460345 163.926897 
L 1260.842839 168.101941 
L 1263.225334 167.484051 
L 1265.607828 163.762834 
L 1267.990322 166.992677 
L 1270.372816 166.962068 
L 1272.75531 169.064691 
L 1275.137805 161.615318 
L 1277.520299 160.532582 
L 1279.902793 169.313642 
L 1282.285287 166.575989 
L 1284.667782 161.76673 
L 1287.050276 165.983402 
L 1289.43277 165.72792 
L 1291.815264 163.508984 
L 1294.197758 165.460603 
L 1296.580253 164.128099 
L 1298.962747 161.854067 
L 1301.345241 166.529055 
L 1303.727735 162.749477 
L 1306.110229 163.715084 
L 1308.492724 168.797782 
L 1310.875218 162.525013 
L 1313.257712 161.205568 
L 1315.640206 163.646928 
L 1318.022701 162.351154 
L 1320.405195 164.042394 
L 1322.787689 161.516962 
L 1325.170183 162.038128 
L 1327.552677 165.924633 
L 1329.935172 162.947823 
L 1332.317666 161.427992 
L 1334.70016 164.842305 
L 1337.082654 160.361989 
L 1339.465149 162.16995 
L 1341.847643 163.436339 
L 1344.230137 162.657651 
L 1346.612631 160.639917 
L 1348.995125 165.913206 
L 1351.37762 160.857036 
L 1353.760114 164.49214 
L 1356.142608 158.581371 
L 1358.525102 162.189132 
L 1360.907597 161.487169 
L 1363.290091 163.199631 
L 1365.672585 159.97795 
L 1368.055079 165.210427 
L 1370.437573 158.885011 
L 1372.820068 163.266971 
L 1375.202562 160.453407 
L 1377.585056 161.89243 
L 1379.96755 162.546643 
L 1382.350044 160.253021 
L 1384.732539 162.246676 
L 1387.115033 160.612573 
L 1389.497527 160.619511 
L 1391.880021 161.494924 
L 1394.262516 159.710633 
L 1396.64501 163.274317 
L 1399.027504 160.785615 
L 1401.409998 160.153033 
L 1403.792492 161.952423 
L 1406.174987 162.670303 
L 1408.557481 159.278028 
L 1410.939975 161.463498 
L 1413.322469 158.368742 
L 1415.704964 162.205048 
L 1418.087458 163.872617 
L 1420.469952 160.757047 
L 1422.852446 162.683362 
L 1425.23494 160.708481 
L 1427.617435 160.957024 
L 1429.999929 161.320657 
L 1432.382423 160.695829 
L 1434.764917 161.009263 
L 1437.147411 160.966003 
L 1439.529906 161.036199 
L 1441.9124 160.647263 
L 1444.294894 161.441052 
L 1446.677388 160.509727 
L 1449.059883 160.404841 
L 1451.442377 160.73256 
L 1453.824871 159.484944 
L 1456.207365 157.722283 
L 1458.589859 159.871839 
L 1460.972354 159.256398 
L 1463.354848 160.540336 
L 1465.737342 161.045994 
L 1468.119836 158.320992 
L 1470.502331 156.741169 
L 1472.884825 159.122535 
L 1475.267319 159.798378 
L 1477.649813 156.24 
L 1480.032307 160.033454 
L 1482.414802 162.96578 
L 1484.797296 158.289567 
L 1487.17979 156.795448 
L 1489.562284 159.877961 
L 1491.944779 160.292609 
L 1494.327273 157.633722 
L 1494.327273 157.633722 
" clip-path="url(#p631bddf543)" style="fill: none; stroke: #00c9a7; stroke-width: 2.25; stroke-linecap: round"/>
   </g>
   <g id="line2d_13">
    <path d="M 276.872727 857.595984 
L 279.255221 825.79831 
L 281.637716 808.893258 
L 284.02021 794.216529 
L 295.932681 766.348212 
L 298.315175 763.759521 
L 300.697669 760.110949 
L 303.080164 753.769208 
L 305.462658 743.52627 
L 307.845152 734.139971 
L 310.227646 728.702619 
L 312.610141 717.702623 
L 314.992635 713.554514 
L 317.375129 706.375724 
L 319.757623 698.660667 
L 322.140117 692.06426 
L 324.522612 689.3715 
L 326.905106 678.153977 
L 329.2876 677.71525 
L 331.670094 664.489788 
L 334.052589 660.616751 
L 336.435083 652.942914 
L 338.817577 646.188566 
L 341.200071 636.79288 
L 343.582565 628.561962 
L 345.96506 615.34303 
L 348.347554 608.173218 
L 350.730048 595.444843 
L 353.112542 576.726933 
L 355.495036 561.349874 
L 360.260025 515.023618 
L 362.642519 494.58794 
L 365.025013 475.987976 
L 367.407508 463.153898 
L 369.790002 441.900353 
L 372.172496 436.738888 
L 374.55499 422.613526 
L 376.937484 411.135216 
L 379.319979 401.29958 
L 381.702473 395.627152 
L 384.084967 384.578997 
L 391.23245 364.933435 
L 393.614944 361.772972 
L 395.997438 352.629503 
L 398.379932 350.768486 
L 400.762427 342.719181 
L 403.144921 342.037624 
L 405.527415 332.37054 
L 407.909909 331.729387 
L 410.292403 326.506297 
L 412.674898 324.95096 
L 415.057392 318.551267 
L 417.439886 319.482591 
L 419.82238 309.517173 
L 422.204875 312.39726 
L 424.587369 308.594827 
L 426.969863 306.204074 
L 429.352357 301.739266 
L 431.734851 301.370328 
L 434.117346 297.000612 
L 436.49984 296.131729 
L 438.882334 293.064316 
L 443.647323 289.856511 
L 446.029817 287.66696 
L 448.412311 285.650042 
L 450.794805 286.100604 
L 453.177299 284.688925 
L 455.559794 279.496035 
L 457.942288 279.552764 
L 460.324782 278.347184 
L 465.089771 276.957135 
L 467.472265 275.52505 
L 469.854759 273.953389 
L 472.237253 272.764542 
L 474.619747 269.098829 
L 479.384736 269.780385 
L 481.76723 269.982812 
L 484.149724 266.313017 
L 486.532218 266.167319 
L 488.914713 264.805022 
L 491.297207 263.761057 
L 493.679701 262.848506 
L 496.062195 263.892879 
L 498.44469 262.004111 
L 500.827184 264.837264 
L 505.592172 258.881194 
L 507.974666 259.324818 
L 510.357161 257.036094 
L 512.739655 260.253694 
L 515.122149 255.63625 
L 517.504643 254.069486 
L 519.887138 252.658215 
L 522.269632 253.866244 
L 524.652126 251.347341 
L 527.03462 251.014725 
L 529.417114 253.134897 
L 531.799609 252.053793 
L 534.182103 247.320036 
L 536.564597 246.203426 
L 538.947091 243.746557 
L 541.329585 245.945087 
L 543.71208 246.591137 
L 546.094574 242.232032 
L 548.477068 243.557599 
L 550.859562 242.856044 
L 553.242057 243.478424 
L 555.624551 239.764144 
L 560.389539 239.985752 
L 562.772033 237.238304 
L 565.154528 236.652247 
L 567.537022 237.772938 
L 569.919516 237.09832 
L 572.30201 237.849664 
L 574.684505 237.27381 
L 577.066999 235.160169 
L 579.449493 235.265055 
L 584.214481 230.326831 
L 586.596976 231.566284 
L 588.97947 233.043262 
L 591.361964 232.916746 
L 593.744458 228.257674 
L 596.126952 228.375212 
L 598.509447 228.63355 
L 600.891941 228.771494 
L 603.274435 227.838537 
L 605.656929 226.385638 
L 608.039424 227.512859 
L 610.421918 225.80407 
L 612.804412 226.366865 
L 615.186906 225.104149 
L 617.5694 222.641158 
L 619.951895 225.942422 
L 622.334389 223.581053 
L 624.716883 222.997445 
L 627.099377 223.808375 
L 629.481872 220.662604 
L 631.864366 221.990619 
L 636.629354 221.355179 
L 639.011848 216.80181 
L 641.394343 222.333437 
L 643.776837 218.98524 
L 646.159331 217.337261 
L 648.541825 219.340302 
L 650.92432 217.686609 
L 653.306814 214.929774 
L 655.689308 218.960345 
L 658.071802 217.07076 
L 660.454296 216.909961 
L 662.836791 216.489192 
L 665.219285 211.307321 
L 667.601779 213.078552 
L 669.984273 215.458695 
L 672.366767 212.801849 
L 674.749262 212.113762 
L 677.131756 210.976338 
L 679.51425 214.874678 
L 681.896744 211.647284 
L 684.279239 211.879094 
L 686.661733 211.693809 
L 689.044227 209.750761 
L 691.426721 212.230484 
L 693.809215 211.409759 
L 696.19171 207.795877 
L 698.574204 208.256642 
L 700.956698 207.94035 
L 703.339192 205.326357 
L 705.721687 206.48786 
L 708.104181 209.177355 
L 710.486675 206.848227 
L 712.869169 208.006057 
L 715.251663 203.249854 
L 717.634158 207.513051 
L 720.016652 203.935491 
L 722.399146 205.318602 
L 724.78164 206.30788 
L 727.164134 206.250743 
L 729.546629 204.537057 
L 731.929123 204.098739 
L 734.311617 203.406163 
L 736.694111 201.874497 
L 739.076606 203.562064 
L 741.4591 203.004983 
L 743.841594 201.036223 
L 746.224088 204.422784 
L 748.606582 201.277421 
L 750.989077 201.8998 
L 753.371571 197.444788 
L 755.754065 200.700751 
L 758.136559 197.623543 
L 760.519054 200.651776 
L 762.901548 200.791761 
L 765.284042 199.055628 
L 767.666536 197.759038 
L 770.04903 198.586701 
L 772.431525 197.962281 
L 774.814019 202.047947 
L 777.196513 198.212457 
L 779.579007 198.164707 
L 781.961502 199.016857 
L 784.343996 198.808717 
L 786.72649 193.977011 
L 789.108984 194.899766 
L 791.491478 198.256534 
L 793.873973 193.516247 
L 796.256467 196.928519 
L 798.638961 194.682239 
L 801.021455 196.357562 
L 803.403949 194.457774 
L 805.786444 195.777627 
L 808.168938 192.661648 
L 810.551432 196.403271 
L 812.933926 195.499699 
L 817.698915 192.126198 
L 820.081409 194.4088 
L 822.463903 194.405127 
L 824.846397 193.160368 
L 827.228892 189.693816 
L 829.611386 192.602879 
L 831.99388 191.991927 
L 834.376374 193.470945 
L 836.758869 188.558841 
L 839.141363 191.963359 
L 841.523857 192.39229 
L 843.906351 189.217951 
L 846.288845 192.99508 
L 848.67134 184.667847 
L 851.053834 190.548415 
L 853.436328 190.56025 
L 855.818822 189.658718 
L 858.201316 185.589376 
L 860.583811 188.664951 
L 862.966305 189.559954 
L 865.348799 188.858807 
L 867.731293 186.307664 
L 870.113788 189.406909 
L 872.496282 183.918951 
L 874.878776 188.367842 
L 877.26127 186.574981 
L 879.643764 189.56077 
L 882.026259 183.243924 
L 884.408753 186.056671 
L 886.791247 187.988292 
L 889.173741 184.959243 
L 891.556236 185.845266 
L 893.93873 185.966069 
L 896.321224 182.444013 
L 898.703718 188.992262 
L 901.086212 184.382164 
L 903.468707 184.238507 
L 905.851201 185.941582 
L 908.233695 185.191462 
L 910.616189 184.847418 
L 912.998684 183.343505 
L 915.381178 184.493172 
L 917.763672 184.545003 
L 920.146166 181.935907 
L 922.52866 185.103716 
L 924.911155 181.18293 
L 927.293649 185.146977 
L 929.676143 183.330445 
L 932.058637 180.056117 
L 934.441131 185.307367 
L 936.823626 179.76921 
L 939.20612 184.17484 
L 941.588614 181.295978 
L 943.971108 180.585445 
L 946.353603 182.714595 
L 948.736097 184.205449 
L 951.118591 181.91795 
L 953.501085 179.857771 
L 955.883579 182.014265 
L 958.266074 178.807276 
L 960.648568 180.412403 
L 963.031062 179.876545 
L 965.413556 178.151431 
L 967.796051 180.323026 
L 970.178545 181.617575 
L 972.561039 180.352002 
L 974.943533 179.757783 
L 977.326027 176.967074 
L 979.708522 182.164453 
L 982.091016 176.50182 
L 984.47351 179.907154 
L 986.856004 179.761048 
L 989.238498 179.022354 
L 991.620993 177.281732 
L 994.003487 180.358124 
L 996.385981 178.434257 
L 998.768475 178.929712 
L 1001.15097 178.940323 
L 1003.533464 174.120045 
L 1005.915958 177.970227 
L 1008.298452 175.125239 
L 1010.680946 180.181817 
L 1013.063441 177.577618 
L 1015.445935 176.505084 
L 1017.828429 178.473436 
L 1020.210923 176.87892 
L 1022.593418 176.340613 
L 1024.975912 172.36922 
L 1027.358406 177.782901 
L 1029.7409 176.529163 
L 1032.123394 178.295497 
L 1034.505889 175.554578 
L 1036.888383 177.039719 
L 1039.270877 174.385729 
L 1041.653371 175.828017 
L 1044.035866 177.93268 
L 1046.41836 172.938952 
L 1048.800854 177.546193 
L 1051.183348 172.953644 
L 1053.565842 175.468874 
L 1055.948337 176.262663 
L 1058.330831 173.412369 
L 1060.713325 178.214281 
L 1063.095819 175.669259 
L 1065.478313 172.36473 
L 1067.860808 175.982694 
L 1070.243302 171.462382 
L 1072.625796 175.159112 
L 1075.00829 173.39686 
L 1077.390785 177.9739 
L 1079.773279 172.39738 
L 1082.155773 174.544079 
L 1084.538267 175.360722 
L 1086.920761 171.970897 
L 1089.303256 171.463607 
L 1091.68575 169.085505 
L 1094.068244 171.830912 
L 1096.450738 171.621956 
L 1098.833233 172.289637 
L 1101.215727 174.328593 
L 1103.598221 171.327703 
L 1105.980715 171.625221 
L 1108.363209 173.772736 
L 1110.745704 173.352375 
L 1113.128198 173.62459 
L 1115.510692 171.528905 
L 1117.893186 172.76591 
L 1120.27568 172.748361 
L 1122.658175 171.026104 
L 1125.040669 169.948265 
L 1127.423163 171.730515 
L 1129.805657 172.364322 
L 1132.188152 171.390553 
L 1134.570646 170.776336 
L 1136.95314 167.778304 
L 1139.335634 169.243854 
L 1141.718128 171.083649 
L 1146.483117 170.647779 
L 1148.865611 168.981435 
L 1151.248105 164.99086 
L 1153.6306 169.979691 
L 1156.013094 170.349853 
L 1158.395588 168.190503 
L 1160.778082 166.966149 
L 1163.160576 171.443609 
L 1165.543071 169.840931 
L 1167.925565 169.246303 
L 1170.308059 168.378237 
L 1172.690553 171.644403 
L 1175.073048 171.730924 
L 1177.455542 169.221 
L 1179.838036 167.055119 
L 1182.22053 168.677387 
L 1184.603024 169.849909 
L 1186.985519 167.519965 
L 1189.368013 166.204602 
L 1191.750507 168.633718 
L 1194.133001 167.686477 
L 1196.515495 169.171617 
L 1198.89799 166.618841 
L 1201.280484 168.562706 
L 1203.662978 165.425913 
L 1206.045472 169.032857 
L 1208.427967 164.220742 
L 1210.810461 166.451921 
L 1215.575449 167.825237 
L 1217.957943 169.741758 
L 1220.340438 166.196439 
L 1222.722932 167.795036 
L 1225.105426 166.041355 
L 1227.48792 166.056047 
L 1229.870415 165.532024 
L 1232.252909 166.845755 
L 1234.635403 165.083911 
L 1237.017897 165.181859 
L 1239.400391 168.043172 
L 1241.782886 162.256879 
L 1244.16538 166.949417 
L 1246.547874 165.112071 
L 1248.930368 166.918808 
L 1251.312862 164.979024 
L 1253.695357 167.517516 
L 1256.077851 163.391038 
L 1258.460345 166.823716 
L 1260.842839 164.820267 
L 1263.225334 169.817668 
L 1265.607828 163.570202 
L 1267.990322 165.73894 
L 1270.372816 168.510059 
L 1272.75531 162.632756 
L 1275.137805 165.511618 
L 1277.520299 165.274502 
L 1279.902793 164.549685 
L 1282.285287 162.649897 
L 1284.667782 165.604261 
L 1287.050276 166.789434 
L 1289.43277 164.626003 
L 1291.815264 164.807615 
L 1294.197758 162.531134 
L 1296.580253 165.921368 
L 1298.962747 164.425617 
L 1301.345241 164.27094 
L 1303.727735 162.842528 
L 1306.110229 164.579885 
L 1308.492724 163.175552 
L 1310.875218 163.273092 
L 1313.257712 165.559776 
L 1315.640206 163.359613 
L 1318.022701 163.73549 
L 1320.405195 161.329636 
L 1322.787689 164.82598 
L 1325.170183 164.393784 
L 1327.552677 162.33034 
L 1329.935172 162.402169 
L 1332.317666 160.572578 
L 1334.70016 163.015162 
L 1337.082654 163.355532 
L 1339.465149 163.81997 
L 1341.847643 165.927898 
L 1344.230137 160.665628 
L 1346.612631 163.082093 
L 1348.995125 163.657539 
L 1351.37762 162.064656 
L 1353.760114 159.136411 
L 1356.142608 163.046179 
L 1358.525102 158.920517 
L 1360.907597 163.179633 
L 1363.290091 161.908347 
L 1365.672585 159.94979 
L 1368.055079 162.711931 
L 1370.437573 163.038425 
L 1372.820068 162.881707 
L 1375.202562 163.359205 
L 1377.585056 164.935356 
L 1379.96755 161.632051 
L 1382.350044 161.570425 
L 1384.732539 158.611164 
L 1387.115033 164.256248 
L 1391.880021 160.98396 
L 1394.262516 160.809694 
L 1396.64501 163.429401 
L 1399.027504 160.672974 
L 1401.409998 162.867423 
L 1403.792492 157.178263 
L 1406.174987 160.996612 
L 1408.557481 160.068144 
L 1410.939975 159.842455 
L 1413.322469 161.522676 
L 1415.704964 159.70696 
L 1418.087458 162.199335 
L 1420.469952 160.400352 
L 1422.852446 159.82613 
L 1425.23494 162.131995 
L 1427.617435 160.743579 
L 1429.999929 158.062654 
L 1432.382423 160.58727 
L 1437.147411 160.632163 
L 1439.529906 158.255285 
L 1441.9124 162.310751 
L 1444.294894 157.550874 
L 1446.677388 160.043657 
L 1449.059883 161.050483 
L 1451.442377 158.383434 
L 1456.207365 159.878369 
L 1458.589859 160.093447 
L 1460.972354 158.566271 
L 1463.354848 160.952943 
L 1465.737342 158.705439 
L 1468.119836 160.268938 
L 1470.502331 157.508838 
L 1472.884825 161.023956 
L 1475.267319 158.103465 
L 1477.649813 157.258662 
L 1480.032307 159.521674 
L 1482.414802 158.840526 
L 1484.797296 156.986855 
L 1487.17979 160.780718 
L 1489.562284 160.602778 
L 1491.944779 157.491289 
L 1494.327273 158.166724 
L 1494.327273 158.166724 
" clip-path="url(#p631bddf543)" style="fill: none; stroke: #ffc75f; stroke-width: 2.25; stroke-linecap: round"/>
   </g>
   <g id="patch_3">
    <path d="M 216 897.12 
L 216 120.96 
" style="fill: none; stroke: #262626; stroke-width: 1.875; stroke-linejoin: miter; stroke-linecap: square"/>
   </g>
   <g id="patch_4">
    <path d="M 1555.2 897.12 
L 1555.2 120.96 
" style="fill: none; stroke: #262626; stroke-width: 1.875; stroke-linejoin: miter; stroke-linecap: square"/>
   </g>
   <g id="patch_5">
    <path d="M 216 897.12 
L 1555.2 897.12 
" style="fill: none; stroke: #262626; stroke-width: 1.875; stroke-linejoin: miter; stroke-linecap: square"/>
   </g>
   <g id="patch_6">
    <path d="M 216 120.96 
L 1555.2 120.96 
" style="fill: none; stroke: #262626; stroke-width: 1.875; stroke-linejoin: miter; stroke-linecap: square"/>
   </g>
   <g id="text_14">
    <!-- Df(Z) -->
    <g style="fill: #262626" transform="translate(820.916406 110.561563)scale(0.5 -0.5)">
     <use xlink:href="#DejaVuSans-44"/>
     <use xlink:href="#DejaVuSans-66" x="77.001953"/>
     <use xlink:href="#DejaVuSans-28" x="112.207031"/>
     <use xlink:href="#DejaVuSans-5a" x="151.220703"/>
     <use xlink:href="#DejaVuSans-29" x="219.726562"/>
    </g>
   </g>
   <g id="legend_1">
    <g id="patch_7">
     <path d="M 227.55 182.597813 
L 361.029844 182.597813 
Q 364.329844 182.597813 364.329844 179.297813 
L 364.329844 132.51 
Q 364.329844 129.21 361.029844 129.21 
L 227.55 129.21 
Q 224.25 129.21 224.25 132.51 
L 224.25 179.297813 
Q 224.25 182.597813 227.55 182.597813 
z
" style="fill: #ffffff; opacity: 0.8; stroke: #cccccc; stroke-width: 1.5; stroke-linejoin: miter"/>
    </g>
    <g id="line2d_14">
     <path d="M 230.85 142.572422 
L 247.35 142.572422 
L 263.85 142.572422 
" style="fill: none; stroke: #00c9a7; stroke-width: 2.25; stroke-linecap: round"/>
    </g>
    <g id="text_15">
     <!-- df trace -->
     <g style="fill: #262626" transform="translate(277.05 148.347422)scale(0.165 -0.165)">
      <defs>
       <path id="DejaVuSans-64" d="M 2906 2969 
L 2906 4863 
L 3481 4863 
L 3481 0 
L 2906 0 
L 2906 525 
Q 2725 213 2448 61 
Q 2172 -91 1784 -91 
Q 1150 -91 751 415 
Q 353 922 353 1747 
Q 353 2572 751 3078 
Q 1150 3584 1784 3584 
Q 2172 3584 2448 3432 
Q 2725 3281 2906 2969 
z
M 947 1747 
Q 947 1113 1208 752 
Q 1469 391 1925 391 
Q 2381 391 2643 752 
Q 2906 1113 2906 1747 
Q 2906 2381 2643 2742 
Q 2381 3103 1925 3103 
Q 1469 3103 1208 2742 
Q 947 2381 947 1747 
z
" transform="scale(0.015625)"/>
       <path id="DejaVuSans-74" d="M 1172 4494 
L 1172 3500 
L 2356 3500 
L 2356 3053 
L 1172 3053 
L 1172 1153 
Q 1172 725 1289 603 
Q 1406 481 1766 481 
L 2356 481 
L 2356 0 
L 1766 0 
Q 1100 0 847 248 
Q 594 497 594 1153 
L 594 3053 
L 172 3053 
L 172 3500 
L 594 3500 
L 594 4494 
L 1172 4494 
z
" transform="scale(0.015625)"/>
       <path id="DejaVuSans-72" d="M 2631 2963 
Q 2534 3019 2420 3045 
Q 2306 3072 2169 3072 
Q 1681 3072 1420 2755 
Q 1159 2438 1159 1844 
L 1159 0 
L 581 0 
L 581 3500 
L 1159 3500 
L 1159 2956 
Q 1341 3275 1631 3429 
Q 1922 3584 2338 3584 
Q 2397 3584 2469 3576 
Q 2541 3569 2628 3553 
L 2631 2963 
z
" transform="scale(0.015625)"/>
       <path id="DejaVuSans-61" d="M 2194 1759 
Q 1497 1759 1228 1600 
Q 959 1441 959 1056 
Q 959 750 1161 570 
Q 1363 391 1709 391 
Q 2188 391 2477 730 
Q 2766 1069 2766 1631 
L 2766 1759 
L 2194 1759 
z
M 3341 1997 
L 3341 0 
L 2766 0 
L 2766 531 
Q 2569 213 2275 61 
Q 1981 -91 1556 -91 
Q 1019 -91 701 211 
Q 384 513 384 1019 
Q 384 1609 779 1909 
Q 1175 2209 1959 2209 
L 2766 2209 
L 2766 2266 
Q 2766 2663 2505 2880 
Q 2244 3097 1772 3097 
Q 1472 3097 1187 3025 
Q 903 2953 641 2809 
L 641 3341 
Q 956 3463 1253 3523 
Q 1550 3584 1831 3584 
Q 2591 3584 2966 3190 
Q 3341 2797 3341 1997 
z
" transform="scale(0.015625)"/>
       <path id="DejaVuSans-63" d="M 3122 3366 
L 3122 2828 
Q 2878 2963 2633 3030 
Q 2388 3097 2138 3097 
Q 1578 3097 1268 2742 
Q 959 2388 959 1747 
Q 959 1106 1268 751 
Q 1578 397 2138 397 
Q 2388 397 2633 464 
Q 2878 531 3122 666 
L 3122 134 
Q 2881 22 2623 -34 
Q 2366 -91 2075 -91 
Q 1284 -91 818 406 
Q 353 903 353 1747 
Q 353 2603 823 3093 
Q 1294 3584 2113 3584 
Q 2378 3584 2631 3529 
Q 2884 3475 3122 3366 
z
" transform="scale(0.015625)"/>
       <path id="DejaVuSans-65" d="M 3597 1894 
L 3597 1613 
L 953 1613 
Q 991 1019 1311 708 
Q 1631 397 2203 397 
Q 2534 397 2845 478 
Q 3156 559 3463 722 
L 3463 178 
Q 3153 47 2828 -22 
Q 2503 -91 2169 -91 
Q 1331 -91 842 396 
Q 353 884 353 1716 
Q 353 2575 817 3079 
Q 1281 3584 2069 3584 
Q 2775 3584 3186 3129 
Q 3597 2675 3597 1894 
z
M 3022 2063 
Q 3016 2534 2758 2815 
Q 2500 3097 2075 3097 
Q 1594 3097 1305 2825 
Q 1016 2553 972 2059 
L 3022 2063 
z
" transform="scale(0.015625)"/>
      </defs>
      <use xlink:href="#DejaVuSans-64"/>
      <use xlink:href="#DejaVuSans-66" x="63.476562"/>
      <use xlink:href="#DejaVuSans-20" x="98.681641"/>
      <use xlink:href="#DejaVuSans-74" x="130.46875"/>
      <use xlink:href="#DejaVuSans-72" x="169.677734"/>
      <use xlink:href="#DejaVuSans-61" x="210.791016"/>
      <use xlink:href="#DejaVuSans-63" x="272.070312"/>
      <use xlink:href="#DejaVuSans-65" x="327.050781"/>
     </g>
    </g>
    <g id="line2d_15">
     <path d="M 230.85 166.791328 
L 247.35 166.791328 
L 263.85 166.791328 
" style="fill: none; stroke: #ffc75f; stroke-width: 2.25; stroke-linecap: round"/>
    </g>
    <g id="text_16">
     <!-- df retrace -->
     <g style="fill: #262626" transform="translate(277.05 172.566328)scale(0.165 -0.165)">
      <use xlink:href="#DejaVuSans-64"/>
      <use xlink:href="#DejaVuSans-66" x="63.476562"/>
      <use xlink:href="#DejaVuSans-20" x="98.681641"/>
      <use xlink:href="#DejaVuSans-72" x="130.46875"/>
      <use xlink:href="#DejaVuSans-65" x="169.332031"/>
      <use xlink:href="#DejaVuSans-74" x="230.855469"/>
      <use xlink:href="#DejaVuSans-72" x="270.064453"/>
      <use xlink:href="#DejaVuSans-61" x="311.177734"/>
      <use xlink:href="#DejaVuSans-63" x="372.457031"/>
      <use xlink:href="#DejaVuSans-65" x="427.4375"/>
     </g>
    </g>
   </g>
  </g>
 </g>
 <defs>
  <clipPath id="p631bddf543">
   <rect x="216" y="120.96" width="1339.2" height="776.16"/>
  </clipPath>
 </defs>
</svg>
