<?xml version="1.0" encoding="utf-8" standalone="no"?>
<!DOCTYPE svg PUBLIC "-//W3C//DTD SVG 1.1//EN"
  "http://www.w3.org/Graphics/SVG/1.1/DTD/svg11.dtd">
<svg xmlns:xlink="http://www.w3.org/1999/xlink" width="1728pt" height="1008pt" viewBox="0 0 1728 1008" xmlns="http://www.w3.org/2000/svg" version="1.1">
 <metadata>
  <rdf:RDF xmlns:dc="http://purl.org/dc/elements/1.1/" xmlns:cc="http://creativecommons.org/ns#" xmlns:rdf="http://www.w3.org/1999/02/22-rdf-syntax-ns#">
   <cc:Work>
    <dc:type rdf:resource="http://purl.org/dc/dcmitype/StillImage"/>
    <dc:date>2022-10-31T00:00:02.276373</dc:date>
    <dc:format>image/svg+xml</dc:format>
    <dc:creator>
     <cc:Agent>
      <dc:title>Matplotlib v3.5.2, https://matplotlib.org/</dc:title>
     </cc:Agent>
    </dc:creator>
   </cc:Work>
  </rdf:RDF>
 </metadata>
 <defs>
  <style type="text/css">*{stroke-linejoin: round; stroke-linecap: butt}</style>
 </defs>
 <g id="figure_1">
  <g id="patch_1">
   <path d="M 0 1008 
L 1728 1008 
L 1728 0 
L 0 0 
z
" style="fill: #ffffff"/>
  </g>
  <g id="axes_1">
   <g id="patch_2">
    <path d="M 216 897.12 
L 1555.2 897.12 
L 1555.2 120.96 
L 216 120.96 
L 216 897.12 
z
" style="fill: none"/>
   </g>
   <g id="matplotlib.axis_1">
    <g id="xtick_1">
     <g id="line2d_1">
      <defs>
       <path id="m2b1231af15" d="M 0 0 
L 0 9 
" style="stroke: #262626; stroke-width: 1.875"/>
      </defs>
      <g>
       <use xlink:href="#m2b1231af15" x="449.498523" y="897.12" style="fill: #262626; stroke: #262626; stroke-width: 1.875"/>
      </g>
     </g>
     <g id="text_1">
      <!-- 0.0 -->
      <g style="fill: #262626" transform="translate(411.331023 946.0925)scale(0.48 -0.48)">
       <defs>
        <path id="DejaVuSans-30" d="M 2034 4250 
Q 1547 4250 1301 3770 
Q 1056 3291 1056 2328 
Q 1056 1369 1301 889 
Q 1547 409 2034 409 
Q 2525 409 2770 889 
Q 3016 1369 3016 2328 
Q 3016 3291 2770 3770 
Q 2525 4250 2034 4250 
z
M 2034 4750 
Q 2819 4750 3233 4129 
Q 3647 3509 3647 2328 
Q 3647 1150 3233 529 
Q 2819 -91 2034 -91 
Q 1250 -91 836 529 
Q 422 1150 422 2328 
Q 422 3509 836 4129 
Q 1250 4750 2034 4750 
z
" transform="scale(0.015625)"/>
        <path id="DejaVuSans-2e" d="M 684 794 
L 1344 794 
L 1344 0 
L 684 0 
L 684 794 
z
" transform="scale(0.015625)"/>
       </defs>
       <use xlink:href="#DejaVuSans-30"/>
       <use xlink:href="#DejaVuSans-2e" x="63.623047"/>
       <use xlink:href="#DejaVuSans-30" x="95.410156"/>
      </g>
     </g>
    </g>
    <g id="xtick_2">
     <g id="line2d_2">
      <g>
       <use xlink:href="#m2b1231af15" x="711.052758" y="897.12" style="fill: #262626; stroke: #262626; stroke-width: 1.875"/>
      </g>
     </g>
     <g id="text_2">
      <!-- 0.5 -->
      <g style="fill: #262626" transform="translate(672.885258 946.0925)scale(0.48 -0.48)">
       <defs>
        <path id="DejaVuSans-35" d="M 691 4666 
L 3169 4666 
L 3169 4134 
L 1269 4134 
L 1269 2991 
Q 1406 3038 1543 3061 
Q 1681 3084 1819 3084 
Q 2600 3084 3056 2656 
Q 3513 2228 3513 1497 
Q 3513 744 3044 326 
Q 2575 -91 1722 -91 
Q 1428 -91 1123 -41 
Q 819 9 494 109 
L 494 744 
Q 775 591 1075 516 
Q 1375 441 1709 441 
Q 2250 441 2565 725 
Q 2881 1009 2881 1497 
Q 2881 1984 2565 2268 
Q 2250 2553 1709 2553 
Q 1456 2553 1204 2497 
Q 953 2441 691 2322 
L 691 4666 
z
" transform="scale(0.015625)"/>
       </defs>
       <use xlink:href="#DejaVuSans-30"/>
       <use xlink:href="#DejaVuSans-2e" x="63.623047"/>
       <use xlink:href="#DejaVuSans-35" x="95.410156"/>
      </g>
     </g>
    </g>
    <g id="xtick_3">
     <g id="line2d_3">
      <g>
       <use xlink:href="#m2b1231af15" x="972.606993" y="897.12" style="fill: #262626; stroke: #262626; stroke-width: 1.875"/>
      </g>
     </g>
     <g id="text_3">
      <!-- 1.0 -->
      <g style="fill: #262626" transform="translate(934.439493 946.0925)scale(0.48 -0.48)">
       <defs>
        <path id="DejaVuSans-31" d="M 794 531 
L 1825 531 
L 1825 4091 
L 703 3866 
L 703 4441 
L 1819 4666 
L 2450 4666 
L 2450 531 
L 3481 531 
L 3481 0 
L 794 0 
L 794 531 
z
" transform="scale(0.015625)"/>
       </defs>
       <use xlink:href="#DejaVuSans-31"/>
       <use xlink:href="#DejaVuSans-2e" x="63.623047"/>
       <use xlink:href="#DejaVuSans-30" x="95.410156"/>
      </g>
     </g>
    </g>
    <g id="xtick_4">
     <g id="line2d_4">
      <g>
       <use xlink:href="#m2b1231af15" x="1234.161228" y="897.12" style="fill: #262626; stroke: #262626; stroke-width: 1.875"/>
      </g>
     </g>
     <g id="text_4">
      <!-- 1.5 -->
      <g style="fill: #262626" transform="translate(1195.993728 946.0925)scale(0.48 -0.48)">
       <use xlink:href="#DejaVuSans-31"/>
       <use xlink:href="#DejaVuSans-2e" x="63.623047"/>
       <use xlink:href="#DejaVuSans-35" x="95.410156"/>
      </g>
     </g>
    </g>
    <g id="xtick_5">
     <g id="line2d_5">
      <g>
       <use xlink:href="#m2b1231af15" x="1495.715464" y="897.12" style="fill: #262626; stroke: #262626; stroke-width: 1.875"/>
      </g>
     </g>
     <g id="text_5">
      <!-- 2.0 -->
      <g style="fill: #262626" transform="translate(1457.547964 946.0925)scale(0.48 -0.48)">
       <defs>
        <path id="DejaVuSans-32" d="M 1228 531 
L 3431 531 
L 3431 0 
L 469 0 
L 469 531 
Q 828 903 1448 1529 
Q 2069 2156 2228 2338 
Q 2531 2678 2651 2914 
Q 2772 3150 2772 3378 
Q 2772 3750 2511 3984 
Q 2250 4219 1831 4219 
Q 1534 4219 1204 4116 
Q 875 4013 500 3803 
L 500 4441 
Q 881 4594 1212 4672 
Q 1544 4750 1819 4750 
Q 2544 4750 2975 4387 
Q 3406 4025 3406 3419 
Q 3406 3131 3298 2873 
Q 3191 2616 2906 2266 
Q 2828 2175 2409 1742 
Q 1991 1309 1228 531 
z
" transform="scale(0.015625)"/>
       </defs>
       <use xlink:href="#DejaVuSans-32"/>
       <use xlink:href="#DejaVuSans-2e" x="63.623047"/>
       <use xlink:href="#DejaVuSans-30" x="95.410156"/>
      </g>
     </g>
    </g>
    <g id="text_6">
     <!-- Z [nm] -->
     <g style="fill: #262626" transform="translate(804.2175 996.5475)scale(0.48 -0.48)">
      <defs>
       <path id="DejaVuSans-5a" d="M 359 4666 
L 4025 4666 
L 4025 4184 
L 1075 531 
L 4097 531 
L 4097 0 
L 288 0 
L 288 481 
L 3238 4134 
L 359 4134 
L 359 4666 
z
" transform="scale(0.015625)"/>
       <path id="DejaVuSans-20" transform="scale(0.015625)"/>
       <path id="DejaVuSans-5b" d="M 550 4863 
L 1875 4863 
L 1875 4416 
L 1125 4416 
L 1125 -397 
L 1875 -397 
L 1875 -844 
L 550 -844 
L 550 4863 
z
" transform="scale(0.015625)"/>
       <path id="DejaVuSans-6e" d="M 3513 2113 
L 3513 0 
L 2938 0 
L 2938 2094 
Q 2938 2591 2744 2837 
Q 2550 3084 2163 3084 
Q 1697 3084 1428 2787 
Q 1159 2491 1159 1978 
L 1159 0 
L 581 0 
L 581 3500 
L 1159 3500 
L 1159 2956 
Q 1366 3272 1645 3428 
Q 1925 3584 2291 3584 
Q 2894 3584 3203 3211 
Q 3513 2838 3513 2113 
z
" transform="scale(0.015625)"/>
       <path id="DejaVuSans-6d" d="M 3328 2828 
Q 3544 3216 3844 3400 
Q 4144 3584 4550 3584 
Q 5097 3584 5394 3201 
Q 5691 2819 5691 2113 
L 5691 0 
L 5113 0 
L 5113 2094 
Q 5113 2597 4934 2840 
Q 4756 3084 4391 3084 
Q 3944 3084 3684 2787 
Q 3425 2491 3425 1978 
L 3425 0 
L 2847 0 
L 2847 2094 
Q 2847 2600 2669 2842 
Q 2491 3084 2119 3084 
Q 1678 3084 1418 2786 
Q 1159 2488 1159 1978 
L 1159 0 
L 581 0 
L 581 3500 
L 1159 3500 
L 1159 2956 
Q 1356 3278 1631 3431 
Q 1906 3584 2284 3584 
Q 2666 3584 2933 3390 
Q 3200 3197 3328 2828 
z
" transform="scale(0.015625)"/>
       <path id="DejaVuSans-5d" d="M 1947 4863 
L 1947 -844 
L 622 -844 
L 622 -397 
L 1369 -397 
L 1369 4416 
L 622 4416 
L 622 4863 
L 1947 4863 
z
" transform="scale(0.015625)"/>
      </defs>
      <use xlink:href="#DejaVuSans-5a"/>
      <use xlink:href="#DejaVuSans-20" x="68.505859"/>
      <use xlink:href="#DejaVuSans-5b" x="100.292969"/>
      <use xlink:href="#DejaVuSans-6e" x="139.306641"/>
      <use xlink:href="#DejaVuSans-6d" x="202.685547"/>
      <use xlink:href="#DejaVuSans-5d" x="300.097656"/>
     </g>
    </g>
   </g>
   <g id="matplotlib.axis_2">
    <g id="ytick_1">
     <g id="line2d_6">
      <defs>
       <path id="m84f13d6ff4" d="M 0 0 
L -9 0 
" style="stroke: #262626; stroke-width: 1.875"/>
      </defs>
      <g>
       <use xlink:href="#m84f13d6ff4" x="216" y="893.086125" style="fill: #262626; stroke: #262626; stroke-width: 1.875"/>
      </g>
     </g>
     <g id="text_7">
      <!-- −16 -->
      <g style="fill: #262626" transform="translate(102.1975 911.322375)scale(0.48 -0.48)">
       <defs>
        <path id="DejaVuSans-2212" d="M 678 2272 
L 4684 2272 
L 4684 1741 
L 678 1741 
L 678 2272 
z
" transform="scale(0.015625)"/>
        <path id="DejaVuSans-36" d="M 2113 2584 
Q 1688 2584 1439 2293 
Q 1191 2003 1191 1497 
Q 1191 994 1439 701 
Q 1688 409 2113 409 
Q 2538 409 2786 701 
Q 3034 994 3034 1497 
Q 3034 2003 2786 2293 
Q 2538 2584 2113 2584 
z
M 3366 4563 
L 3366 3988 
Q 3128 4100 2886 4159 
Q 2644 4219 2406 4219 
Q 1781 4219 1451 3797 
Q 1122 3375 1075 2522 
Q 1259 2794 1537 2939 
Q 1816 3084 2150 3084 
Q 2853 3084 3261 2657 
Q 3669 2231 3669 1497 
Q 3669 778 3244 343 
Q 2819 -91 2113 -91 
Q 1303 -91 875 529 
Q 447 1150 447 2328 
Q 447 3434 972 4092 
Q 1497 4750 2381 4750 
Q 2619 4750 2861 4703 
Q 3103 4656 3366 4563 
z
" transform="scale(0.015625)"/>
       </defs>
       <use xlink:href="#DejaVuSans-2212"/>
       <use xlink:href="#DejaVuSans-31" x="83.789062"/>
       <use xlink:href="#DejaVuSans-36" x="147.412109"/>
      </g>
     </g>
    </g>
    <g id="ytick_2">
     <g id="line2d_7">
      <g>
       <use xlink:href="#m84f13d6ff4" x="216" y="800.909166" style="fill: #262626; stroke: #262626; stroke-width: 1.875"/>
      </g>
     </g>
     <g id="text_8">
      <!-- −14 -->
      <g style="fill: #262626" transform="translate(102.1975 819.145416)scale(0.48 -0.48)">
       <defs>
        <path id="DejaVuSans-34" d="M 2419 4116 
L 825 1625 
L 2419 1625 
L 2419 4116 
z
M 2253 4666 
L 3047 4666 
L 3047 1625 
L 3713 1625 
L 3713 1100 
L 3047 1100 
L 3047 0 
L 2419 0 
L 2419 1100 
L 313 1100 
L 313 1709 
L 2253 4666 
z
" transform="scale(0.015625)"/>
       </defs>
       <use xlink:href="#DejaVuSans-2212"/>
       <use xlink:href="#DejaVuSans-31" x="83.789062"/>
       <use xlink:href="#DejaVuSans-34" x="147.412109"/>
      </g>
     </g>
    </g>
    <g id="ytick_3">
     <g id="line2d_8">
      <g>
       <use xlink:href="#m84f13d6ff4" x="216" y="708.732206" style="fill: #262626; stroke: #262626; stroke-width: 1.875"/>
      </g>
     </g>
     <g id="text_9">
      <!-- −12 -->
      <g style="fill: #262626" transform="translate(102.1975 726.968456)scale(0.48 -0.48)">
       <use xlink:href="#DejaVuSans-2212"/>
       <use xlink:href="#DejaVuSans-31" x="83.789062"/>
       <use xlink:href="#DejaVuSans-32" x="147.412109"/>
      </g>
     </g>
    </g>
    <g id="ytick_4">
     <g id="line2d_9">
      <g>
       <use xlink:href="#m84f13d6ff4" x="216" y="616.555247" style="fill: #262626; stroke: #262626; stroke-width: 1.875"/>
      </g>
     </g>
     <g id="text_10">
      <!-- −10 -->
      <g style="fill: #262626" transform="translate(102.1975 634.791497)scale(0.48 -0.48)">
       <use xlink:href="#DejaVuSans-2212"/>
       <use xlink:href="#DejaVuSans-31" x="83.789062"/>
       <use xlink:href="#DejaVuSans-30" x="147.412109"/>
      </g>
     </g>
    </g>
    <g id="ytick_5">
     <g id="line2d_10">
      <g>
       <use xlink:href="#m84f13d6ff4" x="216" y="524.378288" style="fill: #262626; stroke: #262626; stroke-width: 1.875"/>
      </g>
     </g>
     <g id="text_11">
      <!-- −8 -->
      <g style="fill: #262626" transform="translate(132.7375 542.614538)scale(0.48 -0.48)">
       <defs>
        <path id="DejaVuSans-38" d="M 2034 2216 
Q 1584 2216 1326 1975 
Q 1069 1734 1069 1313 
Q 1069 891 1326 650 
Q 1584 409 2034 409 
Q 2484 409 2743 651 
Q 3003 894 3003 1313 
Q 3003 1734 2745 1975 
Q 2488 2216 2034 2216 
z
M 1403 2484 
Q 997 2584 770 2862 
Q 544 3141 544 3541 
Q 544 4100 942 4425 
Q 1341 4750 2034 4750 
Q 2731 4750 3128 4425 
Q 3525 4100 3525 3541 
Q 3525 3141 3298 2862 
Q 3072 2584 2669 2484 
Q 3125 2378 3379 2068 
Q 3634 1759 3634 1313 
Q 3634 634 3220 271 
Q 2806 -91 2034 -91 
Q 1263 -91 848 271 
Q 434 634 434 1313 
Q 434 1759 690 2068 
Q 947 2378 1403 2484 
z
M 1172 3481 
Q 1172 3119 1398 2916 
Q 1625 2713 2034 2713 
Q 2441 2713 2670 2916 
Q 2900 3119 2900 3481 
Q 2900 3844 2670 4047 
Q 2441 4250 2034 4250 
Q 1625 4250 1398 4047 
Q 1172 3844 1172 3481 
z
" transform="scale(0.015625)"/>
       </defs>
       <use xlink:href="#DejaVuSans-2212"/>
       <use xlink:href="#DejaVuSans-38" x="83.789062"/>
      </g>
     </g>
    </g>
    <g id="ytick_6">
     <g id="line2d_11">
      <g>
       <use xlink:href="#m84f13d6ff4" x="216" y="432.201328" style="fill: #262626; stroke: #262626; stroke-width: 1.875"/>
      </g>
     </g>
     <g id="text_12">
      <!-- −6 -->
      <g style="fill: #262626" transform="translate(132.7375 450.437578)scale(0.48 -0.48)">
       <use xlink:href="#DejaVuSans-2212"/>
       <use xlink:href="#DejaVuSans-36" x="83.789062"/>
      </g>
     </g>
    </g>
    <g id="ytick_7">
     <g id="line2d_12">
      <g>
       <use xlink:href="#m84f13d6ff4" x="216" y="340.024369" style="fill: #262626; stroke: #262626; stroke-width: 1.875"/>
      </g>
     </g>
     <g id="text_13">
      <!-- −4 -->
      <g style="fill: #262626" transform="translate(132.7375 358.260619)scale(0.48 -0.48)">
       <use xlink:href="#DejaVuSans-2212"/>
       <use xlink:href="#DejaVuSans-34" x="83.789062"/>
      </g>
     </g>
    </g>
    <g id="ytick_8">
     <g id="line2d_13">
      <g>
       <use xlink:href="#m84f13d6ff4" x="216" y="247.847409" style="fill: #262626; stroke: #262626; stroke-width: 1.875"/>
      </g>
     </g>
     <g id="text_14">
      <!-- −2 -->
      <g style="fill: #262626" transform="translate(132.7375 266.083659)scale(0.48 -0.48)">
       <use xlink:href="#DejaVuSans-2212"/>
       <use xlink:href="#DejaVuSans-32" x="83.789062"/>
      </g>
     </g>
    </g>
    <g id="ytick_9">
     <g id="line2d_14">
      <g>
       <use xlink:href="#m84f13d6ff4" x="216" y="155.67045" style="fill: #262626; stroke: #262626; stroke-width: 1.875"/>
      </g>
     </g>
     <g id="text_15">
      <!-- 0 -->
      <g style="fill: #262626" transform="translate(172.96 173.9067)scale(0.48 -0.48)">
       <use xlink:href="#DejaVuSans-30"/>
      </g>
     </g>
    </g>
    <g id="text_16">
     <!-- Df(Z) [Hz] -->
     <g style="fill: #262626" transform="translate(88.215 628.13625)rotate(-90)scale(0.48 -0.48)">
      <defs>
       <path id="DejaVuSans-44" d="M 1259 4147 
L 1259 519 
L 2022 519 
Q 2988 519 3436 956 
Q 3884 1394 3884 2338 
Q 3884 3275 3436 3711 
Q 2988 4147 2022 4147 
L 1259 4147 
z
M 628 4666 
L 1925 4666 
Q 3281 4666 3915 4102 
Q 4550 3538 4550 2338 
Q 4550 1131 3912 565 
Q 3275 0 1925 0 
L 628 0 
L 628 4666 
z
" transform="scale(0.015625)"/>
       <path id="DejaVuSans-66" d="M 2375 4863 
L 2375 4384 
L 1825 4384 
Q 1516 4384 1395 4259 
Q 1275 4134 1275 3809 
L 1275 3500 
L 2222 3500 
L 2222 3053 
L 1275 3053 
L 1275 0 
L 697 0 
L 697 3053 
L 147 3053 
L 147 3500 
L 697 3500 
L 697 3744 
Q 697 4328 969 4595 
Q 1241 4863 1831 4863 
L 2375 4863 
z
" transform="scale(0.015625)"/>
       <path id="DejaVuSans-28" d="M 1984 4856 
Q 1566 4138 1362 3434 
Q 1159 2731 1159 2009 
Q 1159 1288 1364 580 
Q 1569 -128 1984 -844 
L 1484 -844 
Q 1016 -109 783 600 
Q 550 1309 550 2009 
Q 550 2706 781 3412 
Q 1013 4119 1484 4856 
L 1984 4856 
z
" transform="scale(0.015625)"/>
       <path id="DejaVuSans-29" d="M 513 4856 
L 1013 4856 
Q 1481 4119 1714 3412 
Q 1947 2706 1947 2009 
Q 1947 1309 1714 600 
Q 1481 -109 1013 -844 
L 513 -844 
Q 928 -128 1133 580 
Q 1338 1288 1338 2009 
Q 1338 2731 1133 3434 
Q 928 4138 513 4856 
z
" transform="scale(0.015625)"/>
       <path id="DejaVuSans-48" d="M 628 4666 
L 1259 4666 
L 1259 2753 
L 3553 2753 
L 3553 4666 
L 4184 4666 
L 4184 0 
L 3553 0 
L 3553 2222 
L 1259 2222 
L 1259 0 
L 628 0 
L 628 4666 
z
" transform="scale(0.015625)"/>
       <path id="DejaVuSans-7a" d="M 353 3500 
L 3084 3500 
L 3084 2975 
L 922 459 
L 3084 459 
L 3084 0 
L 275 0 
L 275 525 
L 2438 3041 
L 353 3041 
L 353 3500 
z
" transform="scale(0.015625)"/>
      </defs>
      <use xlink:href="#DejaVuSans-44"/>
      <use xlink:href="#DejaVuSans-66" x="77.001953"/>
      <use xlink:href="#DejaVuSans-28" x="112.207031"/>
      <use xlink:href="#DejaVuSans-5a" x="151.220703"/>
      <use xlink:href="#DejaVuSans-29" x="219.726562"/>
      <use xlink:href="#DejaVuSans-20" x="258.740234"/>
      <use xlink:href="#DejaVuSans-5b" x="290.527344"/>
      <use xlink:href="#DejaVuSans-48" x="329.541016"/>
      <use xlink:href="#DejaVuSans-7a" x="404.736328"/>
      <use xlink:href="#DejaVuSans-5d" x="457.226562"/>
     </g>
    </g>
   </g>
   <g id="line2d_15">
    <path d="M 276.872727 830.079603 
L 279.255221 818.367415 
L 281.637716 819.746229 
L 284.02021 742.815077 
L 286.402704 725.428349 
L 288.785198 717.450721 
L 291.167693 705.949952 
L 293.550187 693.594073 
L 298.315175 673.423519 
L 300.697669 666.487795 
L 303.080164 655.328652 
L 305.462658 650.023507 
L 307.845152 641.881616 
L 310.227646 633.031586 
L 312.610141 627.597808 
L 319.757623 601.738566 
L 322.140117 596.622573 
L 324.522612 588.454745 
L 326.905106 581.441737 
L 329.2876 574.944048 
L 331.670094 448.748403 
L 334.052589 440.342433 
L 336.435083 431.352505 
L 338.817577 425.069117 
L 341.200071 414.115369 
L 343.582565 409.702012 
L 345.96506 404.179421 
L 350.730048 387.888566 
L 353.112542 385.625561 
L 355.495036 378.823972 
L 357.877531 373.839232 
L 360.260025 370.455204 
L 362.642519 364.155574 
L 365.025013 359.81662 
L 367.407508 358.17006 
L 369.790002 354.816947 
L 372.172496 346.707804 
L 374.55499 344.169717 
L 376.937484 337.112696 
L 379.319979 333.187936 
L 381.702473 332.921762 
L 384.084967 326.680816 
L 386.467461 322.099004 
L 388.849956 320.457946 
L 393.614944 315.797016 
L 395.997438 313.97519 
L 398.379932 309.600869 
L 400.762427 306.250113 
L 403.144921 304.168662 
L 405.527415 301.673541 
L 407.909909 299.60257 
L 410.292403 296.621733 
L 412.674898 293.084184 
L 415.057392 293.131079 
L 417.439886 289.007213 
L 419.82238 286.441881 
L 424.587369 285.698898 
L 429.352357 276.539205 
L 431.734851 276.400355 
L 434.117346 277.906492 
L 436.49984 274.433652 
L 438.882334 271.823259 
L 441.264828 269.431883 
L 443.647323 266.386861 
L 446.029817 263.598843 
L 448.412311 264.232579 
L 450.794805 263.776729 
L 453.177299 260.29603 
L 455.559794 260.031166 
L 457.942288 260.165039 
L 460.324782 257.3186 
L 462.707276 255.822942 
L 465.089771 253.741753 
L 467.472265 252.41586 
L 469.854759 251.801249 
L 472.237253 249.546366 
L 474.619747 249.458602 
L 477.002242 246.234121 
L 479.384736 246.850304 
L 481.76723 244.538833 
L 488.914713 244.061763 
L 491.297207 239.175004 
L 493.679701 241.368059 
L 496.062195 239.666221 
L 498.44469 236.347689 
L 500.827184 238.354475 
L 503.209678 236.164825 
L 505.592172 234.652662 
L 507.974666 234.793347 
L 512.739655 232.773986 
L 515.122149 232.981738 
L 519.887138 229.223862 
L 522.269632 229.332323 
L 524.652126 230.978096 
L 527.03462 226.71407 
L 529.417114 227.797629 
L 531.799609 226.987579 
L 534.182103 223.926838 
L 536.564597 226.443704 
L 538.947091 222.739272 
L 541.329585 222.756301 
L 543.71208 224.217115 
L 546.094574 222.294164 
L 548.477068 218.327487 
L 550.859562 223.022999 
L 553.242057 220.37488 
L 558.007045 218.681949 
L 560.389539 218.507469 
L 562.772033 217.690608 
L 565.154528 216.573776 
L 567.537022 215.010789 
L 569.919516 217.118438 
L 572.30201 214.281692 
L 574.684505 217.138087 
L 577.066999 212.84367 
L 579.449493 214.010802 
L 581.831987 215.563572 
L 584.214481 212.42607 
L 586.596976 209.523566 
L 588.97947 213.070285 
L 591.361964 209.360351 
L 593.744458 211.069787 
L 596.126952 210.041244 
L 598.509447 209.313194 
L 600.891941 209.509943 
L 603.274435 209.217833 
L 605.656929 208.038126 
L 608.039424 207.67921 
L 610.421918 208.24221 
L 612.804412 208.515458 
L 615.186906 204.972145 
L 617.5694 206.699395 
L 619.951895 205.050739 
L 622.334389 202.641025 
L 624.716883 205.87415 
L 627.099377 204.215539 
L 629.481872 204.602487 
L 631.864366 202.77516 
L 634.24686 204.106555 
L 636.629354 203.180971 
L 641.394343 202.756559 
L 643.776837 200.34763 
L 646.159331 201.034548 
L 648.541825 200.878145 
L 650.92432 201.426998 
L 653.306814 200.476264 
L 655.689308 197.384609 
L 658.071802 200.403956 
L 660.454296 199.890209 
L 662.836791 198.003673 
L 665.219285 196.957577 
L 667.601779 197.151968 
L 669.984273 196.152505 
L 672.366767 197.239994 
L 674.749262 197.403209 
L 677.131756 195.186838 
L 679.51425 193.891072 
L 681.896744 196.46898 
L 684.279239 194.544457 
L 686.661733 195.781276 
L 689.044227 195.005022 
L 691.426721 192.486322 
L 693.809215 193.643761 
L 696.19171 194.563843 
L 698.574204 192.338302 
L 700.956698 194.270161 
L 703.339192 192.105662 
L 705.721687 193.218563 
L 708.104181 192.477677 
L 710.486675 192.552604 
L 715.251663 191.874855 
L 717.634158 191.191867 
L 720.016652 192.422137 
L 722.399146 190.550796 
L 724.78164 192.010562 
L 727.164134 190.089707 
L 729.546629 189.115918 
L 731.929123 187.07717 
L 734.311617 190.273356 
L 736.694111 188.345689 
L 739.076606 190.256328 
L 741.4591 190.233797 
L 743.841594 185.998065 
L 746.224088 187.879099 
L 748.606582 189.94745 
L 750.989077 186.572068 
L 753.371571 186.59748 
L 755.754065 188.612388 
L 758.136559 187.548739 
L 760.519054 187.809935 
L 762.901548 187.445256 
L 765.284042 186.211318 
L 767.666536 187.461499 
L 770.04903 185.903751 
L 772.431525 185.628145 
L 774.814019 186.118838 
L 777.196513 183.961151 
L 779.579007 184.376131 
L 781.961502 183.738204 
L 784.343996 183.983681 
L 786.72649 185.134046 
L 789.108984 183.312482 
L 791.491478 184.354649 
L 793.873973 184.525985 
L 796.256467 183.257466 
L 798.638961 182.686082 
L 801.021455 182.913221 
L 803.403949 183.607213 
L 805.786444 182.300182 
L 808.168938 182.99103 
L 810.551432 182.09505 
L 812.933926 184.481186 
L 815.316421 180.549091 
L 817.698915 182.143516 
L 820.081409 183.271351 
L 822.463903 181.183089 
L 824.846397 181.617456 
L 827.228892 182.266386 
L 829.611386 181.1713 
L 831.99388 180.733265 
L 834.376374 180.172622 
L 836.758869 181.339754 
L 841.523857 180.193057 
L 843.906351 181.595711 
L 846.288845 178.307831 
L 848.67134 179.324585 
L 851.053834 182.197223 
L 855.818822 177.326183 
L 858.201316 179.648657 
L 860.583811 178.752153 
L 862.966305 179.361001 
L 865.348799 178.541782 
L 867.731293 177.968826 
L 870.113788 177.973018 
L 872.496282 178.546497 
L 874.878776 178.305473 
L 877.26127 174.941094 
L 879.643764 178.774422 
L 882.026259 177.817662 
L 884.408753 176.632191 
L 886.791247 176.330388 
L 889.173741 177.277978 
L 891.556236 174.525852 
L 893.93873 179.526312 
L 896.321224 176.017842 
L 898.703718 176.836276 
L 901.086212 176.037229 
L 903.468707 175.067632 
L 905.851201 176.353704 
L 908.233695 174.917778 
L 910.616189 176.975126 
L 912.998684 173.681483 
L 915.381178 176.696639 
L 917.763672 175.36865 
L 920.146166 174.911752 
L 922.52866 174.71579 
L 924.911155 176.313359 
L 927.293649 174.34718 
L 929.676143 175.15199 
L 932.058637 174.247627 
L 934.441131 174.324912 
L 936.823626 176.896532 
L 939.20612 175.306036 
L 941.588614 173.45775 
L 943.971108 173.4195 
L 946.353603 176.109536 
L 948.736097 174.669419 
L 951.118591 174.095939 
L 953.501085 171.75565 
L 955.883579 173.591623 
L 958.266074 175.63037 
L 960.648568 175.103 
L 963.031062 173.367104 
L 965.413556 172.325462 
L 967.796051 174.592658 
L 970.178545 171.300324 
L 972.561039 173.343787 
L 974.943533 171.944277 
L 977.326027 173.924341 
L 979.708522 171.178764 
L 982.091016 173.295321 
L 984.47351 172.819037 
L 986.856004 172.859644 
L 989.238498 171.084713 
L 991.620993 173.448842 
L 994.003487 170.614454 
L 998.768475 171.836078 
L 1001.15097 172.585086 
L 1003.533464 171.130559 
L 1005.915958 169.391782 
L 1010.680946 172.149933 
L 1013.063441 171.166975 
L 1015.445935 171.632256 
L 1017.828429 169.712448 
L 1020.210923 172.353232 
L 1022.593418 168.936456 
L 1024.975912 172.096751 
L 1027.358406 171.300062 
L 1029.7409 169.250573 
L 1032.123394 168.807823 
L 1036.888383 172.817989 
L 1039.270877 169.375015 
L 1041.653371 169.745196 
L 1044.035866 168.73735 
L 1046.41836 169.094956 
L 1048.800854 170.45936 
L 1051.183348 167.917083 
L 1053.565842 169.715854 
L 1055.948337 168.251896 
L 1058.330831 171.009524 
L 1060.713325 171.169857 
L 1063.095819 169.223065 
L 1065.478313 168.706436 
L 1067.860808 169.722666 
L 1070.243302 167.53092 
L 1072.625796 167.093934 
L 1075.00829 170.048048 
L 1077.390785 168.91838 
L 1079.773279 168.206311 
L 1082.155773 167.816743 
L 1084.538267 169.924392 
L 1086.920761 167.23881 
L 1089.303256 169.549495 
L 1091.68575 168.551604 
L 1094.068244 169.848417 
L 1096.450738 168.624959 
L 1098.833233 166.679477 
L 1101.215727 165.901913 
L 1103.598221 168.873057 
L 1105.980715 166.69572 
L 1108.363209 167.519917 
L 1110.745704 168.467508 
L 1113.128198 167.854469 
L 1115.510692 168.577802 
L 1117.893186 166.151059 
L 1120.27568 169.301922 
L 1122.658175 165.870999 
L 1125.040669 169.819599 
L 1127.423163 167.247717 
L 1129.805657 166.305366 
L 1132.188152 166.716679 
L 1134.570646 167.941709 
L 1139.335634 166.15918 
L 1141.718128 165.700973 
L 1144.100623 166.761216 
L 1146.483117 166.260829 
L 1148.865611 166.705938 
L 1151.248105 167.951926 
L 1153.6306 166.933862 
L 1156.013094 165.376901 
L 1158.395588 168.273903 
L 1160.778082 164.495854 
L 1163.160576 164.789012 
L 1165.543071 164.289935 
L 1167.925565 165.178842 
L 1170.308059 168.060125 
L 1172.690553 163.505036 
L 1175.073048 164.180951 
L 1177.455542 165.249315 
L 1182.22053 165.491387 
L 1184.603024 163.764136 
L 1186.985519 165.42039 
L 1189.368013 164.629203 
L 1191.750507 164.798967 
L 1194.133001 165.161551 
L 1196.515495 162.840124 
L 1198.89799 166.310868 
L 1203.662978 163.97608 
L 1206.045472 165.598538 
L 1208.427967 163.427489 
L 1210.810461 163.544071 
L 1213.192955 165.189321 
L 1215.575449 163.290734 
L 1217.957943 165.206612 
L 1220.340438 163.970317 
L 1222.722932 165.816245 
L 1225.105426 162.146919 
L 1227.48792 164.132746 
L 1229.870415 163.874955 
L 1232.252909 162.891473 
L 1234.635403 161.674826 
L 1237.017897 163.155027 
L 1239.400391 164.287053 
L 1241.782886 163.123589 
L 1244.16538 162.686603 
L 1246.547874 162.407067 
L 1248.930368 163.514205 
L 1251.312862 163.242791 
L 1253.695357 160.681127 
L 1256.077851 164.528863 
L 1258.460345 161.174964 
L 1260.842839 164.616889 
L 1263.225334 161.570557 
L 1265.607828 164.006732 
L 1267.990322 162.715683 
L 1270.372816 163.86238 
L 1272.75531 161.945192 
L 1275.137805 161.417036 
L 1277.520299 163.371425 
L 1279.902793 161.487247 
L 1282.285287 161.879173 
L 1284.667782 162.980285 
L 1287.050276 160.788278 
L 1289.43277 161.70967 
L 1291.815264 161.754207 
L 1294.197758 162.381131 
L 1296.580253 163.809983 
L 1298.962747 161.069909 
L 1301.345241 159.525784 
L 1303.727735 163.316408 
L 1306.110229 159.953863 
L 1308.492724 162.606698 
L 1313.257712 159.625075 
L 1315.640206 162.666954 
L 1318.022701 161.702858 
L 1320.405195 163.141142 
L 1322.787689 160.379847 
L 1325.170183 162.928936 
L 1327.552677 161.134094 
L 1329.935172 161.718315 
L 1332.317666 160.870016 
L 1334.70016 161.223692 
L 1337.082654 161.220287 
L 1339.465149 162.397636 
L 1341.847643 161.190421 
L 1344.230137 160.857703 
L 1346.612631 161.045282 
L 1348.995125 160.799805 
L 1351.37762 161.464192 
L 1353.760114 159.603855 
L 1356.142608 160.36439 
L 1360.907597 161.148242 
L 1363.290091 162.149801 
L 1365.672585 158.974573 
L 1368.055079 162.149015 
L 1370.437573 160.438269 
L 1372.820068 159.773358 
L 1377.585056 160.75684 
L 1379.96755 159.971416 
L 1382.350044 161.539119 
L 1384.732539 159.006797 
L 1387.115033 162.293891 
L 1389.497527 158.946541 
L 1391.880021 162.169187 
L 1394.262516 158.432007 
L 1396.64501 159.367285 
L 1399.027504 159.241533 
L 1401.409998 162.144037 
L 1403.792492 158.594698 
L 1406.174987 159.3534 
L 1408.557481 161.079602 
L 1410.939975 160.587075 
L 1413.322469 159.123379 
L 1415.704964 160.266933 
L 1418.087458 159.004963 
L 1420.469952 160.15559 
L 1422.852446 159.35209 
L 1425.23494 159.227386 
L 1427.617435 158.747172 
L 1432.382423 158.989506 
L 1434.764917 160.856917 
L 1437.147411 159.646034 
L 1439.529906 157.807441 
L 1441.9124 160.212702 
L 1444.294894 159.190447 
L 1446.677388 158.688488 
L 1449.059883 158.578456 
L 1451.442377 159.425183 
L 1453.824871 158.285035 
L 1456.207365 160.887045 
L 1458.589859 159.778859 
L 1460.972354 157.478129 
L 1463.354848 160.07097 
L 1465.737342 160.316709 
L 1468.119836 158.473663 
L 1470.502331 158.575574 
L 1472.884825 157.368097 
L 1475.267319 160.140133 
L 1477.649813 161.160031 
L 1480.032307 158.583171 
L 1482.414802 158.472091 
L 1484.797296 157.279022 
L 1487.17979 158.249144 
L 1489.562284 159.095347 
L 1491.944779 159.076746 
L 1494.327273 159.571107 
L 1494.327273 159.571107 
" clip-path="url(#pd66f16f4d3)" style="fill: none; stroke: #00c9a7; stroke-width: 2.25; stroke-linecap: round"/>
   </g>
   <g id="line2d_16">
    <path d="M 276.872727 817.447857 
L 279.255221 794.062254 
L 281.637716 784.214595 
L 284.02021 784.227432 
L 286.402704 738.345656 
L 288.785198 747.984515 
L 291.167693 777.601371 
L 293.550187 861.84 
L 295.932681 845.924041 
L 298.315175 837.997762 
L 300.697669 830.486986 
L 303.080164 824.926146 
L 305.462658 821.563601 
L 307.845152 815.119095 
L 310.227646 815.420898 
L 312.610141 806.183135 
L 314.992635 801.611541 
L 317.375129 792.903243 
L 319.757623 791.053647 
L 322.140117 783.647665 
L 324.522612 772.553755 
L 326.905106 769.709674 
L 329.2876 759.347743 
L 331.670094 749.635005 
L 334.052589 744.162715 
L 336.435083 736.001437 
L 338.817577 728.407352 
L 341.200071 718.944283 
L 343.582565 712.473578 
L 348.347554 684.202788 
L 350.730048 676.683629 
L 353.112542 660.421329 
L 357.877531 639.829507 
L 360.260025 625.137269 
L 362.642519 615.367156 
L 365.025013 603.065508 
L 367.407508 588.984474 
L 369.790002 575.89714 
L 372.172496 559.64139 
L 376.937484 530.58177 
L 379.319979 513.883794 
L 381.702473 489.09999 
L 384.084967 470.946439 
L 386.467461 451.193223 
L 388.849956 435.991167 
L 391.23245 414.022103 
L 393.614944 400.425999 
L 395.997438 385.130414 
L 398.379932 376.169828 
L 400.762427 362.665156 
L 403.144921 356.496778 
L 405.527415 346.757318 
L 407.909909 340.284255 
L 410.292403 331.60268 
L 415.057392 320.241287 
L 417.439886 313.564926 
L 419.82238 310.227531 
L 422.204875 302.702084 
L 424.587369 300.083308 
L 426.969863 295.080753 
L 429.352357 290.629146 
L 431.734851 288.762259 
L 434.117346 283.125183 
L 438.882334 278.76789 
L 441.264828 275.167203 
L 443.647323 268.554242 
L 446.029817 270.705118 
L 448.412311 268.472503 
L 450.794805 263.794544 
L 453.177299 263.824672 
L 455.559794 261.050802 
L 457.942288 259.17134 
L 460.324782 255.920137 
L 462.707276 257.675158 
L 465.089771 253.766379 
L 469.854759 251.00718 
L 472.237253 250.069545 
L 474.619747 246.987321 
L 477.002242 245.558731 
L 481.76723 244.221834 
L 484.149724 243.228921 
L 486.532218 242.997852 
L 488.914713 241.217157 
L 491.297207 238.553057 
L 493.679701 237.727289 
L 496.062195 237.978268 
L 498.44469 238.074415 
L 500.827184 236.948939 
L 503.209678 233.110372 
L 505.592172 235.301855 
L 507.974666 237.972504 
L 510.357161 233.332271 
L 512.739655 234.342475 
L 515.122149 232.934319 
L 517.504643 234.137605 
L 519.887138 230.553423 
L 522.269632 231.100442 
L 524.652126 234.232181 
L 527.03462 229.625481 
L 529.417114 230.045177 
L 531.799609 228.647762 
L 534.182103 229.22491 
L 536.564597 227.12643 
L 538.947091 228.688894 
L 541.329585 226.730051 
L 543.71208 224.957215 
L 546.094574 225.112309 
L 548.477068 222.910346 
L 550.859562 223.253805 
L 553.242057 222.654913 
L 555.624551 221.60515 
L 558.007045 220.359947 
L 560.389539 218.781765 
L 562.772033 220.216643 
L 565.154528 217.449322 
L 567.537022 218.911446 
L 569.919516 218.529475 
L 572.30201 217.317283 
L 577.066999 215.446728 
L 579.449493 215.862494 
L 581.831987 213.773446 
L 584.214481 214.536863 
L 586.596976 212.111167 
L 588.97947 213.710832 
L 591.361964 213.436798 
L 593.744458 211.082624 
L 596.126952 211.067167 
L 598.509447 211.948476 
L 600.891941 209.452045 
L 603.274435 210.070848 
L 605.656929 208.44315 
L 608.039424 208.595362 
L 610.421918 207.25899 
L 612.804412 206.95247 
L 615.186906 208.334952 
L 617.5694 207.724009 
L 619.951895 206.196127 
L 622.334389 205.914234 
L 624.716883 204.600916 
L 627.099377 205.955627 
L 629.481872 205.25823 
L 631.864366 203.611932 
L 634.24686 202.514749 
L 636.629354 202.791665 
L 639.011848 203.671402 
L 641.394343 202.478858 
L 643.776837 203.236773 
L 646.159331 201.556155 
L 648.541825 201.500091 
L 650.92432 201.122836 
L 653.306814 199.885755 
L 655.689308 202.117584 
L 658.071802 199.794585 
L 660.454296 199.709441 
L 662.836791 200.426225 
L 665.219285 197.92665 
L 667.601779 200.247291 
L 669.984273 196.95129 
L 672.366767 197.27772 
L 674.749262 198.335867 
L 677.131756 197.224537 
L 679.51425 196.727295 
L 681.896744 196.902037 
L 684.279239 196.674112 
L 686.661733 196.656035 
L 689.044227 194.633531 
L 691.426721 192.001393 
L 693.809215 195.637971 
L 696.19171 193.659218 
L 698.574204 193.4719 
L 700.956698 194.040664 
L 703.339192 191.638547 
L 705.721687 194.232959 
L 708.104181 193.963379 
L 710.486675 194.001891 
L 712.869169 192.025495 
L 715.251663 194.148339 
L 717.634158 192.858337 
L 720.016652 191.068997 
L 722.399146 191.459613 
L 724.78164 192.781839 
L 727.164134 189.358514 
L 729.546629 190.392558 
L 731.929123 191.596892 
L 736.694111 190.37422 
L 739.076606 188.143439 
L 741.4591 191.395165 
L 743.841594 187.112014 
L 748.606582 189.476406 
L 750.989077 186.741833 
L 753.371571 186.235159 
L 755.754065 187.662439 
L 758.136559 188.33128 
L 760.519054 188.488208 
L 762.901548 185.31822 
L 765.284042 189.05933 
L 767.666536 187.120921 
L 770.04903 186.680267 
L 772.431525 185.452879 
L 774.814019 185.205568 
L 777.196513 186.701487 
L 779.579007 186.377939 
L 781.961502 187.197682 
L 784.343996 184.522579 
L 786.72649 185.16496 
L 789.108984 184.697584 
L 793.873973 184.466777 
L 796.256467 184.614273 
L 798.638961 184.376655 
L 801.021455 182.866326 
L 803.403949 184.265312 
L 805.786444 183.9174 
L 808.168938 181.991043 
L 810.551432 184.290725 
L 812.933926 185.124615 
L 815.316421 181.948602 
L 817.698915 181.670638 
L 820.081409 182.579455 
L 822.463903 182.015145 
L 824.846397 180.353128 
L 827.228892 180.32169 
L 829.611386 182.398687 
L 831.99388 180.876569 
L 834.376374 180.957784 
L 836.758869 179.862435 
L 839.141363 179.637392 
L 841.523857 180.626638 
L 843.906351 182.12544 
L 846.288845 179.922167 
L 848.67134 178.883407 
L 851.053834 181.093229 
L 853.436328 178.984794 
L 855.818822 180.636069 
L 858.201316 177.457698 
L 860.583811 178.215875 
L 862.966305 179.166086 
L 865.348799 180.332956 
L 867.731293 178.310451 
L 870.113788 178.781234 
L 872.496282 177.307058 
L 874.878776 180.98896 
L 877.26127 178.14514 
L 879.643764 178.073881 
L 882.026259 176.3875 
L 884.408753 177.658377 
L 886.791247 178.056852 
L 889.173741 178.214827 
L 891.556236 178.045587 
L 893.93873 175.96728 
L 896.321224 178.039823 
L 898.703718 175.707131 
L 901.086212 175.897592 
L 903.468707 179.43488 
L 905.851201 174.184489 
L 908.233695 177.268023 
L 910.616189 174.539213 
L 912.998684 174.854902 
L 915.381178 176.024654 
L 917.763672 176.204112 
L 920.146166 176.61621 
L 922.52866 176.207518 
L 924.911155 175.66469 
L 927.293649 175.986929 
L 932.058637 175.733067 
L 934.441131 174.159339 
L 936.823626 173.296631 
L 939.20612 175.307608 
L 941.588614 173.862513 
L 943.971108 174.664965 
L 946.353603 173.373653 
L 948.736097 173.62699 
L 951.118591 176.821343 
L 953.501085 172.300835 
L 955.883579 175.828691 
L 958.266074 171.810142 
L 960.648568 173.106431 
L 963.031062 172.002699 
L 965.413556 173.131058 
L 967.796051 173.509884 
L 970.178545 173.259953 
L 972.561039 171.565188 
L 974.943533 174.576415 
L 977.326027 171.249762 
L 979.708522 173.321781 
L 982.091016 171.972833 
L 984.47351 172.989325 
L 986.856004 170.494466 
L 989.238498 172.402484 
L 991.620993 171.840532 
L 994.003487 171.853107 
L 996.385981 172.185039 
L 998.768475 171.986194 
L 1001.15097 171.224873 
L 1003.533464 168.695432 
L 1005.915958 171.408785 
L 1008.298452 171.502575 
L 1010.680946 170.248727 
L 1013.063441 170.720557 
L 1015.445935 172.146266 
L 1020.210923 170.46853 
L 1022.593418 170.568083 
L 1024.975912 172.249749 
L 1027.358406 170.802033 
L 1029.7409 171.121128 
L 1032.123394 170.838711 
L 1034.505889 170.878532 
L 1036.888383 169.905791 
L 1039.270877 169.122464 
L 1041.653371 170.423731 
L 1044.035866 169.026578 
L 1046.41836 170.575419 
L 1048.800854 170.223576 
L 1051.183348 170.505469 
L 1053.565842 167.873331 
L 1055.948337 169.684416 
L 1058.330831 169.812002 
L 1060.713325 170.181397 
L 1063.095819 167.895862 
L 1065.478313 168.119333 
L 1067.860808 171.319449 
L 1070.243302 169.045965 
L 1072.625796 168.407252 
L 1077.390785 169.439725 
L 1079.773279 168.970776 
L 1082.155773 168.907114 
L 1084.538267 167.458089 
L 1086.920761 167.269462 
L 1089.303256 168.869127 
L 1091.68575 167.604799 
L 1094.068244 168.820136 
L 1096.450738 165.314025 
L 1098.833233 167.778494 
L 1101.215727 167.414076 
L 1103.598221 167.454422 
L 1105.980715 166.464652 
L 1108.363209 168.157058 
L 1110.745704 167.491099 
L 1113.128198 170.518568 
L 1115.510692 166.673714 
L 1117.893186 167.508914 
L 1120.27568 167.741554 
L 1122.658175 165.389476 
L 1125.040669 168.767216 
L 1127.423163 167.560262 
L 1129.805657 165.705427 
L 1132.188152 166.823306 
L 1134.570646 166.911594 
L 1136.95314 166.520716 
L 1139.335634 166.459412 
L 1141.718128 166.724276 
L 1144.100623 164.446077 
L 1146.483117 166.873344 
L 1148.865611 166.449981 
L 1151.248105 165.591988 
L 1153.6306 164.982617 
L 1156.013094 165.476978 
L 1158.395588 166.105212 
L 1160.778082 166.342306 
L 1163.160576 164.372198 
L 1165.543071 165.248791 
L 1167.925565 164.771459 
L 1170.308059 166.085039 
L 1172.690553 165.349916 
L 1175.073048 164.00647 
L 1179.838036 165.316645 
L 1184.603024 165.277085 
L 1186.985519 164.714609 
L 1189.368013 166.012208 
L 1191.750507 163.593586 
L 1194.133001 163.384786 
L 1196.515495 165.288612 
L 1198.89799 164.138247 
L 1201.280484 164.030311 
L 1203.662978 165.383974 
L 1206.045472 166.273405 
L 1208.427967 163.318504 
L 1210.810461 162.786418 
L 1213.192955 165.05571 
L 1215.575449 165.653292 
L 1217.957943 163.060976 
L 1220.340438 165.614257 
L 1222.722932 163.041589 
L 1225.105426 165.491125 
L 1227.48792 163.593586 
L 1229.870415 165.832226 
L 1232.252909 163.587036 
L 1234.635403 163.782475 
L 1237.017897 163.020892 
L 1239.400391 161.895154 
L 1241.782886 162.39554 
L 1244.16538 165.225213 
L 1246.547874 163.061761 
L 1248.930368 163.64572 
L 1251.312862 163.838278 
L 1253.695357 162.114433 
L 1258.460345 163.41963 
L 1260.842839 163.242267 
L 1263.225334 162.807115 
L 1265.607828 161.171034 
L 1267.990322 161.898297 
L 1270.372816 163.393431 
L 1272.75531 162.547752 
L 1275.137805 162.333188 
L 1277.520299 162.456058 
L 1279.902793 163.075909 
L 1282.285287 161.341061 
L 1284.667782 164.582832 
L 1287.050276 162.413355 
L 1289.43277 160.454774 
L 1291.815264 161.52995 
L 1294.197758 160.315399 
L 1296.580253 162.653069 
L 1298.962747 162.335284 
L 1301.345241 162.327687 
L 1303.727735 160.9604 
L 1306.110229 161.462882 
L 1308.492724 160.309112 
L 1310.875218 160.310684 
L 1313.257712 161.050522 
L 1315.640206 162.117839 
L 1318.022701 160.948349 
L 1320.405195 161.119161 
L 1322.787689 161.439828 
L 1325.170183 162.031122 
L 1327.552677 162.166305 
L 1329.935172 162.634468 
L 1332.317666 160.685842 
L 1334.70016 162.593599 
L 1337.082654 161.176536 
L 1339.465149 161.493272 
L 1341.847643 160.555637 
L 1344.230137 160.160568 
L 1346.612631 162.451604 
L 1348.995125 162.145347 
L 1351.37762 160.483592 
L 1353.760114 162.13251 
L 1356.142608 160.424384 
L 1358.525102 159.521592 
L 1360.907597 161.002579 
L 1363.290091 161.570819 
L 1365.672585 161.61195 
L 1368.055079 160.297584 
L 1370.437573 160.795875 
L 1372.820068 160.192529 
L 1375.202562 161.071219 
L 1377.585056 159.20407 
L 1379.96755 162.447413 
L 1382.350044 159.870291 
L 1384.732539 159.365713 
L 1387.115033 160.403425 
L 1389.497527 159.561152 
L 1391.880021 160.107123 
L 1394.262516 160.193839 
L 1396.64501 159.765498 
L 1399.027504 160.883115 
L 1401.409998 159.819466 
L 1403.792492 159.163724 
L 1408.557481 160.275054 
L 1410.939975 159.85824 
L 1413.322469 157.636105 
L 1415.704964 161.215571 
L 1418.087458 160.811594 
L 1420.469952 158.316211 
L 1422.852446 160.688462 
L 1425.23494 158.378563 
L 1427.617435 160.159782 
L 1429.999929 160.516602 
L 1432.382423 158.091692 
L 1434.764917 157.58135 
L 1437.147411 159.467886 
L 1439.529906 159.149577 
L 1441.9124 159.031423 
L 1444.294894 159.292882 
L 1446.677388 159.837281 
L 1449.059883 157.725965 
L 1451.442377 158.883403 
L 1453.824871 159.274281 
L 1456.207365 158.967499 
L 1458.589859 156.24 
L 1460.972354 157.909614 
L 1463.354848 160.638686 
L 1465.737342 158.847512 
L 1468.119836 158.975359 
L 1470.502331 159.974036 
L 1472.884825 158.765249 
L 1475.267319 156.980362 
L 1477.649813 159.98242 
L 1480.032307 157.107162 
L 1482.414802 158.427816 
L 1484.797296 157.650252 
L 1487.17979 160.961186 
L 1489.562284 157.031711 
L 1491.944779 157.129692 
L 1494.327273 159.218741 
L 1494.327273 159.218741 
" clip-path="url(#pd66f16f4d3)" style="fill: none; stroke: #ffc75f; stroke-width: 2.25; stroke-linecap: round"/>
   </g>
   <g id="patch_3">
    <path d="M 216 897.12 
L 216 120.96 
" style="fill: none; stroke: #262626; stroke-width: 1.875; stroke-linejoin: miter; stroke-linecap: square"/>
   </g>
   <g id="patch_4">
    <path d="M 1555.2 897.12 
L 1555.2 120.96 
" style="fill: none; stroke: #262626; stroke-width: 1.875; stroke-linejoin: miter; stroke-linecap: square"/>
   </g>
   <g id="patch_5">
    <path d="M 216 897.12 
L 1555.2 897.12 
" style="fill: none; stroke: #262626; stroke-width: 1.875; stroke-linejoin: miter; stroke-linecap: square"/>
   </g>
   <g id="patch_6">
    <path d="M 216 120.96 
L 1555.2 120.96 
" style="fill: none; stroke: #262626; stroke-width: 1.875; stroke-linejoin: miter; stroke-linecap: square"/>
   </g>
   <g id="text_17">
    <!-- Df(Z) -->
    <g style="fill: #262626" transform="translate(820.916406 110.561563)scale(0.5 -0.5)">
     <use xlink:href="#DejaVuSans-44"/>
     <use xlink:href="#DejaVuSans-66" x="77.001953"/>
     <use xlink:href="#DejaVuSans-28" x="112.207031"/>
     <use xlink:href="#DejaVuSans-5a" x="151.220703"/>
     <use xlink:href="#DejaVuSans-29" x="219.726562"/>
    </g>
   </g>
   <g id="legend_1">
    <g id="patch_7">
     <path d="M 227.55 182.597813 
L 361.029844 182.597813 
Q 364.329844 182.597813 364.329844 179.297813 
L 364.329844 132.51 
Q 364.329844 129.21 361.029844 129.21 
L 227.55 129.21 
Q 224.25 129.21 224.25 132.51 
L 224.25 179.297813 
Q 224.25 182.597813 227.55 182.597813 
z
" style="fill: #ffffff; opacity: 0.8; stroke: #cccccc; stroke-width: 1.5; stroke-linejoin: miter"/>
    </g>
    <g id="line2d_17">
     <path d="M 230.85 142.572422 
L 247.35 142.572422 
L 263.85 142.572422 
" style="fill: none; stroke: #00c9a7; stroke-width: 2.25; stroke-linecap: round"/>
    </g>
    <g id="text_18">
     <!-- df trace -->
     <g style="fill: #262626" transform="translate(277.05 148.347422)scale(0.165 -0.165)">
      <defs>
       <path id="DejaVuSans-64" d="M 2906 2969 
L 2906 4863 
L 3481 4863 
L 3481 0 
L 2906 0 
L 2906 525 
Q 2725 213 2448 61 
Q 2172 -91 1784 -91 
Q 1150 -91 751 415 
Q 353 922 353 1747 
Q 353 2572 751 3078 
Q 1150 3584 1784 3584 
Q 2172 3584 2448 3432 
Q 2725 3281 2906 2969 
z
M 947 1747 
Q 947 1113 1208 752 
Q 1469 391 1925 391 
Q 2381 391 2643 752 
Q 2906 1113 2906 1747 
Q 2906 2381 2643 2742 
Q 2381 3103 1925 3103 
Q 1469 3103 1208 2742 
Q 947 2381 947 1747 
z
" transform="scale(0.015625)"/>
       <path id="DejaVuSans-74" d="M 1172 4494 
L 1172 3500 
L 2356 3500 
L 2356 3053 
L 1172 3053 
L 1172 1153 
Q 1172 725 1289 603 
Q 1406 481 1766 481 
L 2356 481 
L 2356 0 
L 1766 0 
Q 1100 0 847 248 
Q 594 497 594 1153 
L 594 3053 
L 172 3053 
L 172 3500 
L 594 3500 
L 594 4494 
L 1172 4494 
z
" transform="scale(0.015625)"/>
       <path id="DejaVuSans-72" d="M 2631 2963 
Q 2534 3019 2420 3045 
Q 2306 3072 2169 3072 
Q 1681 3072 1420 2755 
Q 1159 2438 1159 1844 
L 1159 0 
L 581 0 
L 581 3500 
L 1159 3500 
L 1159 2956 
Q 1341 3275 1631 3429 
Q 1922 3584 2338 3584 
Q 2397 3584 2469 3576 
Q 2541 3569 2628 3553 
L 2631 2963 
z
" transform="scale(0.015625)"/>
       <path id="DejaVuSans-61" d="M 2194 1759 
Q 1497 1759 1228 1600 
Q 959 1441 959 1056 
Q 959 750 1161 570 
Q 1363 391 1709 391 
Q 2188 391 2477 730 
Q 2766 1069 2766 1631 
L 2766 1759 
L 2194 1759 
z
M 3341 1997 
L 3341 0 
L 2766 0 
L 2766 531 
Q 2569 213 2275 61 
Q 1981 -91 1556 -91 
Q 1019 -91 701 211 
Q 384 513 384 1019 
Q 384 1609 779 1909 
Q 1175 2209 1959 2209 
L 2766 2209 
L 2766 2266 
Q 2766 2663 2505 2880 
Q 2244 3097 1772 3097 
Q 1472 3097 1187 3025 
Q 903 2953 641 2809 
L 641 3341 
Q 956 3463 1253 3523 
Q 1550 3584 1831 3584 
Q 2591 3584 2966 3190 
Q 3341 2797 3341 1997 
z
" transform="scale(0.015625)"/>
       <path id="DejaVuSans-63" d="M 3122 3366 
L 3122 2828 
Q 2878 2963 2633 3030 
Q 2388 3097 2138 3097 
Q 1578 3097 1268 2742 
Q 959 2388 959 1747 
Q 959 1106 1268 751 
Q 1578 397 2138 397 
Q 2388 397 2633 464 
Q 2878 531 3122 666 
L 3122 134 
Q 2881 22 2623 -34 
Q 2366 -91 2075 -91 
Q 1284 -91 818 406 
Q 353 903 353 1747 
Q 353 2603 823 3093 
Q 1294 3584 2113 3584 
Q 2378 3584 2631 3529 
Q 2884 3475 3122 3366 
z
" transform="scale(0.015625)"/>
       <path id="DejaVuSans-65" d="M 3597 1894 
L 3597 1613 
L 953 1613 
Q 991 1019 1311 708 
Q 1631 397 2203 397 
Q 2534 397 2845 478 
Q 3156 559 3463 722 
L 3463 178 
Q 3153 47 2828 -22 
Q 2503 -91 2169 -91 
Q 1331 -91 842 396 
Q 353 884 353 1716 
Q 353 2575 817 3079 
Q 1281 3584 2069 3584 
Q 2775 3584 3186 3129 
Q 3597 2675 3597 1894 
z
M 3022 2063 
Q 3016 2534 2758 2815 
Q 2500 3097 2075 3097 
Q 1594 3097 1305 2825 
Q 1016 2553 972 2059 
L 3022 2063 
z
" transform="scale(0.015625)"/>
      </defs>
      <use xlink:href="#DejaVuSans-64"/>
      <use xlink:href="#DejaVuSans-66" x="63.476562"/>
      <use xlink:href="#DejaVuSans-20" x="98.681641"/>
      <use xlink:href="#DejaVuSans-74" x="130.46875"/>
      <use xlink:href="#DejaVuSans-72" x="169.677734"/>
      <use xlink:href="#DejaVuSans-61" x="210.791016"/>
      <use xlink:href="#DejaVuSans-63" x="272.070312"/>
      <use xlink:href="#DejaVuSans-65" x="327.050781"/>
     </g>
    </g>
    <g id="line2d_18">
     <path d="M 230.85 166.791328 
L 247.35 166.791328 
L 263.85 166.791328 
" style="fill: none; stroke: #ffc75f; stroke-width: 2.25; stroke-linecap: round"/>
    </g>
    <g id="text_19">
     <!-- df retrace -->
     <g style="fill: #262626" transform="translate(277.05 172.566328)scale(0.165 -0.165)">
      <use xlink:href="#DejaVuSans-64"/>
      <use xlink:href="#DejaVuSans-66" x="63.476562"/>
      <use xlink:href="#DejaVuSans-20" x="98.681641"/>
      <use xlink:href="#DejaVuSans-72" x="130.46875"/>
      <use xlink:href="#DejaVuSans-65" x="169.332031"/>
      <use xlink:href="#DejaVuSans-74" x="230.855469"/>
      <use xlink:href="#DejaVuSans-72" x="270.064453"/>
      <use xlink:href="#DejaVuSans-61" x="311.177734"/>
      <use xlink:href="#DejaVuSans-63" x="372.457031"/>
      <use xlink:href="#DejaVuSans-65" x="427.4375"/>
     </g>
    </g>
   </g>
  </g>
 </g>
 <defs>
  <clipPath id="pd66f16f4d3">
   <rect x="216" y="120.96" width="1339.2" height="776.16"/>
  </clipPath>
 </defs>
</svg>
