<?xml version="1.0" encoding="utf-8" standalone="no"?>
<!DOCTYPE svg PUBLIC "-//W3C//DTD SVG 1.1//EN"
  "http://www.w3.org/Graphics/SVG/1.1/DTD/svg11.dtd">
<svg xmlns:xlink="http://www.w3.org/1999/xlink" width="1728pt" height="1008pt" viewBox="0 0 1728 1008" xmlns="http://www.w3.org/2000/svg" version="1.1">
 <metadata>
  <rdf:RDF xmlns:dc="http://purl.org/dc/elements/1.1/" xmlns:cc="http://creativecommons.org/ns#" xmlns:rdf="http://www.w3.org/1999/02/22-rdf-syntax-ns#">
   <cc:Work>
    <dc:type rdf:resource="http://purl.org/dc/dcmitype/StillImage"/>
    <dc:date>2022-10-28T13:01:08.401358</dc:date>
    <dc:format>image/svg+xml</dc:format>
    <dc:creator>
     <cc:Agent>
      <dc:title>Matplotlib v3.5.2, https://matplotlib.org/</dc:title>
     </cc:Agent>
    </dc:creator>
   </cc:Work>
  </rdf:RDF>
 </metadata>
 <defs>
  <style type="text/css">*{stroke-linejoin: round; stroke-linecap: butt}</style>
 </defs>
 <g id="figure_1">
  <g id="patch_1">
   <path d="M 0 1008 
L 1728 1008 
L 1728 0 
L 0 0 
z
" style="fill: #ffffff"/>
  </g>
  <g id="axes_1">
   <g id="patch_2">
    <path d="M 216 897.12 
L 1555.2 897.12 
L 1555.2 120.96 
L 216 120.96 
L 216 897.12 
z
" style="fill: none"/>
   </g>
   <g id="matplotlib.axis_1">
    <g id="xtick_1">
     <g id="line2d_1">
      <defs>
       <path id="ma8bb06d4db" d="M 0 0 
L 0 9 
" style="stroke: #262626; stroke-width: 1.875"/>
      </defs>
      <g>
       <use xlink:href="#ma8bb06d4db" x="435.828637" y="897.12" style="fill: #262626; stroke: #262626; stroke-width: 1.875"/>
      </g>
     </g>
     <g id="text_1">
      <!-- 0.0 -->
      <g style="fill: #262626" transform="translate(397.661137 946.0925)scale(0.48 -0.48)">
       <defs>
        <path id="DejaVuSans-30" d="M 2034 4250 
Q 1547 4250 1301 3770 
Q 1056 3291 1056 2328 
Q 1056 1369 1301 889 
Q 1547 409 2034 409 
Q 2525 409 2770 889 
Q 3016 1369 3016 2328 
Q 3016 3291 2770 3770 
Q 2525 4250 2034 4250 
z
M 2034 4750 
Q 2819 4750 3233 4129 
Q 3647 3509 3647 2328 
Q 3647 1150 3233 529 
Q 2819 -91 2034 -91 
Q 1250 -91 836 529 
Q 422 1150 422 2328 
Q 422 3509 836 4129 
Q 1250 4750 2034 4750 
z
" transform="scale(0.015625)"/>
        <path id="DejaVuSans-2e" d="M 684 794 
L 1344 794 
L 1344 0 
L 684 0 
L 684 794 
z
" transform="scale(0.015625)"/>
       </defs>
       <use xlink:href="#DejaVuSans-30"/>
       <use xlink:href="#DejaVuSans-2e" x="63.623047"/>
       <use xlink:href="#DejaVuSans-30" x="95.410156"/>
      </g>
     </g>
    </g>
    <g id="xtick_2">
     <g id="line2d_2">
      <g>
       <use xlink:href="#ma8bb06d4db" x="700.755153" y="897.12" style="fill: #262626; stroke: #262626; stroke-width: 1.875"/>
      </g>
     </g>
     <g id="text_2">
      <!-- 0.5 -->
      <g style="fill: #262626" transform="translate(662.587653 946.0925)scale(0.48 -0.48)">
       <defs>
        <path id="DejaVuSans-35" d="M 691 4666 
L 3169 4666 
L 3169 4134 
L 1269 4134 
L 1269 2991 
Q 1406 3038 1543 3061 
Q 1681 3084 1819 3084 
Q 2600 3084 3056 2656 
Q 3513 2228 3513 1497 
Q 3513 744 3044 326 
Q 2575 -91 1722 -91 
Q 1428 -91 1123 -41 
Q 819 9 494 109 
L 494 744 
Q 775 591 1075 516 
Q 1375 441 1709 441 
Q 2250 441 2565 725 
Q 2881 1009 2881 1497 
Q 2881 1984 2565 2268 
Q 2250 2553 1709 2553 
Q 1456 2553 1204 2497 
Q 953 2441 691 2322 
L 691 4666 
z
" transform="scale(0.015625)"/>
       </defs>
       <use xlink:href="#DejaVuSans-30"/>
       <use xlink:href="#DejaVuSans-2e" x="63.623047"/>
       <use xlink:href="#DejaVuSans-35" x="95.410156"/>
      </g>
     </g>
    </g>
    <g id="xtick_3">
     <g id="line2d_3">
      <g>
       <use xlink:href="#ma8bb06d4db" x="965.681669" y="897.12" style="fill: #262626; stroke: #262626; stroke-width: 1.875"/>
      </g>
     </g>
     <g id="text_3">
      <!-- 1.0 -->
      <g style="fill: #262626" transform="translate(927.514169 946.0925)scale(0.48 -0.48)">
       <defs>
        <path id="DejaVuSans-31" d="M 794 531 
L 1825 531 
L 1825 4091 
L 703 3866 
L 703 4441 
L 1819 4666 
L 2450 4666 
L 2450 531 
L 3481 531 
L 3481 0 
L 794 0 
L 794 531 
z
" transform="scale(0.015625)"/>
       </defs>
       <use xlink:href="#DejaVuSans-31"/>
       <use xlink:href="#DejaVuSans-2e" x="63.623047"/>
       <use xlink:href="#DejaVuSans-30" x="95.410156"/>
      </g>
     </g>
    </g>
    <g id="xtick_4">
     <g id="line2d_4">
      <g>
       <use xlink:href="#ma8bb06d4db" x="1230.608185" y="897.12" style="fill: #262626; stroke: #262626; stroke-width: 1.875"/>
      </g>
     </g>
     <g id="text_4">
      <!-- 1.5 -->
      <g style="fill: #262626" transform="translate(1192.440685 946.0925)scale(0.48 -0.48)">
       <use xlink:href="#DejaVuSans-31"/>
       <use xlink:href="#DejaVuSans-2e" x="63.623047"/>
       <use xlink:href="#DejaVuSans-35" x="95.410156"/>
      </g>
     </g>
    </g>
    <g id="xtick_5">
     <g id="line2d_5">
      <g>
       <use xlink:href="#ma8bb06d4db" x="1495.5347" y="897.12" style="fill: #262626; stroke: #262626; stroke-width: 1.875"/>
      </g>
     </g>
     <g id="text_5">
      <!-- 2.0 -->
      <g style="fill: #262626" transform="translate(1457.3672 946.0925)scale(0.48 -0.48)">
       <defs>
        <path id="DejaVuSans-32" d="M 1228 531 
L 3431 531 
L 3431 0 
L 469 0 
L 469 531 
Q 828 903 1448 1529 
Q 2069 2156 2228 2338 
Q 2531 2678 2651 2914 
Q 2772 3150 2772 3378 
Q 2772 3750 2511 3984 
Q 2250 4219 1831 4219 
Q 1534 4219 1204 4116 
Q 875 4013 500 3803 
L 500 4441 
Q 881 4594 1212 4672 
Q 1544 4750 1819 4750 
Q 2544 4750 2975 4387 
Q 3406 4025 3406 3419 
Q 3406 3131 3298 2873 
Q 3191 2616 2906 2266 
Q 2828 2175 2409 1742 
Q 1991 1309 1228 531 
z
" transform="scale(0.015625)"/>
       </defs>
       <use xlink:href="#DejaVuSans-32"/>
       <use xlink:href="#DejaVuSans-2e" x="63.623047"/>
       <use xlink:href="#DejaVuSans-30" x="95.410156"/>
      </g>
     </g>
    </g>
    <g id="text_6">
     <!-- Z [nm] -->
     <g style="fill: #262626" transform="translate(804.2175 996.5475)scale(0.48 -0.48)">
      <defs>
       <path id="DejaVuSans-5a" d="M 359 4666 
L 4025 4666 
L 4025 4184 
L 1075 531 
L 4097 531 
L 4097 0 
L 288 0 
L 288 481 
L 3238 4134 
L 359 4134 
L 359 4666 
z
" transform="scale(0.015625)"/>
       <path id="DejaVuSans-20" transform="scale(0.015625)"/>
       <path id="DejaVuSans-5b" d="M 550 4863 
L 1875 4863 
L 1875 4416 
L 1125 4416 
L 1125 -397 
L 1875 -397 
L 1875 -844 
L 550 -844 
L 550 4863 
z
" transform="scale(0.015625)"/>
       <path id="DejaVuSans-6e" d="M 3513 2113 
L 3513 0 
L 2938 0 
L 2938 2094 
Q 2938 2591 2744 2837 
Q 2550 3084 2163 3084 
Q 1697 3084 1428 2787 
Q 1159 2491 1159 1978 
L 1159 0 
L 581 0 
L 581 3500 
L 1159 3500 
L 1159 2956 
Q 1366 3272 1645 3428 
Q 1925 3584 2291 3584 
Q 2894 3584 3203 3211 
Q 3513 2838 3513 2113 
z
" transform="scale(0.015625)"/>
       <path id="DejaVuSans-6d" d="M 3328 2828 
Q 3544 3216 3844 3400 
Q 4144 3584 4550 3584 
Q 5097 3584 5394 3201 
Q 5691 2819 5691 2113 
L 5691 0 
L 5113 0 
L 5113 2094 
Q 5113 2597 4934 2840 
Q 4756 3084 4391 3084 
Q 3944 3084 3684 2787 
Q 3425 2491 3425 1978 
L 3425 0 
L 2847 0 
L 2847 2094 
Q 2847 2600 2669 2842 
Q 2491 3084 2119 3084 
Q 1678 3084 1418 2786 
Q 1159 2488 1159 1978 
L 1159 0 
L 581 0 
L 581 3500 
L 1159 3500 
L 1159 2956 
Q 1356 3278 1631 3431 
Q 1906 3584 2284 3584 
Q 2666 3584 2933 3390 
Q 3200 3197 3328 2828 
z
" transform="scale(0.015625)"/>
       <path id="DejaVuSans-5d" d="M 1947 4863 
L 1947 -844 
L 622 -844 
L 622 -397 
L 1369 -397 
L 1369 4416 
L 622 4416 
L 622 4863 
L 1947 4863 
z
" transform="scale(0.015625)"/>
      </defs>
      <use xlink:href="#DejaVuSans-5a"/>
      <use xlink:href="#DejaVuSans-20" x="68.505859"/>
      <use xlink:href="#DejaVuSans-5b" x="100.292969"/>
      <use xlink:href="#DejaVuSans-6e" x="139.306641"/>
      <use xlink:href="#DejaVuSans-6d" x="202.685547"/>
      <use xlink:href="#DejaVuSans-5d" x="300.097656"/>
     </g>
    </g>
   </g>
   <g id="matplotlib.axis_2">
    <g id="ytick_1">
     <g id="line2d_6">
      <defs>
       <path id="mf62eaf4387" d="M 0 0 
L -9 0 
" style="stroke: #262626; stroke-width: 1.875"/>
      </defs>
      <g>
       <use xlink:href="#mf62eaf4387" x="216" y="818.898834" style="fill: #262626; stroke: #262626; stroke-width: 1.875"/>
      </g>
     </g>
     <g id="text_7">
      <!-- −3.5 -->
      <g style="fill: #262626" transform="translate(86.9425 837.135084)scale(0.48 -0.48)">
       <defs>
        <path id="DejaVuSans-2212" d="M 678 2272 
L 4684 2272 
L 4684 1741 
L 678 1741 
L 678 2272 
z
" transform="scale(0.015625)"/>
        <path id="DejaVuSans-33" d="M 2597 2516 
Q 3050 2419 3304 2112 
Q 3559 1806 3559 1356 
Q 3559 666 3084 287 
Q 2609 -91 1734 -91 
Q 1441 -91 1130 -33 
Q 819 25 488 141 
L 488 750 
Q 750 597 1062 519 
Q 1375 441 1716 441 
Q 2309 441 2620 675 
Q 2931 909 2931 1356 
Q 2931 1769 2642 2001 
Q 2353 2234 1838 2234 
L 1294 2234 
L 1294 2753 
L 1863 2753 
Q 2328 2753 2575 2939 
Q 2822 3125 2822 3475 
Q 2822 3834 2567 4026 
Q 2313 4219 1838 4219 
Q 1578 4219 1281 4162 
Q 984 4106 628 3988 
L 628 4550 
Q 988 4650 1302 4700 
Q 1616 4750 1894 4750 
Q 2613 4750 3031 4423 
Q 3450 4097 3450 3541 
Q 3450 3153 3228 2886 
Q 3006 2619 2597 2516 
z
" transform="scale(0.015625)"/>
       </defs>
       <use xlink:href="#DejaVuSans-2212"/>
       <use xlink:href="#DejaVuSans-33" x="83.789062"/>
       <use xlink:href="#DejaVuSans-2e" x="147.412109"/>
       <use xlink:href="#DejaVuSans-35" x="179.199219"/>
      </g>
     </g>
    </g>
    <g id="ytick_2">
     <g id="line2d_7">
      <g>
       <use xlink:href="#mf62eaf4387" x="216" y="724.212002" style="fill: #262626; stroke: #262626; stroke-width: 1.875"/>
      </g>
     </g>
     <g id="text_8">
      <!-- −3.0 -->
      <g style="fill: #262626" transform="translate(86.9425 742.448252)scale(0.48 -0.48)">
       <use xlink:href="#DejaVuSans-2212"/>
       <use xlink:href="#DejaVuSans-33" x="83.789062"/>
       <use xlink:href="#DejaVuSans-2e" x="147.412109"/>
       <use xlink:href="#DejaVuSans-30" x="179.199219"/>
      </g>
     </g>
    </g>
    <g id="ytick_3">
     <g id="line2d_8">
      <g>
       <use xlink:href="#mf62eaf4387" x="216" y="629.525171" style="fill: #262626; stroke: #262626; stroke-width: 1.875"/>
      </g>
     </g>
     <g id="text_9">
      <!-- −2.5 -->
      <g style="fill: #262626" transform="translate(86.9425 647.761421)scale(0.48 -0.48)">
       <use xlink:href="#DejaVuSans-2212"/>
       <use xlink:href="#DejaVuSans-32" x="83.789062"/>
       <use xlink:href="#DejaVuSans-2e" x="147.412109"/>
       <use xlink:href="#DejaVuSans-35" x="179.199219"/>
      </g>
     </g>
    </g>
    <g id="ytick_4">
     <g id="line2d_9">
      <g>
       <use xlink:href="#mf62eaf4387" x="216" y="534.838339" style="fill: #262626; stroke: #262626; stroke-width: 1.875"/>
      </g>
     </g>
     <g id="text_10">
      <!-- −2.0 -->
      <g style="fill: #262626" transform="translate(86.9425 553.074589)scale(0.48 -0.48)">
       <use xlink:href="#DejaVuSans-2212"/>
       <use xlink:href="#DejaVuSans-32" x="83.789062"/>
       <use xlink:href="#DejaVuSans-2e" x="147.412109"/>
       <use xlink:href="#DejaVuSans-30" x="179.199219"/>
      </g>
     </g>
    </g>
    <g id="ytick_5">
     <g id="line2d_10">
      <g>
       <use xlink:href="#mf62eaf4387" x="216" y="440.151507" style="fill: #262626; stroke: #262626; stroke-width: 1.875"/>
      </g>
     </g>
     <g id="text_11">
      <!-- −1.5 -->
      <g style="fill: #262626" transform="translate(86.9425 458.387757)scale(0.48 -0.48)">
       <use xlink:href="#DejaVuSans-2212"/>
       <use xlink:href="#DejaVuSans-31" x="83.789062"/>
       <use xlink:href="#DejaVuSans-2e" x="147.412109"/>
       <use xlink:href="#DejaVuSans-35" x="179.199219"/>
      </g>
     </g>
    </g>
    <g id="ytick_6">
     <g id="line2d_11">
      <g>
       <use xlink:href="#mf62eaf4387" x="216" y="345.464676" style="fill: #262626; stroke: #262626; stroke-width: 1.875"/>
      </g>
     </g>
     <g id="text_12">
      <!-- −1.0 -->
      <g style="fill: #262626" transform="translate(86.9425 363.700926)scale(0.48 -0.48)">
       <use xlink:href="#DejaVuSans-2212"/>
       <use xlink:href="#DejaVuSans-31" x="83.789062"/>
       <use xlink:href="#DejaVuSans-2e" x="147.412109"/>
       <use xlink:href="#DejaVuSans-30" x="179.199219"/>
      </g>
     </g>
    </g>
    <g id="ytick_7">
     <g id="line2d_12">
      <g>
       <use xlink:href="#mf62eaf4387" x="216" y="250.777844" style="fill: #262626; stroke: #262626; stroke-width: 1.875"/>
      </g>
     </g>
     <g id="text_13">
      <!-- −0.5 -->
      <g style="fill: #262626" transform="translate(86.9425 269.014094)scale(0.48 -0.48)">
       <use xlink:href="#DejaVuSans-2212"/>
       <use xlink:href="#DejaVuSans-30" x="83.789062"/>
       <use xlink:href="#DejaVuSans-2e" x="147.412109"/>
       <use xlink:href="#DejaVuSans-35" x="179.199219"/>
      </g>
     </g>
    </g>
    <g id="ytick_8">
     <g id="line2d_13">
      <g>
       <use xlink:href="#mf62eaf4387" x="216" y="156.091012" style="fill: #262626; stroke: #262626; stroke-width: 1.875"/>
      </g>
     </g>
     <g id="text_14">
      <!-- 0.0 -->
      <g style="fill: #262626" transform="translate(127.165 174.327262)scale(0.48 -0.48)">
       <use xlink:href="#DejaVuSans-30"/>
       <use xlink:href="#DejaVuSans-2e" x="63.623047"/>
       <use xlink:href="#DejaVuSans-30" x="95.410156"/>
      </g>
     </g>
    </g>
    <g id="text_15">
     <!-- Df(Z) [Hz] -->
     <g style="fill: #262626" transform="translate(72.96 628.13625)rotate(-90)scale(0.48 -0.48)">
      <defs>
       <path id="DejaVuSans-44" d="M 1259 4147 
L 1259 519 
L 2022 519 
Q 2988 519 3436 956 
Q 3884 1394 3884 2338 
Q 3884 3275 3436 3711 
Q 2988 4147 2022 4147 
L 1259 4147 
z
M 628 4666 
L 1925 4666 
Q 3281 4666 3915 4102 
Q 4550 3538 4550 2338 
Q 4550 1131 3912 565 
Q 3275 0 1925 0 
L 628 0 
L 628 4666 
z
" transform="scale(0.015625)"/>
       <path id="DejaVuSans-66" d="M 2375 4863 
L 2375 4384 
L 1825 4384 
Q 1516 4384 1395 4259 
Q 1275 4134 1275 3809 
L 1275 3500 
L 2222 3500 
L 2222 3053 
L 1275 3053 
L 1275 0 
L 697 0 
L 697 3053 
L 147 3053 
L 147 3500 
L 697 3500 
L 697 3744 
Q 697 4328 969 4595 
Q 1241 4863 1831 4863 
L 2375 4863 
z
" transform="scale(0.015625)"/>
       <path id="DejaVuSans-28" d="M 1984 4856 
Q 1566 4138 1362 3434 
Q 1159 2731 1159 2009 
Q 1159 1288 1364 580 
Q 1569 -128 1984 -844 
L 1484 -844 
Q 1016 -109 783 600 
Q 550 1309 550 2009 
Q 550 2706 781 3412 
Q 1013 4119 1484 4856 
L 1984 4856 
z
" transform="scale(0.015625)"/>
       <path id="DejaVuSans-29" d="M 513 4856 
L 1013 4856 
Q 1481 4119 1714 3412 
Q 1947 2706 1947 2009 
Q 1947 1309 1714 600 
Q 1481 -109 1013 -844 
L 513 -844 
Q 928 -128 1133 580 
Q 1338 1288 1338 2009 
Q 1338 2731 1133 3434 
Q 928 4138 513 4856 
z
" transform="scale(0.015625)"/>
       <path id="DejaVuSans-48" d="M 628 4666 
L 1259 4666 
L 1259 2753 
L 3553 2753 
L 3553 4666 
L 4184 4666 
L 4184 0 
L 3553 0 
L 3553 2222 
L 1259 2222 
L 1259 0 
L 628 0 
L 628 4666 
z
" transform="scale(0.015625)"/>
       <path id="DejaVuSans-7a" d="M 353 3500 
L 3084 3500 
L 3084 2975 
L 922 459 
L 3084 459 
L 3084 0 
L 275 0 
L 275 525 
L 2438 3041 
L 353 3041 
L 353 3500 
z
" transform="scale(0.015625)"/>
      </defs>
      <use xlink:href="#DejaVuSans-44"/>
      <use xlink:href="#DejaVuSans-66" x="77.001953"/>
      <use xlink:href="#DejaVuSans-28" x="112.207031"/>
      <use xlink:href="#DejaVuSans-5a" x="151.220703"/>
      <use xlink:href="#DejaVuSans-29" x="219.726562"/>
      <use xlink:href="#DejaVuSans-20" x="258.740234"/>
      <use xlink:href="#DejaVuSans-5b" x="290.527344"/>
      <use xlink:href="#DejaVuSans-48" x="329.541016"/>
      <use xlink:href="#DejaVuSans-7a" x="404.736328"/>
      <use xlink:href="#DejaVuSans-5d" x="457.226562"/>
     </g>
    </g>
   </g>
   <g id="line2d_14">
    <path d="M 276.872727 852.277849 
L 281.637716 827.210903 
L 284.02021 813.727605 
L 286.402704 798.170857 
L 291.167693 770.439305 
L 293.550187 758.946413 
L 295.932681 748.705244 
L 298.315175 741.777585 
L 300.697669 728.769391 
L 303.080164 720.493845 
L 307.845152 699.764843 
L 310.227646 690.375157 
L 312.610141 683.403773 
L 314.992635 675.330756 
L 317.375129 668.093946 
L 319.757623 659.297801 
L 322.140117 652.166998 
L 324.522612 641.347511 
L 326.905106 634.181389 
L 329.2876 630.521925 
L 331.670094 624.100255 
L 334.052589 616.98242 
L 336.435083 611.933651 
L 338.817577 601.521068 
L 341.200071 593.758585 
L 343.582565 587.439281 
L 345.96506 583.512649 
L 348.347554 576.074745 
L 350.730048 572.377963 
L 353.112542 564.956873 
L 357.877531 552.817642 
L 362.642519 542.221855 
L 365.025013 538.630003 
L 367.407508 533.748804 
L 369.790002 529.799156 
L 374.55499 518.690716 
L 376.937484 515.047347 
L 379.319979 510.913111 
L 381.702473 505.273876 
L 384.084967 501.18603 
L 386.467461 498.383124 
L 388.849956 497.246224 
L 391.23245 492.139429 
L 393.614944 488.935104 
L 395.997438 481.539951 
L 398.379932 477.987569 
L 400.762427 475.530515 
L 403.144921 472.498937 
L 405.527415 465.184724 
L 407.909909 461.85312 
L 410.292403 455.846811 
L 412.674898 456.300976 
L 415.057392 454.99215 
L 417.439886 450.361254 
L 419.82238 444.94741 
L 422.204875 442.525571 
L 424.587369 438.938794 
L 426.969863 438.014778 
L 429.352357 435.363499 
L 431.734851 431.496226 
L 434.117346 429.254772 
L 436.49984 426.209405 
L 438.882334 422.716946 
L 441.264828 418.535551 
L 443.647323 413.236222 
L 446.029817 410.903115 
L 448.412311 410.39528 
L 453.177299 405.836712 
L 455.559794 403.151243 
L 457.942288 397.89974 
L 460.324782 397.898099 
L 462.707276 398.131794 
L 465.089771 395.585137 
L 467.472265 391.404152 
L 469.854759 387.55687 
L 472.237253 385.552187 
L 474.619747 382.70899 
L 477.002242 381.970946 
L 479.384736 380.056173 
L 481.76723 375.279237 
L 484.149724 372.540918 
L 486.532218 375.060407 
L 488.914713 373.734768 
L 491.297207 371.444002 
L 493.679701 367.946673 
L 496.062195 365.106347 
L 500.827184 363.37488 
L 503.209678 361.483533 
L 505.592172 357.465197 
L 507.974666 355.210517 
L 510.357161 354.346015 
L 512.739655 354.348065 
L 515.122149 352.186116 
L 517.504643 351.724825 
L 519.887138 351.646858 
L 522.269632 350.444653 
L 524.652126 348.644293 
L 527.03462 345.476517 
L 529.417114 342.902384 
L 531.799609 342.525673 
L 534.182103 339.589439 
L 536.564597 337.806097 
L 538.947091 336.620962 
L 541.329585 335.302089 
L 543.71208 333.165308 
L 546.094574 332.77368 
L 548.477068 331.929271 
L 550.859562 332.456431 
L 553.242057 329.858309 
L 555.624551 328.21706 
L 558.007045 325.575982 
L 560.389539 323.4839 
L 562.772033 322.135604 
L 565.154528 320.505069 
L 567.537022 318.708604 
L 569.919516 317.782128 
L 572.30201 316.491909 
L 574.684505 314.668482 
L 577.066999 313.562082 
L 579.449493 313.712941 
L 584.214481 310.900756 
L 586.596976 308.501728 
L 588.97947 307.93069 
L 591.361964 306.374328 
L 593.744458 307.19485 
L 596.126952 305.6044 
L 598.509447 303.131661 
L 600.891941 302.941639 
L 603.274435 300.965354 
L 605.656929 300.585311 
L 608.039424 300.873393 
L 610.421918 298.095143 
L 612.804412 296.625052 
L 615.186906 296.896731 
L 617.5694 293.735413 
L 619.951895 294.36617 
L 622.334389 292.64106 
L 624.716883 289.56063 
L 627.099377 290.434873 
L 629.481872 290.228602 
L 631.864366 289.634445 
L 634.24686 289.493889 
L 636.629354 289.810165 
L 639.011848 286.947181 
L 641.394343 287.323636 
L 643.776837 284.542874 
L 646.159331 283.443804 
L 648.541825 282.703505 
L 650.92432 283.548836 
L 653.306814 280.06868 
L 655.689308 280.249526 
L 658.071802 279.922281 
L 660.454296 280.106818 
L 662.836791 278.527594 
L 667.601779 274.45487 
L 669.984273 272.972785 
L 672.366767 274.249983 
L 674.749262 273.951905 
L 679.51425 275.091368 
L 681.896744 275.177998 
L 684.279239 270.627477 
L 686.661733 266.98985 
L 689.044227 264.876188 
L 691.426721 266.263083 
L 693.809215 266.227662 
L 696.19171 266.678598 
L 698.574204 264.694163 
L 700.956698 263.792701 
L 703.339192 263.788703 
L 705.721687 262.753709 
L 708.104181 260.688795 
L 710.486675 260.675724 
L 712.869169 262.004182 
L 715.251663 262.617613 
L 717.634158 262.430975 
L 720.016652 256.301846 
L 722.399146 254.98569 
L 724.78164 254.032968 
L 727.164134 253.672455 
L 729.546629 256.708954 
L 731.929123 260.263745 
L 734.311617 256.998831 
L 736.694111 257.111091 
L 739.076606 253.980478 
L 741.4591 250.448702 
L 746.224088 253.646466 
L 748.606582 253.405287 
L 750.989077 249.611521 
L 753.371571 248.904643 
L 755.754065 249.170684 
L 758.136559 250.577673 
L 760.519054 250.622679 
L 762.901548 250.291077 
L 765.284042 248.030657 
L 767.666536 247.289999 
L 770.04903 246.68154 
L 772.431525 242.648543 
L 774.814019 241.829611 
L 777.196513 241.874617 
L 779.579007 242.467287 
L 781.961502 241.384826 
L 784.343996 239.936059 
L 786.72649 234.53908 
L 791.491478 238.597246 
L 796.256467 237.277194 
L 798.638961 236.98619 
L 801.021455 234.565172 
L 803.403949 234.667948 
L 808.168938 235.784754 
L 810.551432 235.242165 
L 812.933926 236.714511 
L 815.316421 236.626907 
L 817.698915 237.349214 
L 820.081409 234.017149 
L 822.463903 233.896585 
L 824.846397 230.450209 
L 827.228892 229.293011 
L 829.611386 227.547397 
L 831.99388 231.088347 
L 834.376374 228.102442 
L 836.758869 229.53014 
L 839.141363 228.036111 
L 841.523857 227.115991 
L 843.906351 223.683353 
L 846.288845 224.860748 
L 848.67134 225.422047 
L 851.053834 226.540749 
L 853.436328 229.444895 
L 855.818822 228.34562 
L 858.201316 225.439885 
L 860.583811 225.56332 
L 862.966305 224.87792 
L 865.348799 221.550981 
L 867.731293 222.275082 
L 870.113788 220.539515 
L 872.496282 220.497533 
L 874.878776 222.974527 
L 877.26127 220.982095 
L 879.643764 220.59831 
L 882.026259 218.328612 
L 884.408753 220.257635 
L 886.791247 220.151578 
L 889.173741 220.429254 
L 891.556236 220.818883 
L 893.93873 221.752638 
L 896.321224 220.070638 
L 898.703718 220.483026 
L 903.468707 214.048182 
L 905.851201 216.443365 
L 908.233695 216.792395 
L 910.616189 217.647672 
L 912.998684 216.028465 
L 915.381178 215.634325 
L 917.763672 215.529601 
L 920.146166 216.496573 
L 922.52866 214.038852 
L 924.911155 212.983046 
L 927.293649 210.69715 
L 929.676143 210.424343 
L 932.058637 212.138022 
L 934.441131 210.118679 
L 936.823626 207.304239 
L 939.20612 208.793501 
L 941.588614 206.855866 
L 943.971108 207.034815 
L 946.353603 209.304923 
L 948.736097 210.059832 
L 951.118591 210.984771 
L 953.501085 212.78672 
L 955.883579 209.98571 
L 958.266074 207.814124 
L 963.031062 206.900052 
L 965.413556 205.895865 
L 967.796051 205.834917 
L 970.178545 206.757395 
L 972.561039 206.394063 
L 974.943533 205.843785 
L 977.326027 204.019486 
L 979.708522 201.476469 
L 982.091016 201.359185 
L 984.47351 201.624867 
L 986.856004 203.399597 
L 989.238498 203.609097 
L 991.620993 201.310334 
L 996.385981 200.660919 
L 998.768475 199.351837 
L 1001.15097 200.619552 
L 1003.533464 200.397954 
L 1005.915958 201.262867 
L 1008.298452 202.296939 
L 1013.063441 200.89564 
L 1015.445935 199.044839 
L 1017.828429 198.062746 
L 1020.210923 200.379039 
L 1022.593418 199.502593 
L 1024.975912 199.440978 
L 1027.358406 200.601304 
L 1029.7409 199.734135 
L 1032.123394 198.05885 
L 1034.505889 198.148299 
L 1036.888383 197.849247 
L 1039.270877 196.58271 
L 1041.653371 196.778063 
L 1044.035866 198.153579 
L 1046.41836 196.385871 
L 1048.800854 196.321489 
L 1051.183348 195.744248 
L 1053.565842 195.677661 
L 1055.948337 196.996841 
L 1058.330831 199.998279 
L 1060.713325 197.628828 
L 1063.095819 193.701683 
L 1065.478313 191.370934 
L 1067.860808 191.811567 
L 1070.243302 192.877368 
L 1072.625796 195.000257 
L 1075.00829 192.335958 
L 1077.390785 193.187646 
L 1079.773279 194.327211 
L 1084.538267 194.869749 
L 1086.920761 193.912516 
L 1089.303256 190.600647 
L 1091.68575 191.232634 
L 1094.068244 191.147286 
L 1096.450738 191.937564 
L 1098.833233 193.972901 
L 1101.215727 192.373583 
L 1105.980715 189.722202 
L 1108.363209 188.933923 
L 1113.128198 186.369735 
L 1115.510692 183.970809 
L 1117.893186 185.080285 
L 1120.27568 185.522096 
L 1122.658175 187.531188 
L 1125.040669 188.57587 
L 1127.423163 189.013325 
L 1129.805657 188.755281 
L 1132.188152 188.65763 
L 1134.570646 185.971751 
L 1136.95314 185.7114 
L 1139.335634 184.570554 
L 1141.718128 183.058224 
L 1144.100623 182.6037 
L 1146.483117 182.84611 
L 1148.865611 183.602915 
L 1151.248105 183.958661 
L 1153.6306 186.34513 
L 1156.013094 184.659541 
L 1158.395588 182.477652 
L 1160.778082 180.892174 
L 1163.160576 179.649422 
L 1165.543071 178.74304 
L 1170.308059 184.242386 
L 1172.690553 182.759941 
L 1175.073048 182.985435 
L 1177.455542 183.023419 
L 1179.838036 180.114762 
L 1182.22053 176.54936 
L 1184.603024 180.072216 
L 1186.985519 180.274489 
L 1189.368013 180.881768 
L 1191.750507 183.262035 
L 1194.133001 180.338513 
L 1196.515495 180.293507 
L 1198.89799 182.349706 
L 1201.280484 183.407819 
L 1203.662978 181.835105 
L 1206.045472 181.30974 
L 1208.427967 179.670849 
L 1210.810461 180.962349 
L 1213.192955 177.132137 
L 1215.575449 178.69465 
L 1217.957943 179.302699 
L 1220.340438 179.501588 
L 1222.722932 180.383878 
L 1225.105426 181.935268 
L 1227.48792 177.426986 
L 1229.870415 178.771951 
L 1234.635403 180.085236 
L 1237.017897 179.023946 
L 1239.400391 181.140991 
L 1241.782886 176.556127 
L 1244.16538 179.488568 
L 1246.547874 176.91623 
L 1248.930368 176.009539 
L 1251.312862 173.305155 
L 1253.695357 177.123116 
L 1256.077851 175.880774 
L 1258.460345 179.858051 
L 1260.842839 176.258869 
L 1263.225334 173.561353 
L 1265.607828 171.218712 
L 1267.990322 173.775416 
L 1270.372816 175.086959 
L 1272.75531 174.913033 
L 1277.520299 173.828983 
L 1279.902793 174.56067 
L 1282.285287 176.569557 
L 1284.667782 176.891266 
L 1287.050276 174.331589 
L 1289.43277 173.783976 
L 1291.815264 173.62589 
L 1294.197758 172.958175 
L 1298.962747 173.5653 
L 1301.345241 173.504711 
L 1306.110229 175.948899 
L 1308.492724 174.221841 
L 1310.875218 173.776595 
L 1313.257712 174.183037 
L 1315.640206 172.393646 
L 1320.405195 173.228418 
L 1322.787689 172.073988 
L 1325.170183 171.576046 
L 1327.552677 170.712876 
L 1329.935172 167.177923 
L 1332.317666 168.161452 
L 1334.70016 169.291995 
L 1337.082654 169.541427 
L 1339.465149 172.49386 
L 1344.230137 170.602411 
L 1346.612631 170.738455 
L 1348.995125 170.223085 
L 1351.37762 168.305237 
L 1353.760114 168.809432 
L 1356.142608 166.986005 
L 1358.525102 167.696522 
L 1360.907597 165.88104 
L 1363.290091 164.895922 
L 1368.055079 165.358904 
L 1370.437573 169.253345 
L 1372.820068 168.480547 
L 1375.202562 166.412865 
L 1377.585056 166.034821 
L 1379.96755 166.793062 
L 1384.732539 170.796277 
L 1387.115033 168.864793 
L 1389.497527 166.351763 
L 1391.880021 165.086918 
L 1394.262516 166.41999 
L 1396.64501 166.053223 
L 1399.027504 165.416162 
L 1401.409998 166.635949 
L 1403.792492 164.301868 
L 1406.174987 164.427148 
L 1408.557481 165.167447 
L 1413.322469 163.473196 
L 1415.704964 164.531309 
L 1420.469952 162.440457 
L 1422.852446 161.086112 
L 1425.23494 164.351795 
L 1427.617435 162.890368 
L 1429.999929 163.64989 
L 1432.382423 162.232341 
L 1434.764917 158.982702 
L 1437.147411 157.99174 
L 1439.529906 163.267386 
L 1441.9124 163.444029 
L 1444.294894 162.759244 
L 1446.677388 160.788957 
L 1449.059883 160.254005 
L 1451.442377 159.457115 
L 1453.824871 162.364848 
L 1456.207365 160.287837 
L 1458.589859 159.61802 
L 1460.972354 158.789707 
L 1463.354848 161.009888 
L 1465.737342 162.492896 
L 1468.119836 165.827576 
L 1470.502331 162.465985 
L 1472.884825 163.182243 
L 1475.267319 159.810759 
L 1477.649813 159.952237 
L 1480.032307 159.40119 
L 1482.414802 160.592425 
L 1484.797296 158.479634 
L 1487.17979 161.839944 
L 1489.562284 162.851692 
L 1491.944779 161.442063 
L 1494.327273 156.24 
L 1494.327273 156.24 
" clip-path="url(#p0b6a83dbce)" style="fill: none; stroke: #00c9a7; stroke-width: 2.25; stroke-linecap: round"/>
   </g>
   <g id="line2d_15">
    <path d="M 276.872727 861.84 
L 279.255221 860.649508 
L 281.637716 855.497322 
L 284.02021 849.227638 
L 286.402704 846.875821 
L 288.785198 845.861894 
L 291.167693 848.102374 
L 293.550187 847.743245 
L 295.932681 844.520415 
L 300.697669 838.413175 
L 303.080164 834.364184 
L 305.462658 831.108189 
L 307.845152 823.877684 
L 310.227646 819.575161 
L 312.610141 813.699719 
L 317.375129 799.784682 
L 319.757623 791.108999 
L 322.140117 777.164435 
L 324.522612 764.39127 
L 326.905106 753.728691 
L 329.2876 741.934185 
L 331.670094 734.097323 
L 334.052589 724.175249 
L 336.435083 711.092933 
L 338.817577 696.527865 
L 341.200071 686.289772 
L 343.582565 672.780562 
L 345.96506 662.991405 
L 348.347554 650.79912 
L 350.730048 640.561436 
L 353.112542 627.712918 
L 355.495036 617.908691 
L 357.877531 606.851563 
L 362.642519 588.843861 
L 365.025013 582.233912 
L 367.407508 571.098663 
L 369.790002 563.225099 
L 372.172496 556.888111 
L 374.55499 548.515939 
L 376.937484 539.668586 
L 379.319979 531.776363 
L 381.702473 522.035084 
L 384.084967 515.835677 
L 386.467461 511.541305 
L 388.849956 504.97954 
L 391.23245 500.700186 
L 393.614944 496.701585 
L 395.997438 489.254147 
L 398.379932 486.079194 
L 400.762427 480.09749 
L 403.144921 471.991358 
L 405.527415 465.758941 
L 407.909909 461.475794 
L 410.292403 455.170125 
L 412.674898 454.47801 
L 415.057392 453.368125 
L 417.439886 447.614836 
L 419.82238 445.20125 
L 422.204875 440.891704 
L 424.587369 435.957553 
L 426.969863 432.966778 
L 429.352357 427.380392 
L 431.734851 422.836844 
L 434.117346 423.492974 
L 436.49984 419.324445 
L 441.264828 417.354055 
L 443.647323 411.949284 
L 446.029817 407.787418 
L 448.412311 404.951551 
L 450.794805 400.880468 
L 453.177299 402.862802 
L 455.559794 404.271585 
L 457.942288 404.39097 
L 460.324782 401.045013 
L 462.707276 396.414732 
L 465.089771 392.081197 
L 467.472265 392.548536 
L 469.854759 389.857069 
L 472.237253 391.811209 
L 474.619747 389.293155 
L 477.002242 388.812642 
L 479.384736 386.011273 
L 481.76723 383.412946 
L 484.149724 379.337557 
L 486.532218 378.293797 
L 488.914713 374.484243 
L 491.297207 375.281749 
L 493.679701 373.591752 
L 496.062195 373.998245 
L 498.44469 372.855656 
L 500.827184 369.395747 
L 503.209678 367.059872 
L 505.592172 364.941289 
L 507.974666 360.619082 
L 510.357161 360.15287 
L 512.739655 362.036016 
L 515.122149 360.071879 
L 517.504643 357.068033 
L 519.887138 355.475635 
L 522.269632 351.274043 
L 524.652126 350.179331 
L 527.03462 351.377537 
L 529.417114 346.713271 
L 531.799609 344.12048 
L 534.182103 343.97485 
L 536.564597 342.371431 
L 538.947091 341.317727 
L 541.329585 338.767584 
L 543.71208 336.635417 
L 546.094574 335.097099 
L 548.477068 335.297731 
L 550.859562 333.494501 
L 553.242057 332.373133 
L 555.624551 329.153071 
L 558.007045 328.471413 
L 560.389539 325.59218 
L 562.772033 325.963919 
L 565.154528 324.064729 
L 567.537022 322.57844 
L 569.919516 322.242686 
L 572.30201 321.517765 
L 574.684505 319.275849 
L 577.066999 316.597864 
L 579.449493 314.880084 
L 581.831987 312.978844 
L 584.214481 313.076494 
L 586.596976 314.263834 
L 591.361964 308.902788 
L 593.744458 308.890691 
L 596.126952 307.389536 
L 598.509447 303.796095 
L 600.891941 303.899897 
L 603.274435 303.478589 
L 605.656929 303.403339 
L 608.039424 302.772634 
L 610.421918 300.97617 
L 612.804412 298.03117 
L 615.186906 295.747632 
L 617.5694 295.567913 
L 619.951895 294.316857 
L 622.334389 295.620814 
L 624.716883 292.901461 
L 627.099377 288.889481 
L 629.481872 289.285671 
L 631.864366 288.677981 
L 634.24686 287.838955 
L 636.629354 290.416727 
L 639.011848 288.473453 
L 641.394343 289.121843 
L 643.776837 291.626877 
L 646.159331 290.715112 
L 648.541825 288.355452 
L 650.92432 285.310444 
L 653.306814 279.67085 
L 655.689308 282.019438 
L 658.071802 280.448415 
L 660.454296 281.495251 
L 662.836791 280.443392 
L 665.219285 277.573591 
L 667.601779 273.585139 
L 672.366767 279.257436 
L 674.749262 279.614207 
L 677.131756 275.399852 
L 679.51425 270.763625 
L 681.896744 269.06845 
L 684.279239 270.870451 
L 686.661733 273.214681 
L 689.044227 270.562736 
L 691.426721 268.796156 
L 693.809215 266.474173 
L 696.19171 267.626143 
L 698.574204 267.106826 
L 700.956698 266.062656 
L 703.339192 264.17541 
L 705.721687 264.043312 
L 708.104181 263.61206 
L 710.486675 263.945252 
L 712.869169 261.263473 
L 715.251663 259.864736 
L 717.634158 259.08917 
L 720.016652 257.869177 
L 722.399146 258.398695 
L 724.78164 259.615202 
L 727.164134 259.691631 
L 729.546629 258.518234 
L 731.929123 259.231417 
L 734.311617 255.47302 
L 736.694111 254.210995 
L 739.076606 253.218444 
L 741.4591 254.658188 
L 743.841594 252.757153 
L 746.224088 255.375575 
L 748.606582 253.963152 
L 750.989077 252.038639 
L 753.371571 249.045865 
L 755.754065 248.558637 
L 758.136559 244.671936 
L 760.519054 246.274893 
L 762.901548 248.047932 
L 765.284042 248.220576 
L 767.666536 247.435373 
L 770.04903 247.478995 
L 772.431525 246.980233 
L 774.814019 247.508265 
L 777.196513 246.551186 
L 779.579007 244.809724 
L 781.961502 241.846629 
L 784.343996 243.334251 
L 786.72649 241.490319 
L 789.108984 242.042084 
L 791.491478 240.508226 
L 793.873973 240.56333 
L 796.256467 241.919726 
L 798.638961 242.559863 
L 801.021455 240.392685 
L 805.786444 239.252915 
L 808.168938 239.078938 
L 810.551432 240.497922 
L 812.933926 238.002423 
L 815.316421 236.445908 
L 817.698915 234.571066 
L 820.081409 234.681071 
L 822.463903 231.787177 
L 824.846397 233.045974 
L 827.228892 232.694688 
L 829.611386 230.467176 
L 831.99388 232.425213 
L 834.376374 232.677567 
L 836.758869 228.836436 
L 839.141363 230.024083 
L 841.523857 230.62393 
L 843.906351 231.615815 
L 846.288845 233.36107 
L 848.67134 233.081036 
L 851.053834 229.667774 
L 853.436328 226.875478 
L 855.818822 225.466233 
L 858.201316 226.051881 
L 860.583811 225.048719 
L 862.966305 224.709582 
L 865.348799 223.100012 
L 867.731293 221.341942 
L 870.113788 221.941993 
L 872.496282 224.222405 
L 874.878776 224.939125 
L 877.26127 225.447216 
L 879.643764 224.363063 
L 882.026259 221.968546 
L 884.408753 220.580882 
L 889.173741 215.357008 
L 891.556236 216.602528 
L 893.93873 219.392978 
L 896.321224 220.483897 
L 898.703718 221.974543 
L 901.086212 217.748295 
L 903.468707 214.918221 
L 905.851201 214.934727 
L 908.233695 216.353865 
L 910.616189 216.731345 
L 912.998684 218.75566 
L 915.381178 217.05495 
L 920.146166 218.379103 
L 922.52866 217.306022 
L 924.911155 217.396445 
L 927.293649 218.251619 
L 929.676143 215.29365 
L 932.058637 214.902433 
L 934.441131 213.74995 
L 936.823626 208.37696 
L 939.20612 208.032236 
L 943.971108 206.860479 
L 946.353603 211.183558 
L 948.736097 213.48678 
L 951.118591 211.628752 
L 953.501085 211.965019 
L 955.883579 208.395414 
L 958.266074 206.68112 
L 960.648568 207.955653 
L 963.031062 208.636696 
L 965.413556 208.999156 
L 967.796051 210.867693 
L 970.178545 211.892742 
L 972.561039 208.792732 
L 974.943533 207.2864 
L 977.326027 206.602128 
L 979.708522 205.276283 
L 982.091016 204.139384 
L 984.47351 207.161223 
L 986.856004 206.372021 
L 989.238498 205.964861 
L 991.620993 204.071874 
L 994.003487 203.532822 
L 996.385981 200.949719 
L 998.768475 204.262664 
L 1001.15097 206.332294 
L 1003.533464 204.71278 
L 1005.915958 203.661998 
L 1008.298452 199.711529 
L 1010.680946 198.281575 
L 1013.063441 200.764362 
L 1015.445935 204.342784 
L 1017.828429 206.315737 
L 1020.210923 207.367801 
L 1024.975912 199.007266 
L 1027.358406 197.835407 
L 1032.123394 197.57275 
L 1034.505889 199.534784 
L 1039.270877 200.960894 
L 1041.653371 201.076639 
L 1044.035866 199.087744 
L 1046.41836 196.433236 
L 1048.800854 195.995884 
L 1051.183348 194.022777 
L 1053.565842 195.704675 
L 1055.948337 196.784471 
L 1058.330831 197.290665 
L 1060.713325 193.702965 
L 1063.095819 191.626774 
L 1065.478313 191.659068 
L 1067.860808 192.339649 
L 1070.243302 195.613996 
L 1072.625796 197.332237 
L 1075.00829 193.109936 
L 1077.390785 191.454796 
L 1079.773279 190.702091 
L 1082.155773 189.553914 
L 1084.538267 189.048233 
L 1086.920761 192.592618 
L 1089.303256 190.987405 
L 1091.68575 191.702382 
L 1094.068244 192.90064 
L 1096.450738 192.232413 
L 1098.833233 193.399761 
L 1101.215727 195.129536 
L 1103.598221 190.952754 
L 1105.980715 188.501389 
L 1108.363209 189.105337 
L 1110.745704 189.456879 
L 1113.128198 192.479743 
L 1115.510692 191.888201 
L 1117.893186 190.156324 
L 1120.27568 187.282832 
L 1122.658175 186.418022 
L 1125.040669 188.540296 
L 1127.423163 189.093444 
L 1129.805657 187.443635 
L 1132.188152 188.699561 
L 1134.570646 186.395929 
L 1136.95314 187.150991 
L 1141.718128 190.293599 
L 1146.483117 188.59294 
L 1148.865611 187.188513 
L 1151.248105 186.943746 
L 1153.6306 186.872751 
L 1156.013094 184.313637 
L 1158.395588 185.977082 
L 1160.778082 182.232013 
L 1163.160576 183.405102 
L 1165.543071 183.260241 
L 1167.925565 182.585811 
L 1170.308059 178.630473 
L 1172.690553 180.777659 
L 1175.073048 178.501297 
L 1177.455542 180.746236 
L 1179.838036 182.785623 
L 1182.22053 182.906494 
L 1184.603024 181.70716 
L 1186.985519 178.701622 
L 1189.368013 178.553787 
L 1191.750507 178.120588 
L 1194.133001 178.769695 
L 1196.515495 181.813935 
L 1198.89799 183.129937 
L 1201.280484 183.3908 
L 1203.662978 185.266821 
L 1206.045472 184.231211 
L 1208.427967 181.182717 
L 1210.810461 178.681169 
L 1213.192955 177.856598 
L 1215.575449 179.490721 
L 1217.957943 180.588406 
L 1220.340438 180.708304 
L 1222.722932 178.718845 
L 1225.105426 177.170736 
L 1227.48792 179.154403 
L 1229.870415 180.745775 
L 1232.252909 180.470764 
L 1234.635403 177.877666 
L 1239.400391 174.55821 
L 1241.782886 176.362978 
L 1244.16538 176.109087 
L 1246.547874 176.5286 
L 1248.930368 178.011967 
L 1251.312862 178.880725 
L 1253.695357 176.893726 
L 1256.077851 176.983585 
L 1258.460345 177.343739 
L 1260.842839 178.496786 
L 1263.225334 178.503347 
L 1265.607828 176.408703 
L 1267.990322 172.94618 
L 1270.372816 174.520021 
L 1272.75531 177.064679 
L 1275.137805 176.196485 
L 1277.520299 175.622628 
L 1279.902793 172.935313 
L 1282.285287 172.575364 
L 1284.667782 175.574904 
L 1287.050276 174.817843 
L 1289.43277 171.755867 
L 1291.815264 173.535108 
L 1294.197758 173.623071 
L 1296.580253 175.743038 
L 1298.962747 175.382935 
L 1301.345241 173.048956 
L 1303.727735 172.277696 
L 1306.110229 173.3375 
L 1308.492724 174.904114 
L 1310.875218 174.763661 
L 1313.257712 171.468144 
L 1315.640206 169.830381 
L 1318.022701 170.276601 
L 1320.405195 169.691927 
L 1322.787689 170.269886 
L 1325.170183 169.85924 
L 1327.552677 170.418182 
L 1329.935172 173.471802 
L 1332.317666 173.286906 
L 1334.70016 169.791423 
L 1337.082654 168.299598 
L 1339.465149 167.021579 
L 1341.847643 168.996788 
L 1344.230137 170.138506 
L 1346.612631 169.698796 
L 1348.995125 168.00598 
L 1351.37762 167.891875 
L 1353.760114 168.782725 
L 1356.142608 169.929211 
L 1358.525102 167.711029 
L 1360.907597 169.818232 
L 1363.290091 169.90476 
L 1365.672585 168.80164 
L 1368.055079 168.426211 
L 1370.437573 170.887981 
L 1372.820068 169.434499 
L 1375.202562 170.283213 
L 1377.585056 168.738488 
L 1379.96755 168.309696 
L 1382.350044 168.619103 
L 1384.732539 172.106487 
L 1387.115033 173.538286 
L 1389.497527 172.853912 
L 1391.880021 170.733944 
L 1394.262516 165.596239 
L 1396.64501 164.228207 
L 1399.027504 164.756084 
L 1401.409998 164.633163 
L 1403.792492 164.185764 
L 1406.174987 165.345525 
L 1408.557481 161.242917 
L 1410.939975 163.161585 
L 1413.322469 164.607994 
L 1415.704964 162.773546 
L 1420.469952 164.57816 
L 1422.852446 163.914956 
L 1425.23494 165.818247 
L 1427.617435 165.108242 
L 1429.999929 164.192786 
L 1432.382423 165.975462 
L 1434.764917 165.355982 
L 1437.147411 164.889412 
L 1439.529906 165.069592 
L 1441.9124 164.330164 
L 1444.294894 165.029404 
L 1446.677388 164.966866 
L 1449.059883 163.620877 
L 1451.442377 163.654708 
L 1453.824871 163.326797 
L 1456.207365 161.910888 
L 1458.589859 160.986975 
L 1460.972354 159.654312 
L 1463.354848 156.576087 
L 1465.737342 162.386275 
L 1468.119836 161.817133 
L 1470.502331 163.086028 
L 1472.884825 160.231297 
L 1475.267319 159.302411 
L 1477.649813 157.33848 
L 1480.032307 162.5622 
L 1482.414802 159.677072 
L 1484.797296 161.997723 
L 1487.17979 160.736312 
L 1489.562284 162.38666 
L 1491.944779 163.643815 
L 1494.327273 163.257288 
L 1494.327273 163.257288 
" clip-path="url(#p0b6a83dbce)" style="fill: none; stroke: #ffc75f; stroke-width: 2.25; stroke-linecap: round"/>
   </g>
   <g id="patch_3">
    <path d="M 216 897.12 
L 216 120.96 
" style="fill: none; stroke: #262626; stroke-width: 1.875; stroke-linejoin: miter; stroke-linecap: square"/>
   </g>
   <g id="patch_4">
    <path d="M 1555.2 897.12 
L 1555.2 120.96 
" style="fill: none; stroke: #262626; stroke-width: 1.875; stroke-linejoin: miter; stroke-linecap: square"/>
   </g>
   <g id="patch_5">
    <path d="M 216 897.12 
L 1555.2 897.12 
" style="fill: none; stroke: #262626; stroke-width: 1.875; stroke-linejoin: miter; stroke-linecap: square"/>
   </g>
   <g id="patch_6">
    <path d="M 216 120.96 
L 1555.2 120.96 
" style="fill: none; stroke: #262626; stroke-width: 1.875; stroke-linejoin: miter; stroke-linecap: square"/>
   </g>
   <g id="text_16">
    <!-- Df(Z) -->
    <g style="fill: #262626" transform="translate(820.916406 110.561563)scale(0.5 -0.5)">
     <use xlink:href="#DejaVuSans-44"/>
     <use xlink:href="#DejaVuSans-66" x="77.001953"/>
     <use xlink:href="#DejaVuSans-28" x="112.207031"/>
     <use xlink:href="#DejaVuSans-5a" x="151.220703"/>
     <use xlink:href="#DejaVuSans-29" x="219.726562"/>
    </g>
   </g>
   <g id="legend_1">
    <g id="patch_7">
     <path d="M 227.55 182.597813 
L 361.029844 182.597813 
Q 364.329844 182.597813 364.329844 179.297813 
L 364.329844 132.51 
Q 364.329844 129.21 361.029844 129.21 
L 227.55 129.21 
Q 224.25 129.21 224.25 132.51 
L 224.25 179.297813 
Q 224.25 182.597813 227.55 182.597813 
z
" style="fill: #ffffff; opacity: 0.8; stroke: #cccccc; stroke-width: 1.5; stroke-linejoin: miter"/>
    </g>
    <g id="line2d_16">
     <path d="M 230.85 142.572422 
L 247.35 142.572422 
L 263.85 142.572422 
" style="fill: none; stroke: #00c9a7; stroke-width: 2.25; stroke-linecap: round"/>
    </g>
    <g id="text_17">
     <!-- df trace -->
     <g style="fill: #262626" transform="translate(277.05 148.347422)scale(0.165 -0.165)">
      <defs>
       <path id="DejaVuSans-64" d="M 2906 2969 
L 2906 4863 
L 3481 4863 
L 3481 0 
L 2906 0 
L 2906 525 
Q 2725 213 2448 61 
Q 2172 -91 1784 -91 
Q 1150 -91 751 415 
Q 353 922 353 1747 
Q 353 2572 751 3078 
Q 1150 3584 1784 3584 
Q 2172 3584 2448 3432 
Q 2725 3281 2906 2969 
z
M 947 1747 
Q 947 1113 1208 752 
Q 1469 391 1925 391 
Q 2381 391 2643 752 
Q 2906 1113 2906 1747 
Q 2906 2381 2643 2742 
Q 2381 3103 1925 3103 
Q 1469 3103 1208 2742 
Q 947 2381 947 1747 
z
" transform="scale(0.015625)"/>
       <path id="DejaVuSans-74" d="M 1172 4494 
L 1172 3500 
L 2356 3500 
L 2356 3053 
L 1172 3053 
L 1172 1153 
Q 1172 725 1289 603 
Q 1406 481 1766 481 
L 2356 481 
L 2356 0 
L 1766 0 
Q 1100 0 847 248 
Q 594 497 594 1153 
L 594 3053 
L 172 3053 
L 172 3500 
L 594 3500 
L 594 4494 
L 1172 4494 
z
" transform="scale(0.015625)"/>
       <path id="DejaVuSans-72" d="M 2631 2963 
Q 2534 3019 2420 3045 
Q 2306 3072 2169 3072 
Q 1681 3072 1420 2755 
Q 1159 2438 1159 1844 
L 1159 0 
L 581 0 
L 581 3500 
L 1159 3500 
L 1159 2956 
Q 1341 3275 1631 3429 
Q 1922 3584 2338 3584 
Q 2397 3584 2469 3576 
Q 2541 3569 2628 3553 
L 2631 2963 
z
" transform="scale(0.015625)"/>
       <path id="DejaVuSans-61" d="M 2194 1759 
Q 1497 1759 1228 1600 
Q 959 1441 959 1056 
Q 959 750 1161 570 
Q 1363 391 1709 391 
Q 2188 391 2477 730 
Q 2766 1069 2766 1631 
L 2766 1759 
L 2194 1759 
z
M 3341 1997 
L 3341 0 
L 2766 0 
L 2766 531 
Q 2569 213 2275 61 
Q 1981 -91 1556 -91 
Q 1019 -91 701 211 
Q 384 513 384 1019 
Q 384 1609 779 1909 
Q 1175 2209 1959 2209 
L 2766 2209 
L 2766 2266 
Q 2766 2663 2505 2880 
Q 2244 3097 1772 3097 
Q 1472 3097 1187 3025 
Q 903 2953 641 2809 
L 641 3341 
Q 956 3463 1253 3523 
Q 1550 3584 1831 3584 
Q 2591 3584 2966 3190 
Q 3341 2797 3341 1997 
z
" transform="scale(0.015625)"/>
       <path id="DejaVuSans-63" d="M 3122 3366 
L 3122 2828 
Q 2878 2963 2633 3030 
Q 2388 3097 2138 3097 
Q 1578 3097 1268 2742 
Q 959 2388 959 1747 
Q 959 1106 1268 751 
Q 1578 397 2138 397 
Q 2388 397 2633 464 
Q 2878 531 3122 666 
L 3122 134 
Q 2881 22 2623 -34 
Q 2366 -91 2075 -91 
Q 1284 -91 818 406 
Q 353 903 353 1747 
Q 353 2603 823 3093 
Q 1294 3584 2113 3584 
Q 2378 3584 2631 3529 
Q 2884 3475 3122 3366 
z
" transform="scale(0.015625)"/>
       <path id="DejaVuSans-65" d="M 3597 1894 
L 3597 1613 
L 953 1613 
Q 991 1019 1311 708 
Q 1631 397 2203 397 
Q 2534 397 2845 478 
Q 3156 559 3463 722 
L 3463 178 
Q 3153 47 2828 -22 
Q 2503 -91 2169 -91 
Q 1331 -91 842 396 
Q 353 884 353 1716 
Q 353 2575 817 3079 
Q 1281 3584 2069 3584 
Q 2775 3584 3186 3129 
Q 3597 2675 3597 1894 
z
M 3022 2063 
Q 3016 2534 2758 2815 
Q 2500 3097 2075 3097 
Q 1594 3097 1305 2825 
Q 1016 2553 972 2059 
L 3022 2063 
z
" transform="scale(0.015625)"/>
      </defs>
      <use xlink:href="#DejaVuSans-64"/>
      <use xlink:href="#DejaVuSans-66" x="63.476562"/>
      <use xlink:href="#DejaVuSans-20" x="98.681641"/>
      <use xlink:href="#DejaVuSans-74" x="130.46875"/>
      <use xlink:href="#DejaVuSans-72" x="169.677734"/>
      <use xlink:href="#DejaVuSans-61" x="210.791016"/>
      <use xlink:href="#DejaVuSans-63" x="272.070312"/>
      <use xlink:href="#DejaVuSans-65" x="327.050781"/>
     </g>
    </g>
    <g id="line2d_17">
     <path d="M 230.85 166.791328 
L 247.35 166.791328 
L 263.85 166.791328 
" style="fill: none; stroke: #ffc75f; stroke-width: 2.25; stroke-linecap: round"/>
    </g>
    <g id="text_18">
     <!-- df retrace -->
     <g style="fill: #262626" transform="translate(277.05 172.566328)scale(0.165 -0.165)">
      <use xlink:href="#DejaVuSans-64"/>
      <use xlink:href="#DejaVuSans-66" x="63.476562"/>
      <use xlink:href="#DejaVuSans-20" x="98.681641"/>
      <use xlink:href="#DejaVuSans-72" x="130.46875"/>
      <use xlink:href="#DejaVuSans-65" x="169.332031"/>
      <use xlink:href="#DejaVuSans-74" x="230.855469"/>
      <use xlink:href="#DejaVuSans-72" x="270.064453"/>
      <use xlink:href="#DejaVuSans-61" x="311.177734"/>
      <use xlink:href="#DejaVuSans-63" x="372.457031"/>
      <use xlink:href="#DejaVuSans-65" x="427.4375"/>
     </g>
    </g>
   </g>
  </g>
 </g>
 <defs>
  <clipPath id="p0b6a83dbce">
   <rect x="216" y="120.96" width="1339.2" height="776.16"/>
  </clipPath>
 </defs>
</svg>
