<?xml version="1.0" encoding="utf-8" standalone="no"?>
<!DOCTYPE svg PUBLIC "-//W3C//DTD SVG 1.1//EN"
  "http://www.w3.org/Graphics/SVG/1.1/DTD/svg11.dtd">
<svg xmlns:xlink="http://www.w3.org/1999/xlink" width="1728pt" height="1008pt" viewBox="0 0 1728 1008" xmlns="http://www.w3.org/2000/svg" version="1.1">
 <metadata>
  <rdf:RDF xmlns:dc="http://purl.org/dc/elements/1.1/" xmlns:cc="http://creativecommons.org/ns#" xmlns:rdf="http://www.w3.org/1999/02/22-rdf-syntax-ns#">
   <cc:Work>
    <dc:type rdf:resource="http://purl.org/dc/dcmitype/StillImage"/>
    <dc:date>2022-10-30T23:57:21.614106</dc:date>
    <dc:format>image/svg+xml</dc:format>
    <dc:creator>
     <cc:Agent>
      <dc:title>Matplotlib v3.5.2, https://matplotlib.org/</dc:title>
     </cc:Agent>
    </dc:creator>
   </cc:Work>
  </rdf:RDF>
 </metadata>
 <defs>
  <style type="text/css">*{stroke-linejoin: round; stroke-linecap: butt}</style>
 </defs>
 <g id="figure_1">
  <g id="patch_1">
   <path d="M 0 1008 
L 1728 1008 
L 1728 0 
L 0 0 
z
" style="fill: #ffffff"/>
  </g>
  <g id="axes_1">
   <g id="patch_2">
    <path d="M 216 897.12 
L 1555.2 897.12 
L 1555.2 120.96 
L 216 120.96 
L 216 897.12 
z
" style="fill: none"/>
   </g>
   <g id="matplotlib.axis_1">
    <g id="xtick_1">
     <g id="line2d_1">
      <defs>
       <path id="m8c00196acc" d="M 0 0 
L 0 9 
" style="stroke: #262626; stroke-width: 1.875"/>
      </defs>
      <g>
       <use xlink:href="#m8c00196acc" x="449.498523" y="897.12" style="fill: #262626; stroke: #262626; stroke-width: 1.875"/>
      </g>
     </g>
     <g id="text_1">
      <!-- 0.0 -->
      <g style="fill: #262626" transform="translate(411.331023 946.0925)scale(0.48 -0.48)">
       <defs>
        <path id="DejaVuSans-30" d="M 2034 4250 
Q 1547 4250 1301 3770 
Q 1056 3291 1056 2328 
Q 1056 1369 1301 889 
Q 1547 409 2034 409 
Q 2525 409 2770 889 
Q 3016 1369 3016 2328 
Q 3016 3291 2770 3770 
Q 2525 4250 2034 4250 
z
M 2034 4750 
Q 2819 4750 3233 4129 
Q 3647 3509 3647 2328 
Q 3647 1150 3233 529 
Q 2819 -91 2034 -91 
Q 1250 -91 836 529 
Q 422 1150 422 2328 
Q 422 3509 836 4129 
Q 1250 4750 2034 4750 
z
" transform="scale(0.015625)"/>
        <path id="DejaVuSans-2e" d="M 684 794 
L 1344 794 
L 1344 0 
L 684 0 
L 684 794 
z
" transform="scale(0.015625)"/>
       </defs>
       <use xlink:href="#DejaVuSans-30"/>
       <use xlink:href="#DejaVuSans-2e" x="63.623047"/>
       <use xlink:href="#DejaVuSans-30" x="95.410156"/>
      </g>
     </g>
    </g>
    <g id="xtick_2">
     <g id="line2d_2">
      <g>
       <use xlink:href="#m8c00196acc" x="711.052758" y="897.12" style="fill: #262626; stroke: #262626; stroke-width: 1.875"/>
      </g>
     </g>
     <g id="text_2">
      <!-- 0.5 -->
      <g style="fill: #262626" transform="translate(672.885258 946.0925)scale(0.48 -0.48)">
       <defs>
        <path id="DejaVuSans-35" d="M 691 4666 
L 3169 4666 
L 3169 4134 
L 1269 4134 
L 1269 2991 
Q 1406 3038 1543 3061 
Q 1681 3084 1819 3084 
Q 2600 3084 3056 2656 
Q 3513 2228 3513 1497 
Q 3513 744 3044 326 
Q 2575 -91 1722 -91 
Q 1428 -91 1123 -41 
Q 819 9 494 109 
L 494 744 
Q 775 591 1075 516 
Q 1375 441 1709 441 
Q 2250 441 2565 725 
Q 2881 1009 2881 1497 
Q 2881 1984 2565 2268 
Q 2250 2553 1709 2553 
Q 1456 2553 1204 2497 
Q 953 2441 691 2322 
L 691 4666 
z
" transform="scale(0.015625)"/>
       </defs>
       <use xlink:href="#DejaVuSans-30"/>
       <use xlink:href="#DejaVuSans-2e" x="63.623047"/>
       <use xlink:href="#DejaVuSans-35" x="95.410156"/>
      </g>
     </g>
    </g>
    <g id="xtick_3">
     <g id="line2d_3">
      <g>
       <use xlink:href="#m8c00196acc" x="972.606993" y="897.12" style="fill: #262626; stroke: #262626; stroke-width: 1.875"/>
      </g>
     </g>
     <g id="text_3">
      <!-- 1.0 -->
      <g style="fill: #262626" transform="translate(934.439493 946.0925)scale(0.48 -0.48)">
       <defs>
        <path id="DejaVuSans-31" d="M 794 531 
L 1825 531 
L 1825 4091 
L 703 3866 
L 703 4441 
L 1819 4666 
L 2450 4666 
L 2450 531 
L 3481 531 
L 3481 0 
L 794 0 
L 794 531 
z
" transform="scale(0.015625)"/>
       </defs>
       <use xlink:href="#DejaVuSans-31"/>
       <use xlink:href="#DejaVuSans-2e" x="63.623047"/>
       <use xlink:href="#DejaVuSans-30" x="95.410156"/>
      </g>
     </g>
    </g>
    <g id="xtick_4">
     <g id="line2d_4">
      <g>
       <use xlink:href="#m8c00196acc" x="1234.161228" y="897.12" style="fill: #262626; stroke: #262626; stroke-width: 1.875"/>
      </g>
     </g>
     <g id="text_4">
      <!-- 1.5 -->
      <g style="fill: #262626" transform="translate(1195.993728 946.0925)scale(0.48 -0.48)">
       <use xlink:href="#DejaVuSans-31"/>
       <use xlink:href="#DejaVuSans-2e" x="63.623047"/>
       <use xlink:href="#DejaVuSans-35" x="95.410156"/>
      </g>
     </g>
    </g>
    <g id="xtick_5">
     <g id="line2d_5">
      <g>
       <use xlink:href="#m8c00196acc" x="1495.715464" y="897.12" style="fill: #262626; stroke: #262626; stroke-width: 1.875"/>
      </g>
     </g>
     <g id="text_5">
      <!-- 2.0 -->
      <g style="fill: #262626" transform="translate(1457.547964 946.0925)scale(0.48 -0.48)">
       <defs>
        <path id="DejaVuSans-32" d="M 1228 531 
L 3431 531 
L 3431 0 
L 469 0 
L 469 531 
Q 828 903 1448 1529 
Q 2069 2156 2228 2338 
Q 2531 2678 2651 2914 
Q 2772 3150 2772 3378 
Q 2772 3750 2511 3984 
Q 2250 4219 1831 4219 
Q 1534 4219 1204 4116 
Q 875 4013 500 3803 
L 500 4441 
Q 881 4594 1212 4672 
Q 1544 4750 1819 4750 
Q 2544 4750 2975 4387 
Q 3406 4025 3406 3419 
Q 3406 3131 3298 2873 
Q 3191 2616 2906 2266 
Q 2828 2175 2409 1742 
Q 1991 1309 1228 531 
z
" transform="scale(0.015625)"/>
       </defs>
       <use xlink:href="#DejaVuSans-32"/>
       <use xlink:href="#DejaVuSans-2e" x="63.623047"/>
       <use xlink:href="#DejaVuSans-30" x="95.410156"/>
      </g>
     </g>
    </g>
    <g id="text_6">
     <!-- Z [nm] -->
     <g style="fill: #262626" transform="translate(804.2175 996.5475)scale(0.48 -0.48)">
      <defs>
       <path id="DejaVuSans-5a" d="M 359 4666 
L 4025 4666 
L 4025 4184 
L 1075 531 
L 4097 531 
L 4097 0 
L 288 0 
L 288 481 
L 3238 4134 
L 359 4134 
L 359 4666 
z
" transform="scale(0.015625)"/>
       <path id="DejaVuSans-20" transform="scale(0.015625)"/>
       <path id="DejaVuSans-5b" d="M 550 4863 
L 1875 4863 
L 1875 4416 
L 1125 4416 
L 1125 -397 
L 1875 -397 
L 1875 -844 
L 550 -844 
L 550 4863 
z
" transform="scale(0.015625)"/>
       <path id="DejaVuSans-6e" d="M 3513 2113 
L 3513 0 
L 2938 0 
L 2938 2094 
Q 2938 2591 2744 2837 
Q 2550 3084 2163 3084 
Q 1697 3084 1428 2787 
Q 1159 2491 1159 1978 
L 1159 0 
L 581 0 
L 581 3500 
L 1159 3500 
L 1159 2956 
Q 1366 3272 1645 3428 
Q 1925 3584 2291 3584 
Q 2894 3584 3203 3211 
Q 3513 2838 3513 2113 
z
" transform="scale(0.015625)"/>
       <path id="DejaVuSans-6d" d="M 3328 2828 
Q 3544 3216 3844 3400 
Q 4144 3584 4550 3584 
Q 5097 3584 5394 3201 
Q 5691 2819 5691 2113 
L 5691 0 
L 5113 0 
L 5113 2094 
Q 5113 2597 4934 2840 
Q 4756 3084 4391 3084 
Q 3944 3084 3684 2787 
Q 3425 2491 3425 1978 
L 3425 0 
L 2847 0 
L 2847 2094 
Q 2847 2600 2669 2842 
Q 2491 3084 2119 3084 
Q 1678 3084 1418 2786 
Q 1159 2488 1159 1978 
L 1159 0 
L 581 0 
L 581 3500 
L 1159 3500 
L 1159 2956 
Q 1356 3278 1631 3431 
Q 1906 3584 2284 3584 
Q 2666 3584 2933 3390 
Q 3200 3197 3328 2828 
z
" transform="scale(0.015625)"/>
       <path id="DejaVuSans-5d" d="M 1947 4863 
L 1947 -844 
L 622 -844 
L 622 -397 
L 1369 -397 
L 1369 4416 
L 622 4416 
L 622 4863 
L 1947 4863 
z
" transform="scale(0.015625)"/>
      </defs>
      <use xlink:href="#DejaVuSans-5a"/>
      <use xlink:href="#DejaVuSans-20" x="68.505859"/>
      <use xlink:href="#DejaVuSans-5b" x="100.292969"/>
      <use xlink:href="#DejaVuSans-6e" x="139.306641"/>
      <use xlink:href="#DejaVuSans-6d" x="202.685547"/>
      <use xlink:href="#DejaVuSans-5d" x="300.097656"/>
     </g>
    </g>
   </g>
   <g id="matplotlib.axis_2">
    <g id="ytick_1">
     <g id="line2d_6">
      <defs>
       <path id="me9512abc6c" d="M 0 0 
L -9 0 
" style="stroke: #262626; stroke-width: 1.875"/>
      </defs>
      <g>
       <use xlink:href="#me9512abc6c" x="216" y="821.359666" style="fill: #262626; stroke: #262626; stroke-width: 1.875"/>
      </g>
     </g>
     <g id="text_7">
      <!-- −10 -->
      <g style="fill: #262626" transform="translate(102.1975 839.595916)scale(0.48 -0.48)">
       <defs>
        <path id="DejaVuSans-2212" d="M 678 2272 
L 4684 2272 
L 4684 1741 
L 678 1741 
L 678 2272 
z
" transform="scale(0.015625)"/>
       </defs>
       <use xlink:href="#DejaVuSans-2212"/>
       <use xlink:href="#DejaVuSans-31" x="83.789062"/>
       <use xlink:href="#DejaVuSans-30" x="147.412109"/>
      </g>
     </g>
    </g>
    <g id="ytick_2">
     <g id="line2d_7">
      <g>
       <use xlink:href="#me9512abc6c" x="216" y="688.597149" style="fill: #262626; stroke: #262626; stroke-width: 1.875"/>
      </g>
     </g>
     <g id="text_8">
      <!-- −8 -->
      <g style="fill: #262626" transform="translate(132.7375 706.833399)scale(0.48 -0.48)">
       <defs>
        <path id="DejaVuSans-38" d="M 2034 2216 
Q 1584 2216 1326 1975 
Q 1069 1734 1069 1313 
Q 1069 891 1326 650 
Q 1584 409 2034 409 
Q 2484 409 2743 651 
Q 3003 894 3003 1313 
Q 3003 1734 2745 1975 
Q 2488 2216 2034 2216 
z
M 1403 2484 
Q 997 2584 770 2862 
Q 544 3141 544 3541 
Q 544 4100 942 4425 
Q 1341 4750 2034 4750 
Q 2731 4750 3128 4425 
Q 3525 4100 3525 3541 
Q 3525 3141 3298 2862 
Q 3072 2584 2669 2484 
Q 3125 2378 3379 2068 
Q 3634 1759 3634 1313 
Q 3634 634 3220 271 
Q 2806 -91 2034 -91 
Q 1263 -91 848 271 
Q 434 634 434 1313 
Q 434 1759 690 2068 
Q 947 2378 1403 2484 
z
M 1172 3481 
Q 1172 3119 1398 2916 
Q 1625 2713 2034 2713 
Q 2441 2713 2670 2916 
Q 2900 3119 2900 3481 
Q 2900 3844 2670 4047 
Q 2441 4250 2034 4250 
Q 1625 4250 1398 4047 
Q 1172 3844 1172 3481 
z
" transform="scale(0.015625)"/>
       </defs>
       <use xlink:href="#DejaVuSans-2212"/>
       <use xlink:href="#DejaVuSans-38" x="83.789062"/>
      </g>
     </g>
    </g>
    <g id="ytick_3">
     <g id="line2d_8">
      <g>
       <use xlink:href="#me9512abc6c" x="216" y="555.834633" style="fill: #262626; stroke: #262626; stroke-width: 1.875"/>
      </g>
     </g>
     <g id="text_9">
      <!-- −6 -->
      <g style="fill: #262626" transform="translate(132.7375 574.070883)scale(0.48 -0.48)">
       <defs>
        <path id="DejaVuSans-36" d="M 2113 2584 
Q 1688 2584 1439 2293 
Q 1191 2003 1191 1497 
Q 1191 994 1439 701 
Q 1688 409 2113 409 
Q 2538 409 2786 701 
Q 3034 994 3034 1497 
Q 3034 2003 2786 2293 
Q 2538 2584 2113 2584 
z
M 3366 4563 
L 3366 3988 
Q 3128 4100 2886 4159 
Q 2644 4219 2406 4219 
Q 1781 4219 1451 3797 
Q 1122 3375 1075 2522 
Q 1259 2794 1537 2939 
Q 1816 3084 2150 3084 
Q 2853 3084 3261 2657 
Q 3669 2231 3669 1497 
Q 3669 778 3244 343 
Q 2819 -91 2113 -91 
Q 1303 -91 875 529 
Q 447 1150 447 2328 
Q 447 3434 972 4092 
Q 1497 4750 2381 4750 
Q 2619 4750 2861 4703 
Q 3103 4656 3366 4563 
z
" transform="scale(0.015625)"/>
       </defs>
       <use xlink:href="#DejaVuSans-2212"/>
       <use xlink:href="#DejaVuSans-36" x="83.789062"/>
      </g>
     </g>
    </g>
    <g id="ytick_4">
     <g id="line2d_9">
      <g>
       <use xlink:href="#me9512abc6c" x="216" y="423.072116" style="fill: #262626; stroke: #262626; stroke-width: 1.875"/>
      </g>
     </g>
     <g id="text_10">
      <!-- −4 -->
      <g style="fill: #262626" transform="translate(132.7375 441.308366)scale(0.48 -0.48)">
       <defs>
        <path id="DejaVuSans-34" d="M 2419 4116 
L 825 1625 
L 2419 1625 
L 2419 4116 
z
M 2253 4666 
L 3047 4666 
L 3047 1625 
L 3713 1625 
L 3713 1100 
L 3047 1100 
L 3047 0 
L 2419 0 
L 2419 1100 
L 313 1100 
L 313 1709 
L 2253 4666 
z
" transform="scale(0.015625)"/>
       </defs>
       <use xlink:href="#DejaVuSans-2212"/>
       <use xlink:href="#DejaVuSans-34" x="83.789062"/>
      </g>
     </g>
    </g>
    <g id="ytick_5">
     <g id="line2d_10">
      <g>
       <use xlink:href="#me9512abc6c" x="216" y="290.3096" style="fill: #262626; stroke: #262626; stroke-width: 1.875"/>
      </g>
     </g>
     <g id="text_11">
      <!-- −2 -->
      <g style="fill: #262626" transform="translate(132.7375 308.54585)scale(0.48 -0.48)">
       <use xlink:href="#DejaVuSans-2212"/>
       <use xlink:href="#DejaVuSans-32" x="83.789062"/>
      </g>
     </g>
    </g>
    <g id="ytick_6">
     <g id="line2d_11">
      <g>
       <use xlink:href="#me9512abc6c" x="216" y="157.547083" style="fill: #262626; stroke: #262626; stroke-width: 1.875"/>
      </g>
     </g>
     <g id="text_12">
      <!-- 0 -->
      <g style="fill: #262626" transform="translate(172.96 175.783333)scale(0.48 -0.48)">
       <use xlink:href="#DejaVuSans-30"/>
      </g>
     </g>
    </g>
    <g id="text_13">
     <!-- Df(Z) [Hz] -->
     <g style="fill: #262626" transform="translate(88.215 628.13625)rotate(-90)scale(0.48 -0.48)">
      <defs>
       <path id="DejaVuSans-44" d="M 1259 4147 
L 1259 519 
L 2022 519 
Q 2988 519 3436 956 
Q 3884 1394 3884 2338 
Q 3884 3275 3436 3711 
Q 2988 4147 2022 4147 
L 1259 4147 
z
M 628 4666 
L 1925 4666 
Q 3281 4666 3915 4102 
Q 4550 3538 4550 2338 
Q 4550 1131 3912 565 
Q 3275 0 1925 0 
L 628 0 
L 628 4666 
z
" transform="scale(0.015625)"/>
       <path id="DejaVuSans-66" d="M 2375 4863 
L 2375 4384 
L 1825 4384 
Q 1516 4384 1395 4259 
Q 1275 4134 1275 3809 
L 1275 3500 
L 2222 3500 
L 2222 3053 
L 1275 3053 
L 1275 0 
L 697 0 
L 697 3053 
L 147 3053 
L 147 3500 
L 697 3500 
L 697 3744 
Q 697 4328 969 4595 
Q 1241 4863 1831 4863 
L 2375 4863 
z
" transform="scale(0.015625)"/>
       <path id="DejaVuSans-28" d="M 1984 4856 
Q 1566 4138 1362 3434 
Q 1159 2731 1159 2009 
Q 1159 1288 1364 580 
Q 1569 -128 1984 -844 
L 1484 -844 
Q 1016 -109 783 600 
Q 550 1309 550 2009 
Q 550 2706 781 3412 
Q 1013 4119 1484 4856 
L 1984 4856 
z
" transform="scale(0.015625)"/>
       <path id="DejaVuSans-29" d="M 513 4856 
L 1013 4856 
Q 1481 4119 1714 3412 
Q 1947 2706 1947 2009 
Q 1947 1309 1714 600 
Q 1481 -109 1013 -844 
L 513 -844 
Q 928 -128 1133 580 
Q 1338 1288 1338 2009 
Q 1338 2731 1133 3434 
Q 928 4138 513 4856 
z
" transform="scale(0.015625)"/>
       <path id="DejaVuSans-48" d="M 628 4666 
L 1259 4666 
L 1259 2753 
L 3553 2753 
L 3553 4666 
L 4184 4666 
L 4184 0 
L 3553 0 
L 3553 2222 
L 1259 2222 
L 1259 0 
L 628 0 
L 628 4666 
z
" transform="scale(0.015625)"/>
       <path id="DejaVuSans-7a" d="M 353 3500 
L 3084 3500 
L 3084 2975 
L 922 459 
L 3084 459 
L 3084 0 
L 275 0 
L 275 525 
L 2438 3041 
L 353 3041 
L 353 3500 
z
" transform="scale(0.015625)"/>
      </defs>
      <use xlink:href="#DejaVuSans-44"/>
      <use xlink:href="#DejaVuSans-66" x="77.001953"/>
      <use xlink:href="#DejaVuSans-28" x="112.207031"/>
      <use xlink:href="#DejaVuSans-5a" x="151.220703"/>
      <use xlink:href="#DejaVuSans-29" x="219.726562"/>
      <use xlink:href="#DejaVuSans-20" x="258.740234"/>
      <use xlink:href="#DejaVuSans-5b" x="290.527344"/>
      <use xlink:href="#DejaVuSans-48" x="329.541016"/>
      <use xlink:href="#DejaVuSans-7a" x="404.736328"/>
      <use xlink:href="#DejaVuSans-5d" x="457.226562"/>
     </g>
    </g>
   </g>
   <g id="line2d_12">
    <path d="M 276.872727 859.828058 
L 279.255221 855.233646 
L 281.637716 839.273195 
L 286.402704 815.954741 
L 291.167693 792.741186 
L 293.550187 779.599793 
L 295.932681 778.027822 
L 298.315175 603.430722 
L 300.697669 578.490111 
L 303.080164 563.489597 
L 305.462658 550.341035 
L 307.845152 538.177313 
L 310.227646 530.511784 
L 312.610141 520.902987 
L 314.992635 512.938987 
L 317.375129 503.145297 
L 319.757623 494.874524 
L 324.522612 482.224797 
L 326.905106 472.323567 
L 329.2876 469.337727 
L 331.670094 461.410328 
L 334.052589 456.408019 
L 338.817577 443.184367 
L 341.200071 438.911066 
L 343.582565 433.13975 
L 345.96506 424.104878 
L 348.347554 417.856236 
L 353.112542 410.276738 
L 355.495036 405.808355 
L 357.877531 402.289343 
L 360.260025 398.998241 
L 362.642519 394.244971 
L 365.025013 388.021233 
L 367.407508 385.174252 
L 369.790002 385.491212 
L 372.172496 373.004116 
L 374.55499 371.298946 
L 376.937484 371.61251 
L 379.319979 367.178087 
L 381.702473 361.866364 
L 384.084967 358.750721 
L 386.467461 355.208315 
L 388.849956 354.530624 
L 391.23245 347.016028 
L 393.614944 346.325885 
L 395.997438 343.142322 
L 398.379932 338.255477 
L 400.762427 337.863805 
L 403.144921 333.380706 
L 405.527415 333.293542 
L 407.909909 329.455683 
L 410.292403 325.129177 
L 412.674898 324.612985 
L 415.057392 322.550858 
L 417.439886 315.623015 
L 419.82238 319.175233 
L 422.204875 314.840803 
L 424.587369 310.923327 
L 426.969863 310.907479 
L 429.352357 305.947431 
L 431.734851 308.416701 
L 434.117346 305.429729 
L 436.49984 303.478538 
L 438.882334 302.743492 
L 441.264828 298.153608 
L 443.647323 294.376877 
L 446.029817 294.171985 
L 448.412311 292.074388 
L 450.794805 289.615306 
L 455.559794 289.161374 
L 457.942288 283.456092 
L 460.324782 285.988754 
L 462.707276 284.316789 
L 465.089771 279.611441 
L 467.472265 281.058515 
L 469.854759 276.937656 
L 472.237253 278.026263 
L 474.619747 275.593594 
L 477.002242 274.612527 
L 481.76723 273.366572 
L 486.532218 270.168671 
L 488.914713 269.500791 
L 491.297207 264.404902 
L 493.679701 264.649415 
L 496.062195 264.159636 
L 498.44469 263.955876 
L 500.827184 264.851665 
L 503.209678 261.893371 
L 505.592172 262.008835 
L 507.974666 261.568109 
L 510.357161 255.494173 
L 512.739655 256.979357 
L 515.122149 255.858677 
L 517.504643 252.377021 
L 519.887138 253.392803 
L 522.269632 247.902601 
L 524.652126 253.130933 
L 527.03462 252.947172 
L 529.417114 249.174592 
L 531.799609 247.706764 
L 534.182103 248.233899 
L 536.564597 245.686144 
L 538.947091 243.387428 
L 541.329585 246.008009 
L 543.71208 244.562445 
L 546.094574 246.004613 
L 548.477068 245.100145 
L 550.859562 241.98337 
L 553.242057 241.566794 
L 555.624551 243.889659 
L 558.007045 237.960996 
L 560.389539 239.935204 
L 562.772033 237.51612 
L 565.154528 237.510837 
L 567.537022 239.348451 
L 569.919516 237.399146 
L 572.30201 232.494188 
L 574.684505 236.499583 
L 577.066999 235.55625 
L 579.449493 231.736503 
L 581.831987 234.387648 
L 584.214481 233.912962 
L 586.596976 229.974733 
L 591.361964 230.578844 
L 593.744458 229.684941 
L 596.126952 230.109441 
L 598.509447 227.653755 
L 600.891941 228.80349 
L 603.274435 227.005118 
L 605.656929 225.768974 
L 608.039424 225.808594 
L 610.421918 227.000968 
L 615.186906 223.82948 
L 617.5694 224.219265 
L 619.951895 225.18788 
L 622.334389 220.876091 
L 624.716883 221.867346 
L 627.099377 220.644786 
L 629.481872 220.475363 
L 631.864366 222.601637 
L 634.24686 220.008601 
L 636.629354 220.52102 
L 639.011848 217.778561 
L 641.394343 218.932446 
L 643.776837 217.171054 
L 646.159331 217.221239 
L 648.541825 216.947295 
L 650.92432 219.517313 
L 653.306814 217.111058 
L 655.689308 215.197977 
L 658.071802 214.517645 
L 660.454296 217.890251 
L 662.836791 212.376655 
L 665.219285 215.956417 
L 667.601779 213.610535 
L 669.984273 213.595442 
L 672.366767 211.520485 
L 674.749262 213.489411 
L 677.131756 212.189497 
L 679.51425 207.701493 
L 681.896744 214.481043 
L 684.279239 209.865123 
L 686.661733 211.468413 
L 689.044227 208.678787 
L 691.426721 207.794694 
L 693.809215 210.014924 
L 698.574204 209.62778 
L 700.956698 206.786459 
L 703.339192 206.775894 
L 705.721687 211.155981 
L 708.104181 204.838664 
L 710.486675 206.544589 
L 712.869169 204.739425 
L 715.251663 205.477867 
L 717.634158 206.907961 
L 720.016652 204.234176 
L 722.399146 202.357319 
L 724.78164 204.546985 
L 727.164134 203.774961 
L 729.546629 205.187697 
L 731.929123 202.092808 
L 734.311617 201.077027 
L 736.694111 203.678364 
L 739.076606 205.585784 
L 741.4591 201.750944 
L 743.841594 199.702778 
L 746.224088 204.767725 
L 748.606582 199.889181 
L 750.989077 202.651639 
L 753.371571 203.633084 
L 755.754065 198.191558 
L 758.136559 201.135513 
L 760.519054 200.818176 
L 762.901548 201.839618 
L 765.284042 198.404374 
L 767.666536 198.944715 
L 770.04903 198.60436 
L 772.431525 197.857995 
L 774.814019 200.07181 
L 777.196513 197.984779 
L 779.579007 198.882832 
L 781.961502 197.331992 
L 784.343996 196.573174 
L 786.72649 194.086547 
L 789.108984 198.03421 
L 791.491478 195.688327 
L 793.873973 194.317098 
L 796.256467 194.644623 
L 798.638961 194.318984 
L 801.021455 194.234084 
L 803.403949 194.385395 
L 805.786444 194.347284 
L 808.168938 193.246602 
L 810.551432 195.122704 
L 812.933926 196.037361 
L 815.316421 196.600342 
L 817.698915 193.702799 
L 820.081409 192.362887 
L 822.463903 192.148185 
L 824.846397 191.753494 
L 827.228892 194.830271 
L 829.611386 192.430808 
L 831.99388 191.979139 
L 834.376374 192.768898 
L 836.758869 192.919454 
L 839.141363 190.154732 
L 841.523857 189.617409 
L 843.906351 189.646464 
L 846.288845 191.005619 
L 848.67134 189.343842 
L 851.053834 186.97683 
L 853.436328 189.423082 
L 855.818822 193.69978 
L 858.201316 188.367681 
L 860.583811 190.127941 
L 862.966305 188.394471 
L 865.348799 188.56163 
L 867.731293 187.389632 
L 870.113788 188.786521 
L 872.496282 189.120838 
L 874.878776 188.575969 
L 877.26127 189.924559 
L 879.643764 187.505096 
L 882.026259 186.174241 
L 884.408753 187.655652 
L 886.791247 187.990725 
L 889.173741 186.536104 
L 891.556236 188.368435 
L 893.93873 186.179524 
L 896.321224 185.760306 
L 898.703718 188.699734 
L 901.086212 184.034006 
L 903.468707 186.896458 
L 905.851201 184.042307 
L 910.616189 186.223295 
L 912.998684 184.301913 
L 915.381178 184.037025 
L 917.763672 186.514596 
L 920.146166 182.331855 
L 922.52866 184.206825 
L 924.911155 185.4641 
L 927.293649 182.895213 
L 929.676143 186.811558 
L 932.058637 184.547179 
L 934.441131 183.929107 
L 936.823626 186.350079 
L 939.20612 181.873394 
L 941.588614 182.669568 
L 943.971108 182.164319 
L 946.353603 182.240163 
L 948.736097 183.881186 
L 951.118591 181.677558 
L 953.501085 181.582848 
L 955.883579 179.955408 
L 958.266074 179.795042 
L 960.648568 181.881318 
L 963.031062 181.383993 
L 965.413556 182.594856 
L 967.796051 180.556878 
L 970.178545 177.395201 
L 972.561039 183.595544 
L 974.943533 179.38073 
L 977.326027 179.678446 
L 979.708522 184.16079 
L 982.091016 179.666748 
L 984.47351 180.221806 
L 986.856004 180.278783 
L 989.238498 178.593235 
L 991.620993 177.687634 
L 994.003487 182.090361 
L 996.385981 180.510466 
L 998.768475 177.96837 
L 1001.15097 178.205336 
L 1003.533464 177.027678 
L 1005.915958 183.214438 
L 1008.298452 178.782279 
L 1010.680946 179.38488 
L 1013.063441 177.489157 
L 1015.445935 177.8397 
L 1017.828429 180.458771 
L 1020.210923 177.658202 
L 1022.593418 176.732981 
L 1024.975912 176.000199 
L 1027.358406 181.542473 
L 1029.7409 176.041328 
L 1032.123394 180.007103 
L 1034.505889 174.751603 
L 1036.888383 178.474375 
L 1039.270877 175.021773 
L 1041.653371 176.139812 
L 1044.035866 178.500788 
L 1046.41836 176.730717 
L 1048.800854 176.278671 
L 1051.183348 174.637271 
L 1053.565842 178.248352 
L 1055.948337 175.568907 
L 1058.330831 175.050828 
L 1060.713325 175.600226 
L 1065.478313 174.397286 
L 1067.860808 178.11704 
L 1070.243302 170.773376 
L 1072.625796 177.07409 
L 1075.00829 173.964485 
L 1077.390785 174.49162 
L 1079.773279 173.938449 
L 1082.155773 172.567596 
L 1084.538267 176.129624 
L 1086.920761 175.135351 
L 1089.303256 173.279247 
L 1091.68575 174.327102 
L 1094.068244 174.035801 
L 1096.450738 177.872905 
L 1098.833233 172.441567 
L 1101.215727 174.403701 
L 1103.598221 171.266928 
L 1105.980715 175.156481 
L 1108.363209 173.073601 
L 1110.745704 174.04297 
L 1113.128198 173.016246 
L 1115.510692 169.730803 
L 1117.893186 173.53923 
L 1120.27568 173.207554 
L 1122.658175 173.286794 
L 1125.040669 171.73935 
L 1127.423163 172.073667 
L 1129.805657 173.485649 
L 1132.188152 174.697644 
L 1134.570646 170.36246 
L 1136.95314 171.995559 
L 1139.335634 171.137125 
L 1141.718128 171.229572 
L 1144.100623 170.009653 
L 1146.483117 173.175858 
L 1148.865611 172.923799 
L 1151.248105 169.693825 
L 1153.6306 171.829155 
L 1156.013094 168.695778 
L 1158.395588 174.221449 
L 1160.778082 171.148068 
L 1163.160576 171.576341 
L 1165.543071 170.200584 
L 1167.925565 169.999088 
L 1170.308059 171.574832 
L 1172.690553 170.115684 
L 1175.073048 172.492507 
L 1177.455542 171.160143 
L 1179.838036 171.068828 
L 1182.22053 170.825825 
L 1186.985519 169.997578 
L 1189.368013 170.1021 
L 1191.750507 168.353914 
L 1194.133001 170.965816 
L 1196.515495 171.492951 
L 1198.89799 169.668921 
L 1201.280484 168.575408 
L 1203.662978 170.961665 
L 1206.045472 167.629433 
L 1208.427967 169.710805 
L 1210.810461 165.543534 
L 1213.192955 169.779102 
L 1215.575449 166.917782 
L 1217.957943 167.917716 
L 1220.340438 169.706277 
L 1222.722932 171.771046 
L 1225.105426 169.114241 
L 1227.48792 168.506734 
L 1229.870415 169.571946 
L 1232.252909 170.28171 
L 1234.635403 165.955205 
L 1237.017897 170.773376 
L 1239.400391 168.195434 
L 1241.782886 167.763387 
L 1244.16538 169.704767 
L 1246.547874 168.789734 
L 1248.930368 166.98457 
L 1251.312862 167.553967 
L 1253.695357 167.738105 
L 1256.077851 165.995579 
L 1258.460345 165.36581 
L 1260.842839 168.134683 
L 1263.225334 166.626858 
L 1265.607828 167.132863 
L 1267.990322 168.200716 
L 1270.372816 168.433908 
L 1272.75531 165.786159 
L 1275.137805 168.487867 
L 1277.520299 167.380771 
L 1279.902793 168.393156 
L 1282.285287 164.080989 
L 1284.667782 165.006588 
L 1287.050276 165.666167 
L 1289.43277 167.904887 
L 1291.815264 167.589059 
L 1294.197758 166.746473 
L 1296.580253 164.257582 
L 1298.962747 166.803073 
L 1301.345241 163.554609 
L 1303.727735 166.676666 
L 1306.110229 164.969987 
L 1308.492724 166.226885 
L 1310.875218 168.848975 
L 1313.257712 164.496434 
L 1315.640206 164.604728 
L 1318.022701 166.67893 
L 1320.405195 163.368961 
L 1322.787689 168.60484 
L 1325.170183 163.789688 
L 1327.552677 166.732134 
L 1332.317666 163.135014 
L 1334.70016 164.884332 
L 1337.082654 166.867597 
L 1339.465149 165.148843 
L 1341.847643 164.36399 
L 1344.230137 164.356066 
L 1346.612631 163.217273 
L 1348.995125 166.619312 
L 1351.37762 162.984081 
L 1353.760114 163.034644 
L 1356.142608 164.233055 
L 1358.525102 167.769047 
L 1360.907597 163.555364 
L 1363.290091 165.516743 
L 1365.672585 160.249923 
L 1368.055079 162.653537 
L 1370.437573 166.790998 
L 1372.820068 165.445805 
L 1375.202562 162.518829 
L 1377.585056 164.24362 
L 1379.96755 163.091621 
L 1382.350044 163.916849 
L 1384.732539 164.310031 
L 1387.115033 160.834035 
L 1389.497527 167.030983 
L 1391.880021 161.526065 
L 1396.64501 162.100366 
L 1399.027504 161.129864 
L 1401.409998 164.417194 
L 1403.792492 162.938801 
L 1406.174987 159.804669 
L 1408.557481 162.666366 
L 1410.939975 164.826223 
L 1413.322469 160.963838 
L 1415.704964 163.461408 
L 1418.087458 162.89088 
L 1420.469952 162.176965 
L 1422.852446 159.729203 
L 1425.23494 162.064519 
L 1427.617435 161.448711 
L 1429.999929 161.897738 
L 1432.382423 164.565863 
L 1434.764917 162.186021 
L 1437.147411 158.955292 
L 1439.529906 162.478077 
L 1441.9124 162.044898 
L 1444.294894 158.702856 
L 1446.677388 160.458211 
L 1449.059883 163.222556 
L 1451.442377 160.535187 
L 1453.824871 165.412599 
L 1456.207365 156.24 
L 1458.589859 163.458767 
L 1460.972354 163.753087 
L 1463.354848 161.707562 
L 1465.737342 159.920133 
L 1468.119836 163.679129 
L 1470.502331 163.058416 
L 1472.884825 162.059991 
L 1475.267319 160.219359 
L 1477.649813 162.673158 
L 1480.032307 164.142872 
L 1482.414802 160.805358 
L 1484.797296 161.59889 
L 1487.17979 159.551101 
L 1489.562284 159.513745 
L 1494.327273 164.187397 
L 1494.327273 164.187397 
" clip-path="url(#pf0b1e59270)" style="fill: none; stroke: #00c9a7; stroke-width: 2.25; stroke-linecap: round"/>
   </g>
   <g id="line2d_13">
    <path d="M 276.872727 861.84 
L 279.255221 855.284963 
L 281.637716 844.652083 
L 286.402704 831.828783 
L 288.785198 821.146472 
L 291.167693 814.086563 
L 293.550187 811.144494 
L 295.932681 805.898049 
L 298.315175 799.842979 
L 300.697669 792.611383 
L 303.080164 789.002943 
L 305.462658 781.074035 
L 307.845152 775.293664 
L 310.227646 768.196776 
L 312.610141 763.17409 
L 314.992635 751.461282 
L 317.375129 744.477217 
L 319.757623 740.352208 
L 322.140117 725.242266 
L 324.522612 716.722831 
L 326.905106 706.971025 
L 329.2876 698.312731 
L 331.670094 687.770034 
L 334.052589 675.820261 
L 336.435083 666.897833 
L 338.817577 647.675712 
L 341.200071 635.910454 
L 343.582565 616.16233 
L 345.96506 601.291241 
L 348.347554 583.774667 
L 350.730048 558.989895 
L 353.112542 535.76502 
L 355.495036 515.059601 
L 357.877531 499.533461 
L 360.260025 482.883999 
L 362.642519 473.386893 
L 365.025013 454.443243 
L 367.407508 446.202658 
L 369.790002 435.753162 
L 372.172496 427.117131 
L 376.937484 408.075375 
L 379.319979 400.912831 
L 381.702473 391.07537 
L 384.084967 384.387889 
L 386.467461 377.09592 
L 388.849956 375.962033 
L 391.23245 367.572778 
L 393.614944 365.422732 
L 395.997438 357.660605 
L 398.379932 354.814001 
L 400.762427 349.182677 
L 403.144921 340.956052 
L 405.527415 342.473687 
L 407.909909 338.060395 
L 410.292403 331.995514 
L 412.674898 331.281222 
L 415.057392 328.556497 
L 417.439886 321.448667 
L 419.82238 318.893742 
L 422.204875 316.899912 
L 424.587369 310.307519 
L 426.969863 312.794146 
L 429.352357 311.001058 
L 431.734851 304.987117 
L 434.117346 300.736833 
L 436.49984 300.219886 
L 438.882334 297.452145 
L 441.264828 297.920416 
L 443.647323 294.880995 
L 446.029817 293.315438 
L 448.412311 288.051636 
L 450.794805 289.465127 
L 453.177299 288.045221 
L 455.559794 286.095162 
L 457.942288 284.654126 
L 460.324782 284.040581 
L 462.707276 278.904696 
L 465.089771 280.481572 
L 467.472265 276.472781 
L 472.237253 277.523655 
L 474.619747 275.655854 
L 477.002242 273.199791 
L 479.384736 271.163322 
L 481.76723 271.40708 
L 484.149724 268.518215 
L 486.532218 271.493866 
L 488.914713 266.673809 
L 491.297207 266.628906 
L 493.679701 266.76135 
L 496.062195 263.58307 
L 498.44469 266.497971 
L 500.827184 262.72124 
L 503.209678 262.851798 
L 505.592172 260.073492 
L 507.974666 259.345993 
L 510.357161 259.792001 
L 512.739655 260.065945 
L 515.122149 255.740194 
L 517.504643 256.834461 
L 519.887138 257.319335 
L 522.269632 250.250747 
L 524.652126 256.389962 
L 527.03462 253.002262 
L 529.417114 249.349297 
L 531.799609 250.596007 
L 534.182103 249.520229 
L 536.564597 249.628524 
L 538.947091 249.141386 
L 541.329585 249.468534 
L 543.71208 245.108069 
L 546.094574 246.286859 
L 548.477068 247.684879 
L 550.859562 242.747093 
L 553.242057 242.38674 
L 555.624551 238.264749 
L 558.007045 244.308499 
L 560.389539 242.251277 
L 562.772033 240.929101 
L 565.154528 241.760744 
L 567.537022 237.259155 
L 569.919516 237.916093 
L 574.684505 235.867927 
L 577.066999 236.10527 
L 579.449493 235.188727 
L 581.831987 233.70958 
L 584.214481 234.012956 
L 588.97947 231.540667 
L 591.361964 232.078744 
L 593.744458 228.746135 
L 596.126952 232.202887 
L 598.509447 228.37748 
L 600.891941 229.570231 
L 603.274435 226.633068 
L 605.656929 227.415657 
L 608.039424 229.97096 
L 610.421918 227.513764 
L 612.804412 223.10915 
L 615.186906 227.246612 
L 617.5694 226.40629 
L 619.951895 224.86677 
L 622.334389 224.26681 
L 624.716883 223.450637 
L 627.099377 219.00414 
L 629.481872 223.593269 
L 631.864366 219.236577 
L 634.24686 220.754967 
L 636.629354 222.999724 
L 639.011848 220.748175 
L 641.394343 218.299281 
L 643.776837 219.822199 
L 646.159331 220.270471 
L 648.541825 217.036346 
L 650.92432 217.256331 
L 653.306814 213.053214 
L 655.689308 219.858045 
L 658.071802 215.697189 
L 660.454296 216.229229 
L 662.836791 213.169432 
L 665.219285 214.394634 
L 667.601779 216.095276 
L 669.984273 216.627316 
L 672.366767 212.798513 
L 677.131756 213.787504 
L 679.51425 212.015169 
L 681.896744 212.729461 
L 684.279239 210.168499 
L 686.661733 210.630733 
L 689.044227 210.383202 
L 691.426721 212.165348 
L 693.809215 209.700983 
L 696.19171 208.9033 
L 698.574204 210.599414 
L 700.956698 208.656147 
L 703.339192 208.315037 
L 705.721687 209.405531 
L 708.104181 204.899415 
L 710.486675 208.329376 
L 712.869169 208.165613 
L 715.251663 205.322028 
L 717.634158 207.416606 
L 720.016652 205.940855 
L 722.399146 206.050659 
L 724.78164 203.046707 
L 727.164134 205.588426 
L 729.546629 202.16337 
L 731.929123 203.126325 
L 734.311617 205.687664 
L 736.694111 204.356809 
L 739.076606 200.778556 
L 741.4591 204.224365 
L 743.841594 201.904896 
L 746.224088 200.97892 
L 748.606582 202.104506 
L 750.989077 200.426126 
L 753.371571 202.02602 
L 755.754065 197.475001 
L 758.136559 201.484924 
L 760.519054 201.281541 
L 762.901548 199.367329 
L 765.284042 199.643914 
L 767.666536 200.35632 
L 770.04903 200.709881 
L 772.431525 197.950064 
L 774.814019 198.014588 
L 777.196513 200.544986 
L 779.579007 197.019182 
L 781.961502 197.727815 
L 784.343996 196.671658 
L 786.72649 196.330549 
L 789.108984 198.900567 
L 791.491478 197.522923 
L 793.873973 196.845232 
L 796.256467 197.396893 
L 798.638961 194.768011 
L 801.021455 195.319295 
L 803.403949 197.089744 
L 805.786444 195.531357 
L 808.168938 194.688016 
L 810.551432 194.66349 
L 812.933926 194.254838 
L 815.316421 194.232575 
L 817.698915 194.383886 
L 820.081409 194.155599 
L 822.463903 195.174776 
L 824.846397 193.168494 
L 827.228892 191.651614 
L 829.611386 189.988705 
L 831.99388 192.191201 
L 834.376374 193.692233 
L 836.758869 189.893995 
L 839.141363 192.798708 
L 841.523857 193.557903 
L 843.906351 190.236613 
L 846.288845 194.131827 
L 848.67134 189.715893 
L 851.053834 191.403328 
L 853.436328 191.783681 
L 855.818822 189.262716 
L 860.583811 188.576346 
L 862.966305 190.736958 
L 865.348799 189.827961 
L 867.731293 189.151025 
L 870.113788 187.705083 
L 872.496282 186.009724 
L 874.878776 191.328994 
L 877.26127 188.272215 
L 879.643764 188.512577 
L 882.026259 183.686482 
L 884.408753 190.096623 
L 886.791247 187.56547 
L 889.173741 186.866271 
L 891.556236 189.400442 
L 893.93873 189.469117 
L 896.321224 184.192863 
L 898.703718 185.095445 
L 901.086212 187.587732 
L 903.468707 185.347126 
L 905.851201 188.689924 
L 908.233695 187.35454 
L 910.616189 186.371964 
L 912.998684 185.838415 
L 915.381178 184.688302 
L 917.763672 185.575413 
L 920.146166 183.077088 
L 922.52866 185.019601 
L 924.911155 183.79289 
L 927.293649 184.432093 
L 929.676143 186.091228 
L 932.058637 184.423791 
L 934.441131 182.034516 
L 936.823626 182.990679 
L 939.20612 183.478571 
L 941.588614 184.09853 
L 943.971108 182.151489 
L 946.353603 184.842631 
L 948.736097 184.996206 
L 951.118591 181.028922 
L 953.501085 184.643022 
L 955.883579 182.875215 
L 958.266074 180.178035 
L 960.648568 181.790004 
L 963.031062 181.256077 
L 965.413556 183.243115 
L 967.796051 180.862895 
L 970.178545 180.507447 
L 972.561039 184.564537 
L 974.943533 180.431981 
L 977.326027 176.633365 
L 979.708522 182.17828 
L 982.091016 180.778373 
L 984.47351 179.51091 
L 986.856004 180.741017 
L 989.238498 180.714981 
L 991.620993 179.361108 
L 994.003487 178.950192 
L 996.385981 179.85617 
L 998.768475 176.748451 
L 1001.15097 179.852019 
L 1003.533464 180.439527 
L 1005.915958 180.016536 
L 1008.298452 177.012207 
L 1010.680946 179.612412 
L 1013.063441 180.168225 
L 1015.445935 177.357468 
L 1017.828429 177.105786 
L 1020.210923 178.594367 
L 1022.593418 177.205402 
L 1024.975912 178.659645 
L 1027.358406 177.891017 
L 1029.7409 176.449981 
L 1032.123394 177.673296 
L 1034.505889 176.805051 
L 1036.888383 178.359665 
L 1039.270877 176.663551 
L 1041.653371 175.728896 
L 1044.035866 176.505826 
L 1046.41836 177.438594 
L 1048.800854 176.58733 
L 1051.183348 179.07924 
L 1053.565842 177.030319 
L 1055.948337 173.930525 
L 1058.330831 176.783921 
L 1060.713325 176.535635 
L 1063.095819 174.404833 
L 1065.478313 175.279869 
L 1067.860808 173.887886 
L 1070.243302 176.28735 
L 1072.625796 175.200252 
L 1075.00829 174.735377 
L 1077.390785 175.405144 
L 1079.773279 174.198432 
L 1082.155773 173.696201 
L 1084.538267 174.494261 
L 1086.920761 176.250748 
L 1089.303256 173.069073 
L 1091.68575 174.88782 
L 1094.068244 175.053092 
L 1096.450738 175.631922 
L 1098.833233 173.412069 
L 1101.215727 172.163472 
L 1103.598221 173.464895 
L 1105.980715 173.282643 
L 1108.363209 176.837502 
L 1110.745704 170.987701 
L 1113.128198 172.220072 
L 1115.510692 174.425209 
L 1117.893186 171.700861 
L 1120.27568 175.082524 
L 1122.658175 174.267861 
L 1125.040669 172.761546 
L 1127.423163 174.622177 
L 1129.805657 171.003927 
L 1132.188152 170.316048 
L 1134.570646 171.875567 
L 1136.95314 170.241336 
L 1139.335634 172.463452 
L 1141.718128 172.57552 
L 1144.100623 171.239383 
L 1146.483117 171.038264 
L 1148.865611 170.57037 
L 1151.248105 176.09906 
L 1153.6306 169.870794 
L 1156.013094 171.538985 
L 1158.395588 171.312585 
L 1160.778082 169.40441 
L 1163.160576 170.77564 
L 1165.543071 171.957071 
L 1167.925565 170.5266 
L 1170.308059 170.138701 
L 1172.690553 171.803874 
L 1177.455542 168.219206 
L 1179.838036 168.150908 
L 1182.22053 172.340819 
L 1184.603024 172.222714 
L 1186.985519 169.802497 
L 1189.368013 168.464472 
L 1191.750507 170.900537 
L 1194.133001 169.033869 
L 1196.515495 167.751312 
L 1198.89799 170.864691 
L 1201.280484 169.003305 
L 1203.662978 168.957647 
L 1206.045472 170.920536 
L 1208.427967 170.64961 
L 1210.810461 167.391713 
L 1213.192955 167.177765 
L 1215.575449 169.007455 
L 1217.957943 171.032227 
L 1220.340438 167.906773 
L 1222.722932 168.374667 
L 1225.105426 168.088271 
L 1227.48792 169.148201 
L 1229.870415 168.64597 
L 1232.252909 170.371138 
L 1234.635403 168.083743 
L 1237.017897 171.289568 
L 1239.400391 169.826646 
L 1241.782886 168.692382 
L 1244.16538 168.218828 
L 1246.547874 170.989588 
L 1248.930368 165.717485 
L 1251.312862 166.987966 
L 1253.695357 167.00155 
L 1256.077851 167.733955 
L 1258.460345 165.708429 
L 1260.842839 166.549505 
L 1263.225334 167.196255 
L 1265.607828 168.318067 
L 1267.990322 166.065763 
L 1270.372816 168.049783 
L 1272.75531 165.334869 
L 1275.137805 170.210394 
L 1277.520299 166.788734 
L 1279.902793 165.155635 
L 1282.285287 168.058462 
L 1284.667782 165.889926 
L 1287.050276 165.878983 
L 1289.43277 167.154371 
L 1294.197758 164.169663 
L 1296.580253 167.898095 
L 1298.962747 165.867663 
L 1301.345241 166.11293 
L 1303.727735 166.219716 
L 1306.110229 167.486424 
L 1308.492724 164.877163 
L 1310.875218 165.066962 
L 1313.257712 168.702947 
L 1315.640206 167.90866 
L 1318.022701 166.028407 
L 1320.405195 164.704344 
L 1322.787689 167.146824 
L 1325.170183 163.880248 
L 1327.552677 165.696354 
L 1332.317666 165.170351 
L 1334.70016 166.61101 
L 1337.082654 166.119345 
L 1339.465149 164.767359 
L 1341.847643 166.385742 
L 1344.230137 163.605172 
L 1346.612631 159.732976 
L 1348.995125 165.805781 
L 1351.37762 163.442164 
L 1353.760114 166.291786 
L 1356.142608 164.240602 
L 1358.525102 161.630209 
L 1360.907597 166.029539 
L 1365.672585 164.479831 
L 1368.055079 163.214632 
L 1370.437573 164.567372 
L 1372.820068 160.368405 
L 1375.202562 166.258958 
L 1377.585056 162.538828 
L 1379.96755 165.460521 
L 1382.350044 162.659197 
L 1384.732539 162.646368 
L 1387.115033 164.707363 
L 1389.497527 163.59272 
L 1391.880021 162.341105 
L 1394.262516 159.669584 
L 1396.64501 166.329142 
L 1399.027504 162.741078 
L 1401.409998 161.800386 
L 1403.792492 163.401035 
L 1406.174987 163.68328 
L 1408.557481 164.19834 
L 1410.939975 160.633294 
L 1413.322469 164.547374 
L 1415.704964 163.031625 
L 1418.087458 162.126779 
L 1420.469952 163.501028 
L 1422.852446 161.937358 
L 1425.23494 160.101631 
L 1427.617435 164.076084 
L 1429.999929 161.951697 
L 1432.382423 164.190793 
L 1434.764917 162.161871 
L 1437.147411 163.523291 
L 1439.529906 162.698062 
L 1441.9124 160.190304 
L 1444.294894 162.174701 
L 1446.677388 160.289543 
L 1449.059883 161.694355 
L 1451.442377 162.52298 
L 1453.824871 160.701214 
L 1458.589859 162.422609 
L 1460.972354 159.839007 
L 1463.354848 163.239913 
L 1465.737342 163.284061 
L 1468.119836 162.373178 
L 1470.502331 160.138987 
L 1472.884825 161.553233 
L 1475.267319 163.345944 
L 1477.649813 162.22149 
L 1480.032307 161.346831 
L 1482.414802 158.157986 
L 1484.797296 160.870636 
L 1487.17979 162.427137 
L 1489.562284 162.902577 
L 1491.944779 159.02774 
L 1494.327273 162.031691 
L 1494.327273 162.031691 
" clip-path="url(#pf0b1e59270)" style="fill: none; stroke: #ffc75f; stroke-width: 2.25; stroke-linecap: round"/>
   </g>
   <g id="patch_3">
    <path d="M 216 897.12 
L 216 120.96 
" style="fill: none; stroke: #262626; stroke-width: 1.875; stroke-linejoin: miter; stroke-linecap: square"/>
   </g>
   <g id="patch_4">
    <path d="M 1555.2 897.12 
L 1555.2 120.96 
" style="fill: none; stroke: #262626; stroke-width: 1.875; stroke-linejoin: miter; stroke-linecap: square"/>
   </g>
   <g id="patch_5">
    <path d="M 216 897.12 
L 1555.2 897.12 
" style="fill: none; stroke: #262626; stroke-width: 1.875; stroke-linejoin: miter; stroke-linecap: square"/>
   </g>
   <g id="patch_6">
    <path d="M 216 120.96 
L 1555.2 120.96 
" style="fill: none; stroke: #262626; stroke-width: 1.875; stroke-linejoin: miter; stroke-linecap: square"/>
   </g>
   <g id="text_14">
    <!-- Df(Z) -->
    <g style="fill: #262626" transform="translate(820.916406 110.561563)scale(0.5 -0.5)">
     <use xlink:href="#DejaVuSans-44"/>
     <use xlink:href="#DejaVuSans-66" x="77.001953"/>
     <use xlink:href="#DejaVuSans-28" x="112.207031"/>
     <use xlink:href="#DejaVuSans-5a" x="151.220703"/>
     <use xlink:href="#DejaVuSans-29" x="219.726562"/>
    </g>
   </g>
   <g id="legend_1">
    <g id="patch_7">
     <path d="M 227.55 182.597813 
L 361.029844 182.597813 
Q 364.329844 182.597813 364.329844 179.297813 
L 364.329844 132.51 
Q 364.329844 129.21 361.029844 129.21 
L 227.55 129.21 
Q 224.25 129.21 224.25 132.51 
L 224.25 179.297813 
Q 224.25 182.597813 227.55 182.597813 
z
" style="fill: #ffffff; opacity: 0.8; stroke: #cccccc; stroke-width: 1.5; stroke-linejoin: miter"/>
    </g>
    <g id="line2d_14">
     <path d="M 230.85 142.572422 
L 247.35 142.572422 
L 263.85 142.572422 
" style="fill: none; stroke: #00c9a7; stroke-width: 2.25; stroke-linecap: round"/>
    </g>
    <g id="text_15">
     <!-- df trace -->
     <g style="fill: #262626" transform="translate(277.05 148.347422)scale(0.165 -0.165)">
      <defs>
       <path id="DejaVuSans-64" d="M 2906 2969 
L 2906 4863 
L 3481 4863 
L 3481 0 
L 2906 0 
L 2906 525 
Q 2725 213 2448 61 
Q 2172 -91 1784 -91 
Q 1150 -91 751 415 
Q 353 922 353 1747 
Q 353 2572 751 3078 
Q 1150 3584 1784 3584 
Q 2172 3584 2448 3432 
Q 2725 3281 2906 2969 
z
M 947 1747 
Q 947 1113 1208 752 
Q 1469 391 1925 391 
Q 2381 391 2643 752 
Q 2906 1113 2906 1747 
Q 2906 2381 2643 2742 
Q 2381 3103 1925 3103 
Q 1469 3103 1208 2742 
Q 947 2381 947 1747 
z
" transform="scale(0.015625)"/>
       <path id="DejaVuSans-74" d="M 1172 4494 
L 1172 3500 
L 2356 3500 
L 2356 3053 
L 1172 3053 
L 1172 1153 
Q 1172 725 1289 603 
Q 1406 481 1766 481 
L 2356 481 
L 2356 0 
L 1766 0 
Q 1100 0 847 248 
Q 594 497 594 1153 
L 594 3053 
L 172 3053 
L 172 3500 
L 594 3500 
L 594 4494 
L 1172 4494 
z
" transform="scale(0.015625)"/>
       <path id="DejaVuSans-72" d="M 2631 2963 
Q 2534 3019 2420 3045 
Q 2306 3072 2169 3072 
Q 1681 3072 1420 2755 
Q 1159 2438 1159 1844 
L 1159 0 
L 581 0 
L 581 3500 
L 1159 3500 
L 1159 2956 
Q 1341 3275 1631 3429 
Q 1922 3584 2338 3584 
Q 2397 3584 2469 3576 
Q 2541 3569 2628 3553 
L 2631 2963 
z
" transform="scale(0.015625)"/>
       <path id="DejaVuSans-61" d="M 2194 1759 
Q 1497 1759 1228 1600 
Q 959 1441 959 1056 
Q 959 750 1161 570 
Q 1363 391 1709 391 
Q 2188 391 2477 730 
Q 2766 1069 2766 1631 
L 2766 1759 
L 2194 1759 
z
M 3341 1997 
L 3341 0 
L 2766 0 
L 2766 531 
Q 2569 213 2275 61 
Q 1981 -91 1556 -91 
Q 1019 -91 701 211 
Q 384 513 384 1019 
Q 384 1609 779 1909 
Q 1175 2209 1959 2209 
L 2766 2209 
L 2766 2266 
Q 2766 2663 2505 2880 
Q 2244 3097 1772 3097 
Q 1472 3097 1187 3025 
Q 903 2953 641 2809 
L 641 3341 
Q 956 3463 1253 3523 
Q 1550 3584 1831 3584 
Q 2591 3584 2966 3190 
Q 3341 2797 3341 1997 
z
" transform="scale(0.015625)"/>
       <path id="DejaVuSans-63" d="M 3122 3366 
L 3122 2828 
Q 2878 2963 2633 3030 
Q 2388 3097 2138 3097 
Q 1578 3097 1268 2742 
Q 959 2388 959 1747 
Q 959 1106 1268 751 
Q 1578 397 2138 397 
Q 2388 397 2633 464 
Q 2878 531 3122 666 
L 3122 134 
Q 2881 22 2623 -34 
Q 2366 -91 2075 -91 
Q 1284 -91 818 406 
Q 353 903 353 1747 
Q 353 2603 823 3093 
Q 1294 3584 2113 3584 
Q 2378 3584 2631 3529 
Q 2884 3475 3122 3366 
z
" transform="scale(0.015625)"/>
       <path id="DejaVuSans-65" d="M 3597 1894 
L 3597 1613 
L 953 1613 
Q 991 1019 1311 708 
Q 1631 397 2203 397 
Q 2534 397 2845 478 
Q 3156 559 3463 722 
L 3463 178 
Q 3153 47 2828 -22 
Q 2503 -91 2169 -91 
Q 1331 -91 842 396 
Q 353 884 353 1716 
Q 353 2575 817 3079 
Q 1281 3584 2069 3584 
Q 2775 3584 3186 3129 
Q 3597 2675 3597 1894 
z
M 3022 2063 
Q 3016 2534 2758 2815 
Q 2500 3097 2075 3097 
Q 1594 3097 1305 2825 
Q 1016 2553 972 2059 
L 3022 2063 
z
" transform="scale(0.015625)"/>
      </defs>
      <use xlink:href="#DejaVuSans-64"/>
      <use xlink:href="#DejaVuSans-66" x="63.476562"/>
      <use xlink:href="#DejaVuSans-20" x="98.681641"/>
      <use xlink:href="#DejaVuSans-74" x="130.46875"/>
      <use xlink:href="#DejaVuSans-72" x="169.677734"/>
      <use xlink:href="#DejaVuSans-61" x="210.791016"/>
      <use xlink:href="#DejaVuSans-63" x="272.070312"/>
      <use xlink:href="#DejaVuSans-65" x="327.050781"/>
     </g>
    </g>
    <g id="line2d_15">
     <path d="M 230.85 166.791328 
L 247.35 166.791328 
L 263.85 166.791328 
" style="fill: none; stroke: #ffc75f; stroke-width: 2.25; stroke-linecap: round"/>
    </g>
    <g id="text_16">
     <!-- df retrace -->
     <g style="fill: #262626" transform="translate(277.05 172.566328)scale(0.165 -0.165)">
      <use xlink:href="#DejaVuSans-64"/>
      <use xlink:href="#DejaVuSans-66" x="63.476562"/>
      <use xlink:href="#DejaVuSans-20" x="98.681641"/>
      <use xlink:href="#DejaVuSans-72" x="130.46875"/>
      <use xlink:href="#DejaVuSans-65" x="169.332031"/>
      <use xlink:href="#DejaVuSans-74" x="230.855469"/>
      <use xlink:href="#DejaVuSans-72" x="270.064453"/>
      <use xlink:href="#DejaVuSans-61" x="311.177734"/>
      <use xlink:href="#DejaVuSans-63" x="372.457031"/>
      <use xlink:href="#DejaVuSans-65" x="427.4375"/>
     </g>
    </g>
   </g>
  </g>
 </g>
 <defs>
  <clipPath id="pf0b1e59270">
   <rect x="216" y="120.96" width="1339.2" height="776.16"/>
  </clipPath>
 </defs>
</svg>
