<?xml version="1.0" encoding="utf-8" standalone="no"?>
<!DOCTYPE svg PUBLIC "-//W3C//DTD SVG 1.1//EN"
  "http://www.w3.org/Graphics/SVG/1.1/DTD/svg11.dtd">
<svg xmlns:xlink="http://www.w3.org/1999/xlink" width="1728pt" height="1008pt" viewBox="0 0 1728 1008" xmlns="http://www.w3.org/2000/svg" version="1.1">
 <metadata>
  <rdf:RDF xmlns:dc="http://purl.org/dc/elements/1.1/" xmlns:cc="http://creativecommons.org/ns#" xmlns:rdf="http://www.w3.org/1999/02/22-rdf-syntax-ns#">
   <cc:Work>
    <dc:type rdf:resource="http://purl.org/dc/dcmitype/StillImage"/>
    <dc:date>2022-10-31T00:00:07.831369</dc:date>
    <dc:format>image/svg+xml</dc:format>
    <dc:creator>
     <cc:Agent>
      <dc:title>Matplotlib v3.5.2, https://matplotlib.org/</dc:title>
     </cc:Agent>
    </dc:creator>
   </cc:Work>
  </rdf:RDF>
 </metadata>
 <defs>
  <style type="text/css">*{stroke-linejoin: round; stroke-linecap: butt}</style>
 </defs>
 <g id="figure_1">
  <g id="patch_1">
   <path d="M 0 1008 
L 1728 1008 
L 1728 0 
L 0 0 
z
" style="fill: #ffffff"/>
  </g>
  <g id="axes_1">
   <g id="patch_2">
    <path d="M 216 897.12 
L 1555.2 897.12 
L 1555.2 120.96 
L 216 120.96 
L 216 897.12 
z
" style="fill: none"/>
   </g>
   <g id="matplotlib.axis_1">
    <g id="xtick_1">
     <g id="line2d_1">
      <defs>
       <path id="m5254624cbb" d="M 0 0 
L 0 9 
" style="stroke: #262626; stroke-width: 1.875"/>
      </defs>
      <g>
       <use xlink:href="#m5254624cbb" x="449.498523" y="897.12" style="fill: #262626; stroke: #262626; stroke-width: 1.875"/>
      </g>
     </g>
     <g id="text_1">
      <!-- 0.0 -->
      <g style="fill: #262626" transform="translate(411.331023 946.0925)scale(0.48 -0.48)">
       <defs>
        <path id="DejaVuSans-30" d="M 2034 4250 
Q 1547 4250 1301 3770 
Q 1056 3291 1056 2328 
Q 1056 1369 1301 889 
Q 1547 409 2034 409 
Q 2525 409 2770 889 
Q 3016 1369 3016 2328 
Q 3016 3291 2770 3770 
Q 2525 4250 2034 4250 
z
M 2034 4750 
Q 2819 4750 3233 4129 
Q 3647 3509 3647 2328 
Q 3647 1150 3233 529 
Q 2819 -91 2034 -91 
Q 1250 -91 836 529 
Q 422 1150 422 2328 
Q 422 3509 836 4129 
Q 1250 4750 2034 4750 
z
" transform="scale(0.015625)"/>
        <path id="DejaVuSans-2e" d="M 684 794 
L 1344 794 
L 1344 0 
L 684 0 
L 684 794 
z
" transform="scale(0.015625)"/>
       </defs>
       <use xlink:href="#DejaVuSans-30"/>
       <use xlink:href="#DejaVuSans-2e" x="63.623047"/>
       <use xlink:href="#DejaVuSans-30" x="95.410156"/>
      </g>
     </g>
    </g>
    <g id="xtick_2">
     <g id="line2d_2">
      <g>
       <use xlink:href="#m5254624cbb" x="711.052758" y="897.12" style="fill: #262626; stroke: #262626; stroke-width: 1.875"/>
      </g>
     </g>
     <g id="text_2">
      <!-- 0.5 -->
      <g style="fill: #262626" transform="translate(672.885258 946.0925)scale(0.48 -0.48)">
       <defs>
        <path id="DejaVuSans-35" d="M 691 4666 
L 3169 4666 
L 3169 4134 
L 1269 4134 
L 1269 2991 
Q 1406 3038 1543 3061 
Q 1681 3084 1819 3084 
Q 2600 3084 3056 2656 
Q 3513 2228 3513 1497 
Q 3513 744 3044 326 
Q 2575 -91 1722 -91 
Q 1428 -91 1123 -41 
Q 819 9 494 109 
L 494 744 
Q 775 591 1075 516 
Q 1375 441 1709 441 
Q 2250 441 2565 725 
Q 2881 1009 2881 1497 
Q 2881 1984 2565 2268 
Q 2250 2553 1709 2553 
Q 1456 2553 1204 2497 
Q 953 2441 691 2322 
L 691 4666 
z
" transform="scale(0.015625)"/>
       </defs>
       <use xlink:href="#DejaVuSans-30"/>
       <use xlink:href="#DejaVuSans-2e" x="63.623047"/>
       <use xlink:href="#DejaVuSans-35" x="95.410156"/>
      </g>
     </g>
    </g>
    <g id="xtick_3">
     <g id="line2d_3">
      <g>
       <use xlink:href="#m5254624cbb" x="972.606993" y="897.12" style="fill: #262626; stroke: #262626; stroke-width: 1.875"/>
      </g>
     </g>
     <g id="text_3">
      <!-- 1.0 -->
      <g style="fill: #262626" transform="translate(934.439493 946.0925)scale(0.48 -0.48)">
       <defs>
        <path id="DejaVuSans-31" d="M 794 531 
L 1825 531 
L 1825 4091 
L 703 3866 
L 703 4441 
L 1819 4666 
L 2450 4666 
L 2450 531 
L 3481 531 
L 3481 0 
L 794 0 
L 794 531 
z
" transform="scale(0.015625)"/>
       </defs>
       <use xlink:href="#DejaVuSans-31"/>
       <use xlink:href="#DejaVuSans-2e" x="63.623047"/>
       <use xlink:href="#DejaVuSans-30" x="95.410156"/>
      </g>
     </g>
    </g>
    <g id="xtick_4">
     <g id="line2d_4">
      <g>
       <use xlink:href="#m5254624cbb" x="1234.161228" y="897.12" style="fill: #262626; stroke: #262626; stroke-width: 1.875"/>
      </g>
     </g>
     <g id="text_4">
      <!-- 1.5 -->
      <g style="fill: #262626" transform="translate(1195.993728 946.0925)scale(0.48 -0.48)">
       <use xlink:href="#DejaVuSans-31"/>
       <use xlink:href="#DejaVuSans-2e" x="63.623047"/>
       <use xlink:href="#DejaVuSans-35" x="95.410156"/>
      </g>
     </g>
    </g>
    <g id="xtick_5">
     <g id="line2d_5">
      <g>
       <use xlink:href="#m5254624cbb" x="1495.715464" y="897.12" style="fill: #262626; stroke: #262626; stroke-width: 1.875"/>
      </g>
     </g>
     <g id="text_5">
      <!-- 2.0 -->
      <g style="fill: #262626" transform="translate(1457.547964 946.0925)scale(0.48 -0.48)">
       <defs>
        <path id="DejaVuSans-32" d="M 1228 531 
L 3431 531 
L 3431 0 
L 469 0 
L 469 531 
Q 828 903 1448 1529 
Q 2069 2156 2228 2338 
Q 2531 2678 2651 2914 
Q 2772 3150 2772 3378 
Q 2772 3750 2511 3984 
Q 2250 4219 1831 4219 
Q 1534 4219 1204 4116 
Q 875 4013 500 3803 
L 500 4441 
Q 881 4594 1212 4672 
Q 1544 4750 1819 4750 
Q 2544 4750 2975 4387 
Q 3406 4025 3406 3419 
Q 3406 3131 3298 2873 
Q 3191 2616 2906 2266 
Q 2828 2175 2409 1742 
Q 1991 1309 1228 531 
z
" transform="scale(0.015625)"/>
       </defs>
       <use xlink:href="#DejaVuSans-32"/>
       <use xlink:href="#DejaVuSans-2e" x="63.623047"/>
       <use xlink:href="#DejaVuSans-30" x="95.410156"/>
      </g>
     </g>
    </g>
    <g id="text_6">
     <!-- Z [nm] -->
     <g style="fill: #262626" transform="translate(804.2175 996.5475)scale(0.48 -0.48)">
      <defs>
       <path id="DejaVuSans-5a" d="M 359 4666 
L 4025 4666 
L 4025 4184 
L 1075 531 
L 4097 531 
L 4097 0 
L 288 0 
L 288 481 
L 3238 4134 
L 359 4134 
L 359 4666 
z
" transform="scale(0.015625)"/>
       <path id="DejaVuSans-20" transform="scale(0.015625)"/>
       <path id="DejaVuSans-5b" d="M 550 4863 
L 1875 4863 
L 1875 4416 
L 1125 4416 
L 1125 -397 
L 1875 -397 
L 1875 -844 
L 550 -844 
L 550 4863 
z
" transform="scale(0.015625)"/>
       <path id="DejaVuSans-6e" d="M 3513 2113 
L 3513 0 
L 2938 0 
L 2938 2094 
Q 2938 2591 2744 2837 
Q 2550 3084 2163 3084 
Q 1697 3084 1428 2787 
Q 1159 2491 1159 1978 
L 1159 0 
L 581 0 
L 581 3500 
L 1159 3500 
L 1159 2956 
Q 1366 3272 1645 3428 
Q 1925 3584 2291 3584 
Q 2894 3584 3203 3211 
Q 3513 2838 3513 2113 
z
" transform="scale(0.015625)"/>
       <path id="DejaVuSans-6d" d="M 3328 2828 
Q 3544 3216 3844 3400 
Q 4144 3584 4550 3584 
Q 5097 3584 5394 3201 
Q 5691 2819 5691 2113 
L 5691 0 
L 5113 0 
L 5113 2094 
Q 5113 2597 4934 2840 
Q 4756 3084 4391 3084 
Q 3944 3084 3684 2787 
Q 3425 2491 3425 1978 
L 3425 0 
L 2847 0 
L 2847 2094 
Q 2847 2600 2669 2842 
Q 2491 3084 2119 3084 
Q 1678 3084 1418 2786 
Q 1159 2488 1159 1978 
L 1159 0 
L 581 0 
L 581 3500 
L 1159 3500 
L 1159 2956 
Q 1356 3278 1631 3431 
Q 1906 3584 2284 3584 
Q 2666 3584 2933 3390 
Q 3200 3197 3328 2828 
z
" transform="scale(0.015625)"/>
       <path id="DejaVuSans-5d" d="M 1947 4863 
L 1947 -844 
L 622 -844 
L 622 -397 
L 1369 -397 
L 1369 4416 
L 622 4416 
L 622 4863 
L 1947 4863 
z
" transform="scale(0.015625)"/>
      </defs>
      <use xlink:href="#DejaVuSans-5a"/>
      <use xlink:href="#DejaVuSans-20" x="68.505859"/>
      <use xlink:href="#DejaVuSans-5b" x="100.292969"/>
      <use xlink:href="#DejaVuSans-6e" x="139.306641"/>
      <use xlink:href="#DejaVuSans-6d" x="202.685547"/>
      <use xlink:href="#DejaVuSans-5d" x="300.097656"/>
     </g>
    </g>
   </g>
   <g id="matplotlib.axis_2">
    <g id="ytick_1">
     <g id="line2d_6">
      <defs>
       <path id="m407e58be6c" d="M 0 0 
L -9 0 
" style="stroke: #262626; stroke-width: 1.875"/>
      </defs>
      <g>
       <use xlink:href="#m407e58be6c" x="216" y="894.553422" style="fill: #262626; stroke: #262626; stroke-width: 1.875"/>
      </g>
     </g>
     <g id="text_7">
      <!-- −17.5 -->
      <g style="fill: #262626" transform="translate(56.4025 912.789672)scale(0.48 -0.48)">
       <defs>
        <path id="DejaVuSans-2212" d="M 678 2272 
L 4684 2272 
L 4684 1741 
L 678 1741 
L 678 2272 
z
" transform="scale(0.015625)"/>
        <path id="DejaVuSans-37" d="M 525 4666 
L 3525 4666 
L 3525 4397 
L 1831 0 
L 1172 0 
L 2766 4134 
L 525 4134 
L 525 4666 
z
" transform="scale(0.015625)"/>
       </defs>
       <use xlink:href="#DejaVuSans-2212"/>
       <use xlink:href="#DejaVuSans-31" x="83.789062"/>
       <use xlink:href="#DejaVuSans-37" x="147.412109"/>
       <use xlink:href="#DejaVuSans-2e" x="211.035156"/>
       <use xlink:href="#DejaVuSans-35" x="242.822266"/>
      </g>
     </g>
    </g>
    <g id="ytick_2">
     <g id="line2d_7">
      <g>
       <use xlink:href="#m407e58be6c" x="216" y="788.970846" style="fill: #262626; stroke: #262626; stroke-width: 1.875"/>
      </g>
     </g>
     <g id="text_8">
      <!-- −15.0 -->
      <g style="fill: #262626" transform="translate(56.4025 807.207096)scale(0.48 -0.48)">
       <use xlink:href="#DejaVuSans-2212"/>
       <use xlink:href="#DejaVuSans-31" x="83.789062"/>
       <use xlink:href="#DejaVuSans-35" x="147.412109"/>
       <use xlink:href="#DejaVuSans-2e" x="211.035156"/>
       <use xlink:href="#DejaVuSans-30" x="242.822266"/>
      </g>
     </g>
    </g>
    <g id="ytick_3">
     <g id="line2d_8">
      <g>
       <use xlink:href="#m407e58be6c" x="216" y="683.388269" style="fill: #262626; stroke: #262626; stroke-width: 1.875"/>
      </g>
     </g>
     <g id="text_9">
      <!-- −12.5 -->
      <g style="fill: #262626" transform="translate(56.4025 701.624519)scale(0.48 -0.48)">
       <use xlink:href="#DejaVuSans-2212"/>
       <use xlink:href="#DejaVuSans-31" x="83.789062"/>
       <use xlink:href="#DejaVuSans-32" x="147.412109"/>
       <use xlink:href="#DejaVuSans-2e" x="211.035156"/>
       <use xlink:href="#DejaVuSans-35" x="242.822266"/>
      </g>
     </g>
    </g>
    <g id="ytick_4">
     <g id="line2d_9">
      <g>
       <use xlink:href="#m407e58be6c" x="216" y="577.805693" style="fill: #262626; stroke: #262626; stroke-width: 1.875"/>
      </g>
     </g>
     <g id="text_10">
      <!-- −10.0 -->
      <g style="fill: #262626" transform="translate(56.4025 596.041943)scale(0.48 -0.48)">
       <use xlink:href="#DejaVuSans-2212"/>
       <use xlink:href="#DejaVuSans-31" x="83.789062"/>
       <use xlink:href="#DejaVuSans-30" x="147.412109"/>
       <use xlink:href="#DejaVuSans-2e" x="211.035156"/>
       <use xlink:href="#DejaVuSans-30" x="242.822266"/>
      </g>
     </g>
    </g>
    <g id="ytick_5">
     <g id="line2d_10">
      <g>
       <use xlink:href="#m407e58be6c" x="216" y="472.223116" style="fill: #262626; stroke: #262626; stroke-width: 1.875"/>
      </g>
     </g>
     <g id="text_11">
      <!-- −7.5 -->
      <g style="fill: #262626" transform="translate(86.9425 490.459366)scale(0.48 -0.48)">
       <use xlink:href="#DejaVuSans-2212"/>
       <use xlink:href="#DejaVuSans-37" x="83.789062"/>
       <use xlink:href="#DejaVuSans-2e" x="147.412109"/>
       <use xlink:href="#DejaVuSans-35" x="179.199219"/>
      </g>
     </g>
    </g>
    <g id="ytick_6">
     <g id="line2d_11">
      <g>
       <use xlink:href="#m407e58be6c" x="216" y="366.64054" style="fill: #262626; stroke: #262626; stroke-width: 1.875"/>
      </g>
     </g>
     <g id="text_12">
      <!-- −5.0 -->
      <g style="fill: #262626" transform="translate(86.9425 384.87679)scale(0.48 -0.48)">
       <use xlink:href="#DejaVuSans-2212"/>
       <use xlink:href="#DejaVuSans-35" x="83.789062"/>
       <use xlink:href="#DejaVuSans-2e" x="147.412109"/>
       <use xlink:href="#DejaVuSans-30" x="179.199219"/>
      </g>
     </g>
    </g>
    <g id="ytick_7">
     <g id="line2d_12">
      <g>
       <use xlink:href="#m407e58be6c" x="216" y="261.057964" style="fill: #262626; stroke: #262626; stroke-width: 1.875"/>
      </g>
     </g>
     <g id="text_13">
      <!-- −2.5 -->
      <g style="fill: #262626" transform="translate(86.9425 279.294214)scale(0.48 -0.48)">
       <use xlink:href="#DejaVuSans-2212"/>
       <use xlink:href="#DejaVuSans-32" x="83.789062"/>
       <use xlink:href="#DejaVuSans-2e" x="147.412109"/>
       <use xlink:href="#DejaVuSans-35" x="179.199219"/>
      </g>
     </g>
    </g>
    <g id="ytick_8">
     <g id="line2d_13">
      <g>
       <use xlink:href="#m407e58be6c" x="216" y="155.475387" style="fill: #262626; stroke: #262626; stroke-width: 1.875"/>
      </g>
     </g>
     <g id="text_14">
      <!-- 0.0 -->
      <g style="fill: #262626" transform="translate(127.165 173.711637)scale(0.48 -0.48)">
       <use xlink:href="#DejaVuSans-30"/>
       <use xlink:href="#DejaVuSans-2e" x="63.623047"/>
       <use xlink:href="#DejaVuSans-30" x="95.410156"/>
      </g>
     </g>
    </g>
    <g id="text_15">
     <!-- Df(Z) [Hz] -->
     <g style="fill: #262626" transform="translate(42.42 628.13625)rotate(-90)scale(0.48 -0.48)">
      <defs>
       <path id="DejaVuSans-44" d="M 1259 4147 
L 1259 519 
L 2022 519 
Q 2988 519 3436 956 
Q 3884 1394 3884 2338 
Q 3884 3275 3436 3711 
Q 2988 4147 2022 4147 
L 1259 4147 
z
M 628 4666 
L 1925 4666 
Q 3281 4666 3915 4102 
Q 4550 3538 4550 2338 
Q 4550 1131 3912 565 
Q 3275 0 1925 0 
L 628 0 
L 628 4666 
z
" transform="scale(0.015625)"/>
       <path id="DejaVuSans-66" d="M 2375 4863 
L 2375 4384 
L 1825 4384 
Q 1516 4384 1395 4259 
Q 1275 4134 1275 3809 
L 1275 3500 
L 2222 3500 
L 2222 3053 
L 1275 3053 
L 1275 0 
L 697 0 
L 697 3053 
L 147 3053 
L 147 3500 
L 697 3500 
L 697 3744 
Q 697 4328 969 4595 
Q 1241 4863 1831 4863 
L 2375 4863 
z
" transform="scale(0.015625)"/>
       <path id="DejaVuSans-28" d="M 1984 4856 
Q 1566 4138 1362 3434 
Q 1159 2731 1159 2009 
Q 1159 1288 1364 580 
Q 1569 -128 1984 -844 
L 1484 -844 
Q 1016 -109 783 600 
Q 550 1309 550 2009 
Q 550 2706 781 3412 
Q 1013 4119 1484 4856 
L 1984 4856 
z
" transform="scale(0.015625)"/>
       <path id="DejaVuSans-29" d="M 513 4856 
L 1013 4856 
Q 1481 4119 1714 3412 
Q 1947 2706 1947 2009 
Q 1947 1309 1714 600 
Q 1481 -109 1013 -844 
L 513 -844 
Q 928 -128 1133 580 
Q 1338 1288 1338 2009 
Q 1338 2731 1133 3434 
Q 928 4138 513 4856 
z
" transform="scale(0.015625)"/>
       <path id="DejaVuSans-48" d="M 628 4666 
L 1259 4666 
L 1259 2753 
L 3553 2753 
L 3553 4666 
L 4184 4666 
L 4184 0 
L 3553 0 
L 3553 2222 
L 1259 2222 
L 1259 0 
L 628 0 
L 628 4666 
z
" transform="scale(0.015625)"/>
       <path id="DejaVuSans-7a" d="M 353 3500 
L 3084 3500 
L 3084 2975 
L 922 459 
L 3084 459 
L 3084 0 
L 275 0 
L 275 525 
L 2438 3041 
L 353 3041 
L 353 3500 
z
" transform="scale(0.015625)"/>
      </defs>
      <use xlink:href="#DejaVuSans-44"/>
      <use xlink:href="#DejaVuSans-66" x="77.001953"/>
      <use xlink:href="#DejaVuSans-28" x="112.207031"/>
      <use xlink:href="#DejaVuSans-5a" x="151.220703"/>
      <use xlink:href="#DejaVuSans-29" x="219.726562"/>
      <use xlink:href="#DejaVuSans-20" x="258.740234"/>
      <use xlink:href="#DejaVuSans-5b" x="290.527344"/>
      <use xlink:href="#DejaVuSans-48" x="329.541016"/>
      <use xlink:href="#DejaVuSans-7a" x="404.736328"/>
      <use xlink:href="#DejaVuSans-5d" x="457.226562"/>
     </g>
    </g>
   </g>
   <g id="line2d_14">
    <path d="M 276.872727 860.338862 
L 281.637716 832.722299 
L 284.02021 816.944389 
L 286.402704 804.162272 
L 288.785198 785.900871 
L 291.167693 774.192814 
L 293.550187 757.390059 
L 295.932681 742.917392 
L 298.315175 733.121707 
L 300.697669 717.948525 
L 303.080164 706.997398 
L 305.462658 689.53662 
L 307.845152 679.842723 
L 310.227646 666.358891 
L 312.610141 655.768825 
L 314.992635 642.433114 
L 317.375129 633.79359 
L 319.757623 622.521254 
L 322.140117 615.905013 
L 324.522612 606.746945 
L 326.905106 599.488286 
L 329.2876 589.238874 
L 331.670094 580.518448 
L 334.052589 572.6553 
L 336.435083 560.680768 
L 338.817577 553.086975 
L 341.200071 473.775388 
L 343.582565 384.494788 
L 345.96506 379.922235 
L 348.347554 372.051165 
L 350.730048 368.255469 
L 353.112542 360.67512 
L 355.495036 357.753987 
L 357.877531 351.411903 
L 360.260025 347.097663 
L 362.642519 342.504465 
L 365.025013 338.694124 
L 367.407508 333.984494 
L 369.790002 328.358529 
L 372.172496 324.639654 
L 374.55499 316.850207 
L 376.937484 314.485789 
L 379.319979 310.341036 
L 381.702473 308.026312 
L 384.084967 302.981308 
L 386.467461 302.62793 
L 391.23245 296.574405 
L 393.614944 292.893221 
L 395.997438 290.783274 
L 398.379932 288.306025 
L 400.762427 284.976779 
L 403.144921 283.934649 
L 405.527415 280.300277 
L 407.909909 277.618011 
L 410.292403 275.521028 
L 412.674898 275.269678 
L 415.057392 272.804192 
L 419.82238 268.430655 
L 422.204875 265.009463 
L 424.587369 264.619595 
L 426.969863 261.936368 
L 429.352357 261.428387 
L 431.734851 259.85931 
L 434.117346 257.350612 
L 436.49984 255.756329 
L 438.882334 254.681069 
L 441.264828 253.306927 
L 443.647323 251.566923 
L 446.029817 251.730408 
L 448.412311 250.295769 
L 450.794805 247.270688 
L 453.177299 246.354353 
L 455.559794 245.224118 
L 457.942288 242.275378 
L 460.324782 244.053312 
L 462.707276 242.653723 
L 465.089771 240.443908 
L 467.472265 239.248616 
L 472.237253 235.689145 
L 474.619747 237.836543 
L 477.002242 235.639451 
L 479.384736 235.627448 
L 481.76723 233.064015 
L 484.149724 233.493254 
L 486.532218 231.239027 
L 488.914713 230.475855 
L 493.679701 229.23807 
L 496.062195 229.428203 
L 498.44469 226.550283 
L 500.827184 227.44093 
L 503.209678 225.446695 
L 505.592172 225.412366 
L 507.974666 223.130051 
L 510.357161 222.986491 
L 512.739655 221.564335 
L 515.122149 220.366402 
L 517.504643 222.124891 
L 519.887138 218.77788 
L 522.269632 217.229929 
L 524.652126 217.95133 
L 527.03462 217.929244 
L 529.417114 218.935604 
L 531.799609 217.55474 
L 534.182103 215.90188 
L 536.564597 216.366409 
L 538.947091 213.740318 
L 541.329585 215.269544 
L 543.71208 214.269906 
L 546.094574 213.959739 
L 548.477068 212.447799 
L 550.859562 209.90045 
L 553.242057 211.867077 
L 558.007045 210.040889 
L 560.389539 208.532549 
L 562.772033 209.90021 
L 565.154528 208.280959 
L 567.537022 207.78114 
L 569.919516 208.769735 
L 572.30201 207.460171 
L 574.684505 205.743934 
L 577.066999 204.961316 
L 579.449493 205.651268 
L 581.831987 205.475779 
L 584.214481 204.660272 
L 586.596976 204.730372 
L 588.97947 204.169335 
L 591.361964 204.536878 
L 593.744458 202.631708 
L 596.126952 203.784989 
L 598.509447 203.203067 
L 600.891941 201.163459 
L 603.274435 201.301498 
L 605.656929 201.819082 
L 608.039424 201.267648 
L 610.421918 200.334028 
L 612.804412 199.882703 
L 615.186906 198.366681 
L 617.5694 202.446616 
L 619.951895 199.955923 
L 622.334389 199.11641 
L 624.716883 198.529686 
L 627.099377 197.077042 
L 629.481872 198.754389 
L 631.864366 197.963369 
L 634.24686 197.450346 
L 636.629354 195.38073 
L 639.011848 196.743349 
L 641.394343 195.258056 
L 643.776837 194.800489 
L 646.159331 196.940924 
L 648.541825 192.149191 
L 650.92432 195.570863 
L 653.306814 193.112339 
L 655.689308 193.254219 
L 658.071802 194.426705 
L 660.454296 191.937692 
L 662.836791 191.92905 
L 665.219285 191.127227 
L 669.984273 193.031196 
L 672.366767 190.448078 
L 674.749262 189.856313 
L 677.131756 189.885841 
L 679.51425 191.459479 
L 681.896744 191.658495 
L 684.279239 188.204173 
L 686.661733 190.038044 
L 689.044227 188.937337 
L 691.426721 187.966267 
L 693.809215 192.116542 
L 696.19171 188.107667 
L 698.574204 187.310645 
L 700.956698 187.743965 
L 703.339192 188.306682 
L 705.721687 187.430918 
L 708.104181 188.997834 
L 710.486675 185.504622 
L 712.869169 187.619611 
L 715.251663 187.129875 
L 717.634158 185.042734 
L 720.016652 187.717798 
L 722.399146 186.510022 
L 724.78164 186.668706 
L 727.164134 186.164566 
L 729.546629 185.42612 
L 731.929123 186.355179 
L 734.311617 185.449167 
L 736.694111 185.361543 
L 739.076606 183.284004 
L 741.4591 185.486377 
L 743.841594 185.297205 
L 746.224088 183.703881 
L 748.606582 184.543395 
L 750.989077 184.799306 
L 753.371571 183.853683 
L 755.754065 184.040695 
L 758.136559 181.639547 
L 760.519054 182.852364 
L 762.901548 183.234791 
L 765.284042 183.475338 
L 767.666536 182.072868 
L 770.04903 181.189182 
L 772.431525 182.232512 
L 774.814019 181.752138 
L 777.196513 180.117283 
L 779.579007 180.382077 
L 781.961502 180.936871 
L 784.343996 180.387359 
L 786.72649 181.621302 
L 789.108984 180.35615 
L 791.491478 180.398402 
L 793.873973 181.343064 
L 796.256467 178.815881 
L 798.638961 180.486506 
L 803.403949 178.493232 
L 805.786444 178.980807 
L 808.168938 179.165419 
L 810.551432 180.727533 
L 812.933926 177.472468 
L 815.316421 178.567652 
L 817.698915 181.156292 
L 820.081409 177.891384 
L 822.463903 178.115126 
L 824.846397 177.736781 
L 827.228892 176.622391 
L 829.611386 178.780351 
L 831.99388 178.075755 
L 834.376374 176.319187 
L 836.758869 176.924155 
L 839.141363 178.896544 
L 841.523857 174.46179 
L 843.906351 179.209831 
L 846.288845 176.806762 
L 848.67134 177.597782 
L 851.053834 176.432738 
L 853.436328 176.308144 
L 855.818822 176.820686 
L 858.201316 175.843854 
L 860.583811 175.437661 
L 862.966305 175.363961 
L 865.348799 175.848896 
L 867.731293 173.261216 
L 870.113788 174.269256 
L 872.496282 176.072158 
L 874.878776 175.118853 
L 877.26127 175.744227 
L 882.026259 175.890907 
L 884.408753 174.743388 
L 886.791247 173.979016 
L 889.173741 175.694053 
L 891.556236 174.921998 
L 893.93873 173.021389 
L 896.321224 172.595271 
L 898.703718 173.757194 
L 901.086212 173.475355 
L 903.468707 174.484116 
L 905.851201 175.166386 
L 908.233695 172.535254 
L 910.616189 173.085487 
L 912.998684 173.119576 
L 915.381178 171.951651 
L 917.763672 174.899912 
L 920.146166 171.035076 
L 922.52866 172.634642 
L 924.911155 171.996784 
L 929.676143 173.105412 
L 932.058637 170.936409 
L 934.441131 172.336959 
L 936.823626 170.718908 
L 939.20612 170.969538 
L 941.588614 173.472715 
L 943.971108 170.667054 
L 948.736097 172.66465 
L 951.118591 171.426385 
L 953.501085 171.174075 
L 955.883579 170.731392 
L 958.266074 170.770043 
L 960.648568 171.913481 
L 963.031062 171.379812 
L 965.413556 170.711947 
L 967.796051 171.355085 
L 970.178545 170.811094 
L 972.561039 169.541381 
L 974.943533 172.215965 
L 977.326027 169.46648 
L 979.708522 170.79453 
L 982.091016 169.187522 
L 984.47351 169.065568 
L 986.856004 168.643291 
L 989.238498 170.034238 
L 994.003487 169.118383 
L 996.385981 168.993068 
L 998.768475 170.402741 
L 1003.533464 169.619163 
L 1005.915958 169.720471 
L 1008.298452 168.92825 
L 1010.680946 169.638368 
L 1013.063441 168.505253 
L 1015.445935 167.657817 
L 1017.828429 168.99787 
L 1020.210923 169.890678 
L 1022.593418 167.765847 
L 1024.975912 166.362897 
L 1027.358406 170.373212 
L 1029.7409 168.659375 
L 1032.123394 169.877474 
L 1034.505889 167.291715 
L 1036.888383 168.898002 
L 1041.653371 167.233619 
L 1044.035866 168.562629 
L 1046.41836 167.758645 
L 1048.800854 167.99295 
L 1051.183348 167.599481 
L 1053.565842 168.656735 
L 1055.948337 167.379099 
L 1058.330831 167.568032 
L 1060.713325 167.199289 
L 1063.095819 165.69431 
L 1065.478313 167.841708 
L 1067.860808 165.552911 
L 1070.243302 168.680741 
L 1072.625796 167.050928 
L 1075.00829 167.428793 
L 1077.390785 166.525902 
L 1079.773279 167.012037 
L 1082.155773 165.827307 
L 1084.538267 167.781451 
L 1086.920761 168.555907 
L 1089.303256 164.559275 
L 1091.68575 167.141673 
L 1094.068244 166.19485 
L 1096.450738 166.553269 
L 1098.833233 165.797059 
L 1101.215727 167.002915 
L 1103.598221 166.59 
L 1105.980715 165.076138 
L 1108.363209 166.175404 
L 1110.745704 166.912409 
L 1113.128198 164.821908 
L 1115.510692 165.653499 
L 1117.893186 165.526264 
L 1120.27568 166.003757 
L 1122.658175 165.677266 
L 1125.040669 164.443322 
L 1127.423163 164.699474 
L 1129.805657 165.273713 
L 1132.188152 163.303485 
L 1134.570646 165.344533 
L 1136.95314 166.680745 
L 1139.335634 165.438159 
L 1141.718128 163.580762 
L 1144.100623 164.561195 
L 1146.483117 163.948065 
L 1148.865611 164.245747 
L 1151.248105 163.521946 
L 1153.6306 163.058617 
L 1156.013094 165.269152 
L 1158.395588 163.542832 
L 1160.778082 163.78866 
L 1163.160576 163.720721 
L 1165.543071 164.165805 
L 1167.925565 162.096189 
L 1170.308059 163.617733 
L 1172.690553 164.339133 
L 1175.073048 163.413676 
L 1177.455542 164.123313 
L 1179.838036 164.655541 
L 1182.22053 163.263874 
L 1184.603024 163.503461 
L 1186.985519 164.499258 
L 1189.368013 162.909536 
L 1191.750507 164.125474 
L 1194.133001 163.261474 
L 1196.515495 162.743169 
L 1198.89799 162.578003 
L 1201.280484 164.120433 
L 1203.662978 163.57044 
L 1206.045472 161.875808 
L 1210.810461 162.075304 
L 1213.192955 163.989116 
L 1215.575449 164.620012 
L 1217.957943 162.124757 
L 1220.340438 163.304926 
L 1222.722932 162.104112 
L 1225.105426 162.645702 
L 1227.48792 160.283685 
L 1229.870415 161.204821 
L 1232.252909 161.637182 
L 1234.635403 164.193413 
L 1237.017897 161.944947 
L 1239.400391 161.730568 
L 1241.782886 162.946506 
L 1244.16538 162.140842 
L 1246.547874 164.822628 
L 1248.930368 161.933424 
L 1251.312862 161.044457 
L 1253.695357 160.680756 
L 1256.077851 163.015885 
L 1258.460345 161.144325 
L 1260.842839 159.901259 
L 1265.607828 163.377186 
L 1267.990322 161.131841 
L 1270.372816 162.073143 
L 1272.75531 160.766459 
L 1275.137805 160.332179 
L 1277.520299 162.392432 
L 1279.902793 160.686277 
L 1282.285287 162.659386 
L 1284.667782 161.118157 
L 1287.050276 159.773063 
L 1289.43277 161.744732 
L 1291.815264 162.467093 
L 1294.197758 160.259198 
L 1296.580253 159.715447 
L 1298.962747 161.151046 
L 1301.345241 159.465297 
L 1303.727735 160.643305 
L 1306.110229 160.12284 
L 1308.492724 161.760336 
L 1310.875218 161.257876 
L 1313.257712 161.914699 
L 1315.640206 159.353186 
L 1318.022701 161.112156 
L 1320.405195 159.947352 
L 1322.787689 160.821675 
L 1325.170183 159.898138 
L 1327.552677 159.157772 
L 1329.935172 160.306972 
L 1334.70016 159.256439 
L 1337.082654 160.366268 
L 1339.465149 159.106398 
L 1341.847643 160.819994 
L 1344.230137 161.137843 
L 1346.612631 159.933908 
L 1348.995125 159.503948 
L 1351.37762 161.041096 
L 1353.760114 159.668154 
L 1356.142608 159.606457 
L 1358.525102 160.317294 
L 1360.907597 160.181417 
L 1363.290091 157.540682 
L 1365.672585 160.778223 
L 1368.055079 159.876052 
L 1370.437573 158.560726 
L 1372.820068 158.534078 
L 1375.202562 160.956112 
L 1377.585056 159.457615 
L 1379.96755 161.242512 
L 1382.350044 158.645229 
L 1384.732539 160.117799 
L 1387.115033 158.079872 
L 1389.497527 159.54716 
L 1391.880021 158.93667 
L 1394.262516 159.159452 
L 1396.64501 156.869455 
L 1399.027504 157.841966 
L 1401.409998 160.216706 
L 1403.792492 157.811237 
L 1406.174987 159.721449 
L 1408.557481 158.3245 
L 1410.939975 159.102316 
L 1413.322469 160.909539 
L 1415.704964 158.158134 
L 1418.087458 158.350667 
L 1420.469952 160.404679 
L 1422.852446 156.809438 
L 1425.23494 160.599373 
L 1427.617435 157.93079 
L 1429.999929 158.349947 
L 1432.382423 157.871254 
L 1434.764917 158.615221 
L 1437.147411 157.732735 
L 1439.529906 159.470819 
L 1441.9124 158.443333 
L 1444.294894 158.167736 
L 1446.677388 158.419566 
L 1449.059883 158.135087 
L 1451.442377 159.340943 
L 1453.824871 156.732377 
L 1456.207365 159.249717 
L 1458.589859 157.825161 
L 1460.972354 159.707765 
L 1463.354848 157.651833 
L 1468.119836 157.012775 
L 1472.884825 158.090915 
L 1475.267319 157.950236 
L 1477.649813 157.008214 
L 1480.032307 157.242759 
L 1482.414802 158.597936 
L 1484.797296 159.102556 
L 1487.17979 158.32354 
L 1489.562284 159.520513 
L 1491.944779 157.718331 
L 1494.327273 158.8997 
L 1494.327273 158.8997 
" clip-path="url(#p9f8c54e4fe)" style="fill: none; stroke: #00c9a7; stroke-width: 2.25; stroke-linecap: round"/>
   </g>
   <g id="line2d_15">
    <path d="M 276.872727 861.84 
L 279.255221 858.902783 
L 281.637716 855.721658 
L 284.02021 853.174069 
L 286.402704 857.217274 
L 288.785198 766.257646 
L 291.167693 799.889804 
L 293.550187 794.574485 
L 295.932681 786.516163 
L 298.315175 779.649772 
L 300.697669 770.972798 
L 303.080164 768.302055 
L 305.462658 762.205078 
L 307.845152 753.478891 
L 310.227646 748.794707 
L 312.610141 742.073557 
L 314.992635 730.396708 
L 317.375129 728.96447 
L 319.757623 725.005768 
L 322.140117 720.252926 
L 324.522612 708.807021 
L 326.905106 699.381759 
L 329.2876 694.406135 
L 331.670094 684.357419 
L 334.052589 665.828824 
L 336.435083 652.309222 
L 338.817577 647.171312 
L 341.200071 637.664187 
L 343.582565 621.021557 
L 345.96506 605.670966 
L 348.347554 592.087746 
L 350.730048 576.172278 
L 353.112542 565.330622 
L 355.495036 561.977369 
L 357.877531 543.862889 
L 360.260025 523.933504 
L 362.642519 498.794189 
L 365.025013 472.405327 
L 367.407508 466.238011 
L 369.790002 461.63233 
L 372.172496 461.211012 
L 376.937484 450.303818 
L 379.319979 445.024269 
L 381.702473 435.403352 
L 384.084967 429.265084 
L 386.467461 419.543339 
L 388.849956 408.868049 
L 391.23245 394.985947 
L 393.614944 383.663436 
L 395.997438 366.017327 
L 398.379932 354.179153 
L 400.762427 341.33678 
L 403.144921 330.26658 
L 405.527415 321.547114 
L 407.909909 311.742546 
L 410.292403 305.852267 
L 412.674898 299.652542 
L 417.439886 288.225122 
L 419.82238 283.518853 
L 422.204875 280.837307 
L 424.587369 273.541917 
L 426.969863 274.854122 
L 429.352357 268.240282 
L 431.734851 265.124935 
L 434.117346 263.159988 
L 436.49984 261.429587 
L 438.882334 258.288313 
L 441.264828 257.520099 
L 443.647323 253.971912 
L 446.029817 252.613854 
L 448.412311 248.82464 
L 450.794805 248.921387 
L 453.177299 246.495752 
L 455.559794 245.424574 
L 457.942288 242.333714 
L 460.324782 241.365525 
L 462.707276 240.730788 
L 465.089771 238.76296 
L 467.472265 237.632486 
L 469.854759 237.309836 
L 472.237253 235.429393 
L 474.619747 234.027643 
L 477.002242 235.282472 
L 479.384736 232.750488 
L 481.76723 229.355463 
L 484.149724 232.855397 
L 486.532218 228.756496 
L 488.914713 228.652307 
L 491.297207 227.697082 
L 493.679701 228.762498 
L 498.44469 227.0429 
L 500.827184 228.197141 
L 503.209678 226.467219 
L 505.592172 223.967164 
L 507.974666 226.666235 
L 510.357161 222.926714 
L 512.739655 224.289333 
L 515.122149 222.986971 
L 517.504643 222.342872 
L 519.887138 224.24132 
L 522.269632 222.967046 
L 524.652126 219.678611 
L 527.03462 219.881467 
L 529.417114 219.878106 
L 531.799609 217.611155 
L 534.182103 218.222125 
L 536.564597 215.648369 
L 538.947091 216.677296 
L 541.329585 216.162832 
L 543.71208 217.418862 
L 546.094574 215.391018 
L 548.477068 214.388019 
L 550.859562 213.792653 
L 553.242057 214.325361 
L 555.624551 212.360414 
L 558.007045 211.872599 
L 560.389539 211.0859 
L 562.772033 210.605766 
L 565.154528 209.93454 
L 567.537022 209.076061 
L 569.919516 210.540468 
L 572.30201 208.906093 
L 574.684505 207.679592 
L 577.066999 208.876325 
L 579.449493 206.455011 
L 581.831987 206.757736 
L 584.214481 205.388155 
L 586.596976 207.201619 
L 588.97947 205.080629 
L 591.361964 204.774304 
L 593.744458 204.138847 
L 596.126952 205.061424 
L 598.509447 204.207506 
L 600.891941 200.811761 
L 603.274435 202.573131 
L 605.656929 201.531241 
L 608.039424 201.327905 
L 610.421918 200.544807 
L 612.804412 200.26897 
L 615.186906 201.060711 
L 617.5694 200.694849 
L 619.951895 197.983534 
L 622.334389 200.794236 
L 624.716883 200.095882 
L 627.099377 198.159743 
L 629.481872 198.72318 
L 631.864366 197.112332 
L 634.24686 196.860262 
L 636.629354 198.582981 
L 639.011848 196.06444 
L 641.394343 198.288419 
L 643.776837 197.847897 
L 646.159331 197.073921 
L 650.92432 193.697382 
L 653.306814 195.694978 
L 655.689308 196.231047 
L 658.071802 194.143426 
L 660.454296 196.1331 
L 662.836791 192.746717 
L 665.219285 193.04512 
L 667.601779 194.222408 
L 669.984273 193.686099 
L 672.366767 190.476406 
L 674.749262 192.112461 
L 677.131756 190.236099 
L 679.51425 192.382776 
L 681.896744 191.381217 
L 684.279239 191.828702 
L 686.661733 191.444835 
L 689.044227 189.293356 
L 691.426721 189.604483 
L 693.809215 190.410387 
L 696.19171 188.402469 
L 698.574204 190.151595 
L 700.956698 188.029405 
L 703.339192 187.886325 
L 705.721687 189.259987 
L 708.104181 189.002636 
L 710.486675 186.725602 
L 712.869169 188.994233 
L 715.251663 189.941777 
L 717.634158 187.494056 
L 720.016652 185.475094 
L 722.399146 186.260833 
L 724.78164 188.746724 
L 727.164134 185.817909 
L 729.546629 185.78286 
L 731.929123 184.822353 
L 734.311617 187.080181 
L 736.694111 185.985476 
L 739.076606 185.976114 
L 741.4591 184.146084 
L 743.841594 186.944543 
L 746.224088 183.623219 
L 748.606582 184.13096 
L 750.989077 185.156045 
L 753.371571 183.515429 
L 755.754065 183.763178 
L 758.136559 182.714326 
L 760.519054 182.4068 
L 762.901548 182.612058 
L 765.284042 183.027853 
L 767.666536 181.095556 
L 770.04903 182.687198 
L 772.431525 182.690319 
L 774.814019 180.970481 
L 777.196513 180.416887 
L 779.579007 182.516991 
L 781.961502 183.151968 
L 784.343996 182.648548 
L 786.72649 180.867732 
L 789.108984 179.992929 
L 791.491478 180.878055 
L 798.638961 179.357712 
L 801.021455 179.430692 
L 803.403949 180.872534 
L 805.786444 180.727533 
L 808.168938 178.980807 
L 810.551432 178.664159 
L 815.316421 179.326984 
L 817.698915 177.758867 
L 820.081409 178.550127 
L 822.463903 178.896064 
L 824.846397 179.975884 
L 827.228892 177.702692 
L 829.611386 178.507876 
L 831.99388 177.370679 
L 834.376374 178.284373 
L 836.758869 178.908787 
L 839.141363 179.364194 
L 841.523857 177.675084 
L 843.906351 177.19231 
L 846.288845 177.007458 
L 848.67134 177.87602 
L 851.053834 176.711216 
L 853.436328 176.542209 
L 855.818822 177.973967 
L 858.201316 177.035546 
L 860.583811 176.506199 
L 862.966305 177.341871 
L 865.348799 175.300583 
L 867.731293 176.554932 
L 870.113788 176.776034 
L 872.496282 176.480992 
L 874.878776 173.160628 
L 877.26127 175.355318 
L 879.643764 176.51124 
L 882.026259 174.882147 
L 884.408753 174.083445 
L 886.791247 174.233966 
L 889.173741 174.624555 
L 891.556236 177.092682 
L 893.93873 173.179833 
L 896.321224 174.697776 
L 898.703718 174.990177 
L 901.086212 173.77784 
L 903.468707 172.843019 
L 905.851201 173.641002 
L 908.233695 173.968933 
L 910.616189 173.755513 
L 912.998684 174.277659 
L 915.381178 173.772558 
L 917.763672 175.624433 
L 920.146166 172.426264 
L 922.52866 173.49336 
L 924.911155 174.264215 
L 927.293649 171.473438 
L 929.676143 174.477874 
L 932.058637 170.787328 
L 934.441131 172.390013 
L 936.823626 173.414378 
L 939.20612 172.712183 
L 941.588614 172.996422 
L 943.971108 171.939648 
L 946.353603 171.630922 
L 951.118591 172.392654 
L 953.501085 171.380533 
L 955.883579 171.075168 
L 958.266074 170.883114 
L 960.648568 172.181635 
L 963.031062 171.919963 
L 965.413556 169.364692 
L 967.796051 171.98166 
L 970.178545 169.949975 
L 974.943533 171.419904 
L 977.326027 169.914925 
L 979.708522 169.488086 
L 982.091016 170.809174 
L 984.47351 169.289551 
L 986.856004 171.423745 
L 989.238498 169.982864 
L 991.620993 170.259901 
L 994.003487 169.557945 
L 996.385981 171.710864 
L 998.768475 169.21513 
L 1001.15097 170.230132 
L 1003.533464 168.683142 
L 1005.915958 170.43683 
L 1008.298452 169.21345 
L 1010.680946 170.516532 
L 1013.063441 168.871354 
L 1015.445935 168.233017 
L 1017.828429 169.327001 
L 1020.210923 169.270586 
L 1022.593418 169.507291 
L 1024.975912 168.296635 
L 1027.358406 169.455437 
L 1029.7409 168.294474 
L 1032.123394 168.447156 
L 1034.505889 167.436235 
L 1036.888383 167.34501 
L 1039.270877 168.843507 
L 1041.653371 167.042045 
L 1044.035866 167.972064 
L 1046.41836 169.686621 
L 1048.800854 168.108902 
L 1051.183348 167.069653 
L 1053.565842 167.367096 
L 1055.948337 169.345966 
L 1058.330831 165.546429 
L 1060.713325 167.426632 
L 1063.095819 167.020439 
L 1065.478313 168.022238 
L 1067.860808 166.183807 
L 1070.243302 167.599 
L 1072.625796 167.343809 
L 1077.390785 166.545587 
L 1079.773279 168.051046 
L 1082.155773 167.972784 
L 1084.538267 166.706432 
L 1086.920761 167.605962 
L 1089.303256 166.047929 
L 1091.68575 166.508137 
L 1094.068244 164.102188 
L 1096.450738 167.8866 
L 1098.833233 166.438518 
L 1101.215727 165.480411 
L 1103.598221 166.91505 
L 1105.980715 164.810144 
L 1108.363209 167.146715 
L 1110.745704 164.149481 
L 1113.128198 168.895841 
L 1115.510692 164.241186 
L 1117.893186 166.602003 
L 1120.27568 165.255949 
L 1122.658175 166.533104 
L 1125.040669 165.934137 
L 1127.423163 165.855875 
L 1129.805657 164.108189 
L 1132.188152 165.316205 
L 1134.570646 165.527464 
L 1136.95314 165.281396 
L 1139.335634 163.785539 
L 1141.718128 164.337693 
L 1144.100623 164.324729 
L 1146.483117 165.756488 
L 1148.865611 164.155722 
L 1151.248105 163.889248 
L 1153.6306 165.048051 
L 1156.013094 163.977593 
L 1158.395588 165.787937 
L 1160.778082 163.10351 
L 1163.160576 164.941461 
L 1165.543071 162.543674 
L 1167.925565 164.941941 
L 1170.308059 164.64906 
L 1172.690553 162.839676 
L 1175.073048 164.191492 
L 1177.455542 163.945424 
L 1179.838036 164.350177 
L 1182.22053 163.3563 
L 1184.603024 162.670669 
L 1186.985519 162.614013 
L 1189.368013 163.781698 
L 1191.750507 163.39231 
L 1194.133001 162.778459 
L 1196.515495 163.671268 
L 1198.89799 163.367343 
L 1201.280484 162.880728 
L 1203.662978 164.571998 
L 1206.045472 162.748451 
L 1208.427967 162.622176 
L 1210.810461 163.145761 
L 1213.192955 162.24143 
L 1215.575449 162.797184 
L 1217.957943 162.919138 
L 1220.340438 162.683633 
L 1222.722932 162.808948 
L 1225.105426 162.358102 
L 1229.870415 163.280919 
L 1232.252909 161.265078 
L 1234.635403 164.371062 
L 1237.017897 161.296287 
L 1239.400391 161.279482 
L 1241.782886 162.106032 
L 1244.16538 164.476452 
L 1246.547874 163.074221 
L 1248.930368 163.183212 
L 1251.312862 162.788302 
L 1253.695357 161.23699 
L 1256.077851 162.623136 
L 1258.460345 162.199898 
L 1260.842839 159.963676 
L 1263.225334 161.583647 
L 1265.607828 162.273119 
L 1267.990322 161.370227 
L 1270.372816 162.35162 
L 1272.75531 161.514508 
L 1275.137805 162.750131 
L 1277.520299 162.304567 
L 1279.902793 161.424242 
L 1282.285287 163.100869 
L 1284.667782 160.73213 
L 1287.050276 160.668992 
L 1289.43277 161.653746 
L 1291.815264 159.086232 
L 1294.197758 160.688438 
L 1296.580253 161.175533 
L 1298.962747 160.333139 
L 1301.345241 163.28404 
L 1303.727735 161.118877 
L 1306.110229 161.802348 
L 1308.492724 159.160413 
L 1310.875218 161.425203 
L 1313.257712 161.412719 
L 1315.640206 159.362069 
L 1318.022701 161.23723 
L 1320.405195 158.75758 
L 1322.787689 161.982158 
L 1327.552677 159.957194 
L 1329.935172 161.095351 
L 1332.317666 161.074225 
L 1334.70016 160.165572 
L 1337.082654 160.639944 
L 1339.465149 159.750017 
L 1341.847643 160.675954 
L 1344.230137 157.791552 
L 1346.612631 161.347421 
L 1348.995125 158.829601 
L 1351.37762 160.286566 
L 1353.760114 159.591573 
L 1356.142608 161.16233 
L 1358.525102 159.853005 
L 1360.907597 159.462417 
L 1363.290091 160.226309 
L 1365.672585 159.024775 
L 1368.055079 160.570805 
L 1370.437573 159.15153 
L 1375.202562 158.265684 
L 1377.585056 160.1226 
L 1379.96755 159.777384 
L 1382.350044 160.442609 
L 1384.732539 160.956352 
L 1387.115033 157.579333 
L 1389.497527 160.155489 
L 1391.880021 159.468418 
L 1394.262516 161.262437 
L 1396.64501 159.442011 
L 1399.027504 158.307695 
L 1401.409998 160.434687 
L 1403.792492 159.090793 
L 1406.174987 156.88794 
L 1408.557481 159.590372 
L 1410.939975 159.052142 
L 1413.322469 159.285487 
L 1415.704964 159.29533 
L 1418.087458 158.643309 
L 1420.469952 157.240358 
L 1422.852446 157.311178 
L 1425.23494 158.380676 
L 1427.617435 160.401078 
L 1429.999929 158.890577 
L 1432.382423 158.508631 
L 1434.764917 157.339266 
L 1437.147411 159.997045 
L 1441.9124 158.956116 
L 1444.294894 158.410444 
L 1446.677388 159.278765 
L 1451.442377 157.600218 
L 1453.824871 158.185981 
L 1456.207365 159.29485 
L 1458.589859 158.814476 
L 1460.972354 159.579569 
L 1463.354848 157.505632 
L 1465.737342 158.529517 
L 1468.119836 158.508631 
L 1470.502331 156.415249 
L 1472.884825 158.485585 
L 1475.267319 157.310458 
L 1477.649813 157.068711 
L 1480.032307 157.942554 
L 1482.414802 156.24 
L 1484.797296 157.916146 
L 1489.562284 158.046983 
L 1491.944779 156.287533 
L 1494.327273 157.744499 
L 1494.327273 157.744499 
" clip-path="url(#p9f8c54e4fe)" style="fill: none; stroke: #ffc75f; stroke-width: 2.25; stroke-linecap: round"/>
   </g>
   <g id="patch_3">
    <path d="M 216 897.12 
L 216 120.96 
" style="fill: none; stroke: #262626; stroke-width: 1.875; stroke-linejoin: miter; stroke-linecap: square"/>
   </g>
   <g id="patch_4">
    <path d="M 1555.2 897.12 
L 1555.2 120.96 
" style="fill: none; stroke: #262626; stroke-width: 1.875; stroke-linejoin: miter; stroke-linecap: square"/>
   </g>
   <g id="patch_5">
    <path d="M 216 897.12 
L 1555.2 897.12 
" style="fill: none; stroke: #262626; stroke-width: 1.875; stroke-linejoin: miter; stroke-linecap: square"/>
   </g>
   <g id="patch_6">
    <path d="M 216 120.96 
L 1555.2 120.96 
" style="fill: none; stroke: #262626; stroke-width: 1.875; stroke-linejoin: miter; stroke-linecap: square"/>
   </g>
   <g id="text_16">
    <!-- Df(Z) -->
    <g style="fill: #262626" transform="translate(820.916406 110.561563)scale(0.5 -0.5)">
     <use xlink:href="#DejaVuSans-44"/>
     <use xlink:href="#DejaVuSans-66" x="77.001953"/>
     <use xlink:href="#DejaVuSans-28" x="112.207031"/>
     <use xlink:href="#DejaVuSans-5a" x="151.220703"/>
     <use xlink:href="#DejaVuSans-29" x="219.726562"/>
    </g>
   </g>
   <g id="legend_1">
    <g id="patch_7">
     <path d="M 227.55 182.597813 
L 361.029844 182.597813 
Q 364.329844 182.597813 364.329844 179.297813 
L 364.329844 132.51 
Q 364.329844 129.21 361.029844 129.21 
L 227.55 129.21 
Q 224.25 129.21 224.25 132.51 
L 224.25 179.297813 
Q 224.25 182.597813 227.55 182.597813 
z
" style="fill: #ffffff; opacity: 0.8; stroke: #cccccc; stroke-width: 1.5; stroke-linejoin: miter"/>
    </g>
    <g id="line2d_16">
     <path d="M 230.85 142.572422 
L 247.35 142.572422 
L 263.85 142.572422 
" style="fill: none; stroke: #00c9a7; stroke-width: 2.25; stroke-linecap: round"/>
    </g>
    <g id="text_17">
     <!-- df trace -->
     <g style="fill: #262626" transform="translate(277.05 148.347422)scale(0.165 -0.165)">
      <defs>
       <path id="DejaVuSans-64" d="M 2906 2969 
L 2906 4863 
L 3481 4863 
L 3481 0 
L 2906 0 
L 2906 525 
Q 2725 213 2448 61 
Q 2172 -91 1784 -91 
Q 1150 -91 751 415 
Q 353 922 353 1747 
Q 353 2572 751 3078 
Q 1150 3584 1784 3584 
Q 2172 3584 2448 3432 
Q 2725 3281 2906 2969 
z
M 947 1747 
Q 947 1113 1208 752 
Q 1469 391 1925 391 
Q 2381 391 2643 752 
Q 2906 1113 2906 1747 
Q 2906 2381 2643 2742 
Q 2381 3103 1925 3103 
Q 1469 3103 1208 2742 
Q 947 2381 947 1747 
z
" transform="scale(0.015625)"/>
       <path id="DejaVuSans-74" d="M 1172 4494 
L 1172 3500 
L 2356 3500 
L 2356 3053 
L 1172 3053 
L 1172 1153 
Q 1172 725 1289 603 
Q 1406 481 1766 481 
L 2356 481 
L 2356 0 
L 1766 0 
Q 1100 0 847 248 
Q 594 497 594 1153 
L 594 3053 
L 172 3053 
L 172 3500 
L 594 3500 
L 594 4494 
L 1172 4494 
z
" transform="scale(0.015625)"/>
       <path id="DejaVuSans-72" d="M 2631 2963 
Q 2534 3019 2420 3045 
Q 2306 3072 2169 3072 
Q 1681 3072 1420 2755 
Q 1159 2438 1159 1844 
L 1159 0 
L 581 0 
L 581 3500 
L 1159 3500 
L 1159 2956 
Q 1341 3275 1631 3429 
Q 1922 3584 2338 3584 
Q 2397 3584 2469 3576 
Q 2541 3569 2628 3553 
L 2631 2963 
z
" transform="scale(0.015625)"/>
       <path id="DejaVuSans-61" d="M 2194 1759 
Q 1497 1759 1228 1600 
Q 959 1441 959 1056 
Q 959 750 1161 570 
Q 1363 391 1709 391 
Q 2188 391 2477 730 
Q 2766 1069 2766 1631 
L 2766 1759 
L 2194 1759 
z
M 3341 1997 
L 3341 0 
L 2766 0 
L 2766 531 
Q 2569 213 2275 61 
Q 1981 -91 1556 -91 
Q 1019 -91 701 211 
Q 384 513 384 1019 
Q 384 1609 779 1909 
Q 1175 2209 1959 2209 
L 2766 2209 
L 2766 2266 
Q 2766 2663 2505 2880 
Q 2244 3097 1772 3097 
Q 1472 3097 1187 3025 
Q 903 2953 641 2809 
L 641 3341 
Q 956 3463 1253 3523 
Q 1550 3584 1831 3584 
Q 2591 3584 2966 3190 
Q 3341 2797 3341 1997 
z
" transform="scale(0.015625)"/>
       <path id="DejaVuSans-63" d="M 3122 3366 
L 3122 2828 
Q 2878 2963 2633 3030 
Q 2388 3097 2138 3097 
Q 1578 3097 1268 2742 
Q 959 2388 959 1747 
Q 959 1106 1268 751 
Q 1578 397 2138 397 
Q 2388 397 2633 464 
Q 2878 531 3122 666 
L 3122 134 
Q 2881 22 2623 -34 
Q 2366 -91 2075 -91 
Q 1284 -91 818 406 
Q 353 903 353 1747 
Q 353 2603 823 3093 
Q 1294 3584 2113 3584 
Q 2378 3584 2631 3529 
Q 2884 3475 3122 3366 
z
" transform="scale(0.015625)"/>
       <path id="DejaVuSans-65" d="M 3597 1894 
L 3597 1613 
L 953 1613 
Q 991 1019 1311 708 
Q 1631 397 2203 397 
Q 2534 397 2845 478 
Q 3156 559 3463 722 
L 3463 178 
Q 3153 47 2828 -22 
Q 2503 -91 2169 -91 
Q 1331 -91 842 396 
Q 353 884 353 1716 
Q 353 2575 817 3079 
Q 1281 3584 2069 3584 
Q 2775 3584 3186 3129 
Q 3597 2675 3597 1894 
z
M 3022 2063 
Q 3016 2534 2758 2815 
Q 2500 3097 2075 3097 
Q 1594 3097 1305 2825 
Q 1016 2553 972 2059 
L 3022 2063 
z
" transform="scale(0.015625)"/>
      </defs>
      <use xlink:href="#DejaVuSans-64"/>
      <use xlink:href="#DejaVuSans-66" x="63.476562"/>
      <use xlink:href="#DejaVuSans-20" x="98.681641"/>
      <use xlink:href="#DejaVuSans-74" x="130.46875"/>
      <use xlink:href="#DejaVuSans-72" x="169.677734"/>
      <use xlink:href="#DejaVuSans-61" x="210.791016"/>
      <use xlink:href="#DejaVuSans-63" x="272.070312"/>
      <use xlink:href="#DejaVuSans-65" x="327.050781"/>
     </g>
    </g>
    <g id="line2d_17">
     <path d="M 230.85 166.791328 
L 247.35 166.791328 
L 263.85 166.791328 
" style="fill: none; stroke: #ffc75f; stroke-width: 2.25; stroke-linecap: round"/>
    </g>
    <g id="text_18">
     <!-- df retrace -->
     <g style="fill: #262626" transform="translate(277.05 172.566328)scale(0.165 -0.165)">
      <use xlink:href="#DejaVuSans-64"/>
      <use xlink:href="#DejaVuSans-66" x="63.476562"/>
      <use xlink:href="#DejaVuSans-20" x="98.681641"/>
      <use xlink:href="#DejaVuSans-72" x="130.46875"/>
      <use xlink:href="#DejaVuSans-65" x="169.332031"/>
      <use xlink:href="#DejaVuSans-74" x="230.855469"/>
      <use xlink:href="#DejaVuSans-72" x="270.064453"/>
      <use xlink:href="#DejaVuSans-61" x="311.177734"/>
      <use xlink:href="#DejaVuSans-63" x="372.457031"/>
      <use xlink:href="#DejaVuSans-65" x="427.4375"/>
     </g>
    </g>
   </g>
  </g>
 </g>
 <defs>
  <clipPath id="p9f8c54e4fe">
   <rect x="216" y="120.96" width="1339.2" height="776.16"/>
  </clipPath>
 </defs>
</svg>
