<?xml version="1.0" encoding="utf-8" standalone="no"?>
<!DOCTYPE svg PUBLIC "-//W3C//DTD SVG 1.1//EN"
  "http://www.w3.org/Graphics/SVG/1.1/DTD/svg11.dtd">
<svg xmlns:xlink="http://www.w3.org/1999/xlink" width="1728pt" height="1008pt" viewBox="0 0 1728 1008" xmlns="http://www.w3.org/2000/svg" version="1.1">
 <metadata>
  <rdf:RDF xmlns:dc="http://purl.org/dc/elements/1.1/" xmlns:cc="http://creativecommons.org/ns#" xmlns:rdf="http://www.w3.org/1999/02/22-rdf-syntax-ns#">
   <cc:Work>
    <dc:type rdf:resource="http://purl.org/dc/dcmitype/StillImage"/>
    <dc:date>2022-10-30T23:55:43.484409</dc:date>
    <dc:format>image/svg+xml</dc:format>
    <dc:creator>
     <cc:Agent>
      <dc:title>Matplotlib v3.5.2, https://matplotlib.org/</dc:title>
     </cc:Agent>
    </dc:creator>
   </cc:Work>
  </rdf:RDF>
 </metadata>
 <defs>
  <style type="text/css">*{stroke-linejoin: round; stroke-linecap: butt}</style>
 </defs>
 <g id="figure_1">
  <g id="patch_1">
   <path d="M 0 1008 
L 1728 1008 
L 1728 0 
L 0 0 
z
" style="fill: #ffffff"/>
  </g>
  <g id="axes_1">
   <g id="patch_2">
    <path d="M 216 897.12 
L 1555.2 897.12 
L 1555.2 120.96 
L 216 120.96 
L 216 897.12 
z
" style="fill: none"/>
   </g>
   <g id="matplotlib.axis_1">
    <g id="xtick_1">
     <g id="line2d_1">
      <defs>
       <path id="m517ccf545c" d="M 0 0 
L 0 9 
" style="stroke: #262626; stroke-width: 1.875"/>
      </defs>
      <g>
       <use xlink:href="#m517ccf545c" x="453.961805" y="897.12" style="fill: #262626; stroke: #262626; stroke-width: 1.875"/>
      </g>
     </g>
     <g id="text_1">
      <!-- 0.0 -->
      <g style="fill: #262626" transform="translate(415.794305 946.0925)scale(0.48 -0.48)">
       <defs>
        <path id="DejaVuSans-30" d="M 2034 4250 
Q 1547 4250 1301 3770 
Q 1056 3291 1056 2328 
Q 1056 1369 1301 889 
Q 1547 409 2034 409 
Q 2525 409 2770 889 
Q 3016 1369 3016 2328 
Q 3016 3291 2770 3770 
Q 2525 4250 2034 4250 
z
M 2034 4750 
Q 2819 4750 3233 4129 
Q 3647 3509 3647 2328 
Q 3647 1150 3233 529 
Q 2819 -91 2034 -91 
Q 1250 -91 836 529 
Q 422 1150 422 2328 
Q 422 3509 836 4129 
Q 1250 4750 2034 4750 
z
" transform="scale(0.015625)"/>
        <path id="DejaVuSans-2e" d="M 684 794 
L 1344 794 
L 1344 0 
L 684 0 
L 684 794 
z
" transform="scale(0.015625)"/>
       </defs>
       <use xlink:href="#DejaVuSans-30"/>
       <use xlink:href="#DejaVuSans-2e" x="63.623047"/>
       <use xlink:href="#DejaVuSans-30" x="95.410156"/>
      </g>
     </g>
    </g>
    <g id="xtick_2">
     <g id="line2d_2">
      <g>
       <use xlink:href="#m517ccf545c" x="714.38692" y="897.12" style="fill: #262626; stroke: #262626; stroke-width: 1.875"/>
      </g>
     </g>
     <g id="text_2">
      <!-- 0.5 -->
      <g style="fill: #262626" transform="translate(676.21942 946.0925)scale(0.48 -0.48)">
       <defs>
        <path id="DejaVuSans-35" d="M 691 4666 
L 3169 4666 
L 3169 4134 
L 1269 4134 
L 1269 2991 
Q 1406 3038 1543 3061 
Q 1681 3084 1819 3084 
Q 2600 3084 3056 2656 
Q 3513 2228 3513 1497 
Q 3513 744 3044 326 
Q 2575 -91 1722 -91 
Q 1428 -91 1123 -41 
Q 819 9 494 109 
L 494 744 
Q 775 591 1075 516 
Q 1375 441 1709 441 
Q 2250 441 2565 725 
Q 2881 1009 2881 1497 
Q 2881 1984 2565 2268 
Q 2250 2553 1709 2553 
Q 1456 2553 1204 2497 
Q 953 2441 691 2322 
L 691 4666 
z
" transform="scale(0.015625)"/>
       </defs>
       <use xlink:href="#DejaVuSans-30"/>
       <use xlink:href="#DejaVuSans-2e" x="63.623047"/>
       <use xlink:href="#DejaVuSans-35" x="95.410156"/>
      </g>
     </g>
    </g>
    <g id="xtick_3">
     <g id="line2d_3">
      <g>
       <use xlink:href="#m517ccf545c" x="974.812035" y="897.12" style="fill: #262626; stroke: #262626; stroke-width: 1.875"/>
      </g>
     </g>
     <g id="text_3">
      <!-- 1.0 -->
      <g style="fill: #262626" transform="translate(936.644535 946.0925)scale(0.48 -0.48)">
       <defs>
        <path id="DejaVuSans-31" d="M 794 531 
L 1825 531 
L 1825 4091 
L 703 3866 
L 703 4441 
L 1819 4666 
L 2450 4666 
L 2450 531 
L 3481 531 
L 3481 0 
L 794 0 
L 794 531 
z
" transform="scale(0.015625)"/>
       </defs>
       <use xlink:href="#DejaVuSans-31"/>
       <use xlink:href="#DejaVuSans-2e" x="63.623047"/>
       <use xlink:href="#DejaVuSans-30" x="95.410156"/>
      </g>
     </g>
    </g>
    <g id="xtick_4">
     <g id="line2d_4">
      <g>
       <use xlink:href="#m517ccf545c" x="1235.23715" y="897.12" style="fill: #262626; stroke: #262626; stroke-width: 1.875"/>
      </g>
     </g>
     <g id="text_4">
      <!-- 1.5 -->
      <g style="fill: #262626" transform="translate(1197.06965 946.0925)scale(0.48 -0.48)">
       <use xlink:href="#DejaVuSans-31"/>
       <use xlink:href="#DejaVuSans-2e" x="63.623047"/>
       <use xlink:href="#DejaVuSans-35" x="95.410156"/>
      </g>
     </g>
    </g>
    <g id="xtick_5">
     <g id="line2d_5">
      <g>
       <use xlink:href="#m517ccf545c" x="1495.662265" y="897.12" style="fill: #262626; stroke: #262626; stroke-width: 1.875"/>
      </g>
     </g>
     <g id="text_5">
      <!-- 2.0 -->
      <g style="fill: #262626" transform="translate(1457.494765 946.0925)scale(0.48 -0.48)">
       <defs>
        <path id="DejaVuSans-32" d="M 1228 531 
L 3431 531 
L 3431 0 
L 469 0 
L 469 531 
Q 828 903 1448 1529 
Q 2069 2156 2228 2338 
Q 2531 2678 2651 2914 
Q 2772 3150 2772 3378 
Q 2772 3750 2511 3984 
Q 2250 4219 1831 4219 
Q 1534 4219 1204 4116 
Q 875 4013 500 3803 
L 500 4441 
Q 881 4594 1212 4672 
Q 1544 4750 1819 4750 
Q 2544 4750 2975 4387 
Q 3406 4025 3406 3419 
Q 3406 3131 3298 2873 
Q 3191 2616 2906 2266 
Q 2828 2175 2409 1742 
Q 1991 1309 1228 531 
z
" transform="scale(0.015625)"/>
       </defs>
       <use xlink:href="#DejaVuSans-32"/>
       <use xlink:href="#DejaVuSans-2e" x="63.623047"/>
       <use xlink:href="#DejaVuSans-30" x="95.410156"/>
      </g>
     </g>
    </g>
    <g id="text_6">
     <!-- Z [nm] -->
     <g style="fill: #262626" transform="translate(804.2175 996.5475)scale(0.48 -0.48)">
      <defs>
       <path id="DejaVuSans-5a" d="M 359 4666 
L 4025 4666 
L 4025 4184 
L 1075 531 
L 4097 531 
L 4097 0 
L 288 0 
L 288 481 
L 3238 4134 
L 359 4134 
L 359 4666 
z
" transform="scale(0.015625)"/>
       <path id="DejaVuSans-20" transform="scale(0.015625)"/>
       <path id="DejaVuSans-5b" d="M 550 4863 
L 1875 4863 
L 1875 4416 
L 1125 4416 
L 1125 -397 
L 1875 -397 
L 1875 -844 
L 550 -844 
L 550 4863 
z
" transform="scale(0.015625)"/>
       <path id="DejaVuSans-6e" d="M 3513 2113 
L 3513 0 
L 2938 0 
L 2938 2094 
Q 2938 2591 2744 2837 
Q 2550 3084 2163 3084 
Q 1697 3084 1428 2787 
Q 1159 2491 1159 1978 
L 1159 0 
L 581 0 
L 581 3500 
L 1159 3500 
L 1159 2956 
Q 1366 3272 1645 3428 
Q 1925 3584 2291 3584 
Q 2894 3584 3203 3211 
Q 3513 2838 3513 2113 
z
" transform="scale(0.015625)"/>
       <path id="DejaVuSans-6d" d="M 3328 2828 
Q 3544 3216 3844 3400 
Q 4144 3584 4550 3584 
Q 5097 3584 5394 3201 
Q 5691 2819 5691 2113 
L 5691 0 
L 5113 0 
L 5113 2094 
Q 5113 2597 4934 2840 
Q 4756 3084 4391 3084 
Q 3944 3084 3684 2787 
Q 3425 2491 3425 1978 
L 3425 0 
L 2847 0 
L 2847 2094 
Q 2847 2600 2669 2842 
Q 2491 3084 2119 3084 
Q 1678 3084 1418 2786 
Q 1159 2488 1159 1978 
L 1159 0 
L 581 0 
L 581 3500 
L 1159 3500 
L 1159 2956 
Q 1356 3278 1631 3431 
Q 1906 3584 2284 3584 
Q 2666 3584 2933 3390 
Q 3200 3197 3328 2828 
z
" transform="scale(0.015625)"/>
       <path id="DejaVuSans-5d" d="M 1947 4863 
L 1947 -844 
L 622 -844 
L 622 -397 
L 1369 -397 
L 1369 4416 
L 622 4416 
L 622 4863 
L 1947 4863 
z
" transform="scale(0.015625)"/>
      </defs>
      <use xlink:href="#DejaVuSans-5a"/>
      <use xlink:href="#DejaVuSans-20" x="68.505859"/>
      <use xlink:href="#DejaVuSans-5b" x="100.292969"/>
      <use xlink:href="#DejaVuSans-6e" x="139.306641"/>
      <use xlink:href="#DejaVuSans-6d" x="202.685547"/>
      <use xlink:href="#DejaVuSans-5d" x="300.097656"/>
     </g>
    </g>
   </g>
   <g id="matplotlib.axis_2">
    <g id="ytick_1">
     <g id="line2d_6">
      <defs>
       <path id="mb7183b865a" d="M 0 0 
L -9 0 
" style="stroke: #262626; stroke-width: 1.875"/>
      </defs>
      <g>
       <use xlink:href="#mb7183b865a" x="216" y="807.104586" style="fill: #262626; stroke: #262626; stroke-width: 1.875"/>
      </g>
     </g>
     <g id="text_7">
      <!-- −8 -->
      <g style="fill: #262626" transform="translate(132.7375 825.340836)scale(0.48 -0.48)">
       <defs>
        <path id="DejaVuSans-2212" d="M 678 2272 
L 4684 2272 
L 4684 1741 
L 678 1741 
L 678 2272 
z
" transform="scale(0.015625)"/>
        <path id="DejaVuSans-38" d="M 2034 2216 
Q 1584 2216 1326 1975 
Q 1069 1734 1069 1313 
Q 1069 891 1326 650 
Q 1584 409 2034 409 
Q 2484 409 2743 651 
Q 3003 894 3003 1313 
Q 3003 1734 2745 1975 
Q 2488 2216 2034 2216 
z
M 1403 2484 
Q 997 2584 770 2862 
Q 544 3141 544 3541 
Q 544 4100 942 4425 
Q 1341 4750 2034 4750 
Q 2731 4750 3128 4425 
Q 3525 4100 3525 3541 
Q 3525 3141 3298 2862 
Q 3072 2584 2669 2484 
Q 3125 2378 3379 2068 
Q 3634 1759 3634 1313 
Q 3634 634 3220 271 
Q 2806 -91 2034 -91 
Q 1263 -91 848 271 
Q 434 634 434 1313 
Q 434 1759 690 2068 
Q 947 2378 1403 2484 
z
M 1172 3481 
Q 1172 3119 1398 2916 
Q 1625 2713 2034 2713 
Q 2441 2713 2670 2916 
Q 2900 3119 2900 3481 
Q 2900 3844 2670 4047 
Q 2441 4250 2034 4250 
Q 1625 4250 1398 4047 
Q 1172 3844 1172 3481 
z
" transform="scale(0.015625)"/>
       </defs>
       <use xlink:href="#DejaVuSans-2212"/>
       <use xlink:href="#DejaVuSans-38" x="83.789062"/>
      </g>
     </g>
    </g>
    <g id="ytick_2">
     <g id="line2d_7">
      <g>
       <use xlink:href="#mb7183b865a" x="216" y="644.650121" style="fill: #262626; stroke: #262626; stroke-width: 1.875"/>
      </g>
     </g>
     <g id="text_8">
      <!-- −6 -->
      <g style="fill: #262626" transform="translate(132.7375 662.886371)scale(0.48 -0.48)">
       <defs>
        <path id="DejaVuSans-36" d="M 2113 2584 
Q 1688 2584 1439 2293 
Q 1191 2003 1191 1497 
Q 1191 994 1439 701 
Q 1688 409 2113 409 
Q 2538 409 2786 701 
Q 3034 994 3034 1497 
Q 3034 2003 2786 2293 
Q 2538 2584 2113 2584 
z
M 3366 4563 
L 3366 3988 
Q 3128 4100 2886 4159 
Q 2644 4219 2406 4219 
Q 1781 4219 1451 3797 
Q 1122 3375 1075 2522 
Q 1259 2794 1537 2939 
Q 1816 3084 2150 3084 
Q 2853 3084 3261 2657 
Q 3669 2231 3669 1497 
Q 3669 778 3244 343 
Q 2819 -91 2113 -91 
Q 1303 -91 875 529 
Q 447 1150 447 2328 
Q 447 3434 972 4092 
Q 1497 4750 2381 4750 
Q 2619 4750 2861 4703 
Q 3103 4656 3366 4563 
z
" transform="scale(0.015625)"/>
       </defs>
       <use xlink:href="#DejaVuSans-2212"/>
       <use xlink:href="#DejaVuSans-36" x="83.789062"/>
      </g>
     </g>
    </g>
    <g id="ytick_3">
     <g id="line2d_8">
      <g>
       <use xlink:href="#mb7183b865a" x="216" y="482.195656" style="fill: #262626; stroke: #262626; stroke-width: 1.875"/>
      </g>
     </g>
     <g id="text_9">
      <!-- −4 -->
      <g style="fill: #262626" transform="translate(132.7375 500.431906)scale(0.48 -0.48)">
       <defs>
        <path id="DejaVuSans-34" d="M 2419 4116 
L 825 1625 
L 2419 1625 
L 2419 4116 
z
M 2253 4666 
L 3047 4666 
L 3047 1625 
L 3713 1625 
L 3713 1100 
L 3047 1100 
L 3047 0 
L 2419 0 
L 2419 1100 
L 313 1100 
L 313 1709 
L 2253 4666 
z
" transform="scale(0.015625)"/>
       </defs>
       <use xlink:href="#DejaVuSans-2212"/>
       <use xlink:href="#DejaVuSans-34" x="83.789062"/>
      </g>
     </g>
    </g>
    <g id="ytick_4">
     <g id="line2d_9">
      <g>
       <use xlink:href="#mb7183b865a" x="216" y="319.741191" style="fill: #262626; stroke: #262626; stroke-width: 1.875"/>
      </g>
     </g>
     <g id="text_10">
      <!-- −2 -->
      <g style="fill: #262626" transform="translate(132.7375 337.977441)scale(0.48 -0.48)">
       <use xlink:href="#DejaVuSans-2212"/>
       <use xlink:href="#DejaVuSans-32" x="83.789062"/>
      </g>
     </g>
    </g>
    <g id="ytick_5">
     <g id="line2d_10">
      <g>
       <use xlink:href="#mb7183b865a" x="216" y="157.286726" style="fill: #262626; stroke: #262626; stroke-width: 1.875"/>
      </g>
     </g>
     <g id="text_11">
      <!-- 0 -->
      <g style="fill: #262626" transform="translate(172.96 175.522976)scale(0.48 -0.48)">
       <use xlink:href="#DejaVuSans-30"/>
      </g>
     </g>
    </g>
    <g id="text_12">
     <!-- Df(Z) [Hz] -->
     <g style="fill: #262626" transform="translate(118.755 628.13625)rotate(-90)scale(0.48 -0.48)">
      <defs>
       <path id="DejaVuSans-44" d="M 1259 4147 
L 1259 519 
L 2022 519 
Q 2988 519 3436 956 
Q 3884 1394 3884 2338 
Q 3884 3275 3436 3711 
Q 2988 4147 2022 4147 
L 1259 4147 
z
M 628 4666 
L 1925 4666 
Q 3281 4666 3915 4102 
Q 4550 3538 4550 2338 
Q 4550 1131 3912 565 
Q 3275 0 1925 0 
L 628 0 
L 628 4666 
z
" transform="scale(0.015625)"/>
       <path id="DejaVuSans-66" d="M 2375 4863 
L 2375 4384 
L 1825 4384 
Q 1516 4384 1395 4259 
Q 1275 4134 1275 3809 
L 1275 3500 
L 2222 3500 
L 2222 3053 
L 1275 3053 
L 1275 0 
L 697 0 
L 697 3053 
L 147 3053 
L 147 3500 
L 697 3500 
L 697 3744 
Q 697 4328 969 4595 
Q 1241 4863 1831 4863 
L 2375 4863 
z
" transform="scale(0.015625)"/>
       <path id="DejaVuSans-28" d="M 1984 4856 
Q 1566 4138 1362 3434 
Q 1159 2731 1159 2009 
Q 1159 1288 1364 580 
Q 1569 -128 1984 -844 
L 1484 -844 
Q 1016 -109 783 600 
Q 550 1309 550 2009 
Q 550 2706 781 3412 
Q 1013 4119 1484 4856 
L 1984 4856 
z
" transform="scale(0.015625)"/>
       <path id="DejaVuSans-29" d="M 513 4856 
L 1013 4856 
Q 1481 4119 1714 3412 
Q 1947 2706 1947 2009 
Q 1947 1309 1714 600 
Q 1481 -109 1013 -844 
L 513 -844 
Q 928 -128 1133 580 
Q 1338 1288 1338 2009 
Q 1338 2731 1133 3434 
Q 928 4138 513 4856 
z
" transform="scale(0.015625)"/>
       <path id="DejaVuSans-48" d="M 628 4666 
L 1259 4666 
L 1259 2753 
L 3553 2753 
L 3553 4666 
L 4184 4666 
L 4184 0 
L 3553 0 
L 3553 2222 
L 1259 2222 
L 1259 0 
L 628 0 
L 628 4666 
z
" transform="scale(0.015625)"/>
       <path id="DejaVuSans-7a" d="M 353 3500 
L 3084 3500 
L 3084 2975 
L 922 459 
L 3084 459 
L 3084 0 
L 275 0 
L 275 525 
L 2438 3041 
L 353 3041 
L 353 3500 
z
" transform="scale(0.015625)"/>
      </defs>
      <use xlink:href="#DejaVuSans-44"/>
      <use xlink:href="#DejaVuSans-66" x="77.001953"/>
      <use xlink:href="#DejaVuSans-28" x="112.207031"/>
      <use xlink:href="#DejaVuSans-5a" x="151.220703"/>
      <use xlink:href="#DejaVuSans-29" x="219.726562"/>
      <use xlink:href="#DejaVuSans-20" x="258.740234"/>
      <use xlink:href="#DejaVuSans-5b" x="290.527344"/>
      <use xlink:href="#DejaVuSans-48" x="329.541016"/>
      <use xlink:href="#DejaVuSans-7a" x="404.736328"/>
      <use xlink:href="#DejaVuSans-5d" x="457.226562"/>
     </g>
    </g>
   </g>
   <g id="line2d_11">
    <path d="M 276.872727 852.58938 
L 279.255221 803.698455 
L 281.637716 776.514514 
L 284.02021 743.765887 
L 286.402704 717.215892 
L 291.167693 671.267066 
L 293.550187 650.306689 
L 295.932681 637.254242 
L 298.315175 620.993743 
L 300.697669 599.234124 
L 303.080164 592.832796 
L 305.462658 575.965594 
L 307.845152 567.218713 
L 310.227646 553.673607 
L 312.610141 545.531122 
L 314.992635 535.53759 
L 317.375129 531.332679 
L 319.757623 517.555326 
L 322.140117 515.022314 
L 324.522612 505.298889 
L 326.905106 502.097302 
L 329.2876 492.698469 
L 331.670094 489.355594 
L 334.052589 481.75194 
L 336.435083 472.585815 
L 341.200071 461.040432 
L 343.582565 454.256336 
L 345.96506 451.791197 
L 348.347554 441.654992 
L 350.730048 438.849101 
L 353.112542 434.40825 
L 355.495036 430.67014 
L 357.877531 423.043862 
L 360.260025 422.045155 
L 362.642519 414.006096 
L 365.025013 411.081542 
L 367.407508 404.278054 
L 369.790002 405.013117 
L 372.172496 397.515197 
L 374.55499 394.572637 
L 376.937484 393.277965 
L 379.319979 387.4935 
L 381.702473 386.582982 
L 384.084967 375.522408 
L 386.467461 375.187197 
L 388.849956 374.09199 
L 391.23245 368.346771 
L 393.614944 366.421847 
L 395.997438 363.617804 
L 398.379932 357.558613 
L 400.762427 358.765557 
L 403.144921 356.519736 
L 405.527415 347.928456 
L 407.909909 347.249724 
L 410.292403 347.74977 
L 412.674898 344.417976 
L 415.057392 339.095695 
L 417.439886 336.826789 
L 419.82238 335.008985 
L 422.204875 333.516235 
L 424.587369 331.334132 
L 426.969863 326.531289 
L 429.352357 328.249822 
L 431.734851 324.766122 
L 434.117346 323.644597 
L 436.49984 323.653832 
L 438.882334 316.36184 
L 441.264828 314.243455 
L 443.647323 315.94906 
L 446.029817 309.659931 
L 448.412311 309.918958 
L 450.794805 308.03559 
L 453.177299 307.22111 
L 455.559794 302.48845 
L 457.942288 303.305699 
L 460.324782 301.326293 
L 462.707276 298.134402 
L 465.089771 301.447726 
L 467.472265 292.962643 
L 469.854759 291.741385 
L 472.237253 291.302287 
L 474.619747 293.061913 
L 477.002242 289.346428 
L 479.384736 287.563716 
L 481.76723 288.591973 
L 484.149724 284.077707 
L 486.532218 286.213176 
L 488.914713 282.514775 
L 491.297207 280.539524 
L 493.679701 282.801966 
L 496.062195 278.943347 
L 498.44469 275.36915 
L 500.827184 282.266829 
L 503.209678 273.602136 
L 505.592172 275.152602 
L 507.974666 273.743423 
L 510.357161 271.803263 
L 512.739655 270.244024 
L 515.122149 267.516627 
L 517.504643 268.225371 
L 519.887138 268.583668 
L 522.269632 263.591981 
L 524.652126 263.80068 
L 527.03462 263.000976 
L 529.417114 263.516259 
L 531.799609 261.303682 
L 534.182103 257.480616 
L 536.564597 260.670198 
L 538.947091 262.926177 
L 541.329585 259.331201 
L 543.71208 259.229161 
L 546.094574 255.274965 
L 548.477068 255.107821 
L 550.859562 254.534823 
L 553.242057 252.946496 
L 555.624551 254.961917 
L 560.389539 249.628093 
L 562.772033 252.897553 
L 565.154528 249.391691 
L 567.537022 246.912238 
L 569.919516 246.97965 
L 572.30201 246.743709 
L 577.066999 248.932276 
L 579.449493 245.437957 
L 581.831987 246.634281 
L 584.214481 246.568716 
L 586.596976 241.468986 
L 588.97947 241.013727 
L 591.361964 241.81851 
L 593.744458 238.19537 
L 596.126952 238.402222 
L 598.509447 236.486533 
L 600.891941 237.025364 
L 603.274435 239.687658 
L 605.656929 237.059531 
L 608.039424 234.930988 
L 610.421918 239.504816 
L 612.804412 236.987964 
L 615.186906 232.623297 
L 617.5694 232.150031 
L 619.951895 235.435651 
L 622.334389 233.836705 
L 624.716883 233.539355 
L 627.099377 232.51433 
L 629.481872 230.106445 
L 631.864366 231.125467 
L 634.24686 229.503434 
L 636.629354 231.355405 
L 639.011848 228.246163 
L 641.394343 227.869397 
L 643.776837 229.039864 
L 646.159331 229.183922 
L 648.541825 226.470376 
L 650.92432 225.20387 
L 653.306814 224.319209 
L 655.689308 227.573432 
L 658.071802 224.112818 
L 660.454296 227.518025 
L 662.836791 218.714353 
L 665.219285 224.383388 
L 667.601779 223.049009 
L 669.984273 220.533542 
L 672.366767 221.254753 
L 674.749262 219.644725 
L 677.131756 219.98917 
L 679.51425 219.424021 
L 684.279239 219.358918 
L 686.661733 221.273684 
L 689.044227 214.598554 
L 691.426721 219.927761 
L 693.809215 217.025832 
L 696.19171 216.818518 
L 698.574204 219.904675 
L 700.956698 214.278119 
L 703.339192 217.191129 
L 705.721687 214.868662 
L 708.104181 212.789985 
L 710.486675 212.179126 
L 712.869169 215.307761 
L 715.251663 212.96544 
L 717.634158 215.023339 
L 720.016652 215.04227 
L 722.399146 213.216156 
L 724.78164 211.220127 
L 727.164134 208.519509 
L 729.546629 213.038392 
L 731.929123 209.902831 
L 734.311617 208.410081 
L 736.694111 214.386623 
L 739.076606 212.820921 
L 741.4591 210.277289 
L 743.841594 207.044766 
L 746.224088 205.657289 
L 748.606582 206.383579 
L 750.989077 208.973383 
L 753.371571 206.000349 
L 755.754065 206.361878 
L 758.136559 207.218374 
L 760.519054 206.155026 
L 762.901548 203.492731 
L 765.284042 206.999056 
L 767.666536 204.466043 
L 770.04903 206.652763 
L 772.431525 205.734858 
L 774.814019 205.176635 
L 777.196513 202.272397 
L 779.579007 203.261408 
L 781.961502 204.466967 
L 784.343996 205.329004 
L 786.72649 203.382379 
L 789.108984 206.870235 
L 791.491478 199.704294 
L 793.873973 200.573257 
L 796.256467 201.876239 
L 798.638961 202.664862 
L 801.021455 200.656367 
L 803.403949 201.289389 
L 805.786444 198.631711 
L 808.168938 203.155673 
L 810.551432 197.693029 
L 812.933926 198.291883 
L 815.316421 200.53401 
L 817.698915 198.869499 
L 820.081409 197.811691 
L 822.463903 201.215513 
L 824.846397 196.462999 
L 827.228892 197.44693 
L 829.611386 197.637622 
L 831.99388 196.926568 
L 834.376374 198.558759 
L 836.758869 191.501785 
L 839.141363 195.182641 
L 841.523857 199.465583 
L 843.906351 194.244881 
L 846.288845 192.530042 
L 851.053834 200.005337 
L 853.436328 190.975421 
L 855.818822 197.084478 
L 858.201316 194.868669 
L 860.583811 193.385615 
L 862.966305 195.558945 
L 865.348799 194.828961 
L 867.731293 193.620632 
L 870.113788 190.954643 
L 872.496282 193.390694 
L 874.878776 193.446101 
L 877.26127 188.563842 
L 879.643764 190.946332 
L 882.026259 193.931371 
L 884.408753 192.613614 
L 889.173741 189.10729 
L 891.556236 187.877721 
L 893.93873 192.141733 
L 896.321224 191.411749 
L 898.703718 191.7899 
L 901.086212 190.322083 
L 903.468707 190.189107 
L 905.851201 190.509542 
L 908.233695 188.040248 
L 910.616189 187.903116 
L 912.998684 188.204159 
L 915.381178 190.616662 
L 917.763672 189.459123 
L 920.146166 186.615371 
L 922.52866 187.92297 
L 924.911155 186.919646 
L 927.293649 188.67327 
L 929.676143 188.500586 
L 932.058637 186.017901 
L 934.441131 182.73228 
L 936.823626 188.791009 
L 939.20612 188.991859 
L 941.588614 185.253749 
L 943.971108 184.6295 
L 946.353603 189.194094 
L 948.736097 186.655079 
L 951.118591 187.45663 
L 953.501085 185.539556 
L 955.883579 182.683799 
L 958.266074 185.229278 
L 960.648568 183.803478 
L 963.031062 188.443794 
L 965.413556 184.294751 
L 967.796051 182.675488 
L 970.178545 188.573538 
L 972.561039 182.529584 
L 974.943533 185.952798 
L 977.326027 182.103413 
L 979.708522 184.556548 
L 982.091016 186.014669 
L 984.47351 182.072016 
L 986.856004 179.832198 
L 989.238498 187.470943 
L 991.620993 181.782054 
L 994.003487 183.682506 
L 996.385981 179.798954 
L 998.768475 181.262154 
L 1001.15097 180.677613 
L 1003.533464 184.165468 
L 1005.915958 177.261786 
L 1008.298452 180.797661 
L 1010.680946 180.700237 
L 1013.063441 182.617311 
L 1015.445935 180.739022 
L 1017.828429 180.437979 
L 1020.210923 181.02252 
L 1022.593418 175.191882 
L 1024.975912 181.8961 
L 1027.358406 177.131119 
L 1029.7409 181.380817 
L 1032.123394 177.516196 
L 1034.505889 180.785656 
L 1036.888383 181.197051 
L 1039.270877 180.536787 
L 1041.653371 176.479166 
L 1044.035866 177.260401 
L 1046.41836 176.995372 
L 1048.800854 176.988446 
L 1051.183348 178.32929 
L 1053.565842 176.697099 
L 1055.948337 178.239254 
L 1058.330831 178.092426 
L 1060.713325 177.183755 
L 1063.095819 177.464944 
L 1065.478313 176.118098 
L 1067.860808 180.89647 
L 1070.243302 176.570125 
L 1072.625796 178.953539 
L 1075.00829 175.433825 
L 1077.390785 176.668934 
L 1079.773279 179.015872 
L 1082.155773 175.287459 
L 1084.538267 174.642432 
L 1086.920761 178.811329 
L 1089.303256 177.207765 
L 1091.68575 174.336309 
L 1094.068244 178.024553 
L 1096.450738 174.121608 
L 1098.833233 176.673551 
L 1101.215727 174.698762 
L 1103.598221 177.683339 
L 1105.980715 171.747428 
L 1108.363209 173.622024 
L 1110.745704 175.22605 
L 1113.128198 173.570311 
L 1115.510692 175.415356 
L 1117.893186 173.018552 
L 1120.27568 174.333077 
L 1122.658175 176.946429 
L 1125.040669 176.259386 
L 1127.423163 171.303713 
L 1129.805657 175.249136 
L 1132.188152 174.213029 
L 1134.570646 175.99528 
L 1136.95314 172.038314 
L 1139.335634 174.626271 
L 1141.718128 170.730253 
L 1144.100623 178.348682 
L 1146.483117 171.876249 
L 1148.865611 171.439921 
L 1151.248105 169.358012 
L 1153.6306 170.252369 
L 1156.013094 173.308052 
L 1158.395588 172.499113 
L 1160.778082 171.401136 
L 1163.160576 169.468364 
L 1165.543071 173.874125 
L 1167.925565 175.198808 
L 1170.308059 172.512965 
L 1172.690553 173.767005 
L 1175.073048 171.606141 
L 1177.455542 170.66792 
L 1179.838036 171.710029 
L 1182.22053 167.141742 
L 1184.603024 168.562925 
L 1186.985519 171.843467 
L 1189.368013 167.858336 
L 1191.750507 174.933317 
L 1194.133001 171.762204 
L 1196.515495 166.415451 
L 1198.89799 172.473257 
L 1201.280484 171.812531 
L 1203.662978 171.44777 
L 1206.045472 169.206105 
L 1208.427967 172.268714 
L 1210.810461 168.763774 
L 1213.192955 170.012735 
L 1215.575449 169.480369 
L 1217.957943 170.829523 
L 1220.340438 170.096307 
L 1222.722932 170.093998 
L 1225.105426 171.525801 
L 1227.48792 169.35755 
L 1229.870415 166.970442 
L 1234.635403 171.110251 
L 1237.017897 170.260219 
L 1239.400391 170.243135 
L 1241.782886 167.162981 
L 1244.16538 168.043948 
L 1246.547874 166.251078 
L 1248.930368 167.140356 
L 1251.312862 169.741704 
L 1253.695357 168.036561 
L 1256.077851 169.86129 
L 1258.460345 165.618979 
L 1260.842839 170.451372 
L 1263.225334 169.715386 
L 1265.607828 164.864062 
L 1267.990322 168.085965 
L 1270.372816 169.841898 
L 1275.137805 166.065927 
L 1277.520299 166.275549 
L 1279.902793 166.102865 
L 1282.285287 169.615192 
L 1284.667782 166.627844 
L 1287.050276 167.666259 
L 1289.43277 165.882161 
L 1291.815264 169.334464 
L 1294.197758 168.953543 
L 1296.580253 164.279982 
L 1298.962747 169.27167 
L 1301.345241 165.914944 
L 1303.727735 168.187544 
L 1306.110229 164.377406 
L 1308.492724 169.104064 
L 1310.875218 169.347854 
L 1313.257712 163.188008 
L 1315.640206 162.736443 
L 1318.022701 166.09363 
L 1320.405195 167.158364 
L 1325.170183 163.626644 
L 1327.552677 165.352103 
L 1329.935172 162.446019 
L 1332.317666 167.256711 
L 1334.70016 167.402615 
L 1337.082654 163.317752 
L 1339.465149 165.291156 
L 1341.847643 166.623227 
L 1344.230137 165.786123 
L 1346.612631 164.044504 
L 1348.995125 164.714464 
L 1351.37762 163.06796 
L 1353.760114 164.566251 
L 1356.142608 163.853812 
L 1358.525102 162.240552 
L 1360.907597 166.833772 
L 1363.290091 163.862585 
L 1365.672585 165.31378 
L 1368.055079 164.087444 
L 1370.437573 166.481939 
L 1372.820068 162.999625 
L 1375.202562 163.802561 
L 1377.585056 165.456453 
L 1379.96755 164.236119 
L 1382.350044 163.699597 
L 1384.732539 165.668384 
L 1387.115033 159.687686 
L 1389.497527 162.283492 
L 1391.880021 165.573269 
L 1394.262516 164.282291 
L 1396.64501 164.755095 
L 1399.027504 163.885209 
L 1401.409998 165.462917 
L 1403.792492 166.344808 
L 1406.174987 161.656011 
L 1408.557481 167.633477 
L 1410.939975 163.115517 
L 1413.322469 160.775505 
L 1415.704964 165.047366 
L 1418.087458 159.925935 
L 1420.469952 164.534854 
L 1422.852446 165.037208 
L 1425.23494 162.463564 
L 1427.617435 167.192069 
L 1429.999929 159.146546 
L 1432.382423 162.970998 
L 1434.764917 163.232795 
L 1437.147411 160.278691 
L 1439.529906 162.380454 
L 1441.9124 162.414622 
L 1444.294894 161.676788 
L 1446.677388 165.794434 
L 1449.059883 161.405757 
L 1451.442377 159.646592 
L 1453.824871 161.855475 
L 1456.207365 162.499579 
L 1458.589859 161.673556 
L 1460.972354 159.934246 
L 1463.354848 160.775967 
L 1465.737342 159.732934 
L 1468.119836 165.415359 
L 1470.502331 163.269271 
L 1472.884825 159.11284 
L 1475.267319 159.044044 
L 1477.649813 161.300484 
L 1480.032307 160.470306 
L 1482.414802 160.368265 
L 1484.797296 159.938863 
L 1487.17979 164.779567 
L 1489.562284 159.058819 
L 1491.944779 158.387474 
L 1494.327273 163.319137 
L 1494.327273 163.319137 
" clip-path="url(#pb07c68c18c)" style="fill: none; stroke: #00c9a7; stroke-width: 2.25; stroke-linecap: round"/>
   </g>
   <g id="line2d_12">
    <path d="M 276.872727 861.84 
L 279.255221 847.354365 
L 281.637716 823.418645 
L 284.02021 817.057949 
L 286.402704 802.66789 
L 288.785198 785.654321 
L 291.167693 778.606119 
L 293.550187 762.391793 
L 295.932681 755.963224 
L 298.315175 748.613979 
L 300.697669 733.928879 
L 303.080164 720.734683 
L 305.462658 702.850304 
L 307.845152 686.424047 
L 310.227646 668.239549 
L 312.610141 657.753358 
L 314.992635 641.405132 
L 317.375129 633.600166 
L 319.757623 620.646066 
L 322.140117 601.029303 
L 326.905106 576.349747 
L 329.2876 566.271258 
L 331.670094 548.27191 
L 334.052589 542.535002 
L 336.435083 533.225743 
L 338.817577 516.855354 
L 341.200071 508.573891 
L 343.582565 501.632347 
L 345.96506 492.526246 
L 348.347554 484.381453 
L 350.730048 474.151056 
L 353.112542 468.61823 
L 355.495036 455.988721 
L 357.877531 447.854085 
L 360.260025 445.828044 
L 362.642519 434.602173 
L 365.025013 429.879209 
L 367.407508 426.375655 
L 369.790002 417.891956 
L 372.172496 412.851788 
L 374.55499 409.309911 
L 376.937484 403.321364 
L 379.319979 396.70118 
L 381.702473 388.741999 
L 384.084967 389.992806 
L 386.467461 377.639869 
L 388.849956 378.1413 
L 391.23245 372.860113 
L 393.614944 368.580402 
L 395.997438 368.332919 
L 398.379932 363.445581 
L 400.762427 356.757062 
L 403.144921 352.343913 
L 405.527415 351.342898 
L 407.909909 345.417607 
L 410.292403 342.614486 
L 412.674898 342.664814 
L 415.057392 337.458426 
L 417.439886 333.57118 
L 419.82238 333.106225 
L 422.204875 331.096806 
L 424.587369 323.606736 
L 426.969863 324.588821 
L 429.352357 322.580326 
L 431.734851 316.366458 
L 436.49984 316.13652 
L 438.882334 313.056827 
L 441.264828 308.356487 
L 443.647323 311.560383 
L 446.029817 308.700471 
L 448.412311 308.216123 
L 450.794805 300.809163 
L 453.177299 302.285753 
L 455.559794 301.490205 
L 457.942288 296.538687 
L 460.324782 297.806578 
L 462.707276 293.654304 
L 465.089771 297.868449 
L 467.472265 289.834931 
L 469.854759 293.887935 
L 472.237253 290.283264 
L 474.619747 294.518187 
L 477.002242 285.760226 
L 479.384736 287.331469 
L 481.76723 286.647195 
L 484.149724 284.466016 
L 486.532218 284.518652 
L 488.914713 281.652738 
L 491.297207 284.913426 
L 493.679701 281.000785 
L 496.062195 281.293517 
L 498.44469 280.912134 
L 500.827184 275.671116 
L 503.209678 277.344401 
L 505.592172 272.612663 
L 507.974666 272.667608 
L 510.357161 273.73188 
L 512.739655 271.702146 
L 515.122149 271.509145 
L 517.504643 268.795599 
L 519.887138 269.494186 
L 522.269632 268.084084 
L 524.652126 267.068294 
L 527.03462 267.440904 
L 529.417114 263.127488 
L 531.799609 263.565663 
L 534.182103 260.827184 
L 536.564597 263.768359 
L 538.947091 260.704827 
L 541.329585 257.36657 
L 543.71208 259.420314 
L 546.094574 256.978261 
L 548.477068 258.368971 
L 550.859562 251.77926 
L 553.242057 258.653854 
L 555.624551 255.795788 
L 558.007045 254.41616 
L 560.389539 252.632524 
L 562.772033 250.684977 
L 565.154528 252.927565 
L 567.537022 246.660137 
L 569.919516 248.592448 
L 572.30201 250.198782 
L 574.684505 248.645084 
L 577.066999 250.966166 
L 579.449493 244.21947 
L 581.831987 245.241724 
L 584.214481 247.37904 
L 586.596976 243.727735 
L 588.97947 245.206172 
L 591.361964 239.855264 
L 593.744458 240.579707 
L 596.126952 242.467231 
L 598.509447 241.304612 
L 600.891941 241.626895 
L 603.274435 239.263797 
L 605.656929 237.928032 
L 608.039424 235.225567 
L 610.421918 235.564934 
L 612.804412 236.616277 
L 615.186906 237.395204 
L 617.5694 236.34386 
L 619.951895 230.72146 
L 622.334389 237.394742 
L 624.716883 232.273311 
L 627.099377 233.041618 
L 629.481872 230.382093 
L 631.864366 232.10155 
L 634.24686 229.586083 
L 636.629354 231.322623 
L 639.011848 233.380984 
L 641.394343 231.540556 
L 643.776837 230.368241 
L 646.159331 230.777328 
L 648.541825 227.84077 
L 650.92432 227.199437 
L 653.306814 228.555979 
L 655.689308 226.318469 
L 658.071802 225.256506 
L 660.454296 225.418109 
L 662.836791 228.279868 
L 665.219285 224.377847 
L 667.601779 223.118729 
L 669.984273 224.749073 
L 672.366767 220.061199 
L 674.749262 222.070618 
L 677.131756 218.10534 
L 679.51425 224.423558 
L 681.896744 221.578883 
L 684.279239 219.009856 
L 686.661733 218.653406 
L 689.044227 219.2735 
L 691.426721 218.628011 
L 693.809215 220.55709 
L 696.19171 216.572882 
L 698.574204 218.902274 
L 700.956698 218.591535 
L 703.339192 215.179864 
L 705.721687 216.999976 
L 708.104181 212.928964 
L 710.486675 215.307761 
L 712.869169 215.467517 
L 715.251663 212.904031 
L 717.634158 215.588027 
L 720.016652 210.780567 
L 722.399146 216.632444 
L 724.78164 213.157055 
L 727.164134 210.418576 
L 729.546629 214.883437 
L 731.929123 208.620165 
L 734.311617 211.027589 
L 736.694111 213.95168 
L 739.076606 211.216433 
L 741.4591 210.087982 
L 743.841594 207.452468 
L 746.224088 209.31829 
L 748.606582 210.016415 
L 750.989077 209.601788 
L 753.371571 208.604466 
L 755.754065 208.622935 
L 758.136559 209.580549 
L 760.519054 208.426703 
L 762.901548 209.210709 
L 765.284042 205.524774 
L 767.666536 206.831912 
L 770.04903 202.081706 
L 772.431525 206.326325 
L 774.814019 205.640205 
L 777.196513 206.377115 
L 779.579007 203.585537 
L 781.961502 202.592371 
L 784.343996 204.05511 
L 786.72649 203.858416 
L 789.108984 202.7983 
L 791.491478 202.458472 
L 793.873973 202.910037 
L 796.256467 204.944388 
L 798.638961 202.149579 
L 801.021455 202.586369 
L 803.403949 204.040335 
L 805.786444 201.912715 
L 808.168938 200.490608 
L 810.551432 197.598375 
L 812.933926 197.855093 
L 815.316421 201.059451 
L 817.698915 200.118921 
L 820.081409 199.326605 
L 822.463903 200.001644 
L 824.846397 198.165371 
L 827.228892 200.196952 
L 829.611386 199.01171 
L 831.99388 200.27129 
L 834.376374 199.589325 
L 836.758869 193.423938 
L 839.141363 198.985853 
L 841.523857 198.175529 
L 843.906351 196.293085 
L 846.288845 197.670404 
L 848.67134 194.901451 
L 851.053834 196.358649 
L 853.436328 197.082169 
L 855.818822 192.886031 
L 860.583811 198.852415 
L 862.966305 195.046432 
L 865.348799 190.899698 
L 867.731293 193.978929 
L 870.113788 192.182826 
L 872.496282 195.550634 
L 874.878776 193.230938 
L 877.26127 195.172483 
L 879.643764 190.817973 
L 882.026259 194.028333 
L 884.408753 193.636792 
L 886.791247 191.016976 
L 889.173741 194.423106 
L 891.556236 191.240912 
L 893.93873 193.501969 
L 896.321224 192.005525 
L 898.703718 190.788885 
L 901.086212 191.201665 
L 903.468707 190.558947 
L 905.851201 194.165465 
L 908.233695 190.181257 
L 910.616189 188.380999 
L 912.998684 190.232509 
L 915.381178 190.335934 
L 917.763672 188.066566 
L 920.146166 190.13647 
L 922.52866 188.150138 
L 924.911155 188.545834 
L 927.293649 184.954553 
L 929.676143 191.21644 
L 932.058637 185.858607 
L 934.441131 186.016054 
L 936.823626 186.541957 
L 939.20612 185.57003 
L 941.588614 187.897575 
L 943.971108 184.625344 
L 946.353603 187.910042 
L 948.736097 188.358375 
L 951.118591 187.575754 
L 953.501085 184.603644 
L 955.883579 183.344525 
L 958.266074 186.354035 
L 960.648568 186.836074 
L 963.031062 186.078387 
L 965.413556 182.489876 
L 967.796051 186.77328 
L 970.178545 184.434191 
L 972.561039 181.52903 
L 974.943533 187.432159 
L 977.326027 182.210072 
L 979.708522 183.744377 
L 982.091016 183.670501 
L 984.47351 184.924079 
L 986.856004 181.440379 
L 989.238498 183.414245 
L 991.620993 181.347111 
L 994.003487 186.009128 
L 996.385981 183.664499 
L 998.768475 183.093809 
L 1001.15097 181.937193 
L 1003.533464 185.198343 
L 1005.915958 181.20213 
L 1008.298452 184.187169 
L 1010.680946 179.394485 
L 1013.063441 185.570491 
L 1015.445935 181.442226 
L 1017.828429 180.820747 
L 1020.210923 181.94181 
L 1022.593418 180.320239 
L 1024.975912 183.860269 
L 1027.358406 178.137213 
L 1029.7409 179.89176 
L 1032.123394 183.15568 
L 1034.505889 180.178029 
L 1036.888383 178.717137 
L 1039.270877 177.732744 
L 1041.653371 179.50853 
L 1044.035866 179.89176 
L 1046.41836 179.386635 
L 1048.800854 181.0119 
L 1051.183348 176.867936 
L 1053.565842 177.688418 
L 1055.948337 180.974501 
L 1058.330831 178.460881 
L 1060.713325 173.824258 
L 1063.095819 178.735144 
L 1065.478313 179.383865 
L 1067.860808 176.887791 
L 1070.243302 174.814193 
L 1072.625796 178.081806 
L 1075.00829 175.045516 
L 1077.390785 179.944397 
L 1079.773279 176.674475 
L 1082.155773 176.1024 
L 1084.538267 177.062784 
L 1086.920761 180.566338 
L 1089.303256 175.463837 
L 1091.68575 174.936087 
L 1094.068244 174.234269 
L 1096.450738 174.509455 
L 1098.833233 176.101015 
L 1101.215727 174.183017 
L 1103.598221 177.947445 
L 1105.980715 176.385898 
L 1108.363209 174.002022 
L 1110.745704 176.155036 
L 1113.128198 175.338248 
L 1115.510692 173.344067 
L 1117.893186 178.200931 
L 1120.27568 171.553505 
L 1122.658175 173.104432 
L 1125.040669 178.053179 
L 1127.423163 172.677339 
L 1129.805657 173.866275 
L 1132.188152 171.737732 
L 1134.570646 175.73533 
L 1136.95314 172.050319 
L 1139.335634 173.863505 
L 1141.718128 174.455896 
L 1144.100623 175.986507 
L 1146.483117 172.896657 
L 1148.865611 174.870061 
L 1151.248105 174.042192 
L 1153.6306 168.697748 
L 1156.013094 174.602262 
L 1158.395588 169.675216 
L 1160.778082 174.128996 
L 1163.160576 173.01532 
L 1165.543071 169.271208 
L 1167.925565 171.975981 
L 1170.308059 173.025939 
L 1172.690553 170.299927 
L 1175.073048 175.591734 
L 1177.455542 170.171568 
L 1179.838036 169.479445 
L 1182.22053 175.000729 
L 1184.603024 171.445923 
L 1186.985519 169.556553 
L 1191.750507 168.997868 
L 1194.133001 170.197424 
L 1198.89799 169.629967 
L 1201.280484 169.660441 
L 1203.662978 171.783443 
L 1206.045472 167.916513 
L 1208.427967 168.672815 
L 1210.810461 171.512873 
L 1213.192955 171.209983 
L 1215.575449 169.649821 
L 1217.957943 170.986971 
L 1220.340438 170.863691 
L 1222.722932 169.187636 
L 1225.105426 174.622578 
L 1227.48792 170.656839 
L 1229.870415 169.986417 
L 1232.252909 171.788522 
L 1234.635403 163.34407 
L 1237.017897 171.350808 
L 1239.400391 168.235102 
L 1241.782886 167.517584 
L 1244.16538 167.161596 
L 1246.547874 169.42727 
L 1248.930368 169.693223 
L 1251.312862 168.826107 
L 1253.695357 168.925839 
L 1256.077851 166.71788 
L 1258.460345 167.945601 
L 1260.842839 171.179047 
L 1263.225334 167.642711 
L 1265.607828 166.755279 
L 1267.990322 168.858428 
L 1270.372816 166.264468 
L 1272.75531 165.151254 
L 1275.137805 171.64077 
L 1277.520299 165.892781 
L 1279.902793 168.779473 
L 1282.285287 167.622857 
L 1284.667782 167.07433 
L 1287.050276 166.29448 
L 1289.43277 164.82066 
L 1291.815264 166.457468 
L 1294.197758 169.266129 
L 1296.580253 166.668937 
L 1298.962747 168.079501 
L 1301.345241 170.502623 
L 1303.727735 166.835158 
L 1306.110229 165.425056 
L 1308.492724 166.045149 
L 1310.875218 164.684914 
L 1313.257712 169.343237 
L 1315.640206 165.512321 
L 1318.022701 168.176001 
L 1320.405195 167.778919 
L 1322.787689 162.391997 
L 1325.170183 162.440478 
L 1327.552677 167.082179 
L 1329.935172 168.092429 
L 1332.317666 168.220788 
L 1337.082654 161.607068 
L 1339.465149 166.691562 
L 1341.847643 166.22476 
L 1344.230137 168.364384 
L 1346.612631 162.370296 
L 1348.995125 164.243968 
L 1351.37762 164.107298 
L 1353.760114 166.368356 
L 1356.142608 161.7442 
L 1358.525102 166.230762 
L 1360.907597 162.337514 
L 1363.290091 167.602079 
L 1365.672585 166.297712 
L 1368.055079 169.359397 
L 1370.437573 157.849105 
L 1372.820068 163.719912 
L 1375.202562 163.13768 
L 1377.585056 165.953267 
L 1379.96755 160.761653 
L 1382.350044 164.931012 
L 1384.732539 164.536239 
L 1387.115033 165.641142 
L 1389.497527 163.849657 
L 1391.880021 163.564774 
L 1394.262516 164.17471 
L 1396.64501 162.039241 
L 1399.027504 166.376205 
L 1401.409998 160.588045 
L 1403.792492 164.918545 
L 1406.174987 161.867942 
L 1410.939975 166.976445 
L 1413.322469 161.673556 
L 1415.704964 160.848919 
L 1420.469952 163.35469 
L 1422.852446 164.534392 
L 1425.23494 163.375929 
L 1427.617435 158.360694 
L 1429.999929 161.576594 
L 1432.382423 163.047182 
L 1434.764917 162.648253 
L 1437.147411 161.356814 
L 1439.529906 158.160768 
L 1441.9124 164.64382 
L 1444.294894 162.779383 
L 1446.677388 162.377684 
L 1449.059883 161.038687 
L 1451.442377 161.668477 
L 1453.824871 163.198627 
L 1456.207365 163.239259 
L 1460.972354 157.996856 
L 1463.354848 162.712895 
L 1465.737342 158.858893 
L 1468.119836 163.398553 
L 1470.502331 159.919471 
L 1472.884825 160.228363 
L 1475.267319 163.028713 
L 1477.649813 158.815491 
L 1480.032307 159.059281 
L 1482.414802 160.285617 
L 1484.797296 160.394122 
L 1487.17979 158.619259 
L 1489.562284 159.629508 
L 1491.944779 156.24 
L 1494.327273 161.77652 
L 1494.327273 161.77652 
" clip-path="url(#pb07c68c18c)" style="fill: none; stroke: #ffc75f; stroke-width: 2.25; stroke-linecap: round"/>
   </g>
   <g id="patch_3">
    <path d="M 216 897.12 
L 216 120.96 
" style="fill: none; stroke: #262626; stroke-width: 1.875; stroke-linejoin: miter; stroke-linecap: square"/>
   </g>
   <g id="patch_4">
    <path d="M 1555.2 897.12 
L 1555.2 120.96 
" style="fill: none; stroke: #262626; stroke-width: 1.875; stroke-linejoin: miter; stroke-linecap: square"/>
   </g>
   <g id="patch_5">
    <path d="M 216 897.12 
L 1555.2 897.12 
" style="fill: none; stroke: #262626; stroke-width: 1.875; stroke-linejoin: miter; stroke-linecap: square"/>
   </g>
   <g id="patch_6">
    <path d="M 216 120.96 
L 1555.2 120.96 
" style="fill: none; stroke: #262626; stroke-width: 1.875; stroke-linejoin: miter; stroke-linecap: square"/>
   </g>
   <g id="text_13">
    <!-- Df(Z) -->
    <g style="fill: #262626" transform="translate(820.916406 110.561563)scale(0.5 -0.5)">
     <use xlink:href="#DejaVuSans-44"/>
     <use xlink:href="#DejaVuSans-66" x="77.001953"/>
     <use xlink:href="#DejaVuSans-28" x="112.207031"/>
     <use xlink:href="#DejaVuSans-5a" x="151.220703"/>
     <use xlink:href="#DejaVuSans-29" x="219.726562"/>
    </g>
   </g>
   <g id="legend_1">
    <g id="patch_7">
     <path d="M 227.55 182.597813 
L 361.029844 182.597813 
Q 364.329844 182.597813 364.329844 179.297813 
L 364.329844 132.51 
Q 364.329844 129.21 361.029844 129.21 
L 227.55 129.21 
Q 224.25 129.21 224.25 132.51 
L 224.25 179.297813 
Q 224.25 182.597813 227.55 182.597813 
z
" style="fill: #ffffff; opacity: 0.8; stroke: #cccccc; stroke-width: 1.5; stroke-linejoin: miter"/>
    </g>
    <g id="line2d_13">
     <path d="M 230.85 142.572422 
L 247.35 142.572422 
L 263.85 142.572422 
" style="fill: none; stroke: #00c9a7; stroke-width: 2.25; stroke-linecap: round"/>
    </g>
    <g id="text_14">
     <!-- df trace -->
     <g style="fill: #262626" transform="translate(277.05 148.347422)scale(0.165 -0.165)">
      <defs>
       <path id="DejaVuSans-64" d="M 2906 2969 
L 2906 4863 
L 3481 4863 
L 3481 0 
L 2906 0 
L 2906 525 
Q 2725 213 2448 61 
Q 2172 -91 1784 -91 
Q 1150 -91 751 415 
Q 353 922 353 1747 
Q 353 2572 751 3078 
Q 1150 3584 1784 3584 
Q 2172 3584 2448 3432 
Q 2725 3281 2906 2969 
z
M 947 1747 
Q 947 1113 1208 752 
Q 1469 391 1925 391 
Q 2381 391 2643 752 
Q 2906 1113 2906 1747 
Q 2906 2381 2643 2742 
Q 2381 3103 1925 3103 
Q 1469 3103 1208 2742 
Q 947 2381 947 1747 
z
" transform="scale(0.015625)"/>
       <path id="DejaVuSans-74" d="M 1172 4494 
L 1172 3500 
L 2356 3500 
L 2356 3053 
L 1172 3053 
L 1172 1153 
Q 1172 725 1289 603 
Q 1406 481 1766 481 
L 2356 481 
L 2356 0 
L 1766 0 
Q 1100 0 847 248 
Q 594 497 594 1153 
L 594 3053 
L 172 3053 
L 172 3500 
L 594 3500 
L 594 4494 
L 1172 4494 
z
" transform="scale(0.015625)"/>
       <path id="DejaVuSans-72" d="M 2631 2963 
Q 2534 3019 2420 3045 
Q 2306 3072 2169 3072 
Q 1681 3072 1420 2755 
Q 1159 2438 1159 1844 
L 1159 0 
L 581 0 
L 581 3500 
L 1159 3500 
L 1159 2956 
Q 1341 3275 1631 3429 
Q 1922 3584 2338 3584 
Q 2397 3584 2469 3576 
Q 2541 3569 2628 3553 
L 2631 2963 
z
" transform="scale(0.015625)"/>
       <path id="DejaVuSans-61" d="M 2194 1759 
Q 1497 1759 1228 1600 
Q 959 1441 959 1056 
Q 959 750 1161 570 
Q 1363 391 1709 391 
Q 2188 391 2477 730 
Q 2766 1069 2766 1631 
L 2766 1759 
L 2194 1759 
z
M 3341 1997 
L 3341 0 
L 2766 0 
L 2766 531 
Q 2569 213 2275 61 
Q 1981 -91 1556 -91 
Q 1019 -91 701 211 
Q 384 513 384 1019 
Q 384 1609 779 1909 
Q 1175 2209 1959 2209 
L 2766 2209 
L 2766 2266 
Q 2766 2663 2505 2880 
Q 2244 3097 1772 3097 
Q 1472 3097 1187 3025 
Q 903 2953 641 2809 
L 641 3341 
Q 956 3463 1253 3523 
Q 1550 3584 1831 3584 
Q 2591 3584 2966 3190 
Q 3341 2797 3341 1997 
z
" transform="scale(0.015625)"/>
       <path id="DejaVuSans-63" d="M 3122 3366 
L 3122 2828 
Q 2878 2963 2633 3030 
Q 2388 3097 2138 3097 
Q 1578 3097 1268 2742 
Q 959 2388 959 1747 
Q 959 1106 1268 751 
Q 1578 397 2138 397 
Q 2388 397 2633 464 
Q 2878 531 3122 666 
L 3122 134 
Q 2881 22 2623 -34 
Q 2366 -91 2075 -91 
Q 1284 -91 818 406 
Q 353 903 353 1747 
Q 353 2603 823 3093 
Q 1294 3584 2113 3584 
Q 2378 3584 2631 3529 
Q 2884 3475 3122 3366 
z
" transform="scale(0.015625)"/>
       <path id="DejaVuSans-65" d="M 3597 1894 
L 3597 1613 
L 953 1613 
Q 991 1019 1311 708 
Q 1631 397 2203 397 
Q 2534 397 2845 478 
Q 3156 559 3463 722 
L 3463 178 
Q 3153 47 2828 -22 
Q 2503 -91 2169 -91 
Q 1331 -91 842 396 
Q 353 884 353 1716 
Q 353 2575 817 3079 
Q 1281 3584 2069 3584 
Q 2775 3584 3186 3129 
Q 3597 2675 3597 1894 
z
M 3022 2063 
Q 3016 2534 2758 2815 
Q 2500 3097 2075 3097 
Q 1594 3097 1305 2825 
Q 1016 2553 972 2059 
L 3022 2063 
z
" transform="scale(0.015625)"/>
      </defs>
      <use xlink:href="#DejaVuSans-64"/>
      <use xlink:href="#DejaVuSans-66" x="63.476562"/>
      <use xlink:href="#DejaVuSans-20" x="98.681641"/>
      <use xlink:href="#DejaVuSans-74" x="130.46875"/>
      <use xlink:href="#DejaVuSans-72" x="169.677734"/>
      <use xlink:href="#DejaVuSans-61" x="210.791016"/>
      <use xlink:href="#DejaVuSans-63" x="272.070312"/>
      <use xlink:href="#DejaVuSans-65" x="327.050781"/>
     </g>
    </g>
    <g id="line2d_14">
     <path d="M 230.85 166.791328 
L 247.35 166.791328 
L 263.85 166.791328 
" style="fill: none; stroke: #ffc75f; stroke-width: 2.25; stroke-linecap: round"/>
    </g>
    <g id="text_15">
     <!-- df retrace -->
     <g style="fill: #262626" transform="translate(277.05 172.566328)scale(0.165 -0.165)">
      <use xlink:href="#DejaVuSans-64"/>
      <use xlink:href="#DejaVuSans-66" x="63.476562"/>
      <use xlink:href="#DejaVuSans-20" x="98.681641"/>
      <use xlink:href="#DejaVuSans-72" x="130.46875"/>
      <use xlink:href="#DejaVuSans-65" x="169.332031"/>
      <use xlink:href="#DejaVuSans-74" x="230.855469"/>
      <use xlink:href="#DejaVuSans-72" x="270.064453"/>
      <use xlink:href="#DejaVuSans-61" x="311.177734"/>
      <use xlink:href="#DejaVuSans-63" x="372.457031"/>
      <use xlink:href="#DejaVuSans-65" x="427.4375"/>
     </g>
    </g>
   </g>
  </g>
 </g>
 <defs>
  <clipPath id="pb07c68c18c">
   <rect x="216" y="120.96" width="1339.2" height="776.16"/>
  </clipPath>
 </defs>
</svg>
