<?xml version="1.0" encoding="utf-8" standalone="no"?>
<!DOCTYPE svg PUBLIC "-//W3C//DTD SVG 1.1//EN"
  "http://www.w3.org/Graphics/SVG/1.1/DTD/svg11.dtd">
<svg xmlns:xlink="http://www.w3.org/1999/xlink" width="1728pt" height="1008pt" viewBox="0 0 1728 1008" xmlns="http://www.w3.org/2000/svg" version="1.1">
 <metadata>
  <rdf:RDF xmlns:dc="http://purl.org/dc/elements/1.1/" xmlns:cc="http://creativecommons.org/ns#" xmlns:rdf="http://www.w3.org/1999/02/22-rdf-syntax-ns#">
   <cc:Work>
    <dc:type rdf:resource="http://purl.org/dc/dcmitype/StillImage"/>
    <dc:date>2022-10-30T23:54:52.147157</dc:date>
    <dc:format>image/svg+xml</dc:format>
    <dc:creator>
     <cc:Agent>
      <dc:title>Matplotlib v3.5.2, https://matplotlib.org/</dc:title>
     </cc:Agent>
    </dc:creator>
   </cc:Work>
  </rdf:RDF>
 </metadata>
 <defs>
  <style type="text/css">*{stroke-linejoin: round; stroke-linecap: butt}</style>
 </defs>
 <g id="figure_1">
  <g id="patch_1">
   <path d="M 0 1008 
L 1728 1008 
L 1728 0 
L 0 0 
z
" style="fill: #ffffff"/>
  </g>
  <g id="axes_1">
   <g id="patch_2">
    <path d="M 216 897.12 
L 1555.2 897.12 
L 1555.2 120.96 
L 216 120.96 
L 216 897.12 
z
" style="fill: none"/>
   </g>
   <g id="matplotlib.axis_1">
    <g id="xtick_1">
     <g id="line2d_1">
      <defs>
       <path id="m94a95d7e98" d="M 0 0 
L 0 9 
" style="stroke: #262626; stroke-width: 1.875"/>
      </defs>
      <g>
       <use xlink:href="#m94a95d7e98" x="435.846538" y="897.12" style="fill: #262626; stroke: #262626; stroke-width: 1.875"/>
      </g>
     </g>
     <g id="text_1">
      <!-- 0.0 -->
      <g style="fill: #262626" transform="translate(397.679038 946.0925)scale(0.48 -0.48)">
       <defs>
        <path id="DejaVuSans-30" d="M 2034 4250 
Q 1547 4250 1301 3770 
Q 1056 3291 1056 2328 
Q 1056 1369 1301 889 
Q 1547 409 2034 409 
Q 2525 409 2770 889 
Q 3016 1369 3016 2328 
Q 3016 3291 2770 3770 
Q 2525 4250 2034 4250 
z
M 2034 4750 
Q 2819 4750 3233 4129 
Q 3647 3509 3647 2328 
Q 3647 1150 3233 529 
Q 2819 -91 2034 -91 
Q 1250 -91 836 529 
Q 422 1150 422 2328 
Q 422 3509 836 4129 
Q 1250 4750 2034 4750 
z
" transform="scale(0.015625)"/>
        <path id="DejaVuSans-2e" d="M 684 794 
L 1344 794 
L 1344 0 
L 684 0 
L 684 794 
z
" transform="scale(0.015625)"/>
       </defs>
       <use xlink:href="#DejaVuSans-30"/>
       <use xlink:href="#DejaVuSans-2e" x="63.623047"/>
       <use xlink:href="#DejaVuSans-30" x="95.410156"/>
      </g>
     </g>
    </g>
    <g id="xtick_2">
     <g id="line2d_2">
      <g>
       <use xlink:href="#m94a95d7e98" x="700.802889" y="897.12" style="fill: #262626; stroke: #262626; stroke-width: 1.875"/>
      </g>
     </g>
     <g id="text_2">
      <!-- 0.5 -->
      <g style="fill: #262626" transform="translate(662.635389 946.0925)scale(0.48 -0.48)">
       <defs>
        <path id="DejaVuSans-35" d="M 691 4666 
L 3169 4666 
L 3169 4134 
L 1269 4134 
L 1269 2991 
Q 1406 3038 1543 3061 
Q 1681 3084 1819 3084 
Q 2600 3084 3056 2656 
Q 3513 2228 3513 1497 
Q 3513 744 3044 326 
Q 2575 -91 1722 -91 
Q 1428 -91 1123 -41 
Q 819 9 494 109 
L 494 744 
Q 775 591 1075 516 
Q 1375 441 1709 441 
Q 2250 441 2565 725 
Q 2881 1009 2881 1497 
Q 2881 1984 2565 2268 
Q 2250 2553 1709 2553 
Q 1456 2553 1204 2497 
Q 953 2441 691 2322 
L 691 4666 
z
" transform="scale(0.015625)"/>
       </defs>
       <use xlink:href="#DejaVuSans-30"/>
       <use xlink:href="#DejaVuSans-2e" x="63.623047"/>
       <use xlink:href="#DejaVuSans-35" x="95.410156"/>
      </g>
     </g>
    </g>
    <g id="xtick_3">
     <g id="line2d_3">
      <g>
       <use xlink:href="#m94a95d7e98" x="965.75924" y="897.12" style="fill: #262626; stroke: #262626; stroke-width: 1.875"/>
      </g>
     </g>
     <g id="text_3">
      <!-- 1.0 -->
      <g style="fill: #262626" transform="translate(927.59174 946.0925)scale(0.48 -0.48)">
       <defs>
        <path id="DejaVuSans-31" d="M 794 531 
L 1825 531 
L 1825 4091 
L 703 3866 
L 703 4441 
L 1819 4666 
L 2450 4666 
L 2450 531 
L 3481 531 
L 3481 0 
L 794 0 
L 794 531 
z
" transform="scale(0.015625)"/>
       </defs>
       <use xlink:href="#DejaVuSans-31"/>
       <use xlink:href="#DejaVuSans-2e" x="63.623047"/>
       <use xlink:href="#DejaVuSans-30" x="95.410156"/>
      </g>
     </g>
    </g>
    <g id="xtick_4">
     <g id="line2d_4">
      <g>
       <use xlink:href="#m94a95d7e98" x="1230.715592" y="897.12" style="fill: #262626; stroke: #262626; stroke-width: 1.875"/>
      </g>
     </g>
     <g id="text_4">
      <!-- 1.5 -->
      <g style="fill: #262626" transform="translate(1192.548092 946.0925)scale(0.48 -0.48)">
       <use xlink:href="#DejaVuSans-31"/>
       <use xlink:href="#DejaVuSans-2e" x="63.623047"/>
       <use xlink:href="#DejaVuSans-35" x="95.410156"/>
      </g>
     </g>
    </g>
    <g id="xtick_5">
     <g id="line2d_5">
      <g>
       <use xlink:href="#m94a95d7e98" x="1495.671943" y="897.12" style="fill: #262626; stroke: #262626; stroke-width: 1.875"/>
      </g>
     </g>
     <g id="text_5">
      <!-- 2.0 -->
      <g style="fill: #262626" transform="translate(1457.504443 946.0925)scale(0.48 -0.48)">
       <defs>
        <path id="DejaVuSans-32" d="M 1228 531 
L 3431 531 
L 3431 0 
L 469 0 
L 469 531 
Q 828 903 1448 1529 
Q 2069 2156 2228 2338 
Q 2531 2678 2651 2914 
Q 2772 3150 2772 3378 
Q 2772 3750 2511 3984 
Q 2250 4219 1831 4219 
Q 1534 4219 1204 4116 
Q 875 4013 500 3803 
L 500 4441 
Q 881 4594 1212 4672 
Q 1544 4750 1819 4750 
Q 2544 4750 2975 4387 
Q 3406 4025 3406 3419 
Q 3406 3131 3298 2873 
Q 3191 2616 2906 2266 
Q 2828 2175 2409 1742 
Q 1991 1309 1228 531 
z
" transform="scale(0.015625)"/>
       </defs>
       <use xlink:href="#DejaVuSans-32"/>
       <use xlink:href="#DejaVuSans-2e" x="63.623047"/>
       <use xlink:href="#DejaVuSans-30" x="95.410156"/>
      </g>
     </g>
    </g>
    <g id="text_6">
     <!-- Z [nm] -->
     <g style="fill: #262626" transform="translate(804.2175 996.5475)scale(0.48 -0.48)">
      <defs>
       <path id="DejaVuSans-5a" d="M 359 4666 
L 4025 4666 
L 4025 4184 
L 1075 531 
L 4097 531 
L 4097 0 
L 288 0 
L 288 481 
L 3238 4134 
L 359 4134 
L 359 4666 
z
" transform="scale(0.015625)"/>
       <path id="DejaVuSans-20" transform="scale(0.015625)"/>
       <path id="DejaVuSans-5b" d="M 550 4863 
L 1875 4863 
L 1875 4416 
L 1125 4416 
L 1125 -397 
L 1875 -397 
L 1875 -844 
L 550 -844 
L 550 4863 
z
" transform="scale(0.015625)"/>
       <path id="DejaVuSans-6e" d="M 3513 2113 
L 3513 0 
L 2938 0 
L 2938 2094 
Q 2938 2591 2744 2837 
Q 2550 3084 2163 3084 
Q 1697 3084 1428 2787 
Q 1159 2491 1159 1978 
L 1159 0 
L 581 0 
L 581 3500 
L 1159 3500 
L 1159 2956 
Q 1366 3272 1645 3428 
Q 1925 3584 2291 3584 
Q 2894 3584 3203 3211 
Q 3513 2838 3513 2113 
z
" transform="scale(0.015625)"/>
       <path id="DejaVuSans-6d" d="M 3328 2828 
Q 3544 3216 3844 3400 
Q 4144 3584 4550 3584 
Q 5097 3584 5394 3201 
Q 5691 2819 5691 2113 
L 5691 0 
L 5113 0 
L 5113 2094 
Q 5113 2597 4934 2840 
Q 4756 3084 4391 3084 
Q 3944 3084 3684 2787 
Q 3425 2491 3425 1978 
L 3425 0 
L 2847 0 
L 2847 2094 
Q 2847 2600 2669 2842 
Q 2491 3084 2119 3084 
Q 1678 3084 1418 2786 
Q 1159 2488 1159 1978 
L 1159 0 
L 581 0 
L 581 3500 
L 1159 3500 
L 1159 2956 
Q 1356 3278 1631 3431 
Q 1906 3584 2284 3584 
Q 2666 3584 2933 3390 
Q 3200 3197 3328 2828 
z
" transform="scale(0.015625)"/>
       <path id="DejaVuSans-5d" d="M 1947 4863 
L 1947 -844 
L 622 -844 
L 622 -397 
L 1369 -397 
L 1369 4416 
L 622 4416 
L 622 4863 
L 1947 4863 
z
" transform="scale(0.015625)"/>
      </defs>
      <use xlink:href="#DejaVuSans-5a"/>
      <use xlink:href="#DejaVuSans-20" x="68.505859"/>
      <use xlink:href="#DejaVuSans-5b" x="100.292969"/>
      <use xlink:href="#DejaVuSans-6e" x="139.306641"/>
      <use xlink:href="#DejaVuSans-6d" x="202.685547"/>
      <use xlink:href="#DejaVuSans-5d" x="300.097656"/>
     </g>
    </g>
   </g>
   <g id="matplotlib.axis_2">
    <g id="ytick_1">
     <g id="line2d_6">
      <defs>
       <path id="m9e5438f5c0" d="M 0 0 
L -9 0 
" style="stroke: #262626; stroke-width: 1.875"/>
      </defs>
      <g>
       <use xlink:href="#m9e5438f5c0" x="216" y="891.403007" style="fill: #262626; stroke: #262626; stroke-width: 1.875"/>
      </g>
     </g>
     <g id="text_7">
      <!-- −8 -->
      <g style="fill: #262626" transform="translate(132.7375 909.639257)scale(0.48 -0.48)">
       <defs>
        <path id="DejaVuSans-2212" d="M 678 2272 
L 4684 2272 
L 4684 1741 
L 678 1741 
L 678 2272 
z
" transform="scale(0.015625)"/>
        <path id="DejaVuSans-38" d="M 2034 2216 
Q 1584 2216 1326 1975 
Q 1069 1734 1069 1313 
Q 1069 891 1326 650 
Q 1584 409 2034 409 
Q 2484 409 2743 651 
Q 3003 894 3003 1313 
Q 3003 1734 2745 1975 
Q 2488 2216 2034 2216 
z
M 1403 2484 
Q 997 2584 770 2862 
Q 544 3141 544 3541 
Q 544 4100 942 4425 
Q 1341 4750 2034 4750 
Q 2731 4750 3128 4425 
Q 3525 4100 3525 3541 
Q 3525 3141 3298 2862 
Q 3072 2584 2669 2484 
Q 3125 2378 3379 2068 
Q 3634 1759 3634 1313 
Q 3634 634 3220 271 
Q 2806 -91 2034 -91 
Q 1263 -91 848 271 
Q 434 634 434 1313 
Q 434 1759 690 2068 
Q 947 2378 1403 2484 
z
M 1172 3481 
Q 1172 3119 1398 2916 
Q 1625 2713 2034 2713 
Q 2441 2713 2670 2916 
Q 2900 3119 2900 3481 
Q 2900 3844 2670 4047 
Q 2441 4250 2034 4250 
Q 1625 4250 1398 4047 
Q 1172 3844 1172 3481 
z
" transform="scale(0.015625)"/>
       </defs>
       <use xlink:href="#DejaVuSans-2212"/>
       <use xlink:href="#DejaVuSans-38" x="83.789062"/>
      </g>
     </g>
    </g>
    <g id="ytick_2">
     <g id="line2d_7">
      <g>
       <use xlink:href="#m9e5438f5c0" x="216" y="799.613679" style="fill: #262626; stroke: #262626; stroke-width: 1.875"/>
      </g>
     </g>
     <g id="text_8">
      <!-- −7 -->
      <g style="fill: #262626" transform="translate(132.7375 817.849929)scale(0.48 -0.48)">
       <defs>
        <path id="DejaVuSans-37" d="M 525 4666 
L 3525 4666 
L 3525 4397 
L 1831 0 
L 1172 0 
L 2766 4134 
L 525 4134 
L 525 4666 
z
" transform="scale(0.015625)"/>
       </defs>
       <use xlink:href="#DejaVuSans-2212"/>
       <use xlink:href="#DejaVuSans-37" x="83.789062"/>
      </g>
     </g>
    </g>
    <g id="ytick_3">
     <g id="line2d_8">
      <g>
       <use xlink:href="#m9e5438f5c0" x="216" y="707.824351" style="fill: #262626; stroke: #262626; stroke-width: 1.875"/>
      </g>
     </g>
     <g id="text_9">
      <!-- −6 -->
      <g style="fill: #262626" transform="translate(132.7375 726.060601)scale(0.48 -0.48)">
       <defs>
        <path id="DejaVuSans-36" d="M 2113 2584 
Q 1688 2584 1439 2293 
Q 1191 2003 1191 1497 
Q 1191 994 1439 701 
Q 1688 409 2113 409 
Q 2538 409 2786 701 
Q 3034 994 3034 1497 
Q 3034 2003 2786 2293 
Q 2538 2584 2113 2584 
z
M 3366 4563 
L 3366 3988 
Q 3128 4100 2886 4159 
Q 2644 4219 2406 4219 
Q 1781 4219 1451 3797 
Q 1122 3375 1075 2522 
Q 1259 2794 1537 2939 
Q 1816 3084 2150 3084 
Q 2853 3084 3261 2657 
Q 3669 2231 3669 1497 
Q 3669 778 3244 343 
Q 2819 -91 2113 -91 
Q 1303 -91 875 529 
Q 447 1150 447 2328 
Q 447 3434 972 4092 
Q 1497 4750 2381 4750 
Q 2619 4750 2861 4703 
Q 3103 4656 3366 4563 
z
" transform="scale(0.015625)"/>
       </defs>
       <use xlink:href="#DejaVuSans-2212"/>
       <use xlink:href="#DejaVuSans-36" x="83.789062"/>
      </g>
     </g>
    </g>
    <g id="ytick_4">
     <g id="line2d_9">
      <g>
       <use xlink:href="#m9e5438f5c0" x="216" y="616.035023" style="fill: #262626; stroke: #262626; stroke-width: 1.875"/>
      </g>
     </g>
     <g id="text_10">
      <!-- −5 -->
      <g style="fill: #262626" transform="translate(132.7375 634.271273)scale(0.48 -0.48)">
       <use xlink:href="#DejaVuSans-2212"/>
       <use xlink:href="#DejaVuSans-35" x="83.789062"/>
      </g>
     </g>
    </g>
    <g id="ytick_5">
     <g id="line2d_10">
      <g>
       <use xlink:href="#m9e5438f5c0" x="216" y="524.245696" style="fill: #262626; stroke: #262626; stroke-width: 1.875"/>
      </g>
     </g>
     <g id="text_11">
      <!-- −4 -->
      <g style="fill: #262626" transform="translate(132.7375 542.481946)scale(0.48 -0.48)">
       <defs>
        <path id="DejaVuSans-34" d="M 2419 4116 
L 825 1625 
L 2419 1625 
L 2419 4116 
z
M 2253 4666 
L 3047 4666 
L 3047 1625 
L 3713 1625 
L 3713 1100 
L 3047 1100 
L 3047 0 
L 2419 0 
L 2419 1100 
L 313 1100 
L 313 1709 
L 2253 4666 
z
" transform="scale(0.015625)"/>
       </defs>
       <use xlink:href="#DejaVuSans-2212"/>
       <use xlink:href="#DejaVuSans-34" x="83.789062"/>
      </g>
     </g>
    </g>
    <g id="ytick_6">
     <g id="line2d_11">
      <g>
       <use xlink:href="#m9e5438f5c0" x="216" y="432.456368" style="fill: #262626; stroke: #262626; stroke-width: 1.875"/>
      </g>
     </g>
     <g id="text_12">
      <!-- −3 -->
      <g style="fill: #262626" transform="translate(132.7375 450.692618)scale(0.48 -0.48)">
       <defs>
        <path id="DejaVuSans-33" d="M 2597 2516 
Q 3050 2419 3304 2112 
Q 3559 1806 3559 1356 
Q 3559 666 3084 287 
Q 2609 -91 1734 -91 
Q 1441 -91 1130 -33 
Q 819 25 488 141 
L 488 750 
Q 750 597 1062 519 
Q 1375 441 1716 441 
Q 2309 441 2620 675 
Q 2931 909 2931 1356 
Q 2931 1769 2642 2001 
Q 2353 2234 1838 2234 
L 1294 2234 
L 1294 2753 
L 1863 2753 
Q 2328 2753 2575 2939 
Q 2822 3125 2822 3475 
Q 2822 3834 2567 4026 
Q 2313 4219 1838 4219 
Q 1578 4219 1281 4162 
Q 984 4106 628 3988 
L 628 4550 
Q 988 4650 1302 4700 
Q 1616 4750 1894 4750 
Q 2613 4750 3031 4423 
Q 3450 4097 3450 3541 
Q 3450 3153 3228 2886 
Q 3006 2619 2597 2516 
z
" transform="scale(0.015625)"/>
       </defs>
       <use xlink:href="#DejaVuSans-2212"/>
       <use xlink:href="#DejaVuSans-33" x="83.789062"/>
      </g>
     </g>
    </g>
    <g id="ytick_7">
     <g id="line2d_12">
      <g>
       <use xlink:href="#m9e5438f5c0" x="216" y="340.66704" style="fill: #262626; stroke: #262626; stroke-width: 1.875"/>
      </g>
     </g>
     <g id="text_13">
      <!-- −2 -->
      <g style="fill: #262626" transform="translate(132.7375 358.90329)scale(0.48 -0.48)">
       <use xlink:href="#DejaVuSans-2212"/>
       <use xlink:href="#DejaVuSans-32" x="83.789062"/>
      </g>
     </g>
    </g>
    <g id="ytick_8">
     <g id="line2d_13">
      <g>
       <use xlink:href="#m9e5438f5c0" x="216" y="248.877712" style="fill: #262626; stroke: #262626; stroke-width: 1.875"/>
      </g>
     </g>
     <g id="text_14">
      <!-- −1 -->
      <g style="fill: #262626" transform="translate(132.7375 267.113962)scale(0.48 -0.48)">
       <use xlink:href="#DejaVuSans-2212"/>
       <use xlink:href="#DejaVuSans-31" x="83.789062"/>
      </g>
     </g>
    </g>
    <g id="ytick_9">
     <g id="line2d_14">
      <g>
       <use xlink:href="#m9e5438f5c0" x="216" y="157.088384" style="fill: #262626; stroke: #262626; stroke-width: 1.875"/>
      </g>
     </g>
     <g id="text_15">
      <!-- 0 -->
      <g style="fill: #262626" transform="translate(172.96 175.324634)scale(0.48 -0.48)">
       <use xlink:href="#DejaVuSans-30"/>
      </g>
     </g>
    </g>
    <g id="text_16">
     <!-- Df(Z) [Hz] -->
     <g style="fill: #262626" transform="translate(118.755 628.13625)rotate(-90)scale(0.48 -0.48)">
      <defs>
       <path id="DejaVuSans-44" d="M 1259 4147 
L 1259 519 
L 2022 519 
Q 2988 519 3436 956 
Q 3884 1394 3884 2338 
Q 3884 3275 3436 3711 
Q 2988 4147 2022 4147 
L 1259 4147 
z
M 628 4666 
L 1925 4666 
Q 3281 4666 3915 4102 
Q 4550 3538 4550 2338 
Q 4550 1131 3912 565 
Q 3275 0 1925 0 
L 628 0 
L 628 4666 
z
" transform="scale(0.015625)"/>
       <path id="DejaVuSans-66" d="M 2375 4863 
L 2375 4384 
L 1825 4384 
Q 1516 4384 1395 4259 
Q 1275 4134 1275 3809 
L 1275 3500 
L 2222 3500 
L 2222 3053 
L 1275 3053 
L 1275 0 
L 697 0 
L 697 3053 
L 147 3053 
L 147 3500 
L 697 3500 
L 697 3744 
Q 697 4328 969 4595 
Q 1241 4863 1831 4863 
L 2375 4863 
z
" transform="scale(0.015625)"/>
       <path id="DejaVuSans-28" d="M 1984 4856 
Q 1566 4138 1362 3434 
Q 1159 2731 1159 2009 
Q 1159 1288 1364 580 
Q 1569 -128 1984 -844 
L 1484 -844 
Q 1016 -109 783 600 
Q 550 1309 550 2009 
Q 550 2706 781 3412 
Q 1013 4119 1484 4856 
L 1984 4856 
z
" transform="scale(0.015625)"/>
       <path id="DejaVuSans-29" d="M 513 4856 
L 1013 4856 
Q 1481 4119 1714 3412 
Q 1947 2706 1947 2009 
Q 1947 1309 1714 600 
Q 1481 -109 1013 -844 
L 513 -844 
Q 928 -128 1133 580 
Q 1338 1288 1338 2009 
Q 1338 2731 1133 3434 
Q 928 4138 513 4856 
z
" transform="scale(0.015625)"/>
       <path id="DejaVuSans-48" d="M 628 4666 
L 1259 4666 
L 1259 2753 
L 3553 2753 
L 3553 4666 
L 4184 4666 
L 4184 0 
L 3553 0 
L 3553 2222 
L 1259 2222 
L 1259 0 
L 628 0 
L 628 4666 
z
" transform="scale(0.015625)"/>
       <path id="DejaVuSans-7a" d="M 353 3500 
L 3084 3500 
L 3084 2975 
L 922 459 
L 3084 459 
L 3084 0 
L 275 0 
L 275 525 
L 2438 3041 
L 353 3041 
L 353 3500 
z
" transform="scale(0.015625)"/>
      </defs>
      <use xlink:href="#DejaVuSans-44"/>
      <use xlink:href="#DejaVuSans-66" x="77.001953"/>
      <use xlink:href="#DejaVuSans-28" x="112.207031"/>
      <use xlink:href="#DejaVuSans-5a" x="151.220703"/>
      <use xlink:href="#DejaVuSans-29" x="219.726562"/>
      <use xlink:href="#DejaVuSans-20" x="258.740234"/>
      <use xlink:href="#DejaVuSans-5b" x="290.527344"/>
      <use xlink:href="#DejaVuSans-48" x="329.541016"/>
      <use xlink:href="#DejaVuSans-7a" x="404.736328"/>
      <use xlink:href="#DejaVuSans-5d" x="457.226562"/>
     </g>
    </g>
   </g>
   <g id="line2d_15">
    <path d="M 276.872727 853.553906 
L 279.255221 834.981283 
L 281.637716 805.592022 
L 284.02021 787.895437 
L 286.402704 772.514952 
L 288.785198 745.587362 
L 291.167693 731.705897 
L 293.550187 713.823565 
L 295.932681 690.737705 
L 298.315175 679.39461 
L 300.697669 668.704761 
L 303.080164 655.329404 
L 305.462658 639.047315 
L 307.845152 625.934405 
L 310.227646 617.216813 
L 312.610141 608.942719 
L 314.992635 593.535624 
L 317.375129 592.119041 
L 319.757623 577.992348 
L 322.140117 562.472552 
L 324.522612 559.602342 
L 326.905106 546.589089 
L 329.2876 540.474566 
L 331.670094 530.052379 
L 334.052589 525.728542 
L 336.435083 516.476145 
L 338.817577 513.949254 
L 341.200071 503.233316 
L 343.582565 499.716122 
L 345.96506 491.348633 
L 348.347554 484.891312 
L 350.730048 482.386335 
L 353.112542 472.38208 
L 355.495036 464.862453 
L 357.877531 461.530484 
L 360.260025 454.138689 
L 362.642519 454.756455 
L 365.025013 446.407749 
L 367.407508 442.383924 
L 369.790002 438.098697 
L 372.172496 428.46124 
L 376.937484 422.951438 
L 379.319979 415.83409 
L 381.702473 415.345199 
L 386.467461 405.146849 
L 388.849956 402.132111 
L 391.23245 398.72553 
L 393.614944 390.691446 
L 395.997438 391.902455 
L 398.379932 384.388045 
L 400.762427 384.529443 
L 403.144921 380.173778 
L 405.527415 377.273305 
L 407.909909 373.549494 
L 410.292403 372.270134 
L 415.057392 367.243484 
L 417.439886 363.306793 
L 419.82238 361.842731 
L 422.204875 355.40315 
L 424.587369 355.377062 
L 426.969863 348.525812 
L 429.352357 352.641988 
L 431.734851 346.580685 
L 434.117346 346.826956 
L 436.49984 343.86022 
L 438.882334 338.443292 
L 441.264828 339.770654 
L 443.647323 334.325029 
L 446.029817 332.265114 
L 448.412311 329.000453 
L 450.794805 328.812618 
L 453.177299 327.10385 
L 455.559794 323.545958 
L 457.942288 317.254558 
L 460.324782 319.990153 
L 462.707276 320.975239 
L 465.089771 316.99159 
L 467.472265 315.095508 
L 469.854759 312.450178 
L 472.237253 310.118947 
L 474.619747 310.053727 
L 477.002242 308.984638 
L 479.384736 307.111514 
L 481.76723 306.844894 
L 484.149724 301.640323 
L 486.532218 302.020165 
L 488.914713 295.452231 
L 491.297207 300.922901 
L 493.679701 297.954599 
L 496.062195 298.979861 
L 498.44469 291.646503 
L 500.827184 295.465275 
L 503.209678 290.226268 
L 505.592172 292.387926 
L 507.974666 289.732682 
L 510.357161 287.662854 
L 512.739655 285.428149 
L 515.122149 286.360015 
L 517.504643 285.971825 
L 519.887138 284.942911 
L 522.269632 280.970219 
L 524.652126 282.769253 
L 527.03462 278.608204 
L 529.417114 279.184229 
L 531.799609 273.33163 
L 534.182103 280.532983 
L 536.564597 272.718039 
L 538.947091 272.354893 
L 541.329585 276.363586 
L 543.71208 268.99214 
L 546.094574 273.773041 
L 548.477068 270.39307 
L 550.859562 269.296327 
L 553.242057 268.640473 
L 555.624551 267.372592 
L 558.007045 267.399724 
L 560.389539 265.273546 
L 562.772033 263.674868 
L 565.154528 262.436728 
L 567.537022 266.234109 
L 569.919516 263.789134 
L 572.30201 256.084804 
L 574.684505 262.715871 
L 577.066999 255.599044 
L 579.449493 260.918924 
L 581.831987 261.592518 
L 584.214481 251.379558 
L 586.596976 258.311682 
L 591.361964 252.355774 
L 593.744458 257.356337 
L 596.126952 250.708573 
L 598.509447 251.027369 
L 600.891941 247.186161 
L 603.274435 250.958497 
L 605.656929 250.892755 
L 608.039424 251.706703 
L 610.421918 246.872061 
L 612.804412 245.645921 
L 615.186906 246.408215 
L 617.5694 246.659182 
L 619.951895 245.419999 
L 622.334389 241.759842 
L 624.716883 239.263735 
L 627.099377 243.638183 
L 629.481872 242.240906 
L 631.864366 241.875151 
L 634.24686 238.842151 
L 636.629354 237.386437 
L 639.011848 238.32352 
L 641.394343 237.906111 
L 643.776837 238.803541 
L 646.159331 236.943461 
L 648.541825 239.076422 
L 650.92432 236.268302 
L 653.306814 238.400219 
L 655.689308 232.035251 
L 658.071802 235.045293 
L 660.454296 234.065946 
L 662.836791 232.692148 
L 665.219285 231.971596 
L 667.601779 228.159084 
L 669.984273 233.893243 
L 672.366767 228.32657 
L 674.749262 228.979293 
L 677.131756 232.26326 
L 679.51425 228.943814 
L 681.896744 228.090734 
L 684.279239 230.83833 
L 686.661733 228.809199 
L 689.044227 228.89529 
L 691.426721 224.556843 
L 693.809215 226.385617 
L 696.19171 228.486229 
L 698.574204 224.891814 
L 700.956698 222.933643 
L 703.339192 222.81729 
L 705.721687 223.943251 
L 708.104181 221.994994 
L 710.486675 226.610496 
L 712.869169 222.639891 
L 715.251663 221.85151 
L 717.634158 219.013649 
L 720.016652 228.358919 
L 722.399146 219.081999 
L 724.78164 221.984037 
L 727.164134 221.01043 
L 729.546629 215.11296 
L 731.929123 218.142307 
L 734.311617 220.125001 
L 736.694111 216.294749 
L 739.076606 219.89073 
L 743.841594 213.75064 
L 746.224088 218.258138 
L 748.606582 215.404103 
L 750.989077 220.782942 
L 753.371571 215.766205 
L 755.754065 209.77847 
L 758.136559 216.71268 
L 760.519054 213.198617 
L 762.901548 216.373535 
L 765.284042 212.652854 
L 767.666536 211.093831 
L 770.04903 214.447714 
L 772.431525 211.566025 
L 774.814019 214.131526 
L 777.196513 211.374538 
L 779.579007 210.672769 
L 781.961502 212.121179 
L 784.343996 214.956431 
L 786.72649 208.645726 
L 789.108984 209.021394 
L 791.491478 212.753032 
L 793.873973 209.258274 
L 796.256467 208.287797 
L 798.638961 206.281103 
L 801.021455 208.13753 
L 803.403949 207.714381 
L 805.786444 206.891564 
L 808.168938 201.788736 
L 810.551432 205.547506 
L 812.933926 211.769512 
L 815.316421 206.331192 
L 817.698915 203.024267 
L 820.081409 201.125055 
L 822.463903 208.959304 
L 824.846397 205.939871 
L 827.228892 201.186623 
L 829.611386 206.151706 
L 831.99388 204.657903 
L 834.376374 202.587553 
L 836.758869 203.905001 
L 839.141363 201.126099 
L 841.523857 200.414416 
L 843.906351 203.031572 
L 846.288845 199.202364 
L 848.67134 198.583033 
L 851.053834 203.217841 
L 853.436328 204.220666 
L 855.818822 200.198407 
L 858.201316 198.093621 
L 860.583811 200.90435 
L 862.966305 201.94109 
L 865.348799 200.091968 
L 867.731293 199.054706 
L 870.113788 198.708778 
L 872.496282 197.689778 
L 874.878776 199.210191 
L 877.26127 196.761564 
L 879.643764 199.790911 
L 882.026259 201.733951 
L 884.408753 194.996967 
L 886.791247 196.907135 
L 889.173741 197.470116 
L 891.556236 194.042143 
L 893.93873 197.926657 
L 896.321224 196.36346 
L 898.703718 194.644777 
L 901.086212 196.467812 
L 903.468707 197.651167 
L 905.851201 190.007883 
L 908.233695 198.250671 
L 910.616189 194.232586 
L 912.998684 191.792829 
L 915.381178 192.755479 
L 917.763672 198.463028 
L 920.146166 191.709347 
L 922.52866 195.364287 
L 924.911155 191.590386 
L 927.293649 195.559947 
L 929.676143 192.861397 
L 932.058637 192.641735 
L 934.441131 190.725827 
L 936.823626 193.081058 
L 939.20612 192.676171 
L 941.588614 190.272938 
L 943.971108 190.900617 
L 946.353603 190.991403 
L 948.736097 190.665302 
L 951.118591 191.854919 
L 953.501085 190.033449 
L 955.883579 187.143934 
L 958.266074 191.662389 
L 960.648568 191.803264 
L 963.031062 189.631171 
L 965.413556 187.954751 
L 967.796051 186.125977 
L 970.178545 187.282723 
L 972.561039 186.23033 
L 974.943533 191.920139 
L 977.326027 189.625432 
L 979.708522 188.129542 
L 982.091016 181.201592 
L 984.47351 188.08467 
L 986.856004 187.50708 
L 989.238498 187.427772 
L 991.620993 185.105412 
L 994.003487 185.504559 
L 996.385981 187.527429 
L 998.768475 185.916229 
L 1001.15097 186.962883 
L 1003.533464 186.79331 
L 1005.915958 183.938753 
L 1008.298452 188.576691 
L 1010.680946 186.487036 
L 1013.063441 181.732224 
L 1015.445935 187.570735 
L 1017.828429 187.059409 
L 1020.210923 183.209331 
L 1022.593418 181.454647 
L 1024.975912 184.109891 
L 1027.358406 184.446427 
L 1029.7409 186.529299 
L 1032.123394 183.296986 
L 1034.505889 184.362945 
L 1036.888383 178.387732 
L 1039.270877 185.566649 
L 1041.653371 182.997495 
L 1044.035866 181.254812 
L 1046.41836 179.781357 
L 1048.800854 184.053019 
L 1051.183348 181.553781 
L 1053.565842 180.067283 
L 1055.948337 182.568086 
L 1058.330831 181.599696 
L 1060.713325 181.61274 
L 1063.095819 180.127807 
L 1065.478313 181.287683 
L 1067.860808 178.902189 
L 1070.243302 181.549085 
L 1072.625796 181.2809 
L 1075.00829 179.63109 
L 1077.390785 183.330901 
L 1079.773279 178.151896 
L 1082.155773 182.283204 
L 1084.538267 178.073632 
L 1086.920761 179.493867 
L 1089.303256 176.179638 
L 1091.68575 182.047889 
L 1094.068244 178.072589 
L 1096.450738 179.709354 
L 1098.833233 182.993843 
L 1101.215727 178.145113 
L 1103.598221 177.879537 
L 1105.980715 179.465692 
L 1108.363209 178.462344 
L 1110.745704 178.447735 
L 1113.128198 176.876189 
L 1115.510692 175.524305 
L 1117.893186 178.038152 
L 1120.27568 176.684703 
L 1122.658175 177.646831 
L 1125.040669 177.974497 
L 1127.423163 177.044718 
L 1129.805657 178.473823 
L 1132.188152 176.474433 
L 1134.570646 176.009022 
L 1136.95314 173.140899 
L 1139.335634 180.233203 
L 1144.100623 172.266426 
L 1146.483117 170.676097 
L 1148.865611 177.641613 
L 1151.248105 169.853279 
L 1153.6306 172.609224 
L 1156.013094 177.775184 
L 1158.395588 174.412953 
L 1160.778082 174.672791 
L 1163.160576 174.558003 
L 1165.543071 177.79762 
L 1167.925565 172.472522 
L 1170.308059 172.85393 
L 1172.690553 178.937669 
L 1175.073048 175.038545 
L 1177.455542 175.366212 
L 1179.838036 172.987501 
L 1182.22053 175.083417 
L 1184.603024 173.115854 
L 1186.985519 176.078938 
L 1189.368013 176.027283 
L 1191.750507 172.043113 
L 1194.133001 172.754273 
L 1196.515495 172.605571 
L 1198.89799 176.374777 
L 1201.280484 172.985936 
L 1203.662978 168.706448 
L 1206.045472 174.44739 
L 1208.427967 169.383694 
L 1210.810461 168.358955 
L 1213.192955 172.091636 
L 1215.575449 171.810407 
L 1217.957943 173.341255 
L 1220.340438 173.856756 
L 1222.722932 170.512786 
L 1225.105426 172.69114 
L 1227.48792 169.40926 
L 1229.870415 172.801754 
L 1232.252909 170.402173 
L 1234.635403 170.887933 
L 1237.017897 172.665574 
L 1239.400391 172.032156 
L 1241.782886 170.895237 
L 1244.16538 169.535527 
L 1246.547874 169.499003 
L 1248.930368 170.858192 
L 1251.312862 169.714491 
L 1253.695357 168.947502 
L 1256.077851 171.983632 
L 1258.460345 170.05781 
L 1260.842839 168.389738 
L 1263.225334 167.350911 
L 1265.607828 168.86715 
L 1267.990322 171.454566 
L 1270.372816 173.076722 
L 1272.75531 167.062377 
L 1275.137805 168.183121 
L 1277.520299 169.836583 
L 1279.902793 168.135641 
L 1282.285287 167.616488 
L 1284.667782 171.413346 
L 1287.050276 171.050722 
L 1289.43277 168.84941 
L 1291.815264 165.469439 
L 1294.197758 170.155901 
L 1296.580253 166.086683 
L 1298.962747 172.48661 
L 1301.345241 164.919503 
L 1303.727735 169.446306 
L 1306.110229 170.251384 
L 1308.492724 168.186773 
L 1310.875218 168.799843 
L 1313.257712 172.243991 
L 1315.640206 167.737015 
L 1318.022701 168.554615 
L 1320.405195 168.444523 
L 1322.787689 168.859846 
L 1325.170183 165.190297 
L 1327.552677 167.137511 
L 1329.935172 165.347869 
L 1334.70016 168.352172 
L 1337.082654 165.753799 
L 1339.465149 163.917721 
L 1341.847643 171.581354 
L 1344.230137 168.032854 
L 1346.612631 168.870803 
L 1348.995125 164.864196 
L 1351.37762 166.927763 
L 1353.760114 166.056421 
L 1356.142608 166.026681 
L 1358.525102 167.595096 
L 1360.907597 168.697578 
L 1363.290091 161.391873 
L 1365.672585 164.732712 
L 1368.055079 164.555835 
L 1370.437573 167.709361 
L 1372.820068 165.377609 
L 1375.202562 165.349956 
L 1377.585056 162.397829 
L 1379.96755 165.747538 
L 1382.350044 167.049333 
L 1384.732539 164.139469 
L 1387.115033 163.322912 
L 1389.497527 164.820368 
L 1391.880021 169.783885 
L 1394.262516 160.328001 
L 1396.64501 165.187688 
L 1399.027504 166.217124 
L 1401.409998 168.083464 
L 1403.792492 163.620838 
L 1406.174987 165.452743 
L 1408.557481 164.942982 
L 1410.939975 166.341303 
L 1413.322469 162.509486 
L 1415.704964 164.46557 
L 1418.087458 163.188298 
L 1420.469952 160.115644 
L 1422.852446 164.158774 
L 1425.23494 160.475138 
L 1427.617435 163.290563 
L 1429.999929 162.746888 
L 1432.382423 160.841936 
L 1434.764917 166.081466 
L 1437.147411 163.099599 
L 1439.529906 162.607577 
L 1441.9124 163.315086 
L 1444.294894 163.206038 
L 1446.677388 163.993376 
L 1451.442377 161.635014 
L 1453.824871 162.9222 
L 1456.207365 167.857542 
L 1458.589859 158.098514 
L 1460.972354 169.360215 
L 1463.354848 156.24 
L 1465.737342 164.61949 
L 1468.119836 161.652754 
L 1470.502331 161.171168 
L 1472.884825 165.586836 
L 1475.267319 162.029466 
L 1477.649813 162.509486 
L 1480.032307 162.62323 
L 1482.414802 160.115123 
L 1484.797296 165.476222 
L 1487.17979 159.789022 
L 1489.562284 160.416701 
L 1491.944779 162.352958 
L 1494.327273 162.401482 
L 1494.327273 162.401482 
" clip-path="url(#p1fbe29d2b5)" style="fill: none; stroke: #00c9a7; stroke-width: 2.25; stroke-linecap: round"/>
   </g>
   <g id="line2d_16">
    <path d="M 276.872727 861.84 
L 279.255221 833.723316 
L 281.637716 817.87481 
L 284.02021 804.43319 
L 286.402704 790.167709 
L 288.785198 775.100802 
L 291.167693 763.33508 
L 293.550187 756.820887 
L 295.932681 738.439229 
L 298.315175 723.069701 
L 300.697669 706.863267 
L 303.080164 694.285684 
L 305.462658 682.882064 
L 310.227646 657.290706 
L 312.610141 642.146056 
L 314.992635 636.795392 
L 317.375129 625.91823 
L 319.757623 613.255078 
L 322.140117 598.9609 
L 324.522612 590.002777 
L 326.905106 582.321925 
L 329.2876 572.260277 
L 331.670094 566.191147 
L 334.052589 548.559782 
L 336.435083 546.390819 
L 338.817577 534.588052 
L 341.200071 526.744933 
L 343.582565 515.421665 
L 345.96506 505.386626 
L 348.347554 500.654249 
L 350.730048 488.67304 
L 353.112542 485.416204 
L 355.495036 476.628175 
L 357.877531 471.372472 
L 360.260025 463.335257 
L 362.642519 461.917631 
L 365.025013 454.576447 
L 367.407508 444.026429 
L 369.790002 443.261005 
L 372.172496 432.759511 
L 374.55499 432.221575 
L 376.937484 426.429501 
L 379.319979 420.165754 
L 381.702473 416.620384 
L 384.084967 408.507515 
L 386.467461 406.154892 
L 388.849956 397.182159 
L 391.23245 396.017588 
L 393.614944 391.479828 
L 395.997438 384.305085 
L 398.379932 381.647754 
L 400.762427 384.829456 
L 403.144921 374.476142 
L 405.527415 376.568406 
L 407.909909 367.538801 
L 410.292403 368.864597 
L 412.674898 362.145352 
L 415.057392 361.6262 
L 417.439886 358.374582 
L 419.82238 353.503938 
L 422.204875 350.859651 
L 424.587369 347.90909 
L 426.969863 342.119102 
L 429.352357 343.269586 
L 431.734851 341.55873 
L 434.117346 339.403855 
L 436.49984 337.900139 
L 438.882334 333.505341 
L 443.647323 330.75305 
L 446.029817 328.021628 
L 448.412311 327.439864 
L 450.794805 326.31912 
L 453.177299 320.164421 
L 455.559794 322.514957 
L 457.942288 318.509916 
L 460.324782 320.751403 
L 462.707276 320.03659 
L 465.089771 314.398957 
L 467.472265 316.266863 
L 469.854759 311.290824 
L 472.237253 307.992769 
L 474.619747 311.940938 
L 477.002242 309.202212 
L 479.384736 307.611883 
L 481.76723 305.261869 
L 484.149724 302.729239 
L 486.532218 305.169518 
L 488.914713 300.747067 
L 491.297207 299.750503 
L 493.679701 300.519579 
L 496.062195 297.935816 
L 498.44469 297.808506 
L 500.827184 294.045562 
L 503.209678 295.792941 
L 505.592172 294.03617 
L 507.974666 289.194745 
L 510.357161 288.141831 
L 512.739655 286.832209 
L 515.122149 292.580978 
L 517.504643 284.197314 
L 519.887138 283.996436 
L 522.269632 277.762951 
L 524.652126 286.403321 
L 527.03462 279.698686 
L 529.417114 278.04418 
L 531.799609 279.164402 
L 534.182103 278.259668 
L 536.564597 274.090793 
L 538.947091 277.447807 
L 541.329585 275.17971 
L 543.71208 271.766868 
L 546.094574 273.778258 
L 548.477068 268.487597 
L 550.859562 270.517771 
L 553.242057 267.968966 
L 555.624551 268.887788 
L 558.007045 268.905528 
L 560.389539 265.232848 
L 562.772033 267.776957 
L 565.154528 263.065451 
L 567.537022 264.278025 
L 569.919516 261.822093 
L 572.30201 263.270503 
L 574.684505 260.866748 
L 577.066999 255.235898 
L 579.449493 256.427079 
L 581.831987 260.631434 
L 584.214481 255.10024 
L 586.596976 257.886446 
L 588.97947 252.705876 
L 591.361964 257.011452 
L 593.744458 253.279814 
L 596.126952 254.938494 
L 598.509447 253.671657 
L 600.891941 253.84749 
L 603.274435 251.812621 
L 605.656929 255.620436 
L 608.039424 250.270815 
L 610.421918 248.552655 
L 615.186906 244.871105 
L 617.5694 247.871756 
L 619.951895 247.1799 
L 622.334389 245.066766 
L 624.716883 243.896977 
L 627.099377 240.711101 
L 629.481872 241.604357 
L 631.864366 241.836541 
L 634.24686 242.735536 
L 636.629354 242.824757 
L 639.011848 237.610272 
L 641.394343 237.914981 
L 643.776837 239.820454 
L 646.159331 239.216254 
L 648.541825 239.414002 
L 650.92432 234.454659 
L 653.306814 237.845587 
L 655.689308 237.86124 
L 658.071802 233.852024 
L 660.454296 234.918505 
L 662.836791 233.770108 
L 665.219285 234.455702 
L 667.601779 233.54262 
L 669.984273 233.931332 
L 672.366767 233.651668 
L 674.749262 231.035034 
L 677.131756 235.473137 
L 679.51425 230.469966 
L 681.896744 231.594362 
L 684.279239 227.202696 
L 686.661733 228.872332 
L 689.044227 230.181432 
L 691.426721 228.997555 
L 693.809215 223.218003 
L 696.19171 231.914724 
L 698.574204 229.531317 
L 700.956698 222.976949 
L 703.339192 226.185782 
L 705.721687 225.85342 
L 710.486675 223.839421 
L 712.869169 227.796982 
L 715.251663 220.786073 
L 717.634158 224.760852 
L 720.016652 222.645109 
L 722.399146 219.479582 
L 724.78164 224.747808 
L 727.164134 218.067173 
L 729.546629 221.149219 
L 731.929123 220.438579 
L 734.311617 219.439928 
L 736.694111 218.785639 
L 739.076606 216.151265 
L 741.4591 216.010389 
L 743.841594 220.941557 
L 746.224088 219.323575 
L 748.606582 216.921385 
L 750.989077 216.299967 
L 753.371571 216.369361 
L 755.754065 214.373624 
L 758.136559 210.869473 
L 760.519054 218.58737 
L 762.901548 214.427887 
L 765.284042 212.900169 
L 767.666536 215.120786 
L 770.04903 212.889734 
L 772.431525 213.172529 
L 774.814019 211.999087 
L 777.196513 213.976041 
L 779.579007 208.562766 
L 781.961502 210.97226 
L 784.343996 210.079005 
L 786.72649 213.017565 
L 789.108984 208.872692 
L 791.491478 212.505717 
L 793.873973 211.734554 
L 796.256467 207.218186 
L 798.638961 210.509458 
L 801.021455 204.455459 
L 803.403949 212.151441 
L 805.786444 207.109138 
L 808.168938 205.185403 
L 810.551432 208.99635 
L 812.933926 202.711732 
L 815.316421 209.510806 
L 817.698915 205.586638 
L 820.081409 206.918173 
L 822.463903 207.203577 
L 824.846397 204.411109 
L 827.228892 202.304758 
L 829.611386 205.744732 
L 831.99388 206.522156 
L 834.376374 200.831304 
L 836.758869 207.054353 
L 839.141363 198.909134 
L 841.523857 208.898258 
L 843.906351 203.669686 
L 846.288845 203.156273 
L 848.67134 203.215232 
L 851.053834 201.75743 
L 853.436328 202.947047 
L 855.818822 199.82326 
L 858.201316 201.361935 
L 862.966305 202.628772 
L 865.348799 201.182971 
L 867.731293 198.331544 
L 870.113788 198.714517 
L 872.496282 202.177448 
L 874.878776 201.264366 
L 877.26127 198.373285 
L 879.643764 198.827739 
L 882.026259 196.809566 
L 884.408753 199.30463 
L 886.791247 196.669734 
L 889.173741 195.188975 
L 891.556236 197.472203 
L 893.93873 199.951092 
L 896.321224 195.630385 
L 898.703718 193.192715 
L 901.086212 195.349156 
L 903.468707 189.866486 
L 905.851201 198.783912 
L 908.233695 195.652299 
L 910.616189 193.476032 
L 912.998684 196.691126 
L 915.381178 195.250543 
L 917.763672 195.853699 
L 920.146166 195.656473 
L 924.911155 190.786873 
L 927.293649 192.558775 
L 929.676143 197.330284 
L 932.058637 190.968968 
L 934.441131 188.02258 
L 936.823626 193.582471 
L 939.20612 194.251369 
L 941.588614 189.3969 
L 943.971108 194.125625 
L 946.353603 183.304291 
L 948.736097 193.728043 
L 951.118591 192.405899 
L 953.501085 190.643388 
L 955.883579 189.402118 
L 958.266074 188.425902 
L 960.648568 192.932878 
L 963.031062 189.558125 
L 965.413556 187.77944 
L 967.796051 186.886706 
L 970.178545 189.023841 
L 972.561039 189.094279 
L 974.943533 191.94414 
L 977.326027 187.589518 
L 979.708522 184.337379 
L 982.091016 191.386377 
L 984.47351 185.5343 
L 986.856004 187.661521 
L 989.238498 186.520951 
L 991.620993 191.380116 
L 994.003487 184.985928 
L 996.385981 184.185025 
L 998.768475 188.307984 
L 1001.15097 185.524386 
L 1003.533464 190.75035 
L 1005.915958 185.144544 
L 1008.298452 188.429033 
L 1010.680946 185.110629 
L 1013.063441 183.388816 
L 1015.445935 188.558951 
L 1017.828429 179.43543 
L 1020.210923 186.620086 
L 1022.593418 186.201633 
L 1024.975912 184.649392 
L 1027.358406 185.346987 
L 1029.7409 181.875708 
L 1032.123394 182.661481 
L 1034.505889 183.79579 
L 1036.888383 183.348119 
L 1039.270877 187.566561 
L 1041.653371 185.687176 
L 1044.035866 180.395471 
L 1046.41836 187.209676 
L 1048.800854 180.094414 
L 1051.183348 180.93445 
L 1053.565842 181.426993 
L 1055.948337 184.659828 
L 1058.330831 183.209331 
L 1060.713325 178.279206 
L 1063.095819 181.624219 
L 1065.478313 181.178635 
L 1067.860808 182.9928 
L 1070.243302 182.33538 
L 1072.625796 183.346032 
L 1075.00829 178.991411 
L 1077.390785 178.923582 
L 1079.773279 180.223811 
L 1082.155773 181.650829 
L 1084.538267 178.832273 
L 1086.920761 179.663439 
L 1089.303256 178.781662 
L 1091.68575 181.308032 
L 1094.068244 178.7394 
L 1096.450738 178.960627 
L 1098.833233 178.600611 
L 1101.215727 180.474257 
L 1103.598221 182.551389 
L 1105.980715 178.638178 
L 1108.363209 175.179943 
L 1110.745704 181.792226 
L 1113.128198 176.285034 
L 1115.510692 179.728138 
L 1117.893186 179.641004 
L 1120.27568 179.306033 
L 1122.658175 173.465956 
L 1125.040669 175.54048 
L 1127.423163 178.021978 
L 1129.805657 179.091067 
L 1132.188152 178.242683 
L 1134.570646 175.775794 
L 1136.95314 180.097545 
L 1139.335634 173.590135 
L 1141.718128 179.360818 
L 1144.100623 177.685441 
L 1146.483117 179.52152 
L 1148.865611 173.918323 
L 1151.248105 178.424256 
L 1153.6306 170.329126 
L 1156.013094 182.379208 
L 1158.395588 175.273338 
L 1160.778082 177.989107 
L 1163.160576 173.356386 
L 1165.543071 173.098636 
L 1167.925565 172.398432 
L 1170.308059 174.724967 
L 1172.690553 174.264773 
L 1175.073048 174.723401 
L 1177.455542 175.60257 
L 1179.838036 174.191205 
L 1182.22053 170.846192 
L 1184.603024 177.799185 
L 1186.985519 173.034981 
L 1189.368013 170.633313 
L 1191.750507 174.095722 
L 1194.133001 175.057851 
L 1196.515495 175.435606 
L 1198.89799 171.136291 
L 1201.280484 174.439563 
L 1203.662978 173.266643 
L 1206.045472 174.884104 
L 1208.427967 177.666136 
L 1210.810461 168.171642 
L 1213.192955 172.20538 
L 1215.575449 173.108028 
L 1217.957943 172.518959 
L 1220.340438 173.986674 
L 1222.722932 173.32195 
L 1225.105426 173.025589 
L 1227.48792 171.210381 
L 1229.870415 173.784752 
L 1232.252909 169.991546 
L 1234.635403 174.886713 
L 1237.017897 165.404219 
L 1239.400391 170.580093 
L 1241.782886 170.228426 
L 1244.16538 174.648268 
L 1246.547874 173.072026 
L 1248.930368 168.945936 
L 1251.312862 171.710229 
L 1253.695357 170.24147 
L 1256.077851 170.849322 
L 1258.460345 169.967545 
L 1260.842839 171.269862 
L 1263.225334 172.026938 
L 1265.607828 171.157683 
L 1267.990322 170.016069 
L 1270.372816 169.198469 
L 1272.75531 174.196944 
L 1275.137805 167.334215 
L 1277.520299 168.21234 
L 1279.902793 172.006067 
L 1282.285287 166.20721 
L 1284.667782 167.459959 
L 1287.050276 167.552833 
L 1289.43277 168.933936 
L 1291.815264 168.34278 
L 1294.197758 170.539396 
L 1296.580253 169.369085 
L 1298.962747 168.333388 
L 1301.345241 171.74623 
L 1303.727735 165.106293 
L 1306.110229 168.705404 
L 1308.492724 171.226556 
L 1310.875218 164.664361 
L 1313.257712 167.001853 
L 1315.640206 166.496788 
L 1318.022701 171.872497 
L 1320.405195 165.020724 
L 1322.787689 169.229253 
L 1325.170183 165.438134 
L 1327.552677 166.659056 
L 1329.935172 169.172381 
L 1332.317666 171.0502 
L 1334.70016 166.869325 
L 1337.082654 167.838758 
L 1339.465149 165.445438 
L 1341.847643 166.391914 
L 1344.230137 163.627621 
L 1346.612631 171.528134 
L 1348.995125 168.727318 
L 1351.37762 164.527138 
L 1353.760114 162.280433 
L 1356.142608 170.618704 
L 1358.525102 162.618013 
L 1360.907597 162.794368 
L 1363.290091 166.45296 
L 1365.672585 165.889457 
L 1368.055079 168.880194 
L 1370.437573 167.681186 
L 1372.820068 164.1546 
L 1375.202562 163.131426 
L 1377.585056 166.787409 
L 1379.96755 167.468308 
L 1382.350044 165.785627 
L 1387.115033 164.869414 
L 1389.497527 164.156166 
L 1391.880021 165.429264 
L 1394.262516 168.081377 
L 1396.64501 160.673929 
L 1399.027504 164.301737 
L 1401.409998 167.530397 
L 1403.792492 163.560836 
L 1406.174987 166.524963 
L 1408.557481 161.612056 
L 1410.939975 163.554575 
L 1413.322469 164.918459 
L 1415.704964 162.695755 
L 1418.087458 165.093249 
L 1420.469952 166.089814 
L 1422.852446 163.738756 
L 1425.23494 163.430395 
L 1427.617435 163.883284 
L 1429.999929 161.860415 
L 1432.382423 164.511485 
L 1434.764917 171.315255 
L 1437.147411 163.467962 
L 1439.529906 162.488616 
L 1441.9124 161.020901 
L 1444.294894 162.568445 
L 1446.677388 165.021768 
L 1449.059883 161.931375 
L 1451.442377 158.038512 
L 1453.824871 165.850325 
L 1456.207365 163.45857 
L 1458.589859 161.80563 
L 1460.972354 161.833283 
L 1463.354848 163.16534 
L 1465.737342 158.878548 
L 1468.119836 164.134252 
L 1470.502331 164.047639 
L 1472.884825 163.248822 
L 1475.267319 164.783323 
L 1477.649813 163.000986 
L 1482.414802 161.294304 
L 1484.797296 163.293172 
L 1487.17979 160.987508 
L 1489.562284 161.69293 
L 1494.327273 162.544966 
L 1494.327273 162.544966 
" clip-path="url(#p1fbe29d2b5)" style="fill: none; stroke: #ffc75f; stroke-width: 2.25; stroke-linecap: round"/>
   </g>
   <g id="patch_3">
    <path d="M 216 897.12 
L 216 120.96 
" style="fill: none; stroke: #262626; stroke-width: 1.875; stroke-linejoin: miter; stroke-linecap: square"/>
   </g>
   <g id="patch_4">
    <path d="M 1555.2 897.12 
L 1555.2 120.96 
" style="fill: none; stroke: #262626; stroke-width: 1.875; stroke-linejoin: miter; stroke-linecap: square"/>
   </g>
   <g id="patch_5">
    <path d="M 216 897.12 
L 1555.2 897.12 
" style="fill: none; stroke: #262626; stroke-width: 1.875; stroke-linejoin: miter; stroke-linecap: square"/>
   </g>
   <g id="patch_6">
    <path d="M 216 120.96 
L 1555.2 120.96 
" style="fill: none; stroke: #262626; stroke-width: 1.875; stroke-linejoin: miter; stroke-linecap: square"/>
   </g>
   <g id="text_17">
    <!-- Df(Z) -->
    <g style="fill: #262626" transform="translate(820.916406 110.561563)scale(0.5 -0.5)">
     <use xlink:href="#DejaVuSans-44"/>
     <use xlink:href="#DejaVuSans-66" x="77.001953"/>
     <use xlink:href="#DejaVuSans-28" x="112.207031"/>
     <use xlink:href="#DejaVuSans-5a" x="151.220703"/>
     <use xlink:href="#DejaVuSans-29" x="219.726562"/>
    </g>
   </g>
   <g id="legend_1">
    <g id="patch_7">
     <path d="M 227.55 182.597813 
L 361.029844 182.597813 
Q 364.329844 182.597813 364.329844 179.297813 
L 364.329844 132.51 
Q 364.329844 129.21 361.029844 129.21 
L 227.55 129.21 
Q 224.25 129.21 224.25 132.51 
L 224.25 179.297813 
Q 224.25 182.597813 227.55 182.597813 
z
" style="fill: #ffffff; opacity: 0.8; stroke: #cccccc; stroke-width: 1.5; stroke-linejoin: miter"/>
    </g>
    <g id="line2d_17">
     <path d="M 230.85 142.572422 
L 247.35 142.572422 
L 263.85 142.572422 
" style="fill: none; stroke: #00c9a7; stroke-width: 2.25; stroke-linecap: round"/>
    </g>
    <g id="text_18">
     <!-- df trace -->
     <g style="fill: #262626" transform="translate(277.05 148.347422)scale(0.165 -0.165)">
      <defs>
       <path id="DejaVuSans-64" d="M 2906 2969 
L 2906 4863 
L 3481 4863 
L 3481 0 
L 2906 0 
L 2906 525 
Q 2725 213 2448 61 
Q 2172 -91 1784 -91 
Q 1150 -91 751 415 
Q 353 922 353 1747 
Q 353 2572 751 3078 
Q 1150 3584 1784 3584 
Q 2172 3584 2448 3432 
Q 2725 3281 2906 2969 
z
M 947 1747 
Q 947 1113 1208 752 
Q 1469 391 1925 391 
Q 2381 391 2643 752 
Q 2906 1113 2906 1747 
Q 2906 2381 2643 2742 
Q 2381 3103 1925 3103 
Q 1469 3103 1208 2742 
Q 947 2381 947 1747 
z
" transform="scale(0.015625)"/>
       <path id="DejaVuSans-74" d="M 1172 4494 
L 1172 3500 
L 2356 3500 
L 2356 3053 
L 1172 3053 
L 1172 1153 
Q 1172 725 1289 603 
Q 1406 481 1766 481 
L 2356 481 
L 2356 0 
L 1766 0 
Q 1100 0 847 248 
Q 594 497 594 1153 
L 594 3053 
L 172 3053 
L 172 3500 
L 594 3500 
L 594 4494 
L 1172 4494 
z
" transform="scale(0.015625)"/>
       <path id="DejaVuSans-72" d="M 2631 2963 
Q 2534 3019 2420 3045 
Q 2306 3072 2169 3072 
Q 1681 3072 1420 2755 
Q 1159 2438 1159 1844 
L 1159 0 
L 581 0 
L 581 3500 
L 1159 3500 
L 1159 2956 
Q 1341 3275 1631 3429 
Q 1922 3584 2338 3584 
Q 2397 3584 2469 3576 
Q 2541 3569 2628 3553 
L 2631 2963 
z
" transform="scale(0.015625)"/>
       <path id="DejaVuSans-61" d="M 2194 1759 
Q 1497 1759 1228 1600 
Q 959 1441 959 1056 
Q 959 750 1161 570 
Q 1363 391 1709 391 
Q 2188 391 2477 730 
Q 2766 1069 2766 1631 
L 2766 1759 
L 2194 1759 
z
M 3341 1997 
L 3341 0 
L 2766 0 
L 2766 531 
Q 2569 213 2275 61 
Q 1981 -91 1556 -91 
Q 1019 -91 701 211 
Q 384 513 384 1019 
Q 384 1609 779 1909 
Q 1175 2209 1959 2209 
L 2766 2209 
L 2766 2266 
Q 2766 2663 2505 2880 
Q 2244 3097 1772 3097 
Q 1472 3097 1187 3025 
Q 903 2953 641 2809 
L 641 3341 
Q 956 3463 1253 3523 
Q 1550 3584 1831 3584 
Q 2591 3584 2966 3190 
Q 3341 2797 3341 1997 
z
" transform="scale(0.015625)"/>
       <path id="DejaVuSans-63" d="M 3122 3366 
L 3122 2828 
Q 2878 2963 2633 3030 
Q 2388 3097 2138 3097 
Q 1578 3097 1268 2742 
Q 959 2388 959 1747 
Q 959 1106 1268 751 
Q 1578 397 2138 397 
Q 2388 397 2633 464 
Q 2878 531 3122 666 
L 3122 134 
Q 2881 22 2623 -34 
Q 2366 -91 2075 -91 
Q 1284 -91 818 406 
Q 353 903 353 1747 
Q 353 2603 823 3093 
Q 1294 3584 2113 3584 
Q 2378 3584 2631 3529 
Q 2884 3475 3122 3366 
z
" transform="scale(0.015625)"/>
       <path id="DejaVuSans-65" d="M 3597 1894 
L 3597 1613 
L 953 1613 
Q 991 1019 1311 708 
Q 1631 397 2203 397 
Q 2534 397 2845 478 
Q 3156 559 3463 722 
L 3463 178 
Q 3153 47 2828 -22 
Q 2503 -91 2169 -91 
Q 1331 -91 842 396 
Q 353 884 353 1716 
Q 353 2575 817 3079 
Q 1281 3584 2069 3584 
Q 2775 3584 3186 3129 
Q 3597 2675 3597 1894 
z
M 3022 2063 
Q 3016 2534 2758 2815 
Q 2500 3097 2075 3097 
Q 1594 3097 1305 2825 
Q 1016 2553 972 2059 
L 3022 2063 
z
" transform="scale(0.015625)"/>
      </defs>
      <use xlink:href="#DejaVuSans-64"/>
      <use xlink:href="#DejaVuSans-66" x="63.476562"/>
      <use xlink:href="#DejaVuSans-20" x="98.681641"/>
      <use xlink:href="#DejaVuSans-74" x="130.46875"/>
      <use xlink:href="#DejaVuSans-72" x="169.677734"/>
      <use xlink:href="#DejaVuSans-61" x="210.791016"/>
      <use xlink:href="#DejaVuSans-63" x="272.070312"/>
      <use xlink:href="#DejaVuSans-65" x="327.050781"/>
     </g>
    </g>
    <g id="line2d_18">
     <path d="M 230.85 166.791328 
L 247.35 166.791328 
L 263.85 166.791328 
" style="fill: none; stroke: #ffc75f; stroke-width: 2.25; stroke-linecap: round"/>
    </g>
    <g id="text_19">
     <!-- df retrace -->
     <g style="fill: #262626" transform="translate(277.05 172.566328)scale(0.165 -0.165)">
      <use xlink:href="#DejaVuSans-64"/>
      <use xlink:href="#DejaVuSans-66" x="63.476562"/>
      <use xlink:href="#DejaVuSans-20" x="98.681641"/>
      <use xlink:href="#DejaVuSans-72" x="130.46875"/>
      <use xlink:href="#DejaVuSans-65" x="169.332031"/>
      <use xlink:href="#DejaVuSans-74" x="230.855469"/>
      <use xlink:href="#DejaVuSans-72" x="270.064453"/>
      <use xlink:href="#DejaVuSans-61" x="311.177734"/>
      <use xlink:href="#DejaVuSans-63" x="372.457031"/>
      <use xlink:href="#DejaVuSans-65" x="427.4375"/>
     </g>
    </g>
   </g>
  </g>
 </g>
 <defs>
  <clipPath id="p1fbe29d2b5">
   <rect x="216" y="120.96" width="1339.2" height="776.16"/>
  </clipPath>
 </defs>
</svg>
