<?xml version="1.0" encoding="utf-8" standalone="no"?>
<!DOCTYPE svg PUBLIC "-//W3C//DTD SVG 1.1//EN"
  "http://www.w3.org/Graphics/SVG/1.1/DTD/svg11.dtd">
<svg xmlns:xlink="http://www.w3.org/1999/xlink" width="1728pt" height="1008pt" viewBox="0 0 1728 1008" xmlns="http://www.w3.org/2000/svg" version="1.1">
 <metadata>
  <rdf:RDF xmlns:dc="http://purl.org/dc/elements/1.1/" xmlns:cc="http://creativecommons.org/ns#" xmlns:rdf="http://www.w3.org/1999/02/22-rdf-syntax-ns#">
   <cc:Work>
    <dc:type rdf:resource="http://purl.org/dc/dcmitype/StillImage"/>
    <dc:date>2022-10-31T12:29:21.803926</dc:date>
    <dc:format>image/svg+xml</dc:format>
    <dc:creator>
     <cc:Agent>
      <dc:title>Matplotlib v3.5.2, https://matplotlib.org/</dc:title>
     </cc:Agent>
    </dc:creator>
   </cc:Work>
  </rdf:RDF>
 </metadata>
 <defs>
  <style type="text/css">*{stroke-linejoin: round; stroke-linecap: butt}</style>
 </defs>
 <g id="figure_1">
  <g id="patch_1">
   <path d="M 0 1008 
L 1728 1008 
L 1728 0 
L 0 0 
z
" style="fill: #ffffff"/>
  </g>
  <g id="axes_1">
   <g id="patch_2">
    <path d="M 216 897.12 
L 1555.2 897.12 
L 1555.2 120.96 
L 216 120.96 
L 216 897.12 
z
" style="fill: none"/>
   </g>
   <g id="matplotlib.axis_1">
    <g id="xtick_1">
     <g id="line2d_1">
      <defs>
       <path id="m9b2e883630" d="M 0 0 
L 0 9 
" style="stroke: #262626; stroke-width: 1.875"/>
      </defs>
      <g>
       <use xlink:href="#m9b2e883630" x="440.43649" y="897.12" style="fill: #262626; stroke: #262626; stroke-width: 1.875"/>
      </g>
     </g>
     <g id="text_1">
      <!-- 0.0 -->
      <g style="fill: #262626" transform="translate(402.26899 946.0925)scale(0.48 -0.48)">
       <defs>
        <path id="DejaVuSans-30" d="M 2034 4250 
Q 1547 4250 1301 3770 
Q 1056 3291 1056 2328 
Q 1056 1369 1301 889 
Q 1547 409 2034 409 
Q 2525 409 2770 889 
Q 3016 1369 3016 2328 
Q 3016 3291 2770 3770 
Q 2525 4250 2034 4250 
z
M 2034 4750 
Q 2819 4750 3233 4129 
Q 3647 3509 3647 2328 
Q 3647 1150 3233 529 
Q 2819 -91 2034 -91 
Q 1250 -91 836 529 
Q 422 1150 422 2328 
Q 422 3509 836 4129 
Q 1250 4750 2034 4750 
z
" transform="scale(0.015625)"/>
        <path id="DejaVuSans-2e" d="M 684 794 
L 1344 794 
L 1344 0 
L 684 0 
L 684 794 
z
" transform="scale(0.015625)"/>
       </defs>
       <use xlink:href="#DejaVuSans-30"/>
       <use xlink:href="#DejaVuSans-2e" x="63.623047"/>
       <use xlink:href="#DejaVuSans-30" x="95.410156"/>
      </g>
     </g>
    </g>
    <g id="xtick_2">
     <g id="line2d_2">
      <g>
       <use xlink:href="#m9b2e883630" x="704.249012" y="897.12" style="fill: #262626; stroke: #262626; stroke-width: 1.875"/>
      </g>
     </g>
     <g id="text_2">
      <!-- 0.5 -->
      <g style="fill: #262626" transform="translate(666.081512 946.0925)scale(0.48 -0.48)">
       <defs>
        <path id="DejaVuSans-35" d="M 691 4666 
L 3169 4666 
L 3169 4134 
L 1269 4134 
L 1269 2991 
Q 1406 3038 1543 3061 
Q 1681 3084 1819 3084 
Q 2600 3084 3056 2656 
Q 3513 2228 3513 1497 
Q 3513 744 3044 326 
Q 2575 -91 1722 -91 
Q 1428 -91 1123 -41 
Q 819 9 494 109 
L 494 744 
Q 775 591 1075 516 
Q 1375 441 1709 441 
Q 2250 441 2565 725 
Q 2881 1009 2881 1497 
Q 2881 1984 2565 2268 
Q 2250 2553 1709 2553 
Q 1456 2553 1204 2497 
Q 953 2441 691 2322 
L 691 4666 
z
" transform="scale(0.015625)"/>
       </defs>
       <use xlink:href="#DejaVuSans-30"/>
       <use xlink:href="#DejaVuSans-2e" x="63.623047"/>
       <use xlink:href="#DejaVuSans-35" x="95.410156"/>
      </g>
     </g>
    </g>
    <g id="xtick_3">
     <g id="line2d_3">
      <g>
       <use xlink:href="#m9b2e883630" x="968.061533" y="897.12" style="fill: #262626; stroke: #262626; stroke-width: 1.875"/>
      </g>
     </g>
     <g id="text_3">
      <!-- 1.0 -->
      <g style="fill: #262626" transform="translate(929.894033 946.0925)scale(0.48 -0.48)">
       <defs>
        <path id="DejaVuSans-31" d="M 794 531 
L 1825 531 
L 1825 4091 
L 703 3866 
L 703 4441 
L 1819 4666 
L 2450 4666 
L 2450 531 
L 3481 531 
L 3481 0 
L 794 0 
L 794 531 
z
" transform="scale(0.015625)"/>
       </defs>
       <use xlink:href="#DejaVuSans-31"/>
       <use xlink:href="#DejaVuSans-2e" x="63.623047"/>
       <use xlink:href="#DejaVuSans-30" x="95.410156"/>
      </g>
     </g>
    </g>
    <g id="xtick_4">
     <g id="line2d_4">
      <g>
       <use xlink:href="#m9b2e883630" x="1231.874054" y="897.12" style="fill: #262626; stroke: #262626; stroke-width: 1.875"/>
      </g>
     </g>
     <g id="text_4">
      <!-- 1.5 -->
      <g style="fill: #262626" transform="translate(1193.706554 946.0925)scale(0.48 -0.48)">
       <use xlink:href="#DejaVuSans-31"/>
       <use xlink:href="#DejaVuSans-2e" x="63.623047"/>
       <use xlink:href="#DejaVuSans-35" x="95.410156"/>
      </g>
     </g>
    </g>
    <g id="xtick_5">
     <g id="line2d_5">
      <g>
       <use xlink:href="#m9b2e883630" x="1495.686575" y="897.12" style="fill: #262626; stroke: #262626; stroke-width: 1.875"/>
      </g>
     </g>
     <g id="text_5">
      <!-- 2.0 -->
      <g style="fill: #262626" transform="translate(1457.519075 946.0925)scale(0.48 -0.48)">
       <defs>
        <path id="DejaVuSans-32" d="M 1228 531 
L 3431 531 
L 3431 0 
L 469 0 
L 469 531 
Q 828 903 1448 1529 
Q 2069 2156 2228 2338 
Q 2531 2678 2651 2914 
Q 2772 3150 2772 3378 
Q 2772 3750 2511 3984 
Q 2250 4219 1831 4219 
Q 1534 4219 1204 4116 
Q 875 4013 500 3803 
L 500 4441 
Q 881 4594 1212 4672 
Q 1544 4750 1819 4750 
Q 2544 4750 2975 4387 
Q 3406 4025 3406 3419 
Q 3406 3131 3298 2873 
Q 3191 2616 2906 2266 
Q 2828 2175 2409 1742 
Q 1991 1309 1228 531 
z
" transform="scale(0.015625)"/>
       </defs>
       <use xlink:href="#DejaVuSans-32"/>
       <use xlink:href="#DejaVuSans-2e" x="63.623047"/>
       <use xlink:href="#DejaVuSans-30" x="95.410156"/>
      </g>
     </g>
    </g>
    <g id="text_6">
     <!-- Z [nm] -->
     <g style="fill: #262626" transform="translate(804.2175 996.5475)scale(0.48 -0.48)">
      <defs>
       <path id="DejaVuSans-5a" d="M 359 4666 
L 4025 4666 
L 4025 4184 
L 1075 531 
L 4097 531 
L 4097 0 
L 288 0 
L 288 481 
L 3238 4134 
L 359 4134 
L 359 4666 
z
" transform="scale(0.015625)"/>
       <path id="DejaVuSans-20" transform="scale(0.015625)"/>
       <path id="DejaVuSans-5b" d="M 550 4863 
L 1875 4863 
L 1875 4416 
L 1125 4416 
L 1125 -397 
L 1875 -397 
L 1875 -844 
L 550 -844 
L 550 4863 
z
" transform="scale(0.015625)"/>
       <path id="DejaVuSans-6e" d="M 3513 2113 
L 3513 0 
L 2938 0 
L 2938 2094 
Q 2938 2591 2744 2837 
Q 2550 3084 2163 3084 
Q 1697 3084 1428 2787 
Q 1159 2491 1159 1978 
L 1159 0 
L 581 0 
L 581 3500 
L 1159 3500 
L 1159 2956 
Q 1366 3272 1645 3428 
Q 1925 3584 2291 3584 
Q 2894 3584 3203 3211 
Q 3513 2838 3513 2113 
z
" transform="scale(0.015625)"/>
       <path id="DejaVuSans-6d" d="M 3328 2828 
Q 3544 3216 3844 3400 
Q 4144 3584 4550 3584 
Q 5097 3584 5394 3201 
Q 5691 2819 5691 2113 
L 5691 0 
L 5113 0 
L 5113 2094 
Q 5113 2597 4934 2840 
Q 4756 3084 4391 3084 
Q 3944 3084 3684 2787 
Q 3425 2491 3425 1978 
L 3425 0 
L 2847 0 
L 2847 2094 
Q 2847 2600 2669 2842 
Q 2491 3084 2119 3084 
Q 1678 3084 1418 2786 
Q 1159 2488 1159 1978 
L 1159 0 
L 581 0 
L 581 3500 
L 1159 3500 
L 1159 2956 
Q 1356 3278 1631 3431 
Q 1906 3584 2284 3584 
Q 2666 3584 2933 3390 
Q 3200 3197 3328 2828 
z
" transform="scale(0.015625)"/>
       <path id="DejaVuSans-5d" d="M 1947 4863 
L 1947 -844 
L 622 -844 
L 622 -397 
L 1369 -397 
L 1369 4416 
L 622 4416 
L 622 4863 
L 1947 4863 
z
" transform="scale(0.015625)"/>
      </defs>
      <use xlink:href="#DejaVuSans-5a"/>
      <use xlink:href="#DejaVuSans-20" x="68.505859"/>
      <use xlink:href="#DejaVuSans-5b" x="100.292969"/>
      <use xlink:href="#DejaVuSans-6e" x="139.306641"/>
      <use xlink:href="#DejaVuSans-6d" x="202.685547"/>
      <use xlink:href="#DejaVuSans-5d" x="300.097656"/>
     </g>
    </g>
   </g>
   <g id="matplotlib.axis_2">
    <g id="ytick_1">
     <g id="line2d_6">
      <defs>
       <path id="ma45ac2b3bc" d="M 0 0 
L -9 0 
" style="stroke: #262626; stroke-width: 1.875"/>
      </defs>
      <g>
       <use xlink:href="#ma45ac2b3bc" x="216" y="792.780785" style="fill: #262626; stroke: #262626; stroke-width: 1.875"/>
      </g>
     </g>
     <g id="text_7">
      <!-- −10 -->
      <g style="fill: #262626" transform="translate(102.1975 811.017035)scale(0.48 -0.48)">
       <defs>
        <path id="DejaVuSans-2212" d="M 678 2272 
L 4684 2272 
L 4684 1741 
L 678 1741 
L 678 2272 
z
" transform="scale(0.015625)"/>
       </defs>
       <use xlink:href="#DejaVuSans-2212"/>
       <use xlink:href="#DejaVuSans-31" x="83.789062"/>
       <use xlink:href="#DejaVuSans-30" x="147.412109"/>
      </g>
     </g>
    </g>
    <g id="ytick_2">
     <g id="line2d_7">
      <g>
       <use xlink:href="#ma45ac2b3bc" x="216" y="665.363624" style="fill: #262626; stroke: #262626; stroke-width: 1.875"/>
      </g>
     </g>
     <g id="text_8">
      <!-- −8 -->
      <g style="fill: #262626" transform="translate(132.7375 683.599874)scale(0.48 -0.48)">
       <defs>
        <path id="DejaVuSans-38" d="M 2034 2216 
Q 1584 2216 1326 1975 
Q 1069 1734 1069 1313 
Q 1069 891 1326 650 
Q 1584 409 2034 409 
Q 2484 409 2743 651 
Q 3003 894 3003 1313 
Q 3003 1734 2745 1975 
Q 2488 2216 2034 2216 
z
M 1403 2484 
Q 997 2584 770 2862 
Q 544 3141 544 3541 
Q 544 4100 942 4425 
Q 1341 4750 2034 4750 
Q 2731 4750 3128 4425 
Q 3525 4100 3525 3541 
Q 3525 3141 3298 2862 
Q 3072 2584 2669 2484 
Q 3125 2378 3379 2068 
Q 3634 1759 3634 1313 
Q 3634 634 3220 271 
Q 2806 -91 2034 -91 
Q 1263 -91 848 271 
Q 434 634 434 1313 
Q 434 1759 690 2068 
Q 947 2378 1403 2484 
z
M 1172 3481 
Q 1172 3119 1398 2916 
Q 1625 2713 2034 2713 
Q 2441 2713 2670 2916 
Q 2900 3119 2900 3481 
Q 2900 3844 2670 4047 
Q 2441 4250 2034 4250 
Q 1625 4250 1398 4047 
Q 1172 3844 1172 3481 
z
" transform="scale(0.015625)"/>
       </defs>
       <use xlink:href="#DejaVuSans-2212"/>
       <use xlink:href="#DejaVuSans-38" x="83.789062"/>
      </g>
     </g>
    </g>
    <g id="ytick_3">
     <g id="line2d_8">
      <g>
       <use xlink:href="#ma45ac2b3bc" x="216" y="537.946462" style="fill: #262626; stroke: #262626; stroke-width: 1.875"/>
      </g>
     </g>
     <g id="text_9">
      <!-- −6 -->
      <g style="fill: #262626" transform="translate(132.7375 556.182712)scale(0.48 -0.48)">
       <defs>
        <path id="DejaVuSans-36" d="M 2113 2584 
Q 1688 2584 1439 2293 
Q 1191 2003 1191 1497 
Q 1191 994 1439 701 
Q 1688 409 2113 409 
Q 2538 409 2786 701 
Q 3034 994 3034 1497 
Q 3034 2003 2786 2293 
Q 2538 2584 2113 2584 
z
M 3366 4563 
L 3366 3988 
Q 3128 4100 2886 4159 
Q 2644 4219 2406 4219 
Q 1781 4219 1451 3797 
Q 1122 3375 1075 2522 
Q 1259 2794 1537 2939 
Q 1816 3084 2150 3084 
Q 2853 3084 3261 2657 
Q 3669 2231 3669 1497 
Q 3669 778 3244 343 
Q 2819 -91 2113 -91 
Q 1303 -91 875 529 
Q 447 1150 447 2328 
Q 447 3434 972 4092 
Q 1497 4750 2381 4750 
Q 2619 4750 2861 4703 
Q 3103 4656 3366 4563 
z
" transform="scale(0.015625)"/>
       </defs>
       <use xlink:href="#DejaVuSans-2212"/>
       <use xlink:href="#DejaVuSans-36" x="83.789062"/>
      </g>
     </g>
    </g>
    <g id="ytick_4">
     <g id="line2d_9">
      <g>
       <use xlink:href="#ma45ac2b3bc" x="216" y="410.529301" style="fill: #262626; stroke: #262626; stroke-width: 1.875"/>
      </g>
     </g>
     <g id="text_10">
      <!-- −4 -->
      <g style="fill: #262626" transform="translate(132.7375 428.765551)scale(0.48 -0.48)">
       <defs>
        <path id="DejaVuSans-34" d="M 2419 4116 
L 825 1625 
L 2419 1625 
L 2419 4116 
z
M 2253 4666 
L 3047 4666 
L 3047 1625 
L 3713 1625 
L 3713 1100 
L 3047 1100 
L 3047 0 
L 2419 0 
L 2419 1100 
L 313 1100 
L 313 1709 
L 2253 4666 
z
" transform="scale(0.015625)"/>
       </defs>
       <use xlink:href="#DejaVuSans-2212"/>
       <use xlink:href="#DejaVuSans-34" x="83.789062"/>
      </g>
     </g>
    </g>
    <g id="ytick_5">
     <g id="line2d_10">
      <g>
       <use xlink:href="#ma45ac2b3bc" x="216" y="283.112139" style="fill: #262626; stroke: #262626; stroke-width: 1.875"/>
      </g>
     </g>
     <g id="text_11">
      <!-- −2 -->
      <g style="fill: #262626" transform="translate(132.7375 301.348389)scale(0.48 -0.48)">
       <use xlink:href="#DejaVuSans-2212"/>
       <use xlink:href="#DejaVuSans-32" x="83.789062"/>
      </g>
     </g>
    </g>
    <g id="ytick_6">
     <g id="line2d_11">
      <g>
       <use xlink:href="#ma45ac2b3bc" x="216" y="155.694978" style="fill: #262626; stroke: #262626; stroke-width: 1.875"/>
      </g>
     </g>
     <g id="text_12">
      <!-- 0 -->
      <g style="fill: #262626" transform="translate(172.96 173.931228)scale(0.48 -0.48)">
       <use xlink:href="#DejaVuSans-30"/>
      </g>
     </g>
    </g>
    <g id="text_13">
     <!-- Df(Z) [Hz] -->
     <g style="fill: #262626" transform="translate(88.215 628.13625)rotate(-90)scale(0.48 -0.48)">
      <defs>
       <path id="DejaVuSans-44" d="M 1259 4147 
L 1259 519 
L 2022 519 
Q 2988 519 3436 956 
Q 3884 1394 3884 2338 
Q 3884 3275 3436 3711 
Q 2988 4147 2022 4147 
L 1259 4147 
z
M 628 4666 
L 1925 4666 
Q 3281 4666 3915 4102 
Q 4550 3538 4550 2338 
Q 4550 1131 3912 565 
Q 3275 0 1925 0 
L 628 0 
L 628 4666 
z
" transform="scale(0.015625)"/>
       <path id="DejaVuSans-66" d="M 2375 4863 
L 2375 4384 
L 1825 4384 
Q 1516 4384 1395 4259 
Q 1275 4134 1275 3809 
L 1275 3500 
L 2222 3500 
L 2222 3053 
L 1275 3053 
L 1275 0 
L 697 0 
L 697 3053 
L 147 3053 
L 147 3500 
L 697 3500 
L 697 3744 
Q 697 4328 969 4595 
Q 1241 4863 1831 4863 
L 2375 4863 
z
" transform="scale(0.015625)"/>
       <path id="DejaVuSans-28" d="M 1984 4856 
Q 1566 4138 1362 3434 
Q 1159 2731 1159 2009 
Q 1159 1288 1364 580 
Q 1569 -128 1984 -844 
L 1484 -844 
Q 1016 -109 783 600 
Q 550 1309 550 2009 
Q 550 2706 781 3412 
Q 1013 4119 1484 4856 
L 1984 4856 
z
" transform="scale(0.015625)"/>
       <path id="DejaVuSans-29" d="M 513 4856 
L 1013 4856 
Q 1481 4119 1714 3412 
Q 1947 2706 1947 2009 
Q 1947 1309 1714 600 
Q 1481 -109 1013 -844 
L 513 -844 
Q 928 -128 1133 580 
Q 1338 1288 1338 2009 
Q 1338 2731 1133 3434 
Q 928 4138 513 4856 
z
" transform="scale(0.015625)"/>
       <path id="DejaVuSans-48" d="M 628 4666 
L 1259 4666 
L 1259 2753 
L 3553 2753 
L 3553 4666 
L 4184 4666 
L 4184 0 
L 3553 0 
L 3553 2222 
L 1259 2222 
L 1259 0 
L 628 0 
L 628 4666 
z
" transform="scale(0.015625)"/>
       <path id="DejaVuSans-7a" d="M 353 3500 
L 3084 3500 
L 3084 2975 
L 922 459 
L 3084 459 
L 3084 0 
L 275 0 
L 275 525 
L 2438 3041 
L 353 3041 
L 353 3500 
z
" transform="scale(0.015625)"/>
      </defs>
      <use xlink:href="#DejaVuSans-44"/>
      <use xlink:href="#DejaVuSans-66" x="77.001953"/>
      <use xlink:href="#DejaVuSans-28" x="112.207031"/>
      <use xlink:href="#DejaVuSans-5a" x="151.220703"/>
      <use xlink:href="#DejaVuSans-29" x="219.726562"/>
      <use xlink:href="#DejaVuSans-20" x="258.740234"/>
      <use xlink:href="#DejaVuSans-5b" x="290.527344"/>
      <use xlink:href="#DejaVuSans-48" x="329.541016"/>
      <use xlink:href="#DejaVuSans-7a" x="404.736328"/>
      <use xlink:href="#DejaVuSans-5d" x="457.226562"/>
     </g>
    </g>
   </g>
   <g id="line2d_12">
    <path d="M 276.872727 861.84 
L 279.255221 838.767631 
L 281.637716 819.311602 
L 284.02021 796.068302 
L 286.402704 787.49099 
L 288.785198 769.087706 
L 291.167693 759.392827 
L 293.550187 742.944018 
L 295.932681 683.084997 
L 298.315175 554.028423 
L 303.080164 532.193127 
L 305.462658 523.166761 
L 307.845152 514.622405 
L 310.227646 504.121762 
L 312.610141 496.927468 
L 314.992635 487.3224 
L 317.375129 479.165173 
L 319.757623 473.353171 
L 322.140117 467.834503 
L 324.522612 459.100023 
L 326.905106 454.04055 
L 329.2876 444.49089 
L 331.670094 442.685254 
L 334.052589 433.035281 
L 336.435083 430.397446 
L 338.817577 425.545842 
L 341.200071 423.135431 
L 343.582565 416.657452 
L 345.96506 411.248875 
L 348.347554 406.493963 
L 350.730048 396.40435 
L 353.112542 399.762847 
L 355.495036 391.38073 
L 357.877531 387.522841 
L 360.260025 383.413988 
L 362.642519 378.127815 
L 365.025013 378.528343 
L 367.407508 374.193877 
L 369.790002 369.21154 
L 372.172496 363.473053 
L 374.55499 361.634825 
L 376.937484 355.411792 
L 379.319979 353.758981 
L 381.702473 351.680291 
L 384.084967 345.919351 
L 386.467461 343.604183 
L 388.849956 343.70522 
L 391.23245 337.9747 
L 393.614944 336.145526 
L 395.997438 332.406781 
L 398.379932 332.805498 
L 400.762427 325.490611 
L 405.527415 321.993777 
L 407.909909 321.387915 
L 410.292403 316.445051 
L 412.674898 315.433229 
L 415.057392 314.105982 
L 417.439886 311.224064 
L 419.82238 307.358208 
L 422.204875 304.970974 
L 424.587369 303.6459 
L 426.969863 301.375275 
L 429.352357 298.230804 
L 431.734851 298.917062 
L 436.49984 294.462364 
L 438.882334 291.509466 
L 441.264828 291.530833 
L 443.647323 288.015529 
L 446.029817 286.873698 
L 448.412311 285.138318 
L 450.794805 283.72452 
L 453.177299 279.528753 
L 455.559794 281.724052 
L 460.324782 276.842391 
L 465.089771 274.446828 
L 467.472265 274.584079 
L 469.854759 269.693726 
L 472.237253 272.743316 
L 474.619747 270.058764 
L 477.002242 265.844167 
L 479.384736 265.404527 
L 481.76723 263.510168 
L 484.149724 267.050821 
L 486.532218 261.96129 
L 488.914713 260.648167 
L 491.297207 260.69271 
L 493.679701 257.940438 
L 496.062195 259.091322 
L 498.44469 256.629125 
L 500.827184 259.965169 
L 503.209678 254.068063 
L 505.592172 253.335452 
L 507.974666 254.38711 
L 510.357161 251.277404 
L 512.739655 251.275956 
L 515.122149 250.854424 
L 517.504643 248.953907 
L 519.887138 248.07825 
L 522.269632 248.608425 
L 524.652126 244.364494 
L 527.03462 245.594687 
L 529.417114 246.394656 
L 531.799609 243.811504 
L 534.182103 244.146847 
L 536.564597 242.304273 
L 538.947091 241.744765 
L 541.329585 239.489713 
L 543.71208 238.458697 
L 546.094574 237.16187 
L 548.477068 237.925625 
L 550.859562 237.123483 
L 553.242057 238.817579 
L 555.624551 233.962716 
L 558.007045 234.270898 
L 560.389539 234.424446 
L 562.772033 235.93566 
L 565.154528 232.04192 
L 567.537022 232.931338 
L 569.919516 230.995694 
L 572.30201 230.900813 
L 574.684505 232.011138 
L 577.066999 230.086358 
L 579.449493 229.48629 
L 581.831987 229.320067 
L 584.214481 228.36148 
L 586.596976 227.736787 
L 588.97947 227.434761 
L 591.361964 226.073835 
L 593.744458 226.262148 
L 596.126952 225.727266 
L 598.509447 219.038882 
L 600.891941 225.090984 
L 603.274435 224.364891 
L 605.656929 225.063099 
L 608.039424 223.72028 
L 610.421918 221.280173 
L 612.804412 219.774391 
L 615.186906 223.219801 
L 617.5694 220.919119 
L 619.951895 219.454258 
L 622.334389 218.254485 
L 624.716883 217.202103 
L 627.099377 219.105154 
L 629.481872 219.337287 
L 631.864366 216.315944 
L 634.24686 215.695234 
L 636.629354 216.970333 
L 639.011848 215.712617 
L 641.394343 217.105411 
L 643.776837 210.489094 
L 646.159331 215.774543 
L 650.92432 212.998732 
L 653.306814 213.423161 
L 655.689308 212.479059 
L 658.071802 209.58012 
L 660.454296 209.951677 
L 665.219285 211.680538 
L 667.601779 211.255022 
L 669.984273 208.496594 
L 672.366767 211.450941 
L 674.749262 209.182489 
L 677.131756 211.432834 
L 679.51425 204.886047 
L 681.896744 208.738142 
L 684.279239 206.630843 
L 686.661733 207.275454 
L 689.044227 205.568683 
L 691.426721 204.751331 
L 693.809215 206.527633 
L 696.19171 206.179977 
L 698.574204 205.165982 
L 700.956698 204.749882 
L 703.339192 203.444002 
L 705.721687 204.019806 
L 708.104181 203.868431 
L 710.486675 203.414668 
L 712.869169 203.830044 
L 715.251663 203.288643 
L 717.634158 200.325967 
L 720.016652 200.728668 
L 722.399146 203.174207 
L 724.78164 198.401187 
L 727.164134 203.16805 
L 729.546629 199.020086 
L 731.929123 200.611696 
L 734.311617 200.592141 
L 736.694111 201.426876 
L 739.076606 198.553649 
L 741.4591 198.407344 
L 743.841594 199.235198 
L 746.224088 202.04324 
L 748.606582 196.250431 
L 750.989077 197.284706 
L 753.371571 195.508042 
L 755.754065 198.234602 
L 758.136559 196.119336 
L 760.519054 196.770466 
L 762.901548 194.091709 
L 765.284042 196.811388 
L 767.666536 196.199007 
L 770.04903 192.122748 
L 772.431525 195.990414 
L 774.814019 194.625142 
L 777.196513 195.143366 
L 779.579007 193.922227 
L 781.961502 194.510706 
L 784.343996 194.12575 
L 786.72649 191.432869 
L 789.108984 194.861983 
L 791.491478 189.27994 
L 793.873973 193.040775 
L 796.256467 191.670433 
L 798.638961 190.07991 
L 801.021455 192.988989 
L 803.403949 192.150995 
L 805.786444 191.107666 
L 808.168938 191.944574 
L 810.551432 186.667092 
L 812.933926 192.878898 
L 815.316421 191.066382 
L 817.698915 191.546581 
L 820.081409 189.664534 
L 822.463903 187.508708 
L 824.846397 191.938056 
L 827.228892 189.144862 
L 829.611386 189.726098 
L 831.99388 191.075436 
L 834.376374 187.06581 
L 836.758869 186.340803 
L 839.141363 189.890872 
L 841.523857 188.022224 
L 843.906351 188.472728 
L 846.288845 187.594174 
L 848.67134 188.22285 
L 851.053834 187.319671 
L 853.436328 185.953675 
L 855.818822 186.733726 
L 858.201316 187.023801 
L 860.583811 183.211905 
L 862.966305 188.958359 
L 865.348799 183.791692 
L 867.731293 185.103005 
L 870.113788 185.331878 
L 872.496282 188.317369 
L 874.878776 185.076207 
L 877.26127 182.941023 
L 879.643764 185.451385 
L 882.026259 186.930007 
L 884.408753 182.56838 
L 886.791247 186.591043 
L 889.173741 180.202512 
L 891.556236 183.610622 
L 893.93873 183.564268 
L 896.321224 183.7964 
L 898.703718 186.504491 
L 901.086212 182.043275 
L 903.468707 182.980859 
L 905.851201 183.36002 
L 908.233695 183.214077 
L 910.616189 181.417858 
L 912.998684 182.916397 
L 915.381178 181.790863 
L 917.763672 179.620552 
L 920.146166 183.961899 
L 922.52866 180.517575 
L 924.911155 181.550401 
L 927.293649 180.690316 
L 929.676143 181.334203 
L 932.058637 178.69166 
L 934.441131 181.301973 
L 936.823626 177.306108 
L 939.20612 181.128507 
L 941.588614 181.332392 
L 943.971108 180.649394 
L 946.353603 181.670994 
L 948.736097 181.904937 
L 951.118591 179.10776 
L 953.501085 181.348327 
L 955.883579 179.051628 
L 958.266074 177.710257 
L 960.648568 179.274345 
L 963.031062 180.574793 
L 965.413556 178.854261 
L 967.796051 176.190351 
L 970.178545 180.46434 
L 972.561039 177.006979 
L 974.943533 178.640598 
L 977.326027 178.004678 
L 979.708522 177.56866 
L 982.091016 179.714708 
L 984.47351 178.025682 
L 986.856004 176.103075 
L 989.238498 176.665118 
L 991.620993 178.847018 
L 994.003487 176.318549 
L 996.385981 176.912461 
L 998.768475 175.90933 
L 1001.15097 178.001781 
L 1003.533464 175.287534 
L 1005.915958 174.254707 
L 1008.298452 176.767242 
L 1010.680946 173.846212 
L 1013.063441 175.043088 
L 1015.445935 174.57991 
L 1017.828429 174.955088 
L 1020.210923 174.348864 
L 1022.593418 175.172011 
L 1024.975912 176.549595 
L 1027.358406 174.220666 
L 1029.7409 173.397157 
L 1032.123394 176.26459 
L 1034.505889 174.960882 
L 1036.888383 174.60019 
L 1039.270877 173.963184 
L 1041.653371 174.990216 
L 1044.035866 171.181578 
L 1046.41836 175.542481 
L 1048.800854 174.327498 
L 1051.183348 171.882683 
L 1053.565842 174.562889 
L 1055.948337 172.188693 
L 1058.330831 174.303959 
L 1060.713325 174.92322 
L 1063.095819 175.027879 
L 1065.478313 171.277184 
L 1067.860808 172.750736 
L 1070.243302 173.94399 
L 1075.00829 173.983826 
L 1077.390785 172.663097 
L 1079.773279 172.99844 
L 1082.155773 173.531874 
L 1084.538267 170.250514 
L 1086.920761 169.773574 
L 1089.303256 174.585704 
L 1091.68575 170.620622 
L 1094.068244 169.236881 
L 1096.450738 173.224416 
L 1098.833233 172.100692 
L 1101.215727 172.227442 
L 1103.598221 171.503884 
L 1105.980715 169.738446 
L 1108.363209 170.870861 
L 1110.745704 171.807358 
L 1113.128198 171.38148 
L 1115.510692 170.771635 
L 1117.893186 169.932916 
L 1120.27568 172.257862 
L 1122.658175 172.160446 
L 1125.040669 169.528404 
L 1127.423163 170.002085 
L 1129.805657 170.213937 
L 1132.188152 170.951981 
L 1134.570646 172.390405 
L 1136.95314 170.386679 
L 1139.335634 168.689323 
L 1141.718128 168.904797 
L 1144.100623 169.476618 
L 1146.483117 169.330675 
L 1148.865611 168.370277 
L 1151.248105 169.301342 
L 1153.6306 168.509701 
L 1156.013094 169.374494 
L 1158.395588 169.579104 
L 1160.778082 168.738937 
L 1163.160576 166.923524 
L 1165.543071 167.761156 
L 1167.925565 168.879448 
L 1170.308059 169.733376 
L 1172.690553 165.124045 
L 1175.073048 167.245829 
L 1177.455542 171.247126 
L 1179.838036 168.532516 
L 1184.603024 167.549666 
L 1186.985519 167.813666 
L 1189.368013 167.220841 
L 1191.750507 167.696333 
L 1194.133001 167.431245 
L 1196.515495 163.970263 
L 1198.89799 169.402741 
L 1201.280484 168.660352 
L 1203.662978 166.633449 
L 1206.045472 166.952133 
L 1208.427967 163.807662 
L 1210.810461 165.194662 
L 1213.192955 169.518989 
L 1217.957943 164.623566 
L 1220.340438 166.203225 
L 1222.722932 168.336236 
L 1225.105426 167.35592 
L 1227.48792 167.821633 
L 1229.870415 163.611744 
L 1232.252909 169.570413 
L 1234.635403 164.761904 
L 1237.017897 164.55331 
L 1239.400391 163.834098 
L 1241.782886 164.570693 
L 1244.16538 167.600365 
L 1246.547874 167.783971 
L 1248.930368 166.26841 
L 1251.312862 166.449843 
L 1253.695357 163.113437 
L 1256.077851 164.555121 
L 1258.460345 165.706367 
L 1260.842839 164.682233 
L 1263.225334 166.456724 
L 1265.607828 163.704452 
L 1267.990322 163.701192 
L 1270.372816 165.259123 
L 1272.75531 166.359308 
L 1275.137805 164.749591 
L 1277.520299 162.725222 
L 1279.902793 166.731951 
L 1282.285287 163.614641 
L 1284.667782 162.94649 
L 1287.050276 166.712758 
L 1289.43277 164.86439 
L 1291.815264 160.087025 
L 1294.197758 163.124664 
L 1296.580253 165.980508 
L 1298.962747 162.094372 
L 1301.345241 163.706987 
L 1303.727735 162.06359 
L 1306.110229 162.787148 
L 1308.492724 166.078648 
L 1310.875218 160.022201 
L 1313.257712 164.734743 
L 1315.640206 160.340523 
L 1318.022701 163.643974 
L 1320.405195 163.064186 
L 1322.787689 163.533521 
L 1325.170183 161.839063 
L 1327.552677 164.20819 
L 1329.935172 162.054899 
L 1332.317666 164.613788 
L 1334.70016 163.703365 
L 1337.082654 160.927192 
L 1339.465149 163.699744 
L 1344.230137 162.116825 
L 1346.612631 162.312381 
L 1348.995125 161.354518 
L 1351.37762 163.111627 
L 1353.760114 163.734147 
L 1356.142608 161.152081 
L 1358.525102 162.484398 
L 1360.907597 161.633729 
L 1363.290091 162.472448 
L 1365.672585 164.387088 
L 1368.055079 162.069385 
L 1370.437573 161.659441 
L 1372.820068 162.084233 
L 1375.202562 162.11248 
L 1377.585056 160.904739 
L 1379.96755 162.069023 
L 1382.350044 161.495391 
L 1384.732539 162.240677 
L 1387.115033 160.479223 
L 1389.497527 161.304905 
L 1391.880021 163.513241 
L 1394.262516 159.78862 
L 1396.64501 161.973055 
L 1399.027504 160.310466 
L 1401.409998 161.267242 
L 1403.792492 162.860301 
L 1406.174987 162.069747 
L 1408.557481 161.81154 
L 1410.939975 161.717021 
L 1413.322469 160.096802 
L 1415.704964 161.502272 
L 1418.087458 163.687793 
L 1420.469952 159.950135 
L 1422.852446 158.876025 
L 1425.23494 156.24 
L 1427.617435 162.161369 
L 1429.999929 160.801891 
L 1432.382423 161.832907 
L 1434.764917 158.509176 
L 1437.147411 159.528241 
L 1439.529906 158.415381 
L 1441.9124 161.037645 
L 1444.294894 159.554677 
L 1446.677388 160.560705 
L 1449.059883 160.161988 
L 1451.442377 161.054303 
L 1453.824871 159.630365 
L 1456.207365 159.525706 
L 1458.589859 158.508814 
L 1460.972354 160.665002 
L 1463.354848 159.493837 
L 1465.737342 159.715106 
L 1468.119836 159.5315 
L 1470.502331 158.295513 
L 1472.884825 159.162116 
L 1475.267319 159.636521 
L 1477.649813 160.294531 
L 1480.032307 158.891235 
L 1482.414802 158.637012 
L 1484.797296 159.673097 
L 1487.17979 159.255187 
L 1489.562284 159.376142 
L 1491.944779 160.633495 
L 1494.327273 159.311681 
L 1494.327273 159.311681 
" clip-path="url(#p783f086760)" style="fill: none; stroke: #00c9a7; stroke-width: 2.25; stroke-linecap: round"/>
   </g>
   <g id="line2d_13">
    <path d="M 276.872727 851.946668 
L 279.255221 826.883247 
L 281.637716 806.81013 
L 284.02021 788.85083 
L 286.402704 785.364136 
L 288.785198 776.609376 
L 291.167693 766.4955 
L 293.550187 765.632156 
L 295.932681 761.553723 
L 298.315175 761.715238 
L 300.697669 760.07329 
L 303.080164 760.082706 
L 305.462658 755.617869 
L 307.845152 753.892629 
L 310.227646 743.838144 
L 312.610141 737.530371 
L 314.992635 726.127635 
L 317.375129 717.958819 
L 319.757623 700.281989 
L 322.140117 690.109085 
L 324.522612 675.176922 
L 329.2876 637.482383 
L 331.670094 617.636328 
L 334.052589 602.071867 
L 336.435083 580.037394 
L 338.817577 561.173104 
L 341.200071 546.617206 
L 345.96506 514.424676 
L 348.347554 501.096436 
L 350.730048 491.006823 
L 353.112542 474.891184 
L 355.495036 461.660722 
L 357.877531 454.155348 
L 360.260025 440.670302 
L 362.642519 432.370753 
L 365.025013 420.531999 
L 369.790002 405.348148 
L 372.172496 398.455517 
L 374.55499 389.548296 
L 376.937484 384.127768 
L 379.319979 380.806573 
L 381.702473 370.144053 
L 384.084967 368.504641 
L 386.467461 361.101029 
L 388.849956 355.287216 
L 391.23245 352.361116 
L 393.614944 344.086193 
L 395.997438 341.544687 
L 398.379932 336.955997 
L 400.762427 333.976301 
L 403.144921 328.673469 
L 405.527415 327.605877 
L 407.909909 323.268151 
L 410.292403 321.288326 
L 412.674898 315.207978 
L 417.439886 308.298688 
L 419.82238 309.819319 
L 422.204875 304.377063 
L 424.587369 301.870684 
L 426.969863 301.839902 
L 429.352357 296.545762 
L 431.734851 295.007749 
L 434.117346 290.540377 
L 436.49984 291.522503 
L 438.882334 288.098097 
L 441.264828 287.879002 
L 443.647323 284.34016 
L 446.029817 281.890637 
L 448.412311 278.044699 
L 450.794805 283.195794 
L 453.177299 275.363407 
L 455.559794 275.726272 
L 457.942288 278.093588 
L 460.324782 276.369072 
L 462.707276 271.399048 
L 465.089771 272.134557 
L 467.472265 269.94469 
L 469.854759 270.492609 
L 474.619747 267.14534 
L 477.002242 265.185432 
L 479.384736 265.661648 
L 481.76723 262.33176 
L 488.914713 263.247615 
L 491.297207 262.939071 
L 496.062195 256.999595 
L 498.44469 256.318408 
L 500.827184 258.877659 
L 503.209678 254.609827 
L 505.592172 254.278467 
L 510.357161 255.24466 
L 512.739655 251.030424 
L 515.122149 252.154148 
L 517.504643 251.903908 
L 519.887138 250.396315 
L 522.269632 250.451361 
L 524.652126 247.578496 
L 527.03462 246.993276 
L 529.417114 246.652863 
L 531.799609 243.612327 
L 534.182103 243.929562 
L 536.564597 244.806306 
L 538.947091 244.17618 
L 541.329585 238.821562 
L 543.71208 242.18875 
L 546.094574 239.413301 
L 548.477068 238.184194 
L 550.859562 239.109102 
L 553.242057 236.89461 
L 555.624551 238.108869 
L 558.007045 236.452436 
L 560.389539 237.181063 
L 562.772033 234.219474 
L 565.154528 231.725046 
L 567.537022 234.833303 
L 569.919516 231.015974 
L 572.30201 233.448838 
L 574.684505 230.898278 
L 577.066999 231.779367 
L 579.449493 229.900942 
L 581.831987 227.449971 
L 584.214481 229.392133 
L 586.596976 224.767592 
L 588.97947 229.306306 
L 591.361964 226.782545 
L 593.744458 227.029887 
L 596.126952 227.848326 
L 598.509447 223.531242 
L 600.891941 228.492937 
L 603.274435 222.835569 
L 605.656929 221.806002 
L 608.039424 222.114909 
L 610.421918 223.813712 
L 612.804412 221.64666 
L 615.186906 220.243001 
L 617.5694 220.404878 
L 619.951895 218.583671 
L 622.334389 222.847882 
L 624.716883 216.596965 
L 627.099377 219.324612 
L 629.481872 221.329787 
L 631.864366 217.233609 
L 634.24686 217.032259 
L 636.629354 213.606042 
L 639.011848 219.344529 
L 641.394343 216.981559 
L 643.776837 215.369669 
L 646.159331 214.980367 
L 648.541825 213.478568 
L 653.306814 214.997388 
L 655.689308 213.532527 
L 658.071802 213.326831 
L 660.454296 212.341808 
L 662.836791 213.310173 
L 665.219285 212.620294 
L 667.601779 210.074805 
L 669.984273 211.033754 
L 672.366767 209.928862 
L 674.749262 209.455543 
L 677.131756 209.652548 
L 679.51425 212.315009 
L 681.896744 207.718715 
L 684.279239 206.33606 
L 686.661733 207.893991 
L 689.044227 208.3894 
L 691.426721 207.283783 
L 693.809215 204.878442 
L 696.19171 204.159955 
L 698.574204 207.478253 
L 700.956698 205.74396 
L 705.721687 205.553473 
L 708.104181 203.400183 
L 710.486675 204.959562 
L 712.869169 202.090318 
L 715.251663 201.821972 
L 717.634158 202.611801 
L 720.016652 204.234193 
L 722.399146 200.713458 
L 724.78164 203.023918 
L 729.546629 202.272113 
L 731.929123 200.628717 
L 734.311617 199.897916 
L 736.694111 202.200771 
L 739.076606 201.275863 
L 741.4591 203.493253 
L 743.841594 197.096031 
L 746.224088 199.72771 
L 748.606582 199.381503 
L 750.989077 198.653962 
L 753.371571 199.764648 
L 755.754065 198.77202 
L 758.136559 194.68055 
L 760.519054 198.35592 
L 762.901548 195.90857 
L 765.284042 198.025647 
L 767.666536 194.687068 
L 770.04903 197.598321 
L 772.431525 195.737278 
L 774.814019 192.76084 
L 777.196513 198.550389 
L 779.579007 194.227874 
L 781.961502 195.169078 
L 784.343996 192.249859 
L 786.72649 195.361737 
L 789.108984 196.469527 
L 791.491478 191.862368 
L 793.873973 193.57095 
L 796.256467 191.326399 
L 798.638961 190.915369 
L 801.021455 192.972693 
L 803.403949 192.854273 
L 805.786444 189.991547 
L 808.168938 190.887484 
L 810.551432 190.234182 
L 812.933926 190.993954 
L 815.316421 193.096183 
L 817.698915 191.412227 
L 820.081409 190.53838 
L 822.463903 191.67659 
L 824.846397 189.854658 
L 827.228892 188.521255 
L 829.611386 189.856831 
L 831.99388 187.863969 
L 834.376374 190.782101 
L 836.758869 189.152104 
L 839.141363 187.976595 
L 841.523857 188.194241 
L 843.906351 190.273293 
L 846.288845 188.446654 
L 848.67134 186.854681 
L 851.053834 186.172408 
L 853.436328 187.624231 
L 855.818822 187.118682 
L 858.201316 189.825325 
L 860.583811 185.783468 
L 862.966305 185.522002 
L 865.348799 186.262581 
L 867.731293 185.394529 
L 870.113788 183.818491 
L 872.496282 187.832462 
L 874.878776 185.913115 
L 877.26127 186.277429 
L 879.643764 188.337649 
L 882.026259 183.026488 
L 884.408753 186.65659 
L 886.791247 182.508989 
L 889.173741 183.95031 
L 891.556236 186.471536 
L 893.93873 182.956957 
L 896.321224 184.025998 
L 898.703718 183.117024 
L 901.086212 183.415428 
L 903.468707 182.777697 
L 905.851201 181.224836 
L 908.233695 184.706099 
L 910.616189 183.258259 
L 912.998684 183.338292 
L 915.381178 182.185235 
L 917.763672 181.170515 
L 920.146166 182.443803 
L 922.52866 179.623449 
L 924.911155 181.420393 
L 927.293649 181.151322 
L 929.676143 182.286634 
L 932.058637 180.904342 
L 934.441131 182.148296 
L 936.823626 179.172221 
L 939.20612 180.448406 
L 941.588614 180.001524 
L 943.971108 180.676555 
L 946.353603 180.745724 
L 948.736097 178.82022 
L 951.118591 182.243539 
L 953.501085 176.281973 
L 955.883579 182.177267 
L 958.266074 179.299695 
L 960.648568 177.1627 
L 963.031062 182.141053 
L 965.413556 178.364284 
L 967.796051 180.891305 
L 970.178545 176.829168 
L 972.561039 177.234766 
L 974.943533 181.081429 
L 977.326027 176.011454 
L 979.708522 176.041874 
L 982.091016 180.340488 
L 984.47351 174.554922 
L 986.856004 177.657385 
L 989.238498 177.652315 
L 991.620993 175.34439 
L 994.003487 175.397625 
L 996.385981 178.704335 
L 998.768475 177.594734 
L 1001.15097 176.087141 
L 1003.533464 174.753013 
L 1005.915958 177.734883 
L 1008.298452 177.462553 
L 1010.680946 174.70847 
L 1013.063441 178.163658 
L 1015.445935 175.512061 
L 1017.828429 177.173202 
L 1020.210923 176.281611 
L 1022.593418 174.704849 
L 1024.975912 172.66527 
L 1027.358406 177.984398 
L 1029.7409 174.278609 
L 1032.123394 175.828935 
L 1034.505889 174.780174 
L 1036.888383 174.415498 
L 1039.270877 175.94156 
L 1041.653371 175.730432 
L 1044.035866 172.066651 
L 1046.41836 174.112748 
L 1048.800854 172.822802 
L 1051.183348 175.536325 
L 1053.565842 172.638472 
L 1055.948337 172.681567 
L 1058.330831 174.546231 
L 1060.713325 173.828829 
L 1063.095819 175.625773 
L 1065.478313 172.729369 
L 1067.860808 172.679394 
L 1070.243302 172.200643 
L 1072.625796 169.345523 
L 1075.00829 174.911631 
L 1077.390785 171.455719 
L 1079.773279 173.517388 
L 1082.155773 169.396585 
L 1084.538267 173.159955 
L 1086.920761 170.105295 
L 1089.303256 171.734568 
L 1091.68575 174.62554 
L 1094.068244 172.755805 
L 1096.450738 172.302043 
L 1098.833233 170.705725 
L 1101.215727 170.987833 
L 1103.598221 171.598403 
L 1105.980715 173.02886 
L 1108.363209 171.621942 
L 1110.745704 169.098905 
L 1113.128198 170.607585 
L 1115.510692 172.806143 
L 1117.893186 168.464434 
L 1120.27568 172.581253 
L 1122.658175 171.441958 
L 1125.040669 170.59491 
L 1127.423163 168.561488 
L 1129.805657 169.948488 
L 1132.188152 172.133285 
L 1134.570646 167.957798 
L 1136.95314 171.168903 
L 1139.335634 170.335979 
L 1141.718128 168.696928 
L 1144.100623 170.449691 
L 1148.865611 168.181964 
L 1151.248105 171.696905 
L 1153.6306 168.328993 
L 1156.013094 170.598531 
L 1158.395588 167.250537 
L 1160.778082 168.671216 
L 1163.160576 169.087679 
L 1165.543071 169.87787 
L 1167.925565 167.181006 
L 1170.308059 169.26042 
L 1172.690553 166.356773 
L 1175.073048 171.242418 
L 1177.455542 167.453336 
L 1179.838036 166.614255 
L 1182.22053 169.543976 
L 1184.603024 166.477004 
L 1186.985519 171.099734 
L 1189.368013 165.866434 
L 1191.750507 166.683424 
L 1194.133001 168.461175 
L 1196.515495 165.904097 
L 1198.89799 167.013697 
L 1201.280484 165.972179 
L 1203.662978 167.406982 
L 1206.045472 169.802907 
L 1208.427967 166.484971 
L 1210.810461 165.161345 
L 1213.192955 165.171123 
L 1215.575449 170.379798 
L 1217.957943 168.176532 
L 1220.340438 164.781459 
L 1222.722932 165.881644 
L 1225.105426 166.780478 
L 1227.48792 166.925334 
L 1229.870415 162.591592 
L 1232.252909 166.901433 
L 1234.635403 165.342778 
L 1237.017897 166.801482 
L 1239.400391 166.088064 
L 1241.782886 165.626696 
L 1244.16538 164.224486 
L 1246.547874 169.260058 
L 1248.930368 162.015788 
L 1251.312862 165.254415 
L 1253.695357 167.349402 
L 1256.077851 162.459411 
L 1258.460345 168.640072 
L 1260.842839 165.629594 
L 1263.225334 166.272756 
L 1265.607828 165.568754 
L 1267.990322 164.154231 
L 1270.372816 163.84279 
L 1272.75531 164.731484 
L 1277.520299 161.935393 
L 1279.902793 166.233283 
L 1282.285287 166.142385 
L 1284.667782 163.878642 
L 1287.050276 163.60269 
L 1289.43277 163.71604 
L 1291.815264 164.799204 
L 1294.197758 165.037131 
L 1298.962747 162.778095 
L 1301.345241 164.523977 
L 1303.727735 161.629383 
L 1306.110229 165.344226 
L 1308.492724 163.030869 
L 1310.875218 162.638308 
L 1313.257712 164.711566 
L 1315.640206 162.501419 
L 1318.022701 166.244871 
L 1320.405195 163.07324 
L 1322.787689 166.807638 
L 1325.170183 161.289333 
L 1332.317666 164.215071 
L 1334.70016 162.57095 
L 1337.082654 158.786214 
L 1339.465149 163.420533 
L 1341.847643 164.051383 
L 1344.230137 159.33015 
L 1346.612631 162.675609 
L 1348.995125 161.92996 
L 1351.37762 162.509748 
L 1353.760114 163.645061 
L 1356.142608 160.52087 
L 1358.525102 159.526792 
L 1360.907597 162.029187 
L 1363.290091 164.208914 
L 1365.672585 162.296447 
L 1368.055079 159.297195 
L 1370.437573 160.614664 
L 1372.820068 164.442495 
L 1375.202562 162.231986 
L 1377.585056 163.576254 
L 1379.96755 162.11248 
L 1382.350044 163.169207 
L 1384.732539 161.166205 
L 1387.115033 160.861282 
L 1389.497527 162.480053 
L 1391.880021 162.221846 
L 1394.262516 160.763504 
L 1396.64501 161.120937 
L 1399.027504 160.596195 
L 1401.409998 164.222313 
L 1403.792492 160.173938 
L 1406.174987 159.215713 
L 1408.557481 159.283434 
L 1413.322469 161.899178 
L 1415.704964 160.575915 
L 1418.087458 158.76014 
L 1420.469952 159.164289 
L 1422.852446 164.215071 
L 1425.23494 161.906421 
L 1427.617435 158.768469 
L 1429.999929 161.341481 
L 1434.764917 160.33328 
L 1437.147411 158.529456 
L 1441.9124 161.293679 
L 1444.294894 162.265303 
L 1446.677388 160.160539 
L 1449.059883 157.17867 
L 1451.442377 160.387239 
L 1453.824871 158.960404 
L 1456.207365 159.741904 
L 1458.589859 157.238785 
L 1463.354848 161.032937 
L 1465.737342 158.749638 
L 1468.119836 158.904634 
L 1470.502331 160.793924 
L 1472.884825 160.02365 
L 1475.267319 160.703389 
L 1480.032307 158.734066 
L 1482.414802 159.930217 
L 1484.797296 159.01726 
L 1487.17979 160.669347 
L 1489.562284 160.438664 
L 1491.944779 158.089092 
L 1494.327273 159.416339 
L 1494.327273 159.416339 
" clip-path="url(#p783f086760)" style="fill: none; stroke: #ffc75f; stroke-width: 2.25; stroke-linecap: round"/>
   </g>
   <g id="patch_3">
    <path d="M 216 897.12 
L 216 120.96 
" style="fill: none; stroke: #262626; stroke-width: 1.875; stroke-linejoin: miter; stroke-linecap: square"/>
   </g>
   <g id="patch_4">
    <path d="M 1555.2 897.12 
L 1555.2 120.96 
" style="fill: none; stroke: #262626; stroke-width: 1.875; stroke-linejoin: miter; stroke-linecap: square"/>
   </g>
   <g id="patch_5">
    <path d="M 216 897.12 
L 1555.2 897.12 
" style="fill: none; stroke: #262626; stroke-width: 1.875; stroke-linejoin: miter; stroke-linecap: square"/>
   </g>
   <g id="patch_6">
    <path d="M 216 120.96 
L 1555.2 120.96 
" style="fill: none; stroke: #262626; stroke-width: 1.875; stroke-linejoin: miter; stroke-linecap: square"/>
   </g>
   <g id="text_14">
    <!-- Df(Z) -->
    <g style="fill: #262626" transform="translate(820.916406 110.561563)scale(0.5 -0.5)">
     <use xlink:href="#DejaVuSans-44"/>
     <use xlink:href="#DejaVuSans-66" x="77.001953"/>
     <use xlink:href="#DejaVuSans-28" x="112.207031"/>
     <use xlink:href="#DejaVuSans-5a" x="151.220703"/>
     <use xlink:href="#DejaVuSans-29" x="219.726562"/>
    </g>
   </g>
   <g id="legend_1">
    <g id="patch_7">
     <path d="M 227.55 182.597813 
L 361.029844 182.597813 
Q 364.329844 182.597813 364.329844 179.297813 
L 364.329844 132.51 
Q 364.329844 129.21 361.029844 129.21 
L 227.55 129.21 
Q 224.25 129.21 224.25 132.51 
L 224.25 179.297813 
Q 224.25 182.597813 227.55 182.597813 
z
" style="fill: #ffffff; opacity: 0.8; stroke: #cccccc; stroke-width: 1.5; stroke-linejoin: miter"/>
    </g>
    <g id="line2d_14">
     <path d="M 230.85 142.572422 
L 247.35 142.572422 
L 263.85 142.572422 
" style="fill: none; stroke: #00c9a7; stroke-width: 2.25; stroke-linecap: round"/>
    </g>
    <g id="text_15">
     <!-- df trace -->
     <g style="fill: #262626" transform="translate(277.05 148.347422)scale(0.165 -0.165)">
      <defs>
       <path id="DejaVuSans-64" d="M 2906 2969 
L 2906 4863 
L 3481 4863 
L 3481 0 
L 2906 0 
L 2906 525 
Q 2725 213 2448 61 
Q 2172 -91 1784 -91 
Q 1150 -91 751 415 
Q 353 922 353 1747 
Q 353 2572 751 3078 
Q 1150 3584 1784 3584 
Q 2172 3584 2448 3432 
Q 2725 3281 2906 2969 
z
M 947 1747 
Q 947 1113 1208 752 
Q 1469 391 1925 391 
Q 2381 391 2643 752 
Q 2906 1113 2906 1747 
Q 2906 2381 2643 2742 
Q 2381 3103 1925 3103 
Q 1469 3103 1208 2742 
Q 947 2381 947 1747 
z
" transform="scale(0.015625)"/>
       <path id="DejaVuSans-74" d="M 1172 4494 
L 1172 3500 
L 2356 3500 
L 2356 3053 
L 1172 3053 
L 1172 1153 
Q 1172 725 1289 603 
Q 1406 481 1766 481 
L 2356 481 
L 2356 0 
L 1766 0 
Q 1100 0 847 248 
Q 594 497 594 1153 
L 594 3053 
L 172 3053 
L 172 3500 
L 594 3500 
L 594 4494 
L 1172 4494 
z
" transform="scale(0.015625)"/>
       <path id="DejaVuSans-72" d="M 2631 2963 
Q 2534 3019 2420 3045 
Q 2306 3072 2169 3072 
Q 1681 3072 1420 2755 
Q 1159 2438 1159 1844 
L 1159 0 
L 581 0 
L 581 3500 
L 1159 3500 
L 1159 2956 
Q 1341 3275 1631 3429 
Q 1922 3584 2338 3584 
Q 2397 3584 2469 3576 
Q 2541 3569 2628 3553 
L 2631 2963 
z
" transform="scale(0.015625)"/>
       <path id="DejaVuSans-61" d="M 2194 1759 
Q 1497 1759 1228 1600 
Q 959 1441 959 1056 
Q 959 750 1161 570 
Q 1363 391 1709 391 
Q 2188 391 2477 730 
Q 2766 1069 2766 1631 
L 2766 1759 
L 2194 1759 
z
M 3341 1997 
L 3341 0 
L 2766 0 
L 2766 531 
Q 2569 213 2275 61 
Q 1981 -91 1556 -91 
Q 1019 -91 701 211 
Q 384 513 384 1019 
Q 384 1609 779 1909 
Q 1175 2209 1959 2209 
L 2766 2209 
L 2766 2266 
Q 2766 2663 2505 2880 
Q 2244 3097 1772 3097 
Q 1472 3097 1187 3025 
Q 903 2953 641 2809 
L 641 3341 
Q 956 3463 1253 3523 
Q 1550 3584 1831 3584 
Q 2591 3584 2966 3190 
Q 3341 2797 3341 1997 
z
" transform="scale(0.015625)"/>
       <path id="DejaVuSans-63" d="M 3122 3366 
L 3122 2828 
Q 2878 2963 2633 3030 
Q 2388 3097 2138 3097 
Q 1578 3097 1268 2742 
Q 959 2388 959 1747 
Q 959 1106 1268 751 
Q 1578 397 2138 397 
Q 2388 397 2633 464 
Q 2878 531 3122 666 
L 3122 134 
Q 2881 22 2623 -34 
Q 2366 -91 2075 -91 
Q 1284 -91 818 406 
Q 353 903 353 1747 
Q 353 2603 823 3093 
Q 1294 3584 2113 3584 
Q 2378 3584 2631 3529 
Q 2884 3475 3122 3366 
z
" transform="scale(0.015625)"/>
       <path id="DejaVuSans-65" d="M 3597 1894 
L 3597 1613 
L 953 1613 
Q 991 1019 1311 708 
Q 1631 397 2203 397 
Q 2534 397 2845 478 
Q 3156 559 3463 722 
L 3463 178 
Q 3153 47 2828 -22 
Q 2503 -91 2169 -91 
Q 1331 -91 842 396 
Q 353 884 353 1716 
Q 353 2575 817 3079 
Q 1281 3584 2069 3584 
Q 2775 3584 3186 3129 
Q 3597 2675 3597 1894 
z
M 3022 2063 
Q 3016 2534 2758 2815 
Q 2500 3097 2075 3097 
Q 1594 3097 1305 2825 
Q 1016 2553 972 2059 
L 3022 2063 
z
" transform="scale(0.015625)"/>
      </defs>
      <use xlink:href="#DejaVuSans-64"/>
      <use xlink:href="#DejaVuSans-66" x="63.476562"/>
      <use xlink:href="#DejaVuSans-20" x="98.681641"/>
      <use xlink:href="#DejaVuSans-74" x="130.46875"/>
      <use xlink:href="#DejaVuSans-72" x="169.677734"/>
      <use xlink:href="#DejaVuSans-61" x="210.791016"/>
      <use xlink:href="#DejaVuSans-63" x="272.070312"/>
      <use xlink:href="#DejaVuSans-65" x="327.050781"/>
     </g>
    </g>
    <g id="line2d_15">
     <path d="M 230.85 166.791328 
L 247.35 166.791328 
L 263.85 166.791328 
" style="fill: none; stroke: #ffc75f; stroke-width: 2.25; stroke-linecap: round"/>
    </g>
    <g id="text_16">
     <!-- df retrace -->
     <g style="fill: #262626" transform="translate(277.05 172.566328)scale(0.165 -0.165)">
      <use xlink:href="#DejaVuSans-64"/>
      <use xlink:href="#DejaVuSans-66" x="63.476562"/>
      <use xlink:href="#DejaVuSans-20" x="98.681641"/>
      <use xlink:href="#DejaVuSans-72" x="130.46875"/>
      <use xlink:href="#DejaVuSans-65" x="169.332031"/>
      <use xlink:href="#DejaVuSans-74" x="230.855469"/>
      <use xlink:href="#DejaVuSans-72" x="270.064453"/>
      <use xlink:href="#DejaVuSans-61" x="311.177734"/>
      <use xlink:href="#DejaVuSans-63" x="372.457031"/>
      <use xlink:href="#DejaVuSans-65" x="427.4375"/>
     </g>
    </g>
   </g>
  </g>
 </g>
 <defs>
  <clipPath id="p783f086760">
   <rect x="216" y="120.96" width="1339.2" height="776.16"/>
  </clipPath>
 </defs>
</svg>
