<?xml version="1.0" encoding="utf-8" standalone="no"?>
<!DOCTYPE svg PUBLIC "-//W3C//DTD SVG 1.1//EN"
  "http://www.w3.org/Graphics/SVG/1.1/DTD/svg11.dtd">
<svg xmlns:xlink="http://www.w3.org/1999/xlink" width="1728pt" height="1008pt" viewBox="0 0 1728 1008" xmlns="http://www.w3.org/2000/svg" version="1.1">
 <metadata>
  <rdf:RDF xmlns:dc="http://purl.org/dc/elements/1.1/" xmlns:cc="http://creativecommons.org/ns#" xmlns:rdf="http://www.w3.org/1999/02/22-rdf-syntax-ns#">
   <cc:Work>
    <dc:type rdf:resource="http://purl.org/dc/dcmitype/StillImage"/>
    <dc:date>2022-10-30T23:56:38.881169</dc:date>
    <dc:format>image/svg+xml</dc:format>
    <dc:creator>
     <cc:Agent>
      <dc:title>Matplotlib v3.5.2, https://matplotlib.org/</dc:title>
     </cc:Agent>
    </dc:creator>
   </cc:Work>
  </rdf:RDF>
 </metadata>
 <defs>
  <style type="text/css">*{stroke-linejoin: round; stroke-linecap: butt}</style>
 </defs>
 <g id="figure_1">
  <g id="patch_1">
   <path d="M 0 1008 
L 1728 1008 
L 1728 0 
L 0 0 
z
" style="fill: #ffffff"/>
  </g>
  <g id="axes_1">
   <g id="patch_2">
    <path d="M 216 897.12 
L 1555.2 897.12 
L 1555.2 120.96 
L 216 120.96 
L 216 897.12 
z
" style="fill: none"/>
   </g>
   <g id="matplotlib.axis_1">
    <g id="xtick_1">
     <g id="line2d_1">
      <defs>
       <path id="m006ea1b962" d="M 0 0 
L 0 9 
" style="stroke: #262626; stroke-width: 1.875"/>
      </defs>
      <g>
       <use xlink:href="#m006ea1b962" x="440.43649" y="897.12" style="fill: #262626; stroke: #262626; stroke-width: 1.875"/>
      </g>
     </g>
     <g id="text_1">
      <!-- 0.0 -->
      <g style="fill: #262626" transform="translate(402.26899 946.0925)scale(0.48 -0.48)">
       <defs>
        <path id="DejaVuSans-30" d="M 2034 4250 
Q 1547 4250 1301 3770 
Q 1056 3291 1056 2328 
Q 1056 1369 1301 889 
Q 1547 409 2034 409 
Q 2525 409 2770 889 
Q 3016 1369 3016 2328 
Q 3016 3291 2770 3770 
Q 2525 4250 2034 4250 
z
M 2034 4750 
Q 2819 4750 3233 4129 
Q 3647 3509 3647 2328 
Q 3647 1150 3233 529 
Q 2819 -91 2034 -91 
Q 1250 -91 836 529 
Q 422 1150 422 2328 
Q 422 3509 836 4129 
Q 1250 4750 2034 4750 
z
" transform="scale(0.015625)"/>
        <path id="DejaVuSans-2e" d="M 684 794 
L 1344 794 
L 1344 0 
L 684 0 
L 684 794 
z
" transform="scale(0.015625)"/>
       </defs>
       <use xlink:href="#DejaVuSans-30"/>
       <use xlink:href="#DejaVuSans-2e" x="63.623047"/>
       <use xlink:href="#DejaVuSans-30" x="95.410156"/>
      </g>
     </g>
    </g>
    <g id="xtick_2">
     <g id="line2d_2">
      <g>
       <use xlink:href="#m006ea1b962" x="704.249012" y="897.12" style="fill: #262626; stroke: #262626; stroke-width: 1.875"/>
      </g>
     </g>
     <g id="text_2">
      <!-- 0.5 -->
      <g style="fill: #262626" transform="translate(666.081512 946.0925)scale(0.48 -0.48)">
       <defs>
        <path id="DejaVuSans-35" d="M 691 4666 
L 3169 4666 
L 3169 4134 
L 1269 4134 
L 1269 2991 
Q 1406 3038 1543 3061 
Q 1681 3084 1819 3084 
Q 2600 3084 3056 2656 
Q 3513 2228 3513 1497 
Q 3513 744 3044 326 
Q 2575 -91 1722 -91 
Q 1428 -91 1123 -41 
Q 819 9 494 109 
L 494 744 
Q 775 591 1075 516 
Q 1375 441 1709 441 
Q 2250 441 2565 725 
Q 2881 1009 2881 1497 
Q 2881 1984 2565 2268 
Q 2250 2553 1709 2553 
Q 1456 2553 1204 2497 
Q 953 2441 691 2322 
L 691 4666 
z
" transform="scale(0.015625)"/>
       </defs>
       <use xlink:href="#DejaVuSans-30"/>
       <use xlink:href="#DejaVuSans-2e" x="63.623047"/>
       <use xlink:href="#DejaVuSans-35" x="95.410156"/>
      </g>
     </g>
    </g>
    <g id="xtick_3">
     <g id="line2d_3">
      <g>
       <use xlink:href="#m006ea1b962" x="968.061533" y="897.12" style="fill: #262626; stroke: #262626; stroke-width: 1.875"/>
      </g>
     </g>
     <g id="text_3">
      <!-- 1.0 -->
      <g style="fill: #262626" transform="translate(929.894033 946.0925)scale(0.48 -0.48)">
       <defs>
        <path id="DejaVuSans-31" d="M 794 531 
L 1825 531 
L 1825 4091 
L 703 3866 
L 703 4441 
L 1819 4666 
L 2450 4666 
L 2450 531 
L 3481 531 
L 3481 0 
L 794 0 
L 794 531 
z
" transform="scale(0.015625)"/>
       </defs>
       <use xlink:href="#DejaVuSans-31"/>
       <use xlink:href="#DejaVuSans-2e" x="63.623047"/>
       <use xlink:href="#DejaVuSans-30" x="95.410156"/>
      </g>
     </g>
    </g>
    <g id="xtick_4">
     <g id="line2d_4">
      <g>
       <use xlink:href="#m006ea1b962" x="1231.874054" y="897.12" style="fill: #262626; stroke: #262626; stroke-width: 1.875"/>
      </g>
     </g>
     <g id="text_4">
      <!-- 1.5 -->
      <g style="fill: #262626" transform="translate(1193.706554 946.0925)scale(0.48 -0.48)">
       <use xlink:href="#DejaVuSans-31"/>
       <use xlink:href="#DejaVuSans-2e" x="63.623047"/>
       <use xlink:href="#DejaVuSans-35" x="95.410156"/>
      </g>
     </g>
    </g>
    <g id="xtick_5">
     <g id="line2d_5">
      <g>
       <use xlink:href="#m006ea1b962" x="1495.686575" y="897.12" style="fill: #262626; stroke: #262626; stroke-width: 1.875"/>
      </g>
     </g>
     <g id="text_5">
      <!-- 2.0 -->
      <g style="fill: #262626" transform="translate(1457.519075 946.0925)scale(0.48 -0.48)">
       <defs>
        <path id="DejaVuSans-32" d="M 1228 531 
L 3431 531 
L 3431 0 
L 469 0 
L 469 531 
Q 828 903 1448 1529 
Q 2069 2156 2228 2338 
Q 2531 2678 2651 2914 
Q 2772 3150 2772 3378 
Q 2772 3750 2511 3984 
Q 2250 4219 1831 4219 
Q 1534 4219 1204 4116 
Q 875 4013 500 3803 
L 500 4441 
Q 881 4594 1212 4672 
Q 1544 4750 1819 4750 
Q 2544 4750 2975 4387 
Q 3406 4025 3406 3419 
Q 3406 3131 3298 2873 
Q 3191 2616 2906 2266 
Q 2828 2175 2409 1742 
Q 1991 1309 1228 531 
z
" transform="scale(0.015625)"/>
       </defs>
       <use xlink:href="#DejaVuSans-32"/>
       <use xlink:href="#DejaVuSans-2e" x="63.623047"/>
       <use xlink:href="#DejaVuSans-30" x="95.410156"/>
      </g>
     </g>
    </g>
    <g id="text_6">
     <!-- Z [nm] -->
     <g style="fill: #262626" transform="translate(804.2175 996.5475)scale(0.48 -0.48)">
      <defs>
       <path id="DejaVuSans-5a" d="M 359 4666 
L 4025 4666 
L 4025 4184 
L 1075 531 
L 4097 531 
L 4097 0 
L 288 0 
L 288 481 
L 3238 4134 
L 359 4134 
L 359 4666 
z
" transform="scale(0.015625)"/>
       <path id="DejaVuSans-20" transform="scale(0.015625)"/>
       <path id="DejaVuSans-5b" d="M 550 4863 
L 1875 4863 
L 1875 4416 
L 1125 4416 
L 1125 -397 
L 1875 -397 
L 1875 -844 
L 550 -844 
L 550 4863 
z
" transform="scale(0.015625)"/>
       <path id="DejaVuSans-6e" d="M 3513 2113 
L 3513 0 
L 2938 0 
L 2938 2094 
Q 2938 2591 2744 2837 
Q 2550 3084 2163 3084 
Q 1697 3084 1428 2787 
Q 1159 2491 1159 1978 
L 1159 0 
L 581 0 
L 581 3500 
L 1159 3500 
L 1159 2956 
Q 1366 3272 1645 3428 
Q 1925 3584 2291 3584 
Q 2894 3584 3203 3211 
Q 3513 2838 3513 2113 
z
" transform="scale(0.015625)"/>
       <path id="DejaVuSans-6d" d="M 3328 2828 
Q 3544 3216 3844 3400 
Q 4144 3584 4550 3584 
Q 5097 3584 5394 3201 
Q 5691 2819 5691 2113 
L 5691 0 
L 5113 0 
L 5113 2094 
Q 5113 2597 4934 2840 
Q 4756 3084 4391 3084 
Q 3944 3084 3684 2787 
Q 3425 2491 3425 1978 
L 3425 0 
L 2847 0 
L 2847 2094 
Q 2847 2600 2669 2842 
Q 2491 3084 2119 3084 
Q 1678 3084 1418 2786 
Q 1159 2488 1159 1978 
L 1159 0 
L 581 0 
L 581 3500 
L 1159 3500 
L 1159 2956 
Q 1356 3278 1631 3431 
Q 1906 3584 2284 3584 
Q 2666 3584 2933 3390 
Q 3200 3197 3328 2828 
z
" transform="scale(0.015625)"/>
       <path id="DejaVuSans-5d" d="M 1947 4863 
L 1947 -844 
L 622 -844 
L 622 -397 
L 1369 -397 
L 1369 4416 
L 622 4416 
L 622 4863 
L 1947 4863 
z
" transform="scale(0.015625)"/>
      </defs>
      <use xlink:href="#DejaVuSans-5a"/>
      <use xlink:href="#DejaVuSans-20" x="68.505859"/>
      <use xlink:href="#DejaVuSans-5b" x="100.292969"/>
      <use xlink:href="#DejaVuSans-6e" x="139.306641"/>
      <use xlink:href="#DejaVuSans-6d" x="202.685547"/>
      <use xlink:href="#DejaVuSans-5d" x="300.097656"/>
     </g>
    </g>
   </g>
   <g id="matplotlib.axis_2">
    <g id="ytick_1">
     <g id="line2d_6">
      <defs>
       <path id="mc094502662" d="M 0 0 
L -9 0 
" style="stroke: #262626; stroke-width: 1.875"/>
      </defs>
      <g>
       <use xlink:href="#mc094502662" x="216" y="876.141118" style="fill: #262626; stroke: #262626; stroke-width: 1.875"/>
      </g>
     </g>
     <g id="text_7">
      <!-- −12 -->
      <g style="fill: #262626" transform="translate(102.1975 894.377368)scale(0.48 -0.48)">
       <defs>
        <path id="DejaVuSans-2212" d="M 678 2272 
L 4684 2272 
L 4684 1741 
L 678 1741 
L 678 2272 
z
" transform="scale(0.015625)"/>
       </defs>
       <use xlink:href="#DejaVuSans-2212"/>
       <use xlink:href="#DejaVuSans-31" x="83.789062"/>
       <use xlink:href="#DejaVuSans-32" x="147.412109"/>
      </g>
     </g>
    </g>
    <g id="ytick_2">
     <g id="line2d_7">
      <g>
       <use xlink:href="#mc094502662" x="216" y="756.011182" style="fill: #262626; stroke: #262626; stroke-width: 1.875"/>
      </g>
     </g>
     <g id="text_8">
      <!-- −10 -->
      <g style="fill: #262626" transform="translate(102.1975 774.247432)scale(0.48 -0.48)">
       <use xlink:href="#DejaVuSans-2212"/>
       <use xlink:href="#DejaVuSans-31" x="83.789062"/>
       <use xlink:href="#DejaVuSans-30" x="147.412109"/>
      </g>
     </g>
    </g>
    <g id="ytick_3">
     <g id="line2d_8">
      <g>
       <use xlink:href="#mc094502662" x="216" y="635.881246" style="fill: #262626; stroke: #262626; stroke-width: 1.875"/>
      </g>
     </g>
     <g id="text_9">
      <!-- −8 -->
      <g style="fill: #262626" transform="translate(132.7375 654.117496)scale(0.48 -0.48)">
       <defs>
        <path id="DejaVuSans-38" d="M 2034 2216 
Q 1584 2216 1326 1975 
Q 1069 1734 1069 1313 
Q 1069 891 1326 650 
Q 1584 409 2034 409 
Q 2484 409 2743 651 
Q 3003 894 3003 1313 
Q 3003 1734 2745 1975 
Q 2488 2216 2034 2216 
z
M 1403 2484 
Q 997 2584 770 2862 
Q 544 3141 544 3541 
Q 544 4100 942 4425 
Q 1341 4750 2034 4750 
Q 2731 4750 3128 4425 
Q 3525 4100 3525 3541 
Q 3525 3141 3298 2862 
Q 3072 2584 2669 2484 
Q 3125 2378 3379 2068 
Q 3634 1759 3634 1313 
Q 3634 634 3220 271 
Q 2806 -91 2034 -91 
Q 1263 -91 848 271 
Q 434 634 434 1313 
Q 434 1759 690 2068 
Q 947 2378 1403 2484 
z
M 1172 3481 
Q 1172 3119 1398 2916 
Q 1625 2713 2034 2713 
Q 2441 2713 2670 2916 
Q 2900 3119 2900 3481 
Q 2900 3844 2670 4047 
Q 2441 4250 2034 4250 
Q 1625 4250 1398 4047 
Q 1172 3844 1172 3481 
z
" transform="scale(0.015625)"/>
       </defs>
       <use xlink:href="#DejaVuSans-2212"/>
       <use xlink:href="#DejaVuSans-38" x="83.789062"/>
      </g>
     </g>
    </g>
    <g id="ytick_4">
     <g id="line2d_9">
      <g>
       <use xlink:href="#mc094502662" x="216" y="515.75131" style="fill: #262626; stroke: #262626; stroke-width: 1.875"/>
      </g>
     </g>
     <g id="text_10">
      <!-- −6 -->
      <g style="fill: #262626" transform="translate(132.7375 533.98756)scale(0.48 -0.48)">
       <defs>
        <path id="DejaVuSans-36" d="M 2113 2584 
Q 1688 2584 1439 2293 
Q 1191 2003 1191 1497 
Q 1191 994 1439 701 
Q 1688 409 2113 409 
Q 2538 409 2786 701 
Q 3034 994 3034 1497 
Q 3034 2003 2786 2293 
Q 2538 2584 2113 2584 
z
M 3366 4563 
L 3366 3988 
Q 3128 4100 2886 4159 
Q 2644 4219 2406 4219 
Q 1781 4219 1451 3797 
Q 1122 3375 1075 2522 
Q 1259 2794 1537 2939 
Q 1816 3084 2150 3084 
Q 2853 3084 3261 2657 
Q 3669 2231 3669 1497 
Q 3669 778 3244 343 
Q 2819 -91 2113 -91 
Q 1303 -91 875 529 
Q 447 1150 447 2328 
Q 447 3434 972 4092 
Q 1497 4750 2381 4750 
Q 2619 4750 2861 4703 
Q 3103 4656 3366 4563 
z
" transform="scale(0.015625)"/>
       </defs>
       <use xlink:href="#DejaVuSans-2212"/>
       <use xlink:href="#DejaVuSans-36" x="83.789062"/>
      </g>
     </g>
    </g>
    <g id="ytick_5">
     <g id="line2d_10">
      <g>
       <use xlink:href="#mc094502662" x="216" y="395.621374" style="fill: #262626; stroke: #262626; stroke-width: 1.875"/>
      </g>
     </g>
     <g id="text_11">
      <!-- −4 -->
      <g style="fill: #262626" transform="translate(132.7375 413.857624)scale(0.48 -0.48)">
       <defs>
        <path id="DejaVuSans-34" d="M 2419 4116 
L 825 1625 
L 2419 1625 
L 2419 4116 
z
M 2253 4666 
L 3047 4666 
L 3047 1625 
L 3713 1625 
L 3713 1100 
L 3047 1100 
L 3047 0 
L 2419 0 
L 2419 1100 
L 313 1100 
L 313 1709 
L 2253 4666 
z
" transform="scale(0.015625)"/>
       </defs>
       <use xlink:href="#DejaVuSans-2212"/>
       <use xlink:href="#DejaVuSans-34" x="83.789062"/>
      </g>
     </g>
    </g>
    <g id="ytick_6">
     <g id="line2d_11">
      <g>
       <use xlink:href="#mc094502662" x="216" y="275.491438" style="fill: #262626; stroke: #262626; stroke-width: 1.875"/>
      </g>
     </g>
     <g id="text_12">
      <!-- −2 -->
      <g style="fill: #262626" transform="translate(132.7375 293.727688)scale(0.48 -0.48)">
       <use xlink:href="#DejaVuSans-2212"/>
       <use xlink:href="#DejaVuSans-32" x="83.789062"/>
      </g>
     </g>
    </g>
    <g id="ytick_7">
     <g id="line2d_12">
      <g>
       <use xlink:href="#mc094502662" x="216" y="155.361502" style="fill: #262626; stroke: #262626; stroke-width: 1.875"/>
      </g>
     </g>
     <g id="text_13">
      <!-- 0 -->
      <g style="fill: #262626" transform="translate(172.96 173.597752)scale(0.48 -0.48)">
       <use xlink:href="#DejaVuSans-30"/>
      </g>
     </g>
    </g>
    <g id="text_14">
     <!-- Df(Z) [Hz] -->
     <g style="fill: #262626" transform="translate(88.215 628.13625)rotate(-90)scale(0.48 -0.48)">
      <defs>
       <path id="DejaVuSans-44" d="M 1259 4147 
L 1259 519 
L 2022 519 
Q 2988 519 3436 956 
Q 3884 1394 3884 2338 
Q 3884 3275 3436 3711 
Q 2988 4147 2022 4147 
L 1259 4147 
z
M 628 4666 
L 1925 4666 
Q 3281 4666 3915 4102 
Q 4550 3538 4550 2338 
Q 4550 1131 3912 565 
Q 3275 0 1925 0 
L 628 0 
L 628 4666 
z
" transform="scale(0.015625)"/>
       <path id="DejaVuSans-66" d="M 2375 4863 
L 2375 4384 
L 1825 4384 
Q 1516 4384 1395 4259 
Q 1275 4134 1275 3809 
L 1275 3500 
L 2222 3500 
L 2222 3053 
L 1275 3053 
L 1275 0 
L 697 0 
L 697 3053 
L 147 3053 
L 147 3500 
L 697 3500 
L 697 3744 
Q 697 4328 969 4595 
Q 1241 4863 1831 4863 
L 2375 4863 
z
" transform="scale(0.015625)"/>
       <path id="DejaVuSans-28" d="M 1984 4856 
Q 1566 4138 1362 3434 
Q 1159 2731 1159 2009 
Q 1159 1288 1364 580 
Q 1569 -128 1984 -844 
L 1484 -844 
Q 1016 -109 783 600 
Q 550 1309 550 2009 
Q 550 2706 781 3412 
Q 1013 4119 1484 4856 
L 1984 4856 
z
" transform="scale(0.015625)"/>
       <path id="DejaVuSans-29" d="M 513 4856 
L 1013 4856 
Q 1481 4119 1714 3412 
Q 1947 2706 1947 2009 
Q 1947 1309 1714 600 
Q 1481 -109 1013 -844 
L 513 -844 
Q 928 -128 1133 580 
Q 1338 1288 1338 2009 
Q 1338 2731 1133 3434 
Q 928 4138 513 4856 
z
" transform="scale(0.015625)"/>
       <path id="DejaVuSans-48" d="M 628 4666 
L 1259 4666 
L 1259 2753 
L 3553 2753 
L 3553 4666 
L 4184 4666 
L 4184 0 
L 3553 0 
L 3553 2222 
L 1259 2222 
L 1259 0 
L 628 0 
L 628 4666 
z
" transform="scale(0.015625)"/>
       <path id="DejaVuSans-7a" d="M 353 3500 
L 3084 3500 
L 3084 2975 
L 922 459 
L 3084 459 
L 3084 0 
L 275 0 
L 275 525 
L 2438 3041 
L 353 3041 
L 353 3500 
z
" transform="scale(0.015625)"/>
      </defs>
      <use xlink:href="#DejaVuSans-44"/>
      <use xlink:href="#DejaVuSans-66" x="77.001953"/>
      <use xlink:href="#DejaVuSans-28" x="112.207031"/>
      <use xlink:href="#DejaVuSans-5a" x="151.220703"/>
      <use xlink:href="#DejaVuSans-29" x="219.726562"/>
      <use xlink:href="#DejaVuSans-20" x="258.740234"/>
      <use xlink:href="#DejaVuSans-5b" x="290.527344"/>
      <use xlink:href="#DejaVuSans-48" x="329.541016"/>
      <use xlink:href="#DejaVuSans-7a" x="404.736328"/>
      <use xlink:href="#DejaVuSans-5d" x="457.226562"/>
     </g>
    </g>
   </g>
   <g id="line2d_13">
    <path d="M 276.872727 861.84 
L 279.255221 852.603989 
L 281.637716 845.087418 
L 284.02021 841.64615 
L 286.402704 831.963208 
L 288.785198 823.753535 
L 293.550187 810.096353 
L 295.932681 797.926097 
L 298.315175 659.193372 
L 300.697669 643.868649 
L 305.462658 606.791449 
L 307.845152 578.082004 
L 310.227646 558.853034 
L 312.610141 546.503527 
L 314.992635 489.114684 
L 317.375129 475.349269 
L 319.757623 466.142622 
L 322.140117 461.576001 
L 324.522612 456.22819 
L 326.905106 449.704496 
L 329.2876 440.869324 
L 331.670094 437.914593 
L 334.052589 427.626979 
L 336.435083 422.195859 
L 338.817577 418.297417 
L 341.200071 410.818061 
L 345.96506 401.80159 
L 348.347554 396.706778 
L 350.730048 387.961061 
L 353.112542 386.616852 
L 355.495036 380.640128 
L 357.877531 376.583604 
L 360.260025 373.883921 
L 362.642519 371.851732 
L 365.025013 366.096254 
L 367.407508 360.730347 
L 369.790002 354.852979 
L 372.172496 353.213776 
L 374.55499 347.21998 
L 376.937484 343.005374 
L 379.319979 344.107509 
L 381.702473 338.661025 
L 384.084967 335.843889 
L 386.467461 336.640445 
L 388.849956 331.964908 
L 391.23245 324.008917 
L 393.614944 325.482869 
L 395.997438 321.241972 
L 398.379932 318.156473 
L 400.762427 313.664285 
L 403.144921 314.642481 
L 405.527415 310.428899 
L 407.909909 308.920121 
L 410.292403 304.638936 
L 412.674898 304.889887 
L 415.057392 303.371891 
L 417.439886 299.456719 
L 419.82238 299.477205 
L 422.204875 294.373857 
L 424.587369 292.41132 
L 426.969863 290.146277 
L 429.352357 288.702713 
L 431.734851 286.268661 
L 434.117346 286.86548 
L 436.49984 283.431382 
L 438.882334 282.612292 
L 441.264828 278.839154 
L 443.647323 276.444709 
L 446.029817 277.105717 
L 448.412311 275.154788 
L 450.794805 274.148937 
L 453.177299 274.36711 
L 455.559794 271.565681 
L 457.942288 270.489495 
L 460.324782 266.991891 
L 462.707276 268.094708 
L 465.089771 265.06896 
L 467.472265 266.723869 
L 469.854759 264.041257 
L 472.237253 261.730462 
L 474.619747 259.79797 
L 477.002242 261.279775 
L 479.384736 259.370842 
L 481.76723 255.944938 
L 484.149724 256.632577 
L 486.532218 256.758223 
L 488.914713 256.243689 
L 491.297207 252.287203 
L 493.679701 251.934506 
L 496.062195 252.24828 
L 498.44469 250.924558 
L 500.827184 246.621863 
L 503.209678 251.378318 
L 505.592172 247.195806 
L 507.974666 246.984802 
L 510.357161 241.862676 
L 512.739655 248.921391 
L 515.122149 242.699862 
L 517.504643 242.322923 
L 519.887138 241.822046 
L 522.269632 238.977597 
L 524.652126 242.003687 
L 527.03462 240.285613 
L 529.417114 237.299812 
L 531.799609 240.70045 
L 534.182103 234.124176 
L 536.564597 237.135926 
L 538.947091 235.495015 
L 541.329585 235.243723 
L 543.71208 233.790599 
L 546.094574 231.472634 
L 548.477068 232.172906 
L 550.859562 230.934541 
L 553.242057 230.324065 
L 555.624551 229.980587 
L 558.007045 232.292406 
L 560.389539 228.771243 
L 562.772033 228.393964 
L 565.154528 229.466735 
L 567.537022 226.563219 
L 569.919516 229.605697 
L 572.30201 227.019027 
L 574.684505 226.125506 
L 577.066999 226.624676 
L 579.449493 224.366461 
L 581.831987 222.824565 
L 584.214481 225.489423 
L 586.596976 222.96899 
L 588.97947 221.01772 
L 591.361964 219.566986 
L 593.744458 221.547619 
L 596.126952 220.985284 
L 598.509447 219.439291 
L 600.891941 219.472068 
L 603.274435 218.265798 
L 605.656929 220.46358 
L 608.039424 217.382861 
L 610.421918 219.194145 
L 612.804412 215.417593 
L 615.186906 215.343502 
L 617.5694 213.908474 
L 619.951895 215.773362 
L 622.334389 213.130698 
L 624.716883 214.344138 
L 627.099377 213.173718 
L 629.481872 214.383744 
L 631.864366 212.832288 
L 634.24686 211.070853 
L 636.629354 213.091092 
L 639.011848 211.228252 
L 641.394343 211.251469 
L 643.776837 209.283128 
L 646.159331 210.757079 
L 648.541825 209.863217 
L 650.92432 207.143731 
L 653.306814 208.849513 
L 655.689308 208.480086 
L 658.071802 207.00511 
L 660.454296 208.454479 
L 662.836791 207.836491 
L 665.219285 205.06579 
L 667.601779 207.465699 
L 669.984273 204.99648 
L 672.366767 205.752064 
L 674.749262 207.335272 
L 677.131756 206.676313 
L 679.51425 204.707289 
L 681.896744 200.135206 
L 684.279239 203.348058 
L 686.661733 205.720994 
L 689.044227 203.154468 
L 691.426721 204.651636 
L 693.809215 200.347575 
L 696.19171 202.748849 
L 698.574204 203.913124 
L 700.956698 201.494437 
L 703.339192 201.854987 
L 705.721687 200.643936 
L 708.104181 199.82792 
L 710.486675 199.659936 
L 712.869169 198.563948 
L 715.251663 201.894934 
L 717.634158 197.301 
L 720.016652 197.407184 
L 722.399146 196.832217 
L 724.78164 197.085899 
L 727.164134 198.317435 
L 729.546629 200.306604 
L 731.929123 195.215889 
L 734.311617 197.808705 
L 736.694111 196.327584 
L 739.076606 196.084145 
L 741.4591 197.158624 
L 743.841594 194.695551 
L 746.224088 195.813733 
L 748.606582 193.38173 
L 750.989077 192.819737 
L 753.371571 195.826365 
L 755.754065 193.75662 
L 758.136559 194.861144 
L 762.901548 191.681752 
L 765.284042 192.305203 
L 767.666536 194.582538 
L 770.04903 190.960653 
L 772.431525 192.145755 
L 774.814019 193.586929 
L 777.196513 191.426704 
L 779.579007 192.885633 
L 781.961502 190.462849 
L 784.343996 191.704969 
L 786.72649 189.540989 
L 789.108984 192.867878 
L 791.491478 190.839446 
L 793.873973 188.247995 
L 796.256467 188.633128 
L 798.638961 192.332517 
L 801.021455 190.503479 
L 803.403949 187.596889 
L 805.786444 190.196192 
L 808.168938 187.993972 
L 810.551432 191.013575 
L 812.933926 187.302236 
L 815.316421 185.763071 
L 817.698915 189.564548 
L 820.081409 184.784875 
L 822.463903 188.22751 
L 824.846397 185.24922 
L 827.228892 187.564112 
L 831.99388 185.771265 
L 834.376374 184.517878 
L 836.758869 187.457927 
L 839.141363 185.178544 
L 841.523857 184.069922 
L 843.906351 187.865253 
L 846.288845 187.251704 
L 848.67134 183.608651 
L 853.436328 185.852867 
L 855.818822 184.313703 
L 858.201316 182.548512 
L 860.583811 185.140304 
L 862.966305 183.888282 
L 865.348799 181.803171 
L 867.731293 184.740831 
L 870.113788 181.305367 
L 872.496282 184.896864 
L 877.26127 180.760445 
L 879.643764 184.107821 
L 882.026259 183.967152 
L 884.408753 182.783757 
L 886.791247 181.429647 
L 889.173741 180.715035 
L 891.556236 182.31873 
L 896.321224 181.600362 
L 898.703718 181.662502 
L 901.086212 180.595535 
L 903.468707 180.37463 
L 905.851201 182.432767 
L 908.233695 180.189575 
L 910.616189 180.73279 
L 912.998684 180.343219 
L 915.381178 179.154361 
L 917.763672 181.318341 
L 920.146166 179.454477 
L 922.52866 181.412576 
L 924.911155 179.719085 
L 927.293649 178.25128 
L 929.676143 179.662067 
L 934.441131 180.306344 
L 936.823626 178.092515 
L 941.588614 177.277864 
L 943.971108 179.559979 
L 946.353603 177.290838 
L 948.736097 179.704404 
L 951.118591 178.28235 
L 953.501085 174.937023 
L 955.883579 178.238305 
L 958.266074 178.339369 
L 960.648568 179.639874 
L 963.031062 177.106125 
L 965.413556 177.057301 
L 967.796051 177.974039 
L 970.178545 175.278794 
L 972.561039 177.386097 
L 974.943533 177.380976 
L 977.326027 176.204068 
L 979.708522 177.512768 
L 982.091016 176.646561 
L 984.47351 174.884443 
L 986.856004 174.884443 
L 989.238498 175.595982 
L 991.620993 177.87878 
L 994.003487 176.404146 
L 996.385981 175.769428 
L 1001.15097 173.617739 
L 1003.533464 176.528085 
L 1005.915958 172.211391 
L 1010.680946 175.129931 
L 1013.063441 172.26841 
L 1015.445935 175.745528 
L 1017.828429 173.625934 
L 1020.210923 172.340793 
L 1022.593418 174.539599 
L 1024.975912 171.92937 
L 1027.358406 172.804454 
L 1029.7409 175.315327 
L 1032.123394 171.876449 
L 1034.505889 174.072524 
L 1036.888383 173.479802 
L 1039.270877 170.741537 
L 1041.653371 173.520091 
L 1044.035866 173.893615 
L 1046.41836 174.077304 
L 1048.800854 173.828743 
L 1051.183348 171.739194 
L 1053.565842 172.71022 
L 1055.948337 173.877567 
L 1058.330831 171.538092 
L 1060.713325 170.478978 
L 1063.095819 170.644912 
L 1065.478313 172.604718 
L 1067.860808 170.026584 
L 1070.243302 174.974239 
L 1072.625796 171.548335 
L 1075.00829 170.233831 
L 1077.390785 169.543119 
L 1079.773279 169.393915 
L 1082.155773 171.884985 
L 1084.538267 169.897523 
L 1086.920761 170.21437 
L 1089.303256 171.549018 
L 1091.68575 171.999705 
L 1094.068244 168.589848 
L 1096.450738 169.623697 
L 1098.833233 169.421912 
L 1101.215727 170.968246 
L 1103.598221 171.641887 
L 1108.363209 169.750367 
L 1110.745704 168.052438 
L 1113.128198 170.205834 
L 1115.510692 168.816899 
L 1117.893186 170.076774 
L 1120.27568 169.949079 
L 1122.658175 168.835677 
L 1125.040669 170.423325 
L 1127.423163 167.677548 
L 1129.805657 168.630478 
L 1132.188152 168.676571 
L 1134.570646 168.504149 
L 1136.95314 166.819194 
L 1139.335634 169.467663 
L 1141.718128 167.28627 
L 1144.100623 173.014775 
L 1146.483117 165.942745 
L 1148.865611 167.086534 
L 1151.248105 167.89777 
L 1153.6306 170.492635 
L 1156.013094 167.207741 
L 1158.395588 168.444399 
L 1160.778082 167.794659 
L 1163.160576 168.213251 
L 1165.543071 166.30944 
L 1167.925565 169.625062 
L 1170.308059 167.461423 
L 1172.690553 167.095752 
L 1175.073048 168.141551 
L 1177.455542 169.770511 
L 1179.838036 166.505762 
L 1182.22053 166.673063 
L 1184.603024 167.071852 
L 1186.985519 166.988885 
L 1189.368013 165.744374 
L 1191.750507 164.688333 
L 1194.133001 168.479566 
L 1196.515495 164.967963 
L 1198.89799 167.290709 
L 1201.280484 167.92645 
L 1203.662978 162.625757 
L 1206.045472 167.505468 
L 1210.810461 165.682917 
L 1213.192955 167.263394 
L 1215.575449 165.973132 
L 1217.957943 165.059808 
L 1220.340438 165.964596 
L 1222.722932 166.566878 
L 1225.105426 164.74023 
L 1227.48792 166.40982 
L 1229.870415 163.89485 
L 1232.252909 164.282714 
L 1234.635403 167.767003 
L 1237.017897 166.528638 
L 1239.400391 164.987083 
L 1241.782886 164.497473 
L 1244.16538 163.810517 
L 1246.547874 165.030786 
L 1248.930368 164.191894 
L 1251.312862 164.991522 
L 1253.695357 163.882559 
L 1256.077851 166.621848 
L 1258.460345 162.13444 
L 1260.842839 165.465085 
L 1263.225334 161.734626 
L 1265.607828 163.574931 
L 1267.990322 167.083461 
L 1270.372816 161.638001 
L 1272.75531 165.592097 
L 1275.137805 164.539811 
L 1277.520299 161.060985 
L 1279.902793 164.900019 
L 1282.285287 162.806032 
L 1284.667782 165.997715 
L 1287.050276 163.261499 
L 1289.43277 162.679703 
L 1291.815264 164.181993 
L 1294.197758 163.759986 
L 1296.580253 162.774961 
L 1298.962747 163.486159 
L 1301.345241 162.515475 
L 1303.727735 162.790326 
L 1306.110229 164.915725 
L 1308.492724 162.709748 
L 1310.875218 164.514204 
L 1313.257712 162.28501 
L 1315.640206 164.691747 
L 1318.022701 161.807009 
L 1320.405195 162.274426 
L 1322.787689 163.606684 
L 1325.170183 161.83364 
L 1327.552677 164.620388 
L 1329.935172 161.617857 
L 1332.317666 162.28023 
L 1334.70016 163.416166 
L 1337.082654 163.164874 
L 1339.465149 161.243309 
L 1341.847643 162.74833 
L 1344.230137 160.573765 
L 1346.612631 161.31057 
L 1348.995125 164.359877 
L 1351.37762 162.618928 
L 1353.760114 162.272036 
L 1356.142608 162.926556 
L 1358.525102 160.344325 
L 1360.907597 163.605318 
L 1363.290091 161.868466 
L 1365.672585 160.663903 
L 1368.055079 162.257354 
L 1370.437573 161.040841 
L 1372.820068 160.611664 
L 1375.202562 161.130637 
L 1377.585056 160.775209 
L 1379.96755 162.023475 
L 1382.350044 158.198781 
L 1384.732539 160.521526 
L 1387.115033 160.815497 
L 1389.497527 159.043478 
L 1391.880021 162.342712 
L 1394.262516 160.671755 
L 1396.64501 161.634587 
L 1399.027504 160.760527 
L 1401.409998 160.740383 
L 1403.792492 159.522504 
L 1406.174987 160.195461 
L 1408.557481 160.992358 
L 1410.939975 160.443681 
L 1413.322469 159.518406 
L 1415.704964 160.345349 
L 1418.087458 160.225848 
L 1420.469952 161.951433 
L 1422.852446 159.092985 
L 1425.23494 158.999775 
L 1427.617435 161.802912 
L 1429.999929 157.546651 
L 1432.382423 159.643028 
L 1434.764917 162.648974 
L 1437.147411 157.777116 
L 1439.529906 160.652977 
L 1441.9124 161.2317 
L 1444.294894 156.90647 
L 1446.677388 159.300574 
L 1449.059883 162.187703 
L 1451.442377 156.294629 
L 1453.824871 159.462412 
L 1456.207365 159.857105 
L 1458.589859 157.811942 
L 1460.972354 156.582454 
L 1463.354848 159.941779 
L 1468.119836 159.968411 
L 1470.502331 156.37623 
L 1472.884825 159.724971 
L 1475.267319 161.580299 
L 1477.649813 157.905493 
L 1480.032307 157.634057 
L 1482.414802 158.045138 
L 1484.797296 156.993194 
L 1487.17979 160.364127 
L 1489.562284 158.171808 
L 1491.944779 159.012408 
L 1494.327273 158.339109 
L 1494.327273 158.339109 
" clip-path="url(#p3a5d2a28c7)" style="fill: none; stroke: #00c9a7; stroke-width: 2.25; stroke-linecap: round"/>
   </g>
   <g id="line2d_14">
    <path d="M 276.872727 853.017119 
L 279.255221 838.781556 
L 281.637716 825.901468 
L 284.02021 820.997857 
L 286.402704 820.54239 
L 288.785198 819.6994 
L 291.167693 823.388205 
L 293.550187 822.118428 
L 295.932681 827.322839 
L 298.315175 820.361773 
L 300.697669 822.632963 
L 303.080164 821.093116 
L 305.462658 822.873671 
L 307.845152 813.821008 
L 310.227646 811.722923 
L 312.610141 807.992464 
L 314.992635 796.467168 
L 317.375129 791.556729 
L 319.757623 781.632396 
L 322.140117 776.06129 
L 324.522612 762.152475 
L 326.905106 751.802721 
L 329.2876 736.571891 
L 331.670094 726.639364 
L 336.435083 698.860656 
L 343.582565 646.336501 
L 345.96506 635.519672 
L 348.347554 619.422635 
L 350.730048 606.250283 
L 353.112542 596.421209 
L 355.495036 587.30743 
L 357.877531 575.916658 
L 360.260025 567.206108 
L 362.642519 559.00497 
L 367.407508 533.844344 
L 372.172496 502.8422 
L 374.55499 483.73034 
L 376.937484 462.728668 
L 379.319979 443.718212 
L 381.702473 428.948994 
L 384.084967 416.878436 
L 386.467461 402.544199 
L 388.849956 390.035245 
L 391.23245 379.588184 
L 393.614944 373.111607 
L 395.997438 361.757709 
L 398.379932 354.242162 
L 400.762427 348.032924 
L 403.144921 341.419092 
L 410.292403 325.187873 
L 412.674898 320.913176 
L 415.057392 319.07765 
L 417.439886 312.863633 
L 419.82238 309.395733 
L 422.204875 305.219708 
L 424.587369 303.133574 
L 426.969863 299.841168 
L 429.352357 297.946576 
L 431.734851 296.611245 
L 434.117346 291.468292 
L 436.49984 287.376942 
L 438.882334 286.561949 
L 441.264828 283.637947 
L 443.647323 280.975821 
L 446.029817 282.103904 
L 448.412311 275.636204 
L 450.794805 277.043918 
L 453.177299 271.533928 
L 455.559794 272.34653 
L 457.942288 271.514125 
L 460.324782 268.245279 
L 462.707276 266.034181 
L 465.089771 267.828393 
L 467.472265 261.76119 
L 469.854759 263.047697 
L 472.237253 262.880396 
L 474.619747 263.094131 
L 477.002242 258.935178 
L 479.384736 256.312999 
L 481.76723 256.259736 
L 484.149724 256.822753 
L 486.532218 253.926748 
L 488.914713 256.659891 
L 491.297207 253.665213 
L 493.679701 254.722962 
L 496.062195 250.326373 
L 498.44469 251.896608 
L 500.827184 252.566493 
L 503.209678 250.637074 
L 505.592172 246.403348 
L 507.974666 248.555037 
L 510.357161 247.963681 
L 512.739655 248.925488 
L 515.122149 245.097038 
L 517.504643 246.573038 
L 519.887138 243.415839 
L 522.269632 244.115087 
L 524.652126 242.593336 
L 527.03462 243.995587 
L 529.417114 239.65192 
L 531.799609 239.050321 
L 534.182103 240.846924 
L 536.564597 239.245278 
L 538.947091 239.005253 
L 541.329585 235.158366 
L 543.71208 237.155729 
L 546.094574 234.784159 
L 548.477068 236.633342 
L 550.859562 232.909711 
L 553.242057 232.266116 
L 555.624551 232.824354 
L 558.007045 232.177003 
L 560.389539 230.331235 
L 562.772033 230.123646 
L 565.154528 227.889672 
L 567.537022 228.95425 
L 569.919516 227.526391 
L 572.30201 227.295244 
L 574.684505 227.45674 
L 577.066999 226.426647 
L 579.449493 225.70623 
L 581.831987 225.344998 
L 584.214481 222.748085 
L 586.596976 225.820951 
L 588.97947 223.958453 
L 591.361964 222.735793 
L 593.744458 220.0385 
L 596.126952 225.455963 
L 598.509447 219.482311 
L 600.891941 222.284424 
L 603.274435 220.485773 
L 605.656929 219.717898 
L 608.039424 217.99641 
L 610.421918 217.67888 
L 612.804412 216.841354 
L 615.186906 218.629762 
L 617.5694 215.714636 
L 619.951895 215.091527 
L 622.334389 216.869692 
L 627.099377 212.910134 
L 629.481872 212.459788 
L 631.864366 212.92106 
L 634.24686 213.209226 
L 636.629354 214.563336 
L 639.011848 210.658406 
L 641.394343 210.800782 
L 643.776837 212.205765 
L 646.159331 211.170892 
L 648.541825 209.262984 
L 650.92432 212.829898 
L 653.306814 208.150948 
L 655.689308 207.997987 
L 658.071802 207.41824 
L 660.454296 209.276299 
L 662.836791 209.365754 
L 667.601779 207.287131 
L 669.984273 204.97258 
L 672.366767 206.530864 
L 674.749262 206.82825 
L 677.131756 205.828885 
L 679.51425 203.862251 
L 681.896744 205.89444 
L 684.279239 204.777624 
L 686.661733 202.101499 
L 689.044227 204.477166 
L 691.426721 205.91117 
L 693.809215 203.136372 
L 696.19171 200.97922 
L 698.574204 202.309771 
L 700.956698 203.439903 
L 703.339192 203.779284 
L 705.721687 201.92737 
L 708.104181 198.763684 
L 710.486675 202.133252 
L 712.869169 200.184031 
L 715.251663 201.119548 
L 717.634158 197.526002 
L 720.016652 201.880594 
L 722.399146 199.335578 
L 724.78164 198.024147 
L 727.164134 199.457469 
L 729.546629 196.58946 
L 731.929123 196.987909 
L 734.311617 196.923379 
L 736.694111 196.571365 
L 739.076606 197.193108 
L 741.4591 195.929819 
L 743.841594 197.105019 
L 746.224088 197.587459 
L 748.606582 195.073855 
L 750.989077 195.302271 
L 753.371571 195.756372 
L 755.754065 193.383779 
L 758.136559 195.639604 
L 760.519054 194.415237 
L 762.901548 196.550538 
L 765.284042 193.137266 
L 767.666536 193.56098 
L 770.04903 193.193261 
L 772.431525 193.463332 
L 777.196513 190.643124 
L 779.579007 191.578982 
L 781.961502 191.373441 
L 784.343996 193.762765 
L 786.72649 192.535326 
L 789.108984 190.710385 
L 791.491478 189.196487 
L 793.873973 190.883149 
L 796.256467 190.650294 
L 798.638961 189.271601 
L 801.021455 188.716095 
L 803.403949 190.8811 
L 805.786444 188.871446 
L 808.168938 188.543332 
L 810.551432 191.113955 
L 812.933926 188.039382 
L 815.316421 187.799357 
L 817.698915 188.262335 
L 820.081409 190.736334 
L 822.463903 186.179957 
L 824.846397 187.346621 
L 827.228892 189.520503 
L 829.611386 187.010313 
L 831.99388 183.646891 
L 834.376374 186.502949 
L 836.758869 186.566113 
L 839.141363 188.126788 
L 841.523857 186.978219 
L 843.906351 184.882183 
L 846.288845 185.360867 
L 848.67134 190.599421 
L 851.053834 186.006169 
L 853.436328 186.477683 
L 855.818822 187.602011 
L 858.201316 183.048706 
L 860.583811 184.219127 
L 862.966305 186.682882 
L 865.348799 179.570905 
L 867.731293 185.165228 
L 870.113788 186.579771 
L 872.496282 184.571482 
L 874.878776 185.099332 
L 877.26127 183.035391 
L 879.643764 184.248148 
L 882.026259 182.694985 
L 884.408753 179.555541 
L 886.791247 182.559096 
L 891.556236 182.788878 
L 893.93873 182.281856 
L 896.321224 180.283468 
L 898.703718 180.915454 
L 901.086212 180.433356 
L 903.468707 183.066802 
L 905.851201 182.413989 
L 908.233695 178.593051 
L 910.616189 179.054322 
L 912.998684 181.647821 
L 915.381178 180.17387 
L 917.763672 181.358289 
L 920.146166 180.505739 
L 922.52866 180.36746 
L 924.911155 182.322144 
L 927.293649 177.881512 
L 929.676143 180.676112 
L 932.058637 177.743233 
L 934.441131 179.349659 
L 936.823626 177.989403 
L 939.20612 179.847463 
L 941.588614 176.991746 
L 943.971108 178.333223 
L 946.353603 178.246841 
L 948.736097 178.912629 
L 951.118591 178.800981 
L 953.501085 174.526966 
L 955.883579 179.278641 
L 958.266074 175.665292 
L 960.648568 176.593298 
L 963.031062 178.072371 
L 965.413556 177.513792 
L 967.796051 179.697234 
L 970.178545 177.304837 
L 972.561039 173.730411 
L 974.943533 178.299421 
L 977.326027 175.645831 
L 979.708522 177.942969 
L 982.091016 174.354203 
L 984.47351 176.251527 
L 986.856004 175.387027 
L 989.238498 173.66554 
L 991.620993 176.155585 
L 994.003487 178.018766 
L 996.385981 175.868102 
L 998.768475 174.302306 
L 1001.15097 174.387322 
L 1005.915958 175.84625 
L 1008.298452 176.500429 
L 1010.680946 172.903127 
L 1013.063441 172.964926 
L 1015.445935 175.811424 
L 1017.828429 174.273967 
L 1020.210923 173.2309 
L 1022.593418 174.658417 
L 1024.975912 173.452829 
L 1027.358406 174.306061 
L 1029.7409 173.106619 
L 1032.123394 173.72529 
L 1034.505889 175.739041 
L 1036.888383 169.32119 
L 1039.270877 174.879663 
L 1041.653371 173.003166 
L 1044.035866 173.033553 
L 1046.41836 173.494483 
L 1048.800854 172.084721 
L 1051.183348 173.597937 
L 1053.565842 171.302506 
L 1055.948337 172.716365 
L 1058.330831 171.818747 
L 1060.713325 172.475658 
L 1063.095819 167.923378 
L 1065.478313 171.658617 
L 1067.860808 171.890789 
L 1070.243302 171.090478 
L 1072.625796 171.232513 
L 1075.00829 174.042478 
L 1077.390785 173.590766 
L 1079.773279 171.497803 
L 1082.155773 173.166711 
L 1084.538267 170.274803 
L 1086.920761 171.80509 
L 1089.303256 170.939908 
L 1091.68575 170.92147 
L 1094.068244 170.617257 
L 1096.450738 172.077892 
L 1098.833233 172.636471 
L 1101.215727 167.923036 
L 1103.598221 169.422595 
L 1105.980715 169.305826 
L 1108.363209 169.454689 
L 1110.745704 171.464002 
L 1113.128198 169.019708 
L 1115.510692 171.206564 
L 1117.893186 168.65472 
L 1120.27568 168.873917 
L 1122.658175 171.094575 
L 1125.040669 166.657015 
L 1127.423163 169.581701 
L 1129.805657 172.157445 
L 1132.188152 169.742856 
L 1136.95314 168.584727 
L 1139.335634 170.327383 
L 1141.718128 167.974933 
L 1144.100623 168.607944 
L 1146.483117 169.635988 
L 1148.865611 166.288271 
L 1151.248105 168.378162 
L 1153.6306 168.369626 
L 1156.013094 167.075267 
L 1158.395588 167.899819 
L 1160.778082 168.882112 
L 1163.160576 166.250031 
L 1165.543071 168.564241 
L 1167.925565 168.896793 
L 1170.308059 168.223494 
L 1172.690553 165.819489 
L 1175.073048 168.997856 
L 1177.455542 164.375583 
L 1179.838036 170.208224 
L 1182.22053 164.538104 
L 1184.603024 168.109115 
L 1186.985519 166.896699 
L 1189.368013 167.324169 
L 1191.750507 164.798956 
L 1194.133001 167.82607 
L 1196.515495 166.464449 
L 1198.89799 167.651258 
L 1201.280484 164.821832 
L 1203.662978 165.430259 
L 1206.045472 165.059808 
L 1208.427967 166.687403 
L 1210.810461 165.64297 
L 1213.192955 165.484888 
L 1215.575449 165.843047 
L 1217.957943 165.070051 
L 1220.340438 167.976299 
L 1222.722932 164.925968 
L 1225.105426 167.985859 
L 1227.48792 164.8669 
L 1232.252909 164.677065 
L 1234.635403 166.077609 
L 1237.017897 166.530004 
L 1239.400391 164.160824 
L 1241.782886 164.590342 
L 1244.16538 166.235691 
L 1246.547874 167.437865 
L 1248.930368 164.092538 
L 1251.312862 164.177554 
L 1253.695357 162.843247 
L 1256.077851 166.502348 
L 1258.460345 162.86544 
L 1260.842839 163.040594 
L 1263.225334 164.718378 
L 1265.607828 165.315197 
L 1267.990322 163.232136 
L 1270.372816 161.825104 
L 1272.75531 164.923578 
L 1275.137805 160.833593 
L 1279.902793 165.758714 
L 1282.285287 163.064152 
L 1284.667782 165.080294 
L 1287.050276 163.332174 
L 1289.43277 162.393243 
L 1291.815264 163.298373 
L 1294.197758 165.078587 
L 1296.580253 163.556494 
L 1298.962747 162.322909 
L 1303.727735 163.032399 
L 1306.110229 161.774573 
L 1308.492724 162.66707 
L 1310.875218 162.60254 
L 1313.257712 163.872657 
L 1315.640206 162.277499 
L 1318.022701 163.969965 
L 1320.405195 160.18317 
L 1322.787689 164.799297 
L 1327.552677 161.125857 
L 1329.935172 162.775644 
L 1332.317666 163.736427 
L 1334.70016 161.345737 
L 1337.082654 162.103711 
L 1339.465149 161.094445 
L 1341.847643 161.885879 
L 1344.230137 163.223941 
L 1346.612631 161.641415 
L 1348.995125 164.368755 
L 1351.37762 159.027772 
L 1353.760114 160.685071 
L 1356.142608 166.394797 
L 1358.525102 162.403145 
L 1360.907597 160.818229 
L 1363.290091 164.95294 
L 1365.672585 161.781401 
L 1368.055079 160.884466 
L 1370.437573 161.724383 
L 1372.820068 160.562498 
L 1375.202562 160.711703 
L 1377.585056 163.078151 
L 1379.96755 161.585762 
L 1382.350044 159.561768 
L 1384.732539 161.700141 
L 1387.115033 163.148485 
L 1389.497527 160.80184 
L 1391.880021 160.378467 
L 1394.262516 158.129813 
L 1396.64501 159.375347 
L 1399.027504 161.726773 
L 1401.409998 159.890223 
L 1403.792492 163.962795 
L 1406.174987 158.359936 
L 1408.557481 159.699706 
L 1410.939975 161.221798 
L 1413.322469 159.91344 
L 1415.704964 160.70624 
L 1418.087458 160.23336 
L 1420.469952 160.005626 
L 1422.852446 156.24 
L 1425.23494 160.62737 
L 1427.617435 159.28521 
L 1429.999929 158.498898 
L 1432.382423 159.257213 
L 1434.764917 162.787594 
L 1437.147411 160.637271 
L 1439.529906 158.26058 
L 1441.9124 159.840716 
L 1444.294894 158.702731 
L 1446.677388 162.599467 
L 1449.059883 158.816769 
L 1451.442377 159.215558 
L 1453.824871 157.23356 
L 1456.207365 159.792233 
L 1458.589859 158.959828 
L 1460.972354 157.678101 
L 1463.354848 159.985482 
L 1465.737342 160.859883 
L 1468.119836 159.409149 
L 1470.502331 156.894862 
L 1472.884825 158.046504 
L 1475.267319 161.949385 
L 1477.649813 161.733601 
L 1480.032307 158.627275 
L 1482.414802 157.883983 
L 1484.797296 158.22712 
L 1487.17979 160.006651 
L 1489.562284 157.167664 
L 1491.944779 157.63952 
L 1494.327273 159.624591 
L 1494.327273 159.624591 
" clip-path="url(#p3a5d2a28c7)" style="fill: none; stroke: #ffc75f; stroke-width: 2.25; stroke-linecap: round"/>
   </g>
   <g id="patch_3">
    <path d="M 216 897.12 
L 216 120.96 
" style="fill: none; stroke: #262626; stroke-width: 1.875; stroke-linejoin: miter; stroke-linecap: square"/>
   </g>
   <g id="patch_4">
    <path d="M 1555.2 897.12 
L 1555.2 120.96 
" style="fill: none; stroke: #262626; stroke-width: 1.875; stroke-linejoin: miter; stroke-linecap: square"/>
   </g>
   <g id="patch_5">
    <path d="M 216 897.12 
L 1555.2 897.12 
" style="fill: none; stroke: #262626; stroke-width: 1.875; stroke-linejoin: miter; stroke-linecap: square"/>
   </g>
   <g id="patch_6">
    <path d="M 216 120.96 
L 1555.2 120.96 
" style="fill: none; stroke: #262626; stroke-width: 1.875; stroke-linejoin: miter; stroke-linecap: square"/>
   </g>
   <g id="text_15">
    <!-- Df(Z) -->
    <g style="fill: #262626" transform="translate(820.916406 110.561563)scale(0.5 -0.5)">
     <use xlink:href="#DejaVuSans-44"/>
     <use xlink:href="#DejaVuSans-66" x="77.001953"/>
     <use xlink:href="#DejaVuSans-28" x="112.207031"/>
     <use xlink:href="#DejaVuSans-5a" x="151.220703"/>
     <use xlink:href="#DejaVuSans-29" x="219.726562"/>
    </g>
   </g>
   <g id="legend_1">
    <g id="patch_7">
     <path d="M 227.55 182.597813 
L 361.029844 182.597813 
Q 364.329844 182.597813 364.329844 179.297813 
L 364.329844 132.51 
Q 364.329844 129.21 361.029844 129.21 
L 227.55 129.21 
Q 224.25 129.21 224.25 132.51 
L 224.25 179.297813 
Q 224.25 182.597813 227.55 182.597813 
z
" style="fill: #ffffff; opacity: 0.8; stroke: #cccccc; stroke-width: 1.5; stroke-linejoin: miter"/>
    </g>
    <g id="line2d_15">
     <path d="M 230.85 142.572422 
L 247.35 142.572422 
L 263.85 142.572422 
" style="fill: none; stroke: #00c9a7; stroke-width: 2.25; stroke-linecap: round"/>
    </g>
    <g id="text_16">
     <!-- df trace -->
     <g style="fill: #262626" transform="translate(277.05 148.347422)scale(0.165 -0.165)">
      <defs>
       <path id="DejaVuSans-64" d="M 2906 2969 
L 2906 4863 
L 3481 4863 
L 3481 0 
L 2906 0 
L 2906 525 
Q 2725 213 2448 61 
Q 2172 -91 1784 -91 
Q 1150 -91 751 415 
Q 353 922 353 1747 
Q 353 2572 751 3078 
Q 1150 3584 1784 3584 
Q 2172 3584 2448 3432 
Q 2725 3281 2906 2969 
z
M 947 1747 
Q 947 1113 1208 752 
Q 1469 391 1925 391 
Q 2381 391 2643 752 
Q 2906 1113 2906 1747 
Q 2906 2381 2643 2742 
Q 2381 3103 1925 3103 
Q 1469 3103 1208 2742 
Q 947 2381 947 1747 
z
" transform="scale(0.015625)"/>
       <path id="DejaVuSans-74" d="M 1172 4494 
L 1172 3500 
L 2356 3500 
L 2356 3053 
L 1172 3053 
L 1172 1153 
Q 1172 725 1289 603 
Q 1406 481 1766 481 
L 2356 481 
L 2356 0 
L 1766 0 
Q 1100 0 847 248 
Q 594 497 594 1153 
L 594 3053 
L 172 3053 
L 172 3500 
L 594 3500 
L 594 4494 
L 1172 4494 
z
" transform="scale(0.015625)"/>
       <path id="DejaVuSans-72" d="M 2631 2963 
Q 2534 3019 2420 3045 
Q 2306 3072 2169 3072 
Q 1681 3072 1420 2755 
Q 1159 2438 1159 1844 
L 1159 0 
L 581 0 
L 581 3500 
L 1159 3500 
L 1159 2956 
Q 1341 3275 1631 3429 
Q 1922 3584 2338 3584 
Q 2397 3584 2469 3576 
Q 2541 3569 2628 3553 
L 2631 2963 
z
" transform="scale(0.015625)"/>
       <path id="DejaVuSans-61" d="M 2194 1759 
Q 1497 1759 1228 1600 
Q 959 1441 959 1056 
Q 959 750 1161 570 
Q 1363 391 1709 391 
Q 2188 391 2477 730 
Q 2766 1069 2766 1631 
L 2766 1759 
L 2194 1759 
z
M 3341 1997 
L 3341 0 
L 2766 0 
L 2766 531 
Q 2569 213 2275 61 
Q 1981 -91 1556 -91 
Q 1019 -91 701 211 
Q 384 513 384 1019 
Q 384 1609 779 1909 
Q 1175 2209 1959 2209 
L 2766 2209 
L 2766 2266 
Q 2766 2663 2505 2880 
Q 2244 3097 1772 3097 
Q 1472 3097 1187 3025 
Q 903 2953 641 2809 
L 641 3341 
Q 956 3463 1253 3523 
Q 1550 3584 1831 3584 
Q 2591 3584 2966 3190 
Q 3341 2797 3341 1997 
z
" transform="scale(0.015625)"/>
       <path id="DejaVuSans-63" d="M 3122 3366 
L 3122 2828 
Q 2878 2963 2633 3030 
Q 2388 3097 2138 3097 
Q 1578 3097 1268 2742 
Q 959 2388 959 1747 
Q 959 1106 1268 751 
Q 1578 397 2138 397 
Q 2388 397 2633 464 
Q 2878 531 3122 666 
L 3122 134 
Q 2881 22 2623 -34 
Q 2366 -91 2075 -91 
Q 1284 -91 818 406 
Q 353 903 353 1747 
Q 353 2603 823 3093 
Q 1294 3584 2113 3584 
Q 2378 3584 2631 3529 
Q 2884 3475 3122 3366 
z
" transform="scale(0.015625)"/>
       <path id="DejaVuSans-65" d="M 3597 1894 
L 3597 1613 
L 953 1613 
Q 991 1019 1311 708 
Q 1631 397 2203 397 
Q 2534 397 2845 478 
Q 3156 559 3463 722 
L 3463 178 
Q 3153 47 2828 -22 
Q 2503 -91 2169 -91 
Q 1331 -91 842 396 
Q 353 884 353 1716 
Q 353 2575 817 3079 
Q 1281 3584 2069 3584 
Q 2775 3584 3186 3129 
Q 3597 2675 3597 1894 
z
M 3022 2063 
Q 3016 2534 2758 2815 
Q 2500 3097 2075 3097 
Q 1594 3097 1305 2825 
Q 1016 2553 972 2059 
L 3022 2063 
z
" transform="scale(0.015625)"/>
      </defs>
      <use xlink:href="#DejaVuSans-64"/>
      <use xlink:href="#DejaVuSans-66" x="63.476562"/>
      <use xlink:href="#DejaVuSans-20" x="98.681641"/>
      <use xlink:href="#DejaVuSans-74" x="130.46875"/>
      <use xlink:href="#DejaVuSans-72" x="169.677734"/>
      <use xlink:href="#DejaVuSans-61" x="210.791016"/>
      <use xlink:href="#DejaVuSans-63" x="272.070312"/>
      <use xlink:href="#DejaVuSans-65" x="327.050781"/>
     </g>
    </g>
    <g id="line2d_16">
     <path d="M 230.85 166.791328 
L 247.35 166.791328 
L 263.85 166.791328 
" style="fill: none; stroke: #ffc75f; stroke-width: 2.25; stroke-linecap: round"/>
    </g>
    <g id="text_17">
     <!-- df retrace -->
     <g style="fill: #262626" transform="translate(277.05 172.566328)scale(0.165 -0.165)">
      <use xlink:href="#DejaVuSans-64"/>
      <use xlink:href="#DejaVuSans-66" x="63.476562"/>
      <use xlink:href="#DejaVuSans-20" x="98.681641"/>
      <use xlink:href="#DejaVuSans-72" x="130.46875"/>
      <use xlink:href="#DejaVuSans-65" x="169.332031"/>
      <use xlink:href="#DejaVuSans-74" x="230.855469"/>
      <use xlink:href="#DejaVuSans-72" x="270.064453"/>
      <use xlink:href="#DejaVuSans-61" x="311.177734"/>
      <use xlink:href="#DejaVuSans-63" x="372.457031"/>
      <use xlink:href="#DejaVuSans-65" x="427.4375"/>
     </g>
    </g>
   </g>
  </g>
 </g>
 <defs>
  <clipPath id="p3a5d2a28c7">
   <rect x="216" y="120.96" width="1339.2" height="776.16"/>
  </clipPath>
 </defs>
</svg>
