<?xml version="1.0" encoding="utf-8" standalone="no"?>
<!DOCTYPE svg PUBLIC "-//W3C//DTD SVG 1.1//EN"
  "http://www.w3.org/Graphics/SVG/1.1/DTD/svg11.dtd">
<svg xmlns:xlink="http://www.w3.org/1999/xlink" width="1728pt" height="1008pt" viewBox="0 0 1728 1008" xmlns="http://www.w3.org/2000/svg" version="1.1">
 <metadata>
  <rdf:RDF xmlns:dc="http://purl.org/dc/elements/1.1/" xmlns:cc="http://creativecommons.org/ns#" xmlns:rdf="http://www.w3.org/1999/02/22-rdf-syntax-ns#">
   <cc:Work>
    <dc:type rdf:resource="http://purl.org/dc/dcmitype/StillImage"/>
    <dc:date>2022-10-28T12:59:59.742983</dc:date>
    <dc:format>image/svg+xml</dc:format>
    <dc:creator>
     <cc:Agent>
      <dc:title>Matplotlib v3.5.2, https://matplotlib.org/</dc:title>
     </cc:Agent>
    </dc:creator>
   </cc:Work>
  </rdf:RDF>
 </metadata>
 <defs>
  <style type="text/css">*{stroke-linejoin: round; stroke-linecap: butt}</style>
 </defs>
 <g id="figure_1">
  <g id="patch_1">
   <path d="M 0 1008 
L 1728 1008 
L 1728 0 
L 0 0 
z
" style="fill: #ffffff"/>
  </g>
  <g id="axes_1">
   <g id="patch_2">
    <path d="M 216 897.12 
L 1555.2 897.12 
L 1555.2 120.96 
L 216 120.96 
L 216 897.12 
z
" style="fill: none"/>
   </g>
   <g id="matplotlib.axis_1">
    <g id="xtick_1">
     <g id="line2d_1">
      <defs>
       <path id="m1d8f911af8" d="M 0 0 
L 0 9 
" style="stroke: #262626; stroke-width: 1.875"/>
      </defs>
      <g>
       <use xlink:href="#m1d8f911af8" x="440.41586" y="897.12" style="fill: #262626; stroke: #262626; stroke-width: 1.875"/>
      </g>
     </g>
     <g id="text_1">
      <!-- 0.0 -->
      <g style="fill: #262626" transform="translate(402.24836 946.0925)scale(0.48 -0.48)">
       <defs>
        <path id="DejaVuSans-30" d="M 2034 4250 
Q 1547 4250 1301 3770 
Q 1056 3291 1056 2328 
Q 1056 1369 1301 889 
Q 1547 409 2034 409 
Q 2525 409 2770 889 
Q 3016 1369 3016 2328 
Q 3016 3291 2770 3770 
Q 2525 4250 2034 4250 
z
M 2034 4750 
Q 2819 4750 3233 4129 
Q 3647 3509 3647 2328 
Q 3647 1150 3233 529 
Q 2819 -91 2034 -91 
Q 1250 -91 836 529 
Q 422 1150 422 2328 
Q 422 3509 836 4129 
Q 1250 4750 2034 4750 
z
" transform="scale(0.015625)"/>
        <path id="DejaVuSans-2e" d="M 684 794 
L 1344 794 
L 1344 0 
L 684 0 
L 684 794 
z
" transform="scale(0.015625)"/>
       </defs>
       <use xlink:href="#DejaVuSans-30"/>
       <use xlink:href="#DejaVuSans-2e" x="63.623047"/>
       <use xlink:href="#DejaVuSans-30" x="95.410156"/>
      </g>
     </g>
    </g>
    <g id="xtick_2">
     <g id="line2d_2">
      <g>
       <use xlink:href="#m1d8f911af8" x="704.195106" y="897.12" style="fill: #262626; stroke: #262626; stroke-width: 1.875"/>
      </g>
     </g>
     <g id="text_2">
      <!-- 0.5 -->
      <g style="fill: #262626" transform="translate(666.027606 946.0925)scale(0.48 -0.48)">
       <defs>
        <path id="DejaVuSans-35" d="M 691 4666 
L 3169 4666 
L 3169 4134 
L 1269 4134 
L 1269 2991 
Q 1406 3038 1543 3061 
Q 1681 3084 1819 3084 
Q 2600 3084 3056 2656 
Q 3513 2228 3513 1497 
Q 3513 744 3044 326 
Q 2575 -91 1722 -91 
Q 1428 -91 1123 -41 
Q 819 9 494 109 
L 494 744 
Q 775 591 1075 516 
Q 1375 441 1709 441 
Q 2250 441 2565 725 
Q 2881 1009 2881 1497 
Q 2881 1984 2565 2268 
Q 2250 2553 1709 2553 
Q 1456 2553 1204 2497 
Q 953 2441 691 2322 
L 691 4666 
z
" transform="scale(0.015625)"/>
       </defs>
       <use xlink:href="#DejaVuSans-30"/>
       <use xlink:href="#DejaVuSans-2e" x="63.623047"/>
       <use xlink:href="#DejaVuSans-35" x="95.410156"/>
      </g>
     </g>
    </g>
    <g id="xtick_3">
     <g id="line2d_3">
      <g>
       <use xlink:href="#m1d8f911af8" x="967.974352" y="897.12" style="fill: #262626; stroke: #262626; stroke-width: 1.875"/>
      </g>
     </g>
     <g id="text_3">
      <!-- 1.0 -->
      <g style="fill: #262626" transform="translate(929.806852 946.0925)scale(0.48 -0.48)">
       <defs>
        <path id="DejaVuSans-31" d="M 794 531 
L 1825 531 
L 1825 4091 
L 703 3866 
L 703 4441 
L 1819 4666 
L 2450 4666 
L 2450 531 
L 3481 531 
L 3481 0 
L 794 0 
L 794 531 
z
" transform="scale(0.015625)"/>
       </defs>
       <use xlink:href="#DejaVuSans-31"/>
       <use xlink:href="#DejaVuSans-2e" x="63.623047"/>
       <use xlink:href="#DejaVuSans-30" x="95.410156"/>
      </g>
     </g>
    </g>
    <g id="xtick_4">
     <g id="line2d_4">
      <g>
       <use xlink:href="#m1d8f911af8" x="1231.753598" y="897.12" style="fill: #262626; stroke: #262626; stroke-width: 1.875"/>
      </g>
     </g>
     <g id="text_4">
      <!-- 1.5 -->
      <g style="fill: #262626" transform="translate(1193.586098 946.0925)scale(0.48 -0.48)">
       <use xlink:href="#DejaVuSans-31"/>
       <use xlink:href="#DejaVuSans-2e" x="63.623047"/>
       <use xlink:href="#DejaVuSans-35" x="95.410156"/>
      </g>
     </g>
    </g>
    <g id="xtick_5">
     <g id="line2d_5">
      <g>
       <use xlink:href="#m1d8f911af8" x="1495.532844" y="897.12" style="fill: #262626; stroke: #262626; stroke-width: 1.875"/>
      </g>
     </g>
     <g id="text_5">
      <!-- 2.0 -->
      <g style="fill: #262626" transform="translate(1457.365344 946.0925)scale(0.48 -0.48)">
       <defs>
        <path id="DejaVuSans-32" d="M 1228 531 
L 3431 531 
L 3431 0 
L 469 0 
L 469 531 
Q 828 903 1448 1529 
Q 2069 2156 2228 2338 
Q 2531 2678 2651 2914 
Q 2772 3150 2772 3378 
Q 2772 3750 2511 3984 
Q 2250 4219 1831 4219 
Q 1534 4219 1204 4116 
Q 875 4013 500 3803 
L 500 4441 
Q 881 4594 1212 4672 
Q 1544 4750 1819 4750 
Q 2544 4750 2975 4387 
Q 3406 4025 3406 3419 
Q 3406 3131 3298 2873 
Q 3191 2616 2906 2266 
Q 2828 2175 2409 1742 
Q 1991 1309 1228 531 
z
" transform="scale(0.015625)"/>
       </defs>
       <use xlink:href="#DejaVuSans-32"/>
       <use xlink:href="#DejaVuSans-2e" x="63.623047"/>
       <use xlink:href="#DejaVuSans-30" x="95.410156"/>
      </g>
     </g>
    </g>
    <g id="text_6">
     <!-- Z [nm] -->
     <g style="fill: #262626" transform="translate(804.2175 996.5475)scale(0.48 -0.48)">
      <defs>
       <path id="DejaVuSans-5a" d="M 359 4666 
L 4025 4666 
L 4025 4184 
L 1075 531 
L 4097 531 
L 4097 0 
L 288 0 
L 288 481 
L 3238 4134 
L 359 4134 
L 359 4666 
z
" transform="scale(0.015625)"/>
       <path id="DejaVuSans-20" transform="scale(0.015625)"/>
       <path id="DejaVuSans-5b" d="M 550 4863 
L 1875 4863 
L 1875 4416 
L 1125 4416 
L 1125 -397 
L 1875 -397 
L 1875 -844 
L 550 -844 
L 550 4863 
z
" transform="scale(0.015625)"/>
       <path id="DejaVuSans-6e" d="M 3513 2113 
L 3513 0 
L 2938 0 
L 2938 2094 
Q 2938 2591 2744 2837 
Q 2550 3084 2163 3084 
Q 1697 3084 1428 2787 
Q 1159 2491 1159 1978 
L 1159 0 
L 581 0 
L 581 3500 
L 1159 3500 
L 1159 2956 
Q 1366 3272 1645 3428 
Q 1925 3584 2291 3584 
Q 2894 3584 3203 3211 
Q 3513 2838 3513 2113 
z
" transform="scale(0.015625)"/>
       <path id="DejaVuSans-6d" d="M 3328 2828 
Q 3544 3216 3844 3400 
Q 4144 3584 4550 3584 
Q 5097 3584 5394 3201 
Q 5691 2819 5691 2113 
L 5691 0 
L 5113 0 
L 5113 2094 
Q 5113 2597 4934 2840 
Q 4756 3084 4391 3084 
Q 3944 3084 3684 2787 
Q 3425 2491 3425 1978 
L 3425 0 
L 2847 0 
L 2847 2094 
Q 2847 2600 2669 2842 
Q 2491 3084 2119 3084 
Q 1678 3084 1418 2786 
Q 1159 2488 1159 1978 
L 1159 0 
L 581 0 
L 581 3500 
L 1159 3500 
L 1159 2956 
Q 1356 3278 1631 3431 
Q 1906 3584 2284 3584 
Q 2666 3584 2933 3390 
Q 3200 3197 3328 2828 
z
" transform="scale(0.015625)"/>
       <path id="DejaVuSans-5d" d="M 1947 4863 
L 1947 -844 
L 622 -844 
L 622 -397 
L 1369 -397 
L 1369 4416 
L 622 4416 
L 622 4863 
L 1947 4863 
z
" transform="scale(0.015625)"/>
      </defs>
      <use xlink:href="#DejaVuSans-5a"/>
      <use xlink:href="#DejaVuSans-20" x="68.505859"/>
      <use xlink:href="#DejaVuSans-5b" x="100.292969"/>
      <use xlink:href="#DejaVuSans-6e" x="139.306641"/>
      <use xlink:href="#DejaVuSans-6d" x="202.685547"/>
      <use xlink:href="#DejaVuSans-5d" x="300.097656"/>
     </g>
    </g>
   </g>
   <g id="matplotlib.axis_2">
    <g id="ytick_1">
     <g id="line2d_6">
      <defs>
       <path id="m3815040b92" d="M 0 0 
L -9 0 
" style="stroke: #262626; stroke-width: 1.875"/>
      </defs>
      <g>
       <use xlink:href="#m3815040b92" x="216" y="851.201112" style="fill: #262626; stroke: #262626; stroke-width: 1.875"/>
      </g>
     </g>
     <g id="text_7">
      <!-- −12 -->
      <g style="fill: #262626" transform="translate(102.1975 869.437362)scale(0.48 -0.48)">
       <defs>
        <path id="DejaVuSans-2212" d="M 678 2272 
L 4684 2272 
L 4684 1741 
L 678 1741 
L 678 2272 
z
" transform="scale(0.015625)"/>
       </defs>
       <use xlink:href="#DejaVuSans-2212"/>
       <use xlink:href="#DejaVuSans-31" x="83.789062"/>
       <use xlink:href="#DejaVuSans-32" x="147.412109"/>
      </g>
     </g>
    </g>
    <g id="ytick_2">
     <g id="line2d_7">
      <g>
       <use xlink:href="#m3815040b92" x="216" y="735.690741" style="fill: #262626; stroke: #262626; stroke-width: 1.875"/>
      </g>
     </g>
     <g id="text_8">
      <!-- −10 -->
      <g style="fill: #262626" transform="translate(102.1975 753.926991)scale(0.48 -0.48)">
       <use xlink:href="#DejaVuSans-2212"/>
       <use xlink:href="#DejaVuSans-31" x="83.789062"/>
       <use xlink:href="#DejaVuSans-30" x="147.412109"/>
      </g>
     </g>
    </g>
    <g id="ytick_3">
     <g id="line2d_8">
      <g>
       <use xlink:href="#m3815040b92" x="216" y="620.18037" style="fill: #262626; stroke: #262626; stroke-width: 1.875"/>
      </g>
     </g>
     <g id="text_9">
      <!-- −8 -->
      <g style="fill: #262626" transform="translate(132.7375 638.41662)scale(0.48 -0.48)">
       <defs>
        <path id="DejaVuSans-38" d="M 2034 2216 
Q 1584 2216 1326 1975 
Q 1069 1734 1069 1313 
Q 1069 891 1326 650 
Q 1584 409 2034 409 
Q 2484 409 2743 651 
Q 3003 894 3003 1313 
Q 3003 1734 2745 1975 
Q 2488 2216 2034 2216 
z
M 1403 2484 
Q 997 2584 770 2862 
Q 544 3141 544 3541 
Q 544 4100 942 4425 
Q 1341 4750 2034 4750 
Q 2731 4750 3128 4425 
Q 3525 4100 3525 3541 
Q 3525 3141 3298 2862 
Q 3072 2584 2669 2484 
Q 3125 2378 3379 2068 
Q 3634 1759 3634 1313 
Q 3634 634 3220 271 
Q 2806 -91 2034 -91 
Q 1263 -91 848 271 
Q 434 634 434 1313 
Q 434 1759 690 2068 
Q 947 2378 1403 2484 
z
M 1172 3481 
Q 1172 3119 1398 2916 
Q 1625 2713 2034 2713 
Q 2441 2713 2670 2916 
Q 2900 3119 2900 3481 
Q 2900 3844 2670 4047 
Q 2441 4250 2034 4250 
Q 1625 4250 1398 4047 
Q 1172 3844 1172 3481 
z
" transform="scale(0.015625)"/>
       </defs>
       <use xlink:href="#DejaVuSans-2212"/>
       <use xlink:href="#DejaVuSans-38" x="83.789062"/>
      </g>
     </g>
    </g>
    <g id="ytick_4">
     <g id="line2d_9">
      <g>
       <use xlink:href="#m3815040b92" x="216" y="504.669999" style="fill: #262626; stroke: #262626; stroke-width: 1.875"/>
      </g>
     </g>
     <g id="text_10">
      <!-- −6 -->
      <g style="fill: #262626" transform="translate(132.7375 522.906249)scale(0.48 -0.48)">
       <defs>
        <path id="DejaVuSans-36" d="M 2113 2584 
Q 1688 2584 1439 2293 
Q 1191 2003 1191 1497 
Q 1191 994 1439 701 
Q 1688 409 2113 409 
Q 2538 409 2786 701 
Q 3034 994 3034 1497 
Q 3034 2003 2786 2293 
Q 2538 2584 2113 2584 
z
M 3366 4563 
L 3366 3988 
Q 3128 4100 2886 4159 
Q 2644 4219 2406 4219 
Q 1781 4219 1451 3797 
Q 1122 3375 1075 2522 
Q 1259 2794 1537 2939 
Q 1816 3084 2150 3084 
Q 2853 3084 3261 2657 
Q 3669 2231 3669 1497 
Q 3669 778 3244 343 
Q 2819 -91 2113 -91 
Q 1303 -91 875 529 
Q 447 1150 447 2328 
Q 447 3434 972 4092 
Q 1497 4750 2381 4750 
Q 2619 4750 2861 4703 
Q 3103 4656 3366 4563 
z
" transform="scale(0.015625)"/>
       </defs>
       <use xlink:href="#DejaVuSans-2212"/>
       <use xlink:href="#DejaVuSans-36" x="83.789062"/>
      </g>
     </g>
    </g>
    <g id="ytick_5">
     <g id="line2d_10">
      <g>
       <use xlink:href="#m3815040b92" x="216" y="389.159628" style="fill: #262626; stroke: #262626; stroke-width: 1.875"/>
      </g>
     </g>
     <g id="text_11">
      <!-- −4 -->
      <g style="fill: #262626" transform="translate(132.7375 407.395878)scale(0.48 -0.48)">
       <defs>
        <path id="DejaVuSans-34" d="M 2419 4116 
L 825 1625 
L 2419 1625 
L 2419 4116 
z
M 2253 4666 
L 3047 4666 
L 3047 1625 
L 3713 1625 
L 3713 1100 
L 3047 1100 
L 3047 0 
L 2419 0 
L 2419 1100 
L 313 1100 
L 313 1709 
L 2253 4666 
z
" transform="scale(0.015625)"/>
       </defs>
       <use xlink:href="#DejaVuSans-2212"/>
       <use xlink:href="#DejaVuSans-34" x="83.789062"/>
      </g>
     </g>
    </g>
    <g id="ytick_6">
     <g id="line2d_11">
      <g>
       <use xlink:href="#m3815040b92" x="216" y="273.649258" style="fill: #262626; stroke: #262626; stroke-width: 1.875"/>
      </g>
     </g>
     <g id="text_12">
      <!-- −2 -->
      <g style="fill: #262626" transform="translate(132.7375 291.885508)scale(0.48 -0.48)">
       <use xlink:href="#DejaVuSans-2212"/>
       <use xlink:href="#DejaVuSans-32" x="83.789062"/>
      </g>
     </g>
    </g>
    <g id="ytick_7">
     <g id="line2d_12">
      <g>
       <use xlink:href="#m3815040b92" x="216" y="158.138887" style="fill: #262626; stroke: #262626; stroke-width: 1.875"/>
      </g>
     </g>
     <g id="text_13">
      <!-- 0 -->
      <g style="fill: #262626" transform="translate(172.96 176.375137)scale(0.48 -0.48)">
       <use xlink:href="#DejaVuSans-30"/>
      </g>
     </g>
    </g>
    <g id="text_14">
     <!-- Df(Z) [Hz] -->
     <g style="fill: #262626" transform="translate(88.215 628.13625)rotate(-90)scale(0.48 -0.48)">
      <defs>
       <path id="DejaVuSans-44" d="M 1259 4147 
L 1259 519 
L 2022 519 
Q 2988 519 3436 956 
Q 3884 1394 3884 2338 
Q 3884 3275 3436 3711 
Q 2988 4147 2022 4147 
L 1259 4147 
z
M 628 4666 
L 1925 4666 
Q 3281 4666 3915 4102 
Q 4550 3538 4550 2338 
Q 4550 1131 3912 565 
Q 3275 0 1925 0 
L 628 0 
L 628 4666 
z
" transform="scale(0.015625)"/>
       <path id="DejaVuSans-66" d="M 2375 4863 
L 2375 4384 
L 1825 4384 
Q 1516 4384 1395 4259 
Q 1275 4134 1275 3809 
L 1275 3500 
L 2222 3500 
L 2222 3053 
L 1275 3053 
L 1275 0 
L 697 0 
L 697 3053 
L 147 3053 
L 147 3500 
L 697 3500 
L 697 3744 
Q 697 4328 969 4595 
Q 1241 4863 1831 4863 
L 2375 4863 
z
" transform="scale(0.015625)"/>
       <path id="DejaVuSans-28" d="M 1984 4856 
Q 1566 4138 1362 3434 
Q 1159 2731 1159 2009 
Q 1159 1288 1364 580 
Q 1569 -128 1984 -844 
L 1484 -844 
Q 1016 -109 783 600 
Q 550 1309 550 2009 
Q 550 2706 781 3412 
Q 1013 4119 1484 4856 
L 1984 4856 
z
" transform="scale(0.015625)"/>
       <path id="DejaVuSans-29" d="M 513 4856 
L 1013 4856 
Q 1481 4119 1714 3412 
Q 1947 2706 1947 2009 
Q 1947 1309 1714 600 
Q 1481 -109 1013 -844 
L 513 -844 
Q 928 -128 1133 580 
Q 1338 1288 1338 2009 
Q 1338 2731 1133 3434 
Q 928 4138 513 4856 
z
" transform="scale(0.015625)"/>
       <path id="DejaVuSans-48" d="M 628 4666 
L 1259 4666 
L 1259 2753 
L 3553 2753 
L 3553 4666 
L 4184 4666 
L 4184 0 
L 3553 0 
L 3553 2222 
L 1259 2222 
L 1259 0 
L 628 0 
L 628 4666 
z
" transform="scale(0.015625)"/>
       <path id="DejaVuSans-7a" d="M 353 3500 
L 3084 3500 
L 3084 2975 
L 922 459 
L 3084 459 
L 3084 0 
L 275 0 
L 275 525 
L 2438 3041 
L 353 3041 
L 353 3500 
z
" transform="scale(0.015625)"/>
      </defs>
      <use xlink:href="#DejaVuSans-44"/>
      <use xlink:href="#DejaVuSans-66" x="77.001953"/>
      <use xlink:href="#DejaVuSans-28" x="112.207031"/>
      <use xlink:href="#DejaVuSans-5a" x="151.220703"/>
      <use xlink:href="#DejaVuSans-29" x="219.726562"/>
      <use xlink:href="#DejaVuSans-20" x="258.740234"/>
      <use xlink:href="#DejaVuSans-5b" x="290.527344"/>
      <use xlink:href="#DejaVuSans-48" x="329.541016"/>
      <use xlink:href="#DejaVuSans-7a" x="404.736328"/>
      <use xlink:href="#DejaVuSans-5d" x="457.226562"/>
     </g>
    </g>
   </g>
   <g id="line2d_13">
    <path d="M 276.872727 389.400601 
L 279.255221 400.061814 
L 281.637716 388.857593 
L 284.02021 381.698355 
L 286.402704 375.804714 
L 288.785198 369.122169 
L 291.167693 363.003314 
L 293.550187 359.442573 
L 295.932681 353.598177 
L 298.315175 348.681557 
L 300.697669 345.998689 
L 303.080164 344.669403 
L 305.462658 338.35718 
L 307.845152 332.782318 
L 310.227646 334.508848 
L 312.610141 329.164452 
L 317.375129 322.380134 
L 319.757623 324.324326 
L 322.140117 316.901464 
L 324.522612 316.757012 
L 326.905106 314.454316 
L 329.2876 308.092191 
L 331.670094 307.949381 
L 334.052589 304.660472 
L 336.435083 301.775372 
L 338.817577 300.132231 
L 341.200071 302.881743 
L 343.582565 297.526842 
L 345.96506 294.845616 
L 348.347554 293.110879 
L 350.730048 290.277322 
L 353.112542 290.305556 
L 355.495036 288.596427 
L 360.260025 283.382695 
L 362.642519 281.482495 
L 365.025013 281.785516 
L 367.407508 281.764176 
L 369.790002 275.477888 
L 372.172496 276.321619 
L 374.55499 275.126936 
L 376.937484 272.618396 
L 379.319979 266.935195 
L 381.702473 269.68799 
L 384.084967 268.98313 
L 386.467461 266.136113 
L 388.849956 263.621664 
L 391.23245 263.93322 
L 393.614944 261.329145 
L 395.997438 263.077342 
L 398.379932 258.357702 
L 400.762427 259.592767 
L 403.144921 257.275626 
L 407.909909 253.201095 
L 410.292403 252.984745 
L 412.674898 249.535626 
L 415.057392 249.138054 
L 417.439886 251.699122 
L 419.82238 248.198132 
L 422.204875 245.635751 
L 424.587369 249.606867 
L 426.969863 245.940413 
L 429.352357 247.453219 
L 431.734851 244.398716 
L 434.117346 243.730626 
L 436.49984 239.631144 
L 438.882334 241.101271 
L 441.264828 239.376712 
L 443.647323 240.381966 
L 446.029817 237.733571 
L 448.412311 235.283468 
L 450.794805 238.186296 
L 453.177299 236.364888 
L 455.559794 232.605525 
L 457.942288 235.023126 
L 460.324782 232.997187 
L 462.707276 232.364881 
L 465.089771 234.372764 
L 467.472265 229.306111 
L 469.854759 231.160677 
L 472.237253 227.276889 
L 474.619747 228.822196 
L 477.002242 231.850764 
L 479.384736 227.27853 
L 481.76723 225.523438 
L 484.149724 227.489299 
L 486.532218 224.62718 
L 488.914713 224.322517 
L 491.297207 224.574323 
L 493.679701 224.01293 
L 496.062195 221.075631 
L 498.44469 222.015553 
L 500.827184 220.771625 
L 503.209678 221.646544 
L 505.592172 222.895397 
L 507.974666 219.532292 
L 510.357161 219.599266 
L 512.739655 219.290992 
L 515.122149 219.580224 
L 517.504643 218.397688 
L 519.887138 218.131108 
L 522.269632 217.606157 
L 524.652126 219.344177 
L 527.03462 214.603525 
L 529.417114 217.357634 
L 531.799609 215.958419 
L 534.182103 214.321187 
L 536.564597 213.778507 
L 538.947091 213.06741 
L 541.329585 216.205629 
L 543.71208 211.78704 
L 546.094574 212.494198 
L 548.477068 211.908511 
L 550.859562 211.854341 
L 553.242057 212.095642 
L 555.624551 208.973509 
L 558.007045 208.660968 
L 560.389539 210.628141 
L 562.772033 207.168188 
L 565.154528 207.854335 
L 567.537022 208.857619 
L 569.919516 209.032275 
L 572.30201 209.860576 
L 574.684505 206.002395 
L 577.066999 207.393402 
L 579.449493 207.123539 
L 581.831987 207.18132 
L 584.214481 204.594316 
L 586.596976 205.445598 
L 588.97947 204.98368 
L 591.361964 205.249274 
L 593.744458 203.115325 
L 596.126952 204.646187 
L 598.509447 204.67081 
L 600.891941 204.861224 
L 605.656929 201.201008 
L 608.039424 202.261088 
L 610.421918 201.990897 
L 612.804412 202.60252 
L 615.186906 200.530619 
L 617.5694 203.23023 
L 619.951895 201.103174 
L 622.334389 201.954784 
L 624.716883 197.6859 
L 627.099377 203.361878 
L 629.481872 198.494175 
L 631.864366 200.640928 
L 634.24686 197.93311 
L 636.629354 197.699689 
L 643.776837 199.331011 
L 646.159331 197.199031 
L 648.541825 197.421619 
L 650.92432 196.218728 
L 653.306814 195.213473 
L 655.689308 196.945255 
L 658.071802 196.993515 
L 660.454296 192.825091 
L 662.836791 197.208552 
L 665.219285 194.098238 
L 667.601779 195.479068 
L 669.984273 194.549322 
L 672.366767 195.828051 
L 674.749262 192.17834 
L 677.131756 196.436719 
L 679.51425 191.572298 
L 681.896744 195.420959 
L 684.279239 193.276832 
L 686.661733 191.854964 
L 689.044227 193.147153 
L 691.426721 191.231523 
L 693.809215 195.526999 
L 696.19171 192.030277 
L 698.574204 191.21478 
L 700.956698 189.295866 
L 703.339192 191.219376 
L 705.721687 191.117931 
L 708.104181 192.872694 
L 710.486675 188.126462 
L 712.869169 190.605127 
L 715.251663 187.860211 
L 717.634158 189.493175 
L 720.016652 190.118258 
L 722.399146 191.817867 
L 724.78164 189.912414 
L 729.546629 189.149773 
L 731.929123 186.926197 
L 734.311617 186.236111 
L 736.694111 189.080173 
L 739.076606 188.904533 
L 741.4591 188.985623 
L 743.841594 184.503015 
L 746.224088 190.217404 
L 748.606582 186.001048 
L 750.989077 187.276493 
L 753.371571 187.390413 
L 755.754065 185.538145 
L 758.136559 187.913395 
L 760.519054 184.986273 
L 762.901548 185.673733 
L 765.284042 187.465922 
L 767.666536 183.234792 
L 770.04903 185.391395 
L 772.431525 184.352982 
L 774.814019 186.395664 
L 777.196513 185.971501 
L 779.579007 186.731515 
L 781.961502 182.788633 
L 784.343996 185.462308 
L 786.72649 182.499729 
L 789.108984 184.287979 
L 791.491478 183.955739 
L 793.873973 185.269924 
L 796.256467 185.20492 
L 798.638961 180.982326 
L 801.021455 185.429149 
L 803.403949 182.981673 
L 805.786444 184.677342 
L 808.168938 183.772876 
L 810.551432 182.636958 
L 812.933926 182.184233 
L 815.316421 181.219687 
L 817.698915 182.038139 
L 820.081409 181.999071 
L 822.463903 181.620213 
L 824.846397 181.559149 
L 827.228892 180.9101 
L 829.611386 182.418639 
L 831.99388 180.006291 
L 834.376374 180.512857 
L 836.758869 182.164206 
L 839.141363 180.206225 
L 841.523857 182.676026 
L 843.906351 179.739054 
L 846.288845 180.283376 
L 848.67134 179.315876 
L 851.053834 181.109378 
L 853.436328 180.99513 
L 855.818822 177.4554 
L 858.201316 180.667815 
L 860.583811 179.151069 
L 862.966305 179.671753 
L 865.348799 177.983306 
L 867.731293 178.101166 
L 870.113788 179.121194 
L 872.496282 178.121521 
L 874.878776 177.948835 
L 877.26127 178.622835 
L 879.643764 174.55487 
L 882.026259 178.899591 
L 884.408753 175.174372 
L 886.791247 179.752515 
L 889.173741 177.230186 
L 891.556236 176.552247 
L 893.93873 177.803726 
L 896.321224 177.438 
L 898.703718 176.399259 
L 901.086212 177.226903 
L 903.468707 177.825394 
L 905.851201 176.559469 
L 908.233695 176.217709 
L 910.616189 177.554218 
L 912.998684 176.71377 
L 915.381178 177.307008 
L 917.763672 174.148763 
L 920.146166 177.155334 
L 922.52866 174.896958 
L 924.911155 175.032875 
L 927.293649 177.737081 
L 929.676143 176.372338 
L 932.058637 176.054544 
L 934.441131 173.833923 
L 936.823626 175.378903 
L 939.20612 174.277456 
L 941.588614 174.597877 
L 943.971108 176.747914 
L 946.353603 174.663865 
L 948.736097 174.693741 
L 951.118591 175.911734 
L 953.501085 175.621188 
L 955.883579 172.99446 
L 958.266074 174.434384 
L 960.648568 172.522693 
L 963.031062 174.049616 
L 965.413556 175.717708 
L 967.796051 171.415009 
L 970.178545 173.264651 
L 972.561039 174.816197 
L 974.943533 173.607724 
L 977.326027 172.975747 
L 982.091016 172.781722 
L 984.47351 173.372662 
L 986.856004 172.534184 
L 989.238498 173.993149 
L 991.620993 171.786973 
L 994.003487 173.737731 
L 996.385981 172.31849 
L 998.768475 171.04403 
L 1001.15097 173.17995 
L 1003.533464 171.985266 
L 1005.915958 172.818491 
L 1008.298452 171.863467 
L 1010.680946 172.324728 
L 1013.063441 171.268259 
L 1015.445935 173.073909 
L 1017.828429 171.951123 
L 1020.210923 171.395968 
L 1022.593418 172.31094 
L 1024.975912 170.626433 
L 1027.358406 173.558479 
L 1029.7409 172.385464 
L 1032.123394 167.619205 
L 1034.505889 170.861824 
L 1036.888383 172.429784 
L 1039.270877 170.699972 
L 1041.653371 169.92781 
L 1044.035866 171.250531 
L 1046.41836 168.750855 
L 1051.183348 171.330964 
L 1053.565842 169.959984 
L 1055.948337 168.098851 
L 1058.330831 171.54042 
L 1060.713325 169.76957 
L 1063.095819 170.432079 
L 1065.478313 168.03155 
L 1067.860808 170.545999 
L 1070.243302 167.97541 
L 1072.625796 170.248559 
L 1075.00829 171.996757 
L 1077.390785 169.917961 
L 1079.773279 169.000363 
L 1082.155773 168.252167 
L 1084.538267 171.575548 
L 1086.920761 169.486247 
L 1089.303256 168.32702 
L 1091.68575 167.45013 
L 1094.068244 171.595574 
L 1096.450738 165.387093 
L 1098.833233 166.567988 
L 1101.215727 169.228531 
L 1103.598221 167.076853 
L 1105.980715 169.023672 
L 1108.363209 167.242973 
L 1110.745704 168.163526 
L 1113.128198 168.129711 
L 1115.510692 167.183223 
L 1117.893186 168.804039 
L 1120.27568 168.232798 
L 1122.658175 167.131023 
L 1125.040669 165.797468 
L 1127.423163 168.578169 
L 1129.805657 170.548297 
L 1132.188152 165.114604 
L 1134.570646 166.362801 
L 1136.95314 168.856896 
L 1139.335634 168.50463 
L 1141.718128 168.520717 
L 1144.100623 166.687818 
L 1146.483117 167.820124 
L 1148.865611 166.398914 
L 1151.248105 167.162868 
L 1153.6306 168.500034 
L 1156.013094 167.153676 
L 1158.395588 166.751508 
L 1160.778082 169.074559 
L 1163.160576 167.171732 
L 1165.543071 166.459321 
L 1167.925565 166.397601 
L 1170.308059 167.329316 
L 1172.690553 167.492481 
L 1175.073048 163.464569 
L 1177.455542 165.558794 
L 1179.838036 167.496092 
L 1184.603024 163.381509 
L 1186.985519 167.453742 
L 1189.368013 165.280396 
L 1191.750507 165.91106 
L 1194.133001 165.498715 
L 1196.515495 166.499702 
L 1198.89799 166.676327 
L 1201.280484 161.732458 
L 1203.662978 166.779742 
L 1206.045472 164.915655 
L 1208.427967 167.198324 
L 1210.810461 166.018086 
L 1213.192955 163.576519 
L 1215.575449 164.874289 
L 1217.957943 164.217032 
L 1220.340438 164.624781 
L 1222.722932 164.35262 
L 1225.105426 167.051903 
L 1227.48792 162.878225 
L 1229.870415 165.394973 
L 1232.252909 165.297468 
L 1234.635403 162.269885 
L 1237.017897 164.223927 
L 1239.400391 164.093263 
L 1241.782886 166.641528 
L 1244.16538 164.334892 
L 1246.547874 163.355573 
L 1248.930368 163.755443 
L 1251.312862 162.89858 
L 1253.695357 165.535813 
L 1256.077851 166.184534 
L 1258.460345 162.369032 
L 1260.842839 164.749863 
L 1263.225334 163.827669 
L 1265.607828 164.816836 
L 1267.990322 164.708497 
L 1270.372816 162.773169 
L 1272.75531 163.940604 
L 1275.137805 164.224912 
L 1277.520299 162.961285 
L 1279.902793 163.592606 
L 1282.285287 162.048939 
L 1284.667782 164.300421 
L 1287.050276 163.104424 
L 1291.815264 164.582759 
L 1294.197758 161.159903 
L 1296.580253 162.965553 
L 1298.962747 163.230163 
L 1301.345241 162.954062 
L 1303.727735 165.900883 
L 1306.110229 162.320772 
L 1308.492724 162.867391 
L 1310.875218 164.546646 
L 1313.257712 163.495101 
L 1315.640206 162.300746 
L 1318.022701 161.759051 
L 1320.405195 163.173367 
L 1322.787689 163.250517 
L 1325.170183 163.959645 
L 1327.552677 160.010525 
L 1329.935172 161.864107 
L 1332.317666 162.810924 
L 1334.70016 163.118541 
L 1337.082654 161.392996 
L 1339.465149 163.040734 
L 1341.847643 162.009215 
L 1344.230137 163.184201 
L 1346.612631 163.685186 
L 1348.995125 161.721953 
L 1351.37762 161.866405 
L 1353.760114 161.059115 
L 1356.142608 163.874287 
L 1358.525102 162.634298 
L 1360.907597 160.078483 
L 1363.290091 160.967519 
L 1365.672585 162.595887 
L 1368.055079 161.726221 
L 1370.437573 160.489843 
L 1372.820068 163.365094 
L 1375.202562 163.349336 
L 1377.585056 161.25905 
L 1379.96755 162.034823 
L 1382.350044 158.493451 
L 1384.732539 163.614602 
L 1387.115033 160.738366 
L 1389.497527 160.498379 
L 1391.880021 162.153339 
L 1394.262516 161.343751 
L 1396.64501 161.429437 
L 1399.027504 162.333904 
L 1401.409998 162.153995 
L 1403.792492 160.712759 
L 1406.174987 162.634627 
L 1408.557481 161.461611 
L 1410.939975 160.632653 
L 1413.322469 161.982623 
L 1415.704964 160.859509 
L 1418.087458 160.676317 
L 1420.469952 159.052217 
L 1422.852446 159.297129 
L 1425.23494 161.634625 
L 1427.617435 161.150054 
L 1429.999929 160.955044 
L 1432.382423 163.271529 
L 1434.764917 160.694702 
L 1437.147411 162.168441 
L 1439.529906 158.554843 
L 1441.9124 159.414332 
L 1444.294894 158.629367 
L 1446.677388 158.802053 
L 1449.059883 161.495097 
L 1451.442377 159.066006 
L 1453.824871 160.567978 
L 1456.207365 158.067974 
L 1458.589859 160.407768 
L 1460.972354 158.415972 
L 1463.354848 159.036787 
L 1465.737342 160.414662 
L 1468.119836 157.76758 
L 1470.502331 160.259376 
L 1472.884825 162.19175 
L 1475.267319 159.942239 
L 1480.032307 158.281041 
L 1482.414802 159.681568 
L 1484.797296 160.183539 
L 1487.17979 158.671389 
L 1489.562284 159.400544 
L 1491.944779 158.703891 
L 1494.327273 160.016763 
L 1494.327273 160.016763 
" clip-path="url(#p5247f12a94)" style="fill: none; stroke: #00c9a7; stroke-width: 2.25; stroke-linecap: round"/>
   </g>
   <g id="line2d_14">
    <path d="M 276.872727 479.861028 
L 279.255221 454.541879 
L 281.637716 458.21654 
L 284.02021 470.864296 
L 286.402704 507.169019 
L 288.785198 555.68256 
L 291.167693 599.11369 
L 293.550187 665.943743 
L 295.932681 723.911338 
L 298.315175 750.295164 
L 300.697669 750.620181 
L 303.080164 746.891679 
L 305.462658 748.48459 
L 310.227646 738.267567 
L 312.610141 735.197306 
L 314.992635 737.064676 
L 317.375129 730.522315 
L 319.757623 730.356195 
L 322.140117 726.615217 
L 324.522612 726.256385 
L 326.905106 723.650011 
L 329.2876 723.955987 
L 331.670094 723.181199 
L 334.052589 727.516728 
L 336.435083 764.49939 
L 338.817577 853.093761 
L 341.200071 860.039275 
L 343.582565 861.84 
L 345.96506 858.730014 
L 348.347554 857.659757 
L 350.730048 856.232308 
L 353.112542 855.034998 
L 355.495036 855.20276 
L 357.877531 848.989026 
L 360.260025 845.553367 
L 362.642519 839.750009 
L 365.025013 835.754598 
L 367.407508 828.131802 
L 369.790002 819.37637 
L 372.172496 809.716472 
L 374.55499 800.638322 
L 376.937484 788.87041 
L 379.319979 767.781405 
L 381.702473 741.468492 
L 384.084967 701.890618 
L 386.467461 676.493005 
L 388.849956 666.86922 
L 391.23245 648.657765 
L 393.614944 635.297598 
L 395.997438 616.663293 
L 398.379932 594.473827 
L 400.762427 568.733797 
L 403.144921 540.601773 
L 405.527415 489.103328 
L 407.909909 464.380372 
L 410.292403 427.288057 
L 412.674898 397.124514 
L 415.057392 371.389737 
L 417.439886 350.704213 
L 419.82238 335.893945 
L 422.204875 321.990442 
L 424.587369 309.786219 
L 426.969863 298.996641 
L 429.352357 289.723152 
L 431.734851 283.959518 
L 434.117346 274.622667 
L 436.49984 270.647939 
L 441.264828 260.581934 
L 443.647323 256.094402 
L 446.029817 253.554017 
L 448.412311 248.257226 
L 450.794805 247.705025 
L 453.177299 243.83601 
L 455.559794 242.003768 
L 457.942288 237.664628 
L 460.324782 238.488332 
L 462.707276 235.153789 
L 465.089771 233.992264 
L 467.472265 233.185959 
L 469.854759 230.005718 
L 472.237253 230.464353 
L 474.619747 226.186276 
L 477.002242 226.649179 
L 479.384736 225.35896 
L 481.76723 225.480759 
L 484.149724 222.450223 
L 486.532218 224.326457 
L 488.914713 219.693488 
L 491.297207 222.94891 
L 493.679701 217.151461 
L 498.44469 217.879959 
L 500.827184 219.865517 
L 503.209678 219.8514 
L 505.592172 219.066763 
L 507.974666 216.85632 
L 510.357161 215.851393 
L 512.739655 217.145223 
L 515.122149 217.13242 
L 517.504643 214.974176 
L 519.887138 218.32382 
L 522.269632 213.352046 
L 524.652126 216.74043 
L 527.03462 214.191837 
L 529.417114 216.063147 
L 531.799609 214.273255 
L 534.182103 214.476145 
L 536.564597 216.217776 
L 538.947091 214.033925 
L 541.329585 215.856974 
L 543.71208 212.454145 
L 546.094574 212.931494 
L 548.477068 214.268331 
L 550.859562 214.308384 
L 553.242057 212.924271 
L 555.624551 210.080537 
L 558.007045 212.873056 
L 560.389539 212.683299 
L 562.772033 213.085466 
L 565.154528 210.73648 
L 567.537022 209.944949 
L 569.919516 209.841534 
L 572.30201 211.539173 
L 574.684505 209.863202 
L 577.066999 206.145533 
L 579.449493 209.451842 
L 581.831987 207.411458 
L 584.214481 204.788998 
L 586.596976 207.141267 
L 588.97947 208.963332 
L 591.361964 208.131092 
L 596.126952 205.661619 
L 598.509447 205.441002 
L 600.891941 200.961677 
L 603.274435 206.508633 
L 605.656929 201.592013 
L 608.039424 204.186239 
L 610.421918 202.56017 
L 612.804412 205.258467 
L 615.186906 199.15931 
L 617.5694 202.566407 
L 619.951895 201.327403 
L 622.334389 200.617947 
L 624.716883 198.639283 
L 627.099377 201.518802 
L 629.481872 200.075595 
L 631.864366 200.185904 
L 634.24686 198.06246 
L 636.629354 199.0339 
L 639.011848 197.297521 
L 641.394343 198.976447 
L 643.776837 198.635672 
L 646.159331 196.157664 
L 648.541825 199.353007 
L 650.92432 198.999428 
L 653.306814 198.990236 
L 655.689308 195.779134 
L 658.071802 194.985633 
L 660.454296 195.254839 
L 662.836791 196.603823 
L 665.219285 194.098566 
L 667.601779 194.522073 
L 669.984273 197.038164 
L 672.366767 193.693773 
L 674.749262 196.207237 
L 677.131756 192.425878 
L 679.51425 192.781099 
L 681.896744 196.994829 
L 684.279239 190.540123 
L 686.661733 192.414059 
L 689.044227 194.789309 
L 691.426721 193.089044 
L 693.809215 188.30834 
L 696.19171 191.828372 
L 698.574204 193.32936 
L 700.956698 190.161593 
L 703.339192 191.575581 
L 708.104181 189.317862 
L 710.486675 191.863172 
L 712.869169 191.201976 
L 715.251663 190.955751 
L 717.634158 189.56737 
L 720.016652 187.294221 
L 722.399146 193.244658 
L 724.78164 188.873016 
L 727.164134 190.452467 
L 729.546629 190.491206 
L 731.929123 189.248919 
L 734.311617 188.947212 
L 736.694111 190.010247 
L 739.076606 187.185882 
L 741.4591 188.715104 
L 743.841594 186.118579 
L 746.224088 188.255155 
L 748.606582 189.267632 
L 750.989077 186.647799 
L 753.371571 185.127442 
L 755.754065 188.448852 
L 758.136559 187.505975 
L 760.519054 186.293891 
L 762.901548 186.617267 
L 765.284042 185.952459 
L 767.666536 185.559813 
L 770.04903 186.700655 
L 772.431525 182.701962 
L 774.814019 186.044712 
L 777.196513 183.423237 
L 779.579007 185.096581 
L 781.961502 186.580169 
L 784.343996 183.462961 
L 786.72649 184.176685 
L 789.108984 184.630396 
L 791.491478 187.312606 
L 793.873973 185.223962 
L 796.256467 182.871364 
L 798.638961 184.581151 
L 801.021455 182.022381 
L 803.403949 182.864142 
L 805.786444 183.415029 
L 808.168938 182.119229 
L 810.551432 182.945232 
L 812.933926 182.028618 
L 815.316421 181.360528 
L 817.698915 180.987579 
L 820.081409 183.647465 
L 822.463903 181.906162 
L 824.846397 183.01319 
L 827.228892 181.823431 
L 829.611386 181.904849 
L 831.99388 178.56965 
L 834.376374 182.709841 
L 836.758869 180.557506 
L 839.141363 180.727237 
L 841.523857 182.208855 
L 843.906351 181.083443 
L 846.288845 181.221 
L 848.67134 178.894667 
L 851.053834 182.117588 
L 853.436328 180.465582 
L 855.818822 182.335251 
L 858.201316 179.25908 
L 860.583811 179.185212 
L 862.966305 178.072276 
L 865.348799 178.593288 
L 867.731293 180.383507 
L 870.113788 181.8602 
L 872.496282 175.346401 
L 874.878776 179.349034 
L 877.26127 179.586067 
L 879.643764 178.674049 
L 882.026259 179.758752 
L 884.408753 178.373655 
L 886.791247 179.40583 
L 889.173741 175.954413 
L 891.556236 177.534849 
L 893.93873 176.101491 
L 896.321224 179.952778 
L 898.703718 178.722309 
L 901.086212 176.612654 
L 903.468707 176.759404 
L 905.851201 175.399914 
L 908.233695 176.851985 
L 912.998684 176.759076 
L 915.381178 176.264328 
L 917.763672 176.141215 
L 920.146166 178.299131 
L 922.52866 174.670103 
L 924.911155 176.674703 
L 927.293649 176.884158 
L 929.676143 175.650735 
L 932.058637 174.108382 
L 934.441131 174.055854 
L 936.823626 172.955721 
L 939.20612 176.936358 
L 941.588614 175.105429 
L 943.971108 176.088687 
L 946.353603 176.619877 
L 951.118591 173.752505 
L 953.501085 175.241017 
L 955.883579 174.802408 
L 958.266074 173.76498 
L 960.648568 172.483297 
L 963.031062 175.058482 
L 965.413556 172.852635 
L 967.796051 174.259728 
L 970.178545 173.849681 
L 972.561039 175.798142 
L 974.943533 171.83195 
L 977.326027 174.608054 
L 979.708522 171.29321 
L 982.091016 175.09361 
L 984.47351 174.345086 
L 986.856004 172.869706 
L 989.238498 173.278768 
L 991.620993 171.793211 
L 994.003487 172.316521 
L 996.385981 175.215738 
L 998.768475 172.231163 
L 1001.15097 175.057169 
L 1005.915958 172.181918 
L 1008.298452 172.233133 
L 1010.680946 174.846072 
L 1013.063441 172.086054 
L 1015.445935 172.524663 
L 1017.828429 171.812909 
L 1020.210923 173.468854 
L 1022.593418 169.882505 
L 1024.975912 169.112641 
L 1027.358406 170.102466 
L 1029.7409 173.038452 
L 1032.123394 170.605421 
L 1034.505889 172.779095 
L 1036.888383 172.084413 
L 1039.270877 170.126103 
L 1041.653371 172.251189 
L 1044.035866 170.463924 
L 1046.41836 170.458671 
L 1048.800854 168.764643 
L 1051.183348 171.25841 
L 1053.565842 171.430767 
L 1055.948337 171.741339 
L 1058.330831 166.948488 
L 1060.713325 168.684538 
L 1063.095819 171.727879 
L 1065.478313 170.818816 
L 1067.860808 170.257095 
L 1070.243302 168.337525 
L 1072.625796 169.902531 
L 1075.00829 168.860835 
L 1077.390785 172.690783 
L 1079.773279 168.137919 
L 1082.155773 170.668127 
L 1084.538267 169.547639 
L 1086.920761 168.225247 
L 1089.303256 167.551575 
L 1091.68575 170.233786 
L 1094.068244 168.711787 
L 1096.450738 167.907781 
L 1101.215727 169.13989 
L 1103.598221 169.024657 
L 1105.980715 166.667463 
L 1108.363209 171.00726 
L 1110.745704 166.649735 
L 1113.128198 168.767926 
L 1115.510692 168.686508 
L 1117.893186 168.142515 
L 1120.27568 168.014806 
L 1122.658175 166.654988 
L 1125.040669 168.13004 
L 1127.423163 166.787621 
L 1129.805657 167.99478 
L 1132.188152 167.509881 
L 1134.570646 168.311589 
L 1136.95314 166.821436 
L 1139.335634 166.704561 
L 1141.718128 168.384472 
L 1144.100623 167.110668 
L 1146.483117 166.602788 
L 1148.865611 165.619202 
L 1151.248105 166.611324 
L 1153.6306 164.409744 
L 1156.013094 168.816515 
L 1158.395588 164.579476 
L 1160.778082 167.641858 
L 1163.160576 165.673371 
L 1165.543071 166.649078 
L 1167.925565 166.014475 
L 1170.308059 166.211126 
L 1172.690553 168.270224 
L 1175.073048 164.830297 
L 1177.455542 167.237064 
L 1179.838036 165.624454 
L 1182.22053 167.08145 
L 1184.603024 167.140215 
L 1186.985519 163.41795 
L 1189.368013 165.992807 
L 1191.750507 166.375276 
L 1194.133001 165.105084 
L 1196.515495 165.037126 
L 1198.89799 164.07258 
L 1201.280484 165.993792 
L 1203.662978 165.553213 
L 1206.045472 166.105742 
L 1208.427967 163.10705 
L 1210.810461 165.5867 
L 1213.192955 163.177635 
L 1215.575449 164.584072 
L 1217.957943 165.069299 
L 1220.340438 163.204555 
L 1222.722932 163.686828 
L 1225.105426 166.589656 
L 1227.48792 164.299436 
L 1229.870415 165.55387 
L 1232.252909 164.679279 
L 1234.635403 165.083088 
L 1237.017897 164.537453 
L 1239.400391 165.648749 
L 1241.782886 164.614932 
L 1244.16538 165.496746 
L 1246.547874 163.583742 
L 1248.930368 165.234762 
L 1251.312862 165.165819 
L 1253.695357 164.666147 
L 1256.077851 163.634628 
L 1258.460345 165.739359 
L 1260.842839 160.919588 
L 1263.225334 165.787948 
L 1265.607828 162.327994 
L 1267.990322 163.611319 
L 1270.372816 164.068313 
L 1275.137805 163.245593 
L 1277.520299 163.904819 
L 1279.902793 163.369362 
L 1282.285287 166.387752 
L 1284.667782 163.07816 
L 1287.050276 166.076195 
L 1289.43277 162.60114 
L 1291.815264 162.83489 
L 1294.197758 163.671398 
L 1296.580253 163.873302 
L 1298.962747 163.346709 
L 1301.345241 161.416634 
L 1303.727735 164.132659 
L 1306.110229 163.527931 
L 1308.492724 161.858854 
L 1310.875218 161.414992 
L 1313.257712 164.167131 
L 1315.640206 162.717358 
L 1318.022701 163.010858 
L 1320.405195 162.10475 
L 1322.787689 163.826355 
L 1325.170183 160.176317 
L 1327.552677 164.150388 
L 1329.935172 162.32701 
L 1334.70016 161.43666 
L 1337.082654 161.60278 
L 1339.465149 164.921236 
L 1341.847643 160.269554 
L 1344.230137 162.610332 
L 1346.612631 160.89989 
L 1348.995125 161.480652 
L 1351.37762 164.712437 
L 1353.760114 160.94815 
L 1356.142608 161.694376 
L 1358.525102 161.841126 
L 1360.907597 161.315189 
L 1363.290091 160.426153 
L 1365.672585 163.759711 
L 1368.055079 159.741319 
L 1370.437573 162.77875 
L 1372.820068 161.447494 
L 1375.202562 163.664504 
L 1377.585056 161.41926 
L 1379.96755 162.740667 
L 1382.350044 160.706849 
L 1384.732539 161.930751 
L 1387.115033 158.833898 
L 1389.497527 162.604751 
L 1391.880021 161.620508 
L 1394.262516 158.979007 
L 1396.64501 162.254127 
L 1399.027504 159.588331 
L 1401.409998 162.80206 
L 1403.792492 159.619191 
L 1406.174987 160.641518 
L 1408.557481 160.043355 
L 1410.939975 159.84736 
L 1413.322469 159.286624 
L 1415.704964 161.809937 
L 1418.087458 159.971457 
L 1420.469952 162.487548 
L 1422.852446 161.728519 
L 1425.23494 161.377238 
L 1427.617435 161.906786 
L 1429.999929 159.635935 
L 1432.382423 159.885443 
L 1434.764917 162.414009 
L 1437.147411 158.154317 
L 1439.529906 159.791549 
L 1441.9124 162.076517 
L 1444.294894 160.791879 
L 1446.677388 161.391683 
L 1449.059883 159.425166 
L 1451.442377 160.440926 
L 1453.824871 159.253465 
L 1456.207365 161.113613 
L 1458.589859 160.433375 
L 1460.972354 159.55189 
L 1463.354848 162.631672 
L 1465.737342 160.903173 
L 1468.119836 160.55025 
L 1470.502331 159.071915 
L 1472.884825 160.578156 
L 1475.267319 161.559116 
L 1477.649813 159.682882 
L 1480.032307 161.894967 
L 1482.414802 159.960952 
L 1484.797296 159.613282 
L 1487.17979 156.24 
L 1489.562284 159.473755 
L 1491.944779 159.686493 
L 1494.327273 158.64808 
L 1494.327273 158.64808 
" clip-path="url(#p5247f12a94)" style="fill: none; stroke: #ffc75f; stroke-width: 2.25; stroke-linecap: round"/>
   </g>
   <g id="patch_3">
    <path d="M 216 897.12 
L 216 120.96 
" style="fill: none; stroke: #262626; stroke-width: 1.875; stroke-linejoin: miter; stroke-linecap: square"/>
   </g>
   <g id="patch_4">
    <path d="M 1555.2 897.12 
L 1555.2 120.96 
" style="fill: none; stroke: #262626; stroke-width: 1.875; stroke-linejoin: miter; stroke-linecap: square"/>
   </g>
   <g id="patch_5">
    <path d="M 216 897.12 
L 1555.2 897.12 
" style="fill: none; stroke: #262626; stroke-width: 1.875; stroke-linejoin: miter; stroke-linecap: square"/>
   </g>
   <g id="patch_6">
    <path d="M 216 120.96 
L 1555.2 120.96 
" style="fill: none; stroke: #262626; stroke-width: 1.875; stroke-linejoin: miter; stroke-linecap: square"/>
   </g>
   <g id="text_15">
    <!-- Df(Z) -->
    <g style="fill: #262626" transform="translate(820.916406 110.561563)scale(0.5 -0.5)">
     <use xlink:href="#DejaVuSans-44"/>
     <use xlink:href="#DejaVuSans-66" x="77.001953"/>
     <use xlink:href="#DejaVuSans-28" x="112.207031"/>
     <use xlink:href="#DejaVuSans-5a" x="151.220703"/>
     <use xlink:href="#DejaVuSans-29" x="219.726562"/>
    </g>
   </g>
   <g id="legend_1">
    <g id="patch_7">
     <path d="M 227.55 182.597813 
L 361.029844 182.597813 
Q 364.329844 182.597813 364.329844 179.297813 
L 364.329844 132.51 
Q 364.329844 129.21 361.029844 129.21 
L 227.55 129.21 
Q 224.25 129.21 224.25 132.51 
L 224.25 179.297813 
Q 224.25 182.597813 227.55 182.597813 
z
" style="fill: #ffffff; opacity: 0.8; stroke: #cccccc; stroke-width: 1.5; stroke-linejoin: miter"/>
    </g>
    <g id="line2d_15">
     <path d="M 230.85 142.572422 
L 247.35 142.572422 
L 263.85 142.572422 
" style="fill: none; stroke: #00c9a7; stroke-width: 2.25; stroke-linecap: round"/>
    </g>
    <g id="text_16">
     <!-- df trace -->
     <g style="fill: #262626" transform="translate(277.05 148.347422)scale(0.165 -0.165)">
      <defs>
       <path id="DejaVuSans-64" d="M 2906 2969 
L 2906 4863 
L 3481 4863 
L 3481 0 
L 2906 0 
L 2906 525 
Q 2725 213 2448 61 
Q 2172 -91 1784 -91 
Q 1150 -91 751 415 
Q 353 922 353 1747 
Q 353 2572 751 3078 
Q 1150 3584 1784 3584 
Q 2172 3584 2448 3432 
Q 2725 3281 2906 2969 
z
M 947 1747 
Q 947 1113 1208 752 
Q 1469 391 1925 391 
Q 2381 391 2643 752 
Q 2906 1113 2906 1747 
Q 2906 2381 2643 2742 
Q 2381 3103 1925 3103 
Q 1469 3103 1208 2742 
Q 947 2381 947 1747 
z
" transform="scale(0.015625)"/>
       <path id="DejaVuSans-74" d="M 1172 4494 
L 1172 3500 
L 2356 3500 
L 2356 3053 
L 1172 3053 
L 1172 1153 
Q 1172 725 1289 603 
Q 1406 481 1766 481 
L 2356 481 
L 2356 0 
L 1766 0 
Q 1100 0 847 248 
Q 594 497 594 1153 
L 594 3053 
L 172 3053 
L 172 3500 
L 594 3500 
L 594 4494 
L 1172 4494 
z
" transform="scale(0.015625)"/>
       <path id="DejaVuSans-72" d="M 2631 2963 
Q 2534 3019 2420 3045 
Q 2306 3072 2169 3072 
Q 1681 3072 1420 2755 
Q 1159 2438 1159 1844 
L 1159 0 
L 581 0 
L 581 3500 
L 1159 3500 
L 1159 2956 
Q 1341 3275 1631 3429 
Q 1922 3584 2338 3584 
Q 2397 3584 2469 3576 
Q 2541 3569 2628 3553 
L 2631 2963 
z
" transform="scale(0.015625)"/>
       <path id="DejaVuSans-61" d="M 2194 1759 
Q 1497 1759 1228 1600 
Q 959 1441 959 1056 
Q 959 750 1161 570 
Q 1363 391 1709 391 
Q 2188 391 2477 730 
Q 2766 1069 2766 1631 
L 2766 1759 
L 2194 1759 
z
M 3341 1997 
L 3341 0 
L 2766 0 
L 2766 531 
Q 2569 213 2275 61 
Q 1981 -91 1556 -91 
Q 1019 -91 701 211 
Q 384 513 384 1019 
Q 384 1609 779 1909 
Q 1175 2209 1959 2209 
L 2766 2209 
L 2766 2266 
Q 2766 2663 2505 2880 
Q 2244 3097 1772 3097 
Q 1472 3097 1187 3025 
Q 903 2953 641 2809 
L 641 3341 
Q 956 3463 1253 3523 
Q 1550 3584 1831 3584 
Q 2591 3584 2966 3190 
Q 3341 2797 3341 1997 
z
" transform="scale(0.015625)"/>
       <path id="DejaVuSans-63" d="M 3122 3366 
L 3122 2828 
Q 2878 2963 2633 3030 
Q 2388 3097 2138 3097 
Q 1578 3097 1268 2742 
Q 959 2388 959 1747 
Q 959 1106 1268 751 
Q 1578 397 2138 397 
Q 2388 397 2633 464 
Q 2878 531 3122 666 
L 3122 134 
Q 2881 22 2623 -34 
Q 2366 -91 2075 -91 
Q 1284 -91 818 406 
Q 353 903 353 1747 
Q 353 2603 823 3093 
Q 1294 3584 2113 3584 
Q 2378 3584 2631 3529 
Q 2884 3475 3122 3366 
z
" transform="scale(0.015625)"/>
       <path id="DejaVuSans-65" d="M 3597 1894 
L 3597 1613 
L 953 1613 
Q 991 1019 1311 708 
Q 1631 397 2203 397 
Q 2534 397 2845 478 
Q 3156 559 3463 722 
L 3463 178 
Q 3153 47 2828 -22 
Q 2503 -91 2169 -91 
Q 1331 -91 842 396 
Q 353 884 353 1716 
Q 353 2575 817 3079 
Q 1281 3584 2069 3584 
Q 2775 3584 3186 3129 
Q 3597 2675 3597 1894 
z
M 3022 2063 
Q 3016 2534 2758 2815 
Q 2500 3097 2075 3097 
Q 1594 3097 1305 2825 
Q 1016 2553 972 2059 
L 3022 2063 
z
" transform="scale(0.015625)"/>
      </defs>
      <use xlink:href="#DejaVuSans-64"/>
      <use xlink:href="#DejaVuSans-66" x="63.476562"/>
      <use xlink:href="#DejaVuSans-20" x="98.681641"/>
      <use xlink:href="#DejaVuSans-74" x="130.46875"/>
      <use xlink:href="#DejaVuSans-72" x="169.677734"/>
      <use xlink:href="#DejaVuSans-61" x="210.791016"/>
      <use xlink:href="#DejaVuSans-63" x="272.070312"/>
      <use xlink:href="#DejaVuSans-65" x="327.050781"/>
     </g>
    </g>
    <g id="line2d_16">
     <path d="M 230.85 166.791328 
L 247.35 166.791328 
L 263.85 166.791328 
" style="fill: none; stroke: #ffc75f; stroke-width: 2.25; stroke-linecap: round"/>
    </g>
    <g id="text_17">
     <!-- df retrace -->
     <g style="fill: #262626" transform="translate(277.05 172.566328)scale(0.165 -0.165)">
      <use xlink:href="#DejaVuSans-64"/>
      <use xlink:href="#DejaVuSans-66" x="63.476562"/>
      <use xlink:href="#DejaVuSans-20" x="98.681641"/>
      <use xlink:href="#DejaVuSans-72" x="130.46875"/>
      <use xlink:href="#DejaVuSans-65" x="169.332031"/>
      <use xlink:href="#DejaVuSans-74" x="230.855469"/>
      <use xlink:href="#DejaVuSans-72" x="270.064453"/>
      <use xlink:href="#DejaVuSans-61" x="311.177734"/>
      <use xlink:href="#DejaVuSans-63" x="372.457031"/>
      <use xlink:href="#DejaVuSans-65" x="427.4375"/>
     </g>
    </g>
   </g>
  </g>
 </g>
 <defs>
  <clipPath id="p5247f12a94">
   <rect x="216" y="120.96" width="1339.2" height="776.16"/>
  </clipPath>
 </defs>
</svg>
