<?xml version="1.0" encoding="utf-8" standalone="no"?>
<!DOCTYPE svg PUBLIC "-//W3C//DTD SVG 1.1//EN"
  "http://www.w3.org/Graphics/SVG/1.1/DTD/svg11.dtd">
<svg xmlns:xlink="http://www.w3.org/1999/xlink" width="2160pt" height="1152pt" viewBox="0 0 2160 1152" xmlns="http://www.w3.org/2000/svg" version="1.1">
 <metadata>
  <rdf:RDF xmlns:dc="http://purl.org/dc/elements/1.1/" xmlns:cc="http://creativecommons.org/ns#" xmlns:rdf="http://www.w3.org/1999/02/22-rdf-syntax-ns#">
   <cc:Work>
    <dc:type rdf:resource="http://purl.org/dc/dcmitype/StillImage"/>
    <dc:date>2023-01-01T20:43:48.494987</dc:date>
    <dc:format>image/svg+xml</dc:format>
    <dc:creator>
     <cc:Agent>
      <dc:title>Matplotlib v3.6.0, https://matplotlib.org/</dc:title>
     </cc:Agent>
    </dc:creator>
   </cc:Work>
  </rdf:RDF>
 </metadata>
 <defs>
  <style type="text/css">*{stroke-linejoin: round; stroke-linecap: butt}</style>
 </defs>
 <g id="figure_1">
  <g id="patch_1">
   <path d="M 0 1152 
L 2160 1152 
L 2160 0 
L 0 0 
z
" style="fill: #ffffff"/>
  </g>
  <g id="axes_1">
   <g id="patch_2">
    <path d="M 270 1025.28 
L 1944 1025.28 
L 1944 138.24 
L 270 138.24 
L 270 1025.28 
z
" style="fill: none"/>
   </g>
   <g id="matplotlib.axis_1">
    <g id="xtick_1">
     <g id="line2d_1">
      <defs>
       <path id="mfd44b47efe" d="M 0 0 
L 0 9 
" style="stroke: #262626; stroke-width: 1.875"/>
      </defs>
      <g>
       <use xlink:href="#mfd44b47efe" x="417.31282" y="1025.28" style="fill: #262626; stroke: #262626; stroke-width: 1.875"/>
      </g>
     </g>
     <g id="text_1">
      <!-- −0.4 -->
      <g style="fill: #262626" transform="translate(346.892664 1081.850938) scale(0.58 -0.58)">
       <defs>
        <path id="DejaVuSans-2212" d="M 678 2272 
L 4684 2272 
L 4684 1741 
L 678 1741 
L 678 2272 
z
" transform="scale(0.015625)"/>
        <path id="DejaVuSans-30" d="M 2034 4250 
Q 1547 4250 1301 3770 
Q 1056 3291 1056 2328 
Q 1056 1369 1301 889 
Q 1547 409 2034 409 
Q 2525 409 2770 889 
Q 3016 1369 3016 2328 
Q 3016 3291 2770 3770 
Q 2525 4250 2034 4250 
z
M 2034 4750 
Q 2819 4750 3233 4129 
Q 3647 3509 3647 2328 
Q 3647 1150 3233 529 
Q 2819 -91 2034 -91 
Q 1250 -91 836 529 
Q 422 1150 422 2328 
Q 422 3509 836 4129 
Q 1250 4750 2034 4750 
z
" transform="scale(0.015625)"/>
        <path id="DejaVuSans-2e" d="M 684 794 
L 1344 794 
L 1344 0 
L 684 0 
L 684 794 
z
" transform="scale(0.015625)"/>
        <path id="DejaVuSans-34" d="M 2419 4116 
L 825 1625 
L 2419 1625 
L 2419 4116 
z
M 2253 4666 
L 3047 4666 
L 3047 1625 
L 3713 1625 
L 3713 1100 
L 3047 1100 
L 3047 0 
L 2419 0 
L 2419 1100 
L 313 1100 
L 313 1709 
L 2253 4666 
z
" transform="scale(0.015625)"/>
       </defs>
       <use xlink:href="#DejaVuSans-2212"/>
       <use xlink:href="#DejaVuSans-30" x="83.789062"/>
       <use xlink:href="#DejaVuSans-2e" x="147.412109"/>
       <use xlink:href="#DejaVuSans-34" x="179.199219"/>
      </g>
     </g>
    </g>
    <g id="xtick_2">
     <g id="line2d_2">
      <g>
       <use xlink:href="#mfd44b47efe" x="773.422375" y="1025.28" style="fill: #262626; stroke: #262626; stroke-width: 1.875"/>
      </g>
     </g>
     <g id="text_2">
      <!-- −0.2 -->
      <g style="fill: #262626" transform="translate(703.002219 1081.850938) scale(0.58 -0.58)">
       <defs>
        <path id="DejaVuSans-32" d="M 1228 531 
L 3431 531 
L 3431 0 
L 469 0 
L 469 531 
Q 828 903 1448 1529 
Q 2069 2156 2228 2338 
Q 2531 2678 2651 2914 
Q 2772 3150 2772 3378 
Q 2772 3750 2511 3984 
Q 2250 4219 1831 4219 
Q 1534 4219 1204 4116 
Q 875 4013 500 3803 
L 500 4441 
Q 881 4594 1212 4672 
Q 1544 4750 1819 4750 
Q 2544 4750 2975 4387 
Q 3406 4025 3406 3419 
Q 3406 3131 3298 2873 
Q 3191 2616 2906 2266 
Q 2828 2175 2409 1742 
Q 1991 1309 1228 531 
z
" transform="scale(0.015625)"/>
       </defs>
       <use xlink:href="#DejaVuSans-2212"/>
       <use xlink:href="#DejaVuSans-30" x="83.789062"/>
       <use xlink:href="#DejaVuSans-2e" x="147.412109"/>
       <use xlink:href="#DejaVuSans-32" x="179.199219"/>
      </g>
     </g>
    </g>
    <g id="xtick_3">
     <g id="line2d_3">
      <g>
       <use xlink:href="#mfd44b47efe" x="1129.531931" y="1025.28" style="fill: #262626; stroke: #262626; stroke-width: 1.875"/>
      </g>
     </g>
     <g id="text_3">
      <!-- 0.0 -->
      <g style="fill: #262626" transform="translate(1083.412868 1081.850938) scale(0.58 -0.58)">
       <use xlink:href="#DejaVuSans-30"/>
       <use xlink:href="#DejaVuSans-2e" x="63.623047"/>
       <use xlink:href="#DejaVuSans-30" x="95.410156"/>
      </g>
     </g>
    </g>
    <g id="xtick_4">
     <g id="line2d_4">
      <g>
       <use xlink:href="#mfd44b47efe" x="1485.641486" y="1025.28" style="fill: #262626; stroke: #262626; stroke-width: 1.875"/>
      </g>
     </g>
     <g id="text_4">
      <!-- 0.2 -->
      <g style="fill: #262626" transform="translate(1439.522423 1081.850938) scale(0.58 -0.58)">
       <use xlink:href="#DejaVuSans-30"/>
       <use xlink:href="#DejaVuSans-2e" x="63.623047"/>
       <use xlink:href="#DejaVuSans-32" x="95.410156"/>
      </g>
     </g>
    </g>
    <g id="xtick_5">
     <g id="line2d_5">
      <g>
       <use xlink:href="#mfd44b47efe" x="1841.751041" y="1025.28" style="fill: #262626; stroke: #262626; stroke-width: 1.875"/>
      </g>
     </g>
     <g id="text_5">
      <!-- 0.4 -->
      <g style="fill: #262626" transform="translate(1795.631978 1081.850938) scale(0.58 -0.58)">
       <use xlink:href="#DejaVuSans-30"/>
       <use xlink:href="#DejaVuSans-2e" x="63.623047"/>
       <use xlink:href="#DejaVuSans-34" x="95.410156"/>
      </g>
     </g>
    </g>
    <g id="text_6">
     <!-- Z [nm] -->
     <g style="fill: #262626" transform="translate(1008.662812 1141.984062) scale(0.58 -0.58)">
      <defs>
       <path id="DejaVuSans-5a" d="M 359 4666 
L 4025 4666 
L 4025 4184 
L 1075 531 
L 4097 531 
L 4097 0 
L 288 0 
L 288 481 
L 3238 4134 
L 359 4134 
L 359 4666 
z
" transform="scale(0.015625)"/>
       <path id="DejaVuSans-20" transform="scale(0.015625)"/>
       <path id="DejaVuSans-5b" d="M 550 4863 
L 1875 4863 
L 1875 4416 
L 1125 4416 
L 1125 -397 
L 1875 -397 
L 1875 -844 
L 550 -844 
L 550 4863 
z
" transform="scale(0.015625)"/>
       <path id="DejaVuSans-6e" d="M 3513 2113 
L 3513 0 
L 2938 0 
L 2938 2094 
Q 2938 2591 2744 2837 
Q 2550 3084 2163 3084 
Q 1697 3084 1428 2787 
Q 1159 2491 1159 1978 
L 1159 0 
L 581 0 
L 581 3500 
L 1159 3500 
L 1159 2956 
Q 1366 3272 1645 3428 
Q 1925 3584 2291 3584 
Q 2894 3584 3203 3211 
Q 3513 2838 3513 2113 
z
" transform="scale(0.015625)"/>
       <path id="DejaVuSans-6d" d="M 3328 2828 
Q 3544 3216 3844 3400 
Q 4144 3584 4550 3584 
Q 5097 3584 5394 3201 
Q 5691 2819 5691 2113 
L 5691 0 
L 5113 0 
L 5113 2094 
Q 5113 2597 4934 2840 
Q 4756 3084 4391 3084 
Q 3944 3084 3684 2787 
Q 3425 2491 3425 1978 
L 3425 0 
L 2847 0 
L 2847 2094 
Q 2847 2600 2669 2842 
Q 2491 3084 2119 3084 
Q 1678 3084 1418 2786 
Q 1159 2488 1159 1978 
L 1159 0 
L 581 0 
L 581 3500 
L 1159 3500 
L 1159 2956 
Q 1356 3278 1631 3431 
Q 1906 3584 2284 3584 
Q 2666 3584 2933 3390 
Q 3200 3197 3328 2828 
z
" transform="scale(0.015625)"/>
       <path id="DejaVuSans-5d" d="M 1947 4863 
L 1947 -844 
L 622 -844 
L 622 -397 
L 1369 -397 
L 1369 4416 
L 622 4416 
L 622 4863 
L 1947 4863 
z
" transform="scale(0.015625)"/>
      </defs>
      <use xlink:href="#DejaVuSans-5a"/>
      <use xlink:href="#DejaVuSans-20" x="68.505859"/>
      <use xlink:href="#DejaVuSans-5b" x="100.292969"/>
      <use xlink:href="#DejaVuSans-6e" x="139.306641"/>
      <use xlink:href="#DejaVuSans-6d" x="202.685547"/>
      <use xlink:href="#DejaVuSans-5d" x="300.097656"/>
     </g>
    </g>
   </g>
   <g id="matplotlib.axis_2">
    <g id="ytick_1">
     <g id="line2d_6">
      <defs>
       <path id="mbdcac5a2a1" d="M 0 0 
L -9 0 
" style="stroke: #262626; stroke-width: 1.875"/>
      </defs>
      <g>
       <use xlink:href="#mbdcac5a2a1" x="270" y="964.806644" style="fill: #262626; stroke: #262626; stroke-width: 1.875"/>
      </g>
     </g>
     <g id="text_7">
      <!-- −100 -->
      <g style="fill: #262626" transform="translate(98.190313 986.842113) scale(0.58 -0.58)">
       <defs>
        <path id="DejaVuSans-31" d="M 794 531 
L 1825 531 
L 1825 4091 
L 703 3866 
L 703 4441 
L 1819 4666 
L 2450 4666 
L 2450 531 
L 3481 531 
L 3481 0 
L 794 0 
L 794 531 
z
" transform="scale(0.015625)"/>
       </defs>
       <use xlink:href="#DejaVuSans-2212"/>
       <use xlink:href="#DejaVuSans-31" x="83.789062"/>
       <use xlink:href="#DejaVuSans-30" x="147.412109"/>
       <use xlink:href="#DejaVuSans-30" x="211.035156"/>
      </g>
     </g>
    </g>
    <g id="ytick_2">
     <g id="line2d_7">
      <g>
       <use xlink:href="#mbdcac5a2a1" x="270" y="783.22543" style="fill: #262626; stroke: #262626; stroke-width: 1.875"/>
      </g>
     </g>
     <g id="text_8">
      <!-- 0 -->
      <g style="fill: #262626" transform="translate(220.5975 805.260898) scale(0.58 -0.58)">
       <use xlink:href="#DejaVuSans-30"/>
      </g>
     </g>
    </g>
    <g id="ytick_3">
     <g id="line2d_8">
      <g>
       <use xlink:href="#mbdcac5a2a1" x="270" y="601.644215" style="fill: #262626; stroke: #262626; stroke-width: 1.875"/>
      </g>
     </g>
     <g id="text_9">
      <!-- 100 -->
      <g style="fill: #262626" transform="translate(146.7925 623.679684) scale(0.58 -0.58)">
       <use xlink:href="#DejaVuSans-31"/>
       <use xlink:href="#DejaVuSans-30" x="63.623047"/>
       <use xlink:href="#DejaVuSans-30" x="127.246094"/>
      </g>
     </g>
    </g>
    <g id="ytick_4">
     <g id="line2d_9">
      <g>
       <use xlink:href="#mbdcac5a2a1" x="270" y="420.063001" style="fill: #262626; stroke: #262626; stroke-width: 1.875"/>
      </g>
     </g>
     <g id="text_10">
      <!-- 200 -->
      <g style="fill: #262626" transform="translate(146.7925 442.098469) scale(0.58 -0.58)">
       <use xlink:href="#DejaVuSans-32"/>
       <use xlink:href="#DejaVuSans-30" x="63.623047"/>
       <use xlink:href="#DejaVuSans-30" x="127.246094"/>
      </g>
     </g>
    </g>
    <g id="ytick_5">
     <g id="line2d_10">
      <g>
       <use xlink:href="#mbdcac5a2a1" x="270" y="238.481786" style="fill: #262626; stroke: #262626; stroke-width: 1.875"/>
      </g>
     </g>
     <g id="text_11">
      <!-- 300 -->
      <g style="fill: #262626" transform="translate(146.7925 260.517255) scale(0.58 -0.58)">
       <defs>
        <path id="DejaVuSans-33" d="M 2597 2516 
Q 3050 2419 3304 2112 
Q 3559 1806 3559 1356 
Q 3559 666 3084 287 
Q 2609 -91 1734 -91 
Q 1441 -91 1130 -33 
Q 819 25 488 141 
L 488 750 
Q 750 597 1062 519 
Q 1375 441 1716 441 
Q 2309 441 2620 675 
Q 2931 909 2931 1356 
Q 2931 1769 2642 2001 
Q 2353 2234 1838 2234 
L 1294 2234 
L 1294 2753 
L 1863 2753 
Q 2328 2753 2575 2939 
Q 2822 3125 2822 3475 
Q 2822 3834 2567 4026 
Q 2313 4219 1838 4219 
Q 1578 4219 1281 4162 
Q 984 4106 628 3988 
L 628 4550 
Q 988 4650 1302 4700 
Q 1616 4750 1894 4750 
Q 2613 4750 3031 4423 
Q 3450 4097 3450 3541 
Q 3450 3153 3228 2886 
Q 3006 2619 2597 2516 
z
" transform="scale(0.015625)"/>
       </defs>
       <use xlink:href="#DejaVuSans-33"/>
       <use xlink:href="#DejaVuSans-30" x="63.623047"/>
       <use xlink:href="#DejaVuSans-30" x="127.246094"/>
      </g>
     </g>
    </g>
    <g id="text_12">
     <!-- I(Z) [nA] -->
     <g style="fill: #262626" transform="translate(82.128125 702.87125) rotate(-90) scale(0.58 -0.58)">
      <defs>
       <path id="DejaVuSans-49" d="M 628 4666 
L 1259 4666 
L 1259 0 
L 628 0 
L 628 4666 
z
" transform="scale(0.015625)"/>
       <path id="DejaVuSans-28" d="M 1984 4856 
Q 1566 4138 1362 3434 
Q 1159 2731 1159 2009 
Q 1159 1288 1364 580 
Q 1569 -128 1984 -844 
L 1484 -844 
Q 1016 -109 783 600 
Q 550 1309 550 2009 
Q 550 2706 781 3412 
Q 1013 4119 1484 4856 
L 1984 4856 
z
" transform="scale(0.015625)"/>
       <path id="DejaVuSans-29" d="M 513 4856 
L 1013 4856 
Q 1481 4119 1714 3412 
Q 1947 2706 1947 2009 
Q 1947 1309 1714 600 
Q 1481 -109 1013 -844 
L 513 -844 
Q 928 -128 1133 580 
Q 1338 1288 1338 2009 
Q 1338 2731 1133 3434 
Q 928 4138 513 4856 
z
" transform="scale(0.015625)"/>
       <path id="DejaVuSans-41" d="M 2188 4044 
L 1331 1722 
L 3047 1722 
L 2188 4044 
z
M 1831 4666 
L 2547 4666 
L 4325 0 
L 3669 0 
L 3244 1197 
L 1141 1197 
L 716 0 
L 50 0 
L 1831 4666 
z
" transform="scale(0.015625)"/>
      </defs>
      <use xlink:href="#DejaVuSans-49"/>
      <use xlink:href="#DejaVuSans-28" x="29.492188"/>
      <use xlink:href="#DejaVuSans-5a" x="68.505859"/>
      <use xlink:href="#DejaVuSans-29" x="137.011719"/>
      <use xlink:href="#DejaVuSans-20" x="176.025391"/>
      <use xlink:href="#DejaVuSans-5b" x="207.8125"/>
      <use xlink:href="#DejaVuSans-6e" x="246.826172"/>
      <use xlink:href="#DejaVuSans-41" x="310.205078"/>
      <use xlink:href="#DejaVuSans-5d" x="378.613281"/>
     </g>
    </g>
   </g>
   <g id="PolyCollection_1"/>
   <g id="PolyCollection_2"/>
   <g id="PolyCollection_3"/>
   <g id="PolyCollection_4"/>
   <g id="PolyCollection_5"/>
   <g id="PolyCollection_6"/>
   <g id="PolyCollection_7"/>
   <g id="PolyCollection_8"/>
   <g id="PolyCollection_9"/>
   <g id="PolyCollection_10"/>
   <g id="PolyCollection_11"/>
   <g id="PolyCollection_12"/>
   <g id="PolyCollection_13"/>
   <g id="PolyCollection_14"/>
   <g id="PolyCollection_15"/>
   <g id="PolyCollection_16"/>
   <g id="PolyCollection_17"/>
   <g id="PolyCollection_18"/>
   <g id="PolyCollection_19"/>
   <g id="PolyCollection_20"/>
   <g id="PolyCollection_21"/>
   <g id="PolyCollection_22"/>
   <g id="PolyCollection_23"/>
   <g id="PolyCollection_24"/>
   <g id="PolyCollection_25"/>
   <g id="PolyCollection_26"/>
   <g id="PolyCollection_27"/>
   <g id="PolyCollection_28"/>
   <g id="PolyCollection_29"/>
   <g id="PolyCollection_30"/>
   <g id="PolyCollection_31"/>
   <g id="PolyCollection_32"/>
   <g id="PolyCollection_33"/>
   <g id="PolyCollection_34"/>
   <g id="PolyCollection_35"/>
   <g id="PolyCollection_36"/>
   <g id="PolyCollection_37"/>
   <g id="PolyCollection_38"/>
   <g id="line2d_11">
    <path d="M 346.090909 831.255335 
L 354.592687 825.422944 
L 363.094464 819.812099 
L 371.596242 816.645625 
L 380.098019 812.508921 
L 388.599797 810.11186 
L 397.101574 807.277263 
L 405.603352 805.478704 
L 422.606907 802.388192 
L 431.108685 800.73039 
L 439.610462 799.891448 
L 448.11224 798.225953 
L 456.614017 797.231215 
L 465.115795 796.04986 
L 482.11935 794.159921 
L 490.621127 793.566384 
L 507.624683 792.206164 
L 524.628238 790.914766 
L 550.13357 789.213224 
L 575.638903 787.792477 
L 601.144236 786.840043 
L 618.147791 786.380741 
L 660.656679 785.415553 
L 694.663789 784.815782 
L 737.172676 784.326741 
L 796.685119 783.838733 
L 873.201117 783.508366 
L 966.72067 783.359757 
L 1230.275775 783.295538 
L 1867.909091 783.292026 
L 1867.909091 783.292026 
" clip-path="url(#p8e74cccb8c)" style="fill: none; stroke: #013220; stroke-width: 2.25; stroke-linecap: round"/>
   </g>
   <g id="line2d_12">
    <path d="M 346.090909 836.529894 
L 354.592687 841.384919 
L 363.094464 850.842721 
L 371.596242 865.38575 
L 380.098019 889.784476 
L 388.599797 925.74581 
L 397.101574 966.648993 
L 405.603352 982.96546 
L 414.10513 984.180249 
L 422.606907 983.647489 
L 431.108685 984.669307 
L 439.610462 983.248263 
L 448.11224 984.568268 
L 456.614017 984.96 
L 465.115795 984.406371 
L 473.617572 984.731264 
L 482.11935 983.80132 
L 490.621127 984.63403 
L 507.624683 984.039117 
L 516.12646 984.863587 
L 533.130015 984.283421 
L 550.13357 983.819336 
L 558.635348 984.461005 
L 567.137125 984.010104 
L 575.638903 984.626579 
L 584.140681 984.145128 
L 592.642458 984.124612 
L 601.144236 984.514965 
L 609.646013 983.986679 
L 618.147791 983.643034 
L 626.649568 983.132893 
L 643.653123 983.657303 
L 652.154901 983.780683 
L 660.656679 983.360125 
L 669.158456 983.418713 
L 677.660234 984.018624 
L 686.162011 982.685589 
L 694.663789 983.001852 
L 703.165566 982.837826 
L 711.667344 983.582978 
L 720.169121 983.159706 
L 728.670899 982.232718 
L 737.172676 981.686758 
L 745.674454 981.930321 
L 754.176232 981.623136 
L 762.678009 980.42215 
L 771.179787 979.345813 
L 779.681564 979.341525 
L 788.183342 977.234584 
L 796.685119 973.699985 
L 805.186897 970.563922 
L 813.688674 966.46418 
L 822.190452 962.120365 
L 830.69223 954.347813 
L 839.194007 944.673383 
L 847.695785 935.497187 
L 856.197562 923.035703 
L 864.69934 910.031915 
L 873.201117 895.42045 
L 881.702895 881.516078 
L 890.204672 866.389415 
L 898.70645 848.891838 
L 907.208228 835.942349 
L 915.710005 824.627685 
L 924.211783 814.84379 
L 932.71356 806.713679 
L 941.215338 800.707154 
L 949.717115 796.139765 
L 958.218893 792.536534 
L 966.72067 789.904581 
L 975.222448 787.969499 
L 983.724225 786.613127 
L 992.226003 785.625067 
L 1000.727781 784.971121 
L 1009.229558 784.470453 
L 1026.233113 783.880281 
L 1043.236668 783.594694 
L 1068.742001 783.407944 
L 1119.752666 783.312825 
L 1357.802438 783.291855 
L 1867.909091 783.292163 
L 1867.909091 783.292163 
" clip-path="url(#p8e74cccb8c)" style="fill: none; stroke: #ff7600; stroke-width: 2.25; stroke-linecap: round"/>
   </g>
   <g id="line2d_13">
    <path d="M 346.090909 813.52074 
L 354.592687 810.661608 
L 363.094464 808.168496 
L 380.098019 804.71674 
L 388.599797 802.685896 
L 405.603352 799.608784 
L 431.108685 796.012421 
L 439.610462 795.495816 
L 456.614017 793.466987 
L 465.115795 792.856271 
L 473.617572 792.405115 
L 490.621127 791.02602 
L 499.122905 790.52128 
L 507.624683 789.897044 
L 533.130015 788.608671 
L 541.631793 788.277022 
L 550.13357 787.810086 
L 592.642458 786.380278 
L 618.147791 785.688462 
L 652.154901 785.038478 
L 677.660234 784.637205 
L 728.670899 784.106414 
L 788.183342 783.701118 
L 856.197562 783.469912 
L 966.72067 783.341862 
L 1221.773997 783.295756 
L 1816.898426 783.293264 
L 1867.909091 783.29217 
L 1867.909091 783.29217 
" clip-path="url(#p8e74cccb8c)" style="fill: none; stroke: #013624; stroke-width: 2.25; stroke-linecap: round"/>
   </g>
   <g id="line2d_14">
    <path d="M 346.090909 814.783708 
L 354.592687 814.209089 
L 371.596242 816.482989 
L 388.599797 823.360115 
L 397.101574 828.780813 
L 405.603352 832.494559 
L 414.10513 837.896963 
L 422.606907 842.317915 
L 431.108685 848.829823 
L 439.610462 853.659452 
L 448.11224 861.033906 
L 456.614017 868.22072 
L 465.115795 880.328288 
L 473.617572 893.694446 
L 482.11935 913.964283 
L 490.621127 933.940513 
L 499.122905 958.16254 
L 507.624683 975.786805 
L 516.12646 984.501464 
L 524.628238 983.976422 
L 533.130015 984.403765 
L 541.631793 984.208684 
L 550.13357 984.675224 
L 558.635348 984.479865 
L 567.137125 983.925928 
L 575.638903 983.036284 
L 584.140681 984.710661 
L 592.642458 982.789992 
L 601.144236 983.897854 
L 609.646013 983.920095 
L 626.649568 982.551297 
L 635.151346 984.261462 
L 643.653123 982.716083 
L 652.154901 983.007665 
L 660.656679 982.201877 
L 669.158456 983.417437 
L 677.660234 983.266723 
L 686.162011 982.758981 
L 694.663789 981.410834 
L 703.165566 981.73427 
L 711.667344 981.925559 
L 720.169121 980.248839 
L 728.670899 981.083354 
L 737.172676 980.698738 
L 745.674454 979.018281 
L 754.176232 977.603578 
L 762.678009 974.111265 
L 771.179787 971.460921 
L 779.681564 967.32293 
L 788.183342 962.827336 
L 796.685119 957.104659 
L 805.186897 946.336524 
L 813.688674 936.538759 
L 822.190452 925.209934 
L 830.69223 911.652259 
L 839.194007 898.848881 
L 847.695785 882.92939 
L 856.197562 867.741452 
L 864.69934 851.914482 
L 873.201117 837.64919 
L 881.702895 825.416958 
L 890.204672 814.91845 
L 898.70645 806.839872 
L 907.208228 800.539488 
L 915.710005 795.968471 
L 924.211783 792.615822 
L 932.71356 789.965151 
L 941.215338 788.08126 
L 949.717115 786.691623 
L 958.218893 785.746488 
L 966.72067 785.058538 
L 983.724225 784.236863 
L 1000.727781 783.783008 
L 1017.731336 783.549462 
L 1051.738446 783.367905 
L 1128.254444 783.300544 
L 1595.852209 783.292422 
L 1867.909091 783.292858 
L 1867.909091 783.292858 
" clip-path="url(#p8e74cccb8c)" style="fill: none; stroke: #fd7a00; stroke-width: 2.25; stroke-linecap: round"/>
   </g>
   <g id="line2d_15">
    <path d="M 346.090909 808.310849 
L 354.592687 806.132706 
L 363.094464 804.107319 
L 371.596242 802.926062 
L 397.101574 798.924589 
L 405.603352 797.825991 
L 414.10513 796.423261 
L 431.108685 794.74966 
L 448.11224 793.733339 
L 456.614017 792.930653 
L 482.11935 791.292493 
L 499.122905 790.053397 
L 516.12646 789.251747 
L 524.628238 788.966061 
L 541.631793 788.120614 
L 550.13357 787.649183 
L 575.638903 786.754982 
L 592.642458 786.36769 
L 618.147791 785.636476 
L 652.154901 784.94179 
L 686.162011 784.410173 
L 728.670899 783.96973 
L 805.186897 783.592926 
L 907.208228 783.374814 
L 1060.240223 783.306884 
L 1527.837989 783.292333 
L 1867.909091 783.292203 
L 1867.909091 783.292203 
" clip-path="url(#p8e74cccb8c)" style="fill: none; stroke: #013b28; stroke-width: 2.25; stroke-linecap: round"/>
   </g>
   <g id="line2d_16">
    <path d="M 346.090909 809.286946 
L 354.592687 808.139622 
L 363.094464 808.59944 
L 371.596242 809.517944 
L 388.599797 812.765049 
L 397.101574 814.724873 
L 405.603352 817.041943 
L 422.606907 821.897484 
L 431.108685 824.57307 
L 439.610462 826.271329 
L 448.11224 828.456352 
L 456.614017 829.907334 
L 465.115795 831.721338 
L 473.617572 832.391111 
L 482.11935 834.109922 
L 490.621127 834.863711 
L 507.624683 834.406272 
L 516.12646 833.598894 
L 524.628238 831.879176 
L 533.130015 830.423103 
L 541.631793 828.738493 
L 550.13357 826.589305 
L 558.635348 823.911449 
L 567.137125 821.675568 
L 575.638903 819.136434 
L 584.140681 815.930922 
L 609.646013 807.369416 
L 618.147791 804.978806 
L 626.649568 802.41764 
L 635.151346 800.259328 
L 643.653123 797.926211 
L 652.154901 796.145985 
L 677.660234 791.568693 
L 694.663789 789.524913 
L 711.667344 787.862176 
L 728.670899 786.520812 
L 745.674454 785.578932 
L 762.678009 784.895877 
L 779.681564 784.416079 
L 805.186897 783.968023 
L 847.695785 783.582929 
L 907.208228 783.377202 
L 1026.233113 783.305142 
L 1867.909091 783.292462 
L 1867.909091 783.292462 
" clip-path="url(#p8e74cccb8c)" style="fill: none; stroke: #fc7d00; stroke-width: 2.25; stroke-linecap: round"/>
   </g>
   <g id="line2d_17">
    <path d="M 346.090909 819.59908 
L 354.592687 814.317664 
L 363.094464 811.964592 
L 371.596242 808.902584 
L 380.098019 807.382041 
L 388.599797 804.769825 
L 397.101574 803.601951 
L 405.603352 801.391907 
L 414.10513 800.493114 
L 422.606907 798.455198 
L 448.11224 795.256818 
L 456.614017 794.547888 
L 465.115795 793.466015 
L 473.617572 793.091819 
L 490.621127 791.968187 
L 499.122905 791.532919 
L 524.628238 789.68959 
L 541.631793 788.793624 
L 550.13357 788.271146 
L 558.635348 787.980438 
L 567.137125 787.501503 
L 575.638903 787.39297 
L 592.642458 786.710608 
L 618.147791 785.922956 
L 635.151346 785.562056 
L 737.172676 784.13369 
L 813.688674 783.62621 
L 907.208228 783.407415 
L 1068.742001 783.309478 
L 1502.332656 783.293073 
L 1867.909091 783.292554 
L 1867.909091 783.292554 
" clip-path="url(#p8e74cccb8c)" style="fill: none; stroke: #013f2c; stroke-width: 2.25; stroke-linecap: round"/>
   </g>
   <g id="line2d_18">
    <path d="M 346.090909 819.935108 
L 354.592687 822.419519 
L 363.094464 823.487999 
L 371.596242 829.480385 
L 380.098019 833.272353 
L 388.599797 842.342547 
L 397.101574 847.098624 
L 405.603352 861.009577 
L 414.10513 871.858945 
L 422.606907 892.527907 
L 431.108685 918.706179 
L 439.610462 955.968951 
L 448.11224 976.633322 
L 456.614017 984.686817 
L 465.115795 982.004049 
L 473.617572 984.480996 
L 482.11935 983.562336 
L 490.621127 984.130255 
L 499.122905 983.50685 
L 507.624683 984.506653 
L 516.12646 984.063652 
L 524.628238 984.153459 
L 533.130015 984.037812 
L 541.631793 983.411309 
L 558.635348 983.321005 
L 567.137125 982.726039 
L 575.638903 982.458983 
L 584.140681 983.409447 
L 592.642458 983.711797 
L 601.144236 984.43676 
L 609.646013 982.960446 
L 618.147791 984.039179 
L 626.649568 983.062604 
L 635.151346 983.701196 
L 643.653123 981.789958 
L 652.154901 982.906575 
L 660.656679 982.762241 
L 669.158456 982.310067 
L 677.660234 981.441696 
L 686.162011 982.203763 
L 694.663789 981.562833 
L 703.165566 981.052684 
L 711.667344 982.379983 
L 720.169121 982.093351 
L 728.670899 981.568143 
L 737.172676 980.625365 
L 745.674454 980.16665 
L 754.176232 978.184967 
L 762.678009 976.812693 
L 771.179787 974.967702 
L 779.681564 970.935757 
L 788.183342 968.417143 
L 796.685119 961.849366 
L 805.186897 956.37612 
L 813.688674 946.01392 
L 822.190452 937.430624 
L 830.69223 923.448857 
L 839.194007 913.990116 
L 847.695785 900.676512 
L 856.197562 885.208921 
L 864.69934 871.06791 
L 873.201117 854.47999 
L 890.204672 828.33774 
L 898.70645 817.848454 
L 907.208228 809.034731 
L 915.710005 801.751701 
L 924.211783 796.882958 
L 932.71356 793.306994 
L 941.215338 790.537516 
L 949.717115 788.54734 
L 958.218893 787.140695 
L 966.72067 786.045146 
L 983.724225 784.682032 
L 1000.727781 784.008118 
L 1017.731336 783.669826 
L 1043.236668 783.436021 
L 1085.745556 783.324631 
L 1230.275775 783.293386 
L 1867.909091 783.291514 
L 1867.909091 783.291514 
" clip-path="url(#p8e74cccb8c)" style="fill: none; stroke: #fa8000; stroke-width: 2.25; stroke-linecap: round"/>
   </g>
   <g id="line2d_19">
    <path d="M 346.090909 807.438068 
L 354.592687 805.368172 
L 363.094464 803.139316 
L 371.596242 801.388427 
L 388.599797 798.837631 
L 397.101574 797.814365 
L 414.10513 795.196132 
L 448.11224 792.14563 
L 473.617572 790.817106 
L 482.11935 790.187521 
L 499.122905 789.599389 
L 516.12646 788.613145 
L 524.628238 788.136535 
L 575.638903 786.312462 
L 592.642458 785.921419 
L 626.649568 785.055799 
L 677.660234 784.312534 
L 754.176232 783.740692 
L 805.186897 783.544785 
L 907.208228 783.366633 
L 1085.745556 783.300837 
L 1867.909091 783.292343 
L 1867.909091 783.292343 
" clip-path="url(#p8e74cccb8c)" style="fill: none; stroke: #014330; stroke-width: 2.25; stroke-linecap: round"/>
   </g>
   <g id="line2d_20">
    <path d="M 346.090909 807.458651 
L 354.592687 806.917132 
L 363.094464 807.257237 
L 371.596242 807.994507 
L 380.098019 808.900455 
L 388.599797 810.239606 
L 397.101574 811.821307 
L 405.603352 812.837439 
L 414.10513 813.536511 
L 422.606907 815.27853 
L 431.108685 816.875958 
L 439.610462 818.037175 
L 448.11224 818.6321 
L 456.614017 819.604989 
L 465.115795 820.35433 
L 473.617572 820.38891 
L 499.122905 819.360124 
L 507.624683 818.344787 
L 516.12646 816.935099 
L 524.628238 815.328228 
L 533.130015 813.360721 
L 550.13357 809.813433 
L 558.635348 808.005194 
L 567.137125 806.360813 
L 584.140681 802.550149 
L 592.642458 800.491931 
L 601.144236 798.675941 
L 609.646013 796.984213 
L 626.649568 794.102539 
L 635.151346 792.813656 
L 669.158456 788.763374 
L 686.162011 787.302871 
L 703.165566 786.226797 
L 720.169121 785.412075 
L 737.172676 784.864816 
L 762.678009 784.300625 
L 796.685119 783.834286 
L 856.197562 783.482619 
L 924.211783 783.344392 
L 1119.752666 783.297132 
L 1867.909091 783.291963 
L 1867.909091 783.291963 
" clip-path="url(#p8e74cccb8c)" style="fill: none; stroke: #f88400; stroke-width: 2.25; stroke-linecap: round"/>
   </g>
   <g id="line2d_21">
    <path d="M 346.090909 803.631405 
L 354.592687 802.036697 
L 363.094464 800.840988 
L 371.596242 799.273892 
L 380.098019 798.394572 
L 388.599797 797.135665 
L 397.101574 796.220141 
L 405.603352 795.071338 
L 414.10513 794.220905 
L 431.108685 792.946549 
L 439.610462 792.116655 
L 465.115795 790.812095 
L 473.617572 790.421929 
L 482.11935 790.160565 
L 499.122905 789.206244 
L 533.130015 787.551229 
L 567.137125 786.50883 
L 592.642458 785.801314 
L 618.147791 785.200839 
L 635.151346 784.909599 
L 694.663789 784.11744 
L 745.674454 783.708705 
L 805.186897 783.501314 
L 898.70645 783.364011 
L 1111.250889 783.298494 
L 1867.909091 783.292395 
L 1867.909091 783.292395 
" clip-path="url(#p8e74cccb8c)" style="fill: none; stroke: #014735; stroke-width: 2.25; stroke-linecap: round"/>
   </g>
   <g id="line2d_22">
    <path d="M 346.090909 803.812928 
L 354.592687 803.123444 
L 363.094464 802.868528 
L 371.596242 803.205312 
L 380.098019 804.184552 
L 388.599797 805.017294 
L 397.101574 805.592404 
L 414.10513 807.544845 
L 422.606907 807.997404 
L 431.108685 808.215372 
L 439.610462 808.945955 
L 448.11224 809.249432 
L 456.614017 809.425013 
L 473.617572 808.569764 
L 482.11935 807.966682 
L 490.621127 807.068503 
L 499.122905 806.294303 
L 516.12646 804.373051 
L 524.628238 803.128429 
L 533.130015 802.31038 
L 541.631793 801.046382 
L 550.13357 799.60945 
L 558.635348 798.293593 
L 567.137125 797.415105 
L 584.140681 794.98714 
L 609.646013 791.874938 
L 626.649568 790.124851 
L 643.653123 788.54964 
L 652.154901 787.910419 
L 686.162011 786.05188 
L 703.165566 785.412725 
L 711.667344 785.095674 
L 762.678009 784.000255 
L 796.685119 783.673176 
L 847.695785 783.437958 
L 941.215338 783.32559 
L 1145.257999 783.295681 
L 1867.909091 783.29219 
L 1867.909091 783.29219 
" clip-path="url(#p8e74cccb8c)" style="fill: none; stroke: #f78700; stroke-width: 2.25; stroke-linecap: round"/>
   </g>
   <g id="line2d_23">
    <path d="M 346.090909 798.986015 
L 354.592687 798.09209 
L 371.596242 796.063949 
L 388.599797 794.243882 
L 397.101574 793.591154 
L 405.603352 792.759449 
L 414.10513 792.08155 
L 439.610462 790.544747 
L 448.11224 789.985019 
L 456.614017 789.591322 
L 473.617572 788.587261 
L 533.130015 786.353775 
L 558.635348 785.672752 
L 575.638903 785.307551 
L 643.653123 784.360156 
L 694.663789 783.909592 
L 745.674454 783.625009 
L 813.688674 783.425909 
L 915.710005 783.33513 
L 1153.759777 783.294316 
L 1867.909091 783.292132 
L 1867.909091 783.292132 
" clip-path="url(#p8e74cccb8c)" style="fill: none; stroke: #014c39; stroke-width: 2.25; stroke-linecap: round"/>
   </g>
   <g id="line2d_24">
    <path d="M 346.090909 799.194665 
L 354.592687 797.887469 
L 363.094464 797.609962 
L 371.596242 796.96434 
L 380.098019 796.962083 
L 388.599797 796.811196 
L 397.101574 797.045704 
L 414.10513 797.169654 
L 422.606907 796.91032 
L 448.11224 796.805431 
L 456.614017 796.408705 
L 465.115795 796.204267 
L 473.617572 796.118972 
L 490.621127 795.341714 
L 499.122905 794.693142 
L 507.624683 794.172686 
L 516.12646 793.435175 
L 533.130015 792.264051 
L 550.13357 790.713043 
L 567.137125 789.67311 
L 584.140681 788.728451 
L 626.649568 786.395861 
L 652.154901 785.484349 
L 686.162011 784.560286 
L 728.670899 783.946178 
L 771.179787 783.610592 
L 847.695785 783.387453 
L 966.72067 783.30937 
L 1366.304215 783.292424 
L 1867.909091 783.291757 
L 1867.909091 783.291757 
" clip-path="url(#p8e74cccb8c)" style="fill: none; stroke: #f58a00; stroke-width: 2.25; stroke-linecap: round"/>
   </g>
   <g id="line2d_25">
    <path d="M 346.090909 800.37462 
L 354.592687 799.291096 
L 363.094464 797.937878 
L 380.098019 796.334768 
L 388.599797 795.401031 
L 397.101574 794.711345 
L 405.603352 793.75875 
L 414.10513 793.311348 
L 422.606907 792.496809 
L 448.11224 790.509253 
L 507.624683 787.72858 
L 524.628238 787.123464 
L 533.130015 786.757321 
L 567.137125 785.849152 
L 601.144236 785.157847 
L 635.151346 784.708564 
L 660.656679 784.365622 
L 711.667344 783.932132 
L 779.681564 783.555646 
L 856.197562 783.39044 
L 992.226003 783.312918 
L 1366.304215 783.292485 
L 1867.909091 783.291777 
L 1867.909091 783.291777 
" clip-path="url(#p8e74cccb8c)" style="fill: none; stroke: #01503e; stroke-width: 2.25; stroke-linecap: round"/>
   </g>
   <g id="line2d_26">
    <path d="M 346.090909 800.674386 
L 354.592687 799.218084 
L 363.094464 798.762646 
L 371.596242 798.580359 
L 380.098019 798.520172 
L 397.101574 798.986369 
L 405.603352 799.588243 
L 414.10513 799.849167 
L 422.606907 800.466108 
L 448.11224 801.483211 
L 456.614017 801.330549 
L 465.115795 801.669255 
L 490.621127 800.344285 
L 507.624683 798.793978 
L 516.12646 797.725726 
L 524.628238 796.861623 
L 541.631793 794.653569 
L 550.13357 794.086289 
L 558.635348 792.96127 
L 567.137125 792.252239 
L 575.638903 791.359057 
L 592.642458 790.217761 
L 618.147791 788.243861 
L 626.649568 787.680676 
L 643.653123 786.707177 
L 652.154901 786.255491 
L 660.656679 785.961113 
L 669.158456 785.518433 
L 694.663789 784.778657 
L 728.670899 784.139085 
L 762.678009 783.773457 
L 847.695785 783.421801 
L 949.717115 783.317311 
L 1323.795328 783.2922 
L 1867.909091 783.292074 
L 1867.909091 783.292074 
" clip-path="url(#p8e74cccb8c)" style="fill: none; stroke: #f38e00; stroke-width: 2.25; stroke-linecap: round"/>
   </g>
   <g id="line2d_27">
    <path d="M 346.090909 802.294954 
L 354.592687 800.472111 
L 371.596242 798.191817 
L 380.098019 797.046132 
L 414.10513 793.105623 
L 422.606907 792.719354 
L 439.610462 791.614548 
L 456.614017 790.579595 
L 465.115795 790.313189 
L 507.624683 788.26336 
L 524.628238 787.536829 
L 533.130015 787.351143 
L 541.631793 786.927344 
L 558.635348 786.404939 
L 584.140681 785.657455 
L 609.646013 785.10053 
L 652.154901 784.434164 
L 686.162011 784.111866 
L 745.674454 783.733214 
L 796.685119 783.534093 
L 898.70645 783.361666 
L 1111.250889 783.298606 
L 1867.909091 783.292469 
L 1867.909091 783.292469 
" clip-path="url(#p8e74cccb8c)" style="fill: none; stroke: #015443; stroke-width: 2.25; stroke-linecap: round"/>
   </g>
   <g id="line2d_28">
    <path d="M 346.090909 801.979642 
L 354.592687 800.905812 
L 371.596242 800.608706 
L 380.098019 801.035362 
L 388.599797 801.160177 
L 397.101574 802.115177 
L 405.603352 802.549666 
L 422.606907 804.001878 
L 431.108685 804.437271 
L 439.610462 804.760592 
L 448.11224 804.9246 
L 456.614017 805.469672 
L 465.115795 805.353031 
L 473.617572 804.782081 
L 482.11935 804.682404 
L 490.621127 803.746303 
L 499.122905 803.036984 
L 507.624683 801.513534 
L 516.12646 800.59103 
L 524.628238 800.154928 
L 533.130015 798.898932 
L 550.13357 796.758338 
L 558.635348 795.342173 
L 567.137125 794.494178 
L 575.638903 793.333034 
L 601.144236 790.971614 
L 618.147791 789.425039 
L 626.649568 788.887289 
L 643.653123 787.583085 
L 660.656679 786.74685 
L 669.158456 786.274955 
L 703.165566 785.073733 
L 720.169121 784.60822 
L 754.176232 784.019279 
L 788.183342 783.692834 
L 847.695785 783.434776 
L 941.215338 783.322885 
L 1272.784662 783.294105 
L 1867.909091 783.292081 
L 1867.909091 783.292081 
" clip-path="url(#p8e74cccb8c)" style="fill: none; stroke: #f29100; stroke-width: 2.25; stroke-linecap: round"/>
   </g>
   <g id="line2d_29">
    <path d="M 346.090909 798.879959 
L 354.592687 797.700265 
L 363.094464 796.947596 
L 371.596242 795.805143 
L 388.599797 794.617771 
L 397.101574 793.889392 
L 405.603352 792.948746 
L 414.10513 792.2624 
L 422.606907 791.751447 
L 431.108685 790.836197 
L 439.610462 790.609628 
L 456.614017 789.64631 
L 473.617572 788.88561 
L 482.11935 788.61438 
L 507.624683 787.435005 
L 524.628238 786.819082 
L 550.13357 786.086552 
L 558.635348 785.761666 
L 601.144236 784.993805 
L 635.151346 784.488979 
L 660.656679 784.178157 
L 703.165566 783.828313 
L 745.674454 783.58922 
L 864.69934 783.370343 
L 1051.738446 783.300055 
L 1867.909091 783.292395 
L 1867.909091 783.292395 
" clip-path="url(#p8e74cccb8c)" style="fill: none; stroke: #015949; stroke-width: 2.25; stroke-linecap: round"/>
   </g>
   <g id="line2d_30">
    <path d="M 346.090909 798.648986 
L 354.592687 797.577047 
L 363.094464 796.849245 
L 371.596242 796.367472 
L 380.098019 796.121541 
L 388.599797 796.146628 
L 405.603352 796.432755 
L 414.10513 796.921221 
L 422.606907 797.070453 
L 431.108685 796.640034 
L 439.610462 796.880312 
L 448.11224 796.502495 
L 456.614017 796.487719 
L 465.115795 796.241624 
L 473.617572 795.778271 
L 482.11935 795.511164 
L 507.624683 794.140878 
L 533.130015 792.148689 
L 541.631793 791.7966 
L 558.635348 790.373631 
L 584.140681 788.827233 
L 635.151346 786.264544 
L 652.154901 785.684312 
L 669.158456 785.142952 
L 703.165566 784.402403 
L 728.670899 784.024645 
L 754.176232 783.768366 
L 788.183342 783.548145 
L 847.695785 783.386357 
L 966.72067 783.308668 
L 1519.336211 783.292063 
L 1867.909091 783.292794 
L 1867.909091 783.292794 
" clip-path="url(#p8e74cccb8c)" style="fill: none; stroke: #f09401; stroke-width: 2.25; stroke-linecap: round"/>
   </g>
   <g id="line2d_31">
    <path d="M 346.090909 794.862371 
L 354.592687 794.090568 
L 363.094464 793.604445 
L 371.596242 792.988111 
L 397.101574 791.706973 
L 405.603352 791.184414 
L 414.10513 790.550265 
L 431.108685 789.675331 
L 439.610462 789.026012 
L 456.614017 788.14669 
L 482.11935 787.196196 
L 490.621127 786.942834 
L 499.122905 786.562953 
L 541.631793 785.418645 
L 609.646013 784.319186 
L 728.670899 783.54332 
L 847.695785 783.35999 
L 1196.268664 783.293025 
L 1867.909091 783.292763 
L 1867.909091 783.292763 
" clip-path="url(#p8e74cccb8c)" style="fill: none; stroke: #015d4e; stroke-width: 2.25; stroke-linecap: round"/>
   </g>
   <g id="line2d_32">
    <path d="M 346.090909 794.437982 
L 363.094464 792.912279 
L 371.596242 792.394875 
L 380.098019 792.376709 
L 388.599797 792.157762 
L 397.101574 792.077583 
L 405.603352 791.750154 
L 414.10513 791.652952 
L 431.108685 791.291461 
L 456.614017 790.730367 
L 465.115795 790.431618 
L 482.11935 790.139658 
L 507.624683 789.048686 
L 550.13357 787.216293 
L 567.137125 786.674759 
L 575.638903 786.339136 
L 635.151346 784.874178 
L 660.656679 784.432556 
L 694.663789 783.986808 
L 728.670899 783.693969 
L 779.681564 783.471928 
L 864.69934 783.337479 
L 1145.257999 783.29347 
L 1782.891315 783.29204 
L 1867.909091 783.292422 
L 1867.909091 783.292422 
" clip-path="url(#p8e74cccb8c)" style="fill: none; stroke: #ee9701; stroke-width: 2.25; stroke-linecap: round"/>
   </g>
   <g id="line2d_33">
    <path d="M 346.090909 790.491852 
L 363.094464 789.665959 
L 371.596242 789.439049 
L 380.098019 789.017466 
L 388.599797 788.767316 
L 431.108685 787.023253 
L 456.614017 786.218528 
L 507.624683 785.008842 
L 533.130015 784.584667 
L 609.646013 783.842721 
L 686.162011 783.533178 
L 796.685119 783.359331 
L 1009.229558 783.298527 
L 1485.329101 783.291994 
L 1867.909091 783.291771 
L 1867.909091 783.291771 
" clip-path="url(#p8e74cccb8c)" style="fill: none; stroke: #016154; stroke-width: 2.25; stroke-linecap: round"/>
   </g>
   <g id="line2d_34">
    <path d="M 346.090909 790.422695 
L 354.592687 789.654612 
L 380.098019 788.174282 
L 431.108685 787.036584 
L 439.610462 786.780501 
L 456.614017 786.516679 
L 482.11935 785.998755 
L 533.130015 785.084148 
L 550.13357 784.746839 
L 618.147791 783.966801 
L 737.172676 783.42692 
L 864.69934 783.316731 
L 1315.29355 783.292587 
L 1867.909091 783.291707 
L 1867.909091 783.291707 
" clip-path="url(#p8e74cccb8c)" style="fill: none; stroke: #ed9a01; stroke-width: 2.25; stroke-linecap: round"/>
   </g>
   <g id="line2d_35">
    <path d="M 346.090909 788.036302 
L 354.592687 787.564358 
L 380.098019 786.787319 
L 388.599797 786.408689 
L 405.603352 785.969615 
L 422.606907 785.523115 
L 456.614017 784.870628 
L 567.137125 783.763617 
L 686.162011 783.405844 
L 839.194007 783.313995 
L 1196.268664 783.292285 
L 1867.909091 783.291946 
L 1867.909091 783.291946 
" clip-path="url(#p8e74cccb8c)" style="fill: none; stroke: #016659; stroke-width: 2.25; stroke-linecap: round"/>
   </g>
   <g id="line2d_36">
    <path d="M 346.090909 787.893418 
L 363.094464 787.001769 
L 388.599797 786.190723 
L 422.606907 785.42371 
L 448.11224 784.91977 
L 482.11935 784.5245 
L 516.12646 784.177893 
L 660.656679 783.466327 
L 754.176232 783.343159 
L 941.215338 783.297103 
L 1867.909091 783.291261 
L 1867.909091 783.291261 
" clip-path="url(#p8e74cccb8c)" style="fill: none; stroke: #eb9d01; stroke-width: 2.25; stroke-linecap: round"/>
   </g>
   <g id="line2d_37">
    <path d="M 346.090909 785.807362 
L 439.610462 784.33304 
L 473.617572 783.990405 
L 541.631793 783.589262 
L 609.646013 783.41948 
L 720.169121 783.327607 
L 1400.311326 783.292841 
L 1867.909091 783.292676 
L 1867.909091 783.292676 
" clip-path="url(#p8e74cccb8c)" style="fill: none; stroke: #016a5f; stroke-width: 2.25; stroke-linecap: round"/>
   </g>
   <g id="line2d_38">
    <path d="M 346.090909 785.73981 
L 363.094464 785.317812 
L 388.599797 784.803747 
L 414.10513 784.439446 
L 507.624683 783.686166 
L 592.642458 783.425677 
L 686.162011 783.335752 
L 1111.250889 783.292495 
L 1867.909091 783.292502 
L 1867.909091 783.292502 
" clip-path="url(#p8e74cccb8c)" style="fill: none; stroke: #e9a001; stroke-width: 2.25; stroke-linecap: round"/>
   </g>
   <g id="line2d_39">
    <path d="M 346.090909 783.148181 
L 533.130015 783.272922 
L 1034.734891 783.292606 
L 1867.909091 783.291917 
L 1867.909091 783.291917 
" clip-path="url(#p8e74cccb8c)" style="fill: none; stroke: #006e65; stroke-width: 2.25; stroke-linecap: round"/>
   </g>
   <g id="line2d_40">
    <path d="M 346.090909 783.147649 
L 465.115795 783.254242 
L 745.674454 783.290675 
L 1867.909091 783.292093 
L 1867.909091 783.292093 
" clip-path="url(#p8e74cccb8c)" style="fill: none; stroke: #e8a201; stroke-width: 2.25; stroke-linecap: round"/>
   </g>
   <g id="line2d_41">
    <path d="M 346.090909 782.071613 
L 397.101574 782.636909 
L 456.614017 782.95556 
L 584.140681 783.204569 
L 830.69223 783.287412 
L 1867.909091 783.291302 
L 1867.909091 783.291302 
" clip-path="url(#p8e74cccb8c)" style="fill: none; stroke: #00736c; stroke-width: 2.25; stroke-linecap: round"/>
   </g>
   <g id="line2d_42">
    <path d="M 346.090909 782.064831 
L 363.094464 782.238911 
L 422.606907 782.731987 
L 473.617572 782.984379 
L 592.642458 783.212163 
L 779.681564 783.282198 
L 1867.909091 783.29234 
L 1867.909091 783.29234 
" clip-path="url(#p8e74cccb8c)" style="fill: none; stroke: #e6a501; stroke-width: 2.25; stroke-linecap: round"/>
   </g>
   <g id="line2d_43">
    <path d="M 346.090909 780.948108 
L 363.094464 781.357309 
L 465.115795 782.614295 
L 533.130015 782.98794 
L 601.144236 783.152197 
L 796.685119 783.27689 
L 1867.909091 783.292266 
L 1867.909091 783.292266 
" clip-path="url(#p8e74cccb8c)" style="fill: none; stroke: #007772; stroke-width: 2.25; stroke-linecap: round"/>
   </g>
   <g id="line2d_44">
    <path d="M 346.090909 780.869638 
L 397.101574 781.921145 
L 448.11224 782.541032 
L 499.122905 782.896815 
L 541.631793 783.052122 
L 669.158456 783.228885 
L 1043.236668 783.291198 
L 1867.909091 783.291927 
L 1867.909091 783.291927 
" clip-path="url(#p8e74cccb8c)" style="fill: none; stroke: #e4a801; stroke-width: 2.25; stroke-linecap: round"/>
   </g>
   <g id="line2d_45">
    <path d="M 346.090909 777.265928 
L 363.094464 778.776688 
L 380.098019 779.741617 
L 397.101574 780.450742 
L 414.10513 781.032008 
L 465.115795 782.104723 
L 507.624683 782.550575 
L 567.137125 782.886793 
L 660.656679 783.144738 
L 822.190452 783.272209 
L 1867.909091 783.292682 
L 1867.909091 783.292682 
" clip-path="url(#p8e74cccb8c)" style="fill: none; stroke: #007c79; stroke-width: 2.25; stroke-linecap: round"/>
   </g>
   <g id="line2d_46">
    <path d="M 346.090909 777.02005 
L 371.596242 777.932879 
L 388.599797 778.806692 
L 414.10513 780.105347 
L 422.606907 780.594958 
L 448.11224 781.600836 
L 465.115795 782.062069 
L 499.122905 782.611097 
L 533.130015 782.898152 
L 601.144236 783.134532 
L 703.165566 783.229235 
L 1119.752666 783.29189 
L 1867.909091 783.292484 
L 1867.909091 783.292484 
" clip-path="url(#p8e74cccb8c)" style="fill: none; stroke: #e3aa01; stroke-width: 2.25; stroke-linecap: round"/>
   </g>
   <g id="line2d_47">
    <path d="M 346.090909 762.818302 
L 354.592687 767.162623 
L 363.094464 770.165812 
L 371.596242 772.49629 
L 380.098019 774.11552 
L 397.101574 776.187424 
L 405.603352 777.121666 
L 422.606907 778.585491 
L 448.11224 779.891465 
L 482.11935 781.140643 
L 507.624683 781.703297 
L 541.631793 782.207389 
L 584.140681 782.675644 
L 635.151346 782.967726 
L 745.674454 783.192821 
L 932.71356 783.280901 
L 1629.859319 783.292349 
L 1867.909091 783.291928 
L 1867.909091 783.291928 
" clip-path="url(#p8e74cccb8c)" style="fill: none; stroke: #008080; stroke-width: 2.25; stroke-linecap: round"/>
   </g>
   <g id="line2d_48">
    <path d="M 346.090909 758.154521 
L 354.592687 752.84405 
L 363.094464 745.201874 
L 371.596242 731.31798 
L 380.098019 693.101737 
L 388.599797 505.601203 
L 397.101574 178.56 
L 1332.297105 178.56 
L 1340.798883 179.276831 
L 1349.30066 178.56 
L 1357.802438 178.56 
L 1366.304215 178.819198 
L 1374.805993 178.56 
L 1383.30777 178.56 
L 1391.809548 178.871758 
L 1400.311326 179.040843 
L 1408.813103 178.56 
L 1442.820213 178.56 
L 1451.321991 179.426002 
L 1459.823768 178.56 
L 1468.325546 178.56835 
L 1476.827324 178.975728 
L 1493.830879 178.663556 
L 1502.332656 178.56 
L 1510.834434 178.704555 
L 1519.336211 180.191271 
L 1527.837989 179.140729 
L 1536.339766 178.56 
L 1544.841544 178.806087 
L 1553.343321 178.56 
L 1561.845099 178.56 
L 1570.346877 179.996953 
L 1578.848654 178.56 
L 1587.350432 180.160946 
L 1595.852209 178.687769 
L 1604.353987 178.56 
L 1612.855764 180.291026 
L 1621.357542 185.623016 
L 1629.859319 187.932972 
L 1638.361097 182.913385 
L 1646.862875 178.71801 
L 1655.364652 178.56 
L 1663.86643 178.56 
L 1680.869985 188.405661 
L 1689.371762 178.821574 
L 1697.87354 178.56 
L 1706.375317 179.72421 
L 1714.877095 178.56 
L 1723.378873 180.255641 
L 1731.88065 181.277754 
L 1740.382428 180.176053 
L 1748.884205 180.17636 
L 1757.385983 179.332682 
L 1765.88776 186.687355 
L 1774.389538 189.709186 
L 1782.891315 187.681189 
L 1791.393093 195.69464 
L 1799.89487 184.514576 
L 1808.396648 190.652214 
L 1816.898426 192.901046 
L 1825.400203 186.066987 
L 1833.901981 190.191768 
L 1842.403758 197.401721 
L 1850.905536 199.152523 
L 1859.407313 198.958923 
L 1867.909091 203.674819 
L 1867.909091 203.674819 
" clip-path="url(#p8e74cccb8c)" style="fill: none; stroke: #e1ad01; stroke-width: 2.25; stroke-linecap: round"/>
   </g>
   <g id="patch_3">
    <path d="M 270 1025.28 
L 270 138.24 
" style="fill: none; stroke: #262626; stroke-width: 1.875; stroke-linejoin: miter; stroke-linecap: square"/>
   </g>
   <g id="patch_4">
    <path d="M 1944 1025.28 
L 1944 138.24 
" style="fill: none; stroke: #262626; stroke-width: 1.875; stroke-linejoin: miter; stroke-linecap: square"/>
   </g>
   <g id="patch_5">
    <path d="M 270 1025.28 
L 1944 1025.28 
" style="fill: none; stroke: #262626; stroke-width: 1.875; stroke-linejoin: miter; stroke-linecap: square"/>
   </g>
   <g id="patch_6">
    <path d="M 270 138.24 
L 1944 138.24 
" style="fill: none; stroke: #262626; stroke-width: 1.875; stroke-linejoin: miter; stroke-linecap: square"/>
   </g>
   <g id="text_13">
    <!-- I(Z) -->
    <g style="fill: #262626" transform="translate(1054.190625 125.761875) scale(0.6 -0.6)">
     <use xlink:href="#DejaVuSans-49"/>
     <use xlink:href="#DejaVuSans-28" x="29.492188"/>
     <use xlink:href="#DejaVuSans-5a" x="68.505859"/>
     <use xlink:href="#DejaVuSans-29" x="137.011719"/>
    </g>
   </g>
  </g>
 </g>
 <defs>
  <clipPath id="p8e74cccb8c">
   <rect x="270" y="138.24" width="1674" height="887.04"/>
  </clipPath>
 </defs>
</svg>
