<?xml version="1.0" encoding="utf-8" standalone="no"?>
<!DOCTYPE svg PUBLIC "-//W3C//DTD SVG 1.1//EN"
  "http://www.w3.org/Graphics/SVG/1.1/DTD/svg11.dtd">
<svg xmlns:xlink="http://www.w3.org/1999/xlink" width="2160pt" height="1152pt" viewBox="0 0 2160 1152" xmlns="http://www.w3.org/2000/svg" version="1.1">
 <metadata>
  <rdf:RDF xmlns:dc="http://purl.org/dc/elements/1.1/" xmlns:cc="http://creativecommons.org/ns#" xmlns:rdf="http://www.w3.org/1999/02/22-rdf-syntax-ns#">
   <cc:Work>
    <dc:type rdf:resource="http://purl.org/dc/dcmitype/StillImage"/>
    <dc:date>2023-01-01T20:39:09.123484</dc:date>
    <dc:format>image/svg+xml</dc:format>
    <dc:creator>
     <cc:Agent>
      <dc:title>Matplotlib v3.6.0, https://matplotlib.org/</dc:title>
     </cc:Agent>
    </dc:creator>
   </cc:Work>
  </rdf:RDF>
 </metadata>
 <defs>
  <style type="text/css">*{stroke-linejoin: round; stroke-linecap: butt}</style>
 </defs>
 <g id="figure_1">
  <g id="patch_1">
   <path d="M 0 1152 
L 2160 1152 
L 2160 0 
L 0 0 
z
" style="fill: #ffffff"/>
  </g>
  <g id="axes_1">
   <g id="patch_2">
    <path d="M 270 1025.28 
L 1944 1025.28 
L 1944 138.24 
L 270 138.24 
L 270 1025.28 
z
" style="fill: none"/>
   </g>
   <g id="matplotlib.axis_1">
    <g id="xtick_1">
     <g id="line2d_1">
      <defs>
       <path id="m5c6f344779" d="M 0 0 
L 0 9 
" style="stroke: #262626; stroke-width: 1.875"/>
      </defs>
      <g>
       <use xlink:href="#m5c6f344779" x="417.31282" y="1025.28" style="fill: #262626; stroke: #262626; stroke-width: 1.875"/>
      </g>
     </g>
     <g id="text_1">
      <!-- −0.4 -->
      <g style="fill: #262626" transform="translate(346.892664 1081.850938) scale(0.58 -0.58)">
       <defs>
        <path id="DejaVuSans-2212" d="M 678 2272 
L 4684 2272 
L 4684 1741 
L 678 1741 
L 678 2272 
z
" transform="scale(0.015625)"/>
        <path id="DejaVuSans-30" d="M 2034 4250 
Q 1547 4250 1301 3770 
Q 1056 3291 1056 2328 
Q 1056 1369 1301 889 
Q 1547 409 2034 409 
Q 2525 409 2770 889 
Q 3016 1369 3016 2328 
Q 3016 3291 2770 3770 
Q 2525 4250 2034 4250 
z
M 2034 4750 
Q 2819 4750 3233 4129 
Q 3647 3509 3647 2328 
Q 3647 1150 3233 529 
Q 2819 -91 2034 -91 
Q 1250 -91 836 529 
Q 422 1150 422 2328 
Q 422 3509 836 4129 
Q 1250 4750 2034 4750 
z
" transform="scale(0.015625)"/>
        <path id="DejaVuSans-2e" d="M 684 794 
L 1344 794 
L 1344 0 
L 684 0 
L 684 794 
z
" transform="scale(0.015625)"/>
        <path id="DejaVuSans-34" d="M 2419 4116 
L 825 1625 
L 2419 1625 
L 2419 4116 
z
M 2253 4666 
L 3047 4666 
L 3047 1625 
L 3713 1625 
L 3713 1100 
L 3047 1100 
L 3047 0 
L 2419 0 
L 2419 1100 
L 313 1100 
L 313 1709 
L 2253 4666 
z
" transform="scale(0.015625)"/>
       </defs>
       <use xlink:href="#DejaVuSans-2212"/>
       <use xlink:href="#DejaVuSans-30" x="83.789062"/>
       <use xlink:href="#DejaVuSans-2e" x="147.412109"/>
       <use xlink:href="#DejaVuSans-34" x="179.199219"/>
      </g>
     </g>
    </g>
    <g id="xtick_2">
     <g id="line2d_2">
      <g>
       <use xlink:href="#m5c6f344779" x="773.422375" y="1025.28" style="fill: #262626; stroke: #262626; stroke-width: 1.875"/>
      </g>
     </g>
     <g id="text_2">
      <!-- −0.2 -->
      <g style="fill: #262626" transform="translate(703.002219 1081.850938) scale(0.58 -0.58)">
       <defs>
        <path id="DejaVuSans-32" d="M 1228 531 
L 3431 531 
L 3431 0 
L 469 0 
L 469 531 
Q 828 903 1448 1529 
Q 2069 2156 2228 2338 
Q 2531 2678 2651 2914 
Q 2772 3150 2772 3378 
Q 2772 3750 2511 3984 
Q 2250 4219 1831 4219 
Q 1534 4219 1204 4116 
Q 875 4013 500 3803 
L 500 4441 
Q 881 4594 1212 4672 
Q 1544 4750 1819 4750 
Q 2544 4750 2975 4387 
Q 3406 4025 3406 3419 
Q 3406 3131 3298 2873 
Q 3191 2616 2906 2266 
Q 2828 2175 2409 1742 
Q 1991 1309 1228 531 
z
" transform="scale(0.015625)"/>
       </defs>
       <use xlink:href="#DejaVuSans-2212"/>
       <use xlink:href="#DejaVuSans-30" x="83.789062"/>
       <use xlink:href="#DejaVuSans-2e" x="147.412109"/>
       <use xlink:href="#DejaVuSans-32" x="179.199219"/>
      </g>
     </g>
    </g>
    <g id="xtick_3">
     <g id="line2d_3">
      <g>
       <use xlink:href="#m5c6f344779" x="1129.531931" y="1025.28" style="fill: #262626; stroke: #262626; stroke-width: 1.875"/>
      </g>
     </g>
     <g id="text_3">
      <!-- 0.0 -->
      <g style="fill: #262626" transform="translate(1083.412868 1081.850938) scale(0.58 -0.58)">
       <use xlink:href="#DejaVuSans-30"/>
       <use xlink:href="#DejaVuSans-2e" x="63.623047"/>
       <use xlink:href="#DejaVuSans-30" x="95.410156"/>
      </g>
     </g>
    </g>
    <g id="xtick_4">
     <g id="line2d_4">
      <g>
       <use xlink:href="#m5c6f344779" x="1485.641486" y="1025.28" style="fill: #262626; stroke: #262626; stroke-width: 1.875"/>
      </g>
     </g>
     <g id="text_4">
      <!-- 0.2 -->
      <g style="fill: #262626" transform="translate(1439.522423 1081.850938) scale(0.58 -0.58)">
       <use xlink:href="#DejaVuSans-30"/>
       <use xlink:href="#DejaVuSans-2e" x="63.623047"/>
       <use xlink:href="#DejaVuSans-32" x="95.410156"/>
      </g>
     </g>
    </g>
    <g id="xtick_5">
     <g id="line2d_5">
      <g>
       <use xlink:href="#m5c6f344779" x="1841.751041" y="1025.28" style="fill: #262626; stroke: #262626; stroke-width: 1.875"/>
      </g>
     </g>
     <g id="text_5">
      <!-- 0.4 -->
      <g style="fill: #262626" transform="translate(1795.631978 1081.850938) scale(0.58 -0.58)">
       <use xlink:href="#DejaVuSans-30"/>
       <use xlink:href="#DejaVuSans-2e" x="63.623047"/>
       <use xlink:href="#DejaVuSans-34" x="95.410156"/>
      </g>
     </g>
    </g>
    <g id="text_6">
     <!-- Z [nm] -->
     <g style="fill: #262626" transform="translate(1008.662812 1141.984062) scale(0.58 -0.58)">
      <defs>
       <path id="DejaVuSans-5a" d="M 359 4666 
L 4025 4666 
L 4025 4184 
L 1075 531 
L 4097 531 
L 4097 0 
L 288 0 
L 288 481 
L 3238 4134 
L 359 4134 
L 359 4666 
z
" transform="scale(0.015625)"/>
       <path id="DejaVuSans-20" transform="scale(0.015625)"/>
       <path id="DejaVuSans-5b" d="M 550 4863 
L 1875 4863 
L 1875 4416 
L 1125 4416 
L 1125 -397 
L 1875 -397 
L 1875 -844 
L 550 -844 
L 550 4863 
z
" transform="scale(0.015625)"/>
       <path id="DejaVuSans-6e" d="M 3513 2113 
L 3513 0 
L 2938 0 
L 2938 2094 
Q 2938 2591 2744 2837 
Q 2550 3084 2163 3084 
Q 1697 3084 1428 2787 
Q 1159 2491 1159 1978 
L 1159 0 
L 581 0 
L 581 3500 
L 1159 3500 
L 1159 2956 
Q 1366 3272 1645 3428 
Q 1925 3584 2291 3584 
Q 2894 3584 3203 3211 
Q 3513 2838 3513 2113 
z
" transform="scale(0.015625)"/>
       <path id="DejaVuSans-6d" d="M 3328 2828 
Q 3544 3216 3844 3400 
Q 4144 3584 4550 3584 
Q 5097 3584 5394 3201 
Q 5691 2819 5691 2113 
L 5691 0 
L 5113 0 
L 5113 2094 
Q 5113 2597 4934 2840 
Q 4756 3084 4391 3084 
Q 3944 3084 3684 2787 
Q 3425 2491 3425 1978 
L 3425 0 
L 2847 0 
L 2847 2094 
Q 2847 2600 2669 2842 
Q 2491 3084 2119 3084 
Q 1678 3084 1418 2786 
Q 1159 2488 1159 1978 
L 1159 0 
L 581 0 
L 581 3500 
L 1159 3500 
L 1159 2956 
Q 1356 3278 1631 3431 
Q 1906 3584 2284 3584 
Q 2666 3584 2933 3390 
Q 3200 3197 3328 2828 
z
" transform="scale(0.015625)"/>
       <path id="DejaVuSans-5d" d="M 1947 4863 
L 1947 -844 
L 622 -844 
L 622 -397 
L 1369 -397 
L 1369 4416 
L 622 4416 
L 622 4863 
L 1947 4863 
z
" transform="scale(0.015625)"/>
      </defs>
      <use xlink:href="#DejaVuSans-5a"/>
      <use xlink:href="#DejaVuSans-20" x="68.505859"/>
      <use xlink:href="#DejaVuSans-5b" x="100.292969"/>
      <use xlink:href="#DejaVuSans-6e" x="139.306641"/>
      <use xlink:href="#DejaVuSans-6d" x="202.685547"/>
      <use xlink:href="#DejaVuSans-5d" x="300.097656"/>
     </g>
    </g>
   </g>
   <g id="matplotlib.axis_2">
    <g id="ytick_1">
     <g id="line2d_6">
      <defs>
       <path id="m3fb367dd15" d="M 0 0 
L -9 0 
" style="stroke: #262626; stroke-width: 1.875"/>
      </defs>
      <g>
       <use xlink:href="#m3fb367dd15" x="270" y="906.804425" style="fill: #262626; stroke: #262626; stroke-width: 1.875"/>
      </g>
     </g>
     <g id="text_7">
      <!-- −100 -->
      <g style="fill: #262626" transform="translate(98.190313 928.839894) scale(0.58 -0.58)">
       <defs>
        <path id="DejaVuSans-31" d="M 794 531 
L 1825 531 
L 1825 4091 
L 703 3866 
L 703 4441 
L 1819 4666 
L 2450 4666 
L 2450 531 
L 3481 531 
L 3481 0 
L 794 0 
L 794 531 
z
" transform="scale(0.015625)"/>
       </defs>
       <use xlink:href="#DejaVuSans-2212"/>
       <use xlink:href="#DejaVuSans-31" x="83.789062"/>
       <use xlink:href="#DejaVuSans-30" x="147.412109"/>
       <use xlink:href="#DejaVuSans-30" x="211.035156"/>
      </g>
     </g>
    </g>
    <g id="ytick_2">
     <g id="line2d_7">
      <g>
       <use xlink:href="#m3fb367dd15" x="270" y="765.968485" style="fill: #262626; stroke: #262626; stroke-width: 1.875"/>
      </g>
     </g>
     <g id="text_8">
      <!-- −80 -->
      <g style="fill: #262626" transform="translate(135.092813 788.003954) scale(0.58 -0.58)">
       <defs>
        <path id="DejaVuSans-38" d="M 2034 2216 
Q 1584 2216 1326 1975 
Q 1069 1734 1069 1313 
Q 1069 891 1326 650 
Q 1584 409 2034 409 
Q 2484 409 2743 651 
Q 3003 894 3003 1313 
Q 3003 1734 2745 1975 
Q 2488 2216 2034 2216 
z
M 1403 2484 
Q 997 2584 770 2862 
Q 544 3141 544 3541 
Q 544 4100 942 4425 
Q 1341 4750 2034 4750 
Q 2731 4750 3128 4425 
Q 3525 4100 3525 3541 
Q 3525 3141 3298 2862 
Q 3072 2584 2669 2484 
Q 3125 2378 3379 2068 
Q 3634 1759 3634 1313 
Q 3634 634 3220 271 
Q 2806 -91 2034 -91 
Q 1263 -91 848 271 
Q 434 634 434 1313 
Q 434 1759 690 2068 
Q 947 2378 1403 2484 
z
M 1172 3481 
Q 1172 3119 1398 2916 
Q 1625 2713 2034 2713 
Q 2441 2713 2670 2916 
Q 2900 3119 2900 3481 
Q 2900 3844 2670 4047 
Q 2441 4250 2034 4250 
Q 1625 4250 1398 4047 
Q 1172 3844 1172 3481 
z
" transform="scale(0.015625)"/>
       </defs>
       <use xlink:href="#DejaVuSans-2212"/>
       <use xlink:href="#DejaVuSans-38" x="83.789062"/>
       <use xlink:href="#DejaVuSans-30" x="147.412109"/>
      </g>
     </g>
    </g>
    <g id="ytick_3">
     <g id="line2d_8">
      <g>
       <use xlink:href="#m3fb367dd15" x="270" y="625.132545" style="fill: #262626; stroke: #262626; stroke-width: 1.875"/>
      </g>
     </g>
     <g id="text_9">
      <!-- −60 -->
      <g style="fill: #262626" transform="translate(135.092813 647.168014) scale(0.58 -0.58)">
       <defs>
        <path id="DejaVuSans-36" d="M 2113 2584 
Q 1688 2584 1439 2293 
Q 1191 2003 1191 1497 
Q 1191 994 1439 701 
Q 1688 409 2113 409 
Q 2538 409 2786 701 
Q 3034 994 3034 1497 
Q 3034 2003 2786 2293 
Q 2538 2584 2113 2584 
z
M 3366 4563 
L 3366 3988 
Q 3128 4100 2886 4159 
Q 2644 4219 2406 4219 
Q 1781 4219 1451 3797 
Q 1122 3375 1075 2522 
Q 1259 2794 1537 2939 
Q 1816 3084 2150 3084 
Q 2853 3084 3261 2657 
Q 3669 2231 3669 1497 
Q 3669 778 3244 343 
Q 2819 -91 2113 -91 
Q 1303 -91 875 529 
Q 447 1150 447 2328 
Q 447 3434 972 4092 
Q 1497 4750 2381 4750 
Q 2619 4750 2861 4703 
Q 3103 4656 3366 4563 
z
" transform="scale(0.015625)"/>
       </defs>
       <use xlink:href="#DejaVuSans-2212"/>
       <use xlink:href="#DejaVuSans-36" x="83.789062"/>
       <use xlink:href="#DejaVuSans-30" x="147.412109"/>
      </g>
     </g>
    </g>
    <g id="ytick_4">
     <g id="line2d_9">
      <g>
       <use xlink:href="#m3fb367dd15" x="270" y="484.296605" style="fill: #262626; stroke: #262626; stroke-width: 1.875"/>
      </g>
     </g>
     <g id="text_10">
      <!-- −40 -->
      <g style="fill: #262626" transform="translate(135.092813 506.332074) scale(0.58 -0.58)">
       <use xlink:href="#DejaVuSans-2212"/>
       <use xlink:href="#DejaVuSans-34" x="83.789062"/>
       <use xlink:href="#DejaVuSans-30" x="147.412109"/>
      </g>
     </g>
    </g>
    <g id="ytick_5">
     <g id="line2d_10">
      <g>
       <use xlink:href="#m3fb367dd15" x="270" y="343.460666" style="fill: #262626; stroke: #262626; stroke-width: 1.875"/>
      </g>
     </g>
     <g id="text_11">
      <!-- −20 -->
      <g style="fill: #262626" transform="translate(135.092813 365.496134) scale(0.58 -0.58)">
       <use xlink:href="#DejaVuSans-2212"/>
       <use xlink:href="#DejaVuSans-32" x="83.789062"/>
       <use xlink:href="#DejaVuSans-30" x="147.412109"/>
      </g>
     </g>
    </g>
    <g id="ytick_6">
     <g id="line2d_11">
      <g>
       <use xlink:href="#m3fb367dd15" x="270" y="202.624726" style="fill: #262626; stroke: #262626; stroke-width: 1.875"/>
      </g>
     </g>
     <g id="text_12">
      <!-- 0 -->
      <g style="fill: #262626" transform="translate(220.5975 224.660194) scale(0.58 -0.58)">
       <use xlink:href="#DejaVuSans-30"/>
      </g>
     </g>
    </g>
    <g id="text_13">
     <!-- I(Z) [nA] -->
     <g style="fill: #262626" transform="translate(82.128125 702.87125) rotate(-90) scale(0.58 -0.58)">
      <defs>
       <path id="DejaVuSans-49" d="M 628 4666 
L 1259 4666 
L 1259 0 
L 628 0 
L 628 4666 
z
" transform="scale(0.015625)"/>
       <path id="DejaVuSans-28" d="M 1984 4856 
Q 1566 4138 1362 3434 
Q 1159 2731 1159 2009 
Q 1159 1288 1364 580 
Q 1569 -128 1984 -844 
L 1484 -844 
Q 1016 -109 783 600 
Q 550 1309 550 2009 
Q 550 2706 781 3412 
Q 1013 4119 1484 4856 
L 1984 4856 
z
" transform="scale(0.015625)"/>
       <path id="DejaVuSans-29" d="M 513 4856 
L 1013 4856 
Q 1481 4119 1714 3412 
Q 1947 2706 1947 2009 
Q 1947 1309 1714 600 
Q 1481 -109 1013 -844 
L 513 -844 
Q 928 -128 1133 580 
Q 1338 1288 1338 2009 
Q 1338 2731 1133 3434 
Q 928 4138 513 4856 
z
" transform="scale(0.015625)"/>
       <path id="DejaVuSans-41" d="M 2188 4044 
L 1331 1722 
L 3047 1722 
L 2188 4044 
z
M 1831 4666 
L 2547 4666 
L 4325 0 
L 3669 0 
L 3244 1197 
L 1141 1197 
L 716 0 
L 50 0 
L 1831 4666 
z
" transform="scale(0.015625)"/>
      </defs>
      <use xlink:href="#DejaVuSans-49"/>
      <use xlink:href="#DejaVuSans-28" x="29.492188"/>
      <use xlink:href="#DejaVuSans-5a" x="68.505859"/>
      <use xlink:href="#DejaVuSans-29" x="137.011719"/>
      <use xlink:href="#DejaVuSans-20" x="176.025391"/>
      <use xlink:href="#DejaVuSans-5b" x="207.8125"/>
      <use xlink:href="#DejaVuSans-6e" x="246.826172"/>
      <use xlink:href="#DejaVuSans-41" x="310.205078"/>
      <use xlink:href="#DejaVuSans-5d" x="378.613281"/>
     </g>
    </g>
   </g>
   <g id="PolyCollection_1"/>
   <g id="PolyCollection_2"/>
   <g id="PolyCollection_3"/>
   <g id="PolyCollection_4"/>
   <g id="PolyCollection_5"/>
   <g id="PolyCollection_6"/>
   <g id="PolyCollection_7"/>
   <g id="PolyCollection_8"/>
   <g id="PolyCollection_9"/>
   <g id="PolyCollection_10"/>
   <g id="PolyCollection_11"/>
   <g id="PolyCollection_12"/>
   <g id="PolyCollection_13"/>
   <g id="PolyCollection_14"/>
   <g id="PolyCollection_15"/>
   <g id="PolyCollection_16"/>
   <g id="PolyCollection_17"/>
   <g id="PolyCollection_18"/>
   <g id="PolyCollection_19"/>
   <g id="PolyCollection_20"/>
   <g id="PolyCollection_21"/>
   <g id="PolyCollection_22"/>
   <g id="PolyCollection_23"/>
   <g id="PolyCollection_24"/>
   <g id="PolyCollection_25"/>
   <g id="PolyCollection_26"/>
   <g id="PolyCollection_27"/>
   <g id="PolyCollection_28"/>
   <g id="PolyCollection_29"/>
   <g id="PolyCollection_30"/>
   <g id="PolyCollection_31"/>
   <g id="PolyCollection_32"/>
   <g id="PolyCollection_33"/>
   <g id="PolyCollection_34"/>
   <g id="PolyCollection_35"/>
   <g id="PolyCollection_36"/>
   <g id="line2d_12">
    <path d="M 346.090909 388.88675 
L 354.592687 366.268488 
L 363.094464 344.509392 
L 371.596242 332.229671 
L 380.098019 316.187354 
L 388.599797 306.891451 
L 397.101574 295.898763 
L 405.603352 288.923875 
L 422.606907 276.938735 
L 431.108685 270.509708 
L 439.610462 267.256256 
L 448.11224 260.797394 
L 456.614017 256.93976 
L 465.115795 252.358413 
L 473.617572 248.768517 
L 482.11935 245.029149 
L 490.621127 242.727387 
L 499.122905 239.9296 
L 507.624683 237.452396 
L 516.12646 235.157451 
L 524.628238 232.4443 
L 533.130015 230.105305 
L 541.631793 227.542726 
L 550.13357 225.84565 
L 558.635348 224.018602 
L 567.137125 221.930725 
L 575.638903 220.335931 
L 584.140681 218.998085 
L 601.144236 216.642349 
L 609.646013 215.538894 
L 618.147791 214.861159 
L 626.649568 214.034196 
L 635.151346 213.054671 
L 643.653123 212.479737 
L 660.656679 211.118117 
L 669.158456 210.429877 
L 677.660234 209.94701 
L 686.162011 209.301651 
L 703.165566 208.3269 
L 728.670899 207.299664 
L 745.674454 206.57929 
L 762.678009 205.858844 
L 779.681564 205.39954 
L 796.685119 205.003144 
L 830.69223 204.320084 
L 873.201117 203.721967 
L 907.208228 203.446313 
L 966.72067 203.145654 
L 1085.745556 202.944939 
L 1527.837989 202.882958 
L 1867.909091 202.88299 
L 1867.909091 202.88299 
" clip-path="url(#pd6fd7906e6)" style="fill: none; stroke: #013220; stroke-width: 2.25; stroke-linecap: round"/>
   </g>
   <g id="line2d_13">
    <path d="M 346.090909 409.341715 
L 354.592687 428.169708 
L 363.094464 464.847467 
L 371.596242 521.245956 
L 380.098019 615.865257 
L 388.599797 755.324846 
L 397.101574 913.949132 
L 405.603352 977.225088 
L 414.10513 981.936091 
L 422.606907 979.870026 
L 431.108685 983.83268 
L 439.610462 978.321812 
L 448.11224 983.440847 
L 456.614017 984.96 
L 465.115795 982.813005 
L 473.617572 984.07295 
L 482.11935 980.466588 
L 490.621127 983.695875 
L 499.122905 982.679531 
L 507.624683 981.388777 
L 516.12646 984.586106 
L 524.628238 983.273126 
L 550.13357 980.536454 
L 558.635348 983.024876 
L 567.137125 981.276264 
L 575.638903 983.666979 
L 584.140681 981.79989 
L 592.642458 981.72033 
L 601.144236 983.234135 
L 609.646013 981.185419 
L 618.147791 979.85275 
L 626.649568 977.874401 
L 635.151346 979.047519 
L 643.653123 979.908085 
L 652.154901 980.38656 
L 660.656679 978.755615 
L 669.158456 978.982825 
L 677.660234 981.309304 
L 686.162011 976.139736 
L 694.663789 977.366218 
L 703.165566 976.73012 
L 711.667344 979.619851 
L 720.169121 977.978384 
L 728.670899 974.383483 
L 737.172676 972.266226 
L 745.674454 973.210774 
L 754.176232 972.0195 
L 762.678009 967.362024 
L 771.179787 963.187942 
L 779.681564 963.171315 
L 788.183342 955.000507 
L 796.685119 941.293182 
L 805.186897 929.131393 
L 813.688674 913.23242 
L 822.190452 896.386919 
L 830.69223 866.244632 
L 839.194007 828.726779 
L 847.695785 793.141099 
L 856.197562 744.814934 
L 864.69934 694.385689 
L 873.201117 637.721802 
L 881.702895 583.800056 
L 890.204672 525.138211 
L 898.70645 457.281859 
L 907.208228 407.06319 
L 915.710005 363.184439 
L 924.211783 325.242077 
L 932.71356 293.713161 
L 941.215338 270.419598 
L 949.717115 252.707071 
L 958.218893 238.733587 
L 966.72067 228.526761 
L 975.222448 221.022431 
L 983.724225 215.762361 
L 992.226003 211.930621 
L 1000.727781 209.394592 
L 1009.229558 207.45298 
L 1017.731336 206.138895 
L 1026.233113 205.164269 
L 1034.734891 204.516905 
L 1043.236668 204.056747 
L 1060.240223 203.496904 
L 1077.243779 203.209533 
L 1111.250889 202.991124 
L 1170.763332 202.902426 
L 1867.909091 202.883521 
L 1867.909091 202.883521 
" clip-path="url(#pd6fd7906e6)" style="fill: none; stroke: #ff7600; stroke-width: 2.25; stroke-linecap: round"/>
   </g>
   <g id="line2d_14">
    <path d="M 346.090909 320.111233 
L 354.592687 309.023396 
L 363.094464 299.355001 
L 380.098019 285.968944 
L 388.599797 278.093246 
L 405.603352 266.160073 
L 414.10513 261.398775 
L 422.606907 256.371807 
L 431.108685 252.213225 
L 439.610462 250.209809 
L 456.614017 242.341924 
L 465.115795 239.973542 
L 473.617572 238.223939 
L 482.11935 235.369966 
L 490.621127 232.875747 
L 499.122905 230.918345 
L 507.624683 228.497531 
L 533.130015 223.501167 
L 541.631793 222.215017 
L 550.13357 220.404219 
L 558.635348 219.211637 
L 567.137125 218.142943 
L 584.140681 215.787668 
L 618.147791 212.176472 
L 626.649568 211.447333 
L 669.158456 208.440644 
L 694.663789 207.306805 
L 703.165566 206.9026 
L 737.172676 205.765034 
L 762.678009 204.942156 
L 779.681564 204.592154 
L 856.197562 203.572839 
L 907.208228 203.24456 
L 1077.243779 202.929037 
L 1867.909091 202.883549 
L 1867.909091 202.883549 
" clip-path="url(#pd6fd7906e6)" style="fill: none; stroke: #013724; stroke-width: 2.25; stroke-linecap: round"/>
   </g>
   <g id="line2d_15">
    <path d="M 346.090909 325.009075 
L 354.592687 322.780681 
L 371.596242 331.598962 
L 380.098019 345.039051 
L 388.599797 358.268747 
L 397.101574 379.290449 
L 405.603352 393.692512 
L 414.10513 414.643265 
L 422.606907 431.787905 
L 431.108685 457.041363 
L 439.610462 475.77087 
L 448.11224 504.369318 
L 456.614017 532.240091 
L 465.115795 579.193757 
L 473.617572 631.028288 
L 482.11935 709.63558 
L 490.621127 787.104253 
L 499.122905 881.038307 
L 507.624683 949.385957 
L 516.12646 983.181776 
L 524.628238 981.145644 
L 533.130015 982.802897 
L 541.631793 982.046364 
L 550.13357 983.855625 
L 558.635348 983.098015 
L 567.137125 980.949825 
L 575.638903 977.499746 
L 584.140681 983.993053 
L 592.642458 976.544616 
L 601.144236 980.840954 
L 609.646013 980.927205 
L 618.147791 978.359802 
L 626.649568 975.618946 
L 635.151346 982.251038 
L 643.653123 976.257993 
L 652.154901 977.388761 
L 660.656679 974.263882 
L 669.158456 978.977874 
L 677.660234 978.3934 
L 686.162011 976.424353 
L 694.663789 971.196181 
L 703.165566 972.450482 
L 711.667344 973.192308 
L 720.169121 966.689916 
L 728.670899 969.9262 
L 737.172676 968.434644 
L 745.674454 961.917762 
L 754.176232 956.431483 
L 762.678009 942.888142 
L 771.179787 932.609994 
L 779.681564 916.56269 
L 788.183342 899.128586 
L 796.685119 876.9358 
L 805.186897 835.17651 
L 813.688674 797.180359 
L 822.190452 753.246693 
L 830.69223 700.669452 
L 839.194007 651.017407 
L 847.695785 589.280941 
L 856.197562 530.381469 
L 864.69934 469.003802 
L 873.201117 413.682391 
L 881.702895 366.245272 
L 890.204672 325.531613 
L 898.70645 294.202543 
L 907.208228 269.769383 
L 915.710005 252.042786 
L 924.211783 239.041067 
L 932.71356 228.761652 
L 941.215338 221.455842 
L 949.717115 216.06677 
L 958.218893 212.401499 
L 966.72067 209.733597 
L 975.222448 207.946398 
L 983.724225 206.547108 
L 992.226003 205.514894 
L 1000.727781 204.78704 
L 1009.229558 204.237175 
L 1026.233113 203.62844 
L 1043.236668 203.273785 
L 1068.742001 203.048425 
L 1111.250889 202.934086 
L 1230.275775 202.891321 
L 1595.852209 202.884527 
L 1867.909091 202.886217 
L 1867.909091 202.886217 
" clip-path="url(#pd6fd7906e6)" style="fill: none; stroke: #fd7a00; stroke-width: 2.25; stroke-linecap: round"/>
   </g>
   <g id="line2d_16">
    <path d="M 346.090909 299.907053 
L 354.592687 291.460123 
L 363.094464 283.605583 
L 371.596242 279.02462 
L 380.098019 273.946761 
L 388.599797 269.300751 
L 397.101574 263.506735 
L 405.603352 259.246326 
L 414.10513 253.806481 
L 422.606907 250.479642 
L 431.108685 247.316183 
L 448.11224 243.374846 
L 456.614017 240.261996 
L 465.115795 238.274986 
L 473.617572 235.894294 
L 482.11935 233.909142 
L 490.621127 231.29488 
L 499.122905 229.103876 
L 507.624683 227.47093 
L 516.12646 225.995043 
L 524.628238 224.887138 
L 533.130015 223.334194 
L 550.13357 219.780231 
L 558.635348 218.560043 
L 575.638903 216.312482 
L 584.140681 215.761978 
L 592.642458 214.810545 
L 609.646013 212.758988 
L 626.649568 211.219945 
L 643.653123 209.899944 
L 660.656679 208.681423 
L 677.660234 207.765254 
L 686.162011 207.219211 
L 711.667344 206.074701 
L 745.674454 205.06609 
L 813.688674 203.946989 
L 847.695785 203.571496 
L 890.204672 203.26915 
L 975.222448 203.030643 
L 1068.742001 202.931759 
L 1867.909091 202.883674 
L 1867.909091 202.883674 
" clip-path="url(#pd6fd7906e6)" style="fill: none; stroke: #013b28; stroke-width: 2.25; stroke-linecap: round"/>
   </g>
   <g id="line2d_17">
    <path d="M 346.090909 303.6924 
L 354.592687 299.243029 
L 363.094464 301.026221 
L 371.596242 304.588218 
L 388.599797 317.180632 
L 397.101574 324.78091 
L 405.603352 333.76661 
L 414.10513 343.299132 
L 422.606907 352.596605 
L 431.108685 362.97264 
L 439.610462 369.55856 
L 448.11224 378.032172 
L 456.614017 383.659142 
L 465.115795 390.693929 
L 473.617572 393.291336 
L 482.11935 399.95696 
L 490.621127 402.880185 
L 499.122905 401.921719 
L 507.624683 401.106217 
L 516.12646 397.97517 
L 524.628238 391.306031 
L 533.130015 385.659317 
L 541.631793 379.126329 
L 550.13357 370.791687 
L 558.635348 360.406846 
L 567.137125 351.736004 
L 575.638903 341.889135 
L 584.140681 329.458021 
L 592.642458 318.335314 
L 601.144236 306.999324 
L 609.646013 296.256137 
L 618.147791 286.985247 
L 626.649568 277.052938 
L 635.151346 268.682913 
L 643.653123 259.634985 
L 652.154901 252.731192 
L 660.656679 246.720477 
L 669.158456 240.419915 
L 677.660234 234.980257 
L 686.162011 230.833046 
L 694.663789 227.05439 
L 703.165566 223.737664 
L 711.667344 220.606228 
L 720.169121 217.942074 
L 728.670899 215.40436 
L 737.172676 213.467735 
L 745.674454 211.751708 
L 754.176232 210.29565 
L 762.678009 209.102792 
L 771.179787 208.049573 
L 788.183342 206.523032 
L 805.186897 205.504537 
L 830.69223 204.478175 
L 856.197562 203.850951 
L 881.702895 203.461079 
L 907.208228 203.213306 
L 958.218893 203.022519 
L 1060.240223 202.918522 
L 1272.784662 202.888693 
L 1867.909091 202.88468 
L 1867.909091 202.88468 
" clip-path="url(#pd6fd7906e6)" style="fill: none; stroke: #fb7d00; stroke-width: 2.25; stroke-linecap: round"/>
   </g>
   <g id="line2d_18">
    <path d="M 346.090909 343.683295 
L 354.592687 323.201739 
L 363.094464 314.076425 
L 371.596242 302.201828 
L 380.098019 296.305096 
L 388.599797 286.174809 
L 397.101574 281.645747 
L 405.603352 273.0751 
L 414.10513 269.589543 
L 422.606907 261.686418 
L 431.108685 257.608537 
L 439.610462 253.715862 
L 448.11224 249.282962 
L 456.614017 246.533702 
L 465.115795 242.338155 
L 473.617572 240.887006 
L 482.11935 238.534724 
L 490.621127 236.529513 
L 499.122905 234.841525 
L 516.12646 229.927891 
L 524.628238 227.693017 
L 533.130015 226.142973 
L 550.13357 222.192231 
L 558.635348 221.064853 
L 567.137125 219.20752 
L 575.638903 218.786624 
L 584.140681 217.356189 
L 601.144236 214.981373 
L 609.646013 213.896372 
L 626.649568 212.273665 
L 652.154901 210.456482 
L 660.656679 210.062584 
L 694.663789 207.882659 
L 703.165566 207.555944 
L 711.667344 207.097613 
L 737.172676 206.146997 
L 788.183342 204.675271 
L 830.69223 203.919478 
L 898.70645 203.362542 
L 1026.233113 202.98382 
L 1340.798883 202.886398 
L 1833.901981 202.881645 
L 1867.909091 202.885036 
L 1867.909091 202.885036 
" clip-path="url(#pd6fd7906e6)" style="fill: none; stroke: #01402d; stroke-width: 2.25; stroke-linecap: round"/>
   </g>
   <g id="line2d_19">
    <path d="M 346.090909 344.986426 
L 354.592687 354.621077 
L 363.094464 358.76469 
L 371.596242 382.003418 
L 380.098019 396.708831 
L 388.599797 431.88343 
L 397.101574 450.327701 
L 405.603352 504.274971 
L 414.10513 546.349281 
L 422.606907 626.504399 
L 431.108685 728.024854 
L 439.610462 872.531475 
L 448.11224 952.668788 
L 456.614017 983.900585 
L 465.115795 973.496695 
L 473.617572 983.102401 
L 482.11935 979.5398 
L 490.621127 981.742215 
L 499.122905 979.324621 
L 507.624683 983.201903 
L 516.12646 981.483923 
L 524.628238 981.832199 
L 533.130015 981.383714 
L 541.631793 978.954109 
L 550.13357 978.879175 
L 558.635348 978.603909 
L 567.137125 976.296605 
L 575.638903 975.260951 
L 584.140681 978.94689 
L 592.642458 980.119414 
L 601.144236 982.930852 
L 609.646013 977.205643 
L 618.147791 981.389017 
L 626.649568 977.601817 
L 635.151346 980.078304 
L 643.653123 972.666441 
L 652.154901 976.99673 
L 660.656679 976.436995 
L 669.158456 974.683448 
L 677.660234 971.315867 
L 686.162011 974.271194 
L 694.663789 971.785642 
L 703.165566 969.807261 
L 711.667344 974.954584 
L 720.169121 973.843013 
L 728.670899 971.806232 
L 737.172676 968.1501 
L 745.674454 966.371186 
L 754.176232 958.686132 
L 762.678009 953.364396 
L 771.179787 946.209441 
L 779.681564 930.573389 
L 788.183342 920.806093 
L 796.685119 895.335976 
L 805.186897 874.110493 
L 813.688674 833.925441 
L 822.190452 800.63905 
L 830.69223 746.417163 
L 839.194007 709.735762 
L 847.695785 658.105035 
L 856.197562 598.121057 
L 864.69934 543.281612 
L 873.201117 478.952954 
L 890.204672 377.572191 
L 898.70645 336.894294 
L 907.208228 302.714299 
L 915.710005 274.470395 
L 924.211783 255.589205 
L 932.71356 241.721462 
L 941.215338 230.981308 
L 949.717115 223.263322 
L 958.218893 217.808294 
L 966.72067 213.559706 
L 975.222448 210.71044 
L 983.724225 208.273491 
L 992.226003 206.785989 
L 1000.727781 205.660026 
L 1009.229558 204.889521 
L 1017.731336 204.348115 
L 1034.734891 203.644842 
L 1051.738446 203.286847 
L 1077.243779 203.047798 
L 1128.254444 202.919257 
L 1544.841544 202.885104 
L 1867.909091 202.881006 
L 1867.909091 202.881006 
" clip-path="url(#pd6fd7906e6)" style="fill: none; stroke: #fa8100; stroke-width: 2.25; stroke-linecap: round"/>
   </g>
   <g id="line2d_20">
    <path d="M 346.090909 296.522372 
L 354.592687 288.495228 
L 363.094464 279.851627 
L 371.596242 273.061606 
L 380.098019 268.021914 
L 388.599797 263.169511 
L 397.101574 259.201239 
L 405.603352 254.340653 
L 414.10513 249.047619 
L 431.108685 243.134525 
L 439.610462 239.726477 
L 448.11224 237.217645 
L 456.614017 235.48242 
L 465.115795 233.866342 
L 473.617572 232.065571 
L 482.11935 229.624012 
L 499.122905 227.343214 
L 507.624683 225.247888 
L 516.12646 223.518517 
L 524.628238 221.670201 
L 533.130015 220.456109 
L 550.13357 217.791968 
L 567.137125 215.526369 
L 575.638903 214.59637 
L 584.140681 214.003758 
L 609.646013 211.296497 
L 626.649568 209.722975 
L 660.656679 207.734662 
L 677.660234 206.840562 
L 728.670899 205.197656 
L 762.678009 204.424648 
L 796.685119 203.95662 
L 847.695785 203.490705 
L 924.211783 203.118192 
L 1026.233113 202.962075 
L 1170.763332 202.896425 
L 1867.909091 202.88422 
L 1867.909091 202.88422 
" clip-path="url(#pd6fd7906e6)" style="fill: none; stroke: #014431; stroke-width: 2.25; stroke-linecap: round"/>
   </g>
   <g id="line2d_21">
    <path d="M 346.090909 296.602193 
L 354.592687 294.502161 
L 363.094464 295.821102 
L 371.596242 298.680264 
L 380.098019 302.193572 
L 388.599797 307.386856 
L 397.101574 313.52076 
L 405.603352 317.461363 
L 414.10513 320.172393 
L 422.606907 326.928018 
L 431.108685 333.12291 
L 439.610462 337.62616 
L 448.11224 339.933306 
L 456.614017 343.706209 
L 465.115795 346.612184 
L 473.617572 346.74629 
L 482.11935 345.387523 
L 490.621127 344.178074 
L 499.122905 342.756611 
L 507.624683 338.819094 
L 516.12646 333.352261 
L 524.628238 327.120748 
L 533.130015 319.490672 
L 541.631793 312.81601 
L 558.635348 298.721708 
L 567.137125 292.344729 
L 584.140681 277.566812 
L 592.642458 269.584957 
L 601.144236 262.54247 
L 609.646013 255.981877 
L 618.147791 250.199312 
L 626.649568 244.806621 
L 635.151346 239.808277 
L 643.653123 235.773828 
L 652.154901 231.524046 
L 660.656679 227.50407 
L 669.158456 224.10111 
L 677.660234 221.195788 
L 686.162011 218.437218 
L 703.165566 214.264156 
L 711.667344 212.569103 
L 720.169121 211.104632 
L 728.670899 209.85442 
L 745.674454 208.156545 
L 762.678009 206.794379 
L 779.681564 205.806125 
L 788.183342 205.33976 
L 805.186897 204.739357 
L 822.190452 204.230258 
L 847.695785 203.741003 
L 881.702895 203.331067 
L 915.710005 203.12509 
L 966.72067 202.982054 
L 1085.745556 202.908553 
L 1485.329101 202.883602 
L 1672.368207 202.886645 
L 1867.909091 202.882746 
L 1867.909091 202.882746 
" clip-path="url(#pd6fd7906e6)" style="fill: none; stroke: #f88500; stroke-width: 2.25; stroke-linecap: round"/>
   </g>
   <g id="line2d_22">
    <path d="M 346.090909 281.759969 
L 354.592687 275.575622 
L 363.094464 270.938615 
L 371.596242 264.861348 
L 380.098019 261.451306 
L 388.599797 256.569214 
L 397.101574 253.018772 
L 405.603352 248.563666 
L 414.10513 245.26565 
L 431.108685 240.323642 
L 439.610462 237.105276 
L 448.11224 235.346791 
L 456.614017 233.348474 
L 465.115795 232.046137 
L 473.617572 230.533059 
L 482.11935 229.519479 
L 490.621127 227.588345 
L 499.122905 225.81858 
L 507.624683 224.210057 
L 516.12646 222.731289 
L 524.628238 220.855354 
L 533.130015 219.40036 
L 558.635348 216.156601 
L 584.140681 213.665786 
L 592.642458 212.614117 
L 601.144236 211.723421 
L 609.646013 211.072869 
L 626.649568 209.575452 
L 643.653123 208.668786 
L 660.656679 207.600002 
L 677.660234 206.69238 
L 686.162011 206.31223 
L 703.165566 205.769578 
L 728.670899 204.950902 
L 754.176232 204.330381 
L 788.183342 203.849071 
L 873.201117 203.247833 
L 941.215338 203.044318 
L 1068.742001 202.919766 
L 1782.891315 202.882484 
L 1867.909091 202.884419 
L 1867.909091 202.884419 
" clip-path="url(#pd6fd7906e6)" style="fill: none; stroke: #014936; stroke-width: 2.25; stroke-linecap: round"/>
   </g>
   <g id="line2d_23">
    <path d="M 346.090909 282.463922 
L 354.592687 279.790075 
L 363.094464 278.8015 
L 371.596242 280.107564 
L 380.098019 283.905097 
L 388.599797 287.134505 
L 397.101574 289.364807 
L 405.603352 292.991886 
L 414.10513 296.936455 
L 422.606907 298.6915 
L 431.108685 299.536789 
L 439.610462 302.370023 
L 448.11224 303.54692 
L 456.614017 304.227828 
L 473.617572 300.911138 
L 482.11935 298.572358 
L 490.621127 295.089182 
L 499.122905 292.086802 
L 507.624683 288.550459 
L 516.12646 284.636103 
L 524.628238 279.809407 
L 533.130015 276.63698 
L 541.631793 271.73514 
L 550.13357 266.162656 
L 558.635348 261.059707 
L 567.137125 257.652893 
L 584.140681 248.23714 
L 592.642458 244.194314 
L 601.144236 240.446025 
L 609.646013 236.167888 
L 618.147791 232.692966 
L 626.649568 229.380978 
L 643.653123 223.272241 
L 652.154901 220.793315 
L 669.158456 217.121397 
L 677.660234 215.189622 
L 686.162011 213.58582 
L 694.663789 212.167662 
L 703.165566 211.107152 
L 711.667344 209.877613 
L 720.169121 209.107617 
L 728.670899 208.222664 
L 745.674454 206.703053 
L 762.678009 205.629531 
L 779.681564 204.918305 
L 796.685119 204.361104 
L 813.688674 203.979871 
L 847.695785 203.448919 
L 890.204672 203.153079 
L 966.72067 202.973564 
L 1247.27933 202.891164 
L 1867.909091 202.883625 
L 1867.909091 202.883625 
" clip-path="url(#pd6fd7906e6)" style="fill: none; stroke: #f68800; stroke-width: 2.25; stroke-linecap: round"/>
   </g>
   <g id="line2d_24">
    <path d="M 346.090909 263.744949 
L 354.592687 260.278269 
L 371.596242 252.413053 
L 388.599797 245.354755 
L 397.101574 242.823448 
L 405.603352 239.598061 
L 414.10513 236.969137 
L 431.108685 233.19118 
L 448.11224 228.8387 
L 456.614017 227.311929 
L 465.115795 225.214083 
L 473.617572 223.418136 
L 482.11935 222.131472 
L 490.621127 221.043604 
L 499.122905 219.564407 
L 507.624683 217.917015 
L 516.12646 216.755507 
L 524.628238 215.859617 
L 533.130015 214.756585 
L 541.631793 214.005427 
L 567.137125 211.25353 
L 592.642458 209.658177 
L 609.646013 208.769852 
L 635.151346 207.386072 
L 669.158456 206.004605 
L 686.162011 205.489617 
L 737.172676 204.309263 
L 779.681564 203.738387 
L 805.186897 203.458906 
L 856.197562 203.20621 
L 932.71356 203.02402 
L 1043.236668 202.920272 
L 1867.909091 202.883399 
L 1867.909091 202.883399 
" clip-path="url(#pd6fd7906e6)" style="fill: none; stroke: #014d3b; stroke-width: 2.25; stroke-linecap: round"/>
   </g>
   <g id="line2d_25">
    <path d="M 346.090909 264.554102 
L 354.592687 259.484739 
L 363.094464 258.408556 
L 371.596242 255.904806 
L 380.098019 255.896055 
L 388.599797 255.310908 
L 397.101574 256.220338 
L 405.603352 256.378079 
L 414.10513 256.701024 
L 422.606907 255.695316 
L 431.108685 255.522495 
L 439.610462 255.214212 
L 448.11224 255.288551 
L 456.614017 253.750029 
L 465.115795 252.95721 
L 473.617572 252.626434 
L 490.621127 249.612192 
L 499.122905 247.097004 
L 507.624683 245.078654 
L 516.12646 242.218554 
L 533.130015 237.676887 
L 541.631793 234.835529 
L 550.13357 231.66201 
L 567.137125 227.629107 
L 575.638903 225.979989 
L 584.140681 223.965679 
L 601.144236 220.179188 
L 609.646013 218.10554 
L 618.147791 216.267324 
L 643.653123 212.28077 
L 660.656679 210.440341 
L 669.158456 209.366986 
L 677.660234 208.48435 
L 686.162011 207.801354 
L 711.667344 206.213247 
L 737.172676 205.105458 
L 762.678009 204.305301 
L 788.183342 203.836735 
L 822.190452 203.421556 
L 873.201117 203.136529 
L 949.717115 202.964546 
L 1085.745556 202.90207 
L 1867.909091 202.881948 
L 1867.909091 202.881948 
" clip-path="url(#pd6fd7906e6)" style="fill: none; stroke: #f48c00; stroke-width: 2.25; stroke-linecap: round"/>
   </g>
   <g id="line2d_26">
    <path d="M 346.090909 269.130016 
L 354.592687 264.928067 
L 363.094464 259.680228 
L 380.098019 253.463302 
L 388.599797 249.842228 
L 397.101574 247.167595 
L 405.603352 243.473391 
L 414.10513 241.738347 
L 422.606907 238.579531 
L 431.108685 236.037651 
L 439.610462 233.708502 
L 448.11224 230.871704 
L 456.614017 229.331469 
L 473.617572 225.950449 
L 482.11935 224.487821 
L 490.621127 222.795834 
L 499.122905 221.806065 
L 507.624683 220.088135 
L 516.12646 219.012097 
L 524.628238 217.741471 
L 533.130015 216.32155 
L 558.635348 213.484804 
L 575.638903 212.038552 
L 584.140681 211.645069 
L 601.144236 210.118721 
L 618.147791 209.333121 
L 626.649568 208.785601 
L 635.151346 208.376386 
L 643.653123 207.825651 
L 652.154901 207.533125 
L 660.656679 207.04644 
L 686.162011 206.089628 
L 737.172676 204.649148 
L 771.179787 204.039074 
L 805.186897 203.595013 
L 864.69934 203.220146 
L 983.724225 202.968348 
L 1357.802438 202.8817 
L 1663.86643 202.882183 
L 1867.909091 202.882024 
L 1867.909091 202.882024 
" clip-path="url(#pd6fd7906e6)" style="fill: none; stroke: #015240; stroke-width: 2.25; stroke-linecap: round"/>
   </g>
   <g id="line2d_27">
    <path d="M 346.090909 270.292522 
L 354.592687 264.644924 
L 363.094464 262.878716 
L 371.596242 262.171796 
L 380.098019 261.938388 
L 397.101574 263.746324 
L 405.603352 266.080414 
L 414.10513 267.092289 
L 422.606907 269.484811 
L 431.108685 270.908804 
L 439.610462 272.596034 
L 448.11224 273.429183 
L 456.614017 272.837151 
L 465.115795 274.15067 
L 490.621127 269.012378 
L 507.624683 263.00022 
L 516.12646 258.857496 
L 524.628238 255.506467 
L 541.631793 246.943538 
L 550.13357 244.743603 
L 558.635348 240.380731 
L 567.137125 237.631079 
L 575.638903 234.16728 
L 584.140681 232.125743 
L 592.642458 229.741286 
L 601.144236 227.148905 
L 609.646013 224.408496 
L 618.147791 222.086417 
L 626.649568 219.902362 
L 635.151346 218.214473 
L 643.653123 216.127092 
L 652.154901 214.375433 
L 660.656679 213.233822 
L 669.158456 211.517092 
L 686.162011 209.558554 
L 694.663789 208.648209 
L 720.169121 206.655175 
L 737.172676 205.74845 
L 762.678009 204.750001 
L 822.190452 203.646064 
L 856.197562 203.320008 
L 915.710005 203.047632 
L 1043.236668 202.914595 
L 1459.823768 202.880532 
L 1867.909091 202.883174 
L 1867.909091 202.883174 
" clip-path="url(#pd6fd7906e6)" style="fill: none; stroke: #f38f00; stroke-width: 2.25; stroke-linecap: round"/>
   </g>
   <g id="line2d_28">
    <path d="M 346.090909 276.577155 
L 354.592687 269.508094 
L 363.094464 265.261612 
L 371.596242 260.665016 
L 380.098019 256.221998 
L 388.599797 252.372084 
L 405.603352 245.099164 
L 414.10513 240.940538 
L 422.606907 239.442572 
L 431.108685 237.166625 
L 456.614017 231.144494 
L 465.115795 230.11136 
L 473.617572 228.440912 
L 482.11935 227.044183 
L 490.621127 225.220057 
L 499.122905 223.582273 
L 524.628238 219.344516 
L 533.130015 218.624417 
L 541.631793 216.980908 
L 550.13357 216.124706 
L 567.137125 213.853026 
L 575.638903 213.041099 
L 584.140681 212.056226 
L 592.642458 211.251239 
L 618.147791 209.295001 
L 626.649568 208.855814 
L 635.151346 208.1693 
L 652.154901 207.312251 
L 660.656679 206.919679 
L 669.158456 206.669675 
L 677.660234 206.263527 
L 771.179787 204.155023 
L 796.685119 203.821735 
L 839.194007 203.453094 
L 898.70645 203.153058 
L 983.724225 202.987085 
L 1204.770442 202.893157 
L 1536.339766 202.884089 
L 1774.389538 202.886154 
L 1867.909091 202.884707 
L 1867.909091 202.884707 
" clip-path="url(#pd6fd7906e6)" style="fill: none; stroke: #015646; stroke-width: 2.25; stroke-linecap: round"/>
   </g>
   <g id="line2d_29">
    <path d="M 346.090909 275.35436 
L 354.592687 271.190004 
L 363.094464 270.746745 
L 371.596242 270.037815 
L 380.098019 271.692402 
L 388.599797 272.176442 
L 397.101574 275.879973 
L 405.603352 277.56494 
L 414.10513 280.573249 
L 422.606907 283.196681 
L 431.108685 284.885151 
L 439.610462 286.139005 
L 448.11224 286.775036 
L 456.614017 288.888846 
L 465.115795 288.436508 
L 473.617572 286.222339 
L 482.11935 285.83579 
L 490.621127 282.20555 
L 499.122905 279.45478 
L 507.624683 273.546777 
L 516.12646 269.969266 
L 524.628238 268.278045 
L 533.130015 263.407238 
L 550.13357 255.105923 
L 558.635348 249.613973 
L 567.137125 246.325412 
L 575.638903 241.822447 
L 584.140681 238.679677 
L 592.642458 235.772674 
L 601.144236 232.66476 
L 609.646013 229.735295 
L 618.147791 226.667075 
L 626.649568 224.58166 
L 635.151346 221.943903 
L 643.653123 219.523901 
L 652.154901 218.027247 
L 669.158456 214.450918 
L 686.162011 211.935913 
L 694.663789 210.77399 
L 711.667344 208.752529 
L 728.670899 207.321508 
L 737.172676 206.596927 
L 762.678009 205.295367 
L 805.186897 204.064237 
L 839.194007 203.521937 
L 881.702895 203.186322 
L 941.215338 203.002663 
L 1060.240223 202.913404 
L 1867.909091 202.883202 
L 1867.909091 202.883202 
" clip-path="url(#pd6fd7906e6)" style="fill: none; stroke: #f19201; stroke-width: 2.25; stroke-linecap: round"/>
   </g>
   <g id="line2d_30">
    <path d="M 346.090909 263.333661 
L 354.592687 258.758756 
L 363.094464 255.839872 
L 371.596242 251.409393 
L 388.599797 246.804713 
L 397.101574 243.980028 
L 405.603352 240.332163 
L 414.10513 237.670485 
L 422.606907 235.688984 
L 431.108685 232.139606 
L 439.610462 231.260962 
L 448.11224 229.300066 
L 456.614017 227.525175 
L 465.115795 225.908919 
L 473.617572 224.575149 
L 482.11935 223.523305 
L 499.122905 220.294028 
L 516.12646 217.630405 
L 524.628238 216.561062 
L 533.130015 215.652697 
L 541.631793 214.571149 
L 550.13357 213.720282 
L 558.635348 212.460359 
L 575.638903 211.360006 
L 584.140681 210.551786 
L 618.147791 208.434504 
L 643.653123 206.980668 
L 686.162011 205.373101 
L 720.169121 204.503208 
L 788.183342 203.58636 
L 847.695785 203.23823 
L 983.724225 202.958162 
L 1162.261554 202.890163 
L 1553.343321 202.883472 
L 1867.909091 202.884419 
L 1867.909091 202.884419 
" clip-path="url(#pd6fd7906e6)" style="fill: none; stroke: #015b4b; stroke-width: 2.25; stroke-linecap: round"/>
   </g>
   <g id="line2d_31">
    <path d="M 346.090909 262.437938 
L 354.592687 258.280912 
L 363.094464 255.458463 
L 371.596242 253.590126 
L 380.098019 252.636398 
L 388.599797 252.733685 
L 397.101574 253.36362 
L 405.603352 253.843299 
L 414.10513 255.73759 
L 422.606907 256.316319 
L 431.108685 254.647132 
L 439.610462 255.578943 
L 448.11224 254.11375 
L 456.614017 254.05645 
L 465.115795 253.102082 
L 473.617572 251.30518 
L 482.11935 250.269327 
L 490.621127 248.605429 
L 499.122905 247.258029 
L 507.624683 244.955302 
L 516.12646 242.432313 
L 524.628238 240.265918 
L 533.130015 237.229508 
L 541.631793 235.864091 
L 550.13357 233.18251 
L 558.635348 230.345757 
L 567.137125 228.272148 
L 575.638903 225.783489 
L 584.140681 224.348761 
L 592.642458 222.643226 
L 601.144236 220.597905 
L 609.646013 219.155851 
L 618.147791 217.219856 
L 626.649568 215.941237 
L 635.151346 214.410542 
L 643.653123 213.081556 
L 652.154901 212.160376 
L 660.656679 211.053359 
L 669.158456 210.060961 
L 694.663789 207.732543 
L 720.169121 206.110458 
L 745.674454 204.966948 
L 788.183342 203.87623 
L 813.688674 203.514024 
L 873.201117 203.125559 
L 941.215338 202.974104 
L 1128.254444 202.894212 
L 1731.88065 202.883792 
L 1867.909091 202.88597 
L 1867.909091 202.88597 
" clip-path="url(#pd6fd7906e6)" style="fill: none; stroke: #ef9501; stroke-width: 2.25; stroke-linecap: round"/>
   </g>
   <g id="line2d_32">
    <path d="M 346.090909 247.753282 
L 354.592687 244.760195 
L 363.094464 242.87499 
L 371.596242 240.484822 
L 380.098019 238.872864 
L 388.599797 236.863441 
L 397.101574 235.516515 
L 405.603352 233.490009 
L 414.10513 231.03075 
L 431.108685 227.637719 
L 439.610462 225.119631 
L 456.614017 221.709584 
L 473.617572 218.986498 
L 490.621127 217.040981 
L 499.122905 215.567785 
L 507.624683 214.622651 
L 516.12646 213.532456 
L 541.631793 211.13011 
L 550.13357 210.57166 
L 558.635348 209.762408 
L 567.137125 209.093997 
L 575.638903 208.656793 
L 584.140681 208.04028 
L 609.646013 206.86636 
L 618.147791 206.625954 
L 635.151346 205.853308 
L 660.656679 205.120125 
L 686.162011 204.590603 
L 703.165566 204.21272 
L 737.172676 203.779831 
L 779.681564 203.436241 
L 847.695785 203.146556 
L 1017.731336 202.9207 
L 1255.781107 202.88238 
L 1442.820213 202.88367 
L 1867.909091 202.885848 
L 1867.909091 202.885848 
" clip-path="url(#pd6fd7906e6)" style="fill: none; stroke: #016051; stroke-width: 2.25; stroke-linecap: round"/>
   </g>
   <g id="line2d_33">
    <path d="M 346.090909 246.107482 
L 354.592687 243.044853 
L 363.094464 240.190741 
L 371.596242 238.184227 
L 380.098019 238.113778 
L 388.599797 237.264693 
L 397.101574 236.953754 
L 405.603352 235.68397 
L 414.10513 235.307016 
L 422.606907 234.415851 
L 431.108685 233.905138 
L 439.610462 233.180765 
L 448.11224 232.716483 
L 456.614017 231.729194 
L 465.115795 230.570634 
L 482.11935 229.4384 
L 490.621127 228.150794 
L 507.624683 225.207563 
L 524.628238 222.351255 
L 533.130015 220.796805 
L 550.13357 218.101464 
L 558.635348 217.159964 
L 567.137125 216.001373 
L 575.638903 214.699813 
L 592.642458 212.904834 
L 601.144236 211.854374 
L 609.646013 211.170007 
L 618.147791 210.1129 
L 635.151346 209.018643 
L 643.653123 208.320462 
L 686.162011 205.891988 
L 720.169121 204.65697 
L 745.674454 204.093178 
L 779.681564 203.580657 
L 822.190452 203.238907 
L 864.69934 203.059259 
L 983.724225 202.922449 
L 1238.777552 202.885915 
L 1510.834434 202.886768 
L 1731.88065 202.883125 
L 1867.909091 202.884527 
L 1867.909091 202.884527 
" clip-path="url(#pd6fd7906e6)" style="fill: none; stroke: #ed9901; stroke-width: 2.25; stroke-linecap: round"/>
   </g>
   <g id="line2d_34">
    <path d="M 346.090909 230.804222 
L 363.094464 227.601374 
L 371.596242 226.721409 
L 380.098019 225.086492 
L 388.599797 224.116398 
L 397.101574 222.706325 
L 405.603352 221.038765 
L 414.10513 220.167479 
L 422.606907 218.392114 
L 439.610462 216.24603 
L 448.11224 215.068872 
L 490.621127 210.823274 
L 507.624683 209.540876 
L 516.12646 208.881328 
L 524.628238 208.489437 
L 533.130015 207.895905 
L 541.631793 207.53501 
L 550.13357 206.990005 
L 558.635348 206.597766 
L 567.137125 206.356149 
L 584.140681 205.728441 
L 626.649568 204.701435 
L 677.660234 203.88991 
L 762.678009 203.283317 
L 890.204672 202.963753 
L 1000.727781 202.906115 
L 1357.802438 202.885469 
L 1689.371762 202.8839 
L 1867.909091 202.882001 
L 1867.909091 202.882001 
" clip-path="url(#pd6fd7906e6)" style="fill: none; stroke: #016457; stroke-width: 2.25; stroke-linecap: round"/>
   </g>
   <g id="line2d_35">
    <path d="M 346.090909 230.53603 
L 354.592687 227.55737 
L 371.596242 223.974733 
L 380.098019 221.816589 
L 397.101574 220.416459 
L 405.603352 219.426456 
L 422.606907 217.881162 
L 431.108685 217.404545 
L 439.610462 216.411444 
L 448.11224 216.070378 
L 482.11935 213.379802 
L 490.621127 212.856565 
L 499.122905 212.040563 
L 507.624683 211.412658 
L 524.628238 210.470066 
L 533.130015 209.832914 
L 541.631793 209.01491 
L 567.137125 207.528937 
L 584.140681 206.831928 
L 592.642458 206.367487 
L 618.147791 205.499794 
L 626.649568 205.324827 
L 643.653123 204.791161 
L 677.660234 204.076158 
L 762.678009 203.238672 
L 839.194007 203.009389 
L 966.72067 202.912593 
L 1204.770442 202.881867 
L 1629.859319 202.883341 
L 1867.909091 202.881754 
L 1867.909091 202.881754 
" clip-path="url(#pd6fd7906e6)" style="fill: none; stroke: #ec9c01; stroke-width: 2.25; stroke-linecap: round"/>
   </g>
   <g id="line2d_36">
    <path d="M 346.090909 221.281493 
L 354.592687 219.451276 
L 363.094464 218.550484 
L 380.098019 216.437886 
L 388.599797 214.969542 
L 397.101574 214.261022 
L 414.10513 212.191987 
L 456.614017 209.004874 
L 465.115795 208.650409 
L 482.11935 207.729789 
L 490.621127 207.437475 
L 507.624683 206.666379 
L 524.628238 205.946385 
L 558.635348 204.93409 
L 575.638903 204.58334 
L 609.646013 203.998396 
L 660.656679 203.487004 
L 694.663789 203.281009 
L 754.176232 203.08523 
L 924.211783 202.905668 
L 1043.236668 202.889193 
L 1357.802438 202.881853 
L 1655.364652 202.884305 
L 1867.909091 202.882678 
L 1867.909091 202.882678 
" clip-path="url(#pd6fd7906e6)" style="fill: none; stroke: #01695d; stroke-width: 2.25; stroke-linecap: round"/>
   </g>
   <g id="line2d_37">
    <path d="M 346.090909 220.727385 
L 363.094464 217.269533 
L 371.596242 216.140915 
L 397.101574 213.294156 
L 414.10513 211.726293 
L 431.108685 210.477984 
L 448.11224 209.19545 
L 465.115795 208.499698 
L 473.617572 207.991321 
L 516.12646 206.31842 
L 541.631793 205.652718 
L 558.635348 205.129187 
L 601.144236 204.229816 
L 635.151346 203.813173 
L 703.165566 203.270448 
L 762.678009 203.054773 
L 932.71356 202.906799 
L 1204.770442 202.884676 
L 1850.905536 202.880199 
L 1867.909091 202.880023 
L 1867.909091 202.880023 
" clip-path="url(#pd6fd7906e6)" style="fill: none; stroke: #ea9f01; stroke-width: 2.25; stroke-linecap: round"/>
   </g>
   <g id="line2d_38">
    <path d="M 346.090909 212.637572 
L 354.592687 212.084158 
L 363.094464 211.412892 
L 371.596242 210.973885 
L 414.10513 208.223223 
L 422.606907 207.788729 
L 431.108685 207.208814 
L 439.610462 206.920085 
L 456.614017 206.163233 
L 490.621127 205.038126 
L 558.635348 203.785305 
L 686.162011 203.080603 
L 754.176232 202.982532 
L 941.215338 202.897358 
L 1867.909091 202.88551 
L 1867.909091 202.88551 
" clip-path="url(#pd6fd7906e6)" style="fill: none; stroke: #016d64; stroke-width: 2.25; stroke-linecap: round"/>
   </g>
   <g id="line2d_39">
    <path d="M 346.090909 212.3756 
L 354.592687 211.352837 
L 363.094464 210.739075 
L 371.596242 209.967605 
L 405.603352 207.752174 
L 414.10513 207.332734 
L 482.11935 204.984672 
L 516.12646 204.267405 
L 567.137125 203.564431 
L 618.147791 203.262202 
L 677.660234 203.074692 
L 762.678009 202.956088 
L 1068.742001 202.887954 
L 1689.371762 202.879428 
L 1867.909091 202.884834 
L 1867.909091 202.884834 
" clip-path="url(#pd6fd7906e6)" style="fill: none; stroke: #e8a201; stroke-width: 2.25; stroke-linecap: round"/>
   </g>
   <g id="line2d_40">
    <path d="M 346.090909 202.325154 
L 439.610462 202.681957 
L 643.653123 202.860491 
L 898.70645 202.883856 
L 1867.909091 202.882566 
L 1867.909091 202.882566 
" clip-path="url(#pd6fd7906e6)" style="fill: none; stroke: #00726b; stroke-width: 2.25; stroke-linecap: round"/>
   </g>
   <g id="line2d_41">
    <path d="M 346.090909 202.323089 
L 397.101574 202.576488 
L 550.13357 202.826695 
L 992.226003 202.882511 
L 1867.909091 202.883251 
L 1867.909091 202.883251 
" clip-path="url(#pd6fd7906e6)" style="fill: none; stroke: #e6a501; stroke-width: 2.25; stroke-linecap: round"/>
   </g>
   <g id="line2d_42">
    <path d="M 346.090909 198.150175 
L 380.098019 199.71279 
L 388.599797 199.933208 
L 397.101574 200.342418 
L 422.606907 200.953322 
L 465.115795 201.669673 
L 507.624683 202.127003 
L 567.137125 202.476937 
L 728.670899 202.817718 
L 1034.734891 202.881609 
L 1867.909091 202.88018 
L 1867.909091 202.88018 
" clip-path="url(#pd6fd7906e6)" style="fill: none; stroke: #007772; stroke-width: 2.25; stroke-linecap: round"/>
   </g>
   <g id="line2d_43">
    <path d="M 346.090909 198.123875 
L 354.592687 198.302996 
L 363.094464 198.798965 
L 388.599797 199.763891 
L 448.11224 201.290811 
L 524.628238 202.222748 
L 601.144236 202.604942 
L 711.667344 202.806433 
L 932.71356 202.877895 
L 1867.909091 202.884207 
L 1867.909091 202.884207 
" clip-path="url(#pd6fd7906e6)" style="fill: none; stroke: #e5a801; stroke-width: 2.25; stroke-linecap: round"/>
   </g>
   <g id="line2d_44">
    <path d="M 346.090909 193.793177 
L 354.592687 194.754497 
L 363.094464 195.380076 
L 371.596242 195.815963 
L 380.098019 196.48699 
L 431.108685 199.078685 
L 448.11224 199.687691 
L 507.624683 201.274761 
L 550.13357 201.917622 
L 609.646013 202.379794 
L 686.162011 202.68047 
L 762.678009 202.793083 
L 958.218893 202.872656 
L 1527.837989 202.88266 
L 1782.891315 202.886105 
L 1867.909091 202.883922 
L 1867.909091 202.883922 
" clip-path="url(#pd6fd7906e6)" style="fill: none; stroke: #007b79; stroke-width: 2.25; stroke-linecap: round"/>
   </g>
   <g id="line2d_45">
    <path d="M 346.090909 193.488866 
L 380.098019 196.343186 
L 388.599797 197.035899 
L 405.603352 198.014892 
L 431.108685 199.272882 
L 482.11935 200.981 
L 507.624683 201.535744 
L 550.13357 202.02688 
L 669.158456 202.638125 
L 847.695785 202.852299 
L 1196.268664 202.881497 
L 1816.898426 202.88202 
L 1867.909091 202.882606 
L 1867.909091 202.882606 
" clip-path="url(#pd6fd7906e6)" style="fill: none; stroke: #e3aa01; stroke-width: 2.25; stroke-linecap: round"/>
   </g>
   <g id="line2d_46">
    <path d="M 346.090909 179.513524 
L 354.592687 182.351469 
L 363.094464 185.372315 
L 371.596242 187.328315 
L 380.098019 189.114352 
L 388.599797 190.611587 
L 405.603352 193.044521 
L 414.10513 194.118543 
L 439.610462 196.410139 
L 448.11224 197.210203 
L 456.614017 197.805331 
L 473.617572 198.710486 
L 490.621127 199.390129 
L 533.130015 200.632391 
L 550.13357 201.008128 
L 618.147791 201.942676 
L 694.663789 202.496947 
L 771.179787 202.74067 
L 1017.731336 202.87546 
L 1808.396648 202.884072 
L 1867.909091 202.885533 
L 1867.909091 202.885533 
" clip-path="url(#pd6fd7906e6)" style="fill: none; stroke: #008080; stroke-width: 2.25; stroke-linecap: round"/>
   </g>
   <g id="line2d_47">
    <path d="M 346.090909 178.56 
L 363.094464 180.763547 
L 371.596242 182.09999 
L 380.098019 183.905992 
L 397.101574 187.067062 
L 405.603352 189.074514 
L 414.10513 190.524914 
L 422.606907 192.423644 
L 439.610462 195.145992 
L 456.614017 197.396834 
L 473.617572 198.744373 
L 482.11935 199.369858 
L 490.621127 199.86497 
L 516.12646 200.9282 
L 541.631793 201.516163 
L 567.137125 201.96631 
L 609.646013 202.338512 
L 677.660234 202.582016 
L 839.194007 202.79939 
L 1000.727781 202.872448 
L 1731.88065 202.885875 
L 1867.909091 202.884766 
L 1867.909091 202.884766 
" clip-path="url(#pd6fd7906e6)" style="fill: none; stroke: #e1ad01; stroke-width: 2.25; stroke-linecap: round"/>
   </g>
   <g id="patch_3">
    <path d="M 270 1025.28 
L 270 138.24 
" style="fill: none; stroke: #262626; stroke-width: 1.875; stroke-linejoin: miter; stroke-linecap: square"/>
   </g>
   <g id="patch_4">
    <path d="M 1944 1025.28 
L 1944 138.24 
" style="fill: none; stroke: #262626; stroke-width: 1.875; stroke-linejoin: miter; stroke-linecap: square"/>
   </g>
   <g id="patch_5">
    <path d="M 270 1025.28 
L 1944 1025.28 
" style="fill: none; stroke: #262626; stroke-width: 1.875; stroke-linejoin: miter; stroke-linecap: square"/>
   </g>
   <g id="patch_6">
    <path d="M 270 138.24 
L 1944 138.24 
" style="fill: none; stroke: #262626; stroke-width: 1.875; stroke-linejoin: miter; stroke-linecap: square"/>
   </g>
   <g id="text_14">
    <!-- I(Z) -->
    <g style="fill: #262626" transform="translate(1054.190625 125.761875) scale(0.6 -0.6)">
     <use xlink:href="#DejaVuSans-49"/>
     <use xlink:href="#DejaVuSans-28" x="29.492188"/>
     <use xlink:href="#DejaVuSans-5a" x="68.505859"/>
     <use xlink:href="#DejaVuSans-29" x="137.011719"/>
    </g>
   </g>
  </g>
 </g>
 <defs>
  <clipPath id="pd6fd7906e6">
   <rect x="270" y="138.24" width="1674" height="887.04"/>
  </clipPath>
 </defs>
</svg>
